<?xml version="1.0" encoding="us-ascii" standalone="no"?><svg xmlns="http://www.w3.org/2000/svg" xmlns:xlink="http://www.w3.org/1999/xlink" contentStyleType="text/css" height="1832px" preserveAspectRatio="none" style="width:1058px;height:1832px;background:#FFFFFF;" version="1.1" viewBox="0 0 1058 1832" width="1058px" zoomAndPan="magnify"><defs/><g><text fill="#000000" font-family="Verdana" font-size="22" font-weight="bold" lengthAdjust="spacing" textLength="318" x="368.75" y="37.1182">SD07b: T&#7914; CH&#7888;I T&#192;I TR&#7906;</text><rect fill="#FFFFFF" height="1183.3086" style="stroke:#000000;stroke-width:1.0;" width="10" x="370.5" y="162.5513"/><rect fill="#FFFFFF" height="105.1973" style="stroke:#000000;stroke-width:1.0;" width="10" x="589.5" y="192.3506"/><rect fill="#FFFFFF" height="105.1973" style="stroke:#000000;stroke-width:1.0;" width="10" x="589.5" y="357.1465"/><rect fill="#FFFFFF" height="525.7563" style="stroke:#000000;stroke-width:1.0;" width="10" x="589.5" y="768.3042"/><rect fill="#FFFFFF" height="29.7993" style="stroke:#000000;stroke-width:1.0;" width="10" x="822.5" y="237.9492"/><rect fill="#FFFFFF" height="29.7993" style="stroke:#000000;stroke-width:1.0;" width="10" x="822.5" y="402.7451"/><rect fill="#FFFFFF" height="29.7993" style="stroke:#000000;stroke-width:1.0;" width="10" x="822.5" y="886.7021"/><rect fill="#FFFFFF" height="32.7993" style="stroke:#000000;stroke-width:1.0;" width="10" x="822.5" y="1080.666"/><rect fill="#FFFFFF" height="29.7993" style="stroke:#000000;stroke-width:1.0;" width="10" x="822.5" y="1143.2646"/><rect fill="#FFFFFF" height="29.7993" style="stroke:#000000;stroke-width:1.0;" width="10" x="822.5" y="1218.6626"/><rect fill="#FFFFFF" height="658.3223" style="stroke:#000000;stroke-width:1.0;" width="942.5" x="99" y="680.5376"/><rect fill="#FFFFFF" height="610.7236" style="stroke:none;stroke-width:1.0;" width="942.5" x="99" y="728.1362"/><rect fill="#FFFFFF" height="400.3584" style="stroke:#000000;stroke-width:1.0;" width="922.5" x="109" y="931.5015"/><rect fill="#FFFFFF" height="307.1611" style="stroke:none;stroke-width:1.0;" width="922.5" x="109" y="1024.6987"/><line style="stroke:#000000;stroke-width:1.0;" x1="149" x2="149" y1="130.752" y2="1522.2544"/><line style="stroke:#000000;stroke-width:1.0;" x1="375" x2="375" y1="130.752" y2="1522.2544"/><line style="stroke:#000000;stroke-width:1.0;" x1="594" x2="594" y1="130.752" y2="1522.2544"/><line style="stroke:#000000;stroke-width:1.0;" x1="827" x2="827" y1="130.752" y2="1522.2544"/><text fill="#000000" font-family="Verdana" font-size="14" lengthAdjust="spacing" textLength="55" x="119" y="127.8125">K&#7871; to&#225;n</text><ellipse cx="149.5" cy="61.7373" fill="#FFFFFF" rx="8" ry="8" style="stroke:#000000;stroke-width:1.0;"/><path d="M149.5,69.7373 L149.5,96.7373 M136.5,77.7373 L162.5,77.7373 M149.5,96.7373 L136.5,111.7373 M149.5,96.7373 L162.5,111.7373 " fill="none" style="stroke:#000000;stroke-width:1.0;"/><text fill="#000000" font-family="Verdana" font-size="14" lengthAdjust="spacing" textLength="55" x="119" y="1535.3296">K&#7871; to&#225;n</text><ellipse cx="149.5" cy="1547.269" fill="#FFFFFF" rx="8" ry="8" style="stroke:#000000;stroke-width:1.0;"/><path d="M149.5,1555.269 L149.5,1582.269 M136.5,1563.269 L162.5,1563.269 M149.5,1582.269 L136.5,1597.269 M149.5,1582.269 L162.5,1597.269 " fill="none" style="stroke:#000000;stroke-width:1.0;"/><rect fill="#FFFFFF" height="31.0146" rx="2.5" ry="2.5" style="stroke:#000000;stroke-width:1.0;" width="95" x="328" y="98.7373"/><text fill="#000000" font-family="Verdana" font-size="14" lengthAdjust="spacing" textLength="81" x="335" y="119.8125">Tr&#236;nh duy&#7879;t</text><rect fill="#FFFFFF" height="31.0146" rx="2.5" ry="2.5" style="stroke:#000000;stroke-width:1.0;" width="95" x="328" y="1521.2544"/><text fill="#000000" font-family="Verdana" font-size="14" lengthAdjust="spacing" textLength="81" x="335" y="1542.3296">Tr&#236;nh duy&#7879;t</text><rect fill="#FFFFFF" height="31.0146" rx="2.5" ry="2.5" style="stroke:#000000;stroke-width:1.0;" width="107" x="541" y="98.7373"/><text fill="#000000" font-family="Verdana" font-size="14" lengthAdjust="spacing" textLength="93" x="548" y="119.8125">API H&#7879; th&#7889;ng</text><rect fill="#FFFFFF" height="31.0146" rx="2.5" ry="2.5" style="stroke:#000000;stroke-width:1.0;" width="107" x="541" y="1521.2544"/><text fill="#000000" font-family="Verdana" font-size="14" lengthAdjust="spacing" textLength="93" x="548" y="1542.3296">API H&#7879; th&#7889;ng</text><text fill="#000000" font-family="Verdana" font-size="14" lengthAdjust="spacing" textLength="93" x="778" y="127.8125">C&#417; s&#7903; d&#7919; li&#7879;u</text><path d="M809.5,77.7373 C809.5,67.7373 827.5,67.7373 827.5,67.7373 C827.5,67.7373 845.5,67.7373 845.5,77.7373 L845.5,103.7373 C845.5,113.7373 827.5,113.7373 827.5,113.7373 C827.5,113.7373 809.5,113.7373 809.5,103.7373 L809.5,77.7373 " fill="#FFFFFF" style="stroke:#000000;stroke-width:1.5;"/><path d="M809.5,77.7373 C809.5,87.7373 827.5,87.7373 827.5,87.7373 C827.5,87.7373 845.5,87.7373 845.5,77.7373 " fill="none" style="stroke:#000000;stroke-width:1.5;"/><text fill="#000000" font-family="Verdana" font-size="14" lengthAdjust="spacing" textLength="93" x="778" y="1535.3296">C&#417; s&#7903; d&#7919; li&#7879;u</text><path d="M809.5,1548.269 C809.5,1538.269 827.5,1538.269 827.5,1538.269 C827.5,1538.269 845.5,1538.269 845.5,1548.269 L845.5,1574.269 C845.5,1584.269 827.5,1584.269 827.5,1584.269 C827.5,1584.269 809.5,1584.269 809.5,1574.269 L809.5,1548.269 " fill="#FFFFFF" style="stroke:#000000;stroke-width:1.5;"/><path d="M809.5,1548.269 C809.5,1558.269 827.5,1558.269 827.5,1558.269 C827.5,1558.269 845.5,1558.269 845.5,1548.269 " fill="none" style="stroke:#000000;stroke-width:1.5;"/><rect fill="#FFFFFF" height="1183.3086" style="stroke:#000000;stroke-width:1.0;" width="10" x="370.5" y="162.5513"/><rect fill="#FFFFFF" height="105.1973" style="stroke:#000000;stroke-width:1.0;" width="10" x="589.5" y="192.3506"/><rect fill="#FFFFFF" height="105.1973" style="stroke:#000000;stroke-width:1.0;" width="10" x="589.5" y="357.1465"/><rect fill="#FFFFFF" height="525.7563" style="stroke:#000000;stroke-width:1.0;" width="10" x="589.5" y="768.3042"/><rect fill="#FFFFFF" height="29.7993" style="stroke:#000000;stroke-width:1.0;" width="10" x="822.5" y="237.9492"/><rect fill="#FFFFFF" height="29.7993" style="stroke:#000000;stroke-width:1.0;" width="10" x="822.5" y="402.7451"/><rect fill="#FFFFFF" height="29.7993" style="stroke:#000000;stroke-width:1.0;" width="10" x="822.5" y="886.7021"/><rect fill="#FFFFFF" height="32.7993" style="stroke:#000000;stroke-width:1.0;" width="10" x="822.5" y="1080.666"/><rect fill="#FFFFFF" height="29.7993" style="stroke:#000000;stroke-width:1.0;" width="10" x="822.5" y="1143.2646"/><rect fill="#FFFFFF" height="29.7993" style="stroke:#000000;stroke-width:1.0;" width="10" x="822.5" y="1218.6626"/><polygon fill="#000000" points="358.5,158.5513,368.5,162.5513,358.5,166.5513,362.5,162.5513" style="stroke:#000000;stroke-width:1.0;"/><line style="stroke:#000000;stroke-width:1.0;" x1="149.5" x2="364.5" y1="162.5513" y2="162.5513"/><text fill="#000000" font-family="Verdana" font-size="13" lengthAdjust="spacing" textLength="188" x="166" y="157.8218">V&#224;o trang "X&#225;c nh&#7853;n t&#224;i tr&#7907;"</text><polygon fill="#000000" points="577.5,188.3506,587.5,192.3506,577.5,196.3506,581.5,192.3506" style="stroke:#000000;stroke-width:1.0;"/><line style="stroke:#000000;stroke-width:1.0;" x1="380.5" x2="583.5" y1="192.3506" y2="192.3506"/><text fill="#000000" font-family="Verdana" font-size="13" lengthAdjust="spacing" textLength="190" x="390" y="187.6211">L&#7845;y danh s&#225;ch ch&#7901; x&#225;c nh&#7853;n</text><polygon fill="#000000" points="810.5,233.9492,820.5,237.9492,810.5,241.9492,814.5,237.9492" style="stroke:#000000;stroke-width:1.0;"/><line style="stroke:#000000;stroke-width:1.0;" x1="599.5" x2="816.5" y1="237.9492" y2="237.9492"/><text fill="#000000" font-family="Verdana" font-size="13" lengthAdjust="spacing" textLength="149" x="636.5" y="217.4204">Truy v&#7845;n kho&#7843;n t&#224;i tr&#7907;</text><text fill="#000000" font-family="Verdana" font-size="13" lengthAdjust="spacing" textLength="191" x="615.5" y="233.2197">c&#243; tr&#7841;ng th&#225;i "Ch&#7901; x&#225;c nh&#7853;n"</text><polygon fill="#000000" points="610.5,263.7485,600.5,267.7485,610.5,271.7485,606.5,267.7485" style="stroke:#000000;stroke-width:1.0;"/><line style="stroke:#000000;stroke-width:1.0;stroke-dasharray:2.0,2.0;" x1="604.5" x2="826.5" y1="267.7485" y2="267.7485"/><text fill="#000000" font-family="Verdana" font-size="13" lengthAdjust="spacing" textLength="159" x="634" y="263.019">Danh s&#225;ch kho&#7843;n t&#224;i tr&#7907;</text><polygon fill="#000000" points="391.5,293.5479,381.5,297.5479,391.5,301.5479,387.5,297.5479" style="stroke:#000000;stroke-width:1.0;"/><line style="stroke:#000000;stroke-width:1.0;stroke-dasharray:2.0,2.0;" x1="385.5" x2="593.5" y1="297.5479" y2="297.5479"/><text fill="#000000" font-family="Verdana" font-size="13" lengthAdjust="spacing" textLength="123" x="426" y="292.8184">Hi&#7875;n th&#7883; danh s&#225;ch</text><polygon fill="#000000" points="358.5,323.3472,368.5,327.3472,358.5,331.3472,362.5,327.3472" style="stroke:#000000;stroke-width:1.0;"/><line style="stroke:#000000;stroke-width:1.0;" x1="149.5" x2="364.5" y1="327.3472" y2="327.3472"/><text fill="#000000" font-family="Verdana" font-size="13" lengthAdjust="spacing" textLength="197" x="161.5" y="322.6177">Click v&#224;o kho&#7843;n c&#7847;n x&#225;c nh&#7853;n</text><polygon fill="#000000" points="577.5,353.1465,587.5,357.1465,577.5,361.1465,581.5,357.1465" style="stroke:#000000;stroke-width:1.0;"/><line style="stroke:#000000;stroke-width:1.0;" x1="380.5" x2="583.5" y1="357.1465" y2="357.1465"/><text fill="#000000" font-family="Verdana" font-size="13" lengthAdjust="spacing" textLength="165" x="402.5" y="352.417">L&#7845;y chi ti&#7871;t kho&#7843;n t&#224;i tr&#7907;</text><polygon fill="#000000" points="810.5,398.7451,820.5,402.7451,810.5,406.7451,814.5,402.7451" style="stroke:#000000;stroke-width:1.0;"/><line style="stroke:#000000;stroke-width:1.0;" x1="599.5" x2="816.5" y1="402.7451" y2="402.7451"/><text fill="#000000" font-family="Verdana" font-size="13" lengthAdjust="spacing" textLength="124" x="649" y="382.2163">Truy v&#7845;n th&#244;ng tin</text><text fill="#000000" font-family="Verdana" font-size="13" lengthAdjust="spacing" textLength="139" x="641.5" y="398.0156">+ Ch&#7913;ng t&#7915; &#273;&#237;nh k&#232;m</text><polygon fill="#000000" points="610.5,428.5444,600.5,432.5444,610.5,436.5444,606.5,432.5444" style="stroke:#000000;stroke-width:1.0;"/><line style="stroke:#000000;stroke-width:1.0;stroke-dasharray:2.0,2.0;" x1="604.5" x2="826.5" y1="432.5444" y2="432.5444"/><text fill="#000000" font-family="Verdana" font-size="13" lengthAdjust="spacing" textLength="138" x="644.5" y="427.8149">Chi ti&#7871;t kho&#7843;n t&#224;i tr&#7907;</text><polygon fill="#000000" points="391.5,458.3438,381.5,462.3438,391.5,466.3438,387.5,462.3438" style="stroke:#000000;stroke-width:1.0;"/><line style="stroke:#000000;stroke-width:1.0;stroke-dasharray:2.0,2.0;" x1="385.5" x2="593.5" y1="462.3438" y2="462.3438"/><text fill="#000000" font-family="Verdana" font-size="13" lengthAdjust="spacing" textLength="102" x="436.5" y="457.6143">Hi&#7875;n th&#7883; chi ti&#7871;t</text><line style="stroke:#000000;stroke-width:1.0;" x1="149.5" x2="191.5" y1="492.1431" y2="492.1431"/><line style="stroke:#000000;stroke-width:1.0;" x1="191.5" x2="191.5" y1="492.1431" y2="505.1431"/><line style="stroke:#000000;stroke-width:1.0;" x1="150.5" x2="191.5" y1="505.1431" y2="505.1431"/><polygon fill="#000000" points="160.5,501.1431,150.5,505.1431,160.5,509.1431,156.5,505.1431" style="stroke:#000000;stroke-width:1.0;"/><text fill="#000000" font-family="Verdana" font-size="13" lengthAdjust="spacing" textLength="176" x="156.5" y="487.4136">Ki&#7875;m tra sao k&#234; ng&#226;n h&#224;ng</text><path d="M10,518.1431 L10,622.1431 L289,622.1431 L289,528.1431 L279,518.1431 L10,518.1431 " fill="#FFFFFF" style="stroke:#000000;stroke-width:1.0;"/><path d="M279,518.1431 L279,528.1431 L289,528.1431 L279,518.1431 " fill="#FFFFFF" style="stroke:#000000;stroke-width:1.0;"/><text fill="#000000" font-family="Verdana" font-size="13" font-weight="bold" lengthAdjust="spacing" textLength="258" x="16" y="536.2129">Tr&#432;&#7901;ng h&#7907;p: Th&#244;ng tin KH&#212;NG KH&#7898;P</text><text fill="#000000" font-family="Verdana" font-size="13" lengthAdjust="spacing" textLength="39" x="16" y="552.0122">V&#237; d&#7909;:</text><text fill="#000000" font-family="Verdana" font-size="13" lengthAdjust="spacing" textLength="176" x="16" y="567.8115">- Kh&#244;ng t&#236;m th&#7845;y giao d&#7883;ch</text><text fill="#000000" font-family="Verdana" font-size="13" lengthAdjust="spacing" textLength="139" x="16" y="583.6108">- S&#7889; ti&#7873;n kh&#244;ng kh&#7899;p</text><text fill="#000000" font-family="Verdana" font-size="13" lengthAdjust="spacing" textLength="189" x="16" y="599.4102">- N&#7897;i dung chuy&#7875;n kho&#7843;n sai</text><text fill="#000000" font-family="Verdana" font-size="13" lengthAdjust="spacing" textLength="130" x="16" y="615.2095">- Ch&#7913;ng t&#7915; gi&#7843; m&#7841;o</text><polygon fill="#000000" points="358.5,661.5376,368.5,665.5376,358.5,669.5376,362.5,665.5376" style="stroke:#000000;stroke-width:1.0;"/><line style="stroke:#000000;stroke-width:1.0;" x1="149.5" x2="364.5" y1="665.5376" y2="665.5376"/><text fill="#000000" font-family="Verdana" font-size="13" lengthAdjust="spacing" textLength="122" x="199" y="645.0088">Nh&#7853;p l&#253; do t&#7915; ch&#7889;i</text><text fill="#000000" font-family="Verdana" font-size="13" lengthAdjust="spacing" textLength="79" x="220.5" y="660.8081">(B&#7854;T BU&#7896;C)</text><path d="M99,680.5376 L163,680.5376 L163,688.3369 L153,698.3369 L99,698.3369 L99,680.5376 " fill="#FFFFFF" style="stroke:#000000;stroke-width:1.0;"/><rect fill="none" height="658.3223" style="stroke:#000000;stroke-width:1.0;" width="942.5" x="99" y="680.5376"/><text fill="#000000" font-family="Verdana" font-size="13" font-weight="bold" lengthAdjust="spacing" textLength="19" x="114" y="694.6074">alt</text><text fill="#000000" font-family="Verdana" font-size="11" font-weight="bold" lengthAdjust="spacing" textLength="116" x="178" y="693.5967">[Ch&#432;a nh&#7853;p l&#253; do]</text><polygon fill="#000000" points="160.5,716.1362,150.5,720.1362,160.5,724.1362,156.5,720.1362" style="stroke:#000000;stroke-width:1.0;"/><line style="stroke:#000000;stroke-width:1.0;stroke-dasharray:2.0,2.0;" x1="154.5" x2="369.5" y1="720.1362" y2="720.1362"/><text fill="#000000" font-family="Verdana" font-size="13" lengthAdjust="spacing" textLength="180" x="170" y="715.4067">Y&#234;u c&#7847;u nh&#7853;p l&#253; do t&#7915; ch&#7889;i</text><line style="stroke:#000000;stroke-width:1.0;stroke-dasharray:2.0,2.0;" x1="99" x2="1041.5" y1="729.1362" y2="729.1362"/><text fill="#000000" font-family="Verdana" font-size="11" font-weight="bold" lengthAdjust="spacing" textLength="101" x="104" y="740.1953">[&#272;&#227; nh&#7853;p l&#253; do]</text><polygon fill="#000000" points="577.5,764.3042,587.5,768.3042,577.5,772.3042,581.5,768.3042" style="stroke:#000000;stroke-width:1.0;"/><line style="stroke:#000000;stroke-width:1.0;" x1="380.5" x2="583.5" y1="768.3042" y2="768.3042"/><text fill="#000000" font-family="Verdana" font-size="13" lengthAdjust="spacing" textLength="131" x="419.5" y="763.5747">G&#7917;i y&#234;u c&#7847;u t&#7915; ch&#7889;i</text><path d="M604,748.5049 L604,773.5049 L819,773.5049 L819,758.5049 L809,748.5049 L604,748.5049 " fill="#FFFFFF" style="stroke:#000000;stroke-width:1.0;"/><path d="M809,748.5049 L809,758.5049 L819,758.5049 L809,748.5049 " fill="#FFFFFF" style="stroke:#000000;stroke-width:1.0;"/><text fill="#000000" font-family="Verdana" font-size="13" lengthAdjust="spacing" textLength="194" x="610" y="766.5747">PUT /api/donations/:id/reject</text><line style="stroke:#000000;stroke-width:1.0;" x1="599.5" x2="641.5" y1="801.1035" y2="801.1035"/><line style="stroke:#000000;stroke-width:1.0;" x1="641.5" x2="641.5" y1="801.1035" y2="814.1035"/><line style="stroke:#000000;stroke-width:1.0;" x1="600.5" x2="641.5" y1="814.1035" y2="814.1035"/><polygon fill="#000000" points="610.5,810.1035,600.5,814.1035,610.5,818.1035,606.5,814.1035" style="stroke:#000000;stroke-width:1.0;"/><text fill="#000000" font-family="Verdana" font-size="13" lengthAdjust="spacing" textLength="103" x="606.5" y="796.374">X&#225;c th&#7921;c token</text><line style="stroke:#000000;stroke-width:1.0;" x1="599.5" x2="641.5" y1="843.9028" y2="843.9028"/><line style="stroke:#000000;stroke-width:1.0;" x1="641.5" x2="641.5" y1="843.9028" y2="856.9028"/><line style="stroke:#000000;stroke-width:1.0;" x1="600.5" x2="641.5" y1="856.9028" y2="856.9028"/><polygon fill="#000000" points="610.5,852.9028,600.5,856.9028,610.5,860.9028,606.5,856.9028" style="stroke:#000000;stroke-width:1.0;"/><text fill="#000000" font-family="Verdana" font-size="13" lengthAdjust="spacing" textLength="209" x="606.5" y="839.1733">Ki&#7875;m tra quy&#7873;n K&#7871; to&#225;n (role 2)</text><polygon fill="#000000" points="810.5,882.7021,820.5,886.7021,810.5,890.7021,814.5,886.7021" style="stroke:#000000;stroke-width:1.0;"/><line style="stroke:#000000;stroke-width:1.0;" x1="599.5" x2="816.5" y1="886.7021" y2="886.7021"/><text fill="#000000" font-family="Verdana" font-size="13" lengthAdjust="spacing" textLength="124" x="649" y="881.9727">Ki&#7875;m tra tr&#7841;ng th&#225;i</text><polygon fill="#000000" points="610.5,912.5015,600.5,916.5015,610.5,920.5015,606.5,916.5015" style="stroke:#000000;stroke-width:1.0;"/><line style="stroke:#000000;stroke-width:1.0;stroke-dasharray:2.0,2.0;" x1="604.5" x2="826.5" y1="916.5015" y2="916.5015"/><text fill="#000000" font-family="Verdana" font-size="13" lengthAdjust="spacing" textLength="122" x="652.5" y="911.772">Tr&#7841;ng th&#225;i hi&#7879;n t&#7841;i</text><path d="M109,931.5015 L173,931.5015 L173,939.3008 L163,949.3008 L109,949.3008 L109,931.5015 " fill="#FFFFFF" style="stroke:#000000;stroke-width:1.0;"/><rect fill="none" height="400.3584" style="stroke:#000000;stroke-width:1.0;" width="922.5" x="109" y="931.5015"/><text fill="#000000" font-family="Verdana" font-size="13" font-weight="bold" lengthAdjust="spacing" textLength="19" x="124" y="945.5713">alt</text><text fill="#000000" font-family="Verdana" font-size="11" font-weight="bold" lengthAdjust="spacing" textLength="260" x="188" y="944.5605">[Tr&#7841;ng th&#225;i kh&#244;ng ph&#7843;i "Ch&#7901; x&#225;c nh&#7853;n"]</text><polygon fill="#000000" points="391.5,982.8994,381.5,986.8994,391.5,990.8994,387.5,986.8994" style="stroke:#000000;stroke-width:1.0;"/><line style="stroke:#000000;stroke-width:1.0;stroke-dasharray:2.0,2.0;" x1="385.5" x2="588.5" y1="986.8994" y2="986.8994"/><text fill="#000000" font-family="Verdana" font-size="13" lengthAdjust="spacing" textLength="89" x="440.5" y="966.3706">Th&#244;ng b&#225;o l&#7895;i</text><text fill="#000000" font-family="Verdana" font-size="13" lengthAdjust="spacing" textLength="146" x="412" y="982.1699">"Kho&#7843;n &#273;&#227; &#273;&#432;&#7907;c x&#7917; l&#253;"</text><polygon fill="#000000" points="160.5,1012.6987,150.5,1016.6987,160.5,1020.6987,156.5,1016.6987" style="stroke:#000000;stroke-width:1.0;"/><line style="stroke:#000000;stroke-width:1.0;stroke-dasharray:2.0,2.0;" x1="154.5" x2="369.5" y1="1016.6987" y2="1016.6987"/><text fill="#000000" font-family="Verdana" font-size="13" lengthAdjust="spacing" textLength="69" x="225.5" y="1011.9692">Hi&#7875;n th&#7883; l&#7895;i</text><line style="stroke:#000000;stroke-width:1.0;stroke-dasharray:2.0,2.0;" x1="109" x2="1031.5" y1="1025.6987" y2="1025.6987"/><text fill="#000000" font-family="Verdana" font-size="11" font-weight="bold" lengthAdjust="spacing" textLength="123" x="114" y="1036.7578">[Tr&#7841;ng th&#225;i h&#7907;p l&#7879;]</text><polygon fill="#000000" points="810.5,1076.666,820.5,1080.666,810.5,1084.666,814.5,1080.666" style="stroke:#000000;stroke-width:1.0;"/><line style="stroke:#000000;stroke-width:1.0;" x1="599.5" x2="816.5" y1="1080.666" y2="1080.666"/><text fill="#000000" font-family="Verdana" font-size="13" lengthAdjust="spacing" textLength="130" x="646" y="1060.1372">C&#7853;p nh&#7853;t tr&#7841;ng th&#225;i</text><text fill="#000000" font-family="Verdana" font-size="13" lengthAdjust="spacing" textLength="103" x="659.5" y="1075.9365">th&#224;nh "T&#7915; ch&#7889;i"</text><path d="M837,1045.0674 L837,1086.0674 L1026,1086.0674 L1026,1055.0674 L1016,1045.0674 L837,1045.0674 " fill="#FFFFFF" style="stroke:#000000;stroke-width:1.0;"/><path d="M1016,1045.0674 L1016,1055.0674 L1026,1055.0674 L1016,1045.0674 " fill="#FFFFFF" style="stroke:#000000;stroke-width:1.0;"/><text fill="#000000" font-family="Verdana" font-size="13" lengthAdjust="spacing" textLength="112" x="843" y="1063.1372">KH&#212;NG c&#7897;ng ti&#7873;n</text><text fill="#000000" font-family="Verdana" font-size="13" lengthAdjust="spacing" textLength="168" x="843" y="1078.9365">KH&#212;NG t&#7841;o giao d&#7883;ch THU</text><polygon fill="#000000" points="610.5,1109.4653,600.5,1113.4653,610.5,1117.4653,606.5,1113.4653" style="stroke:#000000;stroke-width:1.0;"/><line style="stroke:#000000;stroke-width:1.0;stroke-dasharray:2.0,2.0;" x1="604.5" x2="826.5" y1="1113.4653" y2="1113.4653"/><text fill="#000000" font-family="Verdana" font-size="13" lengthAdjust="spacing" textLength="81" x="673" y="1108.7358">&#272;&#227; c&#7853;p nh&#7853;t</text><polygon fill="#000000" points="810.5,1139.2646,820.5,1143.2646,810.5,1147.2646,814.5,1143.2646" style="stroke:#000000;stroke-width:1.0;"/><line style="stroke:#000000;stroke-width:1.0;" x1="599.5" x2="816.5" y1="1143.2646" y2="1143.2646"/><text fill="#000000" font-family="Verdana" font-size="13" lengthAdjust="spacing" textLength="113" x="654.5" y="1138.5352">L&#432;u l&#253; do t&#7915; ch&#7889;i</text><polygon fill="#000000" points="610.5,1169.064,600.5,1173.064,610.5,1177.064,606.5,1173.064" style="stroke:#000000;stroke-width:1.0;"/><line style="stroke:#000000;stroke-width:1.0;stroke-dasharray:2.0,2.0;" x1="604.5" x2="826.5" y1="1173.064" y2="1173.064"/><text fill="#000000" font-family="Verdana" font-size="13" lengthAdjust="spacing" textLength="42" x="692.5" y="1168.3345">&#272;&#227; l&#432;u</text><polygon fill="#000000" points="810.5,1214.6626,820.5,1218.6626,810.5,1222.6626,814.5,1218.6626" style="stroke:#000000;stroke-width:1.0;"/><line style="stroke:#000000;stroke-width:1.0;" x1="599.5" x2="816.5" y1="1218.6626" y2="1218.6626"/><text fill="#000000" font-family="Verdana" font-size="13" lengthAdjust="spacing" textLength="117" x="652.5" y="1198.1338">L&#432;u ng&#432;&#7901;i t&#7915; ch&#7889;i</text><text fill="#000000" font-family="Verdana" font-size="13" lengthAdjust="spacing" textLength="78" x="672" y="1213.9331">v&#224; th&#7901;i gian</text><polygon fill="#000000" points="610.5,1244.4619,600.5,1248.4619,610.5,1252.4619,606.5,1248.4619" style="stroke:#000000;stroke-width:1.0;"/><line style="stroke:#000000;stroke-width:1.0;stroke-dasharray:2.0,2.0;" x1="604.5" x2="826.5" y1="1248.4619" y2="1248.4619"/><text fill="#000000" font-family="Verdana" font-size="13" lengthAdjust="spacing" textLength="42" x="692.5" y="1243.7324">&#272;&#227; l&#432;u</text><polygon fill="#000000" points="391.5,1290.0605,381.5,1294.0605,391.5,1298.0605,387.5,1294.0605" style="stroke:#000000;stroke-width:1.0;"/><line style="stroke:#000000;stroke-width:1.0;stroke-dasharray:2.0,2.0;" x1="385.5" x2="593.5" y1="1294.0605" y2="1294.0605"/><text fill="#000000" font-family="Verdana" font-size="13" lengthAdjust="spacing" textLength="150" x="412.5" y="1273.5317">Th&#244;ng b&#225;o th&#224;nh c&#244;ng</text><text fill="#000000" font-family="Verdana" font-size="13" lengthAdjust="spacing" textLength="169" x="403" y="1289.3311">"&#272;&#227; t&#7915; ch&#7889;i kho&#7843;n t&#224;i tr&#7907;"</text><polygon fill="#000000" points="160.5,1319.8599,150.5,1323.8599,160.5,1327.8599,156.5,1323.8599" style="stroke:#000000;stroke-width:1.0;"/><line style="stroke:#000000;stroke-width:1.0;stroke-dasharray:2.0,2.0;" x1="154.5" x2="369.5" y1="1323.8599" y2="1323.8599"/><text fill="#000000" font-family="Verdana" font-size="13" lengthAdjust="spacing" textLength="134" x="193" y="1319.1304">Hi&#7875;n th&#7883; "&#272;&#227; t&#7915; ch&#7889;i"</text><path d="M112,1350.8599 L112,1438.8599 L865,1438.8599 L865,1360.8599 L855,1350.8599 L112,1350.8599 " fill="#FFFFFF" style="stroke:#000000;stroke-width:1.0;"/><path d="M855,1350.8599 L855,1360.8599 L865,1360.8599 L855,1350.8599 " fill="#FFFFFF" style="stroke:#000000;stroke-width:1.0;"/><text fill="#000000" font-family="Verdana" font-size="13" font-weight="bold" lengthAdjust="spacing" textLength="60" x="369.5" y="1368.9297">K&#7871;t qu&#7843;:</text><text fill="#000000" font-family="Verdana" font-size="13" lengthAdjust="spacing" textLength="188" x="369.5" y="1384.729">&#10060; KH&#212;NG c&#7897;ng ti&#7873;n v&#224;o qu&#7929;</text><text fill="#000000" font-family="Verdana" font-size="13" lengthAdjust="spacing" textLength="186" x="369.5" y="1400.5283">&#10060; KH&#212;NG t&#7841;o giao d&#7883;ch THU</text><text fill="#000000" font-family="Verdana" font-size="13" lengthAdjust="spacing" textLength="229" x="369.5" y="1416.3276">&#9989; L&#432;u l&#253; do t&#7915; ch&#7889;i &#273;&#7875; ki&#7875;m tra l&#7841;i</text><text fill="#000000" font-family="Verdana" font-size="13" lengthAdjust="spacing" textLength="147" x="369.5" y="1432.127">&#8594; Qu&#7929; kh&#244;ng thay &#273;&#7893;i</text><path d="M28,1449.8564 L28,1506.8564 L271,1506.8564 L271,1459.8564 L261,1449.8564 L28,1449.8564 " fill="#FFFFFF" style="stroke:#000000;stroke-width:1.0;"/><path d="M261,1449.8564 L261,1459.8564 L271,1459.8564 L261,1449.8564 " fill="#FFFFFF" style="stroke:#000000;stroke-width:1.0;"/><text fill="#000000" font-family="Verdana" font-size="13" font-weight="bold" lengthAdjust="spacing" textLength="45" x="34" y="1467.9263">L&#432;u &#253;:</text><text fill="#000000" font-family="Verdana" font-size="13" lengthAdjust="spacing" textLength="222" x="34" y="1483.7256">K&#7871; to&#225;n c&#243; th&#7875; li&#234;n h&#7879; nh&#224; t&#224;i tr&#7907;</text><text fill="#000000" font-family="Verdana" font-size="13" lengthAdjust="spacing" textLength="207" x="34" y="1499.5249">&#273;&#7875; l&#224;m r&#245; tr&#432;&#7901;ng h&#7907;p b&#7883; t&#7915; ch&#7889;i</text><rect fill="none" height="214.1758" id="_legend" rx="7.5" ry="7.5" style="stroke:#000000;stroke-width:1.0;" width="328" x="717.5" y="1605.269"/><text fill="#000000" font-family="Verdana" font-size="14" font-weight="bold" lengthAdjust="spacing" textLength="43" x="722.5" y="1624.3442">M&#244; t&#7843;</text><text fill="#000000" font-family="Verdana" font-size="14" lengthAdjust="spacing" textLength="256" x="765.5" y="1624.3442">: T&#7915; ch&#7889;i kho&#7843;n t&#224;i tr&#7907; kh&#244;ng h&#7907;p l&#7879;</text><text fill="#000000" font-family="Verdana" font-size="14" font-weight="bold" lengthAdjust="spacing" textLength="29" x="722.5" y="1641.3589">API</text><text fill="#000000" font-family="Verdana" font-size="14" lengthAdjust="spacing" textLength="215" x="751.5" y="1641.3589">: PUT /api/donations/:id/reject</text><text fill="#000000" font-family="Verdana" font-size="14" font-weight="bold" lengthAdjust="spacing" textLength="84" x="722.5" y="1658.3735">Quy&#7873;n h&#7841;n</text><text fill="#000000" font-family="Verdana" font-size="14" lengthAdjust="spacing" textLength="234" x="806.5" y="1658.3735">: K&#7871; to&#225;n (role 2), Admin (role 1)</text><text fill="#000000" font-family="Verdana" font-size="14" font-weight="bold" lengthAdjust="spacing" textLength="102" x="722.5" y="1675.3882">L&#253; do t&#7915; ch&#7889;i</text><text fill="#000000" font-family="Verdana" font-size="14" lengthAdjust="spacing" textLength="6" x="824.5" y="1675.3882">:</text><text fill="#000000" font-family="Verdana" font-size="14" lengthAdjust="spacing" textLength="188" x="732.5" y="1692.4028">- Kh&#244;ng t&#236;m th&#7845;y giao d&#7883;ch</text><text fill="#000000" font-family="Verdana" font-size="14" lengthAdjust="spacing" textLength="151" x="732.5" y="1709.4175">- S&#7889; ti&#7873;n kh&#244;ng kh&#7899;p</text><text fill="#000000" font-family="Verdana" font-size="14" lengthAdjust="spacing" textLength="202" x="732.5" y="1726.4321">- N&#7897;i dung chuy&#7875;n kho&#7843;n sai</text><text fill="#000000" font-family="Verdana" font-size="14" lengthAdjust="spacing" textLength="105" x="732.5" y="1743.4468">- Ch&#7913;ng t&#7915; gi&#7843;</text><text fill="#000000" font-family="Verdana" font-size="14" font-weight="bold" lengthAdjust="spacing" textLength="60" x="722.5" y="1760.4614">K&#7871;t qu&#7843;</text><text fill="#000000" font-family="Verdana" font-size="14" lengthAdjust="spacing" textLength="6" x="782.5" y="1760.4614">:</text><text fill="#000000" font-family="Verdana" font-size="14" lengthAdjust="spacing" textLength="134" x="732.5" y="1777.4761">- KH&#212;NG c&#7897;ng ti&#7873;n</text><text fill="#000000" font-family="Verdana" font-size="14" lengthAdjust="spacing" textLength="159" x="732.5" y="1794.4907">- KH&#212;NG t&#7841;o giao d&#7883;ch</text><text fill="#000000" font-family="Verdana" font-size="14" lengthAdjust="spacing" textLength="159" x="732.5" y="1811.5054">- Tr&#7841;ng th&#225;i: "T&#7915; ch&#7889;i"</text><!--SRC=[jLRTRzjK57_tNt48BwjPLE05AGz8JIBMALlLCNS2gI-kRTcNEDUfVLFMjw49-Z0ULWJYSw9PD05bXIB60x4c7kxK_yFzIpZdnh6lypL08Wz9V7q-V-TtphclYC3hUT0FRSQDfCjutuxj7kpPJjUFem5tMr4OnV3gE-gZIIJU_i3ZZdVJInBRzpP2vdDmF2wys3044w47fdcx_VfRUmsmilGKMfjP-l0wMF8UVhsRfOzDqp1iHw3rMYSR_mKYaaDU0pk1ZcMW4y4SrhUvW9eLowSy07TmcAL7Geaqu-Z315rLv3QshmDwEG8HPEanzvKa7XgkBUmzE_6WrheOGfAbtuERfRz2o51weCJQJSFeM51_Usgw0NVaIGGYjhaFjVVaq04UPECp3aAUC3pFqb6D4c07jl2AW8py3rb2rmsuaOsV789hOm896Wd0mU0UmTtIO6c4OgKaKBVTHDpYmI4Se3w7RX1buv7kUvSxydVwEnvYW2AGGuRfpThM8iGCsqseJ-Dgbn7D6pTSJzTJCUdGR29mzxd2-O6Mcwv6kSmYsWgPquK3mdNgqyd6F_0A6ei1T08CZI5FnA9m_m62YD0p0ehnNVuQ450_qMEM_WmlZkKPfj2LF_QMmjLQwV_Vm5LciWIkZjM03cdqY7sGs8YMF0NkoySS0dd2VSFW4Uf41mWJDejfMl75ELOU4q8NepucNcGBdKtv-TOr_CdIRxQnwUx8CsB_auPHXquk9f_sA3e2scVe3zy_m7BMuJOs4aMRVaGSLC9TTF5j7zzjPUdN3BiIpvo0UlD-oTF4PYXHGTd7d4VGGxv6XiTTe1Jc6B957EX3A9-36qtqg5-EsIw_qip6lrZGtCdIhrfhE3j2WGukpkq9SQPA1k2du50Ev_loTA2eDgWAwnuCByG9yUAX7AqocDFXMfQUCJWipUg6IA5IM3fG5OkP7uW6REzOi6xtsReRSLkmY2Vh3UQknzu7dYEKjFhAYQmSgW541FeDVwAkn-SaDChiKpMmOkLSXIjnX2FvpRKvwzGcccfbe5GpGMRJizuLLcNy13HEaUPuDb6jjaNXcIfNrSofrKVSHul76EIVkTxAcRudXn64MVebCgNMoLc8ZJt2B-gDaGDtiMPKqzBOB4qgVQgCAL55Z9bKgSr8vAWQsGJFbgAF2brK4TtbWZeumALM4gOCQ1QkAd6Aexob7Mn0rUHKxDcNL8L8xsQmDdSAeQ81fmTwLLKFE5eEXTHyGOkYpa1mu-9yiAZ9LcKw5qE8HlwhR-whaSYgGmHtZoeldYCq_7yEPnbFSmuuT89qLSQrC1TicDeYlzFHKd6yajDphYPsaGqqaWrz8HKN6dtLNALSJREZzk3-08Diu4QvVFJfGafEDZsAfN_gCekPUVdTnyj8WosCEK2td5AX6Z6Ndtm6jyZwT7w8m3vKmbymRSNCx4hbH3wdmBNvg2vJ0Ra9cJpbrE17o7wYIxdc9t64ygG7iVm33ojR5_O8uif6AM88FPyU9cricZVbCu9XP9hgThoYyDFKj85ZcbXuqbozHappLhu60Xf0fB1W7ro53RV7fizlh150SmL0NUJ9IwyB9BByma1lNtPb89dvIqELSPJ899h5Kx2-b6VgPMMEDsRcCDPeKYdZRm00]--></g></svg>