<?xml version="1.0" encoding="us-ascii" standalone="no"?><svg xmlns="http://www.w3.org/2000/svg" xmlns:xlink="http://www.w3.org/1999/xlink" contentStyleType="text/css" height="1180px" preserveAspectRatio="none" style="width:800px;height:1180px;background:#FFFFFF;" version="1.1" viewBox="0 0 800 1180" width="800px" zoomAndPan="magnify"><defs/><g><text fill="#000000" font-family="Verdana" font-size="22" font-weight="bold" lengthAdjust="spacing" textLength="272" x="262.5" y="37.1182">AD10: XU&#7844;T B&#193;O C&#193;O</text><rect fill="#FFFFFF" height="21.876" style="stroke:#FFFFFF;stroke-width:1.0;" width="781" x="6" y="55.0166"/><rect fill="#FFCCBC" height="1046.4946" style="stroke:#FFCCBC;stroke-width:1.0;" width="214" x="23" y="55.0166"/><ellipse cx="97" cy="91.8926" fill="#FFFFFF" rx="10" ry="10" style="stroke:#000000;stroke-width:1.0;"/><rect fill="#FFFFFF" height="33.3687" rx="12.5" ry="12.5" style="stroke:#000000;stroke-width:1.0;" width="136" x="29" y="121.8926"/><text fill="#000000" font-family="Verdana" font-size="11" lengthAdjust="spacing" textLength="116" x="39" y="142.9517">V&#224;o trang "B&#225;o c&#225;o"</text><rect fill="#FFFFFF" height="33.3687" rx="12.5" ry="12.5" style="stroke:#000000;stroke-width:1.0;" width="123" x="35.5" y="295.4731"/><text fill="#000000" font-family="Verdana" font-size="11" lengthAdjust="spacing" textLength="103" x="45.5" y="316.5322">Ch&#7885;n lo&#7841;i b&#225;o c&#225;o</text><rect fill="#FFFFFF" height="73.4746" rx="12.5" ry="12.5" style="stroke:#000000;stroke-width:1.0;" width="132" x="31" y="348.8418"/><text fill="#000000" font-family="Verdana" font-size="11" lengthAdjust="spacing" textLength="68" x="41" y="369.9009">Ch&#7885;n b&#7897; l&#7885;c</text><text fill="#000000" font-family="Verdana" font-size="11" lengthAdjust="spacing" textLength="95" x="41" y="383.2695">- Qu&#7929; (t&#249;y ch&#7885;n)</text><text fill="#000000" font-family="Verdana" font-size="11" lengthAdjust="spacing" textLength="112" x="41" y="396.6382">- T&#7915; ng&#224;y &#273;&#7871;n ng&#224;y</text><text fill="#000000" font-family="Verdana" font-size="11" lengthAdjust="spacing" textLength="84" x="41" y="410.0068">- Ti&#234;u ch&#237; kh&#225;c</text><rect fill="#FFFFFF" height="33.3687" rx="12.5" ry="12.5" style="stroke:#000000;stroke-width:1.0;" width="118" x="38" y="865.9307"/><text fill="#000000" font-family="Verdana" font-size="11" lengthAdjust="spacing" textLength="98" x="48" y="886.9897">Click "T&#7843;i xu&#7889;ng"</text><rect fill="#FFFFFF" height="33.3687" rx="12.5" ry="12.5" style="stroke:#000000;stroke-width:1.0;" width="91" x="51.5" y="919.2993"/><text fill="#000000" font-family="Verdana" font-size="11" lengthAdjust="spacing" textLength="71" x="61.5" y="940.3584">M&#7903; file Word</text><rect fill="#FFFFFF" height="86.8433" rx="12.5" ry="12.5" style="stroke:#000000;stroke-width:1.0;" width="108" x="43" y="972.668"/><text fill="#000000" font-family="Verdana" font-size="11" lengthAdjust="spacing" textLength="38" x="53" y="993.7271">C&#243; th&#7875;</text><text fill="#000000" font-family="Verdana" font-size="11" lengthAdjust="spacing" textLength="88" x="53" y="1007.0957">- Xem n&#7897;i dung</text><text fill="#000000" font-family="Verdana" font-size="11" lengthAdjust="spacing" textLength="66" x="53" y="1020.4644">- Ch&#7881;nh s&#7917;a</text><text fill="#000000" font-family="Verdana" font-size="11" lengthAdjust="spacing" textLength="83" x="53" y="1033.833">- Th&#234;m ch&#7919; k&#253;</text><text fill="#000000" font-family="Verdana" font-size="11" lengthAdjust="spacing" textLength="73" x="53" y="1047.2017">- In ho&#7863;c l&#432;u</text><ellipse cx="97" cy="1090.5112" fill="none" rx="11" ry="11" style="stroke:#000000;stroke-width:1.0;"/><ellipse cx="97" cy="1090.5112" fill="#FFFFFF" rx="6" ry="6" style="stroke:#000000;stroke-width:1.0;"/><line style="stroke:#000000;stroke-width:1.0;" x1="23" x2="23" y1="55.0166" y2="1101.5112"/><rect fill="#F5F5F5" height="1046.4946" style="stroke:#F5F5F5;stroke-width:1.0;" width="593" x="180" y="55.0166"/><rect fill="#FFFFFF" height="100.2119" rx="12.5" ry="12.5" style="stroke:#000000;stroke-width:1.0;" width="158" x="393.5" y="175.2612"/><text fill="#000000" font-family="Verdana" font-size="11" lengthAdjust="spacing" textLength="128" x="403.5" y="196.3203">Hi&#7875;n th&#7883; menu b&#225;o c&#225;o</text><text fill="#000000" font-family="Verdana" font-size="11" lengthAdjust="spacing" textLength="110" x="403.5" y="209.689">1. Thu chi t&#7893;ng h&#7907;p</text><text fill="#000000" font-family="Verdana" font-size="11" lengthAdjust="spacing" textLength="138" x="403.5" y="223.0576">2. Danh s&#225;ch nh&#224; t&#224;i tr&#7907;</text><text fill="#000000" font-family="Verdana" font-size="11" lengthAdjust="spacing" textLength="136" x="403.5" y="236.4263">3. Danh s&#225;ch th&#7911; h&#432;&#7903;ng</text><text fill="#000000" font-family="Verdana" font-size="11" lengthAdjust="spacing" textLength="128" x="403.5" y="249.7949">4. B&#225;o c&#225;o qu&#7929; chi ti&#7871;t</text><text fill="#000000" font-family="Verdana" font-size="11" lengthAdjust="spacing" textLength="108" x="403.5" y="263.1636">5. B&#225;o c&#225;o &#273;&#7873; xu&#7845;t</text><polygon fill="#FFFFFF" points="222.5,442.3164,300.5,442.3164,312.5,454.3164,300.5,466.3164,222.5,466.3164,210.5,454.3164,222.5,442.3164" style="stroke:#000000;stroke-width:1.0;"/><text fill="#000000" font-family="Verdana" font-size="11" lengthAdjust="spacing" textLength="41" x="265.5" y="477.3755">Thu chi</text><text fill="#000000" font-family="Verdana" font-size="11" lengthAdjust="spacing" textLength="78" x="222.5" y="458.6912">Lo&#7841;i b&#225;o c&#225;o?</text><rect fill="#FFFFFF" height="33.3687" rx="12.5" ry="12.5" style="stroke:#000000;stroke-width:1.0;" width="137" x="193" y="498.8755"/><text fill="#000000" font-family="Verdana" font-size="11" lengthAdjust="spacing" textLength="117" x="203" y="519.9346">L&#7845;y d&#7919; li&#7879;u giao d&#7883;ch</text><rect fill="#FFFFFF" height="86.8433" rx="12.5" ry="12.5" style="stroke:#000000;stroke-width:1.0;" width="151" x="186" y="565.6128"/><text fill="#000000" font-family="Verdana" font-size="11" lengthAdjust="spacing" textLength="53" x="196" y="586.6719">T&#237;nh to&#225;n</text><text fill="#000000" font-family="Verdana" font-size="11" lengthAdjust="spacing" textLength="59" x="196" y="600.0405">- T&#7893;ng thu</text><text fill="#000000" font-family="Verdana" font-size="11" lengthAdjust="spacing" textLength="57" x="196" y="613.4092">- T&#7893;ng chi</text><text fill="#000000" font-family="Verdana" font-size="11" lengthAdjust="spacing" textLength="73" x="196" y="626.7778">- Ch&#234;nh l&#7879;ch</text><text fill="#000000" font-family="Verdana" font-size="11" lengthAdjust="spacing" textLength="131" x="196" y="640.1465">- S&#7889; d&#432; &#273;&#7847;u k&#7923;/cu&#7889;i k&#7923;</text><polygon fill="#FFFFFF" points="389.5,442.3164,418.5,442.3164,430.5,454.3164,418.5,466.3164,389.5,466.3164,377.5,454.3164,389.5,442.3164" style="stroke:#000000;stroke-width:1.0;"/><text fill="#000000" font-family="Verdana" font-size="11" lengthAdjust="spacing" textLength="60" x="408" y="477.3755">Nh&#224; t&#224;i tr&#7907;</text><text fill="#000000" font-family="Verdana" font-size="11" lengthAdjust="spacing" textLength="29" x="389.5" y="458.6912">Lo&#7841;i?</text><rect fill="#FFFFFF" height="46.7373" rx="12.5" ry="12.5" style="stroke:#000000;stroke-width:1.0;" width="102" x="353" y="498.8755"/><text fill="#000000" font-family="Verdana" font-size="11" lengthAdjust="spacing" textLength="82" x="363" y="519.9346">L&#7845;y danh s&#225;ch</text><text fill="#000000" font-family="Verdana" font-size="11" lengthAdjust="spacing" textLength="59" x="363" y="533.3032">nh&#224; t&#224;i tr&#7907;</text><rect fill="#FFFFFF" height="46.7373" rx="12.5" ry="12.5" style="stroke:#000000;stroke-width:1.0;" width="114" x="347" y="578.9814"/><text fill="#000000" font-family="Verdana" font-size="11" lengthAdjust="spacing" textLength="91" x="357" y="600.0405">T&#237;nh t&#7893;ng s&#7889; l&#7847;n</text><text fill="#000000" font-family="Verdana" font-size="11" lengthAdjust="spacing" textLength="94" x="357" y="613.4092">v&#224; s&#7889; ti&#7873;n t&#224;i tr&#7907;</text><polygon fill="#FFFFFF" points="548.5,442.3164,577.5,442.3164,589.5,454.3164,577.5,466.3164,548.5,466.3164,536.5,454.3164,548.5,442.3164" style="stroke:#000000;stroke-width:1.0;"/><text fill="#000000" font-family="Verdana" font-size="11" lengthAdjust="spacing" textLength="60" x="567" y="477.3755">Th&#7911; h&#432;&#7903;ng</text><text fill="#000000" font-family="Verdana" font-size="11" lengthAdjust="spacing" textLength="29" x="548.5" y="458.6912">Lo&#7841;i?</text><text fill="#000000" font-family="Verdana" font-size="11" lengthAdjust="spacing" textLength="71" x="589.5" y="452.0068">B&#225;o c&#225;o qu&#7929;</text><rect fill="#FFFFFF" height="46.7373" rx="12.5" ry="12.5" style="stroke:#000000;stroke-width:1.0;" width="158" x="484" y="498.8755"/><text fill="#000000" font-family="Verdana" font-size="11" lengthAdjust="spacing" textLength="82" x="494" y="519.9346">L&#7845;y danh s&#225;ch</text><text fill="#000000" font-family="Verdana" font-size="11" lengthAdjust="spacing" textLength="138" x="494" y="533.3032">sinh vi&#234;n &#273;&#227; &#273;&#432;&#7907;c h&#7895; tr&#7907;</text><rect fill="#FFFFFF" height="46.7373" rx="12.5" ry="12.5" style="stroke:#000000;stroke-width:1.0;" width="115" x="505.5" y="578.9814"/><text fill="#000000" font-family="Verdana" font-size="11" lengthAdjust="spacing" textLength="95" x="515.5" y="600.0405">T&#237;nh t&#7893;ng s&#7889; ti&#7873;n</text><text fill="#000000" font-family="Verdana" font-size="11" lengthAdjust="spacing" textLength="46" x="515.5" y="613.4092">&#273;&#227; nh&#7853;n</text><rect fill="#FFFFFF" height="33.3687" rx="12.5" ry="12.5" style="stroke:#000000;stroke-width:1.0;" width="107" x="662" y="501.8755"/><text fill="#000000" font-family="Verdana" font-size="11" lengthAdjust="spacing" textLength="87" x="672" y="522.9346">L&#7845;y chi ti&#7871;t qu&#7929;</text><rect fill="#FFFFFF" height="73.4746" rx="12.5" ry="12.5" style="stroke:#000000;stroke-width:1.0;" width="83" x="674" y="568.6128"/><text fill="#000000" font-family="Verdana" font-size="11" lengthAdjust="spacing" textLength="51" x="684" y="589.6719">Bao g&#7891;m</text><text fill="#000000" font-family="Verdana" font-size="11" lengthAdjust="spacing" textLength="46" x="684" y="603.0405">- T&#224;i tr&#7907;</text><text fill="#000000" font-family="Verdana" font-size="11" lengthAdjust="spacing" textLength="63" x="684" y="616.4092">- Gi&#7843;i ng&#226;n</text><text fill="#000000" font-family="Verdana" font-size="11" lengthAdjust="spacing" textLength="62" x="684" y="629.7778">- Th&#7889;ng k&#234;</text><rect fill="#FFFFFF" height="33.3687" rx="12.5" ry="12.5" style="stroke:#000000;stroke-width:1.0;" width="124" x="410.5" y="692.4561"/><text fill="#000000" font-family="Verdana" font-size="11" lengthAdjust="spacing" textLength="104" x="420.5" y="713.5151">M&#7903; template Word</text><rect fill="#FFFFFF" height="46.7373" rx="12.5" ry="12.5" style="stroke:#000000;stroke-width:1.0;" width="95" x="425" y="745.8247"/><text fill="#000000" font-family="Verdana" font-size="11" lengthAdjust="spacing" textLength="68" x="435" y="766.8838">&#272;i&#7873;n d&#7919; li&#7879;u</text><text fill="#000000" font-family="Verdana" font-size="11" lengthAdjust="spacing" textLength="75" x="435" y="780.2524">v&#224;o template</text><rect fill="#FFFFFF" height="33.3687" rx="12.5" ry="12.5" style="stroke:#000000;stroke-width:1.0;" width="121" x="412" y="812.562"/><text fill="#000000" font-family="Verdana" font-size="11" lengthAdjust="spacing" textLength="101" x="422" y="833.6211">T&#7841;o file Word m&#7899;i</text><line style="stroke:#000000;stroke-width:1.0;" x1="180" x2="180" y1="55.0166" y2="1101.5112"/><line style="stroke:#000000;stroke-width:1.0;" x1="788" x2="788" y1="55.0166" y2="1101.5112"/><line style="stroke:#000000;stroke-width:1.0;" x1="97" x2="97" y1="101.8926" y2="121.8926"/><polygon fill="#000000" points="93,111.8926,97,121.8926,101,111.8926,97,115.8926" style="stroke:#000000;stroke-width:1.0;"/><line style="stroke:#000000;stroke-width:1.0;" x1="97" x2="97" y1="328.8418" y2="348.8418"/><polygon fill="#000000" points="93,338.8418,97,348.8418,101,338.8418,97,342.8418" style="stroke:#000000;stroke-width:1.0;"/><line style="stroke:#000000;stroke-width:1.0;" x1="97" x2="97" y1="899.2993" y2="919.2993"/><polygon fill="#000000" points="93,909.2993,97,919.2993,101,909.2993,97,913.2993" style="stroke:#000000;stroke-width:1.0;"/><line style="stroke:#000000;stroke-width:1.0;" x1="97" x2="97" y1="952.668" y2="972.668"/><polygon fill="#000000" points="93,962.668,97,972.668,101,962.668,97,966.668" style="stroke:#000000;stroke-width:1.0;"/><line style="stroke:#000000;stroke-width:1.0;" x1="97" x2="97" y1="1059.5112" y2="1079.5112"/><polygon fill="#000000" points="93,1069.5112,97,1079.5112,101,1069.5112,97,1073.5112" style="stroke:#000000;stroke-width:1.0;"/><line style="stroke:#000000;stroke-width:1.0;" x1="261.5" x2="261.5" y1="532.2441" y2="565.6128"/><polygon fill="#000000" points="257.5,555.6128,261.5,565.6128,265.5,555.6128,261.5,559.6128" style="stroke:#000000;stroke-width:1.0;"/><line style="stroke:#000000;stroke-width:1.0;" x1="404" x2="404" y1="545.6128" y2="578.9814"/><polygon fill="#000000" points="400,568.9814,404,578.9814,408,568.9814,404,572.9814" style="stroke:#000000;stroke-width:1.0;"/><line style="stroke:#000000;stroke-width:1.0;" x1="563" x2="563" y1="545.6128" y2="578.9814"/><polygon fill="#000000" points="559,568.9814,563,578.9814,567,568.9814,563,572.9814" style="stroke:#000000;stroke-width:1.0;"/><line style="stroke:#000000;stroke-width:1.0;" x1="715.5" x2="715.5" y1="535.2441" y2="568.6128"/><polygon fill="#000000" points="711.5,558.6128,715.5,568.6128,719.5,558.6128,715.5,562.6128" style="stroke:#000000;stroke-width:1.0;"/><line style="stroke:#000000;stroke-width:1.0;" x1="261.5" x2="261.5" y1="466.3164" y2="498.8755"/><polygon fill="#000000" points="257.5,488.8755,261.5,498.8755,265.5,488.8755,261.5,492.8755" style="stroke:#000000;stroke-width:1.0;"/><line style="stroke:#000000;stroke-width:1.0;" x1="261.5" x2="261.5" y1="652.4561" y2="672.4561"/><polygon fill="#000000" points="257.5,662.4561,261.5,672.4561,265.5,662.4561,261.5,666.4561" style="stroke:#000000;stroke-width:1.0;"/><line style="stroke:#000000;stroke-width:1.0;" x1="404" x2="404" y1="466.3164" y2="498.8755"/><polygon fill="#000000" points="400,488.8755,404,498.8755,408,488.8755,404,492.8755" style="stroke:#000000;stroke-width:1.0;"/><line style="stroke:#000000;stroke-width:1.0;" x1="404" x2="404" y1="625.7188" y2="672.4561"/><polygon fill="#000000" points="400,662.4561,404,672.4561,408,662.4561,404,666.4561" style="stroke:#000000;stroke-width:1.0;"/><line style="stroke:#000000;stroke-width:1.0;" x1="563" x2="563" y1="466.3164" y2="498.8755"/><polygon fill="#000000" points="559,488.8755,563,498.8755,567,488.8755,563,492.8755" style="stroke:#000000;stroke-width:1.0;"/><line style="stroke:#000000;stroke-width:1.0;" x1="563" x2="563" y1="625.7188" y2="672.4561"/><polygon fill="#000000" points="559,662.4561,563,672.4561,567,662.4561,563,666.4561" style="stroke:#000000;stroke-width:1.0;"/><line style="stroke:#000000;stroke-width:1.0;" x1="312.5" x2="377.5" y1="454.3164" y2="454.3164"/><polygon fill="#000000" points="367.5,450.3164,377.5,454.3164,367.5,458.3164,371.5,454.3164" style="stroke:#000000;stroke-width:1.0;"/><line style="stroke:#000000;stroke-width:1.0;" x1="430.5" x2="536.5" y1="454.3164" y2="454.3164"/><polygon fill="#000000" points="526.5,450.3164,536.5,454.3164,526.5,458.3164,530.5,454.3164" style="stroke:#000000;stroke-width:1.0;"/><line style="stroke:#000000;stroke-width:1.0;" x1="97" x2="97" y1="422.3164" y2="427.3164"/><line style="stroke:#000000;stroke-width:1.0;" x1="97" x2="261.5" y1="427.3164" y2="427.3164"/><line style="stroke:#000000;stroke-width:1.0;" x1="261.5" x2="261.5" y1="427.3164" y2="442.3164"/><polygon fill="#000000" points="257.5,432.3164,261.5,442.3164,265.5,432.3164,261.5,436.3164" style="stroke:#000000;stroke-width:1.0;"/><line style="stroke:#000000;stroke-width:1.0;" x1="589.5" x2="715.5" y1="454.3164" y2="454.3164"/><line style="stroke:#000000;stroke-width:1.0;" x1="715.5" x2="715.5" y1="454.3164" y2="501.8755"/><polygon fill="#000000" points="711.5,491.8755,715.5,501.8755,719.5,491.8755,715.5,495.8755" style="stroke:#000000;stroke-width:1.0;"/><line style="stroke:#000000;stroke-width:1.0;" x1="715.5" x2="715.5" y1="642.0874" y2="672.4561"/><polygon fill="#000000" points="711.5,662.4561,715.5,672.4561,719.5,662.4561,715.5,666.4561" style="stroke:#000000;stroke-width:1.0;"/><line style="stroke:#000000;stroke-width:1.0;" x1="261.5" x2="715.5" y1="672.4561" y2="672.4561"/><line style="stroke:#000000;stroke-width:1.0;" x1="472.5" x2="472.5" y1="672.4561" y2="692.4561"/><polygon fill="#000000" points="468.5,682.4561,472.5,692.4561,476.5,682.4561,472.5,686.4561" style="stroke:#000000;stroke-width:1.0;"/><line style="stroke:#000000;stroke-width:1.0;" x1="472.5" x2="472.5" y1="725.8247" y2="745.8247"/><polygon fill="#000000" points="468.5,735.8247,472.5,745.8247,476.5,735.8247,472.5,739.8247" style="stroke:#000000;stroke-width:1.0;"/><line style="stroke:#000000;stroke-width:1.0;" x1="472.5" x2="472.5" y1="792.562" y2="812.562"/><polygon fill="#000000" points="468.5,802.562,472.5,812.562,476.5,802.562,472.5,806.562" style="stroke:#000000;stroke-width:1.0;"/><line style="stroke:#000000;stroke-width:1.0;" x1="97" x2="97" y1="155.2612" y2="160.2612"/><line style="stroke:#000000;stroke-width:1.0;" x1="97" x2="472.5" y1="160.2612" y2="160.2612"/><line style="stroke:#000000;stroke-width:1.0;" x1="472.5" x2="472.5" y1="160.2612" y2="175.2612"/><polygon fill="#000000" points="468.5,165.2612,472.5,175.2612,476.5,165.2612,472.5,169.2612" style="stroke:#000000;stroke-width:1.0;"/><line style="stroke:#000000;stroke-width:1.0;" x1="472.5" x2="472.5" y1="275.4731" y2="280.4731"/><line style="stroke:#000000;stroke-width:1.0;" x1="472.5" x2="97" y1="280.4731" y2="280.4731"/><line style="stroke:#000000;stroke-width:1.0;" x1="97" x2="97" y1="280.4731" y2="295.4731"/><polygon fill="#000000" points="93,285.4731,97,295.4731,101,285.4731,97,289.4731" style="stroke:#000000;stroke-width:1.0;"/><line style="stroke:#000000;stroke-width:1.0;" x1="472.5" x2="472.5" y1="845.9307" y2="850.9307"/><line style="stroke:#000000;stroke-width:1.0;" x1="472.5" x2="97" y1="850.9307" y2="850.9307"/><line style="stroke:#000000;stroke-width:1.0;" x1="97" x2="97" y1="850.9307" y2="865.9307"/><polygon fill="#000000" points="93,855.9307,97,865.9307,101,855.9307,97,859.9307" style="stroke:#000000;stroke-width:1.0;"/><text fill="#000000" font-family="Verdana" font-size="18" lengthAdjust="spacing" textLength="69" x="61.5" y="73.1133">K&#7871; to&#225;n</text><text fill="#000000" font-family="Verdana" font-size="18" lengthAdjust="spacing" textLength="82" x="435.5" y="73.1133">H&#7879; th&#7889;ng</text><rect fill="none" height="61.0439" id="_legend" rx="7.5" ry="7.5" style="stroke:#000000;stroke-width:1.0;" width="294" x="493" y="1106.5112"/><text fill="#000000" font-family="Verdana" font-size="14" font-weight="bold" lengthAdjust="spacing" textLength="56" x="498" y="1125.5864">Quy&#7873;n:</text><text fill="#000000" font-family="Verdana" font-size="14" lengthAdjust="spacing" textLength="223" x="559" y="1125.5864">K&#7871; to&#225;n (role 2), Admin (role 1)</text><text fill="#000000" font-family="Verdana" font-size="14" font-weight="bold" lengthAdjust="spacing" textLength="35" x="498" y="1142.6011">API:</text><text fill="#000000" font-family="Verdana" font-size="14" lengthAdjust="spacing" textLength="133" x="538" y="1142.6011">GET /api/reports/*</text><text fill="#000000" font-family="Verdana" font-size="14" font-weight="bold" lengthAdjust="spacing" textLength="77" x="498" y="1159.6157">Template:</text><text fill="#000000" font-family="Verdana" font-size="14" lengthAdjust="spacing" textLength="101" x="580" y="1159.6157">docxtemplater</text><!--SRC=[VLHDJnD16BxFhtZ5IxjHIb4kxS7G8c343y8gN9VTPMVItTcwdQtKz48u44DC9COOuy7MQaWm3IGS3DqO3alu7_DFV6SMsa9IssIpx_Vpl1zxHr0tSA7kMuoJHetnkXLP0MnQTisBmfWxrT0F8xYxg7zZ7fOjM9E9rcB8nHfxvqAnE6Pjl6M1Rt5tdJc2mkpS32622Ty5mvXVACwKOEEL7FmqePBkl80gFWo3a3PMgLOhrVPJEJW74QPTtYODOKM2b5wddH14P74FfYffDmGR7rDb7JId_krbcUo1e38vu5wRb9QPJ7QvLkn3uF8ODg_3I74QJ1g3JHa8cNp6dEZLgvFPQLYmE8L6shKfS9fsGAGTT8hGJ1xSiAh4Xq0lJsJodNlauJGCOS6RM2PdMNg6L0IP6xTU7CXa1xPZEVWboXDObwgO_WC7FvI3BXj1BmyjcpBv2Zw-skG-hEg2EP6UjR2iikTHQyhaDt0lxRHKpS4vpmHbOUcHuf_seKQHpkG-iYt8hTm2yIYFTfT3xgg9UG9GMa4wBN1aSWm-jdul1ezPeLBisxIiFCoqZztJ157Ky5Jh1Ot7HSodnIfDZz0T6UxPL6lM418uboUQp64CDPcS5cnaVi3qkof2NB_XZZ0FaJw_ESjnnCEHekxMoCTXP-WQ2eEFvHM59Zfh1KuvsU6t0YT1CMyipYGa3OP24yV4aMxQmuSAwDbgKx_y5rq61cqwZbCvwFCX7iZTsjAn-gDzpKmwVmLdwCdaKv3DQ7GDIbn2xnvJM_NZQgJPsa0jFIeJbpjiYv3ICoGAmWtm6oDSM0yZ1xVuucFMix658KrzurUEw6DYtqBOOduM1O5Clh795-CpkmPJfeQq7MiW-878oW-Jg0DAJ_L-x-8XRBW1SBma1awCLwpMJYRlrHnaqhVKfU0Q1lgcZf7LNzGyuK1nedziy2zFuZ9-eC8w8Rxh8L-8c4S5COpLkANebGm3HY0X5uK8OpP_3-QTW5tBnJm6pBzyefoN7fjGiEgi4BdrC1ADWe4syweboi49xUth5aMgnLbXyWy0]--></g></svg>