<?xml version="1.0" encoding="us-ascii" standalone="no"?><svg xmlns="http://www.w3.org/2000/svg" xmlns:xlink="http://www.w3.org/1999/xlink" contentStyleType="text/css" height="1344px" preserveAspectRatio="none" style="width:872px;height:1344px;background:#FFFFFF;" version="1.1" viewBox="0 0 872 1344" width="872px" zoomAndPan="magnify"><defs/><g><text fill="#000000" font-family="Verdana" font-size="22" font-weight="bold" lengthAdjust="spacing" textLength="509" x="180.25" y="37.1182">SD02: SINH VI&#202;N N&#7896;P &#272;&#416;N XIN H&#7894; TR&#7906;</text><rect fill="#FFFFFF" height="963.5127" style="stroke:#000000;stroke-width:1.0;" width="10" x="286" y="162.5513"/><rect fill="#FFFFFF" height="89.3979" style="stroke:#000000;stroke-width:1.0;" width="10" x="549" y="192.3506"/><rect fill="#FFFFFF" height="673.7202" style="stroke:#000000;stroke-width:1.0;" width="10" x="549" y="391.7451"/><rect fill="#FFFFFF" height="29.7993" style="stroke:#000000;stroke-width:1.0;" width="10" x="791" y="222.1499"/><rect fill="#FFFFFF" height="29.7993" style="stroke:#000000;stroke-width:1.0;" width="10" x="791" y="510.1431"/><rect fill="#FFFFFF" height="212.1938" style="stroke:#000000;stroke-width:1.0;" width="10" x="791" y="776.0742"/><rect fill="#FFFFFF" height="564.1216" style="stroke:#000000;stroke-width:1.0;" width="840.5" x="15" y="554.9424"/><rect fill="#FFFFFF" height="90.7666" style="stroke:none;stroke-width:1.0;" width="840.5" x="15" y="648.1396"/><rect fill="#FFFFFF" height="380.1577" style="stroke:none;stroke-width:1.0;" width="840.5" x="15" y="738.9063"/><line style="stroke:#000000;stroke-width:1.0;" x1="60" x2="60" y1="130.752" y2="1136.064"/><line style="stroke:#000000;stroke-width:1.0;" x1="290.5" x2="290.5" y1="130.752" y2="1136.064"/><line style="stroke:#000000;stroke-width:1.0;" x1="553.5" x2="553.5" y1="130.752" y2="1136.064"/><line style="stroke:#000000;stroke-width:1.0;" x1="795.5" x2="795.5" y1="130.752" y2="1136.064"/><text fill="#000000" font-family="Verdana" font-size="14" lengthAdjust="spacing" textLength="64" x="25" y="127.8125">Sinh vi&#234;n</text><ellipse cx="60" cy="61.7373" fill="#FFFFFF" rx="8" ry="8" style="stroke:#000000;stroke-width:1.0;"/><path d="M60,69.7373 L60,96.7373 M47,77.7373 L73,77.7373 M60,96.7373 L47,111.7373 M60,96.7373 L73,111.7373 " fill="none" style="stroke:#000000;stroke-width:1.0;"/><text fill="#000000" font-family="Verdana" font-size="14" lengthAdjust="spacing" textLength="64" x="25" y="1149.1392">Sinh vi&#234;n</text><ellipse cx="60" cy="1161.0786" fill="#FFFFFF" rx="8" ry="8" style="stroke:#000000;stroke-width:1.0;"/><path d="M60,1169.0786 L60,1196.0786 M47,1177.0786 L73,1177.0786 M60,1196.0786 L47,1211.0786 M60,1196.0786 L73,1211.0786 " fill="none" style="stroke:#000000;stroke-width:1.0;"/><rect fill="#FFFFFF" height="31.0146" rx="2.5" ry="2.5" style="stroke:#000000;stroke-width:1.0;" width="95" x="243.5" y="98.7373"/><text fill="#000000" font-family="Verdana" font-size="14" lengthAdjust="spacing" textLength="81" x="250.5" y="119.8125">Tr&#236;nh duy&#7879;t</text><rect fill="#FFFFFF" height="31.0146" rx="2.5" ry="2.5" style="stroke:#000000;stroke-width:1.0;" width="95" x="243.5" y="1135.064"/><text fill="#000000" font-family="Verdana" font-size="14" lengthAdjust="spacing" textLength="81" x="250.5" y="1156.1392">Tr&#236;nh duy&#7879;t</text><rect fill="#FFFFFF" height="31.0146" rx="2.5" ry="2.5" style="stroke:#000000;stroke-width:1.0;" width="107" x="500.5" y="98.7373"/><text fill="#000000" font-family="Verdana" font-size="14" lengthAdjust="spacing" textLength="93" x="507.5" y="119.8125">API H&#7879; th&#7889;ng</text><rect fill="#FFFFFF" height="31.0146" rx="2.5" ry="2.5" style="stroke:#000000;stroke-width:1.0;" width="107" x="500.5" y="1135.064"/><text fill="#000000" font-family="Verdana" font-size="14" lengthAdjust="spacing" textLength="93" x="507.5" y="1156.1392">API H&#7879; th&#7889;ng</text><text fill="#000000" font-family="Verdana" font-size="14" lengthAdjust="spacing" textLength="93" x="746.5" y="127.8125">C&#417; s&#7903; d&#7919; li&#7879;u</text><path d="M778,77.7373 C778,67.7373 796,67.7373 796,67.7373 C796,67.7373 814,67.7373 814,77.7373 L814,103.7373 C814,113.7373 796,113.7373 796,113.7373 C796,113.7373 778,113.7373 778,103.7373 L778,77.7373 " fill="#FFFFFF" style="stroke:#000000;stroke-width:1.5;"/><path d="M778,77.7373 C778,87.7373 796,87.7373 796,87.7373 C796,87.7373 814,87.7373 814,77.7373 " fill="none" style="stroke:#000000;stroke-width:1.5;"/><text fill="#000000" font-family="Verdana" font-size="14" lengthAdjust="spacing" textLength="93" x="746.5" y="1149.1392">C&#417; s&#7903; d&#7919; li&#7879;u</text><path d="M778,1162.0786 C778,1152.0786 796,1152.0786 796,1152.0786 C796,1152.0786 814,1152.0786 814,1162.0786 L814,1188.0786 C814,1198.0786 796,1198.0786 796,1198.0786 C796,1198.0786 778,1198.0786 778,1188.0786 L778,1162.0786 " fill="#FFFFFF" style="stroke:#000000;stroke-width:1.5;"/><path d="M778,1162.0786 C778,1172.0786 796,1172.0786 796,1172.0786 C796,1172.0786 814,1172.0786 814,1162.0786 " fill="none" style="stroke:#000000;stroke-width:1.5;"/><rect fill="#FFFFFF" height="963.5127" style="stroke:#000000;stroke-width:1.0;" width="10" x="286" y="162.5513"/><rect fill="#FFFFFF" height="89.3979" style="stroke:#000000;stroke-width:1.0;" width="10" x="549" y="192.3506"/><rect fill="#FFFFFF" height="673.7202" style="stroke:#000000;stroke-width:1.0;" width="10" x="549" y="391.7451"/><rect fill="#FFFFFF" height="29.7993" style="stroke:#000000;stroke-width:1.0;" width="10" x="791" y="222.1499"/><rect fill="#FFFFFF" height="29.7993" style="stroke:#000000;stroke-width:1.0;" width="10" x="791" y="510.1431"/><rect fill="#FFFFFF" height="212.1938" style="stroke:#000000;stroke-width:1.0;" width="10" x="791" y="776.0742"/><polygon fill="#000000" points="274,158.5513,284,162.5513,274,166.5513,278,162.5513" style="stroke:#000000;stroke-width:1.0;"/><line style="stroke:#000000;stroke-width:1.0;" x1="60" x2="280" y1="162.5513" y2="162.5513"/><text fill="#000000" font-family="Verdana" font-size="13" lengthAdjust="spacing" textLength="134" x="106" y="157.8218">V&#224;o trang "N&#7897;p &#273;&#417;n"</text><polygon fill="#000000" points="537,188.3506,547,192.3506,537,196.3506,541,192.3506" style="stroke:#000000;stroke-width:1.0;"/><line style="stroke:#000000;stroke-width:1.0;" x1="296" x2="543" y1="192.3506" y2="192.3506"/><text fill="#000000" font-family="Verdana" font-size="13" lengthAdjust="spacing" textLength="234" x="305.5" y="187.6211">L&#7845;y danh s&#225;ch qu&#7929; &#273;ang ho&#7841;t &#273;&#7897;ng</text><polygon fill="#000000" points="779,218.1499,789,222.1499,779,226.1499,783,222.1499" style="stroke:#000000;stroke-width:1.0;"/><line style="stroke:#000000;stroke-width:1.0;" x1="559" x2="785" y1="222.1499" y2="222.1499"/><text fill="#000000" font-family="Verdana" font-size="13" lengthAdjust="spacing" textLength="149" x="600.5" y="217.4204">Truy v&#7845;n qu&#7929; &#273;ang m&#7903;</text><polygon fill="#000000" points="570,247.9492,560,251.9492,570,255.9492,566,251.9492" style="stroke:#000000;stroke-width:1.0;"/><line style="stroke:#000000;stroke-width:1.0;stroke-dasharray:2.0,2.0;" x1="564" x2="795" y1="251.9492" y2="251.9492"/><text fill="#000000" font-family="Verdana" font-size="13" lengthAdjust="spacing" textLength="145" x="605" y="247.2197">Tr&#7843; v&#7873; danh s&#225;ch qu&#7929;</text><polygon fill="#000000" points="307,277.7485,297,281.7485,307,285.7485,303,281.7485" style="stroke:#000000;stroke-width:1.0;"/><line style="stroke:#000000;stroke-width:1.0;stroke-dasharray:2.0,2.0;" x1="301" x2="553" y1="281.7485" y2="281.7485"/><text fill="#000000" font-family="Verdana" font-size="13" lengthAdjust="spacing" textLength="152" x="349" y="277.019">Hi&#7875;n th&#7883; danh s&#225;ch qu&#7929;</text><polygon fill="#000000" points="274,354.9458,284,358.9458,274,362.9458,278,358.9458" style="stroke:#000000;stroke-width:1.0;"/><line style="stroke:#000000;stroke-width:1.0;" x1="60" x2="280" y1="358.9458" y2="358.9458"/><text fill="#000000" font-family="Verdana" font-size="13" lengthAdjust="spacing" textLength="180" x="83" y="306.8184">Ch&#7885;n qu&#7929; v&#224; &#273;i&#7873;n th&#244;ng tin</text><text fill="#000000" font-family="Verdana" font-size="13" lengthAdjust="spacing" textLength="116" x="115" y="322.6177">- L&#253; do xin h&#7895; tr&#7907;</text><text fill="#000000" font-family="Verdana" font-size="13" lengthAdjust="spacing" textLength="112" x="117" y="338.417">- S&#7889; ti&#7873;n &#273;&#7873; ngh&#7883;</text><text fill="#000000" font-family="Verdana" font-size="13" lengthAdjust="spacing" textLength="122" x="112" y="354.2163">- T&#224;i li&#7879;u &#273;&#237;nh k&#232;m</text><polygon fill="#000000" points="537,387.7451,547,391.7451,537,395.7451,541,391.7451" style="stroke:#000000;stroke-width:1.0;"/><line style="stroke:#000000;stroke-width:1.0;" x1="296" x2="543" y1="391.7451" y2="391.7451"/><text fill="#000000" font-family="Verdana" font-size="13" lengthAdjust="spacing" textLength="118" x="363.5" y="387.0156">G&#7917;i &#273;&#417;n xin h&#7895; tr&#7907;</text><path d="M564,371.9458 L564,396.9458 L735,396.9458 L735,381.9458 L725,371.9458 L564,371.9458 " fill="#FFFFFF" style="stroke:#000000;stroke-width:1.0;"/><path d="M725,371.9458 L725,381.9458 L735,381.9458 L725,371.9458 " fill="#FFFFFF" style="stroke:#000000;stroke-width:1.0;"/><text fill="#000000" font-family="Verdana" font-size="13" lengthAdjust="spacing" textLength="150" x="570" y="390.0156">POST /api/applications</text><line style="stroke:#000000;stroke-width:1.0;" x1="559" x2="601" y1="424.5444" y2="424.5444"/><line style="stroke:#000000;stroke-width:1.0;" x1="601" x2="601" y1="424.5444" y2="437.5444"/><line style="stroke:#000000;stroke-width:1.0;" x1="560" x2="601" y1="437.5444" y2="437.5444"/><polygon fill="#000000" points="570,433.5444,560,437.5444,570,441.5444,566,437.5444" style="stroke:#000000;stroke-width:1.0;"/><text fill="#000000" font-family="Verdana" font-size="13" lengthAdjust="spacing" textLength="181" x="566" y="419.8149">X&#225;c th&#7921;c token ng&#432;&#7901;i d&#249;ng</text><line style="stroke:#000000;stroke-width:1.0;" x1="559" x2="601" y1="467.3438" y2="467.3438"/><line style="stroke:#000000;stroke-width:1.0;" x1="601" x2="601" y1="467.3438" y2="480.3438"/><line style="stroke:#000000;stroke-width:1.0;" x1="560" x2="601" y1="480.3438" y2="480.3438"/><polygon fill="#000000" points="570,476.3438,560,480.3438,570,484.3438,566,480.3438" style="stroke:#000000;stroke-width:1.0;"/><text fill="#000000" font-family="Verdana" font-size="13" lengthAdjust="spacing" textLength="218" x="566" y="462.6143">Ki&#7875;m tra quy&#7873;n Sinh vi&#234;n (role 4)</text><polygon fill="#000000" points="779,506.1431,789,510.1431,779,514.1431,783,510.1431" style="stroke:#000000;stroke-width:1.0;"/><line style="stroke:#000000;stroke-width:1.0;" x1="559" x2="785" y1="510.1431" y2="510.1431"/><text fill="#000000" font-family="Verdana" font-size="13" lengthAdjust="spacing" textLength="132" x="609" y="505.4136">Ki&#7875;m tra qu&#7929; t&#7891;n t&#7841;i</text><polygon fill="#000000" points="570,535.9424,560,539.9424,570,543.9424,566,539.9424" style="stroke:#000000;stroke-width:1.0;"/><line style="stroke:#000000;stroke-width:1.0;stroke-dasharray:2.0,2.0;" x1="564" x2="795" y1="539.9424" y2="539.9424"/><text fill="#000000" font-family="Verdana" font-size="13" lengthAdjust="spacing" textLength="92" x="631.5" y="535.2129">Th&#244;ng tin qu&#7929;</text><path d="M15,554.9424 L79,554.9424 L79,562.7417 L69,572.7417 L15,572.7417 L15,554.9424 " fill="#FFFFFF" style="stroke:#000000;stroke-width:1.0;"/><rect fill="none" height="564.1216" style="stroke:#000000;stroke-width:1.0;" width="840.5" x="15" y="554.9424"/><text fill="#000000" font-family="Verdana" font-size="13" font-weight="bold" lengthAdjust="spacing" textLength="19" x="30" y="569.0122">alt</text><text fill="#000000" font-family="Verdana" font-size="11" font-weight="bold" lengthAdjust="spacing" textLength="218" x="94" y="568.0015">[Qu&#7929; kh&#244;ng t&#7891;n t&#7841;i ho&#7863;c &#273;&#227; &#273;&#243;ng]</text><polygon fill="#000000" points="307,606.3403,297,610.3403,307,614.3403,303,610.3403" style="stroke:#000000;stroke-width:1.0;"/><line style="stroke:#000000;stroke-width:1.0;stroke-dasharray:2.0,2.0;" x1="301" x2="548" y1="610.3403" y2="610.3403"/><text fill="#000000" font-family="Verdana" font-size="13" lengthAdjust="spacing" textLength="89" x="378" y="589.8115">Th&#244;ng b&#225;o l&#7895;i</text><text fill="#000000" font-family="Verdana" font-size="13" lengthAdjust="spacing" textLength="145" x="350" y="605.6108">"Qu&#7929; kh&#244;ng kh&#7843; d&#7909;ng"</text><polygon fill="#000000" points="71,636.1396,61,640.1396,71,644.1396,67,640.1396" style="stroke:#000000;stroke-width:1.0;"/><line style="stroke:#000000;stroke-width:1.0;stroke-dasharray:2.0,2.0;" x1="65" x2="285" y1="640.1396" y2="640.1396"/><text fill="#000000" font-family="Verdana" font-size="13" lengthAdjust="spacing" textLength="141" x="102.5" y="635.4102">Hi&#7875;n th&#7883; th&#244;ng b&#225;o l&#7895;i</text><line style="stroke:#000000;stroke-width:1.0;stroke-dasharray:2.0,2.0;" x1="15" x2="855.5" y1="649.1396" y2="649.1396"/><text fill="#000000" font-family="Verdana" font-size="11" font-weight="bold" lengthAdjust="spacing" textLength="182" x="20" y="660.1987">[S&#7889; ti&#7873;n kh&#244;ng h&#7907;p l&#7879; (&#8804; 0)]</text><polygon fill="#000000" points="307,697.1069,297,701.1069,307,705.1069,303,701.1069" style="stroke:#000000;stroke-width:1.0;"/><line style="stroke:#000000;stroke-width:1.0;stroke-dasharray:2.0,2.0;" x1="301" x2="548" y1="701.1069" y2="701.1069"/><text fill="#000000" font-family="Verdana" font-size="13" lengthAdjust="spacing" textLength="89" x="378" y="680.5781">Th&#244;ng b&#225;o l&#7895;i</text><text fill="#000000" font-family="Verdana" font-size="13" lengthAdjust="spacing" textLength="155" x="345" y="696.3774">"S&#7889; ti&#7873;n ph&#7843;i l&#7899;n h&#417;n 0"</text><polygon fill="#000000" points="71,726.9063,61,730.9063,71,734.9063,67,730.9063" style="stroke:#000000;stroke-width:1.0;"/><line style="stroke:#000000;stroke-width:1.0;stroke-dasharray:2.0,2.0;" x1="65" x2="285" y1="730.9063" y2="730.9063"/><text fill="#000000" font-family="Verdana" font-size="13" lengthAdjust="spacing" textLength="141" x="102.5" y="726.1768">Hi&#7875;n th&#7883; th&#244;ng b&#225;o l&#7895;i</text><line style="stroke:#000000;stroke-width:1.0;stroke-dasharray:2.0,2.0;" x1="15" x2="855.5" y1="739.9063" y2="739.9063"/><text fill="#000000" font-family="Verdana" font-size="11" font-weight="bold" lengthAdjust="spacing" textLength="101" x="20" y="750.9653">[D&#7919; li&#7879;u h&#7907;p l&#7879;]</text><polygon fill="#000000" points="779,772.0742,789,776.0742,779,780.0742,783,776.0742" style="stroke:#000000;stroke-width:1.0;"/><line style="stroke:#000000;stroke-width:1.0;" x1="559" x2="785" y1="776.0742" y2="776.0742"/><text fill="#000000" font-family="Verdana" font-size="13" font-weight="bold" lengthAdjust="spacing" textLength="125" x="612.5" y="771.3447">B&#7855;t &#273;&#7847;u giao d&#7883;ch</text><polygon fill="#000000" points="779,817.6729,789,821.6729,779,825.6729,783,821.6729" style="stroke:#000000;stroke-width:1.0;"/><line style="stroke:#000000;stroke-width:1.0;" x1="559" x2="785" y1="821.6729" y2="821.6729"/><text fill="#000000" font-family="Verdana" font-size="13" lengthAdjust="spacing" textLength="122" x="614" y="801.144">T&#7841;o &#273;&#417;n xin h&#7895; tr&#7907;</text><text fill="#000000" font-family="Verdana" font-size="13" lengthAdjust="spacing" textLength="199" x="575.5" y="816.9434">Tr&#7841;ng th&#225;i: "Ch&#7901; duy&#7879;t c&#7845;p 1"</text><polygon fill="#000000" points="570,847.4722,560,851.4722,570,855.4722,566,851.4722" style="stroke:#000000;stroke-width:1.0;"/><line style="stroke:#000000;stroke-width:1.0;stroke-dasharray:2.0,2.0;" x1="564" x2="790" y1="851.4722" y2="851.4722"/><text fill="#000000" font-family="Verdana" font-size="13" lengthAdjust="spacing" textLength="104" x="623" y="846.7427">&#272;&#417;n &#273;&#227; t&#7841;o (ID)</text><polygon fill="#000000" points="779,924.6694,789,928.6694,779,932.6694,783,928.6694" style="stroke:#000000;stroke-width:1.0;"/><line style="stroke:#000000;stroke-width:1.0;" x1="559" x2="785" y1="928.6694" y2="928.6694"/><text fill="#000000" font-family="Verdana" font-size="13" lengthAdjust="spacing" textLength="163" x="593.5" y="876.542">T&#7841;o 3 b&#7843;n ghi ph&#234; duy&#7879;t</text><text fill="#000000" font-family="Verdana" font-size="13" lengthAdjust="spacing" textLength="129" x="610.5" y="892.3413">- C&#7845;p 1: Ch&#7901; duy&#7879;t</text><text fill="#000000" font-family="Verdana" font-size="13" lengthAdjust="spacing" textLength="129" x="610.5" y="908.1406">- C&#7845;p 2: Ch&#7901; duy&#7879;t</text><text fill="#000000" font-family="Verdana" font-size="13" lengthAdjust="spacing" textLength="129" x="610.5" y="923.9399">- C&#7845;p 3: Ch&#7901; duy&#7879;t</text><polygon fill="#000000" points="570,954.4688,560,958.4688,570,962.4688,566,958.4688" style="stroke:#000000;stroke-width:1.0;"/><line style="stroke:#000000;stroke-width:1.0;stroke-dasharray:2.0,2.0;" x1="564" x2="790" y1="958.4688" y2="958.4688"/><text fill="#000000" font-family="Verdana" font-size="13" lengthAdjust="spacing" textLength="115" x="617.5" y="953.7393">Ph&#234; duy&#7879;t &#273;&#227; t&#7841;o</text><polygon fill="#000000" points="784,984.2681,794,988.2681,784,992.2681,788,988.2681" style="stroke:#000000;stroke-width:1.0;"/><line style="stroke:#000000;stroke-width:1.0;" x1="559" x2="790" y1="988.2681" y2="988.2681"/><text fill="#000000" font-family="Verdana" font-size="13" font-weight="bold" lengthAdjust="spacing" textLength="136" x="609.5" y="983.5386">X&#225;c nh&#7853;n giao d&#7883;ch</text><polygon fill="#000000" points="307,1061.4653,297,1065.4653,307,1069.4653,303,1065.4653" style="stroke:#000000;stroke-width:1.0;"/><line style="stroke:#000000;stroke-width:1.0;stroke-dasharray:2.0,2.0;" x1="301" x2="553" y1="1065.4653" y2="1065.4653"/><text fill="#000000" font-family="Verdana" font-size="13" lengthAdjust="spacing" textLength="137" x="356.5" y="1013.3379">Tr&#7843; v&#7873; th&#244;ng tin &#273;&#417;n</text><text fill="#000000" font-family="Verdana" font-size="13" lengthAdjust="spacing" textLength="60" x="395" y="1029.1372">- M&#227; &#273;&#417;n</text><text fill="#000000" font-family="Verdana" font-size="13" lengthAdjust="spacing" textLength="80" x="385" y="1044.9365">- Tr&#7841;ng th&#225;i</text><text fill="#000000" font-family="Verdana" font-size="13" lengthAdjust="spacing" textLength="74" x="388" y="1060.7358">- Ng&#224;y n&#7897;p</text><polygon fill="#000000" points="71,1107.064,61,1111.064,71,1115.064,67,1111.064" style="stroke:#000000;stroke-width:1.0;"/><line style="stroke:#000000;stroke-width:1.0;stroke-dasharray:2.0,2.0;" x1="65" x2="285" y1="1111.064" y2="1111.064"/><text fill="#000000" font-family="Verdana" font-size="13" lengthAdjust="spacing" textLength="202" x="72" y="1090.5352">Hi&#7875;n th&#7883; th&#244;ng b&#225;o th&#224;nh c&#244;ng</text><text fill="#000000" font-family="Verdana" font-size="13" lengthAdjust="spacing" textLength="191" x="77.5" y="1106.3345">"&#272;&#417;n &#273;&#227; n&#7897;p, ch&#7901; ph&#234; duy&#7879;t"</text><rect fill="none" height="112.0879" id="_legend" rx="7.5" ry="7.5" style="stroke:#000000;stroke-width:1.0;" width="375" x="484.5" y="1219.0786"/><text fill="#000000" font-family="Verdana" font-size="14" font-weight="bold" lengthAdjust="spacing" textLength="43" x="489.5" y="1238.1538">M&#244; t&#7843;</text><text fill="#000000" font-family="Verdana" font-size="14" lengthAdjust="spacing" textLength="262" x="532.5" y="1238.1538">: Sinh vi&#234;n t&#7841;o &#273;&#417;n xin h&#7895; tr&#7907; t&#7915; qu&#7929;</text><text fill="#000000" font-family="Verdana" font-size="14" font-weight="bold" lengthAdjust="spacing" textLength="29" x="489.5" y="1255.1685">API</text><text fill="#000000" font-family="Verdana" font-size="14" lengthAdjust="spacing" textLength="168" x="518.5" y="1255.1685">: POST /api/applications</text><text fill="#000000" font-family="Verdana" font-size="14" font-weight="bold" lengthAdjust="spacing" textLength="84" x="489.5" y="1272.1831">Quy&#7873;n h&#7841;n</text><text fill="#000000" font-family="Verdana" font-size="14" lengthAdjust="spacing" textLength="132" x="573.5" y="1272.1831">: Sinh vi&#234;n (role 4)</text><text fill="#000000" font-family="Verdana" font-size="14" font-weight="bold" lengthAdjust="spacing" textLength="71" x="489.5" y="1289.1978">Giao d&#7883;ch</text><text fill="#000000" font-family="Verdana" font-size="14" lengthAdjust="spacing" textLength="294" x="560.5" y="1289.1978">: &#272;&#7843;m b&#7843;o t&#7841;o &#273;&#417;n v&#224; ph&#234; duy&#7879;t c&#249;ng l&#250;c</text><text fill="#000000" font-family="Verdana" font-size="14" font-weight="bold" lengthAdjust="spacing" textLength="148" x="489.5" y="1306.2124">Tr&#7841;ng th&#225;i ban &#273;&#7847;u</text><text fill="#000000" font-family="Verdana" font-size="14" lengthAdjust="spacing" textLength="127" x="637.5" y="1306.2124">: Ch&#7901; duy&#7879;t c&#7845;p 1</text><text fill="#000000" font-family="Verdana" font-size="14" font-weight="bold" lengthAdjust="spacing" textLength="114" x="489.5" y="1323.2271">B&#432;&#7899;c ti&#7871;p theo</text><text fill="#000000" font-family="Verdana" font-size="14" lengthAdjust="spacing" textLength="180" x="603.5" y="1323.2271">: C&#225;n b&#7897; ph&#234; duy&#7879;t c&#7845;p 1</text><!--SRC=[dLRVQzjM57w_VyMPzv9S5fQrU_B3e8vPOzPuQMrC7_8YoqAwMBvIfUjiVWnz25iPj0psWn9cpoiRtK8tLXYr67ku9V-7zfVid2lPbcIdb1diI3hdVEUxt_cXlACyP-H0w5j2idWeP6X5rWZwbZrqes0i1mU17qJmxiVcK_28dGTZHzhEaHF7bklSyeKhmNQaSYB6b52-0vntclitwj1fjG-Xrz9Vjg6T9jyTm-l7LzCst6-ruJ1Dle7klJJvaNF6B5jXhbf7I0zEXNukQs35qEanJAc4BK9BAgXr8_qREWp6apGvLyQb4GMVnPYuv7Vhk4Nuvw2yD7aYNUE93zd0KbRVYXse7LpD84wJ7s2G9Y_05-WzDcxD1cET7knzj8IkGqzF0r2H9LseuJ6-3-7rawkPh15hSMefPyM2vHSKZldgS2TTF9l0m4BMiPxP7ZmOfyahZ2SmBqWNCuKtY2dTDHenfICWIBDHXsuqdi0f0ibIz0ZPhsEGThC1UykytIXTp34eETj8pWPECSeaAfxs4BLuA8rqZzuOJ3IhKXrWr5TBdgTwYbmHxepWz4iahOGyaNjmH_yDWm0-5n8mu5iKDqtcPEXWlT39X90kPo1T8aAshfwAl59eqvV8RAX_6MsAVZjDBaLMeqgAiiOom8j8k9wgm_6ddIwyRuK2lw4lR4k9GCPiMGU3UnzrCBhyWN-2eIEHtDNlQN8XOA1VOGMBpf-GZ2Dg6rHZOWwqxcxOYG8SamztMR7GfH0IKAN9roWTTeculj8hORUMbrc-Whi6RPXxha5D1_vbavfp-laJpm3usUY9F4bVpmBmKKrn8cibqA57_OQpz0odpM2iYe8udLwbhLGLZpa-JcMn-Zamkiz3yZc7dN-_-0dsTz-UOH4k98A2J4-n8QWpzly_p-PwPnG8hebbvUIyaIvUcFbU_3m6LrW1AVJ8zd3ZaM-nJdHV1UXYZOAjVNmYQS1dL4rFpqGTznaQBvQR4MpS5Y5ya9sms2suVsSogxSow3kjvkuRaj-4FkecmVK4IgYVBpFGF1vaIRAXlzYqtBZMShDYsQ1vN4XLOBkLAETcBYKM-59kKRay3sM4KWUjL-PwMMNg4_CZCoBvJKbzUj1szNG2abuErQIqQLPPtxhRy7gAsyAc9zZAXRgP9E-1RGGirgJ673bWnVbVlPPynqLRjkiOvqVw9GawvxnUN4hgsdwZfV5hlbyunnDHv3Kha_Ex-RxpIAHAZjNYu_nsiLJKciXePFejA56XrqZnd2WABblmzS96b58fyByNcSyRGMuT2enfqDP-QjDkMFmJOgWJ67UDsVeeRoLT7eSAPZgo_m00]--></g></svg>