<?xml version="1.0" encoding="us-ascii" standalone="no"?><svg xmlns="http://www.w3.org/2000/svg" xmlns:xlink="http://www.w3.org/1999/xlink" contentStyleType="text/css" height="1276px" preserveAspectRatio="none" style="width:694px;height:1276px;background:#FFFFFF;" version="1.1" viewBox="0 0 694 1276" width="694px" zoomAndPan="magnify"><defs/><g><text fill="#000000" font-family="Verdana" font-size="22" font-weight="bold" lengthAdjust="spacing" textLength="513" x="89.25" y="37.1182">SD09: AI H&#7894; TR&#7906; VI&#7870;T &#272;&#416;N XIN H&#7894; TR&#7906;</text><line style="stroke:#000000;stroke-width:1.0;" x1="122" x2="122" y1="130.752" y2="1051.5308"/><line style="stroke:#000000;stroke-width:1.0;" x1="285.5" x2="285.5" y1="130.752" y2="1051.5308"/><line style="stroke:#000000;stroke-width:1.0;" x1="455.5" x2="455.5" y1="130.752" y2="1051.5308"/><line style="stroke:#000000;stroke-width:1.0;" x1="631.5" x2="631.5" y1="130.752" y2="1051.5308"/><text fill="#000000" font-family="Verdana" font-size="14" lengthAdjust="spacing" textLength="64" x="87" y="127.8125">Sinh vi&#234;n</text><ellipse cx="122" cy="61.7373" fill="#FFFFFF" rx="8" ry="8" style="stroke:#000000;stroke-width:1.0;"/><path d="M122,69.7373 L122,96.7373 M109,77.7373 L135,77.7373 M122,96.7373 L109,111.7373 M122,96.7373 L135,111.7373 " fill="none" style="stroke:#000000;stroke-width:1.0;"/><text fill="#000000" font-family="Verdana" font-size="14" lengthAdjust="spacing" textLength="64" x="87" y="1064.606">Sinh vi&#234;n</text><ellipse cx="122" cy="1076.5454" fill="#FFFFFF" rx="8" ry="8" style="stroke:#000000;stroke-width:1.0;"/><path d="M122,1084.5454 L122,1111.5454 M109,1092.5454 L135,1092.5454 M122,1111.5454 L109,1126.5454 M122,1111.5454 L135,1126.5454 " fill="none" style="stroke:#000000;stroke-width:1.0;"/><rect fill="#FFFFFF" height="31.0146" rx="2.5" ry="2.5" style="stroke:#000000;stroke-width:1.0;" width="79" x="246.5" y="98.7373"/><text fill="#000000" font-family="Verdana" font-size="14" lengthAdjust="spacing" textLength="65" x="253.5" y="119.8125">Giao di&#7879;n</text><rect fill="#FFFFFF" height="31.0146" rx="2.5" ry="2.5" style="stroke:#000000;stroke-width:1.0;" width="79" x="246.5" y="1050.5308"/><text fill="#000000" font-family="Verdana" font-size="14" lengthAdjust="spacing" textLength="65" x="253.5" y="1071.606">Giao di&#7879;n</text><rect fill="#FFFFFF" height="31.0146" rx="2.5" ry="2.5" style="stroke:#000000;stroke-width:1.0;" width="37" x="437.5" y="98.7373"/><text fill="#000000" font-family="Verdana" font-size="14" lengthAdjust="spacing" textLength="23" x="444.5" y="119.8125">API</text><rect fill="#FFFFFF" height="31.0146" rx="2.5" ry="2.5" style="stroke:#000000;stroke-width:1.0;" width="37" x="437.5" y="1050.5308"/><text fill="#000000" font-family="Verdana" font-size="14" lengthAdjust="spacing" textLength="23" x="444.5" y="1071.606">API</text><rect fill="#FFFFFF" height="31.0146" rx="2.5" ry="2.5" style="stroke:#000000;stroke-width:1.0;" width="81" x="591.5" y="98.7373"/><text fill="#000000" font-family="Verdana" font-size="14" lengthAdjust="spacing" textLength="67" x="598.5" y="119.8125">Gemini AI</text><rect fill="#FFFFFF" height="31.0146" rx="2.5" ry="2.5" style="stroke:#000000;stroke-width:1.0;" width="81" x="591.5" y="1050.5308"/><text fill="#000000" font-family="Verdana" font-size="14" lengthAdjust="spacing" textLength="67" x="598.5" y="1071.606">Gemini AI</text><path d="M10,145.752 L10,186.752 L234,186.752 L234,155.752 L224,145.752 L10,145.752 " fill="#FFFFFF" style="stroke:#000000;stroke-width:1.0;"/><path d="M224,145.752 L224,155.752 L234,155.752 L224,145.752 " fill="#FFFFFF" style="stroke:#000000;stroke-width:1.0;"/><text fill="#000000" font-family="Verdana" font-size="13" font-weight="bold" lengthAdjust="spacing" textLength="93" x="16" y="163.8218">3 ch&#7913;c n&#259;ng:</text><text fill="#000000" font-family="Verdana" font-size="13" lengthAdjust="spacing" textLength="203" x="16" y="179.6211">Ph&#226;n t&#237;ch | T&#7889;i &#432;u | So&#7841;n m&#7851;u</text><rect fill="#FFFFFF" height="3" style="stroke:#FFFFFF;stroke-width:1.0;" width="682.5" x="5" y="213.2502"/><line style="stroke:#000000;stroke-width:0.5;" x1="5" x2="687.5" y1="213.2502" y2="213.2502"/><line style="stroke:#000000;stroke-width:0.5;" x1="5" x2="687.5" y1="216.2502" y2="216.2502"/><rect fill="#FFFFFF" height="23.7993" style="stroke:#000000;stroke-width:1.0;" width="133" x="279.75" y="202.3506"/><text fill="#000000" font-family="Verdana" font-size="13" font-weight="bold" lengthAdjust="spacing" textLength="115" x="285.75" y="219.4204">PH&#194;N T&#205;CH &#272;&#416;N</text><polygon fill="#000000" points="274,253.9492,284,257.9492,274,261.9492,278,257.9492" style="stroke:#000000;stroke-width:1.0;"/><line style="stroke:#000000;stroke-width:1.0;" x1="122" x2="280" y1="257.9492" y2="257.9492"/><text fill="#000000" font-family="Verdana" font-size="13" lengthAdjust="spacing" textLength="123" x="142.5" y="253.2197">Nh&#7853;p n&#7897;i dung &#273;&#417;n</text><polygon fill="#000000" points="274,283.7485,284,287.7485,274,291.7485,278,287.7485" style="stroke:#000000;stroke-width:1.0;"/><line style="stroke:#000000;stroke-width:1.0;" x1="122" x2="280" y1="287.7485" y2="287.7485"/><text fill="#000000" font-family="Verdana" font-size="13" lengthAdjust="spacing" textLength="110" x="149" y="283.019">Ch&#7885;n "Ph&#226;n t&#237;ch"</text><polygon fill="#000000" points="444,329.3472,454,333.3472,444,337.3472,448,333.3472" style="stroke:#000000;stroke-width:1.0;"/><line style="stroke:#000000;stroke-width:1.0;" x1="286" x2="450" y1="333.3472" y2="333.3472"/><text fill="#000000" font-family="Verdana" font-size="13" lengthAdjust="spacing" textLength="146" x="298" y="312.8184">G&#7917;i y&#234;u c&#7847;u ph&#226;n t&#237;ch</text><text fill="#000000" font-family="Verdana" font-size="13" lengthAdjust="spacing" textLength="114" x="314" y="328.6177">(action: analyze)</text><polygon fill="#000000" points="620,359.1465,630,363.1465,620,367.1465,624,363.1465" style="stroke:#000000;stroke-width:1.0;"/><line style="stroke:#000000;stroke-width:1.0;" x1="456" x2="626" y1="363.1465" y2="363.1465"/><text fill="#000000" font-family="Verdana" font-size="13" lengthAdjust="spacing" textLength="152" x="468" y="358.417">Ph&#226;n t&#237;ch n&#7897;i dung &#273;&#417;n</text><polygon fill="#000000" points="467,420.5444,457,424.5444,467,428.5444,463,424.5444" style="stroke:#000000;stroke-width:1.0;"/><line style="stroke:#000000;stroke-width:1.0;stroke-dasharray:2.0,2.0;" x1="461" x2="631" y1="424.5444" y2="424.5444"/><text fill="#000000" font-family="Verdana" font-size="13" lengthAdjust="spacing" textLength="57" x="515.5" y="388.2163">K&#7871;t qu&#7843;:</text><text fill="#000000" font-family="Verdana" font-size="13" lengthAdjust="spacing" textLength="113" x="487.5" y="404.0156">- &#272;i&#7875;m m&#7841;nh/y&#7871;u</text><text fill="#000000" font-family="Verdana" font-size="13" lengthAdjust="spacing" textLength="107" x="490.5" y="419.8149">- G&#7907;i &#253; c&#7843;i thi&#7879;n</text><polygon fill="#000000" points="297,450.3438,287,454.3438,297,458.3438,293,454.3438" style="stroke:#000000;stroke-width:1.0;"/><line style="stroke:#000000;stroke-width:1.0;stroke-dasharray:2.0,2.0;" x1="291" x2="455" y1="454.3438" y2="454.3438"/><text fill="#000000" font-family="Verdana" font-size="13" lengthAdjust="spacing" textLength="82" x="330" y="449.6143">Tr&#7843; v&#7873; JSON</text><polygon fill="#000000" points="133,480.1431,123,484.1431,133,488.1431,129,484.1431" style="stroke:#000000;stroke-width:1.0;"/><line style="stroke:#000000;stroke-width:1.0;stroke-dasharray:2.0,2.0;" x1="127" x2="285" y1="484.1431" y2="484.1431"/><text fill="#000000" font-family="Verdana" font-size="13" lengthAdjust="spacing" textLength="113" x="147.5" y="479.4136">Hi&#7875;n th&#7883; nh&#7853;n x&#233;t</text><rect fill="#FFFFFF" height="3" style="stroke:#FFFFFF;stroke-width:1.0;" width="682.5" x="5" y="513.0427"/><line style="stroke:#000000;stroke-width:0.5;" x1="5" x2="687.5" y1="513.0427" y2="513.0427"/><line style="stroke:#000000;stroke-width:0.5;" x1="5" x2="687.5" y1="516.0427" y2="516.0427"/><rect fill="#FFFFFF" height="23.7993" style="stroke:#000000;stroke-width:1.0;" width="104" x="294.25" y="502.1431"/><text fill="#000000" font-family="Verdana" font-size="13" font-weight="bold" lengthAdjust="spacing" textLength="86" x="300.25" y="519.2129">T&#7888;I &#431;U &#272;&#416;N</text><polygon fill="#000000" points="274,553.7417,284,557.7417,274,561.7417,278,557.7417" style="stroke:#000000;stroke-width:1.0;"/><line style="stroke:#000000;stroke-width:1.0;" x1="122" x2="280" y1="557.7417" y2="557.7417"/><text fill="#000000" font-family="Verdana" font-size="13" lengthAdjust="spacing" textLength="90" x="159" y="553.0122">Ch&#7885;n "T&#7889;i &#432;u"</text><polygon fill="#000000" points="444,599.3403,454,603.3403,444,607.3403,448,603.3403" style="stroke:#000000;stroke-width:1.0;"/><line style="stroke:#000000;stroke-width:1.0;" x1="286" x2="450" y1="603.3403" y2="603.3403"/><text fill="#000000" font-family="Verdana" font-size="13" lengthAdjust="spacing" textLength="79" x="331.5" y="582.8115">G&#7917;i y&#234;u c&#7847;u</text><text fill="#000000" font-family="Verdana" font-size="13" lengthAdjust="spacing" textLength="118" x="312" y="598.6108">(action: optimize)</text><polygon fill="#000000" points="620,629.1396,630,633.1396,620,637.1396,624,633.1396" style="stroke:#000000;stroke-width:1.0;"/><line style="stroke:#000000;stroke-width:1.0;" x1="456" x2="626" y1="633.1396" y2="633.1396"/><text fill="#000000" font-family="Verdana" font-size="13" lengthAdjust="spacing" textLength="106" x="491" y="628.4102">Vi&#7871;t l&#7841;i n&#7897;i dung</text><polygon fill="#000000" points="467,658.939,457,662.939,467,666.939,463,662.939" style="stroke:#000000;stroke-width:1.0;"/><line style="stroke:#000000;stroke-width:1.0;stroke-dasharray:2.0,2.0;" x1="461" x2="631" y1="662.939" y2="662.939"/><text fill="#000000" font-family="Verdana" font-size="13" lengthAdjust="spacing" textLength="90" x="499" y="658.2095">&#272;&#417;n &#273;&#227; t&#7889;i &#432;u</text><polygon fill="#000000" points="297,688.7383,287,692.7383,297,696.7383,293,692.7383" style="stroke:#000000;stroke-width:1.0;"/><line style="stroke:#000000;stroke-width:1.0;stroke-dasharray:2.0,2.0;" x1="291" x2="455" y1="692.7383" y2="692.7383"/><text fill="#000000" font-family="Verdana" font-size="13" lengthAdjust="spacing" textLength="128" x="307" y="688.0088">Tr&#7843; v&#7873; v&#259;n b&#7843;n m&#7899;i</text><polygon fill="#000000" points="133,718.5376,123,722.5376,133,726.5376,129,722.5376" style="stroke:#000000;stroke-width:1.0;"/><line style="stroke:#000000;stroke-width:1.0;stroke-dasharray:2.0,2.0;" x1="127" x2="285" y1="722.5376" y2="722.5376"/><text fill="#000000" font-family="Verdana" font-size="13" lengthAdjust="spacing" textLength="108" x="150" y="717.8081">Hi&#7875;n th&#7883; &#273;&#7875; copy</text><rect fill="#FFFFFF" height="3" style="stroke:#FFFFFF;stroke-width:1.0;" width="682.5" x="5" y="751.4373"/><line style="stroke:#000000;stroke-width:0.5;" x1="5" x2="687.5" y1="751.4373" y2="751.4373"/><line style="stroke:#000000;stroke-width:0.5;" x1="5" x2="687.5" y1="754.4373" y2="754.4373"/><rect fill="#FFFFFF" height="23.7993" style="stroke:#000000;stroke-width:1.0;" width="130" x="281.25" y="740.5376"/><text fill="#000000" font-family="Verdana" font-size="13" font-weight="bold" lengthAdjust="spacing" textLength="112" x="287.25" y="757.6074">SO&#7840;N &#272;&#416;N M&#7850;U</text><polygon fill="#000000" points="274,792.1362,284,796.1362,274,800.1362,278,796.1362" style="stroke:#000000;stroke-width:1.0;"/><line style="stroke:#000000;stroke-width:1.0;" x1="122" x2="280" y1="796.1362" y2="796.1362"/><text fill="#000000" font-family="Verdana" font-size="13" lengthAdjust="spacing" textLength="86" x="161" y="791.4067">Nh&#7853;p &#253; ch&#237;nh</text><polygon fill="#000000" points="274,821.9355,284,825.9355,274,829.9355,278,825.9355" style="stroke:#000000;stroke-width:1.0;"/><line style="stroke:#000000;stroke-width:1.0;" x1="122" x2="280" y1="825.9355" y2="825.9355"/><text fill="#000000" font-family="Verdana" font-size="13" lengthAdjust="spacing" textLength="113" x="147.5" y="821.2061">Ch&#7885;n "So&#7841;n m&#7851;u"</text><polygon fill="#000000" points="444,867.5342,454,871.5342,444,875.5342,448,871.5342" style="stroke:#000000;stroke-width:1.0;"/><line style="stroke:#000000;stroke-width:1.0;" x1="286" x2="450" y1="871.5342" y2="871.5342"/><text fill="#000000" font-family="Verdana" font-size="13" lengthAdjust="spacing" textLength="79" x="331.5" y="851.0054">G&#7917;i y&#234;u c&#7847;u</text><text fill="#000000" font-family="Verdana" font-size="13" lengthAdjust="spacing" textLength="96" x="323" y="866.8047">(action: draft)</text><polygon fill="#000000" points="620,897.3335,630,901.3335,620,905.3335,624,901.3335" style="stroke:#000000;stroke-width:1.0;"/><line style="stroke:#000000;stroke-width:1.0;" x1="456" x2="626" y1="901.3335" y2="901.3335"/><text fill="#000000" font-family="Verdana" font-size="13" lengthAdjust="spacing" textLength="139" x="474.5" y="896.604">So&#7841;n &#273;&#417;n ho&#224;n ch&#7881;nh</text><polygon fill="#000000" points="467,927.1328,457,931.1328,467,935.1328,463,931.1328" style="stroke:#000000;stroke-width:1.0;"/><line style="stroke:#000000;stroke-width:1.0;stroke-dasharray:2.0,2.0;" x1="461" x2="631" y1="931.1328" y2="931.1328"/><text fill="#000000" font-family="Verdana" font-size="13" lengthAdjust="spacing" textLength="76" x="506" y="926.4033">L&#225; &#273;&#417;n m&#7851;u</text><polygon fill="#000000" points="297,956.9321,287,960.9321,297,964.9321,293,960.9321" style="stroke:#000000;stroke-width:1.0;"/><line style="stroke:#000000;stroke-width:1.0;stroke-dasharray:2.0,2.0;" x1="291" x2="455" y1="960.9321" y2="960.9321"/><text fill="#000000" font-family="Verdana" font-size="13" lengthAdjust="spacing" textLength="72" x="335" y="956.2026">Tr&#7843; v&#7873; &#273;&#417;n</text><polygon fill="#000000" points="133,986.7314,123,990.7314,133,994.7314,129,990.7314" style="stroke:#000000;stroke-width:1.0;"/><line style="stroke:#000000;stroke-width:1.0;stroke-dasharray:2.0,2.0;" x1="127" x2="285" y1="990.7314" y2="990.7314"/><text fill="#000000" font-family="Verdana" font-size="13" lengthAdjust="spacing" textLength="140" x="134" y="986.002">Hi&#7875;n th&#7883; &#273;&#7875; ch&#7881;nh s&#7917;a</text><line style="stroke:#000000;stroke-width:1.0;" x1="122" x2="164" y1="1020.5308" y2="1020.5308"/><line style="stroke:#000000;stroke-width:1.0;" x1="164" x2="164" y1="1020.5308" y2="1033.5308"/><line style="stroke:#000000;stroke-width:1.0;" x1="123" x2="164" y1="1033.5308" y2="1033.5308"/><polygon fill="#000000" points="133,1029.5308,123,1033.5308,133,1037.5308,129,1033.5308" style="stroke:#000000;stroke-width:1.0;"/><text fill="#000000" font-family="Verdana" font-size="13" lengthAdjust="spacing" textLength="144" x="129" y="1015.8013">Ch&#7881;nh s&#7917;a v&#224; n&#7897;p &#273;&#417;n</text><rect fill="none" height="129.1025" id="_legend" rx="7.5" ry="7.5" style="stroke:#000000;stroke-width:1.0;" width="288" x="393.5" y="1134.5454"/><text fill="#000000" font-family="Verdana" font-size="14" font-weight="bold" lengthAdjust="spacing" textLength="29" x="398.5" y="1153.6206">API</text><text fill="#000000" font-family="Verdana" font-size="14" lengthAdjust="spacing" textLength="249" x="427.5" y="1153.6206">: POST /api/applications/ai-suggest</text><text fill="#000000" font-family="Verdana" font-size="14" font-weight="bold" lengthAdjust="spacing" textLength="19" x="398.5" y="1170.6353">AI</text><text fill="#000000" font-family="Verdana" font-size="14" lengthAdjust="spacing" textLength="244" x="417.5" y="1170.6353">: Google Gemini (gemini-1.5-flash)</text><text fill="#000000" font-family="Verdana" font-size="14" font-weight="bold" lengthAdjust="spacing" textLength="50" x="398.5" y="1187.6499">Quy&#7873;n</text><text fill="#000000" font-family="Verdana" font-size="14" lengthAdjust="spacing" textLength="132" x="448.5" y="1187.6499">: Sinh vi&#234;n (role 4)</text><text fill="#000000" font-family="Verdana" font-size="14" font-weight="bold" lengthAdjust="spacing" textLength="96" x="398.5" y="1204.6646">3 ch&#7913;c n&#259;ng</text><text fill="#000000" font-family="Verdana" font-size="14" lengthAdjust="spacing" textLength="6" x="494.5" y="1204.6646">:</text><text fill="#000000" font-family="Verdana" font-size="14" lengthAdjust="spacing" textLength="178" x="408.5" y="1221.6792">&#8226; Analyze - &#272;&#225;nh gi&#225; &#273;&#417;n</text><text fill="#000000" font-family="Verdana" font-size="14" lengthAdjust="spacing" textLength="199" x="408.5" y="1238.6938">&#8226; Optimize - Vi&#7871;t l&#7841;i hay h&#417;n</text><text fill="#000000" font-family="Verdana" font-size="14" lengthAdjust="spacing" textLength="210" x="408.5" y="1255.7085">&#8226; Draft - So&#7841;n &#273;&#417;n t&#7915; &#253; ch&#237;nh</text><!--SRC=[ZLJBRjD05DtFLrp2fhKK2W8MH0fIb8h6F9A2auX5DrDdQe_gZ5q_8e9O05qWX2er6oJ4fcaNgAqYMDi25exo7yENSFq8TVe0B5b-t3DpxpdttBdccwpFmB4e5yJRviAXBkt39jMt3TSEHAzkMxOBrn-aLm7XiPs02PqzOPv73LQpk250Py9dBY4-zoq6YgAjthnNWPeA3HbzXFOp6Hr2LvNXZpPCzsS7JNYkDWinHI64wZxcAsbSc33WyOae0VL0wn9CwtETErJuK5hZr8OUbz6xBDvH5-ErTJNzZyzp2rcV2uubPM6L467x3Em1SvCaYd8RT5D6npg8wQumAbZIkXaV2l3ZYMx2AsZBQCHXzYt0TysMuLX0NuQd0M6Y1ybUX5IhiDw8tpQX7U_L6pdJQfKGhGlb-rXh1Pgc32SE21bzuj0BX07JqMmi2eWwLh4de5J8NY8TDGaZgGgioMZ2OHYV1A3By4i0pXbmGooXZDmM5Q22MiENR9dWedGjBYqIkb01Dgiyp_58XZzzs0baU5JP46LaWehlzXF2Os6k334S9F-nbYCEyVUa4dpnpRGnMSgSJjl540naz0OUQgrcoWH3MhS2ZMHJh0S9Vm2H22FWHNpifqAYtFigpBvsBfLnBjAVflnLee8ijkFpFZ-dIvUdV2ranml2B4Y2LM37fwFu2Fnvqgk83j11i8cVYKMYp_nAqjCHVe1kEyEKizQI8LBD23-HuKddSlSaWflnH9YNA5Aqvl-AqdFfbh-WIBvBwWmmxVX0fDFn7bCMHNaSZtDCDWfNw94Px1yYPDk3XsNIEUS4Moy6O10Vf1royas9nOna05rkc3vECLQWAEZqbjQ65Ufml1sBwpGXwgrGNlO2ms1U2asHQxPju96L7mzBHleitxfnjxnbKSzSHk3JO8WiH88-EvrWoRLntPtb2qS7uWZ0hzU7KCjc4981Yd5mmE1pmN94AxSZGXPCQD8Xc6UmrQH1Y5be2zhmj605L27JWlm6]--></g></svg>