<?xml version="1.0" encoding="us-ascii" standalone="no"?><svg xmlns="http://www.w3.org/2000/svg" xmlns:xlink="http://www.w3.org/1999/xlink" contentStyleType="text/css" height="1833px" preserveAspectRatio="none" style="width:1118px;height:1833px;background:#FFFFFF;" version="1.1" viewBox="0 0 1118 1833" width="1118px" zoomAndPan="magnify"><defs/><g><text fill="#000000" font-family="Verdana" font-size="22" font-weight="bold" lengthAdjust="spacing" textLength="541" x="287.25" y="37.1182">SD05b: CH&#7900; GI&#7842;I NG&#194;N (QU&#7928; THI&#7870;U TI&#7872;N)</text><rect fill="#FFFFFF" height="1271.9658" style="stroke:#000000;stroke-width:1.0;" width="10" x="373.5" y="162.5513"/><rect fill="#FFFFFF" height="105.1973" style="stroke:#000000;stroke-width:1.0;" width="10" x="647.5" y="192.3506"/><rect fill="#FFFFFF" height="105.1973" style="stroke:#000000;stroke-width:1.0;" width="10" x="647.5" y="357.1465"/><rect fill="#FFFFFF" height="623.1836" style="stroke:#000000;stroke-width:1.0;" width="10" x="647.5" y="666.7383"/><rect fill="#FFFFFF" height="29.7993" style="stroke:#000000;stroke-width:1.0;" width="10" x="880.5" y="237.9492"/><rect fill="#FFFFFF" height="29.7993" style="stroke:#000000;stroke-width:1.0;" width="10" x="880.5" y="402.7451"/><rect fill="#FFFFFF" height="29.7993" style="stroke:#000000;stroke-width:1.0;" width="10" x="880.5" y="785.1362"/><rect fill="#FFFFFF" height="29.7993" style="stroke:#000000;stroke-width:1.0;" width="10" x="880.5" y="844.7349"/><rect fill="#FFFFFF" height="233.9932" style="stroke:#000000;stroke-width:1.0;" width="10" x="880.5" y="978.7314"/><line style="stroke:#000000;stroke-width:1.0;" x1="120" x2="120" y1="130.752" y2="1574.313"/><line style="stroke:#000000;stroke-width:1.0;" x1="378" x2="378" y1="130.752" y2="1574.313"/><line style="stroke:#000000;stroke-width:1.0;" x1="652" x2="652" y1="130.752" y2="1574.313"/><line style="stroke:#000000;stroke-width:1.0;" x1="885" x2="885" y1="130.752" y2="1574.313"/><text fill="#000000" font-family="Verdana" font-size="14" lengthAdjust="spacing" textLength="55" x="90" y="127.8125">K&#7871; to&#225;n</text><ellipse cx="120.5" cy="61.7373" fill="#FFFFFF" rx="8" ry="8" style="stroke:#000000;stroke-width:1.0;"/><path d="M120.5,69.7373 L120.5,96.7373 M107.5,77.7373 L133.5,77.7373 M120.5,96.7373 L107.5,111.7373 M120.5,96.7373 L133.5,111.7373 " fill="none" style="stroke:#000000;stroke-width:1.0;"/><text fill="#000000" font-family="Verdana" font-size="14" lengthAdjust="spacing" textLength="55" x="90" y="1587.3882">K&#7871; to&#225;n</text><ellipse cx="120.5" cy="1599.3276" fill="#FFFFFF" rx="8" ry="8" style="stroke:#000000;stroke-width:1.0;"/><path d="M120.5,1607.3276 L120.5,1634.3276 M107.5,1615.3276 L133.5,1615.3276 M120.5,1634.3276 L107.5,1649.3276 M120.5,1634.3276 L133.5,1649.3276 " fill="none" style="stroke:#000000;stroke-width:1.0;"/><rect fill="#FFFFFF" height="31.0146" rx="2.5" ry="2.5" style="stroke:#000000;stroke-width:1.0;" width="95" x="331" y="98.7373"/><text fill="#000000" font-family="Verdana" font-size="14" lengthAdjust="spacing" textLength="81" x="338" y="119.8125">Tr&#236;nh duy&#7879;t</text><rect fill="#FFFFFF" height="31.0146" rx="2.5" ry="2.5" style="stroke:#000000;stroke-width:1.0;" width="95" x="331" y="1573.313"/><text fill="#000000" font-family="Verdana" font-size="14" lengthAdjust="spacing" textLength="81" x="338" y="1594.3882">Tr&#236;nh duy&#7879;t</text><rect fill="#FFFFFF" height="31.0146" rx="2.5" ry="2.5" style="stroke:#000000;stroke-width:1.0;" width="107" x="599" y="98.7373"/><text fill="#000000" font-family="Verdana" font-size="14" lengthAdjust="spacing" textLength="93" x="606" y="119.8125">API H&#7879; th&#7889;ng</text><rect fill="#FFFFFF" height="31.0146" rx="2.5" ry="2.5" style="stroke:#000000;stroke-width:1.0;" width="107" x="599" y="1573.313"/><text fill="#000000" font-family="Verdana" font-size="14" lengthAdjust="spacing" textLength="93" x="606" y="1594.3882">API H&#7879; th&#7889;ng</text><text fill="#000000" font-family="Verdana" font-size="14" lengthAdjust="spacing" textLength="93" x="836" y="127.8125">C&#417; s&#7903; d&#7919; li&#7879;u</text><path d="M867.5,77.7373 C867.5,67.7373 885.5,67.7373 885.5,67.7373 C885.5,67.7373 903.5,67.7373 903.5,77.7373 L903.5,103.7373 C903.5,113.7373 885.5,113.7373 885.5,113.7373 C885.5,113.7373 867.5,113.7373 867.5,103.7373 L867.5,77.7373 " fill="#FFFFFF" style="stroke:#000000;stroke-width:1.5;"/><path d="M867.5,77.7373 C867.5,87.7373 885.5,87.7373 885.5,87.7373 C885.5,87.7373 903.5,87.7373 903.5,77.7373 " fill="none" style="stroke:#000000;stroke-width:1.5;"/><text fill="#000000" font-family="Verdana" font-size="14" lengthAdjust="spacing" textLength="93" x="836" y="1587.3882">C&#417; s&#7903; d&#7919; li&#7879;u</text><path d="M867.5,1600.3276 C867.5,1590.3276 885.5,1590.3276 885.5,1590.3276 C885.5,1590.3276 903.5,1590.3276 903.5,1600.3276 L903.5,1626.3276 C903.5,1636.3276 885.5,1636.3276 885.5,1636.3276 C885.5,1636.3276 867.5,1636.3276 867.5,1626.3276 L867.5,1600.3276 " fill="#FFFFFF" style="stroke:#000000;stroke-width:1.5;"/><path d="M867.5,1600.3276 C867.5,1610.3276 885.5,1610.3276 885.5,1610.3276 C885.5,1610.3276 903.5,1610.3276 903.5,1600.3276 " fill="none" style="stroke:#000000;stroke-width:1.5;"/><rect fill="#FFFFFF" height="1271.9658" style="stroke:#000000;stroke-width:1.0;" width="10" x="373.5" y="162.5513"/><rect fill="#FFFFFF" height="105.1973" style="stroke:#000000;stroke-width:1.0;" width="10" x="647.5" y="192.3506"/><rect fill="#FFFFFF" height="105.1973" style="stroke:#000000;stroke-width:1.0;" width="10" x="647.5" y="357.1465"/><rect fill="#FFFFFF" height="623.1836" style="stroke:#000000;stroke-width:1.0;" width="10" x="647.5" y="666.7383"/><rect fill="#FFFFFF" height="29.7993" style="stroke:#000000;stroke-width:1.0;" width="10" x="880.5" y="237.9492"/><rect fill="#FFFFFF" height="29.7993" style="stroke:#000000;stroke-width:1.0;" width="10" x="880.5" y="402.7451"/><rect fill="#FFFFFF" height="29.7993" style="stroke:#000000;stroke-width:1.0;" width="10" x="880.5" y="785.1362"/><rect fill="#FFFFFF" height="29.7993" style="stroke:#000000;stroke-width:1.0;" width="10" x="880.5" y="844.7349"/><rect fill="#FFFFFF" height="233.9932" style="stroke:#000000;stroke-width:1.0;" width="10" x="880.5" y="978.7314"/><polygon fill="#000000" points="361.5,158.5513,371.5,162.5513,361.5,166.5513,365.5,162.5513" style="stroke:#000000;stroke-width:1.0;"/><line style="stroke:#000000;stroke-width:1.0;" x1="120.5" x2="367.5" y1="162.5513" y2="162.5513"/><text fill="#000000" font-family="Verdana" font-size="13" lengthAdjust="spacing" textLength="140" x="177" y="157.8218">V&#224;o trang "Gi&#7843;i ng&#226;n"</text><polygon fill="#000000" points="635.5,188.3506,645.5,192.3506,635.5,196.3506,639.5,192.3506" style="stroke:#000000;stroke-width:1.0;"/><line style="stroke:#000000;stroke-width:1.0;" x1="383.5" x2="641.5" y1="192.3506" y2="192.3506"/><text fill="#000000" font-family="Verdana" font-size="13" lengthAdjust="spacing" textLength="218" x="406.5" y="187.6211">L&#7845;y danh s&#225;ch &#273;&#417;n ch&#7901; gi&#7843;i ng&#226;n</text><polygon fill="#000000" points="868.5,233.9492,878.5,237.9492,868.5,241.9492,872.5,237.9492" style="stroke:#000000;stroke-width:1.0;"/><line style="stroke:#000000;stroke-width:1.0;" x1="657.5" x2="874.5" y1="237.9492" y2="237.9492"/><text fill="#000000" font-family="Verdana" font-size="13" lengthAdjust="spacing" textLength="179" x="679.5" y="217.4204">Truy v&#7845;n &#273;&#417;n c&#243; tr&#7841;ng th&#225;i</text><text fill="#000000" font-family="Verdana" font-size="13" lengthAdjust="spacing" textLength="120" x="709" y="233.2197">"Ch&#7901; duy&#7879;t c&#7845;p 3"</text><polygon fill="#000000" points="668.5,263.7485,658.5,267.7485,668.5,271.7485,664.5,267.7485" style="stroke:#000000;stroke-width:1.0;"/><line style="stroke:#000000;stroke-width:1.0;stroke-dasharray:2.0,2.0;" x1="662.5" x2="884.5" y1="267.7485" y2="267.7485"/><text fill="#000000" font-family="Verdana" font-size="13" lengthAdjust="spacing" textLength="98" x="722.5" y="263.019">Danh s&#225;ch &#273;&#417;n</text><polygon fill="#000000" points="394.5,293.5479,384.5,297.5479,394.5,301.5479,390.5,297.5479" style="stroke:#000000;stroke-width:1.0;"/><line style="stroke:#000000;stroke-width:1.0;stroke-dasharray:2.0,2.0;" x1="388.5" x2="651.5" y1="297.5479" y2="297.5479"/><text fill="#000000" font-family="Verdana" font-size="13" lengthAdjust="spacing" textLength="123" x="456.5" y="292.8184">Hi&#7875;n th&#7883; danh s&#225;ch</text><polygon fill="#000000" points="361.5,323.3472,371.5,327.3472,361.5,331.3472,365.5,327.3472" style="stroke:#000000;stroke-width:1.0;"/><line style="stroke:#000000;stroke-width:1.0;" x1="120.5" x2="367.5" y1="327.3472" y2="327.3472"/><text fill="#000000" font-family="Verdana" font-size="13" lengthAdjust="spacing" textLength="181" x="156.5" y="322.6177">Click v&#224;o &#273;&#417;n c&#7847;n gi&#7843;i ng&#226;n</text><polygon fill="#000000" points="635.5,353.1465,645.5,357.1465,635.5,361.1465,639.5,357.1465" style="stroke:#000000;stroke-width:1.0;"/><line style="stroke:#000000;stroke-width:1.0;" x1="383.5" x2="641.5" y1="357.1465" y2="357.1465"/><text fill="#000000" font-family="Verdana" font-size="13" lengthAdjust="spacing" textLength="147" x="442" y="352.417">L&#7845;y chi ti&#7871;t &#273;&#417;n + qu&#7929;</text><polygon fill="#000000" points="868.5,398.7451,878.5,402.7451,868.5,406.7451,872.5,402.7451" style="stroke:#000000;stroke-width:1.0;"/><line style="stroke:#000000;stroke-width:1.0;" x1="657.5" x2="874.5" y1="402.7451" y2="402.7451"/><text fill="#000000" font-family="Verdana" font-size="13" lengthAdjust="spacing" textLength="153" x="692.5" y="382.2163">Truy v&#7845;n th&#244;ng tin &#273;&#417;n</text><text fill="#000000" font-family="Verdana" font-size="13" lengthAdjust="spacing" textLength="87" x="725.5" y="398.0156">v&#224; s&#7889; d&#432; qu&#7929;</text><polygon fill="#000000" points="668.5,428.5444,658.5,432.5444,668.5,436.5444,664.5,432.5444" style="stroke:#000000;stroke-width:1.0;"/><line style="stroke:#000000;stroke-width:1.0;stroke-dasharray:2.0,2.0;" x1="662.5" x2="884.5" y1="432.5444" y2="432.5444"/><text fill="#000000" font-family="Verdana" font-size="13" lengthAdjust="spacing" textLength="135" x="704" y="427.8149">Chi ti&#7871;t + S&#7889; d&#432; qu&#7929;</text><polygon fill="#000000" points="394.5,458.3438,384.5,462.3438,394.5,466.3438,390.5,462.3438" style="stroke:#000000;stroke-width:1.0;"/><line style="stroke:#000000;stroke-width:1.0;stroke-dasharray:2.0,2.0;" x1="388.5" x2="651.5" y1="462.3438" y2="462.3438"/><text fill="#000000" font-family="Verdana" font-size="13" lengthAdjust="spacing" textLength="115" x="460.5" y="457.6143">Hi&#7875;n th&#7883; th&#244;ng tin</text><line style="stroke:#000000;stroke-width:1.0;" x1="120.5" x2="162.5" y1="523.7417" y2="523.7417"/><line style="stroke:#000000;stroke-width:1.0;" x1="162.5" x2="162.5" y1="523.7417" y2="536.7417"/><line style="stroke:#000000;stroke-width:1.0;" x1="121.5" x2="162.5" y1="536.7417" y2="536.7417"/><polygon fill="#000000" points="131.5,532.7417,121.5,536.7417,131.5,540.7417,127.5,536.7417" style="stroke:#000000;stroke-width:1.0;"/><text fill="#000000" font-family="Verdana" font-size="13" lengthAdjust="spacing" textLength="60" x="202.5" y="487.4136">Ki&#7875;m tra:</text><text fill="#000000" font-family="Verdana" font-size="13" lengthAdjust="spacing" textLength="210" x="127.5" y="503.2129">- S&#7889; ti&#7873;n &#273;&#7873; ngh&#7883;: 10.000.000 &#273;</text><text fill="#000000" font-family="Verdana" font-size="13" lengthAdjust="spacing" textLength="170" x="147.5" y="519.0122">- S&#7889; d&#432; qu&#7929;: 5.000.000 &#273;</text><path d="M10,549.7417 L10,606.7417 L231,606.7417 L231,559.7417 L221,549.7417 L10,549.7417 " fill="#FFFFFF" style="stroke:#000000;stroke-width:1.0;"/><path d="M221,549.7417 L221,559.7417 L231,559.7417 L221,549.7417 " fill="#FFFFFF" style="stroke:#000000;stroke-width:1.0;"/><text fill="#000000" font-family="Verdana" font-size="13" font-weight="bold" lengthAdjust="spacing" textLength="200" x="16" y="567.8115">Tr&#432;&#7901;ng h&#7907;p: Qu&#7929; THI&#7870;U ti&#7873;n</text><text fill="#000000" font-family="Verdana" font-size="13" lengthAdjust="spacing" textLength="163" x="16" y="583.6108">S&#7889; d&#432; qu&#7929; &lt; S&#7889; ti&#7873;n &#273;&#417;n</text><text fill="#000000" font-family="Verdana" font-size="13" lengthAdjust="spacing" textLength="153" x="16" y="599.4102">C&#7847;n th&#234;m: 5.000.000 &#273;</text><polygon fill="#000000" points="361.5,629.939,371.5,633.939,361.5,637.939,365.5,633.939" style="stroke:#000000;stroke-width:1.0;"/><line style="stroke:#000000;stroke-width:1.0;" x1="120.5" x2="367.5" y1="633.939" y2="633.939"/><text fill="#000000" font-family="Verdana" font-size="13" lengthAdjust="spacing" textLength="110" x="192" y="629.2095">Nh&#7845;n "X&#225;c nh&#7853;n"</text><polygon fill="#000000" points="635.5,662.7383,645.5,666.7383,635.5,670.7383,639.5,666.7383" style="stroke:#000000;stroke-width:1.0;"/><line style="stroke:#000000;stroke-width:1.0;" x1="383.5" x2="641.5" y1="666.7383" y2="666.7383"/><text fill="#000000" font-family="Verdana" font-size="13" lengthAdjust="spacing" textLength="116" x="457.5" y="662.0088">G&#7917;i y&#234;u c&#7847;u x&#7917; l&#253;</text><path d="M662,646.939 L662,671.939 L916,671.939 L916,656.939 L906,646.939 L662,646.939 " fill="#FFFFFF" style="stroke:#000000;stroke-width:1.0;"/><path d="M906,646.939 L906,656.939 L916,656.939 L906,646.939 " fill="#FFFFFF" style="stroke:#000000;stroke-width:1.0;"/><text fill="#000000" font-family="Verdana" font-size="13" lengthAdjust="spacing" textLength="233" x="668" y="665.0088">POST /api/applications/:id/disburse</text><line style="stroke:#000000;stroke-width:1.0;" x1="657.5" x2="699.5" y1="699.5376" y2="699.5376"/><line style="stroke:#000000;stroke-width:1.0;" x1="699.5" x2="699.5" y1="699.5376" y2="712.5376"/><line style="stroke:#000000;stroke-width:1.0;" x1="658.5" x2="699.5" y1="712.5376" y2="712.5376"/><polygon fill="#000000" points="668.5,708.5376,658.5,712.5376,668.5,716.5376,664.5,712.5376" style="stroke:#000000;stroke-width:1.0;"/><text fill="#000000" font-family="Verdana" font-size="13" lengthAdjust="spacing" textLength="103" x="664.5" y="694.8081">X&#225;c th&#7921;c token</text><line style="stroke:#000000;stroke-width:1.0;" x1="657.5" x2="699.5" y1="742.3369" y2="742.3369"/><line style="stroke:#000000;stroke-width:1.0;" x1="699.5" x2="699.5" y1="742.3369" y2="755.3369"/><line style="stroke:#000000;stroke-width:1.0;" x1="658.5" x2="699.5" y1="755.3369" y2="755.3369"/><polygon fill="#000000" points="668.5,751.3369,658.5,755.3369,668.5,759.3369,664.5,755.3369" style="stroke:#000000;stroke-width:1.0;"/><text fill="#000000" font-family="Verdana" font-size="13" lengthAdjust="spacing" textLength="209" x="664.5" y="737.6074">Ki&#7875;m tra quy&#7873;n K&#7871; to&#225;n (role 2)</text><polygon fill="#000000" points="868.5,781.1362,878.5,785.1362,868.5,789.1362,872.5,785.1362" style="stroke:#000000;stroke-width:1.0;"/><line style="stroke:#000000;stroke-width:1.0;" x1="657.5" x2="874.5" y1="785.1362" y2="785.1362"/><text fill="#000000" font-family="Verdana" font-size="13" lengthAdjust="spacing" textLength="187" x="675.5" y="780.4067">Ki&#7875;m tra c&#7845;p 1 + 2 &#273;&#227; duy&#7879;t</text><polygon fill="#000000" points="668.5,810.9355,658.5,814.9355,668.5,818.9355,664.5,814.9355" style="stroke:#000000;stroke-width:1.0;"/><line style="stroke:#000000;stroke-width:1.0;stroke-dasharray:2.0,2.0;" x1="662.5" x2="884.5" y1="814.9355" y2="814.9355"/><text fill="#000000" font-family="Verdana" font-size="13" lengthAdjust="spacing" textLength="109" x="717" y="810.2061">K&#7871;t qu&#7843; ki&#7875;m tra</text><polygon fill="#000000" points="868.5,840.7349,878.5,844.7349,868.5,848.7349,872.5,844.7349" style="stroke:#000000;stroke-width:1.0;"/><line style="stroke:#000000;stroke-width:1.0;" x1="657.5" x2="874.5" y1="844.7349" y2="844.7349"/><text fill="#000000" font-family="Verdana" font-size="13" lengthAdjust="spacing" textLength="148" x="695" y="840.0054">L&#7845;y s&#7889; d&#432; qu&#7929; hi&#7879;n t&#7841;i</text><polygon fill="#000000" points="668.5,870.5342,658.5,874.5342,668.5,878.5342,664.5,874.5342" style="stroke:#000000;stroke-width:1.0;"/><line style="stroke:#000000;stroke-width:1.0;stroke-dasharray:2.0,2.0;" x1="662.5" x2="884.5" y1="874.5342" y2="874.5342"/><text fill="#000000" font-family="Verdana" font-size="13" lengthAdjust="spacing" textLength="68" x="737.5" y="869.8047">S&#7889; d&#432; qu&#7929;</text><line style="stroke:#000000;stroke-width:1.0;" x1="657.5" x2="699.5" y1="935.9321" y2="935.9321"/><line style="stroke:#000000;stroke-width:1.0;" x1="699.5" x2="699.5" y1="935.9321" y2="948.9321"/><line style="stroke:#000000;stroke-width:1.0;" x1="658.5" x2="699.5" y1="948.9321" y2="948.9321"/><polygon fill="#000000" points="668.5,944.9321,658.5,948.9321,668.5,952.9321,664.5,948.9321" style="stroke:#000000;stroke-width:1.0;"/><text fill="#000000" font-family="Verdana" font-size="13" lengthAdjust="spacing" textLength="69" x="711.5" y="899.604">T&#237;nh to&#225;n:</text><text fill="#000000" font-family="Verdana" font-size="13" lengthAdjust="spacing" textLength="163" x="664.5" y="915.4033">S&#7889; d&#432; qu&#7929; &lt; S&#7889; ti&#7873;n &#273;&#417;n</text><text fill="#000000" font-family="Verdana" font-size="13" lengthAdjust="spacing" textLength="84" x="704" y="931.2026">&#8594; Thi&#7871;u ti&#7873;n</text><polygon fill="#000000" points="868.5,974.7314,878.5,978.7314,868.5,982.7314,872.5,978.7314" style="stroke:#000000;stroke-width:1.0;"/><line style="stroke:#000000;stroke-width:1.0;" x1="657.5" x2="874.5" y1="978.7314" y2="978.7314"/><text fill="#000000" font-family="Verdana" font-size="13" font-weight="bold" lengthAdjust="spacing" textLength="125" x="706.5" y="974.002">B&#7855;t &#273;&#7847;u giao d&#7883;ch</text><polygon fill="#000000" points="868.5,1051.9287,878.5,1055.9287,868.5,1059.9287,872.5,1055.9287" style="stroke:#000000;stroke-width:1.0;"/><line style="stroke:#000000;stroke-width:1.0;" x1="657.5" x2="874.5" y1="1055.9287" y2="1055.9287"/><text fill="#000000" font-family="Verdana" font-size="13" lengthAdjust="spacing" textLength="174" x="682" y="1003.8013">C&#7853;p nh&#7853;t ph&#234; duy&#7879;t c&#7845;p 3</text><text fill="#000000" font-family="Verdana" font-size="13" lengthAdjust="spacing" textLength="113" x="712.5" y="1019.6006">- K&#7871;t qu&#7843;: Duy&#7879;t</text><text fill="#000000" font-family="Verdana" font-size="13" lengthAdjust="spacing" textLength="92" x="723" y="1035.3999">- Ng&#432;&#7901;i duy&#7879;t</text><text fill="#000000" font-family="Verdana" font-size="13" lengthAdjust="spacing" textLength="187" x="675.5" y="1051.1992">- Ghi ch&#250;: "Ch&#7901; qu&#7929; c&#243; ti&#7873;n"</text><polygon fill="#000000" points="668.5,1081.728,658.5,1085.728,668.5,1089.728,664.5,1085.728" style="stroke:#000000;stroke-width:1.0;"/><line style="stroke:#000000;stroke-width:1.0;stroke-dasharray:2.0,2.0;" x1="662.5" x2="879.5" y1="1085.728" y2="1085.728"/><text fill="#000000" font-family="Verdana" font-size="13" lengthAdjust="spacing" textLength="81" x="728.5" y="1080.9985">&#272;&#227; c&#7853;p nh&#7853;t</text><polygon fill="#000000" points="868.5,1138.2263,878.5,1142.2263,868.5,1146.2263,872.5,1142.2263" style="stroke:#000000;stroke-width:1.0;"/><line style="stroke:#000000;stroke-width:1.0;" x1="657.5" x2="874.5" y1="1142.2263" y2="1142.2263"/><text fill="#000000" font-family="Verdana" font-size="13" lengthAdjust="spacing" textLength="119" x="709.5" y="1121.6975">&#272;&#7893;i tr&#7841;ng th&#225;i &#273;&#417;n</text><text fill="#000000" font-family="Verdana" font-size="13" lengthAdjust="spacing" textLength="142" x="698" y="1137.4968">th&#224;nh "Ch&#7901; gi&#7843;i ng&#226;n"</text><path d="M895,1098.728 L895,1155.728 L1106,1155.728 L1106,1108.728 L1096,1098.728 L895,1098.728 " fill="#FFFFFF" style="stroke:#000000;stroke-width:1.0;"/><path d="M1096,1098.728 L1096,1108.728 L1106,1108.728 L1096,1098.728 " fill="#FFFFFF" style="stroke:#000000;stroke-width:1.0;"/><text fill="#000000" font-family="Verdana" font-size="13" lengthAdjust="spacing" textLength="190" x="901" y="1116.7979">&#272;&#417;n &#273;&#227; &#273;&#432;&#7907;c duy&#7879;t &#273;&#7911; 3 c&#7845;p</text><text fill="#000000" font-family="Verdana" font-size="13" lengthAdjust="spacing" textLength="181" x="901" y="1132.5972">nh&#432;ng ch&#432;a gi&#7843;i ng&#226;n &#273;&#432;&#7907;c</text><text fill="#000000" font-family="Verdana" font-size="13" lengthAdjust="spacing" textLength="113" x="901" y="1148.3965">do qu&#7929; thi&#7871;u ti&#7873;n</text><polygon fill="#000000" points="668.5,1178.9253,658.5,1182.9253,668.5,1186.9253,664.5,1182.9253" style="stroke:#000000;stroke-width:1.0;"/><line style="stroke:#000000;stroke-width:1.0;stroke-dasharray:2.0,2.0;" x1="662.5" x2="879.5" y1="1182.9253" y2="1182.9253"/><text fill="#000000" font-family="Verdana" font-size="13" lengthAdjust="spacing" textLength="81" x="728.5" y="1178.1958">&#272;&#227; c&#7853;p nh&#7853;t</text><polygon fill="#000000" points="873.5,1208.7246,883.5,1212.7246,873.5,1216.7246,877.5,1212.7246" style="stroke:#000000;stroke-width:1.0;"/><line style="stroke:#000000;stroke-width:1.0;" x1="657.5" x2="879.5" y1="1212.7246" y2="1212.7246"/><text fill="#000000" font-family="Verdana" font-size="13" font-weight="bold" lengthAdjust="spacing" textLength="136" x="703.5" y="1207.9951">X&#225;c nh&#7853;n giao d&#7883;ch</text><polygon fill="#000000" points="394.5,1285.9219,384.5,1289.9219,394.5,1293.9219,390.5,1289.9219" style="stroke:#000000;stroke-width:1.0;"/><line style="stroke:#000000;stroke-width:1.0;stroke-dasharray:2.0,2.0;" x1="388.5" x2="651.5" y1="1289.9219" y2="1289.9219"/><text fill="#000000" font-family="Verdana" font-size="13" lengthAdjust="spacing" textLength="76" x="480" y="1237.7944">Th&#244;ng b&#225;o:</text><text fill="#000000" font-family="Verdana" font-size="13" lengthAdjust="spacing" textLength="240" x="398" y="1253.5938">- &#272;&#417;n &#273;&#227; duy&#7879;t nh&#432;ng ch&#7901; gi&#7843;i ng&#226;n</text><text fill="#000000" font-family="Verdana" font-size="13" lengthAdjust="spacing" textLength="166" x="435" y="1269.3931">- Qu&#7929; thi&#7871;u: 5.000.000 &#273;</text><text fill="#000000" font-family="Verdana" font-size="13" lengthAdjust="spacing" textLength="121" x="457.5" y="1285.1924">- C&#7847;n th&#234;m t&#224;i tr&#7907;</text><polygon fill="#000000" points="131.5,1347.3198,121.5,1351.3198,131.5,1355.3198,127.5,1351.3198" style="stroke:#000000;stroke-width:1.0;"/><line style="stroke:#000000;stroke-width:1.0;stroke-dasharray:2.0,2.0;" x1="125.5" x2="372.5" y1="1351.3198" y2="1351.3198"/><text fill="#000000" font-family="Verdana" font-size="13" lengthAdjust="spacing" textLength="116" x="189" y="1314.9917">Hi&#7875;n th&#7883; c&#7843;nh b&#225;o</text><text fill="#000000" font-family="Verdana" font-size="13" lengthAdjust="spacing" textLength="99" x="197.5" y="1330.791">"Qu&#7929; thi&#7871;u ti&#7873;n</text><text fill="#000000" font-family="Verdana" font-size="13" lengthAdjust="spacing" textLength="166" x="164" y="1346.5903">C&#7847;n k&#234;u g&#7885;i th&#234;m t&#224;i tr&#7907;"</text><line style="stroke:#000000;stroke-width:1.0;" x1="120.5" x2="162.5" y1="1433.5171" y2="1433.5171"/><line style="stroke:#000000;stroke-width:1.0;" x1="162.5" x2="162.5" y1="1433.5171" y2="1446.5171"/><line style="stroke:#000000;stroke-width:1.0;" x1="115.5" x2="162.5" y1="1446.5171" y2="1446.5171"/><polygon fill="#000000" points="125.5,1442.5171,115.5,1446.5171,125.5,1450.5171,121.5,1446.5171" style="stroke:#000000;stroke-width:1.0;"/><text fill="#000000" font-family="Verdana" font-size="13" lengthAdjust="spacing" textLength="43" x="228" y="1381.3896">L&#432;u &#253;:</text><text fill="#000000" font-family="Verdana" font-size="13" lengthAdjust="spacing" textLength="244" x="127.5" y="1397.189">- &#431;u ti&#234;n k&#234;u g&#7885;i t&#224;i tr&#7907; cho qu&#7929; n&#224;y</text><text fill="#000000" font-family="Verdana" font-size="13" lengthAdjust="spacing" textLength="167" x="166" y="1412.9883">- Gi&#7843;i ng&#226;n khi c&#243; &#273;&#7911; ti&#7873;n</text><text fill="#000000" font-family="Verdana" font-size="13" lengthAdjust="spacing" textLength="171" x="164" y="1428.7876">- Theo d&#245;i danh s&#225;ch ch&#7901;</text><path d="M83,1454.5171 L83,1558.5171 L923,1558.5171 L923,1464.5171 L913,1454.5171 L83,1454.5171 " fill="#FFFFFF" style="stroke:#000000;stroke-width:1.0;"/><path d="M913,1454.5171 L913,1464.5171 L923,1464.5171 L913,1454.5171 " fill="#FFFFFF" style="stroke:#000000;stroke-width:1.0;"/><text fill="#000000" font-family="Verdana" font-size="13" font-weight="bold" lengthAdjust="spacing" textLength="111" x="339" y="1472.5869">X&#7917; l&#253; ti&#7871;p theo:</text><text fill="#000000" font-family="Verdana" font-size="13" lengthAdjust="spacing" textLength="205" x="339" y="1488.3862">1. K&#7871; to&#225;n k&#234;u g&#7885;i th&#234;m t&#224;i tr&#7907;</text><text fill="#000000" font-family="Verdana" font-size="13" lengthAdjust="spacing" textLength="319" x="339" y="1504.1855">2. Khi nh&#224; t&#224;i tr&#7907; chuy&#7875;n ti&#7873;n v&#224; &#273;&#432;&#7907;c x&#225;c nh&#7853;n</text><text fill="#000000" font-family="Verdana" font-size="13" lengthAdjust="spacing" textLength="145" x="354" y="1519.9849">&#8594; S&#7889; d&#432; qu&#7929; t&#259;ng l&#234;n</text><text fill="#000000" font-family="Verdana" font-size="13" lengthAdjust="spacing" textLength="247" x="339" y="1535.7842">3. K&#7871; to&#225;n quay l&#7841;i gi&#7843;i ng&#226;n cho &#273;&#417;n</text><text fill="#000000" font-family="Verdana" font-size="13" lengthAdjust="spacing" textLength="219" x="354" y="1551.5835">&#273;ang &#7903; tr&#7841;ng th&#225;i "Ch&#7901; gi&#7843;i ng&#226;n"</text><rect fill="none" height="163.1318" id="_legend" rx="7.5" ry="7.5" style="stroke:#000000;stroke-width:1.0;" width="328" x="777.5" y="1657.3276"/><text fill="#000000" font-family="Verdana" font-size="14" font-weight="bold" lengthAdjust="spacing" textLength="43" x="782.5" y="1676.4028">M&#244; t&#7843;</text><text fill="#000000" font-family="Verdana" font-size="14" lengthAdjust="spacing" textLength="206" x="825.5" y="1676.4028">: X&#7917; l&#253; &#273;&#417;n khi qu&#7929; thi&#7871;u ti&#7873;n</text><text fill="#000000" font-family="Verdana" font-size="14" font-weight="bold" lengthAdjust="spacing" textLength="29" x="782.5" y="1693.4175">API</text><text fill="#000000" font-family="Verdana" font-size="14" lengthAdjust="spacing" textLength="258" x="811.5" y="1693.4175">: POST /api/applications/:id/disburse</text><text fill="#000000" font-family="Verdana" font-size="14" font-weight="bold" lengthAdjust="spacing" textLength="84" x="782.5" y="1710.4321">Quy&#7873;n h&#7841;n</text><text fill="#000000" font-family="Verdana" font-size="14" lengthAdjust="spacing" textLength="234" x="866.5" y="1710.4321">: K&#7871; to&#225;n (role 2), Admin (role 1)</text><text fill="#000000" font-family="Verdana" font-size="14" font-weight="bold" lengthAdjust="spacing" textLength="71" x="782.5" y="1727.4468">&#272;i&#7873;u ki&#7879;n</text><text fill="#000000" font-family="Verdana" font-size="14" lengthAdjust="spacing" textLength="188" x="853.5" y="1727.4468">: S&#7889; d&#432; qu&#7929; &lt; S&#7889; ti&#7873;n &#273;&#417;n</text><text fill="#000000" font-family="Verdana" font-size="14" font-weight="bold" lengthAdjust="spacing" textLength="60" x="782.5" y="1744.4614">K&#7871;t qu&#7843;</text><text fill="#000000" font-family="Verdana" font-size="14" lengthAdjust="spacing" textLength="6" x="842.5" y="1744.4614">:</text><text fill="#000000" font-family="Verdana" font-size="14" lengthAdjust="spacing" textLength="153" x="792.5" y="1761.4761">- KH&#212;NG tr&#7915; ti&#7873;n qu&#7929;</text><text fill="#000000" font-family="Verdana" font-size="14" lengthAdjust="spacing" textLength="159" x="792.5" y="1778.4907">- KH&#212;NG t&#7841;o giao d&#7883;ch</text><text fill="#000000" font-family="Verdana" font-size="14" lengthAdjust="spacing" textLength="203" x="792.5" y="1795.5054">- Tr&#7841;ng th&#225;i: "Ch&#7901; gi&#7843;i ng&#226;n"</text><text fill="#000000" font-family="Verdana" font-size="14" font-weight="bold" lengthAdjust="spacing" textLength="72" x="782.5" y="1812.52">Gi&#7843;i ph&#225;p</text><text fill="#000000" font-family="Verdana" font-size="14" lengthAdjust="spacing" textLength="153" x="854.5" y="1812.52">: K&#234;u g&#7885;i th&#234;m t&#224;i tr&#7907;</text><!--SRC=[bLPDRzj64BtpLqpLIyp4yHTo8Oe2jepAXX8rXfcY1rzeaY0NafSqFzperZP0VGWAs4LxQr4hGX70hM4NJO5MH9e31VqFzfTqPlcXfIoxZW515dTdvysRDs_vGUJQ1pRuFODn9UmoxXk1SG3xXjbr0Y_cLjFhUG5y-8duatQ4zc5iSzD-OeUXuTZhFUPmC6qUsO6YH2pgsQ2gkvlBZ_OrQ6vboO_Gsiv6hxQXqqg_xi2zdMTPyXVeM_ZmdsUWRsV9bvq5LLKKmummOQETZTv1vAK3tW0ZXBQkODw8cSmtU0GDFKX_uovOSJzBZYEnPIFmlWWnUstV-jDjmEp74BbPSieTiHCVAfOH6Vj6Q4EZEHb0c2K_WvKbbz1Zk3iMspOt5AMjm-B7vT4QV9QUUH051dUWqMBPQCY0E-ahtY3OxCY8x0g6Kln3yPXGWyVPw9S-M0R23jE1wSBuT390pX3OJ-18XqtF8g1K0HwnkQ617iHzEC9ZU1cR_e5eij40yKHkEc1xlD4KvnN4W8cxVLYJy65LcnkmMABQdC6ZMBQyLMIN6TX2VbvmGUTBgHWvZ53F4jViCRCBHqHV0JqRlURrikSJPheC8jpsBYeYxyDXd2L_tuKbvEGDKSCAmlOu8g1cdu8rkPezPuQPvZJnVTYjnxmFILCGDv3KrZLeKyG1IKlRuujvEaoUV4N8yGifeiCqM5b-kBmiFhXGRQsGQV18MbSKxc4kxmXPnGbILJsONA4y40wUDlGrsA6WQWppZ3Y5zKFXenb0f9EcQ20MTtumazJc5b3UQoBekA8hZSzHCS3nnmKEphMsjxBaWa4_FO-5I69uZW-WbxwjTrnK5Z37ZJHu-kck3ak6p_3ZezACY7ayNDAOjMInS3yEGWHJI4Ja40YeFR_ZbzUrUMrrsWoilozgdjeHt0iyDBVL1KKMdHIIZzmAYcOLsKY7vIpUABIsq1WoFHf2jpfdHcDoidmmwZ86bumB6u9km6vCTQkCQnpewGNEjgWO5Vd_UjZZ_txp7UWk3KnShDH0g-f6Dhga8HPDTPZXaUE-D5tKsqsLeiWk_5mg4VYejLbZemcG-4C_ozVfUSSHOcTb33rhuL2RRZhIe33Al21Xf09peyRN-0JxPqeWQkZ69rdo0wixSCa6_ZX30eiiJkskc4fN6P-GfGcPO2327PfLYJJuhs4jBrNXxkGAavZuPTJEgm8LoolAYUfjg0RoxgMfgZIaCysQfnfvpFNSyFRJWIVCJAgnBAqgPfOSshyZrr3t5bgMZ0UYz4pmdmolUMjbAuN3rZmPwnvYTmWYNfaxSqZRutcUBlcGaoNVicif6xA1FvvSnP2-5GLFBkcKzBmUNSLXsMMZU7hM5xAK-zabZQ8Wy_wNS1QHLnkxaFx9v9S8GQ4YLr-zWCZU_u1QXKqjh3I_s7mioVOqREdAGzdXRgbPMSMTY8-ZlEibKMU9tzmJw9wj1FryAYK50CWePWmb6hz0EVIGCcMj1kKmDlhG8q-hQvuepEyXF71yIYzaz0fN7yMvmpUzdNgsGp_oGLJL9-aRSi-XgkBzKFAKlt9GH-PEbggYrYZWBZUGgkuKjubBA2biphNo0DQj0rR-Nbd0iF49POl5vN0iukvmFwkgv8iKWqoXLswbttTQecc_bllpkq1UHNYUFFHYKPUvrUQJgwg5aj6h1xwey1Oj8Vjv3vJ_0000]--></g></svg>