<?xml version="1.0" encoding="us-ascii" standalone="no"?><svg xmlns="http://www.w3.org/2000/svg" xmlns:xlink="http://www.w3.org/1999/xlink" contentStyleType="text/css" height="1284px" preserveAspectRatio="none" style="width:1349px;height:1284px;background:#FFFFFF;" version="1.1" viewBox="0 0 1349 1284" width="1349px" zoomAndPan="magnify"><defs/><g><text fill="#000000" font-family="Verdana" font-size="22" font-weight="bold" lengthAdjust="spacing" textLength="256" x="545.25" y="37.1182">AD09: QU&#7842;N L&#221; QU&#7928;</text><rect fill="#FFFFFF" height="21.876" style="stroke:#FFFFFF;stroke-width:1.0;" width="1326.5" x="10" y="55.0166"/><rect fill="#E1BEE7" height="1150.5454" style="stroke:#E1BEE7;stroke-width:1.0;" width="647" x="10" y="55.0166"/><ellipse cx="357.25" cy="91.8926" fill="#FFFFFF" rx="10" ry="10" style="stroke:#000000;stroke-width:1.0;"/><rect fill="#FFFFFF" height="33.3687" rx="12.5" ry="12.5" style="stroke:#000000;stroke-width:1.0;" width="125" x="294.75" y="121.8926"/><text fill="#000000" font-family="Verdana" font-size="11" lengthAdjust="spacing" textLength="105" x="304.75" y="142.9517">V&#224;o "Qu&#7843;n l&#253; qu&#7929;"</text><rect fill="#FFFFFF" height="33.3687" rx="12.5" ry="12.5" style="stroke:#000000;stroke-width:1.0;" width="100" x="307.25" y="348.8418"/><text fill="#000000" font-family="Verdana" font-size="11" lengthAdjust="spacing" textLength="80" x="317.25" y="369.9009">Ch&#7885;n thao t&#225;c</text><polygon fill="#FFFFFF" points="51,402.2104,106,402.2104,118,414.2104,106,426.2104,51,426.2104,39,414.2104,51,402.2104" style="stroke:#000000;stroke-width:1.0;"/><text fill="#000000" font-family="Verdana" font-size="11" lengthAdjust="spacing" textLength="71" x="82.5" y="437.2695">T&#7841;o qu&#7929; m&#7899;i</text><text fill="#000000" font-family="Verdana" font-size="11" lengthAdjust="spacing" textLength="55" x="51" y="418.5852">Thao t&#225;c?</text><rect fill="#FFFFFF" height="100.2119" rx="12.5" ry="12.5" style="stroke:#000000;stroke-width:1.0;" width="125" x="16" y="458.7695"/><text fill="#000000" font-family="Verdana" font-size="11" lengthAdjust="spacing" textLength="105" x="26" y="479.8286">&#272;i&#7873;n th&#244;ng tin qu&#7929;</text><text fill="#000000" font-family="Verdana" font-size="11" lengthAdjust="spacing" textLength="55" x="26" y="493.1973">- T&#234;n qu&#7929;</text><text fill="#000000" font-family="Verdana" font-size="11" lengthAdjust="spacing" textLength="40" x="26" y="506.5659">- M&#244; t&#7843;</text><text fill="#000000" font-family="Verdana" font-size="11" lengthAdjust="spacing" textLength="101" x="26" y="519.9346">- &#272;i&#7873;u ki&#7879;n h&#7895; tr&#7907;</text><text fill="#000000" font-family="Verdana" font-size="11" lengthAdjust="spacing" textLength="94" x="26" y="533.3032">- Gi&#7899;i h&#7841;n h&#7895; tr&#7907;</text><text fill="#000000" font-family="Verdana" font-size="11" lengthAdjust="spacing" textLength="59" x="26" y="546.6719">- H&#236;nh &#7843;nh</text><rect fill="#FFFFFF" height="33.3687" rx="12.5" ry="12.5" style="stroke:#000000;stroke-width:1.0;" width="109" x="24" y="593.9814"/><text fill="#000000" font-family="Verdana" font-size="11" lengthAdjust="spacing" textLength="89" x="34" y="615.0405">Nh&#7845;n "T&#7841;o qu&#7929;"</text><rect fill="#FFFFFF" height="46.7373" rx="12.5" ry="12.5" style="stroke:#000000;stroke-width:1.0;" width="108" x="24.5" y="949.1934"/><text fill="#000000" font-family="Verdana" font-size="11" lengthAdjust="spacing" textLength="82" x="34.5" y="970.2524">Th&#244;ng b&#225;o t&#7841;o</text><text fill="#000000" font-family="Verdana" font-size="11" lengthAdjust="spacing" textLength="88" x="34.5" y="983.6211">qu&#7929; th&#224;nh c&#244;ng</text><polygon fill="#FFFFFF" points="202.5,402.2104,257.5,402.2104,269.5,414.2104,257.5,426.2104,202.5,426.2104,190.5,414.2104,202.5,402.2104" style="stroke:#000000;stroke-width:1.0;"/><text fill="#000000" font-family="Verdana" font-size="11" lengthAdjust="spacing" textLength="76" x="234" y="437.2695">S&#7917;a th&#244;ng tin</text><text fill="#000000" font-family="Verdana" font-size="11" lengthAdjust="spacing" textLength="55" x="202.5" y="418.5852">Thao t&#225;c?</text><rect fill="#FFFFFF" height="33.3687" rx="12.5" ry="12.5" style="stroke:#000000;stroke-width:1.0;" width="98" x="181" y="458.7695"/><text fill="#000000" font-family="Verdana" font-size="11" lengthAdjust="spacing" textLength="78" x="191" y="479.8286">Click v&#224;o qu&#7929;</text><rect fill="#FFFFFF" height="46.7373" rx="12.5" ry="12.5" style="stroke:#000000;stroke-width:1.0;" width="131" x="164.5" y="527.1382"/><text fill="#000000" font-family="Verdana" font-size="11" lengthAdjust="spacing" textLength="111" x="174.5" y="548.1973">Ch&#7881;nh s&#7917;a th&#244;ng tin</text><text fill="#000000" font-family="Verdana" font-size="11" lengthAdjust="spacing" textLength="105" x="174.5" y="561.5659">(Kh&#244;ng s&#7917;a s&#7889; d&#432;)</text><rect fill="#FFFFFF" height="33.3687" rx="12.5" ry="12.5" style="stroke:#000000;stroke-width:1.0;" width="83" x="188.5" y="608.8755"/><text fill="#000000" font-family="Verdana" font-size="11" lengthAdjust="spacing" textLength="63" x="198.5" y="629.9346">Nh&#7845;n "L&#432;u"</text><rect fill="#FFFFFF" height="46.7373" rx="12.5" ry="12.5" style="stroke:#000000;stroke-width:1.0;" width="133" x="163.5" y="745.6128"/><text fill="#000000" font-family="Verdana" font-size="11" lengthAdjust="spacing" textLength="113" x="173.5" y="766.6719">Th&#244;ng b&#225;o c&#7853;p nh&#7853;t</text><text fill="#000000" font-family="Verdana" font-size="11" lengthAdjust="spacing" textLength="63" x="173.5" y="780.0405">th&#224;nh c&#244;ng</text><polygon fill="#FFFFFF" points="385,402.2104,440,402.2104,452,414.2104,440,426.2104,385,426.2104,373,414.2104,385,402.2104" style="stroke:#000000;stroke-width:1.0;"/><text fill="#000000" font-family="Verdana" font-size="11" lengthAdjust="spacing" textLength="78" x="416.5" y="437.2695">&#272;&#7893;i tr&#7841;ng th&#225;i</text><text fill="#000000" font-family="Verdana" font-size="11" lengthAdjust="spacing" textLength="55" x="385" y="418.5852">Thao t&#225;c?</text><text fill="#000000" font-family="Verdana" font-size="11" lengthAdjust="spacing" textLength="68" x="452" y="411.9009">Xem chi ti&#7871;t</text><rect fill="#FFFFFF" height="33.3687" rx="12.5" ry="12.5" style="stroke:#000000;stroke-width:1.0;" width="98" x="363.5" y="458.7695"/><text fill="#000000" font-family="Verdana" font-size="11" lengthAdjust="spacing" textLength="78" x="373.5" y="479.8286">Click v&#224;o qu&#7929;</text><rect fill="#FFFFFF" height="73.4746" rx="12.5" ry="12.5" style="stroke:#000000;stroke-width:1.0;" width="134" x="345.5" y="527.1382"/><text fill="#000000" font-family="Verdana" font-size="11" lengthAdjust="spacing" textLength="114" x="355.5" y="548.1973">Ch&#7885;n tr&#7841;ng th&#225;i m&#7899;i</text><text fill="#000000" font-family="Verdana" font-size="11" lengthAdjust="spacing" textLength="100" x="355.5" y="561.5659">- &#272;ang ho&#7841;t &#273;&#7897;ng</text><text fill="#000000" font-family="Verdana" font-size="11" lengthAdjust="spacing" textLength="66" x="355.5" y="574.9346">- T&#7841;m d&#7915;ng</text><text fill="#000000" font-family="Verdana" font-size="11" lengthAdjust="spacing" textLength="57" x="355.5" y="588.3032">- &#272;&#227; &#273;&#243;ng</text><rect fill="#FFFFFF" height="33.3687" rx="12.5" ry="12.5" style="stroke:#000000;stroke-width:1.0;" width="136" x="344.5" y="766.0344"/><text fill="#000000" font-family="Verdana" font-size="11" lengthAdjust="spacing" textLength="116" x="354.5" y="787.0935">X&#225;c nh&#7853;n &#273;&#243;ng qu&#7929;?</text><polygon fill="#FFFFFF" points="383,834.4031,442,834.4031,454,846.4031,442,858.4031,383,858.4031,371,846.4031,383,834.4031" style="stroke:#000000;stroke-width:1.0;"/><text fill="#000000" font-family="Verdana" font-size="11" lengthAdjust="spacing" textLength="59" x="383" y="850.7778">X&#225;c nh&#7853;n?</text><text fill="#000000" font-family="Verdana" font-size="11" lengthAdjust="spacing" textLength="36" x="454" y="844.0935">Kh&#244;ng</text><ellipse cx="512" cy="846.4031" fill="none" rx="11" ry="11" style="stroke:#000000;stroke-width:1.0;"/><ellipse cx="512" cy="846.4031" fill="#FFFFFF" rx="6" ry="6" style="stroke:#000000;stroke-width:1.0;"/><polygon fill="#FFFFFF" points="363.5,635.6128,461.5,635.6128,473.5,647.6128,461.5,659.6128,363.5,659.6128,351.5,647.6128,363.5,635.6128" style="stroke:#000000;stroke-width:1.0;"/><text fill="#000000" font-family="Verdana" font-size="11" lengthAdjust="spacing" textLength="16" x="416.5" y="670.6719">C&#243;</text><text fill="#000000" font-family="Verdana" font-size="11" lengthAdjust="spacing" textLength="98" x="363.5" y="651.9875">Ch&#7885;n "&#272;&#227; &#273;&#243;ng"?</text><polygon fill="#FFFFFF" points="412.5,931.0874,424.5,943.0874,412.5,955.0874,400.5,943.0874,412.5,931.0874" style="stroke:#000000;stroke-width:1.0;"/><rect fill="#FFFFFF" height="46.7373" rx="12.5" ry="12.5" style="stroke:#000000;stroke-width:1.0;" width="148" x="338.5" y="1043.4561"/><text fill="#000000" font-family="Verdana" font-size="11" lengthAdjust="spacing" textLength="128" x="348.5" y="1064.5151">Th&#244;ng b&#225;o &#273;&#227; thay &#273;&#7893;i</text><text fill="#000000" font-family="Verdana" font-size="11" lengthAdjust="spacing" textLength="55" x="348.5" y="1077.8838">tr&#7841;ng th&#225;i</text><rect fill="#FFFFFF" height="33.3687" rx="12.5" ry="12.5" style="stroke:#000000;stroke-width:1.0;" width="98" x="544" y="653.1382"/><text fill="#000000" font-family="Verdana" font-size="11" lengthAdjust="spacing" textLength="78" x="554" y="674.1973">Click v&#224;o qu&#7929;</text><rect fill="#FFFFFF" height="33.3687" rx="12.5" ry="12.5" style="stroke:#000000;stroke-width:1.0;" width="120" x="533" y="870.0874"/><text fill="#000000" font-family="Verdana" font-size="11" lengthAdjust="spacing" textLength="100" x="543" y="891.1465">Xem v&#224; ph&#226;n t&#237;ch</text><rect fill="#FFFFFF" height="33.3687" rx="12.5" ry="12.5" style="stroke:#000000;stroke-width:1.0;" width="129" x="292.75" y="1130.1934"/><text fill="#000000" font-family="Verdana" font-size="11" lengthAdjust="spacing" textLength="109" x="302.75" y="1151.2524">Quay l&#7841;i danh s&#225;ch</text><ellipse cx="357.25" cy="1194.562" fill="none" rx="11" ry="11" style="stroke:#000000;stroke-width:1.0;"/><ellipse cx="357.25" cy="1194.562" fill="#FFFFFF" rx="6" ry="6" style="stroke:#000000;stroke-width:1.0;"/><line style="stroke:#000000;stroke-width:1.0;" x1="10" x2="10" y1="55.0166" y2="1205.562"/><rect fill="#F5F5F5" height="1150.5454" style="stroke:#F5F5F5;stroke-width:1.0;" width="665.5" x="657" y="55.0166"/><rect fill="#FFFFFF" height="33.3687" rx="12.5" ry="12.5" style="stroke:#000000;stroke-width:1.0;" width="127" x="961.25" y="175.2612"/><text fill="#000000" font-family="Verdana" font-size="11" lengthAdjust="spacing" textLength="107" x="971.25" y="196.3203">L&#7845;y danh s&#225;ch qu&#7929;</text><rect fill="#FFFFFF" height="100.2119" rx="12.5" ry="12.5" style="stroke:#000000;stroke-width:1.0;" width="117" x="966.25" y="228.6299"/><text fill="#000000" font-family="Verdana" font-size="11" lengthAdjust="spacing" textLength="97" x="976.25" y="249.689">Hi&#7875;n th&#7883; th&#244;ng tin</text><text fill="#000000" font-family="Verdana" font-size="11" lengthAdjust="spacing" textLength="55" x="976.25" y="263.0576">- T&#234;n qu&#7929;</text><text fill="#000000" font-family="Verdana" font-size="11" lengthAdjust="spacing" textLength="42" x="976.25" y="276.4263">- S&#7889; d&#432;</text><text fill="#000000" font-family="Verdana" font-size="11" lengthAdjust="spacing" textLength="67" x="976.25" y="289.7949">- Tr&#7841;ng th&#225;i</text><text fill="#000000" font-family="Verdana" font-size="11" lengthAdjust="spacing" textLength="87" x="976.25" y="303.1636">- S&#7889; nh&#224; t&#224;i tr&#7907;</text><text fill="#000000" font-family="Verdana" font-size="11" lengthAdjust="spacing" textLength="92" x="976.25" y="316.5322">- S&#7889; &#273;&#417;n &#273;&#227; n&#7897;p</text><rect fill="#FFFFFF" height="33.3687" rx="12.5" ry="12.5" style="stroke:#000000;stroke-width:1.0;" width="123" x="676" y="662.3501"/><text fill="#000000" font-family="Verdana" font-size="11" lengthAdjust="spacing" textLength="103" x="686" y="683.4092">Ki&#7875;m tra th&#244;ng tin</text><rect fill="#FFFFFF" height="33.3687" rx="12.5" ry="12.5" style="stroke:#000000;stroke-width:1.0;" width="90" x="692.5" y="730.7188"/><text fill="#000000" font-family="Verdana" font-size="11" lengthAdjust="spacing" textLength="70" x="702.5" y="751.7778">L&#432;u qu&#7929; m&#7899;i</text><rect fill="#FFFFFF" height="33.3687" rx="12.5" ry="12.5" style="stroke:#000000;stroke-width:1.0;" width="149" x="663" y="799.0874"/><text fill="#000000" font-family="Verdana" font-size="11" lengthAdjust="spacing" textLength="129" x="673" y="820.1465">&#272;&#7863;t s&#7889; d&#432; ban &#273;&#7847;u = 0</text><rect fill="#FFFFFF" height="46.7373" rx="12.5" ry="12.5" style="stroke:#000000;stroke-width:1.0;" width="121" x="677" y="867.4561"/><text fill="#000000" font-family="Verdana" font-size="11" lengthAdjust="spacing" textLength="79" x="687" y="888.5151">&#272;&#7863;t tr&#7841;ng th&#225;i</text><text fill="#000000" font-family="Verdana" font-size="11" lengthAdjust="spacing" textLength="101" x="687" y="901.8838">"&#272;ang ho&#7841;t &#273;&#7897;ng"</text><rect fill="#FFFFFF" height="33.3687" rx="12.5" ry="12.5" style="stroke:#000000;stroke-width:1.0;" width="151" x="822" y="677.2441"/><text fill="#000000" font-family="Verdana" font-size="11" lengthAdjust="spacing" textLength="131" x="832" y="698.3032">C&#7853;p nh&#7853;t th&#244;ng tin qu&#7929;</text><rect fill="#FFFFFF" height="46.7373" rx="12.5" ry="12.5" style="stroke:#000000;stroke-width:1.0;" width="153" x="1003.5" y="684.2971"/><text fill="#000000" font-family="Verdana" font-size="11" lengthAdjust="spacing" textLength="99" x="1013.5" y="705.3562">Hi&#7875;n th&#7883; c&#7843;nh b&#225;o</text><text fill="#000000" font-family="Verdana" font-size="11" lengthAdjust="spacing" textLength="133" x="1013.5" y="718.7249">KH&#212;NG TH&#7874; HO&#192;N T&#193;C</text><rect fill="#FFFFFF" height="33.3687" rx="12.5" ry="12.5" style="stroke:#000000;stroke-width:1.0;" width="131" x="1014.5" y="990.0874"/><text fill="#000000" font-family="Verdana" font-size="11" lengthAdjust="spacing" textLength="111" x="1024.5" y="1011.1465">C&#7853;p nh&#7853;t tr&#7841;ng th&#225;i</text><rect fill="#FFFFFF" height="113.5806" rx="12.5" ry="12.5" style="stroke:#000000;stroke-width:1.0;" width="152" x="1166.5" y="721.5068"/><text fill="#000000" font-family="Verdana" font-size="11" lengthAdjust="spacing" textLength="85" x="1176.5" y="742.5659">Hi&#7875;n th&#7883; chi ti&#7871;t</text><text fill="#000000" font-family="Verdana" font-size="11" lengthAdjust="spacing" textLength="87" x="1176.5" y="755.9346">- Th&#244;ng tin qu&#7929;</text><text fill="#000000" font-family="Verdana" font-size="11" lengthAdjust="spacing" textLength="85" x="1176.5" y="769.3032">- S&#7889; d&#432; th&#7921;c t&#7871;</text><text fill="#000000" font-family="Verdana" font-size="11" lengthAdjust="spacing" textLength="132" x="1176.5" y="782.6719">- Danh s&#225;ch nh&#224; t&#224;i tr&#7907;</text><text fill="#000000" font-family="Verdana" font-size="11" lengthAdjust="spacing" textLength="94" x="1176.5" y="796.0405">- Danh s&#225;ch &#273;&#417;n</text><text fill="#000000" font-family="Verdana" font-size="11" lengthAdjust="spacing" textLength="103" x="1176.5" y="809.4092">- L&#7883;ch s&#7917; giao d&#7883;ch</text><text fill="#000000" font-family="Verdana" font-size="11" lengthAdjust="spacing" textLength="106" x="1176.5" y="822.7778">- Bi&#7875;u &#273;&#7891; th&#7889;ng k&#234;</text><line style="stroke:#000000;stroke-width:1.0;" x1="657" x2="657" y1="55.0166" y2="1205.562"/><line style="stroke:#000000;stroke-width:1.0;" x1="1337.5" x2="1337.5" y1="55.0166" y2="1205.562"/><line style="stroke:#000000;stroke-width:1.0;" x1="357.25" x2="357.25" y1="101.8926" y2="121.8926"/><polygon fill="#000000" points="353.25,111.8926,357.25,121.8926,361.25,111.8926,357.25,115.8926" style="stroke:#000000;stroke-width:1.0;"/><line style="stroke:#000000;stroke-width:1.0;" x1="78.5" x2="78.5" y1="558.9814" y2="593.9814"/><polygon fill="#000000" points="74.5,583.9814,78.5,593.9814,82.5,583.9814,78.5,587.9814" style="stroke:#000000;stroke-width:1.0;"/><line style="stroke:#000000;stroke-width:1.0;" x1="230" x2="230" y1="492.1382" y2="527.1382"/><polygon fill="#000000" points="226,517.1382,230,527.1382,234,517.1382,230,521.1382" style="stroke:#000000;stroke-width:1.0;"/><line style="stroke:#000000;stroke-width:1.0;" x1="230" x2="230" y1="573.8755" y2="608.8755"/><polygon fill="#000000" points="226,598.8755,230,608.8755,234,598.8755,230,602.8755" style="stroke:#000000;stroke-width:1.0;"/><line style="stroke:#000000;stroke-width:1.0;" x1="412.5" x2="412.5" y1="492.1382" y2="527.1382"/><polygon fill="#000000" points="408.5,517.1382,412.5,527.1382,416.5,517.1382,412.5,521.1382" style="stroke:#000000;stroke-width:1.0;"/><line style="stroke:#000000;stroke-width:1.0;" x1="412.5" x2="412.5" y1="858.4031" y2="931.0874"/><polygon fill="#000000" points="408.5,921.0874,412.5,931.0874,416.5,921.0874,412.5,925.0874" style="stroke:#000000;stroke-width:1.0;"/><line style="stroke:#000000;stroke-width:1.0;" x1="454" x2="501" y1="846.4031" y2="846.4031"/><polygon fill="#000000" points="491,842.4031,501,846.4031,491,850.4031,495,846.4031" style="stroke:#000000;stroke-width:1.0;"/><line style="stroke:#000000;stroke-width:1.0;" x1="412.5" x2="412.5" y1="799.4031" y2="834.4031"/><polygon fill="#000000" points="408.5,824.4031,412.5,834.4031,416.5,824.4031,412.5,828.4031" style="stroke:#000000;stroke-width:1.0;"/><line style="stroke:#000000;stroke-width:1.0;" x1="351.5" x2="326" y1="647.6128" y2="647.6128"/><polygon fill="#000000" points="322,785.3501,326,795.3501,330,785.3501,326,789.3501" style="stroke:#000000;stroke-width:1.0;"/><line style="stroke:#000000;stroke-width:1.0;" x1="326" x2="326" y1="647.6128" y2="943.0874"/><line style="stroke:#000000;stroke-width:1.0;" x1="326" x2="400.5" y1="943.0874" y2="943.0874"/><polygon fill="#000000" points="390.5,939.0874,400.5,943.0874,390.5,947.0874,394.5,943.0874" style="stroke:#000000;stroke-width:1.0;"/><line style="stroke:#000000;stroke-width:1.0;" x1="412.5" x2="412.5" y1="600.6128" y2="635.6128"/><polygon fill="#000000" points="408.5,625.6128,412.5,635.6128,416.5,625.6128,412.5,629.6128" style="stroke:#000000;stroke-width:1.0;"/><line style="stroke:#000000;stroke-width:1.0;" x1="78.5" x2="78.5" y1="426.2104" y2="458.7695"/><polygon fill="#000000" points="74.5,448.7695,78.5,458.7695,82.5,448.7695,78.5,452.7695" style="stroke:#000000;stroke-width:1.0;"/><line style="stroke:#000000;stroke-width:1.0;" x1="78.5" x2="78.5" y1="995.9307" y2="1110.1934"/><polygon fill="#000000" points="74.5,1100.1934,78.5,1110.1934,82.5,1100.1934,78.5,1104.1934" style="stroke:#000000;stroke-width:1.0;"/><line style="stroke:#000000;stroke-width:1.0;" x1="230" x2="230" y1="426.2104" y2="458.7695"/><polygon fill="#000000" points="226,448.7695,230,458.7695,234,448.7695,230,452.7695" style="stroke:#000000;stroke-width:1.0;"/><line style="stroke:#000000;stroke-width:1.0;" x1="230" x2="230" y1="792.3501" y2="1110.1934"/><polygon fill="#000000" points="226,1100.1934,230,1110.1934,234,1100.1934,230,1104.1934" style="stroke:#000000;stroke-width:1.0;"/><line style="stroke:#000000;stroke-width:1.0;" x1="412.5" x2="412.5" y1="426.2104" y2="458.7695"/><polygon fill="#000000" points="408.5,448.7695,412.5,458.7695,416.5,448.7695,412.5,452.7695" style="stroke:#000000;stroke-width:1.0;"/><line style="stroke:#000000;stroke-width:1.0;" x1="412.5" x2="412.5" y1="1090.1934" y2="1110.1934"/><polygon fill="#000000" points="408.5,1100.1934,412.5,1110.1934,416.5,1100.1934,412.5,1104.1934" style="stroke:#000000;stroke-width:1.0;"/><line style="stroke:#000000;stroke-width:1.0;" x1="118" x2="190.5" y1="414.2104" y2="414.2104"/><polygon fill="#000000" points="180.5,410.2104,190.5,414.2104,180.5,418.2104,184.5,414.2104" style="stroke:#000000;stroke-width:1.0;"/><line style="stroke:#000000;stroke-width:1.0;" x1="269.5" x2="373" y1="414.2104" y2="414.2104"/><polygon fill="#000000" points="363,410.2104,373,414.2104,363,418.2104,367,414.2104" style="stroke:#000000;stroke-width:1.0;"/><line style="stroke:#000000;stroke-width:1.0;" x1="357.25" x2="357.25" y1="382.2104" y2="387.2104"/><line style="stroke:#000000;stroke-width:1.0;" x1="357.25" x2="78.5" y1="387.2104" y2="387.2104"/><line style="stroke:#000000;stroke-width:1.0;" x1="78.5" x2="78.5" y1="387.2104" y2="402.2104"/><polygon fill="#000000" points="74.5,392.2104,78.5,402.2104,82.5,392.2104,78.5,396.2104" style="stroke:#000000;stroke-width:1.0;"/><line style="stroke:#000000;stroke-width:1.0;" x1="452" x2="593" y1="414.2104" y2="414.2104"/><line style="stroke:#000000;stroke-width:1.0;" x1="593" x2="593" y1="414.2104" y2="653.1382"/><polygon fill="#000000" points="589,643.1382,593,653.1382,597,643.1382,593,647.1382" style="stroke:#000000;stroke-width:1.0;"/><line style="stroke:#000000;stroke-width:1.0;" x1="593" x2="593" y1="903.4561" y2="1110.1934"/><polygon fill="#000000" points="589,1100.1934,593,1110.1934,597,1100.1934,593,1104.1934" style="stroke:#000000;stroke-width:1.0;"/><line style="stroke:#000000;stroke-width:1.0;" x1="78.5" x2="593" y1="1110.1934" y2="1110.1934"/><line style="stroke:#000000;stroke-width:1.0;" x1="357.25" x2="357.25" y1="1110.1934" y2="1130.1934"/><polygon fill="#000000" points="353.25,1120.1934,357.25,1130.1934,361.25,1120.1934,357.25,1124.1934" style="stroke:#000000;stroke-width:1.0;"/><line style="stroke:#000000;stroke-width:1.0;" x1="357.25" x2="357.25" y1="1163.562" y2="1183.562"/><polygon fill="#000000" points="353.25,1173.562,357.25,1183.562,361.25,1173.562,357.25,1177.562" style="stroke:#000000;stroke-width:1.0;"/><line style="stroke:#000000;stroke-width:1.0;" x1="1024.75" x2="1024.75" y1="208.6299" y2="228.6299"/><polygon fill="#000000" points="1020.75,218.6299,1024.75,228.6299,1028.75,218.6299,1024.75,222.6299" style="stroke:#000000;stroke-width:1.0;"/><line style="stroke:#000000;stroke-width:1.0;" x1="737.5" x2="737.5" y1="695.7188" y2="730.7188"/><polygon fill="#000000" points="733.5,720.7188,737.5,730.7188,741.5,720.7188,737.5,724.7188" style="stroke:#000000;stroke-width:1.0;"/><line style="stroke:#000000;stroke-width:1.0;" x1="737.5" x2="737.5" y1="764.0874" y2="799.0874"/><polygon fill="#000000" points="733.5,789.0874,737.5,799.0874,741.5,789.0874,737.5,793.0874" style="stroke:#000000;stroke-width:1.0;"/><line style="stroke:#000000;stroke-width:1.0;" x1="737.5" x2="737.5" y1="832.4561" y2="867.4561"/><polygon fill="#000000" points="733.5,857.4561,737.5,867.4561,741.5,857.4561,737.5,861.4561" style="stroke:#000000;stroke-width:1.0;"/><line style="stroke:#000000;stroke-width:1.0;" x1="357.25" x2="357.25" y1="155.2612" y2="160.2612"/><line style="stroke:#000000;stroke-width:1.0;" x1="357.25" x2="1024.75" y1="160.2612" y2="160.2612"/><line style="stroke:#000000;stroke-width:1.0;" x1="1024.75" x2="1024.75" y1="160.2612" y2="175.2612"/><polygon fill="#000000" points="1020.75,165.2612,1024.75,175.2612,1028.75,165.2612,1024.75,169.2612" style="stroke:#000000;stroke-width:1.0;"/><line style="stroke:#000000;stroke-width:1.0;" x1="1024.75" x2="1024.75" y1="328.8418" y2="333.8418"/><line style="stroke:#000000;stroke-width:1.0;" x1="1024.75" x2="357.25" y1="333.8418" y2="333.8418"/><line style="stroke:#000000;stroke-width:1.0;" x1="357.25" x2="357.25" y1="333.8418" y2="348.8418"/><polygon fill="#000000" points="353.25,338.8418,357.25,348.8418,361.25,338.8418,357.25,342.8418" style="stroke:#000000;stroke-width:1.0;"/><line style="stroke:#000000;stroke-width:1.0;" x1="78.5" x2="78.5" y1="627.3501" y2="644.8501"/><line style="stroke:#000000;stroke-width:1.0;" x1="78.5" x2="737.5" y1="644.8501" y2="644.8501"/><line style="stroke:#000000;stroke-width:1.0;" x1="737.5" x2="737.5" y1="644.8501" y2="662.3501"/><polygon fill="#000000" points="733.5,652.3501,737.5,662.3501,741.5,652.3501,737.5,656.3501" style="stroke:#000000;stroke-width:1.0;"/><line style="stroke:#000000;stroke-width:1.0;" x1="737.5" x2="737.5" y1="914.1934" y2="931.6934"/><line style="stroke:#000000;stroke-width:1.0;" x1="737.5" x2="78.5" y1="931.6934" y2="931.6934"/><line style="stroke:#000000;stroke-width:1.0;" x1="78.5" x2="78.5" y1="931.6934" y2="949.1934"/><polygon fill="#000000" points="74.5,939.1934,78.5,949.1934,82.5,939.1934,78.5,943.1934" style="stroke:#000000;stroke-width:1.0;"/><line style="stroke:#000000;stroke-width:1.0;" x1="230" x2="230" y1="642.2441" y2="659.7441"/><line style="stroke:#000000;stroke-width:1.0;" x1="230" x2="897.5" y1="659.7441" y2="659.7441"/><line style="stroke:#000000;stroke-width:1.0;" x1="897.5" x2="897.5" y1="659.7441" y2="677.2441"/><polygon fill="#000000" points="893.5,667.2441,897.5,677.2441,901.5,667.2441,897.5,671.2441" style="stroke:#000000;stroke-width:1.0;"/><line style="stroke:#000000;stroke-width:1.0;" x1="897.5" x2="897.5" y1="710.6128" y2="728.1128"/><line style="stroke:#000000;stroke-width:1.0;" x1="897.5" x2="230" y1="728.1128" y2="728.1128"/><line style="stroke:#000000;stroke-width:1.0;" x1="230" x2="230" y1="728.1128" y2="745.6128"/><polygon fill="#000000" points="226,735.6128,230,745.6128,234,735.6128,230,739.6128" style="stroke:#000000;stroke-width:1.0;"/><line style="stroke:#000000;stroke-width:1.0;" x1="1080" x2="1080" y1="731.0344" y2="748.5344"/><line style="stroke:#000000;stroke-width:1.0;" x1="1080" x2="412.5" y1="748.5344" y2="748.5344"/><line style="stroke:#000000;stroke-width:1.0;" x1="412.5" x2="412.5" y1="748.5344" y2="766.0344"/><polygon fill="#000000" points="408.5,756.0344,412.5,766.0344,416.5,756.0344,412.5,760.0344" style="stroke:#000000;stroke-width:1.0;"/><line style="stroke:#000000;stroke-width:1.0;" x1="412.5" x2="412.5" y1="659.6128" y2="671.955"/><line style="stroke:#000000;stroke-width:1.0;" x1="412.5" x2="1080" y1="671.955" y2="671.955"/><line style="stroke:#000000;stroke-width:1.0;" x1="1080" x2="1080" y1="671.955" y2="684.2971"/><polygon fill="#000000" points="1076,674.2971,1080,684.2971,1084,674.2971,1080,678.2971" style="stroke:#000000;stroke-width:1.0;"/><line style="stroke:#000000;stroke-width:1.0;" x1="412.5" x2="412.5" y1="955.0874" y2="972.5874"/><line style="stroke:#000000;stroke-width:1.0;" x1="412.5" x2="1080" y1="972.5874" y2="972.5874"/><line style="stroke:#000000;stroke-width:1.0;" x1="1080" x2="1080" y1="972.5874" y2="990.0874"/><polygon fill="#000000" points="1076,980.0874,1080,990.0874,1084,980.0874,1080,984.0874" style="stroke:#000000;stroke-width:1.0;"/><line style="stroke:#000000;stroke-width:1.0;" x1="1080" x2="1080" y1="1023.4561" y2="1028.4561"/><line style="stroke:#000000;stroke-width:1.0;" x1="1080" x2="412.5" y1="1028.4561" y2="1028.4561"/><line style="stroke:#000000;stroke-width:1.0;" x1="412.5" x2="412.5" y1="1028.4561" y2="1043.4561"/><polygon fill="#000000" points="408.5,1033.4561,412.5,1043.4561,416.5,1033.4561,412.5,1037.4561" style="stroke:#000000;stroke-width:1.0;"/><line style="stroke:#000000;stroke-width:1.0;" x1="593" x2="593" y1="686.5068" y2="704.0068"/><line style="stroke:#000000;stroke-width:1.0;" x1="593" x2="1242.5" y1="704.0068" y2="704.0068"/><line style="stroke:#000000;stroke-width:1.0;" x1="1242.5" x2="1242.5" y1="704.0068" y2="721.5068"/><polygon fill="#000000" points="1238.5,711.5068,1242.5,721.5068,1246.5,711.5068,1242.5,715.5068" style="stroke:#000000;stroke-width:1.0;"/><line style="stroke:#000000;stroke-width:1.0;" x1="1242.5" x2="1242.5" y1="835.0874" y2="852.5874"/><line style="stroke:#000000;stroke-width:1.0;" x1="1242.5" x2="593" y1="852.5874" y2="852.5874"/><line style="stroke:#000000;stroke-width:1.0;" x1="593" x2="593" y1="852.5874" y2="870.0874"/><polygon fill="#000000" points="589,860.0874,593,870.0874,597,860.0874,593,864.0874" style="stroke:#000000;stroke-width:1.0;"/><text fill="#000000" font-family="Verdana" font-size="18" lengthAdjust="spacing" textLength="105" x="281" y="73.1133">C&#225;n b&#7897; Qu&#7929;</text><text fill="#000000" font-family="Verdana" font-size="18" lengthAdjust="spacing" textLength="82" x="948.75" y="73.1133">H&#7879; th&#7889;ng</text><rect fill="none" height="61.0439" id="_legend" rx="7.5" ry="7.5" style="stroke:#000000;stroke-width:1.0;" width="327" x="1009.5" y="1210.562"/><text fill="#000000" font-family="Verdana" font-size="14" font-weight="bold" lengthAdjust="spacing" textLength="56" x="1014.5" y="1229.6372">Quy&#7873;n:</text><text fill="#000000" font-family="Verdana" font-size="14" lengthAdjust="spacing" textLength="251" x="1075.5" y="1229.6372">C&#225;n b&#7897; Qu&#7929; (role 3), Admin (role 1)</text><text fill="#000000" font-family="Verdana" font-size="14" font-weight="bold" lengthAdjust="spacing" textLength="35" x="1014.5" y="1246.6519">API:</text><text fill="#000000" font-family="Verdana" font-size="14" lengthAdjust="spacing" textLength="148" x="1054.5" y="1246.6519">POST/PUT /api/funds</text><text fill="#000000" font-family="Verdana" font-size="14" font-weight="bold" lengthAdjust="spacing" textLength="86" x="1014.5" y="1263.6665">Tr&#7841;ng th&#225;i:</text><text fill="#000000" font-family="Verdana" font-size="14" lengthAdjust="spacing" textLength="226" x="1105.5" y="1263.6665">Ho&#7841;t &#273;&#7897;ng, T&#7841;m d&#7915;ng, &#272;&#227; &#273;&#243;ng</text><!--SRC=[bLPRInj157xVNt4QNqomg2rIcb14uoL5wmLZszTrisQ7R6RJP6AnvA6s3r9AGMcbI2aOHGgsWaMXRPRYmmJ_n_wJdZEpqTrORLN9Pivjl_ETotXBE7RPXefhCcxKIenNpAfPXYNJAXMhNfqNifxhLQ5dGlr4B4nBi1KcLYSyBXRO2ni61oFQsdDMTarkFs45uS2TeG7344ouDgHI8sC3zzCmlnYqTcTWMdwch_xFLCem6ZtZWwFZu_SQMTdai1Jusp1V3_nV3QCcpAemqe_bZWS9bBNsEBZoDpmZTI93hXD3zDl81Vuw22VmDtcnOQIdWzR-AXHCxa1DDYr7UsICT8u5_ckkBD_YfppXHH18mMt8omEkpV2mW86WS7P4ychGQfAL8vkie-AEt04XTnY8Qk3lTSJjpJFCeBqfzu1Z6fNCTScbimZY7M4nFOpLjD2QBKDlldCUJgBEvYX119x61kN0_yII1a2wlO6vhF585Y5yW5WsT7maJq0WVUgW7UjGmiSw1qJnCKo3j9ECte1IpBfRbvFVa54gWvCX23DejSyX4G6O80N-NL4PT9gY4fGngXc1hi9DdntLesbcT9f1wuU0MbWHR55YE6XzgSC368YQY5Yb01Bj3HEFZeTYGJx-DYzUuBkgBXWmht4jISnAK6uerBWmzWvIO95UHRBTclttgc5774PJL4NBkimgmGerTDYI94Hstb2hTdcWhdTAdxIgGq8onZxHzc_Qiq7hi8ADYmzngMTkIeeL2OQw6x22jVAtMBnMrpD38nArrhqHTlBb0klsHqaP2e7_DHIqDt0cSJ2FGu0012yCduXe4-T8i_AOW5t3AGACxHDBJOPYI6cdSlB3p2JaqUyLv6RboncSoxLiHYd3q5SJZj6V8dEQPHx2qzmCHq9G7X6xS_YwSNG603NXLTHNcnVOid7nl47FH8jmquPHEn4ttQegqnQLxt8ywXfCnYw3vM2BiA1rAgxiZMk1nyjo7aptnj_sPMVXAvVl5atzgLACNTmXtKk_IwsMln9EurijFSvGP3W11ILGkb52LbSilEz0Xf8y-1z2YHaa0IgEtCNavA65QrWNqaZFrv5S5obbaNilOwZ26wvTH3keig8ZZ5HglhvALqSwbOAkzq1lrSFh-cwo3qOAPQH8dmUJw3Kozv0yvcONylrpYtdeDokiVnd_LwYXCdPDabakDfLziP7iYyuZPQ3n6Ny0]--></g></svg>