<?xml version="1.0" encoding="us-ascii" standalone="no"?><svg xmlns="http://www.w3.org/2000/svg" xmlns:xlink="http://www.w3.org/1999/xlink" contentStyleType="text/css" height="1244px" preserveAspectRatio="none" style="width:1340px;height:1244px;background:#FFFFFF;" version="1.1" viewBox="0 0 1340 1244" width="1340px" zoomAndPan="magnify"><defs/><g><text fill="#000000" font-family="Verdana" font-size="22" font-weight="bold" lengthAdjust="spacing" textLength="435" x="451" y="37.1182">AD02: &#272;&#258;NG NH&#7852;P &amp; PH&#194;N LU&#7890;NG</text><rect fill="#FFFFFF" height="21.876" style="stroke:#FFFFFF;stroke-width:1.0;" width="1321" x="6" y="55.0166"/><rect fill="#E3F2FD" height="1110.4047" style="stroke:#E3F2FD;stroke-width:1.0;" width="226" x="23" y="55.0166"/><ellipse cx="109" cy="91.8926" fill="#FFFFFF" rx="10" ry="10" style="stroke:#000000;stroke-width:1.0;"/><rect fill="#FFFFFF" height="33.3687" rx="12.5" ry="12.5" style="stroke:#000000;stroke-width:1.0;" width="160" x="29" y="121.8926"/><text fill="#000000" font-family="Verdana" font-size="11" lengthAdjust="spacing" textLength="140" x="39" y="142.9517">Nh&#7853;p email v&#224; m&#7853;t kh&#7849;u</text><rect fill="#FFFFFF" height="33.3687" rx="12.5" ry="12.5" style="stroke:#000000;stroke-width:1.0;" width="76" x="71" y="913.3418"/><text fill="#000000" font-family="Verdana" font-size="11" lengthAdjust="spacing" textLength="56" x="81" y="934.4009">L&#432;u token</text><line style="stroke:#000000;stroke-width:1.0;" x1="23" x2="23" y1="55.0166" y2="1165.4213"/><rect fill="#F5F5F5" height="1110.4047" style="stroke:#F5F5F5;stroke-width:1.0;" width="1109" x="204" y="55.0166"/><rect fill="#FFFFFF" height="33.3687" rx="12.5" ry="12.5" style="stroke:#000000;stroke-width:1.0;" width="134" x="687.5" y="175.2612"/><text fill="#000000" font-family="Verdana" font-size="11" lengthAdjust="spacing" textLength="114" x="697.5" y="196.3203">T&#236;m user theo email</text><rect fill="#FFFFFF" height="33.3687" rx="12.5" ry="12.5" style="stroke:#000000;stroke-width:1.0;" width="155" x="677" y="277.3142"/><text fill="#000000" font-family="Verdana" font-size="11" lengthAdjust="spacing" textLength="135" x="687" y="298.3733">L&#7895;i: Email kh&#244;ng t&#7891;n t&#7841;i</text><ellipse cx="754.5" cy="350.4985" fill="none" rx="11" ry="11" style="stroke:#000000;stroke-width:1.0;"/><ellipse cx="754.5" cy="350.4985" fill="#FFFFFF" rx="6" ry="6" style="stroke:#000000;stroke-width:1.0;"/><polygon fill="#FFFFFF" points="716,228.6299,793,228.6299,805,240.6299,793,252.6299,716,252.6299,704,240.6299,716,228.6299" style="stroke:#000000;stroke-width:1.0;"/><text fill="#000000" font-family="Verdana" font-size="11" lengthAdjust="spacing" textLength="36" x="758.5" y="263.689">Kh&#244;ng</text><text fill="#000000" font-family="Verdana" font-size="11" lengthAdjust="spacing" textLength="77" x="716" y="245.0046">Email t&#7891;n t&#7841;i?</text><rect fill="#FFFFFF" height="33.3687" rx="12.5" ry="12.5" style="stroke:#000000;stroke-width:1.0;" width="174" x="667.5" y="403.4985"/><text fill="#000000" font-family="Verdana" font-size="11" lengthAdjust="spacing" textLength="154" x="677.5" y="424.5576">So s&#225;nh m&#7853;t kh&#7849;u (bcrypt)</text><rect fill="#FFFFFF" height="33.3687" rx="12.5" ry="12.5" style="stroke:#000000;stroke-width:1.0;" width="117" x="696" y="505.5515"/><text fill="#000000" font-family="Verdana" font-size="11" lengthAdjust="spacing" textLength="97" x="706" y="526.6106">L&#7895;i: M&#7853;t kh&#7849;u sai</text><ellipse cx="754.5" cy="578.7358" fill="none" rx="11" ry="11" style="stroke:#000000;stroke-width:1.0;"/><ellipse cx="754.5" cy="578.7358" fill="#FFFFFF" rx="6" ry="6" style="stroke:#000000;stroke-width:1.0;"/><polygon fill="#FFFFFF" points="709.5,456.8672,799.5,456.8672,811.5,468.8672,799.5,480.8672,709.5,480.8672,697.5,468.8672,709.5,456.8672" style="stroke:#000000;stroke-width:1.0;"/><text fill="#000000" font-family="Verdana" font-size="11" lengthAdjust="spacing" textLength="36" x="758.5" y="491.9263">Kh&#244;ng</text><text fill="#000000" font-family="Verdana" font-size="11" lengthAdjust="spacing" textLength="90" x="709.5" y="473.2419">M&#7853;t kh&#7849;u &#273;&#250;ng?</text><rect fill="#FFFFFF" height="33.3687" rx="12.5" ry="12.5" style="stroke:#000000;stroke-width:1.0;" width="165" x="672" y="680.4202"/><text fill="#000000" font-family="Verdana" font-size="11" lengthAdjust="spacing" textLength="145" x="682" y="701.4792">L&#7895;i: T&#224;i kho&#7843;n &#273;&#227; b&#7883; kh&#243;a</text><ellipse cx="754.5" cy="753.6045" fill="none" rx="11" ry="11" style="stroke:#000000;stroke-width:1.0;"/><ellipse cx="754.5" cy="753.6045" fill="#FFFFFF" rx="6" ry="6" style="stroke:#000000;stroke-width:1.0;"/><polygon fill="#FFFFFF" points="700.5,631.7358,808.5,631.7358,820.5,643.7358,808.5,655.7358,700.5,655.7358,688.5,643.7358,700.5,631.7358" style="stroke:#000000;stroke-width:1.0;"/><text fill="#000000" font-family="Verdana" font-size="11" lengthAdjust="spacing" textLength="16" x="758.5" y="666.7949">C&#243;</text><text fill="#000000" font-family="Verdana" font-size="11" lengthAdjust="spacing" textLength="108" x="700.5" y="648.1106">T&#224;i kho&#7843;n b&#7883; kh&#243;a?</text><rect fill="#FFFFFF" height="33.3687" rx="12.5" ry="12.5" style="stroke:#000000;stroke-width:1.0;" width="107" x="701" y="806.6045"/><text fill="#000000" font-family="Verdana" font-size="11" lengthAdjust="spacing" textLength="87" x="711" y="827.6636">T&#7841;o JWT Token</text><rect fill="#FFFFFF" height="33.3687" rx="12.5" ry="12.5" style="stroke:#000000;stroke-width:1.0;" width="135" x="687" y="859.9731"/><text fill="#000000" font-family="Verdana" font-size="11" lengthAdjust="spacing" textLength="115" x="697" y="881.0322">Tr&#7843; v&#7873; user + token</text><polygon fill="#FFFFFF" points="285,966.7104,330,966.7104,342,978.7104,330,990.7104,285,990.7104,273,978.7104,285,966.7104" style="stroke:#000000;stroke-width:1.0;"/><text fill="#000000" font-family="Verdana" font-size="11" lengthAdjust="spacing" textLength="48" x="311.5" y="1001.7695">1-Admin</text><text fill="#000000" font-family="Verdana" font-size="11" lengthAdjust="spacing" textLength="45" x="285" y="983.0852">role_id?</text><rect fill="#FFFFFF" height="33.3687" rx="12.5" ry="12.5" style="stroke:#000000;stroke-width:1.0;" width="195" x="210" y="1024.0791"/><text fill="#000000" font-family="Verdana" font-size="11" lengthAdjust="spacing" textLength="175" x="220" y="1045.1382">Chuy&#7875;n &#273;&#7871;n Admin Dashboard</text><polygon fill="#FFFFFF" points="494,966.7104,539,966.7104,551,978.7104,539,990.7104,494,990.7104,482,978.7104,494,966.7104" style="stroke:#000000;stroke-width:1.0;"/><text fill="#000000" font-family="Verdana" font-size="11" lengthAdjust="spacing" textLength="56" x="520.5" y="1001.7695">2-K&#7871; to&#225;n</text><text fill="#000000" font-family="Verdana" font-size="11" lengthAdjust="spacing" textLength="45" x="494" y="983.0852">role_id?</text><rect fill="#FFFFFF" height="33.3687" rx="12.5" ry="12.5" style="stroke:#000000;stroke-width:1.0;" width="203" x="415" y="1024.0791"/><text fill="#000000" font-family="Verdana" font-size="11" lengthAdjust="spacing" textLength="183" x="425" y="1045.1382">Chuy&#7875;n &#273;&#7871;n K&#7871; to&#225;n Dashboard</text><polygon fill="#FFFFFF" points="705.5,966.7104,750.5,966.7104,762.5,978.7104,750.5,990.7104,705.5,990.7104,693.5,978.7104,705.5,966.7104" style="stroke:#000000;stroke-width:1.0;"/><text fill="#000000" font-family="Verdana" font-size="11" lengthAdjust="spacing" textLength="53" x="732" y="1001.7695">3-C&#225;n b&#7897;</text><text fill="#000000" font-family="Verdana" font-size="11" lengthAdjust="spacing" textLength="45" x="705.5" y="983.0852">role_id?</text><text fill="#000000" font-family="Verdana" font-size="11" lengthAdjust="spacing" textLength="38" x="762.5" y="976.4009">4-User</text><rect fill="#FFFFFF" height="33.3687" rx="12.5" ry="12.5" style="stroke:#000000;stroke-width:1.0;" width="200" x="628" y="1024.0791"/><text fill="#000000" font-family="Verdana" font-size="11" lengthAdjust="spacing" textLength="180" x="638" y="1045.1382">Chuy&#7875;n &#273;&#7871;n C&#225;n b&#7897; Dashboard</text><polygon fill="#FFFFFF" points="1037.25,1006.0526,1126.25,1006.0526,1138.25,1018.0526,1126.25,1030.0526,1037.25,1030.0526,1025.25,1018.0526,1037.25,1006.0526" style="stroke:#000000;stroke-width:1.0;"/><text fill="#000000" font-family="Verdana" font-size="11" lengthAdjust="spacing" textLength="89" x="1037.25" y="1022.4274">loai_tai_khoan?</text><text fill="#000000" font-family="Verdana" font-size="11" lengthAdjust="spacing" textLength="64" x="961.25" y="1015.743">SINH_VIEN</text><text fill="#000000" font-family="Verdana" font-size="11" lengthAdjust="spacing" textLength="82" x="1138.25" y="1015.743">NHA_TAI_TRO</text><rect fill="#FFFFFF" height="33.3687" rx="12.5" ry="12.5" style="stroke:#000000;stroke-width:1.0;" width="212" x="858" y="1040.0526"/><text fill="#000000" font-family="Verdana" font-size="11" lengthAdjust="spacing" textLength="192" x="868" y="1061.1117">Chuy&#7875;n &#273;&#7871;n Sinh vi&#234;n Dashboard</text><rect fill="#FFFFFF" height="33.3687" rx="12.5" ry="12.5" style="stroke:#000000;stroke-width:1.0;" width="219" x="1090" y="1040.0526"/><text fill="#000000" font-family="Verdana" font-size="11" lengthAdjust="spacing" textLength="199" x="1100" y="1061.1117">Chuy&#7875;n &#273;&#7871;n Nh&#224; t&#224;i tr&#7907; Dashboard</text><polygon fill="#FFFFFF" points="1081.75,1079.4213,1093.75,1091.4213,1081.75,1103.4213,1069.75,1091.4213,1081.75,1079.4213" style="stroke:#000000;stroke-width:1.0;"/><ellipse cx="754.5" cy="1154.4213" fill="none" rx="11" ry="11" style="stroke:#000000;stroke-width:1.0;"/><ellipse cx="754.5" cy="1154.4213" fill="#FFFFFF" rx="6" ry="6" style="stroke:#000000;stroke-width:1.0;"/><line style="stroke:#000000;stroke-width:1.0;" x1="204" x2="204" y1="55.0166" y2="1165.4213"/><line style="stroke:#000000;stroke-width:1.0;" x1="1328" x2="1328" y1="55.0166" y2="1165.4213"/><line style="stroke:#000000;stroke-width:1.0;" x1="109" x2="109" y1="101.8926" y2="121.8926"/><polygon fill="#000000" points="105,111.8926,109,121.8926,113,111.8926,109,115.8926" style="stroke:#000000;stroke-width:1.0;"/><line style="stroke:#000000;stroke-width:1.0;" x1="754.5" x2="754.5" y1="310.6829" y2="339.4985"/><polygon fill="#000000" points="750.5,329.4985,754.5,339.4985,758.5,329.4985,754.5,333.4985" style="stroke:#000000;stroke-width:1.0;"/><line style="stroke:#000000;stroke-width:1.0;" x1="754.5" x2="754.5" y1="252.6299" y2="277.3142"/><polygon fill="#000000" points="750.5,267.3142,754.5,277.3142,758.5,267.3142,754.5,271.3142" style="stroke:#000000;stroke-width:1.0;"/><line style="stroke:#000000;stroke-width:1.0;" x1="805" x2="842" y1="240.6299" y2="240.6299"/><polygon fill="#000000" points="838,309.4985,842,319.4985,846,309.4985,842,313.4985" style="stroke:#000000;stroke-width:1.0;"/><line style="stroke:#000000;stroke-width:1.0;" x1="842" x2="842" y1="240.6299" y2="383.4985"/><line style="stroke:#000000;stroke-width:1.0;" x1="842" x2="754.5" y1="383.4985" y2="383.4985"/><line style="stroke:#000000;stroke-width:1.0;" x1="754.5" x2="754.5" y1="383.4985" y2="403.4985"/><polygon fill="#000000" points="750.5,393.4985,754.5,403.4985,758.5,393.4985,754.5,397.4985" style="stroke:#000000;stroke-width:1.0;"/><line style="stroke:#000000;stroke-width:1.0;" x1="754.5" x2="754.5" y1="208.6299" y2="228.6299"/><polygon fill="#000000" points="750.5,218.6299,754.5,228.6299,758.5,218.6299,754.5,222.6299" style="stroke:#000000;stroke-width:1.0;"/><line style="stroke:#000000;stroke-width:1.0;" x1="754.5" x2="754.5" y1="538.9202" y2="567.7358"/><polygon fill="#000000" points="750.5,557.7358,754.5,567.7358,758.5,557.7358,754.5,561.7358" style="stroke:#000000;stroke-width:1.0;"/><line style="stroke:#000000;stroke-width:1.0;" x1="754.5" x2="754.5" y1="480.8672" y2="505.5515"/><polygon fill="#000000" points="750.5,495.5515,754.5,505.5515,758.5,495.5515,754.5,499.5515" style="stroke:#000000;stroke-width:1.0;"/><line style="stroke:#000000;stroke-width:1.0;" x1="811.5" x2="823.5" y1="468.8672" y2="468.8672"/><polygon fill="#000000" points="819.5,537.7358,823.5,547.7358,827.5,537.7358,823.5,541.7358" style="stroke:#000000;stroke-width:1.0;"/><line style="stroke:#000000;stroke-width:1.0;" x1="823.5" x2="823.5" y1="468.8672" y2="611.7358"/><line style="stroke:#000000;stroke-width:1.0;" x1="823.5" x2="754.5" y1="611.7358" y2="611.7358"/><line style="stroke:#000000;stroke-width:1.0;" x1="754.5" x2="754.5" y1="611.7358" y2="631.7358"/><polygon fill="#000000" points="750.5,621.7358,754.5,631.7358,758.5,621.7358,754.5,625.7358" style="stroke:#000000;stroke-width:1.0;"/><line style="stroke:#000000;stroke-width:1.0;" x1="754.5" x2="754.5" y1="436.8672" y2="456.8672"/><polygon fill="#000000" points="750.5,446.8672,754.5,456.8672,758.5,446.8672,754.5,450.8672" style="stroke:#000000;stroke-width:1.0;"/><line style="stroke:#000000;stroke-width:1.0;" x1="754.5" x2="754.5" y1="713.7888" y2="742.6045"/><polygon fill="#000000" points="750.5,732.6045,754.5,742.6045,758.5,732.6045,754.5,736.6045" style="stroke:#000000;stroke-width:1.0;"/><line style="stroke:#000000;stroke-width:1.0;" x1="754.5" x2="754.5" y1="655.7358" y2="680.4202"/><polygon fill="#000000" points="750.5,670.4202,754.5,680.4202,758.5,670.4202,754.5,674.4202" style="stroke:#000000;stroke-width:1.0;"/><line style="stroke:#000000;stroke-width:1.0;" x1="820.5" x2="847" y1="643.7358" y2="643.7358"/><polygon fill="#000000" points="843,712.6045,847,722.6045,851,712.6045,847,716.6045" style="stroke:#000000;stroke-width:1.0;"/><line style="stroke:#000000;stroke-width:1.0;" x1="847" x2="847" y1="643.7358" y2="786.6045"/><line style="stroke:#000000;stroke-width:1.0;" x1="847" x2="754.5" y1="786.6045" y2="786.6045"/><line style="stroke:#000000;stroke-width:1.0;" x1="754.5" x2="754.5" y1="786.6045" y2="806.6045"/><polygon fill="#000000" points="750.5,796.6045,754.5,806.6045,758.5,796.6045,754.5,800.6045" style="stroke:#000000;stroke-width:1.0;"/><line style="stroke:#000000;stroke-width:1.0;" x1="754.5" x2="754.5" y1="839.9731" y2="859.9731"/><polygon fill="#000000" points="750.5,849.9731,754.5,859.9731,758.5,849.9731,754.5,853.9731" style="stroke:#000000;stroke-width:1.0;"/><line style="stroke:#000000;stroke-width:1.0;" x1="1025.25" x2="964" y1="1018.0526" y2="1018.0526"/><line style="stroke:#000000;stroke-width:1.0;" x1="964" x2="964" y1="1018.0526" y2="1040.0526"/><polygon fill="#000000" points="960,1030.0526,964,1040.0526,968,1030.0526,964,1034.0526" style="stroke:#000000;stroke-width:1.0;"/><line style="stroke:#000000;stroke-width:1.0;" x1="1138.25" x2="1199.5" y1="1018.0526" y2="1018.0526"/><line style="stroke:#000000;stroke-width:1.0;" x1="1199.5" x2="1199.5" y1="1018.0526" y2="1040.0526"/><polygon fill="#000000" points="1195.5,1030.0526,1199.5,1040.0526,1203.5,1030.0526,1199.5,1034.0526" style="stroke:#000000;stroke-width:1.0;"/><line style="stroke:#000000;stroke-width:1.0;" x1="964" x2="964" y1="1073.4213" y2="1091.4213"/><line style="stroke:#000000;stroke-width:1.0;" x1="964" x2="1069.75" y1="1091.4213" y2="1091.4213"/><polygon fill="#000000" points="1059.75,1087.4213,1069.75,1091.4213,1059.75,1095.4213,1063.75,1091.4213" style="stroke:#000000;stroke-width:1.0;"/><line style="stroke:#000000;stroke-width:1.0;" x1="1199.5" x2="1199.5" y1="1073.4213" y2="1091.4213"/><line style="stroke:#000000;stroke-width:1.0;" x1="1199.5" x2="1093.75" y1="1091.4213" y2="1091.4213"/><polygon fill="#000000" points="1103.75,1087.4213,1093.75,1091.4213,1103.75,1095.4213,1099.75,1091.4213" style="stroke:#000000;stroke-width:1.0;"/><line style="stroke:#000000;stroke-width:1.0;" x1="307.5" x2="307.5" y1="990.7104" y2="1024.0791"/><polygon fill="#000000" points="303.5,1014.0791,307.5,1024.0791,311.5,1014.0791,307.5,1018.0791" style="stroke:#000000;stroke-width:1.0;"/><line style="stroke:#000000;stroke-width:1.0;" x1="307.5" x2="307.5" y1="1057.4478" y2="1123.4213"/><polygon fill="#000000" points="303.5,1113.4213,307.5,1123.4213,311.5,1113.4213,307.5,1117.4213" style="stroke:#000000;stroke-width:1.0;"/><line style="stroke:#000000;stroke-width:1.0;" x1="516.5" x2="516.5" y1="990.7104" y2="1024.0791"/><polygon fill="#000000" points="512.5,1014.0791,516.5,1024.0791,520.5,1014.0791,516.5,1018.0791" style="stroke:#000000;stroke-width:1.0;"/><line style="stroke:#000000;stroke-width:1.0;" x1="516.5" x2="516.5" y1="1057.4478" y2="1123.4213"/><polygon fill="#000000" points="512.5,1113.4213,516.5,1123.4213,520.5,1113.4213,516.5,1117.4213" style="stroke:#000000;stroke-width:1.0;"/><line style="stroke:#000000;stroke-width:1.0;" x1="728" x2="728" y1="990.7104" y2="1024.0791"/><polygon fill="#000000" points="724,1014.0791,728,1024.0791,732,1014.0791,728,1018.0791" style="stroke:#000000;stroke-width:1.0;"/><line style="stroke:#000000;stroke-width:1.0;" x1="728" x2="728" y1="1057.4478" y2="1123.4213"/><polygon fill="#000000" points="724,1113.4213,728,1123.4213,732,1113.4213,728,1117.4213" style="stroke:#000000;stroke-width:1.0;"/><line style="stroke:#000000;stroke-width:1.0;" x1="342" x2="482" y1="978.7104" y2="978.7104"/><polygon fill="#000000" points="472,974.7104,482,978.7104,472,982.7104,476,978.7104" style="stroke:#000000;stroke-width:1.0;"/><line style="stroke:#000000;stroke-width:1.0;" x1="551" x2="693.5" y1="978.7104" y2="978.7104"/><polygon fill="#000000" points="683.5,974.7104,693.5,978.7104,683.5,982.7104,687.5,978.7104" style="stroke:#000000;stroke-width:1.0;"/><line style="stroke:#000000;stroke-width:1.0;" x1="109" x2="109" y1="946.7104" y2="951.7104"/><line style="stroke:#000000;stroke-width:1.0;" x1="109" x2="307.5" y1="951.7104" y2="951.7104"/><line style="stroke:#000000;stroke-width:1.0;" x1="307.5" x2="307.5" y1="951.7104" y2="966.7104"/><polygon fill="#000000" points="303.5,956.7104,307.5,966.7104,311.5,956.7104,307.5,960.7104" style="stroke:#000000;stroke-width:1.0;"/><line style="stroke:#000000;stroke-width:1.0;" x1="762.5" x2="1081.75" y1="978.7104" y2="978.7104"/><line style="stroke:#000000;stroke-width:1.0;" x1="1081.75" x2="1081.75" y1="978.7104" y2="1006.0526"/><polygon fill="#000000" points="1077.75,996.0526,1081.75,1006.0526,1085.75,996.0526,1081.75,1000.0526" style="stroke:#000000;stroke-width:1.0;"/><line style="stroke:#000000;stroke-width:1.0;" x1="1081.75" x2="1081.75" y1="1103.4213" y2="1123.4213"/><polygon fill="#000000" points="1077.75,1113.4213,1081.75,1123.4213,1085.75,1113.4213,1081.75,1117.4213" style="stroke:#000000;stroke-width:1.0;"/><line style="stroke:#000000;stroke-width:1.0;" x1="307.5" x2="1081.75" y1="1123.4213" y2="1123.4213"/><line style="stroke:#000000;stroke-width:1.0;" x1="754.5" x2="754.5" y1="1123.4213" y2="1143.4213"/><polygon fill="#000000" points="750.5,1133.4213,754.5,1143.4213,758.5,1133.4213,754.5,1137.4213" style="stroke:#000000;stroke-width:1.0;"/><line style="stroke:#000000;stroke-width:1.0;" x1="109" x2="109" y1="155.2612" y2="160.2612"/><line style="stroke:#000000;stroke-width:1.0;" x1="109" x2="754.5" y1="160.2612" y2="160.2612"/><line style="stroke:#000000;stroke-width:1.0;" x1="754.5" x2="754.5" y1="160.2612" y2="175.2612"/><polygon fill="#000000" points="750.5,165.2612,754.5,175.2612,758.5,165.2612,754.5,169.2612" style="stroke:#000000;stroke-width:1.0;"/><line style="stroke:#000000;stroke-width:1.0;" x1="754.5" x2="754.5" y1="893.3418" y2="898.3418"/><line style="stroke:#000000;stroke-width:1.0;" x1="754.5" x2="109" y1="898.3418" y2="898.3418"/><line style="stroke:#000000;stroke-width:1.0;" x1="109" x2="109" y1="898.3418" y2="913.3418"/><polygon fill="#000000" points="105,903.3418,109,913.3418,113,903.3418,109,907.3418" style="stroke:#000000;stroke-width:1.0;"/><text fill="#000000" font-family="Verdana" font-size="18" lengthAdjust="spacing" textLength="101" x="57.5" y="73.1133">Ng&#432;&#7901;i d&#249;ng</text><text fill="#000000" font-family="Verdana" font-size="18" lengthAdjust="spacing" textLength="82" x="717.5" y="73.1133">H&#7879; th&#7889;ng</text><rect fill="none" height="61.0439" id="_legend" rx="7.5" ry="7.5" style="stroke:#000000;stroke-width:1.0;" width="241" x="1086" y="1170.4213"/><text fill="#000000" font-family="Verdana" font-size="14" font-weight="bold" lengthAdjust="spacing" textLength="46" x="1091" y="1189.4965">B&#7843;ng:</text><text fill="#000000" font-family="Verdana" font-size="14" lengthAdjust="spacing" textLength="125" x="1142" y="1189.4965">nguoidung, vaitro</text><text fill="#000000" font-family="Verdana" font-size="14" font-weight="bold" lengthAdjust="spacing" textLength="35" x="1091" y="1206.5111">API:</text><text fill="#000000" font-family="Verdana" font-size="14" lengthAdjust="spacing" textLength="146" x="1131" y="1206.5111">POST /api/auth/login</text><text fill="#000000" font-family="Verdana" font-size="14" font-weight="bold" lengthAdjust="spacing" textLength="54" x="1091" y="1223.5258">Token:</text><text fill="#000000" font-family="Verdana" font-size="14" lengthAdjust="spacing" textLength="172" x="1150" y="1223.5258">JWT (15 ph&#250;t + 7 ng&#224;y)</text><!--SRC=[ZLG_RzD05D_lKpnK2IM6g4rAXUGCAAHDaxQu4N7f65tggtsAVHVPvw2WB9I1WON2W1YGMdK25QbIMR071bVz7luctDaeE6sAiEMJ_7v_thjxpxud7E8H6BcOCXGCAHjX7timm0T3s-SXivhSvJuijRAhmC07WewfcBGu4ptwYa2rMa23bzHpCIFxr18ErDPM419Kk0GqhR6-KjFXwltLaR49HZkDphjm7xhjvCY0dRqq_c1iQXf2qwMDrLQjjJurxEkBDFv2mKf-CdkA0e5zWNJ3IQFl8o0UfYwCanFmvBk0eGn_3UjAtrfJzxITncz1E6byhDIwcPnx40R4bp72SxsaqqCeRMHU8eq_Chb6f_H9MP4ObBQTv0UpomX0tqdZJrI7d3lCuaL9NN82mKU8C8iU8gJtE0J9ANFcweFIuC2VZ4JvJ-PdHUpgE8cO_O_SS-m0tygf7CtaX4eAJwCp1eCqVgTglSGprsPoMRISeyi2pWgQMriovKOvREsROF8XONKPyQKGncdyEZ_Q1o1ovEuswZlN5s61jh1RQYS-TqcVMhFAgvM6vL6MLTzqmaaQlr4bfz4l1Xa2wpXm1XpxLXqHDo2BJ6gLRIcGwMLh5ZhzXV_7RhNIL4nvPfyNkitGcsPGUbJPaoUcLChOvPZsXNnaBp2R-VSwHhl_ehDXADu2_nwL0pQcoRUvQW7o54QxqJSRdRxvVFSElU783qYe6H1-6f_TCCdQdg_P722NsF8LV6ex0cdQKpKrjgvfmEoGKojazaCOOofyBj56jwEWxcxFX6Kyeiiu5Cwoostvmz6qR88KhiQfL5s3aPD4GWxGOscMd4pAAd6U3_q6]--></g></svg>