<?xml version="1.0" encoding="us-ascii" standalone="no"?><svg xmlns="http://www.w3.org/2000/svg" xmlns:xlink="http://www.w3.org/1999/xlink" contentStyleType="text/css" height="1969px" preserveAspectRatio="none" style="width:1001px;height:1969px;background:#FFFFFF;" version="1.1" viewBox="0 0 1001 1969" width="1001px" zoomAndPan="magnify"><defs/><g><text fill="#000000" font-family="Verdana" font-size="22" font-weight="bold" lengthAdjust="spacing" textLength="681" x="158.75" y="37.1182">SD06: T&#192;I TR&#7906; C&#212;NG KHAI (KH&#212;NG C&#7846;N &#272;&#258;NG NH&#7852;P)</text><rect fill="#FFFFFF" height="1505.4629" style="stroke:#000000;stroke-width:1.0;" width="10" x="268.5" y="162.5513"/><rect fill="#FFFFFF" height="139.7959" style="stroke:#000000;stroke-width:1.0;" width="10" x="569.5" y="195.3506"/><rect fill="#FFFFFF" height="948.3796" style="stroke:#000000;stroke-width:1.0;" width="10" x="569.5" y="514.4407"/><rect fill="#FFFFFF" height="29.7993" style="stroke:#000000;stroke-width:1.0;" width="10" x="795.5" y="228.1499"/><rect fill="#FFFFFF" height="29.7993" style="stroke:#000000;stroke-width:1.0;" width="10" x="795.5" y="760.9028"/><rect fill="#FFFFFF" height="449.5557" style="stroke:#000000;stroke-width:1.0;" width="10" x="795.5" y="936.0674"/><rect fill="#FFFFFF" height="1030.4766" style="stroke:#000000;stroke-width:1.0;" width="969.5" x="15" y="630.5376"/><rect fill="#FFFFFF" height="937.2793" style="stroke:none;stroke-width:1.0;" width="969.5" x="15" y="723.7349"/><rect fill="#FFFFFF" height="848.312" style="stroke:#000000;stroke-width:1.0;" width="949.5" x="25" y="805.7021"/><rect fill="#FFFFFF" height="755.1147" style="stroke:none;stroke-width:1.0;" width="949.5" x="25" y="898.8994"/><rect fill="#FFFFFF" height="191.7632" style="stroke:#000000;stroke-width:1.0;" width="484.5" x="480" y="1026.4653"/><rect fill="#FFFFFF" height="51.168" style="stroke:none;stroke-width:1.0;" width="484.5" x="480" y="1167.0605"/><line style="stroke:#000000;stroke-width:1.0;" x1="82" x2="82" y1="130.752" y2="1761.2114"/><line style="stroke:#000000;stroke-width:1.0;" x1="273" x2="273" y1="130.752" y2="1761.2114"/><line style="stroke:#000000;stroke-width:1.0;" x1="574" x2="574" y1="130.752" y2="1761.2114"/><line style="stroke:#000000;stroke-width:1.0;" x1="800" x2="800" y1="130.752" y2="1761.2114"/><text fill="#000000" font-family="Verdana" font-size="14" lengthAdjust="spacing" textLength="89" x="35" y="127.8125">Ng&#432;&#7901;i t&#224;i tr&#7907;</text><ellipse cx="82.5" cy="61.7373" fill="#FFFFFF" rx="8" ry="8" style="stroke:#000000;stroke-width:1.0;"/><path d="M82.5,69.7373 L82.5,96.7373 M69.5,77.7373 L95.5,77.7373 M82.5,96.7373 L69.5,111.7373 M82.5,96.7373 L95.5,111.7373 " fill="none" style="stroke:#000000;stroke-width:1.0;"/><text fill="#000000" font-family="Verdana" font-size="14" lengthAdjust="spacing" textLength="89" x="35" y="1774.2866">Ng&#432;&#7901;i t&#224;i tr&#7907;</text><ellipse cx="82.5" cy="1786.2261" fill="#FFFFFF" rx="8" ry="8" style="stroke:#000000;stroke-width:1.0;"/><path d="M82.5,1794.2261 L82.5,1821.2261 M69.5,1802.2261 L95.5,1802.2261 M82.5,1821.2261 L69.5,1836.2261 M82.5,1821.2261 L95.5,1836.2261 " fill="none" style="stroke:#000000;stroke-width:1.0;"/><rect fill="#FFFFFF" height="31.0146" rx="2.5" ry="2.5" style="stroke:#000000;stroke-width:1.0;" width="95" x="226" y="98.7373"/><text fill="#000000" font-family="Verdana" font-size="14" lengthAdjust="spacing" textLength="81" x="233" y="119.8125">Tr&#236;nh duy&#7879;t</text><rect fill="#FFFFFF" height="31.0146" rx="2.5" ry="2.5" style="stroke:#000000;stroke-width:1.0;" width="95" x="226" y="1760.2114"/><text fill="#000000" font-family="Verdana" font-size="14" lengthAdjust="spacing" textLength="81" x="233" y="1781.2866">Tr&#236;nh duy&#7879;t</text><rect fill="#FFFFFF" height="31.0146" rx="2.5" ry="2.5" style="stroke:#000000;stroke-width:1.0;" width="107" x="521" y="98.7373"/><text fill="#000000" font-family="Verdana" font-size="14" lengthAdjust="spacing" textLength="93" x="528" y="119.8125">API H&#7879; th&#7889;ng</text><rect fill="#FFFFFF" height="31.0146" rx="2.5" ry="2.5" style="stroke:#000000;stroke-width:1.0;" width="107" x="521" y="1760.2114"/><text fill="#000000" font-family="Verdana" font-size="14" lengthAdjust="spacing" textLength="93" x="528" y="1781.2866">API H&#7879; th&#7889;ng</text><text fill="#000000" font-family="Verdana" font-size="14" lengthAdjust="spacing" textLength="93" x="751" y="127.8125">C&#417; s&#7903; d&#7919; li&#7879;u</text><path d="M782.5,77.7373 C782.5,67.7373 800.5,67.7373 800.5,67.7373 C800.5,67.7373 818.5,67.7373 818.5,77.7373 L818.5,103.7373 C818.5,113.7373 800.5,113.7373 800.5,113.7373 C800.5,113.7373 782.5,113.7373 782.5,103.7373 L782.5,77.7373 " fill="#FFFFFF" style="stroke:#000000;stroke-width:1.5;"/><path d="M782.5,77.7373 C782.5,87.7373 800.5,87.7373 800.5,87.7373 C800.5,87.7373 818.5,87.7373 818.5,77.7373 " fill="none" style="stroke:#000000;stroke-width:1.5;"/><text fill="#000000" font-family="Verdana" font-size="14" lengthAdjust="spacing" textLength="93" x="751" y="1774.2866">C&#417; s&#7903; d&#7919; li&#7879;u</text><path d="M782.5,1787.2261 C782.5,1777.2261 800.5,1777.2261 800.5,1777.2261 C800.5,1777.2261 818.5,1777.2261 818.5,1787.2261 L818.5,1813.2261 C818.5,1823.2261 800.5,1823.2261 800.5,1823.2261 C800.5,1823.2261 782.5,1823.2261 782.5,1813.2261 L782.5,1787.2261 " fill="#FFFFFF" style="stroke:#000000;stroke-width:1.5;"/><path d="M782.5,1787.2261 C782.5,1797.2261 800.5,1797.2261 800.5,1797.2261 C800.5,1797.2261 818.5,1797.2261 818.5,1787.2261 " fill="none" style="stroke:#000000;stroke-width:1.5;"/><rect fill="#FFFFFF" height="1505.4629" style="stroke:#000000;stroke-width:1.0;" width="10" x="268.5" y="162.5513"/><rect fill="#FFFFFF" height="139.7959" style="stroke:#000000;stroke-width:1.0;" width="10" x="569.5" y="195.3506"/><rect fill="#FFFFFF" height="948.3796" style="stroke:#000000;stroke-width:1.0;" width="10" x="569.5" y="514.4407"/><rect fill="#FFFFFF" height="29.7993" style="stroke:#000000;stroke-width:1.0;" width="10" x="795.5" y="228.1499"/><rect fill="#FFFFFF" height="29.7993" style="stroke:#000000;stroke-width:1.0;" width="10" x="795.5" y="760.9028"/><rect fill="#FFFFFF" height="449.5557" style="stroke:#000000;stroke-width:1.0;" width="10" x="795.5" y="936.0674"/><polygon fill="#000000" points="256.5,158.5513,266.5,162.5513,256.5,166.5513,260.5,162.5513" style="stroke:#000000;stroke-width:1.0;"/><line style="stroke:#000000;stroke-width:1.0;" x1="82.5" x2="262.5" y1="162.5513" y2="162.5513"/><text fill="#000000" font-family="Verdana" font-size="13" lengthAdjust="spacing" textLength="151" x="100" y="157.8218">V&#224;o trang "Quy&#234;n g&#243;p"</text><polygon fill="#000000" points="557.5,191.3506,567.5,195.3506,557.5,199.3506,561.5,195.3506" style="stroke:#000000;stroke-width:1.0;"/><line style="stroke:#000000;stroke-width:1.0;" x1="278.5" x2="563.5" y1="195.3506" y2="195.3506"/><text fill="#000000" font-family="Verdana" font-size="13" lengthAdjust="spacing" textLength="193" x="327.5" y="190.6211">L&#7845;y danh s&#225;ch qu&#7929; c&#244;ng khai</text><path d="M584,175.5513 L584,200.5513 L716,200.5513 L716,185.5513 L706,175.5513 L584,175.5513 " fill="#FFFFFF" style="stroke:#000000;stroke-width:1.0;"/><path d="M706,175.5513 L706,185.5513 L716,185.5513 L706,175.5513 " fill="#FFFFFF" style="stroke:#000000;stroke-width:1.0;"/><text fill="#000000" font-family="Verdana" font-size="13" lengthAdjust="spacing" textLength="111" x="590" y="193.6211">Kh&#244;ng c&#7847;n token</text><polygon fill="#000000" points="783.5,224.1499,793.5,228.1499,783.5,232.1499,787.5,228.1499" style="stroke:#000000;stroke-width:1.0;"/><line style="stroke:#000000;stroke-width:1.0;" x1="579.5" x2="789.5" y1="228.1499" y2="228.1499"/><text fill="#000000" font-family="Verdana" font-size="13" lengthAdjust="spacing" textLength="197" x="589" y="223.4204">Truy v&#7845;n qu&#7929; &#273;ang ho&#7841;t &#273;&#7897;ng</text><polygon fill="#000000" points="590.5,253.9492,580.5,257.9492,590.5,261.9492,586.5,257.9492" style="stroke:#000000;stroke-width:1.0;"/><line style="stroke:#000000;stroke-width:1.0;stroke-dasharray:2.0,2.0;" x1="584.5" x2="799.5" y1="257.9492" y2="257.9492"/><text fill="#000000" font-family="Verdana" font-size="13" lengthAdjust="spacing" textLength="98" x="641" y="253.2197">Danh s&#225;ch qu&#7929;</text><polygon fill="#000000" points="289.5,331.1465,279.5,335.1465,289.5,339.1465,285.5,335.1465" style="stroke:#000000;stroke-width:1.0;"/><line style="stroke:#000000;stroke-width:1.0;stroke-dasharray:2.0,2.0;" x1="283.5" x2="573.5" y1="335.1465" y2="335.1465"/><text fill="#000000" font-family="Verdana" font-size="13" lengthAdjust="spacing" textLength="103" x="375" y="283.019">Hi&#7875;n th&#7883; qu&#7929; v&#7899;i</text><text fill="#000000" font-family="Verdana" font-size="13" lengthAdjust="spacing" textLength="66" x="393.5" y="298.8184">- T&#234;n qu&#7929;</text><text fill="#000000" font-family="Verdana" font-size="13" lengthAdjust="spacing" textLength="50" x="401.5" y="314.6177">- M&#244; t&#7843;</text><text fill="#000000" font-family="Verdana" font-size="13" lengthAdjust="spacing" textLength="105" x="374" y="330.417">- S&#7889; d&#432; hi&#7879;n t&#7841;i</text><polygon fill="#000000" points="256.5,360.9458,266.5,364.9458,256.5,368.9458,260.5,364.9458" style="stroke:#000000;stroke-width:1.0;"/><line style="stroke:#000000;stroke-width:1.0;" x1="82.5" x2="262.5" y1="364.9458" y2="364.9458"/><text fill="#000000" font-family="Verdana" font-size="13" lengthAdjust="spacing" textLength="148" x="101.5" y="360.2163">Ch&#7885;n qu&#7929; mu&#7889;n t&#224;i tr&#7907;</text><polygon fill="#000000" points="256.5,469.7417,266.5,473.7417,256.5,477.7417,260.5,473.7417" style="stroke:#000000;stroke-width:1.0;"/><line style="stroke:#000000;stroke-width:1.0;" x1="82.5" x2="262.5" y1="473.7417" y2="473.7417"/><text fill="#000000" font-family="Verdana" font-size="13" lengthAdjust="spacing" textLength="99" x="126" y="390.0156">&#272;i&#7873;n th&#244;ng tin:</text><text fill="#000000" font-family="Verdana" font-size="13" lengthAdjust="spacing" textLength="56" x="147.5" y="405.8149">- H&#7885; t&#234;n</text><text fill="#000000" font-family="Verdana" font-size="13" lengthAdjust="spacing" textLength="45" x="153" y="421.6143">- Email</text><text fill="#000000" font-family="Verdana" font-size="13" lengthAdjust="spacing" textLength="99" x="126" y="437.4136">- S&#7889; &#273;i&#7879;n tho&#7841;i</text><text fill="#000000" font-family="Verdana" font-size="13" lengthAdjust="spacing" textLength="59" x="146" y="453.2129">- S&#7889; ti&#7873;n</text><text fill="#000000" font-family="Verdana" font-size="13" lengthAdjust="spacing" textLength="143" x="104" y="469.0122">- L&#7901;i nh&#7855;n (t&#249;y ch&#7885;n)</text><polygon fill="#000000" points="557.5,510.4407,567.5,514.4407,557.5,518.4407,561.5,514.4407" style="stroke:#000000;stroke-width:1.0;"/><line style="stroke:#000000;stroke-width:1.0;" x1="278.5" x2="563.5" y1="514.4407" y2="514.4407"/><text fill="#000000" font-family="Verdana" font-size="13" lengthAdjust="spacing" textLength="132" x="358" y="509.7112">G&#7917;i th&#244;ng tin t&#224;i tr&#7907;</text><path d="M584,486.7417 L584,527.7417 L785,527.7417 L785,496.7417 L775,486.7417 L584,486.7417 " fill="#FFFFFF" style="stroke:#000000;stroke-width:1.0;"/><path d="M775,486.7417 L775,496.7417 L785,496.7417 L775,486.7417 " fill="#FFFFFF" style="stroke:#000000;stroke-width:1.0;"/><text fill="#000000" font-family="Verdana" font-size="13" lengthAdjust="spacing" textLength="180" x="590" y="504.8115">POST /api/donations/public</text><text fill="#000000" font-family="Verdana" font-size="13" lengthAdjust="spacing" textLength="102" x="590" y="520.6108">(API c&#244;ng khai)</text><line style="stroke:#000000;stroke-width:1.0;" x1="579.5" x2="621.5" y1="602.5376" y2="602.5376"/><line style="stroke:#000000;stroke-width:1.0;" x1="621.5" x2="621.5" y1="602.5376" y2="615.5376"/><line style="stroke:#000000;stroke-width:1.0;" x1="580.5" x2="621.5" y1="615.5376" y2="615.5376"/><polygon fill="#000000" points="590.5,611.5376,580.5,615.5376,590.5,619.5376,586.5,615.5376" style="stroke:#000000;stroke-width:1.0;"/><text fill="#000000" font-family="Verdana" font-size="13" lengthAdjust="spacing" textLength="103" x="627" y="550.4102">Ki&#7875;m tra d&#7919; li&#7879;u</text><text fill="#000000" font-family="Verdana" font-size="13" lengthAdjust="spacing" textLength="90" x="633.5" y="566.2095">- Email h&#7907;p l&#7879;</text><text fill="#000000" font-family="Verdana" font-size="13" lengthAdjust="spacing" textLength="86" x="635.5" y="582.0088">- S&#7889; ti&#7873;n &gt; 0</text><text fill="#000000" font-family="Verdana" font-size="13" lengthAdjust="spacing" textLength="184" x="586.5" y="597.8081">- S&#7889; &#273;i&#7879;n tho&#7841;i &#273;&#250;ng format</text><path d="M15,630.5376 L79,630.5376 L79,638.3369 L69,648.3369 L15,648.3369 L15,630.5376 " fill="#FFFFFF" style="stroke:#000000;stroke-width:1.0;"/><rect fill="none" height="1030.4766" style="stroke:#000000;stroke-width:1.0;" width="969.5" x="15" y="630.5376"/><text fill="#000000" font-family="Verdana" font-size="13" font-weight="bold" lengthAdjust="spacing" textLength="19" x="30" y="644.6074">alt</text><text fill="#000000" font-family="Verdana" font-size="11" font-weight="bold" lengthAdjust="spacing" textLength="145" x="94" y="643.5967">[D&#7919; li&#7879;u kh&#244;ng h&#7907;p l&#7879;]</text><polygon fill="#000000" points="289.5,681.9355,279.5,685.9355,289.5,689.9355,285.5,685.9355" style="stroke:#000000;stroke-width:1.0;"/><line style="stroke:#000000;stroke-width:1.0;stroke-dasharray:2.0,2.0;" x1="283.5" x2="568.5" y1="685.9355" y2="685.9355"/><text fill="#000000" font-family="Verdana" font-size="13" lengthAdjust="spacing" textLength="89" x="379.5" y="665.4067">Th&#244;ng b&#225;o l&#7895;i</text><text fill="#000000" font-family="Verdana" font-size="13" lengthAdjust="spacing" textLength="204" x="322" y="681.2061">"Vui l&#242;ng ki&#7875;m tra l&#7841;i th&#244;ng tin"</text><polygon fill="#000000" points="93.5,711.7349,83.5,715.7349,93.5,719.7349,89.5,715.7349" style="stroke:#000000;stroke-width:1.0;"/><line style="stroke:#000000;stroke-width:1.0;stroke-dasharray:2.0,2.0;" x1="87.5" x2="267.5" y1="715.7349" y2="715.7349"/><text fill="#000000" font-family="Verdana" font-size="13" lengthAdjust="spacing" textLength="69" x="141" y="711.0054">Hi&#7875;n th&#7883; l&#7895;i</text><line style="stroke:#000000;stroke-width:1.0;stroke-dasharray:2.0,2.0;" x1="15" x2="984.5" y1="724.7349" y2="724.7349"/><text fill="#000000" font-family="Verdana" font-size="11" font-weight="bold" lengthAdjust="spacing" textLength="101" x="20" y="735.7939">[D&#7919; li&#7879;u h&#7907;p l&#7879;]</text><polygon fill="#000000" points="783.5,756.9028,793.5,760.9028,783.5,764.9028,787.5,760.9028" style="stroke:#000000;stroke-width:1.0;"/><line style="stroke:#000000;stroke-width:1.0;" x1="579.5" x2="789.5" y1="760.9028" y2="760.9028"/><text fill="#000000" font-family="Verdana" font-size="13" lengthAdjust="spacing" textLength="132" x="621.5" y="756.1733">Ki&#7875;m tra qu&#7929; t&#7891;n t&#7841;i</text><polygon fill="#000000" points="590.5,786.7021,580.5,790.7021,590.5,794.7021,586.5,790.7021" style="stroke:#000000;stroke-width:1.0;"/><line style="stroke:#000000;stroke-width:1.0;stroke-dasharray:2.0,2.0;" x1="584.5" x2="799.5" y1="790.7021" y2="790.7021"/><text fill="#000000" font-family="Verdana" font-size="13" lengthAdjust="spacing" textLength="92" x="644" y="785.9727">Th&#244;ng tin qu&#7929;</text><path d="M25,805.7021 L89,805.7021 L89,813.5015 L79,823.5015 L25,823.5015 L25,805.7021 " fill="#FFFFFF" style="stroke:#000000;stroke-width:1.0;"/><rect fill="none" height="848.312" style="stroke:#000000;stroke-width:1.0;" width="949.5" x="25" y="805.7021"/><text fill="#000000" font-family="Verdana" font-size="13" font-weight="bold" lengthAdjust="spacing" textLength="19" x="40" y="819.772">alt</text><text fill="#000000" font-family="Verdana" font-size="11" font-weight="bold" lengthAdjust="spacing" textLength="150" x="104" y="818.7612">[Qu&#7929; kh&#244;ng ho&#7841;t &#273;&#7897;ng]</text><polygon fill="#000000" points="289.5,857.1001,279.5,861.1001,289.5,865.1001,285.5,861.1001" style="stroke:#000000;stroke-width:1.0;"/><line style="stroke:#000000;stroke-width:1.0;stroke-dasharray:2.0,2.0;" x1="283.5" x2="568.5" y1="861.1001" y2="861.1001"/><text fill="#000000" font-family="Verdana" font-size="13" lengthAdjust="spacing" textLength="89" x="379.5" y="840.5713">Th&#244;ng b&#225;o l&#7895;i</text><text fill="#000000" font-family="Verdana" font-size="13" lengthAdjust="spacing" textLength="192" x="328" y="856.3706">"Qu&#7929; kh&#244;ng c&#242;n nh&#7853;n t&#224;i tr&#7907;"</text><polygon fill="#000000" points="93.5,886.8994,83.5,890.8994,93.5,894.8994,89.5,890.8994" style="stroke:#000000;stroke-width:1.0;"/><line style="stroke:#000000;stroke-width:1.0;stroke-dasharray:2.0,2.0;" x1="87.5" x2="267.5" y1="890.8994" y2="890.8994"/><text fill="#000000" font-family="Verdana" font-size="13" lengthAdjust="spacing" textLength="69" x="141" y="886.1699">Hi&#7875;n th&#7883; l&#7895;i</text><line style="stroke:#000000;stroke-width:1.0;stroke-dasharray:2.0,2.0;" x1="25" x2="974.5" y1="899.8994" y2="899.8994"/><text fill="#000000" font-family="Verdana" font-size="11" font-weight="bold" lengthAdjust="spacing" textLength="142" x="30" y="910.9585">[Qu&#7929; &#273;ang ho&#7841;t &#273;&#7897;ng]</text><polygon fill="#000000" points="783.5,932.0674,793.5,936.0674,783.5,940.0674,787.5,936.0674" style="stroke:#000000;stroke-width:1.0;"/><line style="stroke:#000000;stroke-width:1.0;" x1="579.5" x2="789.5" y1="936.0674" y2="936.0674"/><text fill="#000000" font-family="Verdana" font-size="13" font-weight="bold" lengthAdjust="spacing" textLength="125" x="625" y="931.3379">B&#7855;t &#273;&#7847;u giao d&#7883;ch</text><polygon fill="#000000" points="783.5,977.666,793.5,981.666,783.5,985.666,787.5,981.666" style="stroke:#000000;stroke-width:1.0;"/><line style="stroke:#000000;stroke-width:1.0;" x1="579.5" x2="789.5" y1="981.666" y2="981.666"/><text fill="#000000" font-family="Verdana" font-size="13" lengthAdjust="spacing" textLength="92" x="641.5" y="961.1372">Ki&#7875;m tra email</text><text fill="#000000" font-family="Verdana" font-size="13" lengthAdjust="spacing" textLength="183" x="596" y="976.9365">trong danh s&#225;ch nh&#224; t&#224;i tr&#7907;</text><polygon fill="#000000" points="590.5,1007.4653,580.5,1011.4653,590.5,1015.4653,586.5,1011.4653" style="stroke:#000000;stroke-width:1.0;"/><line style="stroke:#000000;stroke-width:1.0;stroke-dasharray:2.0,2.0;" x1="584.5" x2="794.5" y1="1011.4653" y2="1011.4653"/><text fill="#000000" font-family="Verdana" font-size="13" lengthAdjust="spacing" textLength="109" x="633" y="1006.7358">K&#7871;t qu&#7843; ki&#7875;m tra</text><path d="M480,1026.4653 L544,1026.4653 L544,1034.2646 L534,1044.2646 L480,1044.2646 L480,1026.4653 " fill="#FFFFFF" style="stroke:#000000;stroke-width:1.0;"/><rect fill="none" height="191.7632" style="stroke:#000000;stroke-width:1.0;" width="484.5" x="480" y="1026.4653"/><text fill="#000000" font-family="Verdana" font-size="13" font-weight="bold" lengthAdjust="spacing" textLength="19" x="495" y="1040.5352">alt</text><text fill="#000000" font-family="Verdana" font-size="11" font-weight="bold" lengthAdjust="spacing" textLength="129" x="559" y="1039.5244">[Email ch&#432;a t&#7891;n t&#7841;i]</text><polygon fill="#000000" points="783.5,1125.2612,793.5,1129.2612,783.5,1133.2612,787.5,1129.2612" style="stroke:#000000;stroke-width:1.0;"/><line style="stroke:#000000;stroke-width:1.0;" x1="579.5" x2="789.5" y1="1129.2612" y2="1129.2612"/><text fill="#000000" font-family="Verdana" font-size="13" lengthAdjust="spacing" textLength="127" x="624" y="1061.3345">T&#7841;o nh&#224; t&#224;i tr&#7907; m&#7899;i</text><text fill="#000000" font-family="Verdana" font-size="13" lengthAdjust="spacing" textLength="56" x="659.5" y="1077.1338">- H&#7885; t&#234;n</text><text fill="#000000" font-family="Verdana" font-size="13" lengthAdjust="spacing" textLength="45" x="665" y="1092.9331">- Email</text><text fill="#000000" font-family="Verdana" font-size="13" lengthAdjust="spacing" textLength="99" x="638" y="1108.7324">- S&#7889; &#273;i&#7879;n tho&#7841;i</text><text fill="#000000" font-family="Verdana" font-size="13" lengthAdjust="spacing" textLength="103" x="636" y="1124.5317">- Lo&#7841;i: C&#225; nh&#226;n</text><path d="M810,1077.8633 L810,1102.8633 L954,1102.8633 L954,1087.8633 L944,1077.8633 L810,1077.8633 " fill="#FFFFFF" style="stroke:#000000;stroke-width:1.0;"/><path d="M944,1077.8633 L944,1087.8633 L954,1087.8633 L944,1077.8633 " fill="#FFFFFF" style="stroke:#000000;stroke-width:1.0;"/><text fill="#000000" font-family="Verdana" font-size="13" lengthAdjust="spacing" textLength="123" x="816" y="1095.9331">T&#7921; &#273;&#7897;ng t&#7841;o h&#7891; s&#417;</text><polygon fill="#000000" points="590.5,1155.0605,580.5,1159.0605,590.5,1163.0605,586.5,1159.0605" style="stroke:#000000;stroke-width:1.0;"/><line style="stroke:#000000;stroke-width:1.0;stroke-dasharray:2.0,2.0;" x1="584.5" x2="794.5" y1="1159.0605" y2="1159.0605"/><text fill="#000000" font-family="Verdana" font-size="13" lengthAdjust="spacing" textLength="150" x="612.5" y="1154.3311">Nh&#224; t&#224;i tr&#7907; &#273;&#227; t&#7841;o (ID)</text><line style="stroke:#000000;stroke-width:1.0;stroke-dasharray:2.0,2.0;" x1="480" x2="964.5" y1="1168.0605" y2="1168.0605"/><text fill="#000000" font-family="Verdana" font-size="11" font-weight="bold" lengthAdjust="spacing" textLength="114" x="485" y="1179.1196">[Email &#273;&#227; t&#7891;n t&#7841;i]</text><path d="M490,1187.4292 L490,1212.4292 L659,1212.4292 L659,1197.4292 L649,1187.4292 L490,1187.4292 " fill="#FFFFFF" style="stroke:#000000;stroke-width:1.0;"/><path d="M649,1187.4292 L649,1197.4292 L659,1197.4292 L649,1187.4292 " fill="#FFFFFF" style="stroke:#000000;stroke-width:1.0;"/><text fill="#000000" font-family="Verdana" font-size="13" lengthAdjust="spacing" textLength="148" x="496" y="1205.499">D&#249;ng l&#7841;i nh&#224; t&#224;i tr&#7907; c&#361;</text><polygon fill="#000000" points="783.5,1322.0244,793.5,1326.0244,783.5,1330.0244,787.5,1326.0244" style="stroke:#000000;stroke-width:1.0;"/><line style="stroke:#000000;stroke-width:1.0;" x1="579.5" x2="789.5" y1="1326.0244" y2="1326.0244"/><text fill="#000000" font-family="Verdana" font-size="13" lengthAdjust="spacing" textLength="115" x="630" y="1242.2983">T&#7841;o kho&#7843;n t&#224;i tr&#7907;</text><text fill="#000000" font-family="Verdana" font-size="13" lengthAdjust="spacing" textLength="102" x="636.5" y="1258.0977">- Nh&#224; t&#224;i tr&#7907; ID</text><text fill="#000000" font-family="Verdana" font-size="13" lengthAdjust="spacing" textLength="57" x="659" y="1273.897">- Qu&#7929; ID</text><text fill="#000000" font-family="Verdana" font-size="13" lengthAdjust="spacing" textLength="59" x="658" y="1289.6963">- S&#7889; ti&#7873;n</text><text fill="#000000" font-family="Verdana" font-size="13" lengthAdjust="spacing" textLength="67" x="654" y="1305.4956">- L&#7901;i nh&#7855;n</text><text fill="#000000" font-family="Verdana" font-size="13" lengthAdjust="spacing" textLength="191" x="592" y="1321.2949">- Tr&#7841;ng th&#225;i: "Ch&#7901; x&#225;c nh&#7853;n"</text><polygon fill="#000000" points="590.5,1351.8237,580.5,1355.8237,590.5,1359.8237,586.5,1355.8237" style="stroke:#000000;stroke-width:1.0;"/><line style="stroke:#000000;stroke-width:1.0;stroke-dasharray:2.0,2.0;" x1="584.5" x2="794.5" y1="1355.8237" y2="1355.8237"/><text fill="#000000" font-family="Verdana" font-size="13" lengthAdjust="spacing" textLength="134" x="620.5" y="1351.0942">Kho&#7843;n t&#224;i tr&#7907; &#273;&#227; t&#7841;o</text><polygon fill="#000000" points="788.5,1381.623,798.5,1385.623,788.5,1389.623,792.5,1385.623" style="stroke:#000000;stroke-width:1.0;"/><line style="stroke:#000000;stroke-width:1.0;" x1="579.5" x2="794.5" y1="1385.623" y2="1385.623"/><text fill="#000000" font-family="Verdana" font-size="13" font-weight="bold" lengthAdjust="spacing" textLength="136" x="622" y="1380.8936">X&#225;c nh&#7853;n giao d&#7883;ch</text><polygon fill="#000000" points="289.5,1458.8203,279.5,1462.8203,289.5,1466.8203,285.5,1462.8203" style="stroke:#000000;stroke-width:1.0;"/><line style="stroke:#000000;stroke-width:1.0;stroke-dasharray:2.0,2.0;" x1="283.5" x2="573.5" y1="1462.8203" y2="1462.8203"/><text fill="#000000" font-family="Verdana" font-size="13" lengthAdjust="spacing" textLength="49" x="402" y="1410.6929">Tr&#7843; v&#7873;:</text><text fill="#000000" font-family="Verdana" font-size="13" lengthAdjust="spacing" textLength="77" x="388" y="1426.4922">- M&#227; t&#224;i tr&#7907;</text><text fill="#000000" font-family="Verdana" font-size="13" lengthAdjust="spacing" textLength="267" x="293" y="1442.2915">- Th&#244;ng tin ng&#226;n h&#224;ng &#273;&#7875; chuy&#7875;n kho&#7843;n</text><text fill="#000000" font-family="Verdana" font-size="13" lengthAdjust="spacing" textLength="166" x="343.5" y="1458.0908">- N&#7897;i dung chuy&#7875;n kho&#7843;n</text><polygon fill="#000000" points="93.5,1536.0176,83.5,1540.0176,93.5,1544.0176,89.5,1540.0176" style="stroke:#000000;stroke-width:1.0;"/><line style="stroke:#000000;stroke-width:1.0;stroke-dasharray:2.0,2.0;" x1="87.5" x2="267.5" y1="1540.0176" y2="1540.0176"/><text fill="#000000" font-family="Verdana" font-size="13" lengthAdjust="spacing" textLength="130" x="110.5" y="1487.8901">Hi&#7875;n th&#7883; th&#224;nh c&#244;ng</text><text fill="#000000" font-family="Verdana" font-size="13" lengthAdjust="spacing" textLength="155" x="98" y="1503.6895">"C&#7843;m &#417;n b&#7841;n &#273;&#227; t&#224;i tr&#7907;!</text><text fill="#000000" font-family="Verdana" font-size="13" lengthAdjust="spacing" textLength="149" x="101" y="1519.4888">Vui l&#242;ng chuy&#7875;n kho&#7843;n</text><text fill="#000000" font-family="Verdana" font-size="13" lengthAdjust="spacing" textLength="162" x="94.5" y="1535.2881">theo th&#244;ng tin d&#432;&#7899;i &#273;&#226;y"</text><line style="stroke:#000000;stroke-width:1.0;" x1="278.5" x2="320.5" y1="1633.0142" y2="1633.0142"/><line style="stroke:#000000;stroke-width:1.0;" x1="320.5" x2="320.5" y1="1633.0142" y2="1646.0142"/><line style="stroke:#000000;stroke-width:1.0;" x1="279.5" x2="320.5" y1="1646.0142" y2="1646.0142"/><polygon fill="#000000" points="289.5,1642.0142,279.5,1646.0142,289.5,1650.0142,285.5,1646.0142" style="stroke:#000000;stroke-width:1.0;"/><text fill="#000000" font-family="Verdana" font-size="13" lengthAdjust="spacing" textLength="218" x="285.5" y="1565.0874">Hi&#7875;n th&#7883; th&#244;ng tin chuy&#7875;n kho&#7843;n:</text><text fill="#000000" font-family="Verdana" font-size="13" lengthAdjust="spacing" textLength="82" x="353.5" y="1580.8867">- Ng&#226;n h&#224;ng</text><text fill="#000000" font-family="Verdana" font-size="13" lengthAdjust="spacing" textLength="95" x="347" y="1596.686">- S&#7889; t&#224;i kho&#7843;n</text><text fill="#000000" font-family="Verdana" font-size="13" lengthAdjust="spacing" textLength="103" x="343" y="1612.4854">- T&#234;n t&#224;i kho&#7843;n</text><text fill="#000000" font-family="Verdana" font-size="13" lengthAdjust="spacing" textLength="181" x="304" y="1628.2847">- N&#7897;i dung: "TAI TRO [M&#227;]"</text><path d="M36,1673.0142 L36,1746.0142 L846,1746.0142 L846,1683.0142 L836,1673.0142 L36,1673.0142 " fill="#FFFFFF" style="stroke:#000000;stroke-width:1.0;"/><path d="M836,1673.0142 L836,1683.0142 L846,1683.0142 L836,1673.0142 " fill="#FFFFFF" style="stroke:#000000;stroke-width:1.0;"/><text fill="#000000" font-family="Verdana" font-size="13" font-weight="bold" lengthAdjust="spacing" textLength="111" x="325.5" y="1691.084">B&#432;&#7899;c ti&#7871;p theo:</text><text fill="#000000" font-family="Verdana" font-size="13" lengthAdjust="spacing" textLength="180" x="325.5" y="1706.8833">Ng&#432;&#7901;i t&#224;i tr&#7907; chuy&#7875;n kho&#7843;n</text><text fill="#000000" font-family="Verdana" font-size="13" lengthAdjust="spacing" textLength="222" x="325.5" y="1722.6826">&#8594; K&#7871; to&#225;n x&#225;c nh&#7853;n &#273;&#227; nh&#7853;n ti&#7873;n</text><text fill="#000000" font-family="Verdana" font-size="13" lengthAdjust="spacing" textLength="139" x="325.5" y="1738.4819">&#8594; C&#7897;ng ti&#7873;n v&#224;o qu&#7929;</text><rect fill="none" height="112.0879" id="_legend" rx="7.5" ry="7.5" style="stroke:#000000;stroke-width:1.0;" width="371" x="617.5" y="1844.2261"/><text fill="#000000" font-family="Verdana" font-size="14" font-weight="bold" lengthAdjust="spacing" textLength="43" x="622.5" y="1863.3013">M&#244; t&#7843;</text><text fill="#000000" font-family="Verdana" font-size="14" lengthAdjust="spacing" textLength="318" x="665.5" y="1863.3013">: Quy&#234;n g&#243;p c&#244;ng khai kh&#244;ng c&#7847;n &#273;&#259;ng nh&#7853;p</text><text fill="#000000" font-family="Verdana" font-size="14" font-weight="bold" lengthAdjust="spacing" textLength="29" x="622.5" y="1880.3159">API</text><text fill="#000000" font-family="Verdana" font-size="14" lengthAdjust="spacing" textLength="289" x="651.5" y="1880.3159">: POST /api/donations/public (C&#244;ng khai)</text><text fill="#000000" font-family="Verdana" font-size="14" font-weight="bold" lengthAdjust="spacing" textLength="84" x="622.5" y="1897.3306">Quy&#7873;n h&#7841;n</text><text fill="#000000" font-family="Verdana" font-size="14" lengthAdjust="spacing" textLength="182" x="706.5" y="1897.3306">: Kh&#244;ng y&#234;u c&#7847;u x&#225;c th&#7921;c</text><text fill="#000000" font-family="Verdana" font-size="14" font-weight="bold" lengthAdjust="spacing" textLength="66" x="622.5" y="1914.3452">T&#7921; &#273;&#7897;ng</text><text fill="#000000" font-family="Verdana" font-size="14" lengthAdjust="spacing" textLength="217" x="688.5" y="1914.3452">: T&#7841;o h&#7891; s&#417; nh&#224; t&#224;i tr&#7907; l&#7847;n &#273;&#7847;u</text><text fill="#000000" font-family="Verdana" font-size="14" font-weight="bold" lengthAdjust="spacing" textLength="80" x="622.5" y="1931.3599">Tr&#7841;ng th&#225;i</text><text fill="#000000" font-family="Verdana" font-size="14" lengthAdjust="spacing" textLength="267" x="702.5" y="1931.3599">: "Ch&#7901; x&#225;c nh&#7853;n" (ch&#7901; K&#7871; to&#225;n duy&#7879;t)</text><text fill="#000000" font-family="Verdana" font-size="14" font-weight="bold" lengthAdjust="spacing" textLength="45" x="622.5" y="1948.3745">Ch&#250; &#253;</text><text fill="#000000" font-family="Verdana" font-size="14" lengthAdjust="spacing" textLength="179" x="667.5" y="1948.3745">: Ch&#432;a c&#7897;ng ti&#7873;n v&#224;o qu&#7929;</text><!--SRC=[bLV1Rjj64BtpAoRiHI5gEASUT0XWIsris77iMWWAr3tG54ikJ2qLQkbMjwO6saCG86uA54KGrBBG1ZKIn6bpCOaY1whw3_PBEhDBYIjASbC1DhZKxCpRDszcHpU4xtPSw0OsuqRlYF6k7TaTEBIT8oyAOzvkX44OmGUVo8zcqNCVn2vttBjkhsTxxbh0F0wEouKR6OPW8d31ilQRjpwgGolxPXDQd-RfEJIo7tVkmDR6sYRKjZRaef4dl-t0wCdeMrpiREJ9ozsRbcKOjYCmiBdZZI_pz3a3aPtXloXFXoROFMY6F8mCn2AOmxes5s2sekmbzw4Tz_FqUo6jrgFmgvvRiLlRtOGDD07Xv-afzwGblZJQjh0FxPuBPcCyW5wU_WBjF7qD0KFhM8LTDmmP6bPkJxpNuNvs5Y8sctjWxiNzx8A3b_tPDUaGxDWMxXI8KJpGTWnPX-qy-RKFRHk1zxA1uyE3E4-lmCdUehCZtsQb3uB8Gto8cEUBEcpvqiZ9anSSH7ZaSeEEXfwRwyXw5FVX6BtpmkNebF3vOPuC12xoz6VkbSxnOCrrM9d0QbO06MrNDvLnT0OsaA8JBXbzLCGxpjDdx82lOFul2Woqkfkz1P4dGthUH_wXFRu4dnZcz7x0z51qv0LyDp3CuycvEZ5bKTF7WWsZ9nZW8U6Jb0d6wnGVLV0ODrvmMdpSiLamHJKwBI19mjZqlP2EQBajPSdzF7dDeIQogpuu4jVD-IpVoTDNJ8kkersQtzrx-orOjRjijHroMx2GzrQxyM70d0DUemoK8i6GHUfbk2tAHeSKgGjuUaX0cCCk1FYoSYwu3RUMKO3hBC5uNuPHnnPOe860PkaTSKWufMy3y3Edb9OoEym68LdzXDIQzsC6GVO77QP47iYW9MUcz3TbbcHEUQveJxeqt02hM0Ut29Mg4uqhfIUHfqydKYHRNVUqrikaLMPKbGaPp9OAlL5-aAyz6M72r6mfGl5vByPc73b8dHJYArrOvjJZ-t56bfAtlUNjOWQZui-orh42f4do8WQFsI69xf7ZOnUVs5S9cPAoF1ckAaSHXGX3wu_SpyxqyfbuqTEobIVl16Ka6MgAcezCAL4LuVZZItikzGiGjl3Bi0e2EfDUz_ywohPymdwM3SZbEP-9glU2Lfw-cMH10Wn9qa-XDnxCxD5PsAc0nFeT5djhcysRqtqowOg6mcGn2n9FU8n2KbT4TeLOL9LM-N3-_hrqpzlNvbmnUaIi37Nz4a7L8smswQqIg7g-fYdBkoT2xqIPdn7H9jqSp-5hL59HCEPY0SsXqTYxzZIMzLdfV4arp3U8UMyp3I0Y8UDz-h2kRj1XXIQj3N4FPGH86wv9BoSeRHg8iDWBYYMlA2I6an8rZyhNYr3IpJG7yx-wYY0Glhgai6FXd3Vim7Z0uP1IKl0vFSQD0rxU0lEGSKmDzVkpJLFXCtaddVVDQy0jcr4qNzLeakITaiTIPeHMOr4EDjMN9RKejzOQJRxtu7FCsHSA9fK3_UbZpdGwB4jCCleXwGCRh3oiGp9FtdM1kAYZd1QCnlFP_EUx7sGxn04nGzOrvQiCJAuDMK7Ikb4q6JKG7DDeg-usH2rxW644haSBsPiGtsIaiwmwQEElDfzCRoevguvEHoUuaA6xk1_bHLkNppjGQsYZZcNjqI4Hd4zAegt5A8oXOnaZLWUbLBznS8FUFic-DTD1vzfNKC0aJxHRRoAqVK4RWPeZtsbS5pz42733pnB8_gAz3NdJEDUGhDWr_WK0]--></g></svg>