<?xml version="1.0" encoding="us-ascii" standalone="no"?><svg xmlns="http://www.w3.org/2000/svg" xmlns:xlink="http://www.w3.org/1999/xlink" contentStyleType="text/css" height="1641px" preserveAspectRatio="none" style="width:461px;height:1641px;background:#FFFFFF;" version="1.1" viewBox="0 0 461 1641" width="461px" zoomAndPan="magnify"><defs/><g><text fill="#000000" font-family="Verdana" font-size="22" font-weight="bold" lengthAdjust="spacing" textLength="348" x="55" y="37.1182">AD03: SINH VI&#202;N N&#7896;P &#272;&#416;N</text><rect fill="#FFFFFF" height="21.876" style="stroke:#FFFFFF;stroke-width:1.0;" width="442" x="6" y="55.0166"/><rect fill="#B3E5FC" height="1490.2258" style="stroke:#B3E5FC;stroke-width:1.0;" width="214" x="23" y="55.0166"/><ellipse cx="127" cy="91.8926" fill="#FFFFFF" rx="10" ry="10" style="stroke:#000000;stroke-width:1.0;"/><rect fill="#FFFFFF" height="33.3687" rx="12.5" ry="12.5" style="stroke:#000000;stroke-width:1.0;" width="196" x="29" y="121.8926"/><text fill="#000000" font-family="Verdana" font-size="11" lengthAdjust="spacing" textLength="176" x="39" y="142.9517">V&#224;o trang "N&#7897;p &#273;&#417;n xin h&#7895; tr&#7907;"</text><rect fill="#FFFFFF" height="46.7373" rx="12.5" ry="12.5" style="stroke:#000000;stroke-width:1.0;" width="133" x="60.5" y="175.2612"/><text fill="#000000" font-family="Verdana" font-size="11" lengthAdjust="spacing" textLength="113" x="70.5" y="196.3203">Xem danh s&#225;ch qu&#7929;</text><text fill="#000000" font-family="Verdana" font-size="11" lengthAdjust="spacing" textLength="89" x="70.5" y="209.689">&#273;ang ho&#7841;t &#273;&#7897;ng</text><rect fill="#FFFFFF" height="33.3687" rx="12.5" ry="12.5" style="stroke:#000000;stroke-width:1.0;" width="170" x="42" y="308.7358"/><text fill="#000000" font-family="Verdana" font-size="11" lengthAdjust="spacing" textLength="150" x="52" y="329.7949">Ch&#7885;n qu&#7929; mu&#7889;n xin h&#7895; tr&#7907;</text><rect fill="#FFFFFF" height="73.4746" rx="12.5" ry="12.5" style="stroke:#000000;stroke-width:1.0;" width="127" x="63.5" y="362.1045"/><text fill="#000000" font-family="Verdana" font-size="11" lengthAdjust="spacing" textLength="105" x="73.5" y="383.1636">&#272;i&#7873;n th&#244;ng tin &#273;&#417;n</text><text fill="#000000" font-family="Verdana" font-size="11" lengthAdjust="spacing" textLength="99" x="73.5" y="396.5322">- L&#253; do xin h&#7895; tr&#7907;</text><text fill="#000000" font-family="Verdana" font-size="11" lengthAdjust="spacing" textLength="95" x="73.5" y="409.9009">- S&#7889; ti&#7873;n &#273;&#7873; ngh&#7883;</text><text fill="#000000" font-family="Verdana" font-size="11" lengthAdjust="spacing" textLength="107" x="73.5" y="423.2695">- T&#224;i li&#7879;u &#273;&#237;nh k&#232;m</text><rect fill="#FFFFFF" height="33.3687" rx="12.5" ry="12.5" style="stroke:#000000;stroke-width:1.0;" width="110" x="72" y="455.5791"/><text fill="#000000" font-family="Verdana" font-size="11" lengthAdjust="spacing" textLength="90" x="82" y="476.6382">Nh&#7845;n "N&#7897;p &#273;&#417;n"</text><rect fill="#FFFFFF" height="46.7373" rx="12.5" ry="12.5" style="stroke:#000000;stroke-width:1.0;" width="126" x="64" y="1323.0305"/><text fill="#000000" font-family="Verdana" font-size="11" lengthAdjust="spacing" textLength="90" x="74" y="1344.0896">Nh&#7853;n th&#244;ng b&#225;o</text><text fill="#000000" font-family="Verdana" font-size="11" lengthAdjust="spacing" textLength="106" x="74" y="1357.4583">&#273;&#227; n&#7897;p th&#224;nh c&#244;ng</text><rect fill="#FFFFFF" height="46.7373" rx="12.5" ry="12.5" style="stroke:#000000;stroke-width:1.0;" width="110" x="72" y="1389.7678"/><text fill="#000000" font-family="Verdana" font-size="11" lengthAdjust="spacing" textLength="90" x="82" y="1410.8269">Hi&#7875;n th&#7883; m&#227; &#273;&#417;n</text><text fill="#000000" font-family="Verdana" font-size="11" lengthAdjust="spacing" textLength="73" x="82" y="1424.1956">v&#224; tr&#7841;ng th&#225;i</text><rect fill="#FFFFFF" height="46.7373" rx="12.5" ry="12.5" style="stroke:#000000;stroke-width:1.0;" width="123" x="65.5" y="1456.5051"/><text fill="#000000" font-family="Verdana" font-size="11" lengthAdjust="spacing" textLength="103" x="75.5" y="1477.5642">Chuy&#7875;n &#273;&#7871;n trang</text><text fill="#000000" font-family="Verdana" font-size="11" lengthAdjust="spacing" textLength="75" x="75.5" y="1490.9329">"&#272;&#417;n c&#7911;a t&#244;i"</text><ellipse cx="127" cy="1534.2424" fill="none" rx="11" ry="11" style="stroke:#000000;stroke-width:1.0;"/><ellipse cx="127" cy="1534.2424" fill="#FFFFFF" rx="6" ry="6" style="stroke:#000000;stroke-width:1.0;"/><line style="stroke:#000000;stroke-width:1.0;" x1="23" x2="23" y1="55.0166" y2="1545.2424"/><rect fill="#F5F5F5" height="1490.2258" style="stroke:#F5F5F5;stroke-width:1.0;" width="191" x="243" y="55.0166"/><rect fill="#FFFFFF" height="46.7373" rx="12.5" ry="12.5" style="stroke:#000000;stroke-width:1.0;" width="127" x="268.5" y="241.9985"/><text fill="#000000" font-family="Verdana" font-size="11" lengthAdjust="spacing" textLength="107" x="278.5" y="263.0576">L&#7845;y danh s&#225;ch qu&#7929;</text><text fill="#000000" font-family="Verdana" font-size="11" lengthAdjust="spacing" textLength="50" x="278.5" y="276.4263">&#273;ang m&#7903;</text><rect fill="#FFFFFF" height="33.3687" rx="12.5" ry="12.5" style="stroke:#000000;stroke-width:1.0;" width="123" x="270.5" y="508.9478"/><text fill="#000000" font-family="Verdana" font-size="11" lengthAdjust="spacing" textLength="103" x="280.5" y="530.0068">Ki&#7875;m tra th&#244;ng tin</text><rect fill="#FFFFFF" height="60.106" rx="12.5" ry="12.5" style="stroke:#000000;stroke-width:1.0;" width="140" x="262" y="611.0007"/><text fill="#000000" font-family="Verdana" font-size="11" lengthAdjust="spacing" textLength="60" x="272" y="632.0598">Hi&#7875;n th&#7883; l&#7895;i</text><text fill="#000000" font-family="Verdana" font-size="11" lengthAdjust="spacing" textLength="116" x="272" y="645.4285">Thi&#7871;u th&#244;ng tin ho&#7863;c</text><text fill="#000000" font-family="Verdana" font-size="11" lengthAdjust="spacing" textLength="74" x="272" y="658.7971">kh&#244;ng h&#7907;p l&#7879;</text><ellipse cx="332" cy="702.1067" fill="none" rx="11" ry="11" style="stroke:#000000;stroke-width:1.0;"/><ellipse cx="332" cy="702.1067" fill="#FFFFFF" rx="6" ry="6" style="stroke:#000000;stroke-width:1.0;"/><polygon fill="#FFFFFF" points="289.5,562.3164,374.5,562.3164,386.5,574.3164,374.5,586.3164,289.5,586.3164,277.5,574.3164,289.5,562.3164" style="stroke:#000000;stroke-width:1.0;"/><text fill="#000000" font-family="Verdana" font-size="11" lengthAdjust="spacing" textLength="36" x="336" y="597.3755">Kh&#244;ng</text><text fill="#000000" font-family="Verdana" font-size="11" lengthAdjust="spacing" textLength="85" x="289.5" y="578.6912">D&#7919; li&#7879;u h&#7907;p l&#7879;?</text><rect fill="#FFFFFF" height="46.7373" rx="12.5" ry="12.5" style="stroke:#000000;stroke-width:1.0;" width="121" x="271.5" y="803.791"/><text fill="#000000" font-family="Verdana" font-size="11" lengthAdjust="spacing" textLength="89" x="281.5" y="824.8501">Th&#244;ng b&#225;o v&#432;&#7907;t</text><text fill="#000000" font-family="Verdana" font-size="11" lengthAdjust="spacing" textLength="101" x="281.5" y="838.2188">gi&#7899;i h&#7841;n cho ph&#233;p</text><ellipse cx="332" cy="883.6597" fill="none" rx="11" ry="11" style="stroke:#000000;stroke-width:1.0;"/><ellipse cx="332" cy="883.6597" fill="#FFFFFF" rx="6" ry="6" style="stroke:#000000;stroke-width:1.0;"/><polygon fill="#FFFFFF" points="270,755.1067,394,755.1067,406,767.1067,394,779.1067,270,779.1067,258,767.1067,270,755.1067" style="stroke:#000000;stroke-width:1.0;"/><text fill="#000000" font-family="Verdana" font-size="11" lengthAdjust="spacing" textLength="16" x="336" y="790.1658">C&#243;</text><text fill="#000000" font-family="Verdana" font-size="11" lengthAdjust="spacing" textLength="124" x="270" y="771.4814">S&#7889; ti&#7873;n v&#432;&#7907;t gi&#7899;i h&#7841;n?</text><rect fill="#FFFFFF" height="60.106" rx="12.5" ry="12.5" style="stroke:#000000;stroke-width:1.0;" width="133" x="265.5" y="985.344"/><text fill="#000000" font-family="Verdana" font-size="11" lengthAdjust="spacing" textLength="80" x="275.5" y="1006.4031">C&#7843;nh b&#225;o qu&#7929;</text><text fill="#000000" font-family="Verdana" font-size="11" lengthAdjust="spacing" textLength="88" x="275.5" y="1019.7717">kh&#244;ng &#273;&#7911; s&#7889; d&#432;</text><text fill="#000000" font-family="Verdana" font-size="11" lengthAdjust="spacing" textLength="113" x="275.5" y="1033.1404">(V&#7851;n cho ph&#233;p n&#7897;p)</text><polygon fill="#FFFFFF" points="291,936.6597,373,936.6597,385,948.6597,373,960.6597,291,960.6597,279,948.6597,291,936.6597" style="stroke:#000000;stroke-width:1.0;"/><text fill="#000000" font-family="Verdana" font-size="11" lengthAdjust="spacing" textLength="36" x="336" y="971.7188">Kh&#244;ng</text><text fill="#000000" font-family="Verdana" font-size="11" lengthAdjust="spacing" textLength="82" x="291" y="953.0344">Qu&#7929; &#273;&#7911; s&#7889; d&#432;?</text><polygon fill="#FFFFFF" points="332,1065.45,344,1077.45,332,1089.45,320,1077.45,332,1065.45" style="stroke:#000000;stroke-width:1.0;"/><rect fill="#FFFFFF" height="33.3687" rx="12.5" ry="12.5" style="stroke:#000000;stroke-width:1.0;" width="144" x="260" y="1109.45"/><text fill="#000000" font-family="Verdana" font-size="11" lengthAdjust="spacing" textLength="124" x="270" y="1130.509">L&#432;u &#273;&#417;n v&#224;o h&#7879; th&#7889;ng</text><rect fill="#FFFFFF" height="46.7373" rx="12.5" ry="12.5" style="stroke:#000000;stroke-width:1.0;" width="124" x="270" y="1162.8186"/><text fill="#000000" font-family="Verdana" font-size="11" lengthAdjust="spacing" textLength="79" x="280" y="1183.8777">&#272;&#7863;t tr&#7841;ng th&#225;i</text><text fill="#000000" font-family="Verdana" font-size="11" lengthAdjust="spacing" textLength="104" x="280" y="1197.2463">"Ch&#7901; duy&#7879;t c&#7845;p 1"</text><rect fill="#FFFFFF" height="73.4746" rx="12.5" ry="12.5" style="stroke:#000000;stroke-width:1.0;" width="144" x="260" y="1229.5559"/><text fill="#000000" font-family="Verdana" font-size="11" lengthAdjust="spacing" textLength="124" x="270" y="1250.615">T&#7841;o 3 b&#432;&#7899;c ph&#234; duy&#7879;t</text><text fill="#000000" font-family="Verdana" font-size="11" lengthAdjust="spacing" textLength="98" x="270" y="1263.9836">- C&#7845;p 1 (C&#225;n b&#7897;)</text><text fill="#000000" font-family="Verdana" font-size="11" lengthAdjust="spacing" textLength="98" x="270" y="1277.3523">- C&#7845;p 2 (C&#225;n b&#7897;)</text><text fill="#000000" font-family="Verdana" font-size="11" lengthAdjust="spacing" textLength="101" x="270" y="1290.7209">- C&#7845;p 3 (K&#7871; to&#225;n)</text><line style="stroke:#000000;stroke-width:1.0;" x1="243" x2="243" y1="55.0166" y2="1545.2424"/><line style="stroke:#000000;stroke-width:1.0;" x1="449" x2="449" y1="55.0166" y2="1545.2424"/><line style="stroke:#000000;stroke-width:1.0;" x1="127" x2="127" y1="101.8926" y2="121.8926"/><polygon fill="#000000" points="123,111.8926,127,121.8926,131,111.8926,127,115.8926" style="stroke:#000000;stroke-width:1.0;"/><line style="stroke:#000000;stroke-width:1.0;" x1="127" x2="127" y1="155.2612" y2="175.2612"/><polygon fill="#000000" points="123,165.2612,127,175.2612,131,165.2612,127,169.2612" style="stroke:#000000;stroke-width:1.0;"/><line style="stroke:#000000;stroke-width:1.0;" x1="127" x2="127" y1="342.1045" y2="362.1045"/><polygon fill="#000000" points="123,352.1045,127,362.1045,131,352.1045,127,356.1045" style="stroke:#000000;stroke-width:1.0;"/><line style="stroke:#000000;stroke-width:1.0;" x1="127" x2="127" y1="435.5791" y2="455.5791"/><polygon fill="#000000" points="123,445.5791,127,455.5791,131,445.5791,127,449.5791" style="stroke:#000000;stroke-width:1.0;"/><line style="stroke:#000000;stroke-width:1.0;" x1="127" x2="127" y1="1369.7678" y2="1389.7678"/><polygon fill="#000000" points="123,1379.7678,127,1389.7678,131,1379.7678,127,1383.7678" style="stroke:#000000;stroke-width:1.0;"/><line style="stroke:#000000;stroke-width:1.0;" x1="127" x2="127" y1="1436.5051" y2="1456.5051"/><polygon fill="#000000" points="123,1446.5051,127,1456.5051,131,1446.5051,127,1450.5051" style="stroke:#000000;stroke-width:1.0;"/><line style="stroke:#000000;stroke-width:1.0;" x1="127" x2="127" y1="1503.2424" y2="1523.2424"/><polygon fill="#000000" points="123,1513.2424,127,1523.2424,131,1513.2424,127,1517.2424" style="stroke:#000000;stroke-width:1.0;"/><line style="stroke:#000000;stroke-width:1.0;" x1="332" x2="332" y1="671.1067" y2="691.1067"/><polygon fill="#000000" points="328,681.1067,332,691.1067,336,681.1067,332,685.1067" style="stroke:#000000;stroke-width:1.0;"/><line style="stroke:#000000;stroke-width:1.0;" x1="332" x2="332" y1="586.3164" y2="611.0007"/><polygon fill="#000000" points="328,601.0007,332,611.0007,336,601.0007,332,605.0007" style="stroke:#000000;stroke-width:1.0;"/><line style="stroke:#000000;stroke-width:1.0;" x1="386.5" x2="412" y1="574.3164" y2="574.3164"/><polygon fill="#000000" points="408,656.5537,412,666.5537,416,656.5537,412,660.5537" style="stroke:#000000;stroke-width:1.0;"/><line style="stroke:#000000;stroke-width:1.0;" x1="412" x2="412" y1="574.3164" y2="735.1067"/><line style="stroke:#000000;stroke-width:1.0;" x1="412" x2="332" y1="735.1067" y2="735.1067"/><line style="stroke:#000000;stroke-width:1.0;" x1="332" x2="332" y1="735.1067" y2="755.1067"/><polygon fill="#000000" points="328,745.1067,332,755.1067,336,745.1067,332,749.1067" style="stroke:#000000;stroke-width:1.0;"/><line style="stroke:#000000;stroke-width:1.0;" x1="332" x2="332" y1="542.3164" y2="562.3164"/><polygon fill="#000000" points="328,552.3164,332,562.3164,336,552.3164,332,556.3164" style="stroke:#000000;stroke-width:1.0;"/><line style="stroke:#000000;stroke-width:1.0;" x1="332" x2="332" y1="850.5283" y2="872.6597"/><polygon fill="#000000" points="328,862.6597,332,872.6597,336,862.6597,332,866.6597" style="stroke:#000000;stroke-width:1.0;"/><line style="stroke:#000000;stroke-width:1.0;" x1="332" x2="332" y1="779.1067" y2="803.791"/><polygon fill="#000000" points="328,793.791,332,803.791,336,793.791,332,797.791" style="stroke:#000000;stroke-width:1.0;"/><line style="stroke:#000000;stroke-width:1.0;" x1="406" x2="418" y1="767.1067" y2="767.1067"/><polygon fill="#000000" points="414,842.6597,418,852.6597,422,842.6597,418,846.6597" style="stroke:#000000;stroke-width:1.0;"/><line style="stroke:#000000;stroke-width:1.0;" x1="418" x2="418" y1="767.1067" y2="916.6597"/><line style="stroke:#000000;stroke-width:1.0;" x1="418" x2="332" y1="916.6597" y2="916.6597"/><line style="stroke:#000000;stroke-width:1.0;" x1="332" x2="332" y1="916.6597" y2="936.6597"/><polygon fill="#000000" points="328,926.6597,332,936.6597,336,926.6597,332,930.6597" style="stroke:#000000;stroke-width:1.0;"/><line style="stroke:#000000;stroke-width:1.0;" x1="332" x2="332" y1="960.6597" y2="985.344"/><polygon fill="#000000" points="328,975.344,332,985.344,336,975.344,332,979.344" style="stroke:#000000;stroke-width:1.0;"/><line style="stroke:#000000;stroke-width:1.0;" x1="385" x2="408.5" y1="948.6597" y2="948.6597"/><polygon fill="#000000" points="404.5,1005.397,408.5,1015.397,412.5,1005.397,408.5,1009.397" style="stroke:#000000;stroke-width:1.0;"/><line style="stroke:#000000;stroke-width:1.0;" x1="408.5" x2="408.5" y1="948.6597" y2="1077.45"/><line style="stroke:#000000;stroke-width:1.0;" x1="408.5" x2="344" y1="1077.45" y2="1077.45"/><polygon fill="#000000" points="354,1073.45,344,1077.45,354,1081.45,350,1077.45" style="stroke:#000000;stroke-width:1.0;"/><line style="stroke:#000000;stroke-width:1.0;" x1="332" x2="332" y1="1045.45" y2="1065.45"/><polygon fill="#000000" points="328,1055.45,332,1065.45,336,1055.45,332,1059.45" style="stroke:#000000;stroke-width:1.0;"/><line style="stroke:#000000;stroke-width:1.0;" x1="332" x2="332" y1="1089.45" y2="1109.45"/><polygon fill="#000000" points="328,1099.45,332,1109.45,336,1099.45,332,1103.45" style="stroke:#000000;stroke-width:1.0;"/><line style="stroke:#000000;stroke-width:1.0;" x1="332" x2="332" y1="1142.8186" y2="1162.8186"/><polygon fill="#000000" points="328,1152.8186,332,1162.8186,336,1152.8186,332,1156.8186" style="stroke:#000000;stroke-width:1.0;"/><line style="stroke:#000000;stroke-width:1.0;" x1="332" x2="332" y1="1209.5559" y2="1229.5559"/><polygon fill="#000000" points="328,1219.5559,332,1229.5559,336,1219.5559,332,1223.5559" style="stroke:#000000;stroke-width:1.0;"/><line style="stroke:#000000;stroke-width:1.0;" x1="127" x2="127" y1="221.9985" y2="226.9985"/><line style="stroke:#000000;stroke-width:1.0;" x1="127" x2="332" y1="226.9985" y2="226.9985"/><line style="stroke:#000000;stroke-width:1.0;" x1="332" x2="332" y1="226.9985" y2="241.9985"/><polygon fill="#000000" points="328,231.9985,332,241.9985,336,231.9985,332,235.9985" style="stroke:#000000;stroke-width:1.0;"/><line style="stroke:#000000;stroke-width:1.0;" x1="332" x2="332" y1="288.7358" y2="293.7358"/><line style="stroke:#000000;stroke-width:1.0;" x1="332" x2="127" y1="293.7358" y2="293.7358"/><line style="stroke:#000000;stroke-width:1.0;" x1="127" x2="127" y1="293.7358" y2="308.7358"/><polygon fill="#000000" points="123,298.7358,127,308.7358,131,298.7358,127,302.7358" style="stroke:#000000;stroke-width:1.0;"/><line style="stroke:#000000;stroke-width:1.0;" x1="127" x2="127" y1="488.9478" y2="493.9478"/><line style="stroke:#000000;stroke-width:1.0;" x1="127" x2="332" y1="493.9478" y2="493.9478"/><line style="stroke:#000000;stroke-width:1.0;" x1="332" x2="332" y1="493.9478" y2="508.9478"/><polygon fill="#000000" points="328,498.9478,332,508.9478,336,498.9478,332,502.9478" style="stroke:#000000;stroke-width:1.0;"/><line style="stroke:#000000;stroke-width:1.0;" x1="332" x2="332" y1="1303.0305" y2="1308.0305"/><line style="stroke:#000000;stroke-width:1.0;" x1="332" x2="127" y1="1308.0305" y2="1308.0305"/><line style="stroke:#000000;stroke-width:1.0;" x1="127" x2="127" y1="1308.0305" y2="1323.0305"/><polygon fill="#000000" points="123,1313.0305,127,1323.0305,131,1313.0305,127,1317.0305" style="stroke:#000000;stroke-width:1.0;"/><text fill="#000000" font-family="Verdana" font-size="18" lengthAdjust="spacing" textLength="83" x="84.5" y="73.1133">Sinh vi&#234;n</text><text fill="#000000" font-family="Verdana" font-size="18" lengthAdjust="spacing" textLength="82" x="296.5" y="73.1133">H&#7879; th&#7889;ng</text><rect fill="none" height="78.0586" id="_legend" rx="7.5" ry="7.5" style="stroke:#000000;stroke-width:1.0;" width="304" x="144" y="1550.2424"/><text fill="#000000" font-family="Verdana" font-size="14" font-weight="bold" lengthAdjust="spacing" textLength="56" x="149" y="1569.3176">Quy&#7873;n:</text><text fill="#000000" font-family="Verdana" font-size="14" lengthAdjust="spacing" textLength="121" x="210" y="1569.3176">Sinh vi&#234;n (role 4)</text><text fill="#000000" font-family="Verdana" font-size="14" font-weight="bold" lengthAdjust="spacing" textLength="35" x="149" y="1586.3323">API:</text><text fill="#000000" font-family="Verdana" font-size="14" lengthAdjust="spacing" textLength="157" x="189" y="1586.3323">POST /api/applications</text><text fill="#000000" font-family="Verdana" font-size="14" font-weight="bold" lengthAdjust="spacing" textLength="154" x="149" y="1603.3469">Tr&#7841;ng th&#225;i ban &#273;&#7847;u:</text><text fill="#000000" font-family="Verdana" font-size="14" lengthAdjust="spacing" textLength="116" x="308" y="1603.3469">Ch&#7901; duy&#7879;t c&#7845;p 1</text><text fill="#000000" font-family="Verdana" font-size="14" font-weight="bold" lengthAdjust="spacing" textLength="120" x="149" y="1620.3616">B&#432;&#7899;c ti&#7871;p theo:</text><text fill="#000000" font-family="Verdana" font-size="14" lengthAdjust="spacing" textLength="169" x="274" y="1620.3616">C&#225;n b&#7897; ph&#234; duy&#7879;t c&#7845;p 1</text><!--SRC=[VLJFInjH4Bw_ls8QByb2gJ_gPNCe6XiK9LKIRA-RpRhxoExRRV8shIKNyI1K2dgoHKeJGh6rI8KAfLcAXmtvF_O_wSnk4ZSIgmXnvljcllbcNXv9ot0Cy6oD2zQiS-5f3Ss1ggRNpORhYrh1jTq6p1NZdnH2qoLlSRbVT8KiytS6B2oaiiqttB4rORpaDMd1ul8yOv9Bsm15MLcRNrAXl55QXzsDy7q9Ib7mSHi69yDEIL4OQy-jBZrVBXRQPIuiQF7mKhHPKseDoTJTiEE2R6Z2X0pIFdamE1rs1Rpb0gmeECDS5FGoUQQ-CXoeQLYW6NPr2rxxKV07sE2Kg9ORzRiIgLX1c7bgMLoct_Pw51o1n4gdmcmpTIlgVzr_i8mJ1L_o3-XL2rZaWnWH79ygtbE98WSdF0eE17OCRx2Wn7my3tiCM-5VgBdtA1WlOoK4nZGQu024YO1ZJ5N23WSRKqS-fi8hL5CFlpdOfsJX86BAiin_njx46eSE-PnIXdY-1zcrAFWvReA4dWSsVdwMGwGX8BiPutCCG5sdAY8kUqoWCuxHYiMZ_gsVdfYsyLi7JDQJu5tPF0QRqlMO8MfyBn6GDg0rl4Qi11F_FUT8x7V5H4eX_1Nhg2HLgs7NdH0mdkQ0RhdWMU5tRrR7dNY7PFO5DAbxRNWzQ-12rE-Xvt6ZqQ5CPffcOpox6_L_f1g3eDtaykF6wjRmsXzTTukktahjA3uTT4tIMQ1-a_piSc0PEhlFKFFt4Ir1nxLxi43leO8u5vQWIWwSwzJqSep3soaaI78D6rPHIsuINPmPNSBPSPKWNSpb7dm7T7fNamkFlS7d4_QIUIdUGRHEMLGvTJCEeX8363emFMgUNXYfFuoVGVzMZBuMM0Q_I6YZw3UURtZ3SVfueymsJ3GN6joq95EK7Q8V25LHu4unP1ikVaizpI5WPNk3ajiloXLuedaS_poRwvhahcXYlZBbVLLBb5puH9gv1-IiZkoNz0neVCEDuMD_f_OouQ7iH3px1m00]--></g></svg>