<?xml version="1.0" encoding="us-ascii" standalone="no"?><svg xmlns="http://www.w3.org/2000/svg" xmlns:xlink="http://www.w3.org/1999/xlink" contentStyleType="text/css" height="1979px" preserveAspectRatio="none" style="width:868px;height:1979px;background:#FFFFFF;" version="1.1" viewBox="0 0 868 1979" width="868px" zoomAndPan="magnify"><defs/><g><text fill="#000000" font-family="Verdana" font-size="22" font-weight="bold" lengthAdjust="spacing" textLength="369" x="248" y="37.1182">SD03: PH&#202; DUY&#7878;T &#272;&#416;N C&#7844;P 1</text><rect fill="#FFFFFF" height="1615.4663" style="stroke:#000000;stroke-width:1.0;" width="10" x="264.5" y="162.5513"/><rect fill="#FFFFFF" height="105.1973" style="stroke:#000000;stroke-width:1.0;" width="10" x="532.5" y="192.3506"/><rect fill="#FFFFFF" height="89.3979" style="stroke:#000000;stroke-width:1.0;" width="10" x="532.5" y="357.1465"/><rect fill="#FFFFFF" height="610.9536" style="stroke:#000000;stroke-width:1.0;" width="10" x="532.5" y="639.939"/><rect fill="#FFFFFF" height="258.9932" style="stroke:#000000;stroke-width:1.0;" width="10" x="532.5" y="1467.2251"/><rect fill="#FFFFFF" height="29.7993" style="stroke:#000000;stroke-width:1.0;" width="10" x="776.5" y="237.9492"/><rect fill="#FFFFFF" height="29.7993" style="stroke:#000000;stroke-width:1.0;" width="10" x="776.5" y="386.9458"/><rect fill="#FFFFFF" height="29.7993" style="stroke:#000000;stroke-width:1.0;" width="10" x="776.5" y="758.3369"/><rect fill="#FFFFFF" height="287.5918" style="stroke:#000000;stroke-width:1.0;" width="10" x="776.5" y="933.5015"/><rect fill="#FFFFFF" height="196.3945" style="stroke:#000000;stroke-width:1.0;" width="10" x="776.5" y="1500.0244"/><rect fill="#FFFFFF" height="1219.2759" style="stroke:#000000;stroke-width:1.0;" width="836" x="15" y="551.7417"/><rect fill="#FFFFFF" height="501.355" style="stroke:#000000;stroke-width:1.0;" width="816" x="25" y="803.1362"/><rect fill="#FFFFFF" height="408.1577" style="stroke:none;stroke-width:1.0;" width="816" x="25" y="896.3335"/><rect fill="#FFFFFF" height="459.5264" style="stroke:none;stroke-width:1.0;" width="836" x="15" y="1311.4912"/><rect fill="#FFFFFF" height="384.5591" style="stroke:#000000;stroke-width:1.0;" width="816" x="25" y="1379.4585"/><rect fill="#FFFFFF" height="336.9604" style="stroke:none;stroke-width:1.0;" width="816" x="25" y="1427.0571"/><line style="stroke:#000000;stroke-width:1.0;" x1="79" x2="79" y1="130.752" y2="1788.0176"/><line style="stroke:#000000;stroke-width:1.0;" x1="269" x2="269" y1="130.752" y2="1788.0176"/><line style="stroke:#000000;stroke-width:1.0;" x1="537" x2="537" y1="130.752" y2="1788.0176"/><line style="stroke:#000000;stroke-width:1.0;" x1="781" x2="781" y1="130.752" y2="1788.0176"/><text fill="#000000" font-family="Verdana" font-size="14" lengthAdjust="spacing" textLength="83" x="35" y="127.8125">C&#225;n b&#7897; Qu&#7929;</text><ellipse cx="79.5" cy="61.7373" fill="#FFFFFF" rx="8" ry="8" style="stroke:#000000;stroke-width:1.0;"/><path d="M79.5,69.7373 L79.5,96.7373 M66.5,77.7373 L92.5,77.7373 M79.5,96.7373 L66.5,111.7373 M79.5,96.7373 L92.5,111.7373 " fill="none" style="stroke:#000000;stroke-width:1.0;"/><text fill="#000000" font-family="Verdana" font-size="14" lengthAdjust="spacing" textLength="83" x="35" y="1801.0928">C&#225;n b&#7897; Qu&#7929;</text><ellipse cx="79.5" cy="1813.0322" fill="#FFFFFF" rx="8" ry="8" style="stroke:#000000;stroke-width:1.0;"/><path d="M79.5,1821.0322 L79.5,1848.0322 M66.5,1829.0322 L92.5,1829.0322 M79.5,1848.0322 L66.5,1863.0322 M79.5,1848.0322 L92.5,1863.0322 " fill="none" style="stroke:#000000;stroke-width:1.0;"/><rect fill="#FFFFFF" height="31.0146" rx="2.5" ry="2.5" style="stroke:#000000;stroke-width:1.0;" width="95" x="222" y="98.7373"/><text fill="#000000" font-family="Verdana" font-size="14" lengthAdjust="spacing" textLength="81" x="229" y="119.8125">Tr&#236;nh duy&#7879;t</text><rect fill="#FFFFFF" height="31.0146" rx="2.5" ry="2.5" style="stroke:#000000;stroke-width:1.0;" width="95" x="222" y="1787.0176"/><text fill="#000000" font-family="Verdana" font-size="14" lengthAdjust="spacing" textLength="81" x="229" y="1808.0928">Tr&#236;nh duy&#7879;t</text><rect fill="#FFFFFF" height="31.0146" rx="2.5" ry="2.5" style="stroke:#000000;stroke-width:1.0;" width="107" x="484" y="98.7373"/><text fill="#000000" font-family="Verdana" font-size="14" lengthAdjust="spacing" textLength="93" x="491" y="119.8125">API H&#7879; th&#7889;ng</text><rect fill="#FFFFFF" height="31.0146" rx="2.5" ry="2.5" style="stroke:#000000;stroke-width:1.0;" width="107" x="484" y="1787.0176"/><text fill="#000000" font-family="Verdana" font-size="14" lengthAdjust="spacing" textLength="93" x="491" y="1808.0928">API H&#7879; th&#7889;ng</text><text fill="#000000" font-family="Verdana" font-size="14" lengthAdjust="spacing" textLength="93" x="732" y="127.8125">C&#417; s&#7903; d&#7919; li&#7879;u</text><path d="M763.5,77.7373 C763.5,67.7373 781.5,67.7373 781.5,67.7373 C781.5,67.7373 799.5,67.7373 799.5,77.7373 L799.5,103.7373 C799.5,113.7373 781.5,113.7373 781.5,113.7373 C781.5,113.7373 763.5,113.7373 763.5,103.7373 L763.5,77.7373 " fill="#FFFFFF" style="stroke:#000000;stroke-width:1.5;"/><path d="M763.5,77.7373 C763.5,87.7373 781.5,87.7373 781.5,87.7373 C781.5,87.7373 799.5,87.7373 799.5,77.7373 " fill="none" style="stroke:#000000;stroke-width:1.5;"/><text fill="#000000" font-family="Verdana" font-size="14" lengthAdjust="spacing" textLength="93" x="732" y="1801.0928">C&#417; s&#7903; d&#7919; li&#7879;u</text><path d="M763.5,1814.0322 C763.5,1804.0322 781.5,1804.0322 781.5,1804.0322 C781.5,1804.0322 799.5,1804.0322 799.5,1814.0322 L799.5,1840.0322 C799.5,1850.0322 781.5,1850.0322 781.5,1850.0322 C781.5,1850.0322 763.5,1850.0322 763.5,1840.0322 L763.5,1814.0322 " fill="#FFFFFF" style="stroke:#000000;stroke-width:1.5;"/><path d="M763.5,1814.0322 C763.5,1824.0322 781.5,1824.0322 781.5,1824.0322 C781.5,1824.0322 799.5,1824.0322 799.5,1814.0322 " fill="none" style="stroke:#000000;stroke-width:1.5;"/><rect fill="#FFFFFF" height="1615.4663" style="stroke:#000000;stroke-width:1.0;" width="10" x="264.5" y="162.5513"/><rect fill="#FFFFFF" height="105.1973" style="stroke:#000000;stroke-width:1.0;" width="10" x="532.5" y="192.3506"/><rect fill="#FFFFFF" height="89.3979" style="stroke:#000000;stroke-width:1.0;" width="10" x="532.5" y="357.1465"/><rect fill="#FFFFFF" height="610.9536" style="stroke:#000000;stroke-width:1.0;" width="10" x="532.5" y="639.939"/><rect fill="#FFFFFF" height="258.9932" style="stroke:#000000;stroke-width:1.0;" width="10" x="532.5" y="1467.2251"/><rect fill="#FFFFFF" height="29.7993" style="stroke:#000000;stroke-width:1.0;" width="10" x="776.5" y="237.9492"/><rect fill="#FFFFFF" height="29.7993" style="stroke:#000000;stroke-width:1.0;" width="10" x="776.5" y="386.9458"/><rect fill="#FFFFFF" height="29.7993" style="stroke:#000000;stroke-width:1.0;" width="10" x="776.5" y="758.3369"/><rect fill="#FFFFFF" height="287.5918" style="stroke:#000000;stroke-width:1.0;" width="10" x="776.5" y="933.5015"/><rect fill="#FFFFFF" height="196.3945" style="stroke:#000000;stroke-width:1.0;" width="10" x="776.5" y="1500.0244"/><polygon fill="#000000" points="252.5,158.5513,262.5,162.5513,252.5,166.5513,256.5,162.5513" style="stroke:#000000;stroke-width:1.0;"/><line style="stroke:#000000;stroke-width:1.0;" x1="79.5" x2="258.5" y1="162.5513" y2="162.5513"/><text fill="#000000" font-family="Verdana" font-size="13" lengthAdjust="spacing" textLength="159" x="92.5" y="157.8218">V&#224;o trang "Qu&#7843;n l&#253; &#273;&#417;n"</text><polygon fill="#000000" points="520.5,188.3506,530.5,192.3506,520.5,196.3506,524.5,192.3506" style="stroke:#000000;stroke-width:1.0;"/><line style="stroke:#000000;stroke-width:1.0;" x1="274.5" x2="526.5" y1="192.3506" y2="192.3506"/><text fill="#000000" font-family="Verdana" font-size="13" lengthAdjust="spacing" textLength="239" x="284" y="187.6211">L&#7845;y danh s&#225;ch &#273;&#417;n ch&#7901; duy&#7879;t c&#7845;p 1</text><polygon fill="#000000" points="764.5,233.9492,774.5,237.9492,764.5,241.9492,768.5,237.9492" style="stroke:#000000;stroke-width:1.0;"/><line style="stroke:#000000;stroke-width:1.0;" x1="542.5" x2="770.5" y1="237.9492" y2="237.9492"/><text fill="#000000" font-family="Verdana" font-size="13" lengthAdjust="spacing" textLength="179" x="570" y="217.4204">Truy v&#7845;n &#273;&#417;n c&#243; tr&#7841;ng th&#225;i</text><text fill="#000000" font-family="Verdana" font-size="13" lengthAdjust="spacing" textLength="120" x="599.5" y="233.2197">"Ch&#7901; duy&#7879;t c&#7845;p 1"</text><polygon fill="#000000" points="553.5,263.7485,543.5,267.7485,553.5,271.7485,549.5,267.7485" style="stroke:#000000;stroke-width:1.0;"/><line style="stroke:#000000;stroke-width:1.0;stroke-dasharray:2.0,2.0;" x1="547.5" x2="780.5" y1="267.7485" y2="267.7485"/><text fill="#000000" font-family="Verdana" font-size="13" lengthAdjust="spacing" textLength="98" x="613" y="263.019">Danh s&#225;ch &#273;&#417;n</text><polygon fill="#000000" points="285.5,293.5479,275.5,297.5479,285.5,301.5479,281.5,297.5479" style="stroke:#000000;stroke-width:1.0;"/><line style="stroke:#000000;stroke-width:1.0;stroke-dasharray:2.0,2.0;" x1="279.5" x2="536.5" y1="297.5479" y2="297.5479"/><text fill="#000000" font-family="Verdana" font-size="13" lengthAdjust="spacing" textLength="123" x="344.5" y="292.8184">Hi&#7875;n th&#7883; danh s&#225;ch</text><polygon fill="#000000" points="252.5,323.3472,262.5,327.3472,252.5,331.3472,256.5,327.3472" style="stroke:#000000;stroke-width:1.0;"/><line style="stroke:#000000;stroke-width:1.0;" x1="79.5" x2="258.5" y1="327.3472" y2="327.3472"/><text fill="#000000" font-family="Verdana" font-size="13" lengthAdjust="spacing" textLength="143" x="100.5" y="322.6177">Click v&#224;o &#273;&#417;n c&#7847;n x&#233;t</text><polygon fill="#000000" points="520.5,353.1465,530.5,357.1465,520.5,361.1465,524.5,357.1465" style="stroke:#000000;stroke-width:1.0;"/><line style="stroke:#000000;stroke-width:1.0;" x1="274.5" x2="526.5" y1="357.1465" y2="357.1465"/><text fill="#000000" font-family="Verdana" font-size="13" lengthAdjust="spacing" textLength="104" x="351.5" y="352.417">L&#7845;y chi ti&#7871;t &#273;&#417;n</text><polygon fill="#000000" points="764.5,382.9458,774.5,386.9458,764.5,390.9458,768.5,386.9458" style="stroke:#000000;stroke-width:1.0;"/><line style="stroke:#000000;stroke-width:1.0;" x1="542.5" x2="770.5" y1="386.9458" y2="386.9458"/><text fill="#000000" font-family="Verdana" font-size="13" lengthAdjust="spacing" textLength="174" x="572.5" y="382.2163">Truy v&#7845;n th&#244;ng tin &#273;&#7847;y &#273;&#7911;</text><polygon fill="#000000" points="553.5,412.7451,543.5,416.7451,553.5,420.7451,549.5,416.7451" style="stroke:#000000;stroke-width:1.0;"/><line style="stroke:#000000;stroke-width:1.0;stroke-dasharray:2.0,2.0;" x1="547.5" x2="780.5" y1="416.7451" y2="416.7451"/><text fill="#000000" font-family="Verdana" font-size="13" lengthAdjust="spacing" textLength="143" x="590.5" y="412.0156">Chi ti&#7871;t &#273;&#417;n + T&#224;i li&#7879;u</text><polygon fill="#000000" points="285.5,442.5444,275.5,446.5444,285.5,450.5444,281.5,446.5444" style="stroke:#000000;stroke-width:1.0;"/><line style="stroke:#000000;stroke-width:1.0;stroke-dasharray:2.0,2.0;" x1="279.5" x2="536.5" y1="446.5444" y2="446.5444"/><text fill="#000000" font-family="Verdana" font-size="13" lengthAdjust="spacing" textLength="102" x="355" y="441.8149">Hi&#7875;n th&#7883; chi ti&#7871;t</text><line style="stroke:#000000;stroke-width:1.0;" x1="79.5" x2="121.5" y1="523.7417" y2="523.7417"/><line style="stroke:#000000;stroke-width:1.0;" x1="121.5" x2="121.5" y1="523.7417" y2="536.7417"/><line style="stroke:#000000;stroke-width:1.0;" x1="80.5" x2="121.5" y1="536.7417" y2="536.7417"/><polygon fill="#000000" points="90.5,532.7417,80.5,536.7417,90.5,540.7417,86.5,536.7417" style="stroke:#000000;stroke-width:1.0;"/><text fill="#000000" font-family="Verdana" font-size="13" lengthAdjust="spacing" textLength="83" x="106" y="471.6143">Xem x&#233;t &#273;&#417;n</text><text fill="#000000" font-family="Verdana" font-size="13" lengthAdjust="spacing" textLength="116" x="89.5" y="487.4136">- L&#253; do xin h&#7895; tr&#7907;</text><text fill="#000000" font-family="Verdana" font-size="13" lengthAdjust="spacing" textLength="122" x="86.5" y="503.2129">- T&#224;i li&#7879;u &#273;&#237;nh k&#232;m</text><text fill="#000000" font-family="Verdana" font-size="13" lengthAdjust="spacing" textLength="112" x="91.5" y="519.0122">- S&#7889; ti&#7873;n &#273;&#7873; ngh&#7883;</text><path d="M15,551.7417 L79,551.7417 L79,559.541 L69,569.541 L15,569.541 L15,551.7417 " fill="#FFFFFF" style="stroke:#000000;stroke-width:1.0;"/><rect fill="none" height="1219.2759" style="stroke:#000000;stroke-width:1.0;" width="836" x="15" y="551.7417"/><text fill="#000000" font-family="Verdana" font-size="13" font-weight="bold" lengthAdjust="spacing" textLength="19" x="30" y="565.8115">alt</text><text fill="#000000" font-family="Verdana" font-size="11" font-weight="bold" lengthAdjust="spacing" textLength="151" x="94" y="564.8008">[Quy&#7871;t &#273;&#7883;nh Ph&#234; duy&#7879;t]</text><polygon fill="#000000" points="252.5,603.1396,262.5,607.1396,252.5,611.1396,256.5,607.1396" style="stroke:#000000;stroke-width:1.0;"/><line style="stroke:#000000;stroke-width:1.0;" x1="79.5" x2="258.5" y1="607.1396" y2="607.1396"/><text fill="#000000" font-family="Verdana" font-size="13" lengthAdjust="spacing" textLength="148" x="98" y="586.6108">Nh&#7853;p ghi ch&#250; (n&#7871;u c&#243;)</text><text fill="#000000" font-family="Verdana" font-size="13" lengthAdjust="spacing" textLength="135" x="104.5" y="602.4102">v&#224; nh&#7845;n "Ph&#234; duy&#7879;t"</text><polygon fill="#000000" points="520.5,635.939,530.5,639.939,520.5,643.939,524.5,639.939" style="stroke:#000000;stroke-width:1.0;"/><line style="stroke:#000000;stroke-width:1.0;" x1="274.5" x2="526.5" y1="639.939" y2="639.939"/><text fill="#000000" font-family="Verdana" font-size="13" lengthAdjust="spacing" textLength="193" x="307" y="635.2095">G&#7917;i y&#234;u c&#7847;u ph&#234; duy&#7879;t c&#7845;p 1</text><path d="M547,620.1396 L547,645.1396 L828,645.1396 L828,630.1396 L818,620.1396 L547,620.1396 " fill="#FFFFFF" style="stroke:#000000;stroke-width:1.0;"/><path d="M818,620.1396 L818,630.1396 L828,630.1396 L818,620.1396 " fill="#FFFFFF" style="stroke:#000000;stroke-width:1.0;"/><text fill="#000000" font-family="Verdana" font-size="13" lengthAdjust="spacing" textLength="260" x="553" y="638.2095">PUT /api/applications/:id/staff-approve</text><line style="stroke:#000000;stroke-width:1.0;" x1="542.5" x2="584.5" y1="672.7383" y2="672.7383"/><line style="stroke:#000000;stroke-width:1.0;" x1="584.5" x2="584.5" y1="672.7383" y2="685.7383"/><line style="stroke:#000000;stroke-width:1.0;" x1="543.5" x2="584.5" y1="685.7383" y2="685.7383"/><polygon fill="#000000" points="553.5,681.7383,543.5,685.7383,553.5,689.7383,549.5,685.7383" style="stroke:#000000;stroke-width:1.0;"/><text fill="#000000" font-family="Verdana" font-size="13" lengthAdjust="spacing" textLength="103" x="549.5" y="668.0088">X&#225;c th&#7921;c token</text><line style="stroke:#000000;stroke-width:1.0;" x1="542.5" x2="584.5" y1="715.5376" y2="715.5376"/><line style="stroke:#000000;stroke-width:1.0;" x1="584.5" x2="584.5" y1="715.5376" y2="728.5376"/><line style="stroke:#000000;stroke-width:1.0;" x1="543.5" x2="584.5" y1="728.5376" y2="728.5376"/><polygon fill="#000000" points="553.5,724.5376,543.5,728.5376,553.5,732.5376,549.5,728.5376" style="stroke:#000000;stroke-width:1.0;"/><text fill="#000000" font-family="Verdana" font-size="13" lengthAdjust="spacing" textLength="204" x="549.5" y="710.8081">Ki&#7875;m tra quy&#7873;n C&#225;n b&#7897; (role 3)</text><polygon fill="#000000" points="764.5,754.3369,774.5,758.3369,764.5,762.3369,768.5,758.3369" style="stroke:#000000;stroke-width:1.0;"/><line style="stroke:#000000;stroke-width:1.0;" x1="542.5" x2="770.5" y1="758.3369" y2="758.3369"/><text fill="#000000" font-family="Verdana" font-size="13" lengthAdjust="spacing" textLength="153" x="583" y="753.6074">Ki&#7875;m tra tr&#7841;ng th&#225;i &#273;&#417;n</text><polygon fill="#000000" points="553.5,784.1362,543.5,788.1362,553.5,792.1362,549.5,788.1362" style="stroke:#000000;stroke-width:1.0;"/><line style="stroke:#000000;stroke-width:1.0;stroke-dasharray:2.0,2.0;" x1="547.5" x2="780.5" y1="788.1362" y2="788.1362"/><text fill="#000000" font-family="Verdana" font-size="13" lengthAdjust="spacing" textLength="122" x="601" y="783.4067">Tr&#7841;ng th&#225;i hi&#7879;n t&#7841;i</text><path d="M25,803.1362 L89,803.1362 L89,810.9355 L79,820.9355 L25,820.9355 L25,803.1362 " fill="#FFFFFF" style="stroke:#000000;stroke-width:1.0;"/><rect fill="none" height="501.355" style="stroke:#000000;stroke-width:1.0;" width="816" x="25" y="803.1362"/><text fill="#000000" font-family="Verdana" font-size="13" font-weight="bold" lengthAdjust="spacing" textLength="19" x="40" y="817.2061">alt</text><text fill="#000000" font-family="Verdana" font-size="11" font-weight="bold" lengthAdjust="spacing" textLength="277" x="104" y="816.1953">[Tr&#7841;ng th&#225;i kh&#244;ng ph&#7843;i "Ch&#7901; duy&#7879;t c&#7845;p 1"]</text><polygon fill="#000000" points="285.5,854.5342,275.5,858.5342,285.5,862.5342,281.5,858.5342" style="stroke:#000000;stroke-width:1.0;"/><line style="stroke:#000000;stroke-width:1.0;stroke-dasharray:2.0,2.0;" x1="279.5" x2="531.5" y1="858.5342" y2="858.5342"/><text fill="#000000" font-family="Verdana" font-size="13" lengthAdjust="spacing" textLength="89" x="359" y="838.0054">Th&#244;ng b&#225;o l&#7895;i</text><text fill="#000000" font-family="Verdana" font-size="13" lengthAdjust="spacing" textLength="131" x="338" y="853.8047">"&#272;&#417;n &#273;&#227; &#273;&#432;&#7907;c x&#7917; l&#253;"</text><polygon fill="#000000" points="90.5,884.3335,80.5,888.3335,90.5,892.3335,86.5,888.3335" style="stroke:#000000;stroke-width:1.0;"/><line style="stroke:#000000;stroke-width:1.0;stroke-dasharray:2.0,2.0;" x1="84.5" x2="263.5" y1="888.3335" y2="888.3335"/><text fill="#000000" font-family="Verdana" font-size="13" lengthAdjust="spacing" textLength="122" x="111" y="883.604">Hi&#7875;n th&#7883; th&#244;ng b&#225;o</text><line style="stroke:#000000;stroke-width:1.0;stroke-dasharray:2.0,2.0;" x1="25" x2="841" y1="897.3335" y2="897.3335"/><text fill="#000000" font-family="Verdana" font-size="11" font-weight="bold" lengthAdjust="spacing" textLength="123" x="30" y="908.3926">[Tr&#7841;ng th&#225;i h&#7907;p l&#7879;]</text><polygon fill="#000000" points="764.5,929.5015,774.5,933.5015,764.5,937.5015,768.5,933.5015" style="stroke:#000000;stroke-width:1.0;"/><line style="stroke:#000000;stroke-width:1.0;" x1="542.5" x2="770.5" y1="933.5015" y2="933.5015"/><text fill="#000000" font-family="Verdana" font-size="13" font-weight="bold" lengthAdjust="spacing" textLength="125" x="597" y="928.772">B&#7855;t &#273;&#7847;u giao d&#7883;ch</text><polygon fill="#000000" points="764.5,1022.498,774.5,1026.498,764.5,1030.498,768.5,1026.498" style="stroke:#000000;stroke-width:1.0;"/><line style="stroke:#000000;stroke-width:1.0;" x1="542.5" x2="770.5" y1="1026.498" y2="1026.498"/><text fill="#000000" font-family="Verdana" font-size="13" lengthAdjust="spacing" textLength="174" x="572.5" y="958.5713">C&#7853;p nh&#7853;t ph&#234; duy&#7879;t c&#7845;p 1</text><text fill="#000000" font-family="Verdana" font-size="13" lengthAdjust="spacing" textLength="113" x="603" y="974.3706">- K&#7871;t qu&#7843;: Duy&#7879;t</text><text fill="#000000" font-family="Verdana" font-size="13" lengthAdjust="spacing" textLength="92" x="613.5" y="990.1699">- Ng&#432;&#7901;i duy&#7879;t</text><text fill="#000000" font-family="Verdana" font-size="13" lengthAdjust="spacing" textLength="88" x="615.5" y="1005.9692">- Ng&#224;y duy&#7879;t</text><text fill="#000000" font-family="Verdana" font-size="13" lengthAdjust="spacing" textLength="61" x="629" y="1021.7686">- Ghi ch&#250;</text><polygon fill="#000000" points="553.5,1052.2974,543.5,1056.2974,553.5,1060.2974,549.5,1056.2974" style="stroke:#000000;stroke-width:1.0;"/><line style="stroke:#000000;stroke-width:1.0;stroke-dasharray:2.0,2.0;" x1="547.5" x2="775.5" y1="1056.2974" y2="1056.2974"/><text fill="#000000" font-family="Verdana" font-size="13" lengthAdjust="spacing" textLength="81" x="619" y="1051.5679">&#272;&#227; c&#7853;p nh&#7853;t</text><polygon fill="#000000" points="764.5,1097.896,774.5,1101.896,764.5,1105.896,768.5,1101.896" style="stroke:#000000;stroke-width:1.0;"/><line style="stroke:#000000;stroke-width:1.0;" x1="542.5" x2="770.5" y1="1101.896" y2="1101.896"/><text fill="#000000" font-family="Verdana" font-size="13" lengthAdjust="spacing" textLength="119" x="600" y="1081.3672">&#272;&#7893;i tr&#7841;ng th&#225;i &#273;&#417;n</text><text fill="#000000" font-family="Verdana" font-size="13" lengthAdjust="spacing" textLength="155" x="582" y="1097.1665">th&#224;nh "&#272;&#227; duy&#7879;t c&#7845;p 1"</text><polygon fill="#000000" points="553.5,1127.6953,543.5,1131.6953,553.5,1135.6953,549.5,1131.6953" style="stroke:#000000;stroke-width:1.0;"/><line style="stroke:#000000;stroke-width:1.0;stroke-dasharray:2.0,2.0;" x1="547.5" x2="775.5" y1="1131.6953" y2="1131.6953"/><text fill="#000000" font-family="Verdana" font-size="13" lengthAdjust="spacing" textLength="81" x="619" y="1126.9658">&#272;&#227; c&#7853;p nh&#7853;t</text><polygon fill="#000000" points="764.5,1157.4946,774.5,1161.4946,764.5,1165.4946,768.5,1161.4946" style="stroke:#000000;stroke-width:1.0;"/><line style="stroke:#000000;stroke-width:1.0;" x1="542.5" x2="770.5" y1="1161.4946" y2="1161.4946"/><text fill="#000000" font-family="Verdana" font-size="13" lengthAdjust="spacing" textLength="210" x="554.5" y="1156.7651">Chuy&#7875;n sang "Ch&#7901; duy&#7879;t c&#7845;p 2"</text><polygon fill="#000000" points="553.5,1187.2939,543.5,1191.2939,553.5,1195.2939,549.5,1191.2939" style="stroke:#000000;stroke-width:1.0;"/><line style="stroke:#000000;stroke-width:1.0;stroke-dasharray:2.0,2.0;" x1="547.5" x2="775.5" y1="1191.2939" y2="1191.2939"/><text fill="#000000" font-family="Verdana" font-size="13" lengthAdjust="spacing" textLength="81" x="619" y="1186.5645">&#272;&#227; c&#7853;p nh&#7853;t</text><polygon fill="#000000" points="769.5,1217.0933,779.5,1221.0933,769.5,1225.0933,773.5,1221.0933" style="stroke:#000000;stroke-width:1.0;"/><line style="stroke:#000000;stroke-width:1.0;" x1="542.5" x2="775.5" y1="1221.0933" y2="1221.0933"/><text fill="#000000" font-family="Verdana" font-size="13" font-weight="bold" lengthAdjust="spacing" textLength="136" x="594" y="1216.3638">X&#225;c nh&#7853;n giao d&#7883;ch</text><polygon fill="#000000" points="285.5,1246.8926,275.5,1250.8926,285.5,1254.8926,281.5,1250.8926" style="stroke:#000000;stroke-width:1.0;"/><line style="stroke:#000000;stroke-width:1.0;stroke-dasharray:2.0,2.0;" x1="279.5" x2="536.5" y1="1250.8926" y2="1250.8926"/><text fill="#000000" font-family="Verdana" font-size="13" lengthAdjust="spacing" textLength="150" x="331" y="1246.1631">Th&#244;ng b&#225;o th&#224;nh c&#244;ng</text><polygon fill="#000000" points="90.5,1292.4912,80.5,1296.4912,90.5,1300.4912,86.5,1296.4912" style="stroke:#000000;stroke-width:1.0;"/><line style="stroke:#000000;stroke-width:1.0;stroke-dasharray:2.0,2.0;" x1="84.5" x2="263.5" y1="1296.4912" y2="1296.4912"/><text fill="#000000" font-family="Verdana" font-size="13" lengthAdjust="spacing" textLength="94" x="125" y="1275.9624">"&#272;&#227; ph&#234; duy&#7879;t</text><text fill="#000000" font-family="Verdana" font-size="13" lengthAdjust="spacing" textLength="161" x="91.5" y="1291.7617">&#272;&#417;n chuy&#7875;n sang c&#7845;p 2"</text><line style="stroke:#000000;stroke-width:1.0;stroke-dasharray:2.0,2.0;" x1="15" x2="851" y1="1312.4912" y2="1312.4912"/><text fill="#000000" font-family="Verdana" font-size="11" font-weight="bold" lengthAdjust="spacing" textLength="133" x="20" y="1323.5503">[Quy&#7871;t &#273;&#7883;nh T&#7915; ch&#7889;i]</text><polygon fill="#000000" points="252.5,1360.4585,262.5,1364.4585,252.5,1368.4585,256.5,1364.4585" style="stroke:#000000;stroke-width:1.0;"/><line style="stroke:#000000;stroke-width:1.0;" x1="79.5" x2="258.5" y1="1364.4585" y2="1364.4585"/><text fill="#000000" font-family="Verdana" font-size="13" lengthAdjust="spacing" textLength="122" x="111" y="1343.9297">Nh&#7853;p l&#253; do t&#7915; ch&#7889;i</text><text fill="#000000" font-family="Verdana" font-size="13" lengthAdjust="spacing" textLength="79" x="132.5" y="1359.729">(B&#7854;T BU&#7896;C)</text><path d="M25,1379.4585 L89,1379.4585 L89,1387.2578 L79,1397.2578 L25,1397.2578 L25,1379.4585 " fill="#FFFFFF" style="stroke:#000000;stroke-width:1.0;"/><rect fill="none" height="384.5591" style="stroke:#000000;stroke-width:1.0;" width="816" x="25" y="1379.4585"/><text fill="#000000" font-family="Verdana" font-size="13" font-weight="bold" lengthAdjust="spacing" textLength="19" x="40" y="1393.5283">alt</text><text fill="#000000" font-family="Verdana" font-size="11" font-weight="bold" lengthAdjust="spacing" textLength="116" x="104" y="1392.5176">[Ch&#432;a nh&#7853;p l&#253; do]</text><polygon fill="#000000" points="90.5,1415.0571,80.5,1419.0571,90.5,1423.0571,86.5,1419.0571" style="stroke:#000000;stroke-width:1.0;"/><line style="stroke:#000000;stroke-width:1.0;stroke-dasharray:2.0,2.0;" x1="84.5" x2="263.5" y1="1419.0571" y2="1419.0571"/><text fill="#000000" font-family="Verdana" font-size="13" lengthAdjust="spacing" textLength="128" x="108" y="1414.3276">Y&#234;u c&#7847;u nh&#7853;p l&#253; do</text><line style="stroke:#000000;stroke-width:1.0;stroke-dasharray:2.0,2.0;" x1="25" x2="841" y1="1428.0571" y2="1428.0571"/><text fill="#000000" font-family="Verdana" font-size="11" font-weight="bold" lengthAdjust="spacing" textLength="101" x="30" y="1439.1162">[&#272;&#227; nh&#7853;p l&#253; do]</text><polygon fill="#000000" points="520.5,1463.2251,530.5,1467.2251,520.5,1471.2251,524.5,1467.2251" style="stroke:#000000;stroke-width:1.0;"/><line style="stroke:#000000;stroke-width:1.0;" x1="274.5" x2="526.5" y1="1467.2251" y2="1467.2251"/><text fill="#000000" font-family="Verdana" font-size="13" lengthAdjust="spacing" textLength="131" x="338" y="1462.4956">G&#7917;i y&#234;u c&#7847;u t&#7915; ch&#7889;i</text><path d="M547,1447.4258 L547,1472.4258 L828,1472.4258 L828,1457.4258 L818,1447.4258 L547,1447.4258 " fill="#FFFFFF" style="stroke:#000000;stroke-width:1.0;"/><path d="M818,1447.4258 L818,1457.4258 L828,1457.4258 L818,1447.4258 " fill="#FFFFFF" style="stroke:#000000;stroke-width:1.0;"/><text fill="#000000" font-family="Verdana" font-size="13" lengthAdjust="spacing" textLength="260" x="553" y="1465.4956">PUT /api/applications/:id/reject-level-1</text><polygon fill="#000000" points="764.5,1496.0244,774.5,1500.0244,764.5,1504.0244,768.5,1500.0244" style="stroke:#000000;stroke-width:1.0;"/><line style="stroke:#000000;stroke-width:1.0;" x1="542.5" x2="770.5" y1="1500.0244" y2="1500.0244"/><text fill="#000000" font-family="Verdana" font-size="13" font-weight="bold" lengthAdjust="spacing" textLength="125" x="597" y="1495.2949">B&#7855;t &#273;&#7847;u giao d&#7883;ch</text><polygon fill="#000000" points="764.5,1557.4224,774.5,1561.4224,764.5,1565.4224,768.5,1561.4224" style="stroke:#000000;stroke-width:1.0;"/><line style="stroke:#000000;stroke-width:1.0;" x1="542.5" x2="770.5" y1="1561.4224" y2="1561.4224"/><text fill="#000000" font-family="Verdana" font-size="13" lengthAdjust="spacing" textLength="174" x="572.5" y="1525.0942">C&#7853;p nh&#7853;t ph&#234; duy&#7879;t c&#7845;p 1</text><text fill="#000000" font-family="Verdana" font-size="13" lengthAdjust="spacing" textLength="124" x="597.5" y="1540.8936">- K&#7871;t qu&#7843;: T&#7915; ch&#7889;i</text><text fill="#000000" font-family="Verdana" font-size="13" lengthAdjust="spacing" textLength="100" x="609.5" y="1556.6929">- L&#253; do t&#7915; ch&#7889;i</text><polygon fill="#000000" points="553.5,1587.2217,543.5,1591.2217,553.5,1595.2217,549.5,1591.2217" style="stroke:#000000;stroke-width:1.0;"/><line style="stroke:#000000;stroke-width:1.0;stroke-dasharray:2.0,2.0;" x1="547.5" x2="775.5" y1="1591.2217" y2="1591.2217"/><text fill="#000000" font-family="Verdana" font-size="13" lengthAdjust="spacing" textLength="81" x="619" y="1586.4922">&#272;&#227; c&#7853;p nh&#7853;t</text><polygon fill="#000000" points="764.5,1632.8203,774.5,1636.8203,764.5,1640.8203,768.5,1636.8203" style="stroke:#000000;stroke-width:1.0;"/><line style="stroke:#000000;stroke-width:1.0;" x1="542.5" x2="770.5" y1="1636.8203" y2="1636.8203"/><text fill="#000000" font-family="Verdana" font-size="13" lengthAdjust="spacing" textLength="119" x="600" y="1616.2915">&#272;&#7893;i tr&#7841;ng th&#225;i &#273;&#417;n</text><text fill="#000000" font-family="Verdana" font-size="13" lengthAdjust="spacing" textLength="145" x="587" y="1632.0908">th&#224;nh "T&#7915; ch&#7889;i c&#7845;p 1"</text><polygon fill="#000000" points="553.5,1662.6196,543.5,1666.6196,553.5,1670.6196,549.5,1666.6196" style="stroke:#000000;stroke-width:1.0;"/><line style="stroke:#000000;stroke-width:1.0;stroke-dasharray:2.0,2.0;" x1="547.5" x2="775.5" y1="1666.6196" y2="1666.6196"/><text fill="#000000" font-family="Verdana" font-size="13" lengthAdjust="spacing" textLength="81" x="619" y="1661.8901">&#272;&#227; c&#7853;p nh&#7853;t</text><polygon fill="#000000" points="769.5,1692.4189,779.5,1696.4189,769.5,1700.4189,773.5,1696.4189" style="stroke:#000000;stroke-width:1.0;"/><line style="stroke:#000000;stroke-width:1.0;" x1="542.5" x2="775.5" y1="1696.4189" y2="1696.4189"/><text fill="#000000" font-family="Verdana" font-size="13" font-weight="bold" lengthAdjust="spacing" textLength="136" x="594" y="1691.6895">X&#225;c nh&#7853;n giao d&#7883;ch</text><polygon fill="#000000" points="285.5,1722.2183,275.5,1726.2183,285.5,1730.2183,281.5,1726.2183" style="stroke:#000000;stroke-width:1.0;"/><line style="stroke:#000000;stroke-width:1.0;stroke-dasharray:2.0,2.0;" x1="279.5" x2="536.5" y1="1726.2183" y2="1726.2183"/><text fill="#000000" font-family="Verdana" font-size="13" lengthAdjust="spacing" textLength="150" x="331" y="1721.4888">Th&#244;ng b&#225;o th&#224;nh c&#244;ng</text><polygon fill="#000000" points="90.5,1752.0176,80.5,1756.0176,90.5,1760.0176,86.5,1756.0176" style="stroke:#000000;stroke-width:1.0;"/><line style="stroke:#000000;stroke-width:1.0;stroke-dasharray:2.0,2.0;" x1="84.5" x2="263.5" y1="1756.0176" y2="1756.0176"/><text fill="#000000" font-family="Verdana" font-size="13" lengthAdjust="spacing" textLength="108" x="118" y="1751.2881">"&#272;&#227; t&#7915; ch&#7889;i &#273;&#417;n"</text><rect fill="none" height="95.0732" id="_legend" rx="7.5" ry="7.5" style="stroke:#000000;stroke-width:1.0;" width="390" x="465" y="1871.0322"/><text fill="#000000" font-family="Verdana" font-size="14" font-weight="bold" lengthAdjust="spacing" textLength="43" x="470" y="1890.1074">M&#244; t&#7843;</text><text fill="#000000" font-family="Verdana" font-size="14" lengthAdjust="spacing" textLength="337" x="513" y="1890.1074">: C&#225;n b&#7897; Qu&#7929; ph&#234; duy&#7879;t ho&#7863;c t&#7915; ch&#7889;i &#273;&#417;n c&#7845;p 1</text><text fill="#000000" font-family="Verdana" font-size="14" font-weight="bold" lengthAdjust="spacing" textLength="29" x="470" y="1907.1221">API</text><text fill="#000000" font-family="Verdana" font-size="14" lengthAdjust="spacing" textLength="283" x="499" y="1907.1221">: PUT /api/applications/:id/staff-approve</text><text fill="#000000" font-family="Verdana" font-size="14" font-weight="bold" lengthAdjust="spacing" textLength="84" x="470" y="1924.1367">Quy&#7873;n h&#7841;n</text><text fill="#000000" font-family="Verdana" font-size="14" lengthAdjust="spacing" textLength="229" x="554" y="1924.1367">: C&#225;n b&#7897; (role 3), Admin (role 1)</text><text fill="#000000" font-family="Verdana" font-size="14" font-weight="bold" lengthAdjust="spacing" textLength="71" x="470" y="1941.1514">Giao d&#7883;ch</text><text fill="#000000" font-family="Verdana" font-size="14" lengthAdjust="spacing" textLength="204" x="541" y="1941.1514">: &#272;&#7843;m b&#7843;o c&#7853;p nh&#7853;t &#273;&#7891;ng b&#7897;</text><text fill="#000000" font-family="Verdana" font-size="14" font-weight="bold" lengthAdjust="spacing" textLength="114" x="470" y="1958.166">B&#432;&#7899;c ti&#7871;p theo</text><text fill="#000000" font-family="Verdana" font-size="14" lengthAdjust="spacing" textLength="174" x="584" y="1958.166">: Admin ph&#234; duy&#7879;t c&#7845;p 2</text><!--SRC=[pLTVRzjK57_tfpY4bzOGbMvlUK1g4j6YRLMdfcYJyk8wT_ObphLhtuJcSK9YqlRIQaA0q4IYW0Q3iY4c8MmX7bprU_YRSCwrdTZvqnOq19OInzVdx-_yphatRqcRzHXuZi655dIvy0pVwC6XONOjt-sBJiDrN1_U_a1T1Oc07VMPCDaT5WI6nROSRWamcP3CrpJ9fSD0r_URxzsimTvE_1YQ1_UJwBCMd9zSZ7QXaOJVxi6chckQOKfqK6d4Om67IVGLtEqdqUyLC0BObyQ31nhwazpadY4aL5f-_9EmeTCV9j4ZgQJgllj9W5vBSbjx7y8EYe2qa-XKM4eI5xME8Or38s3eyM8CGH9z0vqaUWaEH-c-4clMDKsvXkhxkVKQV1IFN92-8IoeO8ZXH80J_m7dfnTZKQ4i-C2GR1gDblqW6-Yt1hUJyBiXT0oCFeZ7ffrgWednFSlp0HE5FDYScQEGAHUqqgpNeENtXp108P6hnxzYK4aunh2a7OzvMrGQoqmMGiJycdMeve4rvqBIEgmeghmNWTX1f3uL2jWdXNoAQXJr4WWR3ZUxC20Wi-YJyBc0u_W7kG8kq-OWUHB-ARFOhW4Cml2QqE244JeOqYrwlZB_nfmFU0TQyOXdZFXRQCp2NOs6-b63Uwod4azzjaKLRYEREYuSOznex0igQpIX5uLeK3e-GyIxyVSzUhMFv2QFqKELRFGGX4MHO5iv4ZjfcAM5IwYrPySlSbveWDTYYNRj93ppmC94J3iEOKsWXJxHRBqji78WR0LofMYheeofh_aoRYVH6OTX_AAlYjq7hw0tfJjfbk2Y1U7YWyyjM-88EMZ1Xk5n_7X88aDoLmGRDTxP22Y5AYxxxe3DuiYeeMAuX_HK1Ve5RswNYGM9MrJ47dKt755eYEPi7gtvBWwpc-iBnebt1SrI6sPqBIM6zA7d8lTQ9HsRQenSmZMkHClSc_gdsfOrkoddFIpEXCEg2G3PjK3YLgf-68zTS91xD4LmK8-9LF64Sdc5N3JX6Aj9KszcQbhl6RDB7I5dbfKESt3qpcMDfZro-wWSO0gmhjUJyALCMxaF5ZTS6jXFJ1itZrn-7gKfKdF66ehSHE4pkPI9r5EtLCySqOZ7uPY-f_LTYr1undETT2qU3OiBsrdZJBqNgtr-Wc2QXHWk3VRy98a-vyjerHRuCCA6hYYBA-lyptqtRBA9LGpKVhUCJpVUX1zTLysf9CMAuYusmQArLMJES39fPPd1VDQie7AARv4eRP7sXLa2g8G84nrDKpoVdx-j9FfHRVYd_FBnwwHRWPp9jyKQzi7FBQWV9D6NZVNoC6ZO5w-C5CLS-RAqxi_6yQAEYbpbVOMzLHDUpcMvTBXVVy3xx6Dcogh31iofRbx1flzqLhIAvPhkvylW-7U7GY6EDpaJ_a-zUdNJ5c3Fp-XvSwe6BHYU7jaTPk6xb9AQhj-9NzDUFD7r6ipzFIaJmdQJy3TpqUNqVAFh63oPkUuvHjVlPkSGcmfTZY0_aBmBMvqUdXRJvyrrrDekLaMn9PpWlpdyTak5LYFfAI6F1b6lJblRrsPwUFMm5Cmb_TJ-4lBV811JkBI_0000]--></g></svg>