<?xml version="1.0" encoding="us-ascii" standalone="no"?><svg xmlns="http://www.w3.org/2000/svg" xmlns:xlink="http://www.w3.org/1999/xlink" contentStyleType="text/css" height="1348px" preserveAspectRatio="none" style="width:759px;height:1348px;background:#FFFFFF;" version="1.1" viewBox="0 0 759 1348" width="759px" zoomAndPan="magnify"><defs/><g><text fill="#000000" font-family="Verdana" font-size="22" font-weight="bold" lengthAdjust="spacing" textLength="393" x="181.75" y="37.1182">AD11: XEM NH&#7852;T K&#221; H&#7878; TH&#7888;NG</text><rect fill="#FFFFFF" height="21.876" style="stroke:#FFFFFF;stroke-width:1.0;" width="736.5" x="10" y="55.0166"/><rect fill="#FFCDD2" height="1197.8572" style="stroke:#FFCDD2;stroke-width:1.0;" width="381" x="10" y="55.0166"/><ellipse cx="214.5" cy="91.8926" fill="#FFFFFF" rx="10" ry="10" style="stroke:#000000;stroke-width:1.0;"/><rect fill="#FFFFFF" height="33.3687" rx="12.5" ry="12.5" style="stroke:#000000;stroke-width:1.0;" width="154" x="137.5" y="121.8926"/><text fill="#000000" font-family="Verdana" font-size="11" lengthAdjust="spacing" textLength="134" x="147.5" y="142.9517">V&#224;o "Nh&#7853;t k&#253; h&#7879; th&#7889;ng"</text><rect fill="#FFFFFF" height="33.3687" rx="12.5" ry="12.5" style="stroke:#000000;stroke-width:1.0;" width="88" x="170.5" y="295.4731"/><text fill="#000000" font-family="Verdana" font-size="11" lengthAdjust="spacing" textLength="68" x="180.5" y="316.5322">Ch&#7885;n b&#7897; l&#7885;c</text><polygon fill="#FFFFFF" points="177.5,629.2656,251.5,629.2656,263.5,641.2656,251.5,653.2656,177.5,653.2656,165.5,641.2656,177.5,629.2656" style="stroke:#000000;stroke-width:1.0;"/><text fill="#000000" font-family="Verdana" font-size="11" lengthAdjust="spacing" textLength="74" x="177.5" y="645.6404">Xem chi ti&#7871;t?</text><text fill="#000000" font-family="Verdana" font-size="11" lengthAdjust="spacing" textLength="16" x="149.5" y="638.9561">C&#243;</text><text fill="#000000" font-family="Verdana" font-size="11" lengthAdjust="spacing" textLength="53" x="263.5" y="638.9561">T&#236;m ki&#7871;m</text><rect fill="#FFFFFF" height="33.3687" rx="12.5" ry="12.5" style="stroke:#000000;stroke-width:1.0;" width="152" x="41" y="673.2656"/><text fill="#000000" font-family="Verdana" font-size="11" lengthAdjust="spacing" textLength="132" x="51" y="694.3247">Click v&#224;o d&#242;ng nh&#7853;t k&#253;</text><rect fill="#FFFFFF" height="33.3687" rx="12.5" ry="12.5" style="stroke:#000000;stroke-width:1.0;" width="137" x="48.5" y="908.8992"/><text fill="#000000" font-family="Verdana" font-size="11" lengthAdjust="spacing" textLength="117" x="58.5" y="929.9583">Click "Xu&#7845;t b&#225;o c&#225;o"</text><rect fill="#FFFFFF" height="33.3687" rx="12.5" ry="12.5" style="stroke:#000000;stroke-width:1.0;" width="76" x="79" y="1099.5051"/><text fill="#000000" font-family="Verdana" font-size="11" lengthAdjust="spacing" textLength="56" x="89" y="1120.5642">T&#7843;i file v&#7873;</text><polygon fill="#FFFFFF" points="76.5,860.2148,157.5,860.2148,169.5,872.2148,157.5,884.2148,76.5,884.2148,64.5,872.2148,76.5,860.2148" style="stroke:#000000;stroke-width:1.0;"/><text fill="#000000" font-family="Verdana" font-size="11" lengthAdjust="spacing" textLength="16" x="121" y="895.2739">C&#243;</text><text fill="#000000" font-family="Verdana" font-size="11" lengthAdjust="spacing" textLength="81" x="76.5" y="876.5896">Xu&#7845;t b&#225;o c&#225;o?</text><polygon fill="#FFFFFF" points="117,1152.8738,129,1164.8738,117,1176.8738,105,1164.8738,117,1152.8738" style="stroke:#000000;stroke-width:1.0;"/><rect fill="#FFFFFF" height="33.3687" rx="12.5" ry="12.5" style="stroke:#000000;stroke-width:1.0;" width="150" x="237" y="673.2656"/><text fill="#000000" font-family="Verdana" font-size="11" lengthAdjust="spacing" textLength="130" x="247" y="694.3247">Nh&#7853;p t&#7915; kh&#243;a t&#236;m ki&#7871;m</text><rect fill="#FFFFFF" height="33.3687" rx="12.5" ry="12.5" style="stroke:#000000;stroke-width:1.0;" width="147" x="238.5" y="915.2148"/><text fill="#000000" font-family="Verdana" font-size="11" lengthAdjust="spacing" textLength="127" x="248.5" y="936.2739">Xem k&#7871;t qu&#7843; t&#236;m ki&#7871;m</text><polygon fill="#FFFFFF" points="214.5,1186.8738,226.5,1198.8738,214.5,1210.8738,202.5,1198.8738,214.5,1186.8738" style="stroke:#000000;stroke-width:1.0;"/><ellipse cx="214.5" cy="1241.8738" fill="none" rx="11" ry="11" style="stroke:#000000;stroke-width:1.0;"/><ellipse cx="214.5" cy="1241.8738" fill="#FFFFFF" rx="6" ry="6" style="stroke:#000000;stroke-width:1.0;"/><line style="stroke:#000000;stroke-width:1.0;" x1="10" x2="10" y1="55.0166" y2="1252.8738"/><rect fill="#F5F5F5" height="1197.8572" style="stroke:#F5F5F5;stroke-width:1.0;" width="341.5" x="391" y="55.0166"/><rect fill="#FFFFFF" height="100.2119" rx="12.5" ry="12.5" style="stroke:#000000;stroke-width:1.0;" width="125" x="510" y="175.2612"/><text fill="#000000" font-family="Verdana" font-size="11" lengthAdjust="spacing" textLength="81" x="520" y="196.3203">Hi&#7875;n th&#7883; b&#7897; l&#7885;c</text><text fill="#000000" font-family="Verdana" font-size="11" lengthAdjust="spacing" textLength="73" x="520" y="209.689">- Ng&#432;&#7901;i d&#249;ng</text><text fill="#000000" font-family="Verdana" font-size="11" lengthAdjust="spacing" textLength="96" x="520" y="223.0576">- Lo&#7841;i h&#224;nh &#273;&#7897;ng</text><text fill="#000000" font-family="Verdana" font-size="11" lengthAdjust="spacing" textLength="89" x="520" y="236.4263">- Lo&#7841;i &#273;&#7889;i t&#432;&#7907;ng</text><text fill="#000000" font-family="Verdana" font-size="11" lengthAdjust="spacing" textLength="105" x="520" y="249.7949">- Kho&#7843;ng th&#7901;i gian</text><text fill="#000000" font-family="Verdana" font-size="11" lengthAdjust="spacing" textLength="71" x="520" y="263.1636">- IP Address</text><rect fill="#FFFFFF" height="46.7373" rx="12.5" ry="12.5" style="stroke:#000000;stroke-width:1.0;" width="149" x="498" y="348.8418"/><text fill="#000000" font-family="Verdana" font-size="11" lengthAdjust="spacing" textLength="129" x="508" y="369.9009">L&#7845;y danh s&#225;ch nh&#7853;t k&#253;</text><text fill="#000000" font-family="Verdana" font-size="11" lengthAdjust="spacing" textLength="101" x="508" y="383.2695">theo &#273;i&#7873;u ki&#7879;n l&#7885;c</text><rect fill="#FFFFFF" height="46.7373" rx="12.5" ry="12.5" style="stroke:#000000;stroke-width:1.0;" width="138" x="503.5" y="415.5791"/><text fill="#000000" font-family="Verdana" font-size="11" lengthAdjust="spacing" textLength="118" x="513.5" y="436.6382">Gi&#7899;i h&#7841;n 100 b&#7843;n ghi</text><text fill="#000000" font-family="Verdana" font-size="11" lengthAdjust="spacing" textLength="50" x="513.5" y="450.0068">g&#7847;n nh&#7845;t</text><rect fill="#FFFFFF" height="126.9492" rx="12.5" ry="12.5" style="stroke:#000000;stroke-width:1.0;" width="125" x="510" y="482.3164"/><text fill="#000000" font-family="Verdana" font-size="11" lengthAdjust="spacing" textLength="105" x="520" y="503.3755">Hi&#7875;n th&#7883; danh s&#225;ch</text><text fill="#000000" font-family="Verdana" font-size="11" lengthAdjust="spacing" textLength="61" x="520" y="516.7441">- Th&#7901;i gian</text><text fill="#000000" font-family="Verdana" font-size="11" lengthAdjust="spacing" textLength="97" x="520" y="530.1128">- Ng&#432;&#7901;i th&#7921;c hi&#7879;n</text><text fill="#000000" font-family="Verdana" font-size="11" lengthAdjust="spacing" textLength="47" x="520" y="543.4814">- Vai tr&#242;</text><text fill="#000000" font-family="Verdana" font-size="11" lengthAdjust="spacing" textLength="70" x="520" y="556.8501">- H&#224;nh &#273;&#7897;ng</text><text fill="#000000" font-family="Verdana" font-size="11" lengthAdjust="spacing" textLength="64" x="520" y="570.2188">- &#272;&#7889;i t&#432;&#7907;ng</text><text fill="#000000" font-family="Verdana" font-size="11" lengthAdjust="spacing" textLength="72" x="520" y="583.5874">- M&#244; t&#7843; ng&#7855;n</text><text fill="#000000" font-family="Verdana" font-size="11" lengthAdjust="spacing" textLength="71" x="520" y="596.9561">- IP Address</text><rect fill="#FFFFFF" height="100.2119" rx="12.5" ry="12.5" style="stroke:#000000;stroke-width:1.0;" width="152" x="399" y="726.6343"/><text fill="#000000" font-family="Verdana" font-size="11" lengthAdjust="spacing" textLength="128" x="409" y="747.6934">Hi&#7875;n th&#7883; chi ti&#7871;t &#273;&#7847;y &#273;&#7911;</text><text fill="#000000" font-family="Verdana" font-size="11" lengthAdjust="spacing" textLength="129" x="409" y="761.062">- Th&#244;ng tin ng&#432;&#7901;i d&#249;ng</text><text fill="#000000" font-family="Verdana" font-size="11" lengthAdjust="spacing" textLength="114" x="409" y="774.4307">- Chi ti&#7871;t h&#224;nh &#273;&#7897;ng</text><text fill="#000000" font-family="Verdana" font-size="11" lengthAdjust="spacing" textLength="132" x="409" y="787.7993">- D&#7919; li&#7879;u tr&#432;&#7899;c thay &#273;&#7893;i</text><text fill="#000000" font-family="Verdana" font-size="11" lengthAdjust="spacing" textLength="123" x="409" y="801.168">- D&#7919; li&#7879;u sau thay &#273;&#7893;i</text><text fill="#000000" font-family="Verdana" font-size="11" lengthAdjust="spacing" textLength="105" x="409" y="814.5366">- So s&#225;nh thay &#273;&#7893;i</text><rect fill="#FFFFFF" height="33.3687" rx="12.5" ry="12.5" style="stroke:#000000;stroke-width:1.0;" width="156" x="397" y="968.5835"/><text fill="#000000" font-family="Verdana" font-size="11" lengthAdjust="spacing" textLength="136" x="407" y="989.6426">T&#7841;o file Excel ho&#7863;c CSV</text><rect fill="#FFFFFF" height="46.7373" rx="12.5" ry="12.5" style="stroke:#000000;stroke-width:1.0;" width="108" x="421" y="1032.7678"/><text fill="#000000" font-family="Verdana" font-size="11" lengthAdjust="spacing" textLength="87" x="431" y="1053.8269">Bao g&#7891;m t&#7845;t c&#7843;</text><text fill="#000000" font-family="Verdana" font-size="11" lengthAdjust="spacing" textLength="88" x="431" y="1067.1956">th&#244;ng tin &#273;&#227; l&#7885;c</text><rect fill="#FFFFFF" height="86.8433" rx="12.5" ry="12.5" style="stroke:#000000;stroke-width:1.0;" width="117" x="611.5" y="726.6343"/><text fill="#000000" font-family="Verdana" font-size="11" lengthAdjust="spacing" textLength="55" x="621.5" y="747.6934">T&#236;m trong</text><text fill="#000000" font-family="Verdana" font-size="11" lengthAdjust="spacing" textLength="40" x="621.5" y="761.062">- M&#244; t&#7843;</text><text fill="#000000" font-family="Verdana" font-size="11" lengthAdjust="spacing" textLength="97" x="621.5" y="774.4307">- T&#234;n ng&#432;&#7901;i d&#249;ng</text><text fill="#000000" font-family="Verdana" font-size="11" lengthAdjust="spacing" textLength="40" x="621.5" y="787.7993">- Email</text><text fill="#000000" font-family="Verdana" font-size="11" lengthAdjust="spacing" textLength="70" x="621.5" y="801.168">- H&#224;nh &#273;&#7897;ng</text><rect fill="#FFFFFF" height="33.3687" rx="12.5" ry="12.5" style="stroke:#000000;stroke-width:1.0;" width="110" x="615" y="846.8462"/><text fill="#000000" font-family="Verdana" font-size="11" lengthAdjust="spacing" textLength="90" x="625" y="867.9053">Hi&#7875;n th&#7883; k&#7871;t qu&#7843;</text><line style="stroke:#000000;stroke-width:1.0;" x1="391" x2="391" y1="55.0166" y2="1252.8738"/><line style="stroke:#000000;stroke-width:1.0;" x1="747.5" x2="747.5" y1="55.0166" y2="1252.8738"/><line style="stroke:#000000;stroke-width:1.0;" x1="214.5" x2="214.5" y1="101.8926" y2="121.8926"/><polygon fill="#000000" points="210.5,111.8926,214.5,121.8926,218.5,111.8926,214.5,115.8926" style="stroke:#000000;stroke-width:1.0;"/><line style="stroke:#000000;stroke-width:1.0;" x1="117" x2="117" y1="884.2148" y2="908.8992"/><polygon fill="#000000" points="113,898.8992,117,908.8992,121,898.8992,117,902.8992" style="stroke:#000000;stroke-width:1.0;"/><line style="stroke:#000000;stroke-width:1.0;" x1="64.5" x2="29" y1="872.2148" y2="872.2148"/><polygon fill="#000000" points="25,1011.9521,29,1021.9521,33,1011.9521,29,1015.9521" style="stroke:#000000;stroke-width:1.0;"/><line style="stroke:#000000;stroke-width:1.0;" x1="29" x2="29" y1="872.2148" y2="1164.8738"/><line style="stroke:#000000;stroke-width:1.0;" x1="29" x2="105" y1="1164.8738" y2="1164.8738"/><polygon fill="#000000" points="95,1160.8738,105,1164.8738,95,1168.8738,99,1164.8738" style="stroke:#000000;stroke-width:1.0;"/><line style="stroke:#000000;stroke-width:1.0;" x1="117" x2="117" y1="1132.8738" y2="1152.8738"/><polygon fill="#000000" points="113,1142.8738,117,1152.8738,121,1142.8738,117,1146.8738" style="stroke:#000000;stroke-width:1.0;"/><line style="stroke:#000000;stroke-width:1.0;" x1="165.5" x2="117" y1="641.2656" y2="641.2656"/><line style="stroke:#000000;stroke-width:1.0;" x1="117" x2="117" y1="641.2656" y2="673.2656"/><polygon fill="#000000" points="113,663.2656,117,673.2656,121,663.2656,117,667.2656" style="stroke:#000000;stroke-width:1.0;"/><line style="stroke:#000000;stroke-width:1.0;" x1="263.5" x2="312" y1="641.2656" y2="641.2656"/><line style="stroke:#000000;stroke-width:1.0;" x1="312" x2="312" y1="641.2656" y2="673.2656"/><polygon fill="#000000" points="308,663.2656,312,673.2656,316,663.2656,312,667.2656" style="stroke:#000000;stroke-width:1.0;"/><line style="stroke:#000000;stroke-width:1.0;" x1="117" x2="117" y1="1176.8738" y2="1198.8738"/><line style="stroke:#000000;stroke-width:1.0;" x1="117" x2="202.5" y1="1198.8738" y2="1198.8738"/><polygon fill="#000000" points="192.5,1194.8738,202.5,1198.8738,192.5,1202.8738,196.5,1198.8738" style="stroke:#000000;stroke-width:1.0;"/><line style="stroke:#000000;stroke-width:1.0;" x1="312" x2="312" y1="948.5835" y2="1198.8738"/><line style="stroke:#000000;stroke-width:1.0;" x1="312" x2="226.5" y1="1198.8738" y2="1198.8738"/><polygon fill="#000000" points="236.5,1194.8738,226.5,1198.8738,236.5,1202.8738,232.5,1198.8738" style="stroke:#000000;stroke-width:1.0;"/><line style="stroke:#000000;stroke-width:1.0;" x1="214.5" x2="214.5" y1="1210.8738" y2="1230.8738"/><polygon fill="#000000" points="210.5,1220.8738,214.5,1230.8738,218.5,1220.8738,214.5,1224.8738" style="stroke:#000000;stroke-width:1.0;"/><line style="stroke:#000000;stroke-width:1.0;" x1="572.5" x2="572.5" y1="395.5791" y2="415.5791"/><polygon fill="#000000" points="568.5,405.5791,572.5,415.5791,576.5,405.5791,572.5,409.5791" style="stroke:#000000;stroke-width:1.0;"/><line style="stroke:#000000;stroke-width:1.0;" x1="572.5" x2="572.5" y1="462.3164" y2="482.3164"/><polygon fill="#000000" points="568.5,472.3164,572.5,482.3164,576.5,472.3164,572.5,476.3164" style="stroke:#000000;stroke-width:1.0;"/><line style="stroke:#000000;stroke-width:1.0;" x1="475" x2="475" y1="1001.9521" y2="1032.7678"/><polygon fill="#000000" points="471,1022.7678,475,1032.7678,479,1022.7678,475,1026.7678" style="stroke:#000000;stroke-width:1.0;"/><line style="stroke:#000000;stroke-width:1.0;" x1="670" x2="670" y1="813.4775" y2="846.8462"/><polygon fill="#000000" points="666,836.8462,670,846.8462,674,836.8462,670,840.8462" style="stroke:#000000;stroke-width:1.0;"/><line style="stroke:#000000;stroke-width:1.0;" x1="214.5" x2="214.5" y1="155.2612" y2="160.2612"/><line style="stroke:#000000;stroke-width:1.0;" x1="214.5" x2="572.5" y1="160.2612" y2="160.2612"/><line style="stroke:#000000;stroke-width:1.0;" x1="572.5" x2="572.5" y1="160.2612" y2="175.2612"/><polygon fill="#000000" points="568.5,165.2612,572.5,175.2612,576.5,165.2612,572.5,169.2612" style="stroke:#000000;stroke-width:1.0;"/><line style="stroke:#000000;stroke-width:1.0;" x1="572.5" x2="572.5" y1="275.4731" y2="280.4731"/><line style="stroke:#000000;stroke-width:1.0;" x1="572.5" x2="214.5" y1="280.4731" y2="280.4731"/><line style="stroke:#000000;stroke-width:1.0;" x1="214.5" x2="214.5" y1="280.4731" y2="295.4731"/><polygon fill="#000000" points="210.5,285.4731,214.5,295.4731,218.5,285.4731,214.5,289.4731" style="stroke:#000000;stroke-width:1.0;"/><line style="stroke:#000000;stroke-width:1.0;" x1="214.5" x2="214.5" y1="328.8418" y2="333.8418"/><line style="stroke:#000000;stroke-width:1.0;" x1="214.5" x2="572.5" y1="333.8418" y2="333.8418"/><line style="stroke:#000000;stroke-width:1.0;" x1="572.5" x2="572.5" y1="333.8418" y2="348.8418"/><polygon fill="#000000" points="568.5,338.8418,572.5,348.8418,576.5,338.8418,572.5,342.8418" style="stroke:#000000;stroke-width:1.0;"/><line style="stroke:#000000;stroke-width:1.0;" x1="117" x2="117" y1="706.6343" y2="711.6343"/><line style="stroke:#000000;stroke-width:1.0;" x1="117" x2="475" y1="711.6343" y2="711.6343"/><line style="stroke:#000000;stroke-width:1.0;" x1="475" x2="475" y1="711.6343" y2="726.6343"/><polygon fill="#000000" points="471,716.6343,475,726.6343,479,716.6343,475,720.6343" style="stroke:#000000;stroke-width:1.0;"/><line style="stroke:#000000;stroke-width:1.0;" x1="117" x2="117" y1="942.2678" y2="953.5835"/><line style="stroke:#000000;stroke-width:1.0;" x1="117" x2="475" y1="953.5835" y2="953.5835"/><line style="stroke:#000000;stroke-width:1.0;" x1="475" x2="475" y1="953.5835" y2="968.5835"/><polygon fill="#000000" points="471,958.5835,475,968.5835,479,958.5835,475,962.5835" style="stroke:#000000;stroke-width:1.0;"/><line style="stroke:#000000;stroke-width:1.0;" x1="475" x2="475" y1="1079.5051" y2="1084.5051"/><line style="stroke:#000000;stroke-width:1.0;" x1="475" x2="117" y1="1084.5051" y2="1084.5051"/><line style="stroke:#000000;stroke-width:1.0;" x1="117" x2="117" y1="1084.5051" y2="1099.5051"/><polygon fill="#000000" points="113,1089.5051,117,1099.5051,121,1089.5051,117,1093.5051" style="stroke:#000000;stroke-width:1.0;"/><line style="stroke:#000000;stroke-width:1.0;" x1="475" x2="475" y1="826.8462" y2="842.7148"/><line style="stroke:#000000;stroke-width:1.0;" x1="475" x2="117" y1="842.7148" y2="842.7148"/><line style="stroke:#000000;stroke-width:1.0;" x1="117" x2="117" y1="842.7148" y2="860.2148"/><polygon fill="#000000" points="113,850.2148,117,860.2148,121,850.2148,117,854.2148" style="stroke:#000000;stroke-width:1.0;"/><line style="stroke:#000000;stroke-width:1.0;" x1="312" x2="312" y1="706.6343" y2="711.6343"/><line style="stroke:#000000;stroke-width:1.0;" x1="312" x2="670" y1="711.6343" y2="711.6343"/><line style="stroke:#000000;stroke-width:1.0;" x1="670" x2="670" y1="711.6343" y2="726.6343"/><polygon fill="#000000" points="666,716.6343,670,726.6343,674,716.6343,670,720.6343" style="stroke:#000000;stroke-width:1.0;"/><line style="stroke:#000000;stroke-width:1.0;" x1="670" x2="670" y1="880.2148" y2="897.7148"/><line style="stroke:#000000;stroke-width:1.0;" x1="670" x2="312" y1="897.7148" y2="897.7148"/><line style="stroke:#000000;stroke-width:1.0;" x1="312" x2="312" y1="897.7148" y2="915.2148"/><polygon fill="#000000" points="308,905.2148,312,915.2148,316,905.2148,312,909.2148" style="stroke:#000000;stroke-width:1.0;"/><line style="stroke:#000000;stroke-width:1.0;" x1="572.5" x2="572.5" y1="609.2656" y2="614.2656"/><line style="stroke:#000000;stroke-width:1.0;" x1="572.5" x2="214.5" y1="614.2656" y2="614.2656"/><line style="stroke:#000000;stroke-width:1.0;" x1="214.5" x2="214.5" y1="614.2656" y2="629.2656"/><polygon fill="#000000" points="210.5,619.2656,214.5,629.2656,218.5,619.2656,214.5,623.2656" style="stroke:#000000;stroke-width:1.0;"/><text fill="#000000" font-family="Verdana" font-size="18" lengthAdjust="spacing" textLength="57" x="172" y="73.1133">Admin</text><text fill="#000000" font-family="Verdana" font-size="18" lengthAdjust="spacing" textLength="82" x="520.75" y="73.1133">H&#7879; th&#7889;ng</text><rect fill="none" height="78.0586" id="_legend" rx="7.5" ry="7.5" style="stroke:#000000;stroke-width:1.0;" width="489" x="257.5" y="1257.8738"/><text fill="#000000" font-family="Verdana" font-size="14" font-weight="bold" lengthAdjust="spacing" textLength="56" x="262.5" y="1276.949">Quy&#7873;n:</text><text fill="#000000" font-family="Verdana" font-size="14" lengthAdjust="spacing" textLength="128" x="323.5" y="1276.949">Ch&#7881; Admin (role 1)</text><text fill="#000000" font-family="Verdana" font-size="14" font-weight="bold" lengthAdjust="spacing" textLength="35" x="262.5" y="1293.9636">API:</text><text fill="#000000" font-family="Verdana" font-size="14" lengthAdjust="spacing" textLength="152" x="302.5" y="1293.9636">GET /api/system/logs</text><text fill="#000000" font-family="Verdana" font-size="14" font-weight="bold" lengthAdjust="spacing" textLength="91" x="262.5" y="1310.9783">H&#224;nh &#273;&#7897;ng:</text><text fill="#000000" font-family="Verdana" font-size="14" lengthAdjust="spacing" textLength="383" x="358.5" y="1310.9783">CREATE, UPDATE, DELETE, APPROVE, REJECT, LOGIN</text><text fill="#000000" font-family="Verdana" font-size="14" font-weight="bold" lengthAdjust="spacing" textLength="74" x="262.5" y="1327.9929">M&#7909;c &#273;&#237;ch:</text><text fill="#000000" font-family="Verdana" font-size="14" lengthAdjust="spacing" textLength="206" x="341.5" y="1327.9929">Audit trail, b&#7843;o m&#7853;t, gi&#225;m s&#225;t</text><!--SRC=[XLJVJzDG57xlNt745rXcO2IyT0zcReKXC2PKvBMqfRrPUplREtHcByP4OWm9Y_7141888IGAGO74sCRmS8d_H_yJpxqJjWxHTRczlT-vvyTtldllCTVsRMXw1g5Ar22qQOI63sk6sN32e4MjSk058ToVbhy12yDaP8EmzdH0sJ9vPKEXC816BuZl6TH-HYpcmkJKXA8mmZmRShbIfL1GOLLRW5erZOzrcEExK4sJjw3Zk5sRoUKKfOC1ovNAPATa-OHsb8WP8LFK5RuNm4ZDJUCJ1Wt-4zmqsGI6OvSw8qMvRqeydUe0q57KAacJDrGkl8UrDFa4NfficSe3g3c_lgR9BW6B_w0EBim7QRnFmELxr8MhBjeEBek5BW4cDXr8OCv51AVIEVfnY45nUROE9SiAxIWgtYv7BQFj5Xt8v1-vpwVnOHii0zE9-Bxf0hsfNy7k1PWJLlUw1GryRT9hV-eCVkvW8PWtXSB414R3FC5nYUAayH6LVWvPSOYTVY2iGi_KTCELiFncWYi38h1Yu5h8pt1Q7UBjQdkOi0L-0GnJ0OffdFwNAx8Eewks3wQBNaWQNxA7OvY0JM6qpC_7502rx16p0Hj271O_mrRq6IeYZlyxkCMzcThxCKG5yL5R5dA4Te8AVY6wJ92uh6O4Mkxlp2f7W9KqEGLFaDL2ciJU7HCZ6Ztt7yajeyXetSAN0z4Lz3m0zAlBK0OWIMk9zi8Qtm_0n66OjXlYHeOjHueIbiETpE5s7QKLm3h1SwszD6qFn57uRa9vUQNdGNra1E2aoGTVT1n3cDXtYR0-crTTVd0jsi6mGoNruXsGNhmDLBmmjwb5rWKBjXVPCAhpOr-SW_ZIbygGLqKJWoTVeE7oSmDOt-A_sf3UM1ZyQUErS7jou9__AWJDDuWdPvcJKBobjOOKotEa_k3EDgf2-0E6sUnxjUFT63GLnRCT_8QGE2vJShadhJOoHDLS3iHTymwaJnWD0oIlC8OMfVgiG6Sq7SQD9XcFsX6p_N4lS294CybBBqjQITVoyBHUaU-ADg-9TwbUNrfSmScIzbWhwtcONvoPhQ67XJGvD4LpJqnNE2YrBCAGJQGdBw-Y07nnIlDuk_1zNuYRYP9wXIY_0G00]--></g></svg>