<?xml version="1.0" encoding="us-ascii" standalone="no"?><svg xmlns="http://www.w3.org/2000/svg" xmlns:xlink="http://www.w3.org/1999/xlink" contentStyleType="text/css" height="1332px" preserveAspectRatio="none" style="width:774px;height:1332px;background:#FFFFFF;" version="1.1" viewBox="0 0 774 1332" width="774px" zoomAndPan="magnify"><defs/><g><text fill="#000000" font-family="Verdana" font-size="22" font-weight="bold" lengthAdjust="spacing" textLength="304" x="233.75" y="37.1182">AD05: PH&#202; DUY&#7878;T C&#7844;P 2</text><rect fill="#FFFFFF" height="21.876" style="stroke:#FFFFFF;stroke-width:1.0;" width="751.5" x="10" y="55.0166"/><rect fill="#E1BEE7" height="1198.5669" style="stroke:#E1BEE7;stroke-width:1.0;" width="371.5" x="10" y="55.0166"/><ellipse cx="206" cy="91.8926" fill="#FFFFFF" rx="10" ry="10" style="stroke:#000000;stroke-width:1.0;"/><rect fill="#FFFFFF" height="33.3687" rx="12.5" ry="12.5" style="stroke:#000000;stroke-width:1.0;" width="125" x="143.5" y="121.8926"/><text fill="#000000" font-family="Verdana" font-size="11" lengthAdjust="spacing" textLength="105" x="153.5" y="142.9517">V&#224;o "Qu&#7843;n l&#253; &#273;&#417;n"</text><rect fill="#FFFFFF" height="46.7373" rx="12.5" ry="12.5" style="stroke:#000000;stroke-width:1.0;" width="133" x="139.5" y="175.2612"/><text fill="#000000" font-family="Verdana" font-size="11" lengthAdjust="spacing" textLength="113" x="149.5" y="196.3203">Xem danh s&#225;ch &#273;&#417;n</text><text fill="#000000" font-family="Verdana" font-size="11" lengthAdjust="spacing" textLength="104" x="149.5" y="209.689">"Ch&#7901; duy&#7879;t c&#7845;p 2"</text><rect fill="#FFFFFF" height="33.3687" rx="12.5" ry="12.5" style="stroke:#000000;stroke-width:1.0;" width="144" x="134" y="375.4731"/><text fill="#000000" font-family="Verdana" font-size="11" lengthAdjust="spacing" textLength="124" x="144" y="396.5322">Click v&#224;o &#273;&#417;n c&#7847;n x&#233;t</text><rect fill="#FFFFFF" height="46.7373" rx="12.5" ry="12.5" style="stroke:#000000;stroke-width:1.0;" width="170" x="121" y="428.8418"/><text fill="#000000" font-family="Verdana" font-size="11" lengthAdjust="spacing" textLength="93" x="131" y="449.9009">Xem chi ti&#7871;t &#273;&#417;n</text><text fill="#000000" font-family="Verdana" font-size="11" lengthAdjust="spacing" textLength="150" x="131" y="463.2695">v&#224; l&#7883;ch s&#7917; ph&#234; duy&#7879;t c&#7845;p 1</text><rect fill="#FFFFFF" height="33.3687" rx="12.5" ry="12.5" style="stroke:#000000;stroke-width:1.0;" width="100" x="156" y="495.5791"/><text fill="#000000" font-family="Verdana" font-size="11" lengthAdjust="spacing" textLength="80" x="166" y="516.6382">Xem x&#233;t l&#7847;n 2</text><polygon fill="#FFFFFF" points="172,548.9478,240,548.9478,252,560.9478,240,572.9478,172,572.9478,160,560.9478,172,548.9478" style="stroke:#000000;stroke-width:1.0;"/><text fill="#000000" font-family="Verdana" font-size="11" lengthAdjust="spacing" textLength="68" x="172" y="565.3225">Quy&#7871;t &#273;&#7883;nh?</text><text fill="#000000" font-family="Verdana" font-size="11" lengthAdjust="spacing" textLength="57" x="103" y="558.6382">Ph&#234; duy&#7879;t</text><text fill="#000000" font-family="Verdana" font-size="11" lengthAdjust="spacing" textLength="41" x="252" y="558.6382">T&#7915; ch&#7889;i</text><rect fill="#FFFFFF" height="33.3687" rx="12.5" ry="12.5" style="stroke:#000000;stroke-width:1.0;" width="146" x="37" y="592.9478"/><text fill="#000000" font-family="Verdana" font-size="11" lengthAdjust="spacing" textLength="126" x="47" y="614.0068">Nh&#7853;p ghi ch&#250; (n&#7871;u c&#243;)</text><rect fill="#FFFFFF" height="46.7373" rx="12.5" ry="12.5" style="stroke:#000000;stroke-width:1.0;" width="188" x="16" y="957.3716"/><text fill="#000000" font-family="Verdana" font-size="11" lengthAdjust="spacing" textLength="139" x="26" y="978.4307">Th&#244;ng b&#225;o &#273;&#227; ph&#234; duy&#7879;t</text><text fill="#000000" font-family="Verdana" font-size="11" lengthAdjust="spacing" textLength="168" x="26" y="991.7993">Chuy&#7875;n sang K&#7871; to&#225;n (c&#7845;p 3)</text><rect fill="#FFFFFF" height="46.7373" rx="12.5" ry="12.5" style="stroke:#000000;stroke-width:1.0;" width="123" x="240.5" y="592.9478"/><text fill="#000000" font-family="Verdana" font-size="11" lengthAdjust="spacing" textLength="103" x="250.5" y="614.0068">Nh&#7853;p l&#253; do t&#7915; ch&#7889;i</text><text fill="#000000" font-family="Verdana" font-size="11" lengthAdjust="spacing" textLength="71" x="250.5" y="627.3755">(B&#7854;T BU&#7896;C)</text><rect fill="#FFFFFF" height="33.3687" rx="12.5" ry="12.5" style="stroke:#000000;stroke-width:1.0;" width="129" x="237.5" y="721.738"/><text fill="#000000" font-family="Verdana" font-size="11" lengthAdjust="spacing" textLength="109" x="247.5" y="742.7971">Y&#234;u c&#7847;u nh&#7853;p l&#253; do</text><ellipse cx="302" cy="801.1067" fill="none" rx="11" ry="11" style="stroke:#000000;stroke-width:1.0;"/><ellipse cx="302" cy="801.1067" fill="#FFFFFF" rx="6" ry="6" style="stroke:#000000;stroke-width:1.0;"/><polygon fill="#FFFFFF" points="259,673.0537,345,673.0537,357,685.0537,345,697.0537,259,697.0537,247,685.0537,259,673.0537" style="stroke:#000000;stroke-width:1.0;"/><text fill="#000000" font-family="Verdana" font-size="11" lengthAdjust="spacing" textLength="30" x="306" y="708.1128">Ch&#432;a</text><text fill="#000000" font-family="Verdana" font-size="11" lengthAdjust="spacing" textLength="86" x="259" y="689.4285">&#272;&#227; nh&#7853;p l&#253; do?</text><rect fill="#FFFFFF" height="33.3687" rx="12.5" ry="12.5" style="stroke:#000000;stroke-width:1.0;" width="103" x="250.5" y="1090.8462"/><text fill="#000000" font-family="Verdana" font-size="11" lengthAdjust="spacing" textLength="83" x="260.5" y="1111.9053">&#272;&#227; t&#7915; ch&#7889;i &#273;&#417;n</text><polygon fill="#FFFFFF" points="206,1134.2148,218,1146.2148,206,1158.2148,194,1146.2148,206,1134.2148" style="stroke:#000000;stroke-width:1.0;"/><rect fill="#FFFFFF" height="33.3687" rx="12.5" ry="12.5" style="stroke:#000000;stroke-width:1.0;" width="129" x="141.5" y="1178.2148"/><text fill="#000000" font-family="Verdana" font-size="11" lengthAdjust="spacing" textLength="109" x="151.5" y="1199.2739">Quay l&#7841;i danh s&#225;ch</text><ellipse cx="206" cy="1242.5835" fill="none" rx="11" ry="11" style="stroke:#000000;stroke-width:1.0;"/><ellipse cx="206" cy="1242.5835" fill="#FFFFFF" rx="6" ry="6" style="stroke:#000000;stroke-width:1.0;"/><line style="stroke:#000000;stroke-width:1.0;" x1="10" x2="10" y1="55.0166" y2="1253.5835"/><rect fill="#F5F5F5" height="1198.5669" style="stroke:#F5F5F5;stroke-width:1.0;" width="366" x="381.5" y="55.0166"/><rect fill="#FFFFFF" height="46.7373" rx="12.5" ry="12.5" style="stroke:#000000;stroke-width:1.0;" width="127" x="506" y="241.9985"/><text fill="#000000" font-family="Verdana" font-size="11" lengthAdjust="spacing" textLength="107" x="516" y="263.0576">L&#7845;y danh s&#225;ch &#273;&#417;n</text><text fill="#000000" font-family="Verdana" font-size="11" lengthAdjust="spacing" textLength="74" x="516" y="276.4263">&#273;&#227; qua c&#7845;p 1</text><rect fill="#FFFFFF" height="46.7373" rx="12.5" ry="12.5" style="stroke:#000000;stroke-width:1.0;" width="161" x="489" y="308.7358"/><text fill="#000000" font-family="Verdana" font-size="11" lengthAdjust="spacing" textLength="72" x="499" y="329.7949">Hi&#7875;n th&#7883; k&#232;m</text><text fill="#000000" font-family="Verdana" font-size="11" lengthAdjust="spacing" textLength="141" x="499" y="343.1636">&#253; ki&#7871;n ng&#432;&#7901;i duy&#7879;t c&#7845;p 1</text><rect fill="#FFFFFF" height="33.3687" rx="12.5" ry="12.5" style="stroke:#000000;stroke-width:1.0;" width="148" x="399.5" y="659.6851"/><text fill="#000000" font-family="Verdana" font-size="11" lengthAdjust="spacing" textLength="128" x="409.5" y="680.7441">L&#432;u k&#7871;t qu&#7843; ph&#234; duy&#7879;t</text><rect fill="#FFFFFF" height="46.7373" rx="12.5" ry="12.5" style="stroke:#000000;stroke-width:1.0;" width="156" x="395.5" y="728.0537"/><text fill="#000000" font-family="Verdana" font-size="11" lengthAdjust="spacing" textLength="136" x="405.5" y="749.1128">C&#7853;p nh&#7853;t tr&#7841;ng th&#225;i &#273;&#417;n</text><text fill="#000000" font-family="Verdana" font-size="11" lengthAdjust="spacing" textLength="133" x="405.5" y="762.4814">th&#224;nh "&#272;&#227; duy&#7879;t c&#7845;p 2"</text><rect fill="#FFFFFF" height="46.7373" rx="12.5" ry="12.5" style="stroke:#000000;stroke-width:1.0;" width="124" x="411.5" y="809.791"/><text fill="#000000" font-family="Verdana" font-size="11" lengthAdjust="spacing" textLength="100" x="421.5" y="830.8501">Chuy&#7875;n &#273;&#417;n sang</text><text fill="#000000" font-family="Verdana" font-size="11" lengthAdjust="spacing" textLength="104" x="421.5" y="844.2188">"Ch&#7901; duy&#7879;t c&#7845;p 3"</text><rect fill="#FFFFFF" height="33.3687" rx="12.5" ry="12.5" style="stroke:#000000;stroke-width:1.0;" width="172" x="387.5" y="890.2656"/><text fill="#000000" font-family="Verdana" font-size="11" lengthAdjust="spacing" textLength="152" x="397.5" y="911.3247">G&#7917;i th&#244;ng b&#225;o cho K&#7871; to&#225;n</text><rect fill="#FFFFFF" height="33.3687" rx="12.5" ry="12.5" style="stroke:#000000;stroke-width:1.0;" width="129" x="601" y="876.5283"/><text fill="#000000" font-family="Verdana" font-size="11" lengthAdjust="spacing" textLength="109" x="611" y="897.5874">L&#432;u k&#7871;t qu&#7843; t&#7915; ch&#7889;i</text><rect fill="#FFFFFF" height="46.7373" rx="12.5" ry="12.5" style="stroke:#000000;stroke-width:1.0;" width="156" x="587.5" y="943.6343"/><text fill="#000000" font-family="Verdana" font-size="11" lengthAdjust="spacing" textLength="136" x="597.5" y="964.6934">C&#7853;p nh&#7853;t tr&#7841;ng th&#225;i &#273;&#417;n</text><text fill="#000000" font-family="Verdana" font-size="11" lengthAdjust="spacing" textLength="122" x="597.5" y="978.062">th&#224;nh "T&#7915; ch&#7889;i c&#7845;p 2"</text><rect fill="#FFFFFF" height="46.7373" rx="12.5" ry="12.5" style="stroke:#000000;stroke-width:1.0;" width="100" x="615.5" y="1024.1089"/><text fill="#000000" font-family="Verdana" font-size="11" lengthAdjust="spacing" textLength="80" x="625.5" y="1045.168">G&#7917;i th&#244;ng b&#225;o</text><text fill="#000000" font-family="Verdana" font-size="11" lengthAdjust="spacing" textLength="75" x="625.5" y="1058.5366">cho sinh vi&#234;n</text><line style="stroke:#000000;stroke-width:1.0;" x1="381.5" x2="381.5" y1="55.0166" y2="1253.5835"/><line style="stroke:#000000;stroke-width:1.0;" x1="762.5" x2="762.5" y1="55.0166" y2="1253.5835"/><line style="stroke:#000000;stroke-width:1.0;" x1="206" x2="206" y1="101.8926" y2="121.8926"/><polygon fill="#000000" points="202,111.8926,206,121.8926,210,111.8926,206,115.8926" style="stroke:#000000;stroke-width:1.0;"/><line style="stroke:#000000;stroke-width:1.0;" x1="206" x2="206" y1="155.2612" y2="175.2612"/><polygon fill="#000000" points="202,165.2612,206,175.2612,210,165.2612,206,169.2612" style="stroke:#000000;stroke-width:1.0;"/><line style="stroke:#000000;stroke-width:1.0;" x1="206" x2="206" y1="408.8418" y2="428.8418"/><polygon fill="#000000" points="202,418.8418,206,428.8418,210,418.8418,206,422.8418" style="stroke:#000000;stroke-width:1.0;"/><line style="stroke:#000000;stroke-width:1.0;" x1="206" x2="206" y1="475.5791" y2="495.5791"/><polygon fill="#000000" points="202,485.5791,206,495.5791,210,485.5791,206,489.5791" style="stroke:#000000;stroke-width:1.0;"/><line style="stroke:#000000;stroke-width:1.0;" x1="302" x2="302" y1="755.1067" y2="790.1067"/><polygon fill="#000000" points="298,780.1067,302,790.1067,306,780.1067,302,784.1067" style="stroke:#000000;stroke-width:1.0;"/><line style="stroke:#000000;stroke-width:1.0;" x1="302" x2="302" y1="697.0537" y2="721.738"/><polygon fill="#000000" points="298,711.738,302,721.738,306,711.738,302,715.738" style="stroke:#000000;stroke-width:1.0;"/><line style="stroke:#000000;stroke-width:1.0;" x1="357" x2="665.5" y1="685.0537" y2="685.0537"/><polygon fill="#000000" points="661.5,771.4224,665.5,781.4224,669.5,771.4224,665.5,775.4224" style="stroke:#000000;stroke-width:1.0;"/><line style="stroke:#000000;stroke-width:1.0;" x1="665.5" x2="665.5" y1="685.0537" y2="876.5283"/><polygon fill="#000000" points="661.5,866.5283,665.5,876.5283,669.5,866.5283,665.5,870.5283" style="stroke:#000000;stroke-width:1.0;"/><line style="stroke:#000000;stroke-width:1.0;" x1="302" x2="302" y1="639.6851" y2="673.0537"/><polygon fill="#000000" points="298,663.0537,302,673.0537,306,663.0537,302,667.0537" style="stroke:#000000;stroke-width:1.0;"/><line style="stroke:#000000;stroke-width:1.0;" x1="160" x2="110" y1="560.9478" y2="560.9478"/><line style="stroke:#000000;stroke-width:1.0;" x1="110" x2="110" y1="560.9478" y2="592.9478"/><polygon fill="#000000" points="106,582.9478,110,592.9478,114,582.9478,110,586.9478" style="stroke:#000000;stroke-width:1.0;"/><line style="stroke:#000000;stroke-width:1.0;" x1="252" x2="302" y1="560.9478" y2="560.9478"/><line style="stroke:#000000;stroke-width:1.0;" x1="302" x2="302" y1="560.9478" y2="592.9478"/><polygon fill="#000000" points="298,582.9478,302,592.9478,306,582.9478,302,586.9478" style="stroke:#000000;stroke-width:1.0;"/><line style="stroke:#000000;stroke-width:1.0;" x1="110" x2="110" y1="1004.1089" y2="1146.2148"/><line style="stroke:#000000;stroke-width:1.0;" x1="110" x2="194" y1="1146.2148" y2="1146.2148"/><polygon fill="#000000" points="184,1142.2148,194,1146.2148,184,1150.2148,188,1146.2148" style="stroke:#000000;stroke-width:1.0;"/><line style="stroke:#000000;stroke-width:1.0;" x1="302" x2="302" y1="1124.2148" y2="1146.2148"/><line style="stroke:#000000;stroke-width:1.0;" x1="302" x2="218" y1="1146.2148" y2="1146.2148"/><polygon fill="#000000" points="228,1142.2148,218,1146.2148,228,1150.2148,224,1146.2148" style="stroke:#000000;stroke-width:1.0;"/><line style="stroke:#000000;stroke-width:1.0;" x1="206" x2="206" y1="528.9478" y2="548.9478"/><polygon fill="#000000" points="202,538.9478,206,548.9478,210,538.9478,206,542.9478" style="stroke:#000000;stroke-width:1.0;"/><line style="stroke:#000000;stroke-width:1.0;" x1="206" x2="206" y1="1158.2148" y2="1178.2148"/><polygon fill="#000000" points="202,1168.2148,206,1178.2148,210,1168.2148,206,1172.2148" style="stroke:#000000;stroke-width:1.0;"/><line style="stroke:#000000;stroke-width:1.0;" x1="206" x2="206" y1="1211.5835" y2="1231.5835"/><polygon fill="#000000" points="202,1221.5835,206,1231.5835,210,1221.5835,206,1225.5835" style="stroke:#000000;stroke-width:1.0;"/><line style="stroke:#000000;stroke-width:1.0;" x1="569.5" x2="569.5" y1="288.7358" y2="308.7358"/><polygon fill="#000000" points="565.5,298.7358,569.5,308.7358,573.5,298.7358,569.5,302.7358" style="stroke:#000000;stroke-width:1.0;"/><line style="stroke:#000000;stroke-width:1.0;" x1="473.5" x2="473.5" y1="693.0537" y2="728.0537"/><polygon fill="#000000" points="469.5,718.0537,473.5,728.0537,477.5,718.0537,473.5,722.0537" style="stroke:#000000;stroke-width:1.0;"/><line style="stroke:#000000;stroke-width:1.0;" x1="473.5" x2="473.5" y1="774.791" y2="809.791"/><polygon fill="#000000" points="469.5,799.791,473.5,809.791,477.5,799.791,473.5,803.791" style="stroke:#000000;stroke-width:1.0;"/><line style="stroke:#000000;stroke-width:1.0;" x1="473.5" x2="473.5" y1="856.5283" y2="890.2656"/><polygon fill="#000000" points="469.5,880.2656,473.5,890.2656,477.5,880.2656,473.5,884.2656" style="stroke:#000000;stroke-width:1.0;"/><line style="stroke:#000000;stroke-width:1.0;" x1="665.5" x2="665.5" y1="909.897" y2="943.6343"/><polygon fill="#000000" points="661.5,933.6343,665.5,943.6343,669.5,933.6343,665.5,937.6343" style="stroke:#000000;stroke-width:1.0;"/><line style="stroke:#000000;stroke-width:1.0;" x1="665.5" x2="665.5" y1="990.3716" y2="1024.1089"/><polygon fill="#000000" points="661.5,1014.1089,665.5,1024.1089,669.5,1014.1089,665.5,1018.1089" style="stroke:#000000;stroke-width:1.0;"/><line style="stroke:#000000;stroke-width:1.0;" x1="206" x2="206" y1="221.9985" y2="226.9985"/><line style="stroke:#000000;stroke-width:1.0;" x1="206" x2="569.5" y1="226.9985" y2="226.9985"/><line style="stroke:#000000;stroke-width:1.0;" x1="569.5" x2="569.5" y1="226.9985" y2="241.9985"/><polygon fill="#000000" points="565.5,231.9985,569.5,241.9985,573.5,231.9985,569.5,235.9985" style="stroke:#000000;stroke-width:1.0;"/><line style="stroke:#000000;stroke-width:1.0;" x1="569.5" x2="569.5" y1="355.4731" y2="360.4731"/><line style="stroke:#000000;stroke-width:1.0;" x1="569.5" x2="206" y1="360.4731" y2="360.4731"/><line style="stroke:#000000;stroke-width:1.0;" x1="206" x2="206" y1="360.4731" y2="375.4731"/><polygon fill="#000000" points="202,365.4731,206,375.4731,210,365.4731,206,369.4731" style="stroke:#000000;stroke-width:1.0;"/><line style="stroke:#000000;stroke-width:1.0;" x1="110" x2="110" y1="626.3164" y2="643.8164"/><line style="stroke:#000000;stroke-width:1.0;" x1="110" x2="473.5" y1="643.8164" y2="643.8164"/><line style="stroke:#000000;stroke-width:1.0;" x1="473.5" x2="473.5" y1="643.8164" y2="659.6851"/><polygon fill="#000000" points="469.5,649.6851,473.5,659.6851,477.5,649.6851,473.5,653.6851" style="stroke:#000000;stroke-width:1.0;"/><line style="stroke:#000000;stroke-width:1.0;" x1="473.5" x2="473.5" y1="923.6343" y2="939.8716"/><line style="stroke:#000000;stroke-width:1.0;" x1="473.5" x2="110" y1="939.8716" y2="939.8716"/><line style="stroke:#000000;stroke-width:1.0;" x1="110" x2="110" y1="939.8716" y2="957.3716"/><polygon fill="#000000" points="106,947.3716,110,957.3716,114,947.3716,110,951.3716" style="stroke:#000000;stroke-width:1.0;"/><line style="stroke:#000000;stroke-width:1.0;" x1="665.5" x2="665.5" y1="1070.8462" y2="1075.8462"/><line style="stroke:#000000;stroke-width:1.0;" x1="665.5" x2="302" y1="1075.8462" y2="1075.8462"/><line style="stroke:#000000;stroke-width:1.0;" x1="302" x2="302" y1="1075.8462" y2="1090.8462"/><polygon fill="#000000" points="298,1080.8462,302,1090.8462,306,1080.8462,302,1084.8462" style="stroke:#000000;stroke-width:1.0;"/><text fill="#000000" font-family="Verdana" font-size="18" lengthAdjust="spacing" textLength="105" x="143.25" y="73.1133">C&#225;n b&#7897; Qu&#7929;</text><text fill="#000000" font-family="Verdana" font-size="18" lengthAdjust="spacing" textLength="82" x="523.5" y="73.1133">H&#7879; th&#7889;ng</text><rect fill="none" height="61.0439" id="_legend" rx="7.5" ry="7.5" style="stroke:#000000;stroke-width:1.0;" width="361" x="400.5" y="1258.5835"/><text fill="#000000" font-family="Verdana" font-size="14" font-weight="bold" lengthAdjust="spacing" textLength="56" x="405.5" y="1277.6587">Quy&#7873;n:</text><text fill="#000000" font-family="Verdana" font-size="14" lengthAdjust="spacing" textLength="251" x="466.5" y="1277.6587">C&#225;n b&#7897; Qu&#7929; (role 3), Admin (role 1)</text><text fill="#000000" font-family="Verdana" font-size="14" font-weight="bold" lengthAdjust="spacing" textLength="35" x="405.5" y="1294.6733">API:</text><text fill="#000000" font-family="Verdana" font-size="14" lengthAdjust="spacing" textLength="286" x="445.5" y="1294.6733">PUT /api/applications/:id/approve-level-2</text><text fill="#000000" font-family="Verdana" font-size="14" font-weight="bold" lengthAdjust="spacing" textLength="120" x="405.5" y="1311.688">B&#432;&#7899;c ti&#7871;p theo:</text><text fill="#000000" font-family="Verdana" font-size="14" lengthAdjust="spacing" textLength="226" x="530.5" y="1311.688">K&#7871; to&#225;n duy&#7879;t c&#7845;p 3 &amp; gi&#7843;i ng&#226;n</text><!--SRC=[bLHHQzDG57w_l-BOWRJ1iRLZ2Ec3hDdcn24TTkeUioHBBarlikIcMkcB20hwujuK4LQdg9F9G5zC41_kwF-u_yHpaxfbcnDj6sZkEUVxldE-U-ybxZaz1qBVf8p4NSf2Cp9xi6bQNJSA4cORWHz4CBMSVqePfiLfd_B1Si3uRVhGWNgz58tlqvvlCkSkjRa7ZVbPGZZblWEQjh0uEwz3UqKyWyNr3PazwO0XqtTjQ6WQ8SEffNfhQUdgq10Z1fioUmLhYSo-3qdCpOWJ_OxO3Q22Q-aU0r_yWAETyOXLcaI_v_J0Dfa7iHXPNh5EAeOdipTW9mEPFULWoVHz20rCHwRbUVKThc04EARjC7T8z5LC6Pm30dAq8_PWEp4d67LaNA4oUyposkVG5Hzx1FLqgKn_Cc3k-12PwHdgUlDlFUg6Jwqkz5MF1IrMVM3mG7pYamujZm9N57pI8IQ3Zm9GQIop0mWziN-UDAzLC9Yh41keWsv1TGqJ2oo4ODwr6dRZCAYsIoWr0g3VycHw48ABz9OdKgWoh4l04bzhJOpZxuA1Oktg-321RiwphOmxfL5LwqOEpXG71nx9TCHSX10ZEkaIrDikUb8vUe4-dFTJWNXg5GqfHXURpCNbF-w0kQBYEWwCAkHlIBSfHW7s5i1DL0eyG7EEExl8CCJebAhpFL9k3XEELIaz9MoeJgGKytFys85gHsQVKGEEZfQdhlQv7G0_YMAmsfBfbmwqrcNsqlXjWl8qdn0hLnxRQdZZGrCX8_Q6s4_o_PMSJcxcuPW78Vvnc4st_jlVaj3_jRSqWTFkdlCA5vLRCSMoFXNx_-HMFfkIl8A_IOe-YRwMc0DrH53PoHNG9FaqYE-uc0SHTJrED4sTdUmHqpKDpb11DGhmifkhNO45kqVPvBrUmwg5zWrLqLxlm8mPKdn2FFGcfm6BPtHgguKew3lJljDt_Ea6bhJKLVBQAivzgAmC54HfBvtPtN0PNCpTetWDYRTCTLTe9xy0]--></g></svg>