<?xml version="1.0" encoding="us-ascii" standalone="no"?><svg xmlns="http://www.w3.org/2000/svg" xmlns:xlink="http://www.w3.org/1999/xlink" contentStyleType="text/css" height="1950px" preserveAspectRatio="none" style="width:1072px;height:1950px;background:#FFFFFF;" version="1.1" viewBox="0 0 1072 1950" width="1072px" zoomAndPan="magnify"><defs/><g><text fill="#000000" font-family="Verdana" font-size="22" font-weight="bold" lengthAdjust="spacing" textLength="456" x="306.75" y="37.1182">SD07a: X&#193;C NH&#7852;N T&#192;I TR&#7906; (DUY&#7878;T)</text><rect fill="#FFFFFF" height="1437.1304" style="stroke:#000000;stroke-width:1.0;" width="10" x="349.5" y="162.5513"/><rect fill="#FFFFFF" height="105.1973" style="stroke:#000000;stroke-width:1.0;" width="10" x="568.5" y="192.3506"/><rect fill="#FFFFFF" height="105.1973" style="stroke:#000000;stroke-width:1.0;" width="10" x="568.5" y="357.1465"/><rect fill="#FFFFFF" height="840.7461" style="stroke:#000000;stroke-width:1.0;" width="10" x="568.5" y="698.3369"/><rect fill="#FFFFFF" height="29.7993" style="stroke:#000000;stroke-width:1.0;" width="10" x="838.5" y="237.9492"/><rect fill="#FFFFFF" height="29.7993" style="stroke:#000000;stroke-width:1.0;" width="10" x="838.5" y="402.7451"/><rect fill="#FFFFFF" height="29.7993" style="stroke:#000000;stroke-width:1.0;" width="10" x="838.5" y="816.7349"/><rect fill="#FFFFFF" height="394.5884" style="stroke:#000000;stroke-width:1.0;" width="10" x="838.5" y="991.8994"/><rect fill="#FFFFFF" height="29.7993" style="stroke:#000000;stroke-width:1.0;" width="10" x="968" y="1432.0864"/><rect fill="#FFFFFF" height="731.1475" style="stroke:#000000;stroke-width:1.0;" width="967.5" x="88" y="861.5342"/><rect fill="#FFFFFF" height="637.9502" style="stroke:none;stroke-width:1.0;" width="967.5" x="88" y="954.7314"/><line style="stroke:#000000;stroke-width:1.0;" x1="128" x2="128" y1="130.752" y2="1708.6782"/><line style="stroke:#000000;stroke-width:1.0;" x1="354" x2="354" y1="130.752" y2="1708.6782"/><line style="stroke:#000000;stroke-width:1.0;" x1="573" x2="573" y1="130.752" y2="1708.6782"/><line style="stroke:#000000;stroke-width:1.0;" x1="843" x2="843" y1="130.752" y2="1708.6782"/><line style="stroke:#000000;stroke-width:1.0;" x1="973" x2="973" y1="130.752" y2="1708.6782"/><text fill="#000000" font-family="Verdana" font-size="14" lengthAdjust="spacing" textLength="55" x="98" y="127.8125">K&#7871; to&#225;n</text><ellipse cx="128.5" cy="61.7373" fill="#FFFFFF" rx="8" ry="8" style="stroke:#000000;stroke-width:1.0;"/><path d="M128.5,69.7373 L128.5,96.7373 M115.5,77.7373 L141.5,77.7373 M128.5,96.7373 L115.5,111.7373 M128.5,96.7373 L141.5,111.7373 " fill="none" style="stroke:#000000;stroke-width:1.0;"/><text fill="#000000" font-family="Verdana" font-size="14" lengthAdjust="spacing" textLength="55" x="98" y="1721.7534">K&#7871; to&#225;n</text><ellipse cx="128.5" cy="1733.6929" fill="#FFFFFF" rx="8" ry="8" style="stroke:#000000;stroke-width:1.0;"/><path d="M128.5,1741.6929 L128.5,1768.6929 M115.5,1749.6929 L141.5,1749.6929 M128.5,1768.6929 L115.5,1783.6929 M128.5,1768.6929 L141.5,1783.6929 " fill="none" style="stroke:#000000;stroke-width:1.0;"/><rect fill="#FFFFFF" height="31.0146" rx="2.5" ry="2.5" style="stroke:#000000;stroke-width:1.0;" width="95" x="307" y="98.7373"/><text fill="#000000" font-family="Verdana" font-size="14" lengthAdjust="spacing" textLength="81" x="314" y="119.8125">Tr&#236;nh duy&#7879;t</text><rect fill="#FFFFFF" height="31.0146" rx="2.5" ry="2.5" style="stroke:#000000;stroke-width:1.0;" width="95" x="307" y="1707.6782"/><text fill="#000000" font-family="Verdana" font-size="14" lengthAdjust="spacing" textLength="81" x="314" y="1728.7534">Tr&#236;nh duy&#7879;t</text><rect fill="#FFFFFF" height="31.0146" rx="2.5" ry="2.5" style="stroke:#000000;stroke-width:1.0;" width="107" x="520" y="98.7373"/><text fill="#000000" font-family="Verdana" font-size="14" lengthAdjust="spacing" textLength="93" x="527" y="119.8125">API H&#7879; th&#7889;ng</text><rect fill="#FFFFFF" height="31.0146" rx="2.5" ry="2.5" style="stroke:#000000;stroke-width:1.0;" width="107" x="520" y="1707.6782"/><text fill="#000000" font-family="Verdana" font-size="14" lengthAdjust="spacing" textLength="93" x="527" y="1728.7534">API H&#7879; th&#7889;ng</text><text fill="#000000" font-family="Verdana" font-size="14" lengthAdjust="spacing" textLength="93" x="794" y="127.8125">C&#417; s&#7903; d&#7919; li&#7879;u</text><path d="M825.5,77.7373 C825.5,67.7373 843.5,67.7373 843.5,67.7373 C843.5,67.7373 861.5,67.7373 861.5,77.7373 L861.5,103.7373 C861.5,113.7373 843.5,113.7373 843.5,113.7373 C843.5,113.7373 825.5,113.7373 825.5,103.7373 L825.5,77.7373 " fill="#FFFFFF" style="stroke:#000000;stroke-width:1.5;"/><path d="M825.5,77.7373 C825.5,87.7373 843.5,87.7373 843.5,87.7373 C843.5,87.7373 861.5,87.7373 861.5,77.7373 " fill="none" style="stroke:#000000;stroke-width:1.5;"/><text fill="#000000" font-family="Verdana" font-size="14" lengthAdjust="spacing" textLength="93" x="794" y="1721.7534">C&#417; s&#7903; d&#7919; li&#7879;u</text><path d="M825.5,1734.6929 C825.5,1724.6929 843.5,1724.6929 843.5,1724.6929 C843.5,1724.6929 861.5,1724.6929 861.5,1734.6929 L861.5,1760.6929 C861.5,1770.6929 843.5,1770.6929 843.5,1770.6929 C843.5,1770.6929 825.5,1770.6929 825.5,1760.6929 L825.5,1734.6929 " fill="#FFFFFF" style="stroke:#000000;stroke-width:1.5;"/><path d="M825.5,1734.6929 C825.5,1744.6929 843.5,1744.6929 843.5,1744.6929 C843.5,1744.6929 861.5,1744.6929 861.5,1734.6929 " fill="none" style="stroke:#000000;stroke-width:1.5;"/><rect fill="#FFFFFF" height="31.0146" rx="2.5" ry="2.5" style="stroke:#000000;stroke-width:1.0;" width="120" x="913" y="98.7373"/><text fill="#000000" font-family="Verdana" font-size="14" lengthAdjust="spacing" textLength="106" x="920" y="119.8125">H&#7879; th&#7889;ng Email</text><rect fill="#FFFFFF" height="31.0146" rx="2.5" ry="2.5" style="stroke:#000000;stroke-width:1.0;" width="120" x="913" y="1707.6782"/><text fill="#000000" font-family="Verdana" font-size="14" lengthAdjust="spacing" textLength="106" x="920" y="1728.7534">H&#7879; th&#7889;ng Email</text><rect fill="#FFFFFF" height="1437.1304" style="stroke:#000000;stroke-width:1.0;" width="10" x="349.5" y="162.5513"/><rect fill="#FFFFFF" height="105.1973" style="stroke:#000000;stroke-width:1.0;" width="10" x="568.5" y="192.3506"/><rect fill="#FFFFFF" height="105.1973" style="stroke:#000000;stroke-width:1.0;" width="10" x="568.5" y="357.1465"/><rect fill="#FFFFFF" height="840.7461" style="stroke:#000000;stroke-width:1.0;" width="10" x="568.5" y="698.3369"/><rect fill="#FFFFFF" height="29.7993" style="stroke:#000000;stroke-width:1.0;" width="10" x="838.5" y="237.9492"/><rect fill="#FFFFFF" height="29.7993" style="stroke:#000000;stroke-width:1.0;" width="10" x="838.5" y="402.7451"/><rect fill="#FFFFFF" height="29.7993" style="stroke:#000000;stroke-width:1.0;" width="10" x="838.5" y="816.7349"/><rect fill="#FFFFFF" height="394.5884" style="stroke:#000000;stroke-width:1.0;" width="10" x="838.5" y="991.8994"/><rect fill="#FFFFFF" height="29.7993" style="stroke:#000000;stroke-width:1.0;" width="10" x="968" y="1432.0864"/><polygon fill="#000000" points="337.5,158.5513,347.5,162.5513,337.5,166.5513,341.5,162.5513" style="stroke:#000000;stroke-width:1.0;"/><line style="stroke:#000000;stroke-width:1.0;" x1="128.5" x2="343.5" y1="162.5513" y2="162.5513"/><text fill="#000000" font-family="Verdana" font-size="13" lengthAdjust="spacing" textLength="188" x="145" y="157.8218">V&#224;o trang "X&#225;c nh&#7853;n t&#224;i tr&#7907;"</text><polygon fill="#000000" points="556.5,188.3506,566.5,192.3506,556.5,196.3506,560.5,192.3506" style="stroke:#000000;stroke-width:1.0;"/><line style="stroke:#000000;stroke-width:1.0;" x1="359.5" x2="562.5" y1="192.3506" y2="192.3506"/><text fill="#000000" font-family="Verdana" font-size="13" lengthAdjust="spacing" textLength="190" x="369" y="187.6211">L&#7845;y danh s&#225;ch ch&#7901; x&#225;c nh&#7853;n</text><polygon fill="#000000" points="826.5,233.9492,836.5,237.9492,826.5,241.9492,830.5,237.9492" style="stroke:#000000;stroke-width:1.0;"/><line style="stroke:#000000;stroke-width:1.0;" x1="578.5" x2="832.5" y1="237.9492" y2="237.9492"/><text fill="#000000" font-family="Verdana" font-size="13" lengthAdjust="spacing" textLength="149" x="634" y="217.4204">Truy v&#7845;n kho&#7843;n t&#224;i tr&#7907;</text><text fill="#000000" font-family="Verdana" font-size="13" lengthAdjust="spacing" textLength="191" x="613" y="233.2197">c&#243; tr&#7841;ng th&#225;i "Ch&#7901; x&#225;c nh&#7853;n"</text><polygon fill="#000000" points="589.5,263.7485,579.5,267.7485,589.5,271.7485,585.5,267.7485" style="stroke:#000000;stroke-width:1.0;"/><line style="stroke:#000000;stroke-width:1.0;stroke-dasharray:2.0,2.0;" x1="583.5" x2="842.5" y1="267.7485" y2="267.7485"/><text fill="#000000" font-family="Verdana" font-size="13" lengthAdjust="spacing" textLength="159" x="631.5" y="263.019">Danh s&#225;ch kho&#7843;n t&#224;i tr&#7907;</text><polygon fill="#000000" points="370.5,293.5479,360.5,297.5479,370.5,301.5479,366.5,297.5479" style="stroke:#000000;stroke-width:1.0;"/><line style="stroke:#000000;stroke-width:1.0;stroke-dasharray:2.0,2.0;" x1="364.5" x2="572.5" y1="297.5479" y2="297.5479"/><text fill="#000000" font-family="Verdana" font-size="13" lengthAdjust="spacing" textLength="123" x="405" y="292.8184">Hi&#7875;n th&#7883; danh s&#225;ch</text><polygon fill="#000000" points="337.5,323.3472,347.5,327.3472,337.5,331.3472,341.5,327.3472" style="stroke:#000000;stroke-width:1.0;"/><line style="stroke:#000000;stroke-width:1.0;" x1="128.5" x2="343.5" y1="327.3472" y2="327.3472"/><text fill="#000000" font-family="Verdana" font-size="13" lengthAdjust="spacing" textLength="197" x="140.5" y="322.6177">Click v&#224;o kho&#7843;n c&#7847;n x&#225;c nh&#7853;n</text><polygon fill="#000000" points="556.5,353.1465,566.5,357.1465,556.5,361.1465,560.5,357.1465" style="stroke:#000000;stroke-width:1.0;"/><line style="stroke:#000000;stroke-width:1.0;" x1="359.5" x2="562.5" y1="357.1465" y2="357.1465"/><text fill="#000000" font-family="Verdana" font-size="13" lengthAdjust="spacing" textLength="165" x="381.5" y="352.417">L&#7845;y chi ti&#7871;t kho&#7843;n t&#224;i tr&#7907;</text><polygon fill="#000000" points="826.5,398.7451,836.5,402.7451,826.5,406.7451,830.5,402.7451" style="stroke:#000000;stroke-width:1.0;"/><line style="stroke:#000000;stroke-width:1.0;" x1="578.5" x2="832.5" y1="402.7451" y2="402.7451"/><text fill="#000000" font-family="Verdana" font-size="13" lengthAdjust="spacing" textLength="174" x="621.5" y="382.2163">Truy v&#7845;n th&#244;ng tin &#273;&#7847;y &#273;&#7911;</text><text fill="#000000" font-family="Verdana" font-size="13" lengthAdjust="spacing" textLength="139" x="639" y="398.0156">+ Ch&#7913;ng t&#7915; &#273;&#237;nh k&#232;m</text><polygon fill="#000000" points="589.5,428.5444,579.5,432.5444,589.5,436.5444,585.5,432.5444" style="stroke:#000000;stroke-width:1.0;"/><line style="stroke:#000000;stroke-width:1.0;stroke-dasharray:2.0,2.0;" x1="583.5" x2="842.5" y1="432.5444" y2="432.5444"/><text fill="#000000" font-family="Verdana" font-size="13" lengthAdjust="spacing" textLength="138" x="642" y="427.8149">Chi ti&#7871;t kho&#7843;n t&#224;i tr&#7907;</text><polygon fill="#000000" points="370.5,458.3438,360.5,462.3438,370.5,466.3438,366.5,462.3438" style="stroke:#000000;stroke-width:1.0;"/><line style="stroke:#000000;stroke-width:1.0;stroke-dasharray:2.0,2.0;" x1="364.5" x2="572.5" y1="462.3438" y2="462.3438"/><text fill="#000000" font-family="Verdana" font-size="13" lengthAdjust="spacing" textLength="102" x="415.5" y="457.6143">Hi&#7875;n th&#7883; chi ti&#7871;t</text><line style="stroke:#000000;stroke-width:1.0;" x1="128.5" x2="170.5" y1="555.3403" y2="555.3403"/><line style="stroke:#000000;stroke-width:1.0;" x1="170.5" x2="170.5" y1="555.3403" y2="568.3403"/><line style="stroke:#000000;stroke-width:1.0;" x1="129.5" x2="170.5" y1="568.3403" y2="568.3403"/><polygon fill="#000000" points="139.5,564.3403,129.5,568.3403,139.5,572.3403,135.5,568.3403" style="stroke:#000000;stroke-width:1.0;"/><text fill="#000000" font-family="Verdana" font-size="13" lengthAdjust="spacing" textLength="60" x="190" y="487.4136">Ki&#7875;m tra:</text><text fill="#000000" font-family="Verdana" font-size="13" lengthAdjust="spacing" textLength="131" x="154.5" y="503.2129">- Sao k&#234; ng&#226;n h&#224;ng</text><text fill="#000000" font-family="Verdana" font-size="13" lengthAdjust="spacing" textLength="95" x="172.5" y="519.0122">- S&#7889; ti&#7873;n kh&#7899;p</text><text fill="#000000" font-family="Verdana" font-size="13" lengthAdjust="spacing" textLength="169" x="135.5" y="534.8115">- Th&#7901;i gian chuy&#7875;n kho&#7843;n</text><text fill="#000000" font-family="Verdana" font-size="13" lengthAdjust="spacing" textLength="166" x="137" y="550.6108">- N&#7897;i dung chuy&#7875;n kho&#7843;n</text><path d="M10,581.3403 L10,622.3403 L248,622.3403 L248,591.3403 L238,581.3403 L10,581.3403 " fill="#FFFFFF" style="stroke:#000000;stroke-width:1.0;"/><path d="M238,581.3403 L238,591.3403 L248,591.3403 L238,581.3403 " fill="#FFFFFF" style="stroke:#000000;stroke-width:1.0;"/><text fill="#000000" font-family="Verdana" font-size="13" font-weight="bold" lengthAdjust="spacing" textLength="203" x="16" y="599.4102">Tr&#432;&#7901;ng h&#7907;p: Th&#244;ng tin KH&#7898;P</text><text fill="#000000" font-family="Verdana" font-size="13" lengthAdjust="spacing" textLength="217" x="16" y="615.2095">&#272;&#227; nh&#7853;n &#273;&#432;&#7907;c ti&#7873;n t&#7915; nh&#224; t&#224;i tr&#7907;</text><polygon fill="#000000" points="337.5,661.5376,347.5,665.5376,337.5,669.5376,341.5,665.5376" style="stroke:#000000;stroke-width:1.0;"/><line style="stroke:#000000;stroke-width:1.0;" x1="128.5" x2="343.5" y1="665.5376" y2="665.5376"/><text fill="#000000" font-family="Verdana" font-size="13" lengthAdjust="spacing" textLength="148" x="165" y="645.0088">Nh&#7853;p ghi ch&#250; (n&#7871;u c&#243;)</text><text fill="#000000" font-family="Verdana" font-size="13" lengthAdjust="spacing" textLength="130" x="174" y="660.8081">v&#224; nh&#7845;n "X&#225;c nh&#7853;n"</text><polygon fill="#000000" points="556.5,694.3369,566.5,698.3369,556.5,702.3369,560.5,698.3369" style="stroke:#000000;stroke-width:1.0;"/><line style="stroke:#000000;stroke-width:1.0;" x1="359.5" x2="562.5" y1="698.3369" y2="698.3369"/><text fill="#000000" font-family="Verdana" font-size="13" lengthAdjust="spacing" textLength="144" x="392" y="693.6074">G&#7917;i y&#234;u c&#7847;u x&#225;c nh&#7853;n</text><path d="M583,678.5376 L583,703.5376 L812,703.5376 L812,688.5376 L802,678.5376 L583,678.5376 " fill="#FFFFFF" style="stroke:#000000;stroke-width:1.0;"/><path d="M802,678.5376 L802,688.5376 L812,688.5376 L802,678.5376 " fill="#FFFFFF" style="stroke:#000000;stroke-width:1.0;"/><text fill="#000000" font-family="Verdana" font-size="13" lengthAdjust="spacing" textLength="208" x="589" y="696.6074">PUT /api/donations/:id/approve</text><line style="stroke:#000000;stroke-width:1.0;" x1="578.5" x2="620.5" y1="731.1362" y2="731.1362"/><line style="stroke:#000000;stroke-width:1.0;" x1="620.5" x2="620.5" y1="731.1362" y2="744.1362"/><line style="stroke:#000000;stroke-width:1.0;" x1="579.5" x2="620.5" y1="744.1362" y2="744.1362"/><polygon fill="#000000" points="589.5,740.1362,579.5,744.1362,589.5,748.1362,585.5,744.1362" style="stroke:#000000;stroke-width:1.0;"/><text fill="#000000" font-family="Verdana" font-size="13" lengthAdjust="spacing" textLength="103" x="585.5" y="726.4067">X&#225;c th&#7921;c token</text><line style="stroke:#000000;stroke-width:1.0;" x1="578.5" x2="620.5" y1="773.9355" y2="773.9355"/><line style="stroke:#000000;stroke-width:1.0;" x1="620.5" x2="620.5" y1="773.9355" y2="786.9355"/><line style="stroke:#000000;stroke-width:1.0;" x1="579.5" x2="620.5" y1="786.9355" y2="786.9355"/><polygon fill="#000000" points="589.5,782.9355,579.5,786.9355,589.5,790.9355,585.5,786.9355" style="stroke:#000000;stroke-width:1.0;"/><text fill="#000000" font-family="Verdana" font-size="13" lengthAdjust="spacing" textLength="209" x="585.5" y="769.2061">Ki&#7875;m tra quy&#7873;n K&#7871; to&#225;n (role 2)</text><polygon fill="#000000" points="826.5,812.7349,836.5,816.7349,826.5,820.7349,830.5,816.7349" style="stroke:#000000;stroke-width:1.0;"/><line style="stroke:#000000;stroke-width:1.0;" x1="578.5" x2="832.5" y1="816.7349" y2="816.7349"/><text fill="#000000" font-family="Verdana" font-size="13" lengthAdjust="spacing" textLength="214" x="601.5" y="812.0054">Ki&#7875;m tra tr&#7841;ng th&#225;i kho&#7843;n t&#224;i tr&#7907;</text><polygon fill="#000000" points="589.5,842.5342,579.5,846.5342,589.5,850.5342,585.5,846.5342" style="stroke:#000000;stroke-width:1.0;"/><line style="stroke:#000000;stroke-width:1.0;stroke-dasharray:2.0,2.0;" x1="583.5" x2="842.5" y1="846.5342" y2="846.5342"/><text fill="#000000" font-family="Verdana" font-size="13" lengthAdjust="spacing" textLength="122" x="650" y="841.8047">Tr&#7841;ng th&#225;i hi&#7879;n t&#7841;i</text><path d="M88,861.5342 L152,861.5342 L152,869.3335 L142,879.3335 L88,879.3335 L88,861.5342 " fill="#FFFFFF" style="stroke:#000000;stroke-width:1.0;"/><rect fill="none" height="731.1475" style="stroke:#000000;stroke-width:1.0;" width="967.5" x="88" y="861.5342"/><text fill="#000000" font-family="Verdana" font-size="13" font-weight="bold" lengthAdjust="spacing" textLength="19" x="103" y="875.604">alt</text><text fill="#000000" font-family="Verdana" font-size="11" font-weight="bold" lengthAdjust="spacing" textLength="260" x="167" y="874.5933">[Tr&#7841;ng th&#225;i kh&#244;ng ph&#7843;i "Ch&#7901; x&#225;c nh&#7853;n"]</text><polygon fill="#000000" points="370.5,912.9321,360.5,916.9321,370.5,920.9321,366.5,916.9321" style="stroke:#000000;stroke-width:1.0;"/><line style="stroke:#000000;stroke-width:1.0;stroke-dasharray:2.0,2.0;" x1="364.5" x2="567.5" y1="916.9321" y2="916.9321"/><text fill="#000000" font-family="Verdana" font-size="13" lengthAdjust="spacing" textLength="89" x="419.5" y="896.4033">Th&#244;ng b&#225;o l&#7895;i</text><text fill="#000000" font-family="Verdana" font-size="13" lengthAdjust="spacing" textLength="146" x="391" y="912.2026">"Kho&#7843;n &#273;&#227; &#273;&#432;&#7907;c x&#7917; l&#253;"</text><polygon fill="#000000" points="139.5,942.7314,129.5,946.7314,139.5,950.7314,135.5,946.7314" style="stroke:#000000;stroke-width:1.0;"/><line style="stroke:#000000;stroke-width:1.0;stroke-dasharray:2.0,2.0;" x1="133.5" x2="348.5" y1="946.7314" y2="946.7314"/><text fill="#000000" font-family="Verdana" font-size="13" lengthAdjust="spacing" textLength="69" x="204.5" y="942.002">Hi&#7875;n th&#7883; l&#7895;i</text><line style="stroke:#000000;stroke-width:1.0;stroke-dasharray:2.0,2.0;" x1="88" x2="1055.5" y1="955.7314" y2="955.7314"/><text fill="#000000" font-family="Verdana" font-size="11" font-weight="bold" lengthAdjust="spacing" textLength="123" x="93" y="966.7905">[Tr&#7841;ng th&#225;i h&#7907;p l&#7879;]</text><polygon fill="#000000" points="826.5,987.8994,836.5,991.8994,826.5,995.8994,830.5,991.8994" style="stroke:#000000;stroke-width:1.0;"/><line style="stroke:#000000;stroke-width:1.0;" x1="578.5" x2="832.5" y1="991.8994" y2="991.8994"/><text fill="#000000" font-family="Verdana" font-size="13" font-weight="bold" lengthAdjust="spacing" textLength="125" x="646" y="987.1699">B&#7855;t &#273;&#7847;u giao d&#7883;ch</text><polygon fill="#000000" points="826.5,1033.498,836.5,1037.498,826.5,1041.498,830.5,1037.498" style="stroke:#000000;stroke-width:1.0;"/><line style="stroke:#000000;stroke-width:1.0;" x1="578.5" x2="832.5" y1="1037.498" y2="1037.498"/><text fill="#000000" font-family="Verdana" font-size="13" lengthAdjust="spacing" textLength="130" x="643.5" y="1016.9692">C&#7853;p nh&#7853;t tr&#7841;ng th&#225;i</text><text fill="#000000" font-family="Verdana" font-size="13" lengthAdjust="spacing" textLength="107" x="655" y="1032.7686">th&#224;nh "&#272;&#227; nh&#7853;n"</text><polygon fill="#000000" points="589.5,1063.2974,579.5,1067.2974,589.5,1071.2974,585.5,1067.2974" style="stroke:#000000;stroke-width:1.0;"/><line style="stroke:#000000;stroke-width:1.0;stroke-dasharray:2.0,2.0;" x1="583.5" x2="837.5" y1="1067.2974" y2="1067.2974"/><text fill="#000000" font-family="Verdana" font-size="13" lengthAdjust="spacing" textLength="81" x="668" y="1062.5679">&#272;&#227; c&#7853;p nh&#7853;t</text><polygon fill="#000000" points="826.5,1108.896,836.5,1112.896,826.5,1116.896,830.5,1112.896" style="stroke:#000000;stroke-width:1.0;"/><line style="stroke:#000000;stroke-width:1.0;" x1="578.5" x2="832.5" y1="1112.896" y2="1112.896"/><text fill="#000000" font-family="Verdana" font-size="13" font-weight="bold" lengthAdjust="spacing" textLength="131" x="643" y="1092.3672">C&#7897;ng ti&#7873;n v&#224;o qu&#7929;</text><text fill="#000000" font-family="Verdana" font-size="13" lengthAdjust="spacing" textLength="236" x="590.5" y="1108.1665">S&#7889; d&#432; m&#7899;i = S&#7889; d&#432; + S&#7889; ti&#7873;n t&#224;i tr&#7907;</text><path d="M853,1085.197 L853,1110.197 L1045,1110.197 L1045,1095.197 L1035,1085.197 L853,1085.197 " fill="#FFFFFF" style="stroke:#000000;stroke-width:1.0;"/><path d="M1035,1085.197 L1035,1095.197 L1045,1095.197 L1035,1085.197 " fill="#FFFFFF" style="stroke:#000000;stroke-width:1.0;"/><text fill="#000000" font-family="Verdana" font-size="13" lengthAdjust="spacing" textLength="171" x="859" y="1103.2668">&#272;&#226;y l&#224; b&#432;&#7899;c QUAN TR&#7884;NG</text><polygon fill="#000000" points="589.5,1138.6953,579.5,1142.6953,589.5,1146.6953,585.5,1142.6953" style="stroke:#000000;stroke-width:1.0;"/><line style="stroke:#000000;stroke-width:1.0;stroke-dasharray:2.0,2.0;" x1="583.5" x2="837.5" y1="1142.6953" y2="1142.6953"/><text fill="#000000" font-family="Verdana" font-size="13" lengthAdjust="spacing" textLength="111" x="653" y="1137.9658">Qu&#7929; &#273;&#227; c&#7853;p nh&#7853;t</text><polygon fill="#000000" points="826.5,1247.4912,836.5,1251.4912,826.5,1255.4912,830.5,1251.4912" style="stroke:#000000;stroke-width:1.0;"/><line style="stroke:#000000;stroke-width:1.0;" x1="578.5" x2="832.5" y1="1251.4912" y2="1251.4912"/><text fill="#000000" font-family="Verdana" font-size="13" lengthAdjust="spacing" textLength="121" x="648" y="1167.7651">T&#7841;o giao d&#7883;ch THU</text><text fill="#000000" font-family="Verdana" font-size="13" lengthAdjust="spacing" textLength="74" x="671.5" y="1183.5645">- Lo&#7841;i: Thu</text><text fill="#000000" font-family="Verdana" font-size="13" lengthAdjust="spacing" textLength="59" x="679" y="1199.3638">- S&#7889; ti&#7873;n</text><text fill="#000000" font-family="Verdana" font-size="13" lengthAdjust="spacing" textLength="57" x="680" y="1215.1631">- Qu&#7929; ID</text><text fill="#000000" font-family="Verdana" font-size="13" lengthAdjust="spacing" textLength="102" x="657.5" y="1230.9624">- Nh&#224; t&#224;i tr&#7907; ID</text><text fill="#000000" font-family="Verdana" font-size="13" lengthAdjust="spacing" textLength="154" x="631.5" y="1246.7617">- Li&#234;n k&#7871;t kho&#7843;n t&#224;i tr&#7907;</text><polygon fill="#000000" points="589.5,1277.2905,579.5,1281.2905,589.5,1285.2905,585.5,1281.2905" style="stroke:#000000;stroke-width:1.0;"/><line style="stroke:#000000;stroke-width:1.0;stroke-dasharray:2.0,2.0;" x1="583.5" x2="837.5" y1="1281.2905" y2="1281.2905"/><text fill="#000000" font-family="Verdana" font-size="13" lengthAdjust="spacing" textLength="108" x="654.5" y="1276.561">Giao d&#7883;ch &#273;&#227; t&#7841;o</text><polygon fill="#000000" points="826.5,1322.8892,836.5,1326.8892,826.5,1330.8892,830.5,1326.8892" style="stroke:#000000;stroke-width:1.0;"/><line style="stroke:#000000;stroke-width:1.0;" x1="578.5" x2="832.5" y1="1326.8892" y2="1326.8892"/><text fill="#000000" font-family="Verdana" font-size="13" lengthAdjust="spacing" textLength="130" x="643.5" y="1306.3604">L&#432;u ng&#432;&#7901;i x&#225;c nh&#7853;n</text><text fill="#000000" font-family="Verdana" font-size="13" lengthAdjust="spacing" textLength="143" x="637" y="1322.1597">v&#224; th&#7901;i gian x&#225;c nh&#7853;n</text><polygon fill="#000000" points="589.5,1352.6885,579.5,1356.6885,589.5,1360.6885,585.5,1356.6885" style="stroke:#000000;stroke-width:1.0;"/><line style="stroke:#000000;stroke-width:1.0;stroke-dasharray:2.0,2.0;" x1="583.5" x2="837.5" y1="1356.6885" y2="1356.6885"/><text fill="#000000" font-family="Verdana" font-size="13" lengthAdjust="spacing" textLength="42" x="687.5" y="1351.959">&#272;&#227; l&#432;u</text><polygon fill="#000000" points="831.5,1382.4878,841.5,1386.4878,831.5,1390.4878,835.5,1386.4878" style="stroke:#000000;stroke-width:1.0;"/><line style="stroke:#000000;stroke-width:1.0;" x1="578.5" x2="837.5" y1="1386.4878" y2="1386.4878"/><text fill="#000000" font-family="Verdana" font-size="13" font-weight="bold" lengthAdjust="spacing" textLength="136" x="643" y="1381.7583">X&#225;c nh&#7853;n giao d&#7883;ch</text><polygon fill="#000000" points="956,1428.0864,966,1432.0864,956,1436.0864,960,1432.0864" style="stroke:#000000;stroke-width:1.0;"/><line style="stroke:#000000;stroke-width:1.0;" x1="578.5" x2="962" y1="1432.0864" y2="1432.0864"/><text fill="#000000" font-family="Verdana" font-size="13" lengthAdjust="spacing" textLength="112" x="717.25" y="1411.5576">G&#7917;i email c&#7843;m &#417;n</text><text fill="#000000" font-family="Verdana" font-size="13" lengthAdjust="spacing" textLength="99" x="723.75" y="1427.3569">&#273;&#7871;n nh&#224; t&#224;i tr&#7907;</text><polygon fill="#000000" points="589.5,1457.8857,579.5,1461.8857,589.5,1465.8857,585.5,1461.8857" style="stroke:#000000;stroke-width:1.0;"/><line style="stroke:#000000;stroke-width:1.0;stroke-dasharray:2.0,2.0;" x1="583.5" x2="972" y1="1461.8857" y2="1461.8857"/><text fill="#000000" font-family="Verdana" font-size="13" lengthAdjust="spacing" textLength="79" x="736.25" y="1457.1563">Email &#273;&#227; g&#7917;i</text><polygon fill="#000000" points="370.5,1535.083,360.5,1539.083,370.5,1543.083,366.5,1539.083" style="stroke:#000000;stroke-width:1.0;"/><line style="stroke:#000000;stroke-width:1.0;stroke-dasharray:2.0,2.0;" x1="364.5" x2="572.5" y1="1539.083" y2="1539.083"/><text fill="#000000" font-family="Verdana" font-size="13" lengthAdjust="spacing" textLength="150" x="391.5" y="1486.9556">Th&#244;ng b&#225;o th&#224;nh c&#244;ng</text><text fill="#000000" font-family="Verdana" font-size="13" lengthAdjust="spacing" textLength="96" x="418.5" y="1502.7549">- &#272;&#227; c&#7897;ng ti&#7873;n</text><text fill="#000000" font-family="Verdana" font-size="13" lengthAdjust="spacing" textLength="107" x="413" y="1518.5542">- S&#7889; d&#432; qu&#7929; m&#7899;i</text><text fill="#000000" font-family="Verdana" font-size="13" lengthAdjust="spacing" textLength="95" x="419" y="1534.3535">- M&#227; giao d&#7883;ch</text><polygon fill="#000000" points="139.5,1580.6816,129.5,1584.6816,139.5,1588.6816,135.5,1584.6816" style="stroke:#000000;stroke-width:1.0;"/><line style="stroke:#000000;stroke-width:1.0;stroke-dasharray:2.0,2.0;" x1="133.5" x2="348.5" y1="1584.6816" y2="1584.6816"/><text fill="#000000" font-family="Verdana" font-size="13" lengthAdjust="spacing" textLength="142" x="168" y="1564.1528">Hi&#7875;n th&#7883; "&#272;&#227; x&#225;c nh&#7853;n</text><text fill="#000000" font-family="Verdana" font-size="13" lengthAdjust="spacing" textLength="146" x="166" y="1579.9521">v&#224; c&#7897;ng ti&#7873;n v&#224;o qu&#7929;"</text><path d="M80,1604.6816 L80,1692.6816 L1020,1692.6816 L1020,1614.6816 L1010,1604.6816 L80,1604.6816 " fill="#FFFFFF" style="stroke:#000000;stroke-width:1.0;"/><path d="M1010,1604.6816 L1010,1614.6816 L1020,1614.6816 L1010,1604.6816 " fill="#FFFFFF" style="stroke:#000000;stroke-width:1.0;"/><text fill="#000000" font-family="Verdana" font-size="13" font-weight="bold" lengthAdjust="spacing" textLength="60" x="428" y="1622.7515">K&#7871;t qu&#7843;:</text><text fill="#000000" font-family="Verdana" font-size="13" lengthAdjust="spacing" textLength="200" x="428" y="1638.5508">&#9989; Ti&#7873;n &#273;&#227; &#273;&#432;&#7907;c c&#7897;ng v&#224;o qu&#7929;</text><text fill="#000000" font-family="Verdana" font-size="13" lengthAdjust="spacing" textLength="230" x="428" y="1654.3501">&#9989; Giao d&#7883;ch THU &#273;&#227; &#273;&#432;&#7907;c ghi nh&#7853;n</text><text fill="#000000" font-family="Verdana" font-size="13" lengthAdjust="spacing" textLength="150" x="428" y="1670.1494">&#9989; Email c&#7843;m &#417;n &#273;&#227; g&#7917;i</text><text fill="#000000" font-family="Verdana" font-size="13" lengthAdjust="spacing" textLength="235" x="428" y="1685.9487">&#8594; Qu&#7929; c&#243; th&#7875; s&#7917; d&#7909;ng &#273;&#7875; gi&#7843;i ng&#226;n</text><rect fill="none" height="146.1172" id="_legend" rx="7.5" ry="7.5" style="stroke:#000000;stroke-width:1.0;" width="402" x="657.5" y="1791.6929"/><text fill="#000000" font-family="Verdana" font-size="14" font-weight="bold" lengthAdjust="spacing" textLength="43" x="662.5" y="1810.7681">M&#244; t&#7843;</text><text fill="#000000" font-family="Verdana" font-size="14" lengthAdjust="spacing" textLength="349" x="705.5" y="1810.7681">: K&#7871; to&#225;n x&#225;c nh&#7853;n &#273;&#227; nh&#7853;n ti&#7873;n v&#224; c&#7897;ng v&#224;o qu&#7929;</text><text fill="#000000" font-family="Verdana" font-size="14" font-weight="bold" lengthAdjust="spacing" textLength="29" x="662.5" y="1827.7827">API</text><text fill="#000000" font-family="Verdana" font-size="14" lengthAdjust="spacing" textLength="232" x="691.5" y="1827.7827">: PUT /api/donations/:id/approve</text><text fill="#000000" font-family="Verdana" font-size="14" font-weight="bold" lengthAdjust="spacing" textLength="84" x="662.5" y="1844.7974">Quy&#7873;n h&#7841;n</text><text fill="#000000" font-family="Verdana" font-size="14" lengthAdjust="spacing" textLength="234" x="746.5" y="1844.7974">: K&#7871; to&#225;n (role 2), Admin (role 1)</text><text fill="#000000" font-family="Verdana" font-size="14" font-weight="bold" lengthAdjust="spacing" textLength="71" x="662.5" y="1861.812">Giao d&#7883;ch</text><text fill="#000000" font-family="Verdana" font-size="14" lengthAdjust="spacing" textLength="6" x="733.5" y="1861.812">:</text><text fill="#000000" font-family="Verdana" font-size="14" lengthAdjust="spacing" textLength="141" x="672.5" y="1878.8267">- C&#7897;ng ti&#7873;n v&#224;o qu&#7929;</text><text fill="#000000" font-family="Verdana" font-size="14" lengthAdjust="spacing" textLength="139" x="672.5" y="1895.8413">- T&#7841;o giao d&#7883;ch THU</text><text fill="#000000" font-family="Verdana" font-size="14" lengthAdjust="spacing" textLength="166" x="672.5" y="1912.856">- Tr&#7841;ng th&#225;i: "&#272;&#227; nh&#7853;n"</text><text fill="#000000" font-family="Verdana" font-size="14" font-weight="bold" lengthAdjust="spacing" textLength="72" x="662.5" y="1929.8706">T&#225;c &#273;&#7897;ng</text><text fill="#000000" font-family="Verdana" font-size="14" lengthAdjust="spacing" textLength="256" x="734.5" y="1929.8706">: T&#259;ng s&#7889; d&#432; qu&#7929; (ngu&#7891;n thu ch&#237;nh)</text><!--SRC=[bLPDRzj64BtpLqpLYyt4SDjB0G8jO4kfRSWMx8OkKa0NcYB8XQYbp0ytkZKmcXpIGzqUYZOjQba8qhenugAvL4IH0mt_3-QNT6P9YKjAibDTH2vdv-FDcxVxNkXOFGlwhi6u4dGPxnk-qOC3m-pQlXVnJjrpFH_U_qpy98l0EemiRbexLX0OjhNcCfk3QV7GyXKbPA5hWQhURtpmiQ71W-HH7LgRwVXb2_JawotGFq_ZCrXgx7-Pne_rPLLL5CCCCKwjcOxVGEWbGru38u2chc2ua9ciR_0GQhgVlEGETA916Zy9XScwxtqLOD2ItThk5coY2OHE6fzmMrZYej8nGkF022oerQ-74AJnRz19urVWChIEX5bZlUnBzWFtUWPpXPbuKfIc3YkVJfBGu8lar8FGDz2qzY0Pci2TT7p18KnE6QwdyQX6fR8Z8xIcgIlv0td293NOJiVF1z0niDG0dJXWOlXVuM7Xi712LL6vkBUnhe7kHmCumlqSkewNZaTox3Otax_fSJp414Cd6J84ekfRoX2nQAp3oYIlHf7Hh7EbOydxH4uoD9i8yJ4NI3wLQfEtKIrLHEikCxjmHBXEOfhf-0KleJ4VGDF1r1WoAfoNxZiWY0Yz9g0OXwiJ33gWl_X5czy1GkqF-fR6V-9gSe7rT9FVUmkngz-OpF_1hYXh0NPDNOCcxUWH5RKsNu7x1iANd0EtapCEJdBARR6Ch2PVyIEYIne_wzEgJenWO3C3iNPerewdRABlhJJ-YU4GOldLpuh2FKp6Ey9cuF2ggkvVNw8tD4Mdepx2Ms3QnD7wUHUd_-gxP3IPbAiJsZ0o9sa9W3bcBCDbyGvGe1csjCX97so4o7IICInnn2a2fFrocoE9H1Jih3oSjTa1t4ZZ2mQ3v3mIP8iMZvuersUs4sgmkw_3gj5dgnsF6o7pUB2giGwkz7q4H9cGJ4GGyQcVV-6VrxLuwMlHFJWaW167GXbXoVTGNZzQLcJQIblA0tuJzIiSrKiR7T94Qi1uo2e4LGmth5Xtixxs4QFHV5K1_CqmEwV3GJBqm4tZ7rcRrvfvnZXMeu8F3x4du2R_Pewc7SlvNfeGuKYnNDJvIad4GVhyfCWcWqzLrzFngp2RyuYuxz79yDHqa9zaAvTFxrK7TK4yKMjOxa2RXpHm3jGadcTLoE2BZwRaPMuOLQtZz8a14hGGmdWOfV4_gjhcOfuxrvVGmrbcy0bC5-wKPbtY0lcNIOnfd0qGvrCu8E2VcR2tlzOIH_QthOsPhFSeTDQfMtFN4HHFXXRqpNqIb6sFE4PaY2ggHAzPYAs6a9wo4EIhsomvHmbQ9AxLd3Ua34JcH75lRihRrvSHYgRGC2RJELEJK59AMIBczjP5NmjwAbyLPgbNdhsg1t4HcKYMHI_KYL4FheUO9V7v3PyHq1AZiwiCBOcd8ktiLK1aa_jgDiN6suSxdm6JLgXdETqbBazRJtmLbCveJEixb481J3KHKk9f6ZTAGpQ3Cuqq5mnLZOuQHLQ_wQLDFkZkvb2eQbEG4FUEHngsx-qltu2UEIshMHwmY2HCDygpKTb3frfEC3A-L-wrtAUtZx_FnqPS-B3oOxhiNf3lvnYMhZ772AZGQd4da8vKrxBfHUW1LhIJlAO16Qcg9Xz24eHPvCbDTmhXd1fL5Jj5ZcuvAbLrBp_s71BIIkZ9-NSNrZezDdd_S1ctRSZ3en4VLc2HO8gFSpKf-o9hk5OHRxpOKFs48_gcKFhLCHe7PVukSHl_Vo3oHNGXmLlYCY6TGQpy1m00]--></g></svg>