<?xml version="1.0" encoding="us-ascii" standalone="no"?><svg xmlns="http://www.w3.org/2000/svg" xmlns:xlink="http://www.w3.org/1999/xlink" contentStyleType="text/css" height="1990px" preserveAspectRatio="none" style="width:940px;height:1990px;background:#FFFFFF;" version="1.1" viewBox="0 0 940 1990" width="940px" zoomAndPan="magnify"><defs/><g><text fill="#000000" font-family="Verdana" font-size="22" font-weight="bold" lengthAdjust="spacing" textLength="436" x="250.5" y="37.1182">SD05a: GI&#7842;I NG&#194;N (QU&#7928; &#272;&#7910; TI&#7872;N)</text><rect fill="#FFFFFF" height="1541.5283" style="stroke:#000000;stroke-width:1.0;" width="10" x="350.5" y="162.5513"/><rect fill="#FFFFFF" height="105.1973" style="stroke:#000000;stroke-width:1.0;" width="10" x="597.5" y="192.3506"/><rect fill="#FFFFFF" height="105.1973" style="stroke:#000000;stroke-width:1.0;" width="10" x="597.5" y="357.1465"/><rect fill="#FFFFFF" height="924.144" style="stroke:#000000;stroke-width:1.0;" width="10" x="597.5" y="712.3369"/><rect fill="#FFFFFF" height="29.7993" style="stroke:#000000;stroke-width:1.0;" width="10" x="848.5" y="237.9492"/><rect fill="#FFFFFF" height="29.7993" style="stroke:#000000;stroke-width:1.0;" width="10" x="848.5" y="402.7451"/><rect fill="#FFFFFF" height="29.7993" style="stroke:#000000;stroke-width:1.0;" width="10" x="848.5" y="830.7349"/><rect fill="#FFFFFF" height="29.7993" style="stroke:#000000;stroke-width:1.0;" width="10" x="848.5" y="1005.8994"/><rect fill="#FFFFFF" height="410.3877" style="stroke:#000000;stroke-width:1.0;" width="10" x="848.5" y="1148.896"/><rect fill="#FFFFFF" height="821.5454" style="stroke:#000000;stroke-width:1.0;" width="866" x="57" y="875.5342"/><rect fill="#FFFFFF" height="728.3481" style="stroke:none;stroke-width:1.0;" width="866" x="57" y="968.7314"/><rect fill="#FFFFFF" height="580.7822" style="stroke:#000000;stroke-width:1.0;" width="846" x="67" y="1109.2974"/><line style="stroke:#000000;stroke-width:1.0;" x1="107" x2="107" y1="130.752" y2="1714.0796"/><line style="stroke:#000000;stroke-width:1.0;" x1="355" x2="355" y1="130.752" y2="1714.0796"/><line style="stroke:#000000;stroke-width:1.0;" x1="602" x2="602" y1="130.752" y2="1714.0796"/><line style="stroke:#000000;stroke-width:1.0;" x1="853" x2="853" y1="130.752" y2="1714.0796"/><text fill="#000000" font-family="Verdana" font-size="14" lengthAdjust="spacing" textLength="55" x="77" y="127.8125">K&#7871; to&#225;n</text><ellipse cx="107.5" cy="61.7373" fill="#FFFFFF" rx="8" ry="8" style="stroke:#000000;stroke-width:1.0;"/><path d="M107.5,69.7373 L107.5,96.7373 M94.5,77.7373 L120.5,77.7373 M107.5,96.7373 L94.5,111.7373 M107.5,96.7373 L120.5,111.7373 " fill="none" style="stroke:#000000;stroke-width:1.0;"/><text fill="#000000" font-family="Verdana" font-size="14" lengthAdjust="spacing" textLength="55" x="77" y="1727.1548">K&#7871; to&#225;n</text><ellipse cx="107.5" cy="1739.0942" fill="#FFFFFF" rx="8" ry="8" style="stroke:#000000;stroke-width:1.0;"/><path d="M107.5,1747.0942 L107.5,1774.0942 M94.5,1755.0942 L120.5,1755.0942 M107.5,1774.0942 L94.5,1789.0942 M107.5,1774.0942 L120.5,1789.0942 " fill="none" style="stroke:#000000;stroke-width:1.0;"/><rect fill="#FFFFFF" height="31.0146" rx="2.5" ry="2.5" style="stroke:#000000;stroke-width:1.0;" width="95" x="308" y="98.7373"/><text fill="#000000" font-family="Verdana" font-size="14" lengthAdjust="spacing" textLength="81" x="315" y="119.8125">Tr&#236;nh duy&#7879;t</text><rect fill="#FFFFFF" height="31.0146" rx="2.5" ry="2.5" style="stroke:#000000;stroke-width:1.0;" width="95" x="308" y="1713.0796"/><text fill="#000000" font-family="Verdana" font-size="14" lengthAdjust="spacing" textLength="81" x="315" y="1734.1548">Tr&#236;nh duy&#7879;t</text><rect fill="#FFFFFF" height="31.0146" rx="2.5" ry="2.5" style="stroke:#000000;stroke-width:1.0;" width="107" x="549" y="98.7373"/><text fill="#000000" font-family="Verdana" font-size="14" lengthAdjust="spacing" textLength="93" x="556" y="119.8125">API H&#7879; th&#7889;ng</text><rect fill="#FFFFFF" height="31.0146" rx="2.5" ry="2.5" style="stroke:#000000;stroke-width:1.0;" width="107" x="549" y="1713.0796"/><text fill="#000000" font-family="Verdana" font-size="14" lengthAdjust="spacing" textLength="93" x="556" y="1734.1548">API H&#7879; th&#7889;ng</text><text fill="#000000" font-family="Verdana" font-size="14" lengthAdjust="spacing" textLength="93" x="804" y="127.8125">C&#417; s&#7903; d&#7919; li&#7879;u</text><path d="M835.5,77.7373 C835.5,67.7373 853.5,67.7373 853.5,67.7373 C853.5,67.7373 871.5,67.7373 871.5,77.7373 L871.5,103.7373 C871.5,113.7373 853.5,113.7373 853.5,113.7373 C853.5,113.7373 835.5,113.7373 835.5,103.7373 L835.5,77.7373 " fill="#FFFFFF" style="stroke:#000000;stroke-width:1.5;"/><path d="M835.5,77.7373 C835.5,87.7373 853.5,87.7373 853.5,87.7373 C853.5,87.7373 871.5,87.7373 871.5,77.7373 " fill="none" style="stroke:#000000;stroke-width:1.5;"/><text fill="#000000" font-family="Verdana" font-size="14" lengthAdjust="spacing" textLength="93" x="804" y="1727.1548">C&#417; s&#7903; d&#7919; li&#7879;u</text><path d="M835.5,1740.0942 C835.5,1730.0942 853.5,1730.0942 853.5,1730.0942 C853.5,1730.0942 871.5,1730.0942 871.5,1740.0942 L871.5,1766.0942 C871.5,1776.0942 853.5,1776.0942 853.5,1776.0942 C853.5,1776.0942 835.5,1776.0942 835.5,1766.0942 L835.5,1740.0942 " fill="#FFFFFF" style="stroke:#000000;stroke-width:1.5;"/><path d="M835.5,1740.0942 C835.5,1750.0942 853.5,1750.0942 853.5,1750.0942 C853.5,1750.0942 871.5,1750.0942 871.5,1740.0942 " fill="none" style="stroke:#000000;stroke-width:1.5;"/><rect fill="#FFFFFF" height="1541.5283" style="stroke:#000000;stroke-width:1.0;" width="10" x="350.5" y="162.5513"/><rect fill="#FFFFFF" height="105.1973" style="stroke:#000000;stroke-width:1.0;" width="10" x="597.5" y="192.3506"/><rect fill="#FFFFFF" height="105.1973" style="stroke:#000000;stroke-width:1.0;" width="10" x="597.5" y="357.1465"/><rect fill="#FFFFFF" height="924.144" style="stroke:#000000;stroke-width:1.0;" width="10" x="597.5" y="712.3369"/><rect fill="#FFFFFF" height="29.7993" style="stroke:#000000;stroke-width:1.0;" width="10" x="848.5" y="237.9492"/><rect fill="#FFFFFF" height="29.7993" style="stroke:#000000;stroke-width:1.0;" width="10" x="848.5" y="402.7451"/><rect fill="#FFFFFF" height="29.7993" style="stroke:#000000;stroke-width:1.0;" width="10" x="848.5" y="830.7349"/><rect fill="#FFFFFF" height="29.7993" style="stroke:#000000;stroke-width:1.0;" width="10" x="848.5" y="1005.8994"/><rect fill="#FFFFFF" height="410.3877" style="stroke:#000000;stroke-width:1.0;" width="10" x="848.5" y="1148.896"/><polygon fill="#000000" points="338.5,158.5513,348.5,162.5513,338.5,166.5513,342.5,162.5513" style="stroke:#000000;stroke-width:1.0;"/><line style="stroke:#000000;stroke-width:1.0;" x1="107.5" x2="344.5" y1="162.5513" y2="162.5513"/><text fill="#000000" font-family="Verdana" font-size="13" lengthAdjust="spacing" textLength="140" x="159" y="157.8218">V&#224;o trang "Gi&#7843;i ng&#226;n"</text><polygon fill="#000000" points="585.5,188.3506,595.5,192.3506,585.5,196.3506,589.5,192.3506" style="stroke:#000000;stroke-width:1.0;"/><line style="stroke:#000000;stroke-width:1.0;" x1="360.5" x2="591.5" y1="192.3506" y2="192.3506"/><text fill="#000000" font-family="Verdana" font-size="13" lengthAdjust="spacing" textLength="218" x="370" y="187.6211">L&#7845;y danh s&#225;ch &#273;&#417;n ch&#7901; gi&#7843;i ng&#226;n</text><polygon fill="#000000" points="836.5,233.9492,846.5,237.9492,836.5,241.9492,840.5,237.9492" style="stroke:#000000;stroke-width:1.0;"/><line style="stroke:#000000;stroke-width:1.0;" x1="607.5" x2="842.5" y1="237.9492" y2="237.9492"/><text fill="#000000" font-family="Verdana" font-size="13" lengthAdjust="spacing" textLength="179" x="638.5" y="217.4204">Truy v&#7845;n &#273;&#417;n c&#243; tr&#7841;ng th&#225;i</text><text fill="#000000" font-family="Verdana" font-size="13" lengthAdjust="spacing" textLength="120" x="668" y="233.2197">"Ch&#7901; duy&#7879;t c&#7845;p 3"</text><polygon fill="#000000" points="618.5,263.7485,608.5,267.7485,618.5,271.7485,614.5,267.7485" style="stroke:#000000;stroke-width:1.0;"/><line style="stroke:#000000;stroke-width:1.0;stroke-dasharray:2.0,2.0;" x1="612.5" x2="852.5" y1="267.7485" y2="267.7485"/><text fill="#000000" font-family="Verdana" font-size="13" lengthAdjust="spacing" textLength="98" x="681.5" y="263.019">Danh s&#225;ch &#273;&#417;n</text><polygon fill="#000000" points="371.5,293.5479,361.5,297.5479,371.5,301.5479,367.5,297.5479" style="stroke:#000000;stroke-width:1.0;"/><line style="stroke:#000000;stroke-width:1.0;stroke-dasharray:2.0,2.0;" x1="365.5" x2="601.5" y1="297.5479" y2="297.5479"/><text fill="#000000" font-family="Verdana" font-size="13" lengthAdjust="spacing" textLength="123" x="420" y="292.8184">Hi&#7875;n th&#7883; danh s&#225;ch</text><polygon fill="#000000" points="338.5,323.3472,348.5,327.3472,338.5,331.3472,342.5,327.3472" style="stroke:#000000;stroke-width:1.0;"/><line style="stroke:#000000;stroke-width:1.0;" x1="107.5" x2="344.5" y1="327.3472" y2="327.3472"/><text fill="#000000" font-family="Verdana" font-size="13" lengthAdjust="spacing" textLength="181" x="138.5" y="322.6177">Click v&#224;o &#273;&#417;n c&#7847;n gi&#7843;i ng&#226;n</text><polygon fill="#000000" points="585.5,353.1465,595.5,357.1465,585.5,361.1465,589.5,357.1465" style="stroke:#000000;stroke-width:1.0;"/><line style="stroke:#000000;stroke-width:1.0;" x1="360.5" x2="591.5" y1="357.1465" y2="357.1465"/><text fill="#000000" font-family="Verdana" font-size="13" lengthAdjust="spacing" textLength="147" x="405.5" y="352.417">L&#7845;y chi ti&#7871;t &#273;&#417;n + qu&#7929;</text><polygon fill="#000000" points="836.5,398.7451,846.5,402.7451,836.5,406.7451,840.5,402.7451" style="stroke:#000000;stroke-width:1.0;"/><line style="stroke:#000000;stroke-width:1.0;" x1="607.5" x2="842.5" y1="402.7451" y2="402.7451"/><text fill="#000000" font-family="Verdana" font-size="13" lengthAdjust="spacing" textLength="153" x="651.5" y="382.2163">Truy v&#7845;n th&#244;ng tin &#273;&#417;n</text><text fill="#000000" font-family="Verdana" font-size="13" lengthAdjust="spacing" textLength="87" x="684.5" y="398.0156">v&#224; s&#7889; d&#432; qu&#7929;</text><polygon fill="#000000" points="618.5,428.5444,608.5,432.5444,618.5,436.5444,614.5,432.5444" style="stroke:#000000;stroke-width:1.0;"/><line style="stroke:#000000;stroke-width:1.0;stroke-dasharray:2.0,2.0;" x1="612.5" x2="852.5" y1="432.5444" y2="432.5444"/><text fill="#000000" font-family="Verdana" font-size="13" lengthAdjust="spacing" textLength="135" x="663" y="427.8149">Chi ti&#7871;t + S&#7889; d&#432; qu&#7929;</text><polygon fill="#000000" points="371.5,458.3438,361.5,462.3438,371.5,466.3438,367.5,462.3438" style="stroke:#000000;stroke-width:1.0;"/><line style="stroke:#000000;stroke-width:1.0;stroke-dasharray:2.0,2.0;" x1="365.5" x2="601.5" y1="462.3438" y2="462.3438"/><text fill="#000000" font-family="Verdana" font-size="13" lengthAdjust="spacing" textLength="115" x="424" y="457.6143">Hi&#7875;n th&#7883; th&#244;ng tin</text><line style="stroke:#000000;stroke-width:1.0;" x1="107.5" x2="149.5" y1="539.541" y2="539.541"/><line style="stroke:#000000;stroke-width:1.0;" x1="149.5" x2="149.5" y1="539.541" y2="552.541"/><line style="stroke:#000000;stroke-width:1.0;" x1="108.5" x2="149.5" y1="552.541" y2="552.541"/><polygon fill="#000000" points="118.5,548.541,108.5,552.541,118.5,556.541,114.5,552.541" style="stroke:#000000;stroke-width:1.0;"/><text fill="#000000" font-family="Verdana" font-size="13" lengthAdjust="spacing" textLength="60" x="180" y="487.4136">Ki&#7875;m tra:</text><text fill="#000000" font-family="Verdana" font-size="13" lengthAdjust="spacing" textLength="191" x="114.5" y="503.2129">- L&#7883;ch s&#7917; ph&#234; duy&#7879;t c&#7845;p 1, 2</text><text fill="#000000" font-family="Verdana" font-size="13" lengthAdjust="spacing" textLength="112" x="154" y="519.0122">- S&#7889; ti&#7873;n &#273;&#7873; ngh&#7883;</text><text fill="#000000" font-family="Verdana" font-size="13" lengthAdjust="spacing" textLength="134" x="143" y="534.8115">- S&#7889; d&#432; qu&#7929; hi&#7879;n t&#7841;i</text><path d="M10,565.541 L10,606.541 L205,606.541 L205,575.541 L195,565.541 L10,565.541 " fill="#FFFFFF" style="stroke:#000000;stroke-width:1.0;"/><path d="M195,565.541 L195,575.541 L205,575.541 L195,565.541 " fill="#FFFFFF" style="stroke:#000000;stroke-width:1.0;"/><text fill="#000000" font-family="Verdana" font-size="13" font-weight="bold" lengthAdjust="spacing" textLength="174" x="16" y="583.6108">Tr&#432;&#7901;ng h&#7907;p: Qu&#7929; &#273;&#7911; ti&#7873;n</text><text fill="#000000" font-family="Verdana" font-size="13" lengthAdjust="spacing" textLength="163" x="16" y="599.4102">S&#7889; d&#432; qu&#7929; &#8805; S&#7889; ti&#7873;n &#273;&#417;n</text><polygon fill="#000000" points="338.5,645.7383,348.5,649.7383,338.5,653.7383,342.5,649.7383" style="stroke:#000000;stroke-width:1.0;"/><line style="stroke:#000000;stroke-width:1.0;" x1="107.5" x2="344.5" y1="649.7383" y2="649.7383"/><text fill="#000000" font-family="Verdana" font-size="13" lengthAdjust="spacing" textLength="187" x="135.5" y="629.2095">Ch&#7885;n ph&#432;&#417;ng th&#7913;c gi&#7843;i ng&#226;n</text><text fill="#000000" font-family="Verdana" font-size="13" lengthAdjust="spacing" textLength="169" x="144.5" y="645.0088">(Chuy&#7875;n kho&#7843;n/Ti&#7873;n m&#7863;t)</text><polygon fill="#000000" points="338.5,675.5376,348.5,679.5376,338.5,683.5376,342.5,679.5376" style="stroke:#000000;stroke-width:1.0;"/><line style="stroke:#000000;stroke-width:1.0;" x1="107.5" x2="344.5" y1="679.5376" y2="679.5376"/><text fill="#000000" font-family="Verdana" font-size="13" lengthAdjust="spacing" textLength="219" x="119.5" y="674.8081">Nh&#7853;p ghi ch&#250; v&#224; nh&#7845;n "Gi&#7843;i ng&#226;n"</text><polygon fill="#000000" points="585.5,708.3369,595.5,712.3369,585.5,716.3369,589.5,712.3369" style="stroke:#000000;stroke-width:1.0;"/><line style="stroke:#000000;stroke-width:1.0;" x1="360.5" x2="591.5" y1="712.3369" y2="712.3369"/><text fill="#000000" font-family="Verdana" font-size="13" lengthAdjust="spacing" textLength="143" x="407.5" y="707.6074">G&#7917;i y&#234;u c&#7847;u gi&#7843;i ng&#226;n</text><path d="M612,692.5376 L612,717.5376 L866,717.5376 L866,702.5376 L856,692.5376 L612,692.5376 " fill="#FFFFFF" style="stroke:#000000;stroke-width:1.0;"/><path d="M856,692.5376 L856,702.5376 L866,702.5376 L856,692.5376 " fill="#FFFFFF" style="stroke:#000000;stroke-width:1.0;"/><text fill="#000000" font-family="Verdana" font-size="13" lengthAdjust="spacing" textLength="233" x="618" y="710.6074">POST /api/applications/:id/disburse</text><line style="stroke:#000000;stroke-width:1.0;" x1="607.5" x2="649.5" y1="745.1362" y2="745.1362"/><line style="stroke:#000000;stroke-width:1.0;" x1="649.5" x2="649.5" y1="745.1362" y2="758.1362"/><line style="stroke:#000000;stroke-width:1.0;" x1="608.5" x2="649.5" y1="758.1362" y2="758.1362"/><polygon fill="#000000" points="618.5,754.1362,608.5,758.1362,618.5,762.1362,614.5,758.1362" style="stroke:#000000;stroke-width:1.0;"/><text fill="#000000" font-family="Verdana" font-size="13" lengthAdjust="spacing" textLength="103" x="614.5" y="740.4067">X&#225;c th&#7921;c token</text><line style="stroke:#000000;stroke-width:1.0;" x1="607.5" x2="649.5" y1="787.9355" y2="787.9355"/><line style="stroke:#000000;stroke-width:1.0;" x1="649.5" x2="649.5" y1="787.9355" y2="800.9355"/><line style="stroke:#000000;stroke-width:1.0;" x1="608.5" x2="649.5" y1="800.9355" y2="800.9355"/><polygon fill="#000000" points="618.5,796.9355,608.5,800.9355,618.5,804.9355,614.5,800.9355" style="stroke:#000000;stroke-width:1.0;"/><text fill="#000000" font-family="Verdana" font-size="13" lengthAdjust="spacing" textLength="209" x="614.5" y="783.2061">Ki&#7875;m tra quy&#7873;n K&#7871; to&#225;n (role 2)</text><polygon fill="#000000" points="836.5,826.7349,846.5,830.7349,836.5,834.7349,840.5,830.7349" style="stroke:#000000;stroke-width:1.0;"/><line style="stroke:#000000;stroke-width:1.0;" x1="607.5" x2="842.5" y1="830.7349" y2="830.7349"/><text fill="#000000" font-family="Verdana" font-size="13" lengthAdjust="spacing" textLength="187" x="634.5" y="826.0054">Ki&#7875;m tra c&#7845;p 1 + 2 &#273;&#227; duy&#7879;t</text><polygon fill="#000000" points="618.5,856.5342,608.5,860.5342,618.5,864.5342,614.5,860.5342" style="stroke:#000000;stroke-width:1.0;"/><line style="stroke:#000000;stroke-width:1.0;stroke-dasharray:2.0,2.0;" x1="612.5" x2="852.5" y1="860.5342" y2="860.5342"/><text fill="#000000" font-family="Verdana" font-size="13" lengthAdjust="spacing" textLength="109" x="676" y="855.8047">K&#7871;t qu&#7843; ki&#7875;m tra</text><path d="M57,875.5342 L121,875.5342 L121,883.3335 L111,893.3335 L57,893.3335 L57,875.5342 " fill="#FFFFFF" style="stroke:#000000;stroke-width:1.0;"/><rect fill="none" height="821.5454" style="stroke:#000000;stroke-width:1.0;" width="866" x="57" y="875.5342"/><text fill="#000000" font-family="Verdana" font-size="13" font-weight="bold" lengthAdjust="spacing" textLength="19" x="72" y="889.604">alt</text><text fill="#000000" font-family="Verdana" font-size="11" font-weight="bold" lengthAdjust="spacing" textLength="171" x="136" y="888.5933">[C&#7845;p 1 ho&#7863;c 2 ch&#432;a duy&#7879;t]</text><polygon fill="#000000" points="371.5,926.9321,361.5,930.9321,371.5,934.9321,367.5,930.9321" style="stroke:#000000;stroke-width:1.0;"/><line style="stroke:#000000;stroke-width:1.0;stroke-dasharray:2.0,2.0;" x1="365.5" x2="596.5" y1="930.9321" y2="930.9321"/><text fill="#000000" font-family="Verdana" font-size="13" lengthAdjust="spacing" textLength="89" x="434.5" y="910.4033">Th&#244;ng b&#225;o l&#7895;i</text><text fill="#000000" font-family="Verdana" font-size="13" lengthAdjust="spacing" textLength="165" x="396.5" y="926.2026">"&#272;&#417;n ch&#432;a qua &#273;&#7911; 2 c&#7845;p"</text><polygon fill="#000000" points="118.5,956.7314,108.5,960.7314,118.5,964.7314,114.5,960.7314" style="stroke:#000000;stroke-width:1.0;"/><line style="stroke:#000000;stroke-width:1.0;stroke-dasharray:2.0,2.0;" x1="112.5" x2="349.5" y1="960.7314" y2="960.7314"/><text fill="#000000" font-family="Verdana" font-size="13" lengthAdjust="spacing" textLength="69" x="194.5" y="956.002">Hi&#7875;n th&#7883; l&#7895;i</text><line style="stroke:#000000;stroke-width:1.0;stroke-dasharray:2.0,2.0;" x1="57" x2="923" y1="969.7314" y2="969.7314"/><text fill="#000000" font-family="Verdana" font-size="11" font-weight="bold" lengthAdjust="spacing" textLength="96" x="62" y="980.7905">[&#272;&#227; qua 2 c&#7845;p]</text><polygon fill="#000000" points="836.5,1001.8994,846.5,1005.8994,836.5,1009.8994,840.5,1005.8994" style="stroke:#000000;stroke-width:1.0;"/><line style="stroke:#000000;stroke-width:1.0;" x1="607.5" x2="842.5" y1="1005.8994" y2="1005.8994"/><text fill="#000000" font-family="Verdana" font-size="13" lengthAdjust="spacing" textLength="148" x="654" y="1001.1699">L&#7845;y s&#7889; d&#432; qu&#7929; hi&#7879;n t&#7841;i</text><polygon fill="#000000" points="618.5,1031.6987,608.5,1035.6987,618.5,1039.6987,614.5,1035.6987" style="stroke:#000000;stroke-width:1.0;"/><line style="stroke:#000000;stroke-width:1.0;stroke-dasharray:2.0,2.0;" x1="612.5" x2="852.5" y1="1035.6987" y2="1035.6987"/><text fill="#000000" font-family="Verdana" font-size="13" lengthAdjust="spacing" textLength="68" x="696.5" y="1030.9692">S&#7889; d&#432; qu&#7929;</text><line style="stroke:#000000;stroke-width:1.0;" x1="607.5" x2="649.5" y1="1081.2974" y2="1081.2974"/><line style="stroke:#000000;stroke-width:1.0;" x1="649.5" x2="649.5" y1="1081.2974" y2="1094.2974"/><line style="stroke:#000000;stroke-width:1.0;" x1="608.5" x2="649.5" y1="1094.2974" y2="1094.2974"/><polygon fill="#000000" points="618.5,1090.2974,608.5,1094.2974,618.5,1098.2974,614.5,1094.2974" style="stroke:#000000;stroke-width:1.0;"/><text fill="#000000" font-family="Verdana" font-size="13" lengthAdjust="spacing" textLength="69" x="660.5" y="1060.7686">T&#237;nh to&#225;n:</text><text fill="#000000" font-family="Verdana" font-size="13" lengthAdjust="spacing" textLength="161" x="614.5" y="1076.5679">S&#7889; d&#432; qu&#7929; - S&#7889; ti&#7873;n &#273;&#417;n</text><path d="M67,1109.2974 L131,1109.2974 L131,1117.0967 L121,1127.0967 L67,1127.0967 L67,1109.2974 " fill="#FFFFFF" style="stroke:#000000;stroke-width:1.0;"/><rect fill="none" height="580.7822" style="stroke:#000000;stroke-width:1.0;" width="846" x="67" y="1109.2974"/><text fill="#000000" font-family="Verdana" font-size="13" font-weight="bold" lengthAdjust="spacing" textLength="19" x="82" y="1123.3672">alt</text><text fill="#000000" font-family="Verdana" font-size="11" font-weight="bold" lengthAdjust="spacing" textLength="188" x="146" y="1122.3564">[Qu&#7929; &#273;&#7911; ti&#7873;n (&#8805; S&#7889; ti&#7873;n &#273;&#417;n)]</text><polygon fill="#000000" points="836.5,1144.896,846.5,1148.896,836.5,1152.896,840.5,1148.896" style="stroke:#000000;stroke-width:1.0;"/><line style="stroke:#000000;stroke-width:1.0;" x1="607.5" x2="842.5" y1="1148.896" y2="1148.896"/><text fill="#000000" font-family="Verdana" font-size="13" font-weight="bold" lengthAdjust="spacing" textLength="125" x="665.5" y="1144.1665">B&#7855;t &#273;&#7847;u giao d&#7883;ch</text><polygon fill="#000000" points="836.5,1190.4946,846.5,1194.4946,836.5,1198.4946,840.5,1194.4946" style="stroke:#000000;stroke-width:1.0;"/><line style="stroke:#000000;stroke-width:1.0;" x1="607.5" x2="842.5" y1="1194.4946" y2="1194.4946"/><text fill="#000000" font-family="Verdana" font-size="13" lengthAdjust="spacing" textLength="102" x="677" y="1173.9658">Tr&#7915; ti&#7873;n t&#7915; qu&#7929;</text><text fill="#000000" font-family="Verdana" font-size="13" lengthAdjust="spacing" textLength="217" x="619.5" y="1189.7651">S&#7889; d&#432; m&#7899;i = S&#7889; d&#432; - S&#7889; ti&#7873;n &#273;&#417;n</text><polygon fill="#000000" points="618.5,1220.2939,608.5,1224.2939,618.5,1228.2939,614.5,1224.2939" style="stroke:#000000;stroke-width:1.0;"/><line style="stroke:#000000;stroke-width:1.0;stroke-dasharray:2.0,2.0;" x1="612.5" x2="847.5" y1="1224.2939" y2="1224.2939"/><text fill="#000000" font-family="Verdana" font-size="13" lengthAdjust="spacing" textLength="72" x="692" y="1219.5645">&#272;&#227; tr&#7915; ti&#7873;n</text><polygon fill="#000000" points="836.5,1313.2905,846.5,1317.2905,836.5,1321.2905,840.5,1317.2905" style="stroke:#000000;stroke-width:1.0;"/><line style="stroke:#000000;stroke-width:1.0;" x1="607.5" x2="842.5" y1="1317.2905" y2="1317.2905"/><text fill="#000000" font-family="Verdana" font-size="13" lengthAdjust="spacing" textLength="117" x="669.5" y="1249.3638">T&#7841;o giao d&#7883;ch CHI</text><text fill="#000000" font-family="Verdana" font-size="13" lengthAdjust="spacing" textLength="69" x="693.5" y="1265.1631">- Lo&#7841;i: Chi</text><text fill="#000000" font-family="Verdana" font-size="13" lengthAdjust="spacing" textLength="59" x="698.5" y="1280.9624">- S&#7889; ti&#7873;n</text><text fill="#000000" font-family="Verdana" font-size="13" lengthAdjust="spacing" textLength="38" x="709" y="1296.7617">- Qu&#7929;</text><text fill="#000000" font-family="Verdana" font-size="13" lengthAdjust="spacing" textLength="93" x="681.5" y="1312.561">- Li&#234;n k&#7871;t &#273;&#417;n</text><polygon fill="#000000" points="618.5,1343.0898,608.5,1347.0898,618.5,1351.0898,614.5,1347.0898" style="stroke:#000000;stroke-width:1.0;"/><line style="stroke:#000000;stroke-width:1.0;stroke-dasharray:2.0,2.0;" x1="612.5" x2="847.5" y1="1347.0898" y2="1347.0898"/><text fill="#000000" font-family="Verdana" font-size="13" lengthAdjust="spacing" textLength="108" x="674" y="1342.3604">Giao d&#7883;ch &#273;&#227; t&#7841;o</text><polygon fill="#000000" points="836.5,1420.2871,846.5,1424.2871,836.5,1428.2871,840.5,1424.2871" style="stroke:#000000;stroke-width:1.0;"/><line style="stroke:#000000;stroke-width:1.0;" x1="607.5" x2="842.5" y1="1424.2871" y2="1424.2871"/><text fill="#000000" font-family="Verdana" font-size="13" lengthAdjust="spacing" textLength="174" x="641" y="1372.1597">C&#7853;p nh&#7853;t ph&#234; duy&#7879;t c&#7845;p 3</text><text fill="#000000" font-family="Verdana" font-size="13" lengthAdjust="spacing" textLength="113" x="671.5" y="1387.959">- K&#7871;t qu&#7843;: Duy&#7879;t</text><text fill="#000000" font-family="Verdana" font-size="13" lengthAdjust="spacing" textLength="92" x="682" y="1403.7583">- Ng&#432;&#7901;i duy&#7879;t</text><text fill="#000000" font-family="Verdana" font-size="13" lengthAdjust="spacing" textLength="97" x="679.5" y="1419.5576">- Ph&#432;&#417;ng th&#7913;c</text><polygon fill="#000000" points="618.5,1450.0864,608.5,1454.0864,618.5,1458.0864,614.5,1454.0864" style="stroke:#000000;stroke-width:1.0;"/><line style="stroke:#000000;stroke-width:1.0;stroke-dasharray:2.0,2.0;" x1="612.5" x2="847.5" y1="1454.0864" y2="1454.0864"/><text fill="#000000" font-family="Verdana" font-size="13" lengthAdjust="spacing" textLength="81" x="687.5" y="1449.3569">&#272;&#227; c&#7853;p nh&#7853;t</text><polygon fill="#000000" points="836.5,1495.6851,846.5,1499.6851,836.5,1503.6851,840.5,1499.6851" style="stroke:#000000;stroke-width:1.0;"/><line style="stroke:#000000;stroke-width:1.0;" x1="607.5" x2="842.5" y1="1499.6851" y2="1499.6851"/><text fill="#000000" font-family="Verdana" font-size="13" lengthAdjust="spacing" textLength="119" x="668.5" y="1479.1563">&#272;&#7893;i tr&#7841;ng th&#225;i &#273;&#417;n</text><text fill="#000000" font-family="Verdana" font-size="13" lengthAdjust="spacing" textLength="134" x="661" y="1494.9556">th&#224;nh "&#272;&#227; gi&#7843;i ng&#226;n"</text><polygon fill="#000000" points="618.5,1525.4844,608.5,1529.4844,618.5,1533.4844,614.5,1529.4844" style="stroke:#000000;stroke-width:1.0;"/><line style="stroke:#000000;stroke-width:1.0;stroke-dasharray:2.0,2.0;" x1="612.5" x2="847.5" y1="1529.4844" y2="1529.4844"/><text fill="#000000" font-family="Verdana" font-size="13" lengthAdjust="spacing" textLength="81" x="687.5" y="1524.7549">&#272;&#227; c&#7853;p nh&#7853;t</text><polygon fill="#000000" points="841.5,1555.2837,851.5,1559.2837,841.5,1563.2837,845.5,1559.2837" style="stroke:#000000;stroke-width:1.0;"/><line style="stroke:#000000;stroke-width:1.0;" x1="607.5" x2="847.5" y1="1559.2837" y2="1559.2837"/><text fill="#000000" font-family="Verdana" font-size="13" font-weight="bold" lengthAdjust="spacing" textLength="136" x="662.5" y="1554.5542">X&#225;c nh&#7853;n giao d&#7883;ch</text><polygon fill="#000000" points="371.5,1632.481,361.5,1636.481,371.5,1640.481,367.5,1636.481" style="stroke:#000000;stroke-width:1.0;"/><line style="stroke:#000000;stroke-width:1.0;stroke-dasharray:2.0,2.0;" x1="365.5" x2="601.5" y1="1636.481" y2="1636.481"/><text fill="#000000" font-family="Verdana" font-size="13" lengthAdjust="spacing" textLength="150" x="406.5" y="1584.3535">Th&#244;ng b&#225;o th&#224;nh c&#244;ng</text><text fill="#000000" font-family="Verdana" font-size="13" lengthAdjust="spacing" textLength="95" x="434" y="1600.1528">- M&#227; giao d&#7883;ch</text><text fill="#000000" font-family="Verdana" font-size="13" lengthAdjust="spacing" textLength="59" x="452" y="1615.9521">- S&#7889; ti&#7873;n</text><text fill="#000000" font-family="Verdana" font-size="13" lengthAdjust="spacing" textLength="128" x="417.5" y="1631.7515">- S&#7889; d&#432; qu&#7929; c&#242;n l&#7841;i</text><polygon fill="#000000" points="118.5,1678.0796,108.5,1682.0796,118.5,1686.0796,114.5,1682.0796" style="stroke:#000000;stroke-width:1.0;"/><line style="stroke:#000000;stroke-width:1.0;stroke-dasharray:2.0,2.0;" x1="112.5" x2="349.5" y1="1682.0796" y2="1682.0796"/><text fill="#000000" font-family="Verdana" font-size="13" lengthAdjust="spacing" textLength="146" x="156" y="1661.5508">Hi&#7875;n th&#7883; "&#272;&#227; gi&#7843;i ng&#226;n"</text><text fill="#000000" font-family="Verdana" font-size="13" lengthAdjust="spacing" textLength="147" x="155.5" y="1677.3501">In phi&#7871;u chi (n&#7871;u c&#7847;n)</text><rect fill="none" height="180.1465" id="_legend" rx="7.5" ry="7.5" style="stroke:#000000;stroke-width:1.0;" width="328" x="599" y="1797.0942"/><text fill="#000000" font-family="Verdana" font-size="14" font-weight="bold" lengthAdjust="spacing" textLength="43" x="604" y="1816.1694">M&#244; t&#7843;</text><text fill="#000000" font-family="Verdana" font-size="14" lengthAdjust="spacing" textLength="244" x="647" y="1816.1694">: K&#7871; to&#225;n gi&#7843;i ng&#226;n khi qu&#7929; &#273;&#7911; ti&#7873;n</text><text fill="#000000" font-family="Verdana" font-size="14" font-weight="bold" lengthAdjust="spacing" textLength="29" x="604" y="1833.1841">API</text><text fill="#000000" font-family="Verdana" font-size="14" lengthAdjust="spacing" textLength="258" x="633" y="1833.1841">: POST /api/applications/:id/disburse</text><text fill="#000000" font-family="Verdana" font-size="14" font-weight="bold" lengthAdjust="spacing" textLength="84" x="604" y="1850.1987">Quy&#7873;n h&#7841;n</text><text fill="#000000" font-family="Verdana" font-size="14" lengthAdjust="spacing" textLength="234" x="688" y="1850.1987">: K&#7871; to&#225;n (role 2), Admin (role 1)</text><text fill="#000000" font-family="Verdana" font-size="14" font-weight="bold" lengthAdjust="spacing" textLength="71" x="604" y="1867.2134">&#272;i&#7873;u ki&#7879;n</text><text fill="#000000" font-family="Verdana" font-size="14" lengthAdjust="spacing" textLength="6" x="675" y="1867.2134">:</text><text fill="#000000" font-family="Verdana" font-size="14" lengthAdjust="spacing" textLength="169" x="614" y="1884.228">- &#272;&#227; qua c&#7845;p 1 v&#224; c&#7845;p 2</text><text fill="#000000" font-family="Verdana" font-size="14" lengthAdjust="spacing" textLength="189" x="614" y="1901.2427">- S&#7889; d&#432; qu&#7929; &#8805; S&#7889; ti&#7873;n &#273;&#417;n</text><text fill="#000000" font-family="Verdana" font-size="14" font-weight="bold" lengthAdjust="spacing" textLength="60" x="604" y="1918.2573">K&#7871;t qu&#7843;</text><text fill="#000000" font-family="Verdana" font-size="14" lengthAdjust="spacing" textLength="6" x="664" y="1918.2573">:</text><text fill="#000000" font-family="Verdana" font-size="14" lengthAdjust="spacing" textLength="99" x="614" y="1935.272">- Tr&#7915; ti&#7873;n qu&#7929;</text><text fill="#000000" font-family="Verdana" font-size="14" lengthAdjust="spacing" textLength="135" x="614" y="1952.2866">- T&#7841;o giao d&#7883;ch CHI</text><text fill="#000000" font-family="Verdana" font-size="14" lengthAdjust="spacing" textLength="194" x="614" y="1969.3013">- Tr&#7841;ng th&#225;i: "&#272;&#227; gi&#7843;i ng&#226;n"</text><!--SRC=[fLPBRznK5DxxLno6JU9s59gAZIMGaeb8HaD2eXZ48Xl7jkohcRcUsDT1sHLOL5LLALaW5WZHQLGg0b43L2hOYouSpVymluHphksPEvw7WXWfYX_dyPtlVkSSloTyj-_2e6SnhaLTnWTMQFNXsBAxNXZ4t6a5lI24zp-HFyKYSazYbzlkhXj5bkTkz9Z7mNQvS4DD4qpqND3rmwqFFhGCs6xdoOisx6rdt-p1oi7dUVeNt9xdwSzWjlFqqTwghckQPGjCrEZaoJiGGJRa3R0Yw9WQvXFCPWEB2sYOOVORzy69p_BqiP0ccs7mLOHPf-mszjkmWoOW_3ozu9wqn8UQOmdhs8fSQBH6GuZoz2TmylGrz1XQnz9iQrFJEYOqFwv26_15zZm04LhSWyOsovDB1jpBNl06mMQdbd37CBJoWlmneG6VvidBCt0iX1rbGzk7sulH4Bb2O3-2fmIRn2AWL066sDeqm0pZCpZ5CBpopVv4D7aoH3p2puRiY3TQCbv93DXeFO272ZwiQciJcXMghHeUpN5LKvbTPM07-VcMIpgVAiMeReIwJbohn-mkd19z9VGyUSMdovvFcEqp46ZsJfIUz-0apjE_xy8ISlA6g64bOKSS4T1XNu0pkgd7gJ7JcYI-1uVJFl-5f0c81IHrJ0CwvD4dQHb7l8cbfq_nH13fDGpyxAfsdW_kmpgPILI8CVsQ2iH_o2Jb7ByR8mQVT8sGK2nCqtY0489J91iRIzVDS7I3ga6Kw7qvCE10-b38LsLyRCrQn7-UlAm18Fcut06AFgi03FsCOpMZcr6XrppznPvIm15VQVbKA7BNzGDymTVC8dW_JzwArNhCFJzFhWVWuKdPVfQGle3xykXhxJaZhcsabi5PTXLBASPBEb2I5JBF5mRiVtPemferOFWtG4rRWWKyMZEOi-Qmw3WE8woy5AFCyoLsXwprT_mNT5q-zNPox4ZgcQnqClXW9GnmVAwlQggy5PTI32ZFTMG_kwnKib3I7QbcFBxa4hhZE3KrQrPFGAiCJQVmriRuDfwRDKu0-9jHlLa8_JWR1j3Bq-zf6jsU5pEEd4zYgvJKUW6z8UECJwPiXQdcaN4qjuU3-lOSAwGOfVS4H45CCIwY9R8d1xLIkbVfgJKvlPwcXfweQQMNcLtZ59GdXhrRQvBcd1OPHo6YPpiDLkPsrgfqgTMiwvjvyfecOwbXAw0rXhC3-xMohrSmpbyBPePv-ckLKz2rh46fgP-dFp3uQ4BKelBgpCgp4qhyvK3mj0Ar66ZjjELO3EWSvMYkZJ-wFIZGeXdBhd22J7R6N4pRIdpPFIIIO2cmbXmtD66knRov_92oAqs6wxLuJy_tF3baMUL3p_Qdf-5YxcmbyrA8z3tr7Pl-AgYM7zuyHwasP4HlQZx-_yIwBaUTjEGBb3ZRJRFH5asK4hnDJuYwNLd3ECiSFTHQqSx-u3XFga5GmqE3VWRGqj4qXyOZtgODHnyDiVnmMU759Nti50sC-v5sfAOEtV4dOy_rQ7_ANODhUJTxGwAyr7L3NGjgIjoJhAnFdI7eZ0MHtrqMbguVbCl79zNKqbLRw3viE7rMtJzOHRVRSyeMortoMFfXZSt9fAuM5EtbudfT6jpfIqBNbKuQnvuQKjMSRiuV6PN3f1ECkU97pWlcjNy1]--></g></svg>