<?xml version="1.0" encoding="us-ascii" standalone="no"?><svg xmlns="http://www.w3.org/2000/svg" xmlns:xlink="http://www.w3.org/1999/xlink" contentStyleType="text/css" height="1710px" preserveAspectRatio="none" style="width:1087px;height:1710px;background:#FFFFFF;" version="1.1" viewBox="0 0 1087 1710" width="1087px" zoomAndPan="magnify"><defs/><g><text fill="#000000" font-family="Verdana" font-size="22" font-weight="bold" lengthAdjust="spacing" textLength="414" x="335" y="37.1182">SD10: XU&#7844;T B&#193;O C&#193;O T&#192;I CH&#205;NH</text><rect fill="#FFFFFF" height="1130.9692" style="stroke:#000000;stroke-width:1.0;" width="10" x="232.5" y="162.5513"/><rect fill="#FFFFFF" height="108.7959" style="stroke:#000000;stroke-width:1.0;" width="10" x="596.5" y="192.3506"/><rect fill="#FFFFFF" height="734.3809" style="stroke:#000000;stroke-width:1.0;" width="10" x="596.5" y="486.541"/><rect fill="#FFFFFF" height="29.7993" style="stroke:#000000;stroke-width:1.0;" width="10" x="860.5" y="636.5376"/><rect fill="#FFFFFF" height="29.7993" style="stroke:#000000;stroke-width:1.0;" width="10" x="860.5" y="754.7349"/><rect fill="#FFFFFF" height="29.7993" style="stroke:#000000;stroke-width:1.0;" width="10" x="860.5" y="915.7314"/><rect fill="#FFFFFF" height="29.7993" style="stroke:#000000;stroke-width:1.0;" width="10" x="995" y="991.1294"/><rect fill="#FFFFFF" height="29.7993" style="stroke:#000000;stroke-width:1.0;" width="10" x="995" y="1145.5239"/><line style="stroke:#000000;stroke-width:1.0;" x1="40" x2="40" y1="130.752" y2="1417.5171"/><line style="stroke:#000000;stroke-width:1.0;" x1="237" x2="237" y1="130.752" y2="1417.5171"/><line style="stroke:#000000;stroke-width:1.0;" x1="601" x2="601" y1="130.752" y2="1417.5171"/><line style="stroke:#000000;stroke-width:1.0;" x1="865" x2="865" y1="130.752" y2="1417.5171"/><line style="stroke:#000000;stroke-width:1.0;" x1="1000" x2="1000" y1="130.752" y2="1417.5171"/><text fill="#000000" font-family="Verdana" font-size="14" lengthAdjust="spacing" textLength="55" x="10" y="127.8125">K&#7871; to&#225;n</text><ellipse cx="40.5" cy="61.7373" fill="#FFFFFF" rx="8" ry="8" style="stroke:#000000;stroke-width:1.0;"/><path d="M40.5,69.7373 L40.5,96.7373 M27.5,77.7373 L53.5,77.7373 M40.5,96.7373 L27.5,111.7373 M40.5,96.7373 L53.5,111.7373 " fill="none" style="stroke:#000000;stroke-width:1.0;"/><text fill="#000000" font-family="Verdana" font-size="14" lengthAdjust="spacing" textLength="55" x="10" y="1430.5923">K&#7871; to&#225;n</text><ellipse cx="40.5" cy="1442.5317" fill="#FFFFFF" rx="8" ry="8" style="stroke:#000000;stroke-width:1.0;"/><path d="M40.5,1450.5317 L40.5,1477.5317 M27.5,1458.5317 L53.5,1458.5317 M40.5,1477.5317 L27.5,1492.5317 M40.5,1477.5317 L53.5,1492.5317 " fill="none" style="stroke:#000000;stroke-width:1.0;"/><rect fill="#FFFFFF" height="31.0146" rx="2.5" ry="2.5" style="stroke:#000000;stroke-width:1.0;" width="95" x="190" y="98.7373"/><text fill="#000000" font-family="Verdana" font-size="14" lengthAdjust="spacing" textLength="81" x="197" y="119.8125">Tr&#236;nh duy&#7879;t</text><rect fill="#FFFFFF" height="31.0146" rx="2.5" ry="2.5" style="stroke:#000000;stroke-width:1.0;" width="95" x="190" y="1416.5171"/><text fill="#000000" font-family="Verdana" font-size="14" lengthAdjust="spacing" textLength="81" x="197" y="1437.5923">Tr&#236;nh duy&#7879;t</text><rect fill="#FFFFFF" height="31.0146" rx="2.5" ry="2.5" style="stroke:#000000;stroke-width:1.0;" width="107" x="548" y="98.7373"/><text fill="#000000" font-family="Verdana" font-size="14" lengthAdjust="spacing" textLength="93" x="555" y="119.8125">API H&#7879; th&#7889;ng</text><rect fill="#FFFFFF" height="31.0146" rx="2.5" ry="2.5" style="stroke:#000000;stroke-width:1.0;" width="107" x="548" y="1416.5171"/><text fill="#000000" font-family="Verdana" font-size="14" lengthAdjust="spacing" textLength="93" x="555" y="1437.5923">API H&#7879; th&#7889;ng</text><text fill="#000000" font-family="Verdana" font-size="14" lengthAdjust="spacing" textLength="93" x="816" y="127.8125">C&#417; s&#7903; d&#7919; li&#7879;u</text><path d="M847.5,77.7373 C847.5,67.7373 865.5,67.7373 865.5,67.7373 C865.5,67.7373 883.5,67.7373 883.5,77.7373 L883.5,103.7373 C883.5,113.7373 865.5,113.7373 865.5,113.7373 C865.5,113.7373 847.5,113.7373 847.5,103.7373 L847.5,77.7373 " fill="#FFFFFF" style="stroke:#000000;stroke-width:1.5;"/><path d="M847.5,77.7373 C847.5,87.7373 865.5,87.7373 865.5,87.7373 C865.5,87.7373 883.5,87.7373 883.5,77.7373 " fill="none" style="stroke:#000000;stroke-width:1.5;"/><text fill="#000000" font-family="Verdana" font-size="14" lengthAdjust="spacing" textLength="93" x="816" y="1430.5923">C&#417; s&#7903; d&#7919; li&#7879;u</text><path d="M847.5,1443.5317 C847.5,1433.5317 865.5,1433.5317 865.5,1433.5317 C865.5,1433.5317 883.5,1433.5317 883.5,1443.5317 L883.5,1469.5317 C883.5,1479.5317 865.5,1479.5317 865.5,1479.5317 C865.5,1479.5317 847.5,1479.5317 847.5,1469.5317 L847.5,1443.5317 " fill="#FFFFFF" style="stroke:#000000;stroke-width:1.5;"/><path d="M847.5,1443.5317 C847.5,1453.5317 865.5,1453.5317 865.5,1453.5317 C865.5,1453.5317 883.5,1453.5317 883.5,1443.5317 " fill="none" style="stroke:#000000;stroke-width:1.5;"/><rect fill="#FFFFFF" height="31.0146" rx="2.5" ry="2.5" style="stroke:#000000;stroke-width:1.0;" width="130" x="935" y="98.7373"/><text fill="#000000" font-family="Verdana" font-size="14" lengthAdjust="spacing" textLength="116" x="942" y="119.8125">Template Engine</text><rect fill="#FFFFFF" height="31.0146" rx="2.5" ry="2.5" style="stroke:#000000;stroke-width:1.0;" width="130" x="935" y="1416.5171"/><text fill="#000000" font-family="Verdana" font-size="14" lengthAdjust="spacing" textLength="116" x="942" y="1437.5923">Template Engine</text><rect fill="#FFFFFF" height="1130.9692" style="stroke:#000000;stroke-width:1.0;" width="10" x="232.5" y="162.5513"/><rect fill="#FFFFFF" height="108.7959" style="stroke:#000000;stroke-width:1.0;" width="10" x="596.5" y="192.3506"/><rect fill="#FFFFFF" height="734.3809" style="stroke:#000000;stroke-width:1.0;" width="10" x="596.5" y="486.541"/><rect fill="#FFFFFF" height="29.7993" style="stroke:#000000;stroke-width:1.0;" width="10" x="860.5" y="636.5376"/><rect fill="#FFFFFF" height="29.7993" style="stroke:#000000;stroke-width:1.0;" width="10" x="860.5" y="754.7349"/><rect fill="#FFFFFF" height="29.7993" style="stroke:#000000;stroke-width:1.0;" width="10" x="860.5" y="915.7314"/><rect fill="#FFFFFF" height="29.7993" style="stroke:#000000;stroke-width:1.0;" width="10" x="995" y="991.1294"/><rect fill="#FFFFFF" height="29.7993" style="stroke:#000000;stroke-width:1.0;" width="10" x="995" y="1145.5239"/><polygon fill="#000000" points="220.5,158.5513,230.5,162.5513,220.5,166.5513,224.5,162.5513" style="stroke:#000000;stroke-width:1.0;"/><line style="stroke:#000000;stroke-width:1.0;" x1="40.5" x2="226.5" y1="162.5513" y2="162.5513"/><text fill="#000000" font-family="Verdana" font-size="13" lengthAdjust="spacing" textLength="133" x="70" y="157.8218">V&#224;o trang "B&#225;o c&#225;o"</text><polygon fill="#000000" points="584.5,188.3506,594.5,192.3506,584.5,196.3506,588.5,192.3506" style="stroke:#000000;stroke-width:1.0;"/><line style="stroke:#000000;stroke-width:1.0;" x1="242.5" x2="590.5" y1="192.3506" y2="192.3506"/><text fill="#000000" font-family="Verdana" font-size="13" lengthAdjust="spacing" textLength="148" x="345.5" y="187.6211">L&#7845;y menu lo&#7841;i b&#225;o c&#225;o</text><polygon fill="#000000" points="253.5,297.1465,243.5,301.1465,253.5,305.1465,249.5,301.1465" style="stroke:#000000;stroke-width:1.0;"/><line style="stroke:#000000;stroke-width:1.0;stroke-dasharray:2.0,2.0;" x1="247.5" x2="600.5" y1="301.1465" y2="301.1465"/><text fill="#000000" font-family="Verdana" font-size="13" lengthAdjust="spacing" textLength="96" x="374" y="217.4204">Hi&#7875;n th&#7883; menu:</text><text fill="#000000" font-family="Verdana" font-size="13" lengthAdjust="spacing" textLength="131" x="356.5" y="233.2197">1. Thu chi t&#7893;ng h&#7907;p</text><text fill="#000000" font-family="Verdana" font-size="13" lengthAdjust="spacing" textLength="162" x="341" y="249.019">2. Danh s&#225;ch nh&#224; t&#224;i tr&#7907;</text><text fill="#000000" font-family="Verdana" font-size="13" lengthAdjust="spacing" textLength="160" x="342" y="264.8184">3. Danh s&#225;ch th&#7911; h&#432;&#7903;ng</text><text fill="#000000" font-family="Verdana" font-size="13" lengthAdjust="spacing" textLength="100" x="372" y="280.6177">4. B&#225;o c&#225;o qu&#7929;</text><text fill="#000000" font-family="Verdana" font-size="13" lengthAdjust="spacing" textLength="126" x="359" y="296.417">5. B&#225;o c&#225;o &#273;&#7873; xu&#7845;t</text><polygon fill="#000000" points="220.5,342.7451,230.5,346.7451,220.5,350.7451,224.5,346.7451" style="stroke:#000000;stroke-width:1.0;"/><line style="stroke:#000000;stroke-width:1.0;" x1="40.5" x2="226.5" y1="346.7451" y2="346.7451"/><text fill="#000000" font-family="Verdana" font-size="13" lengthAdjust="spacing" textLength="118" x="77.5" y="326.2163">Ch&#7885;n lo&#7841;i b&#225;o c&#225;o</text><text fill="#000000" font-family="Verdana" font-size="13" lengthAdjust="spacing" textLength="167" x="53" y="342.0156">V&#237; d&#7909;: "Thu chi t&#7893;ng h&#7907;p"</text><polygon fill="#000000" points="220.5,419.9424,230.5,423.9424,220.5,427.9424,224.5,423.9424" style="stroke:#000000;stroke-width:1.0;"/><line style="stroke:#000000;stroke-width:1.0;" x1="40.5" x2="226.5" y1="423.9424" y2="423.9424"/><text fill="#000000" font-family="Verdana" font-size="13" lengthAdjust="spacing" textLength="84" x="94.5" y="371.8149">Ch&#7885;n b&#7897; l&#7885;c:</text><text fill="#000000" font-family="Verdana" font-size="13" lengthAdjust="spacing" textLength="114" x="79.5" y="387.6143">- Qu&#7929; (t&#249;y ch&#7885;n)</text><text fill="#000000" font-family="Verdana" font-size="13" lengthAdjust="spacing" textLength="154" x="59.5" y="403.4136">- T&#7915; ng&#224;y: 01/01/2024</text><text fill="#000000" font-family="Verdana" font-size="13" lengthAdjust="spacing" textLength="161" x="56" y="419.2129">- &#272;&#7871;n ng&#224;y: 31/12/2024</text><polygon fill="#000000" points="220.5,449.7417,230.5,453.7417,220.5,457.7417,224.5,453.7417" style="stroke:#000000;stroke-width:1.0;"/><line style="stroke:#000000;stroke-width:1.0;" x1="40.5" x2="226.5" y1="453.7417" y2="453.7417"/><text fill="#000000" font-family="Verdana" font-size="13" lengthAdjust="spacing" textLength="137" x="68" y="449.0122">Nh&#7845;n "Xu&#7845;t b&#225;o c&#225;o"</text><polygon fill="#000000" points="584.5,482.541,594.5,486.541,584.5,490.541,588.5,486.541" style="stroke:#000000;stroke-width:1.0;"/><line style="stroke:#000000;stroke-width:1.0;" x1="242.5" x2="590.5" y1="486.541" y2="486.541"/><text fill="#000000" font-family="Verdana" font-size="13" lengthAdjust="spacing" textLength="171" x="334" y="481.8115">G&#7917;i y&#234;u c&#7847;u xu&#7845;t b&#225;o c&#225;o</text><path d="M611,466.7417 L611,491.7417 L861,491.7417 L861,476.7417 L851,466.7417 L611,466.7417 " fill="#FFFFFF" style="stroke:#000000;stroke-width:1.0;"/><path d="M851,466.7417 L851,476.7417 L861,476.7417 L851,466.7417 " fill="#FFFFFF" style="stroke:#000000;stroke-width:1.0;"/><text fill="#000000" font-family="Verdana" font-size="13" lengthAdjust="spacing" textLength="229" x="617" y="484.8115">GET /api/reports/revenue-expense</text><line style="stroke:#000000;stroke-width:1.0;" x1="606.5" x2="648.5" y1="519.3403" y2="519.3403"/><line style="stroke:#000000;stroke-width:1.0;" x1="648.5" x2="648.5" y1="519.3403" y2="532.3403"/><line style="stroke:#000000;stroke-width:1.0;" x1="607.5" x2="648.5" y1="532.3403" y2="532.3403"/><polygon fill="#000000" points="617.5,528.3403,607.5,532.3403,617.5,536.3403,613.5,532.3403" style="stroke:#000000;stroke-width:1.0;"/><text fill="#000000" font-family="Verdana" font-size="13" lengthAdjust="spacing" textLength="103" x="613.5" y="514.6108">X&#225;c th&#7921;c token</text><line style="stroke:#000000;stroke-width:1.0;" x1="606.5" x2="648.5" y1="577.939" y2="577.939"/><line style="stroke:#000000;stroke-width:1.0;" x1="648.5" x2="648.5" y1="577.939" y2="590.939"/><line style="stroke:#000000;stroke-width:1.0;" x1="607.5" x2="648.5" y1="590.939" y2="590.939"/><polygon fill="#000000" points="617.5,586.939,607.5,590.939,617.5,594.939,613.5,590.939" style="stroke:#000000;stroke-width:1.0;"/><text fill="#000000" font-family="Verdana" font-size="13" lengthAdjust="spacing" textLength="99" x="684" y="557.4102">Ki&#7875;m tra quy&#7873;n</text><text fill="#000000" font-family="Verdana" font-size="13" lengthAdjust="spacing" textLength="240" x="613.5" y="573.2095">K&#7871; to&#225;n (role 2) ho&#7863;c Admin (role 1)</text><polygon fill="#000000" points="848.5,632.5376,858.5,636.5376,848.5,640.5376,852.5,636.5376" style="stroke:#000000;stroke-width:1.0;"/><line style="stroke:#000000;stroke-width:1.0;" x1="606.5" x2="854.5" y1="636.5376" y2="636.5376"/><text fill="#000000" font-family="Verdana" font-size="13" lengthAdjust="spacing" textLength="155" x="656" y="616.0088">Truy v&#7845;n giao d&#7883;ch THU</text><text fill="#000000" font-family="Verdana" font-size="13" lengthAdjust="spacing" textLength="149" x="659" y="631.8081">trong kho&#7843;ng th&#7901;i gian</text><polygon fill="#000000" points="617.5,662.3369,607.5,666.3369,617.5,670.3369,613.5,666.3369" style="stroke:#000000;stroke-width:1.0;"/><line style="stroke:#000000;stroke-width:1.0;stroke-dasharray:2.0,2.0;" x1="611.5" x2="864.5" y1="666.3369" y2="666.3369"/><text fill="#000000" font-family="Verdana" font-size="13" lengthAdjust="spacing" textLength="165" x="653.5" y="661.6074">Danh s&#225;ch giao d&#7883;ch THU</text><line style="stroke:#000000;stroke-width:1.0;" x1="606.5" x2="648.5" y1="696.1362" y2="696.1362"/><line style="stroke:#000000;stroke-width:1.0;" x1="648.5" x2="648.5" y1="696.1362" y2="709.1362"/><line style="stroke:#000000;stroke-width:1.0;" x1="607.5" x2="648.5" y1="709.1362" y2="709.1362"/><polygon fill="#000000" points="617.5,705.1362,607.5,709.1362,617.5,713.1362,613.5,709.1362" style="stroke:#000000;stroke-width:1.0;"/><text fill="#000000" font-family="Verdana" font-size="13" lengthAdjust="spacing" textLength="90" x="613.5" y="691.4067">T&#237;nh t&#7893;ng thu</text><polygon fill="#000000" points="848.5,750.7349,858.5,754.7349,848.5,758.7349,852.5,754.7349" style="stroke:#000000;stroke-width:1.0;"/><line style="stroke:#000000;stroke-width:1.0;" x1="606.5" x2="854.5" y1="754.7349" y2="754.7349"/><text fill="#000000" font-family="Verdana" font-size="13" lengthAdjust="spacing" textLength="151" x="658" y="734.2061">Truy v&#7845;n giao d&#7883;ch CHI</text><text fill="#000000" font-family="Verdana" font-size="13" lengthAdjust="spacing" textLength="149" x="659" y="750.0054">trong kho&#7843;ng th&#7901;i gian</text><polygon fill="#000000" points="617.5,780.5342,607.5,784.5342,617.5,788.5342,613.5,784.5342" style="stroke:#000000;stroke-width:1.0;"/><line style="stroke:#000000;stroke-width:1.0;stroke-dasharray:2.0,2.0;" x1="611.5" x2="864.5" y1="784.5342" y2="784.5342"/><text fill="#000000" font-family="Verdana" font-size="13" lengthAdjust="spacing" textLength="161" x="655.5" y="779.8047">Danh s&#225;ch giao d&#7883;ch CHI</text><line style="stroke:#000000;stroke-width:1.0;" x1="606.5" x2="648.5" y1="814.3335" y2="814.3335"/><line style="stroke:#000000;stroke-width:1.0;" x1="648.5" x2="648.5" y1="814.3335" y2="827.3335"/><line style="stroke:#000000;stroke-width:1.0;" x1="607.5" x2="648.5" y1="827.3335" y2="827.3335"/><polygon fill="#000000" points="617.5,823.3335,607.5,827.3335,617.5,831.3335,613.5,827.3335" style="stroke:#000000;stroke-width:1.0;"/><text fill="#000000" font-family="Verdana" font-size="13" lengthAdjust="spacing" textLength="87" x="613.5" y="809.604">T&#237;nh t&#7893;ng chi</text><line style="stroke:#000000;stroke-width:1.0;" x1="606.5" x2="648.5" y1="872.9321" y2="872.9321"/><line style="stroke:#000000;stroke-width:1.0;" x1="648.5" x2="648.5" y1="872.9321" y2="885.9321"/><line style="stroke:#000000;stroke-width:1.0;" x1="607.5" x2="648.5" y1="885.9321" y2="885.9321"/><polygon fill="#000000" points="617.5,881.9321,607.5,885.9321,617.5,889.9321,613.5,885.9321" style="stroke:#000000;stroke-width:1.0;"/><text fill="#000000" font-family="Verdana" font-size="13" lengthAdjust="spacing" textLength="111" x="671" y="852.4033">T&#237;nh ch&#234;nh l&#7879;ch:</text><text fill="#000000" font-family="Verdana" font-size="13" lengthAdjust="spacing" textLength="226" x="613.5" y="868.2026">Ch&#234;nh l&#7879;ch = T&#7893;ng thu - T&#7893;ng chi</text><polygon fill="#000000" points="848.5,911.7314,858.5,915.7314,848.5,919.7314,852.5,915.7314" style="stroke:#000000;stroke-width:1.0;"/><line style="stroke:#000000;stroke-width:1.0;" x1="606.5" x2="854.5" y1="915.7314" y2="915.7314"/><text fill="#000000" font-family="Verdana" font-size="13" lengthAdjust="spacing" textLength="117" x="675" y="911.002">L&#7845;y th&#244;ng tin qu&#7929;</text><polygon fill="#000000" points="617.5,941.5308,607.5,945.5308,617.5,949.5308,613.5,945.5308" style="stroke:#000000;stroke-width:1.0;"/><line style="stroke:#000000;stroke-width:1.0;stroke-dasharray:2.0,2.0;" x1="611.5" x2="864.5" y1="945.5308" y2="945.5308"/><text fill="#000000" font-family="Verdana" font-size="13" lengthAdjust="spacing" textLength="92" x="690" y="940.8013">Th&#244;ng tin qu&#7929;</text><polygon fill="#000000" points="983,987.1294,993,991.1294,983,995.1294,987,991.1294" style="stroke:#000000;stroke-width:1.0;"/><line style="stroke:#000000;stroke-width:1.0;" x1="606.5" x2="989" y1="991.1294" y2="991.1294"/><text fill="#000000" font-family="Verdana" font-size="13" lengthAdjust="spacing" textLength="121" x="740.25" y="970.6006">M&#7903; template Word</text><text fill="#000000" font-family="Verdana" font-size="13" lengthAdjust="spacing" textLength="165" x="718.25" y="986.3999">"thu_chi_tong_hop.docx"</text><polygon fill="#000000" points="617.5,1016.9287,607.5,1020.9287,617.5,1024.9287,613.5,1020.9287" style="stroke:#000000;stroke-width:1.0;"/><line style="stroke:#000000;stroke-width:1.0;stroke-dasharray:2.0,2.0;" x1="611.5" x2="999" y1="1020.9287" y2="1020.9287"/><text fill="#000000" font-family="Verdana" font-size="13" lengthAdjust="spacing" textLength="106" x="750.25" y="1016.1992">Template &#273;&#227; m&#7903;</text><polygon fill="#000000" points="983,1141.5239,993,1145.5239,983,1149.5239,987,1145.5239" style="stroke:#000000;stroke-width:1.0;"/><line style="stroke:#000000;stroke-width:1.0;" x1="606.5" x2="989" y1="1145.5239" y2="1145.5239"/><text fill="#000000" font-family="Verdana" font-size="13" lengthAdjust="spacing" textLength="175" x="713.25" y="1045.9985">&#272;i&#7873;n d&#7919; li&#7879;u v&#224;o template:</text><text fill="#000000" font-family="Verdana" font-size="13" lengthAdjust="spacing" textLength="86" x="757.75" y="1061.7979">- K&#7923; b&#225;o c&#225;o</text><text fill="#000000" font-family="Verdana" font-size="13" lengthAdjust="spacing" textLength="72" x="764.75" y="1077.5972">- T&#7893;ng thu</text><text fill="#000000" font-family="Verdana" font-size="13" lengthAdjust="spacing" textLength="69" x="766.25" y="1093.3965">- T&#7893;ng chi</text><text fill="#000000" font-family="Verdana" font-size="13" lengthAdjust="spacing" textLength="85" x="758.25" y="1109.1958">- Ch&#234;nh l&#7879;ch</text><text fill="#000000" font-family="Verdana" font-size="13" lengthAdjust="spacing" textLength="100" x="750.75" y="1124.9951">- S&#7889; d&#432; &#273;&#7847;u k&#7923;</text><text fill="#000000" font-family="Verdana" font-size="13" lengthAdjust="spacing" textLength="103" x="749.25" y="1140.7944">- S&#7889; d&#432; cu&#7889;i k&#7923;</text><polygon fill="#000000" points="617.5,1171.3232,607.5,1175.3232,617.5,1179.3232,613.5,1175.3232" style="stroke:#000000;stroke-width:1.0;"/><line style="stroke:#000000;stroke-width:1.0;stroke-dasharray:2.0,2.0;" x1="611.5" x2="999" y1="1175.3232" y2="1175.3232"/><text fill="#000000" font-family="Verdana" font-size="13" lengthAdjust="spacing" textLength="109" x="748.75" y="1170.5938">File Word &#273;&#227; t&#7841;o</text><polygon fill="#000000" points="253.5,1216.9219,243.5,1220.9219,253.5,1224.9219,249.5,1220.9219" style="stroke:#000000;stroke-width:1.0;"/><line style="stroke:#000000;stroke-width:1.0;stroke-dasharray:2.0,2.0;" x1="247.5" x2="600.5" y1="1220.9219" y2="1220.9219"/><text fill="#000000" font-family="Verdana" font-size="13" lengthAdjust="spacing" textLength="106" x="369" y="1200.3931">Tr&#7843; v&#7873; file Word</text><text fill="#000000" font-family="Verdana" font-size="13" lengthAdjust="spacing" textLength="330" x="257" y="1216.1924">(T&#234;n: BaoCao_ThuChi_20240101_20241231.docx)</text><line style="stroke:#000000;stroke-width:1.0;" x1="242.5" x2="284.5" y1="1250.7212" y2="1250.7212"/><line style="stroke:#000000;stroke-width:1.0;" x1="284.5" x2="284.5" y1="1250.7212" y2="1263.7212"/><line style="stroke:#000000;stroke-width:1.0;" x1="243.5" x2="284.5" y1="1263.7212" y2="1263.7212"/><polygon fill="#000000" points="253.5,1259.7212,243.5,1263.7212,253.5,1267.7212,249.5,1263.7212" style="stroke:#000000;stroke-width:1.0;"/><text fill="#000000" font-family="Verdana" font-size="13" lengthAdjust="spacing" textLength="97" x="249.5" y="1245.9917">T&#7843;i file v&#7873; m&#225;y</text><polygon fill="#000000" points="51.5,1289.5205,41.5,1293.5205,51.5,1297.5205,47.5,1293.5205" style="stroke:#000000;stroke-width:1.0;"/><line style="stroke:#000000;stroke-width:1.0;stroke-dasharray:2.0,2.0;" x1="45.5" x2="236.5" y1="1293.5205" y2="1293.5205"/><text fill="#000000" font-family="Verdana" font-size="13" lengthAdjust="spacing" textLength="168" x="55" y="1288.791">Th&#244;ng b&#225;o "&#272;&#227; t&#7843;i xu&#7889;ng"</text><line style="stroke:#000000;stroke-width:1.0;" x1="40.5" x2="82.5" y1="1386.5171" y2="1386.5171"/><line style="stroke:#000000;stroke-width:1.0;" x1="82.5" x2="82.5" y1="1386.5171" y2="1399.5171"/><line style="stroke:#000000;stroke-width:1.0;" x1="41.5" x2="82.5" y1="1399.5171" y2="1399.5171"/><polygon fill="#000000" points="51.5,1395.5171,41.5,1399.5171,51.5,1403.5171,47.5,1399.5171" style="stroke:#000000;stroke-width:1.0;"/><text fill="#000000" font-family="Verdana" font-size="13" lengthAdjust="spacing" textLength="88" x="71" y="1318.5903">M&#7903; file Word:</text><text fill="#000000" font-family="Verdana" font-size="13" lengthAdjust="spacing" textLength="101" x="64.5" y="1334.3896">- Xem n&#7897;i dung</text><text fill="#000000" font-family="Verdana" font-size="13" lengthAdjust="spacing" textLength="135" x="47.5" y="1350.189">- Ch&#7881;nh s&#7917;a n&#7871;u c&#7847;n</text><text fill="#000000" font-family="Verdana" font-size="13" lengthAdjust="spacing" textLength="98" x="66" y="1365.9883">- Th&#234;m ch&#7919; k&#253;</text><text fill="#000000" font-family="Verdana" font-size="13" lengthAdjust="spacing" textLength="125" x="52.5" y="1381.7876">- In ho&#7863;c g&#7917;i email</text><rect fill="none" height="197.1611" id="_legend" rx="7.5" ry="7.5" style="stroke:#000000;stroke-width:1.0;" width="329" x="745" y="1500.5317"/><text fill="#000000" font-family="Verdana" font-size="14" font-weight="bold" lengthAdjust="spacing" textLength="43" x="750" y="1519.6069">M&#244; t&#7843;</text><text fill="#000000" font-family="Verdana" font-size="14" lengthAdjust="spacing" textLength="276" x="793" y="1519.6069">: Xu&#7845;t b&#225;o c&#225;o t&#224;i ch&#237;nh d&#7841;ng file Word</text><text fill="#000000" font-family="Verdana" font-size="14" font-weight="bold" lengthAdjust="spacing" textLength="29" x="750" y="1536.6216">API</text><text fill="#000000" font-family="Verdana" font-size="14" lengthAdjust="spacing" textLength="257" x="779" y="1536.6216">: GET /api/reports/revenue-expense</text><text fill="#000000" font-family="Verdana" font-size="14" font-weight="bold" lengthAdjust="spacing" textLength="84" x="750" y="1553.6362">Quy&#7873;n h&#7841;n</text><text fill="#000000" font-family="Verdana" font-size="14" lengthAdjust="spacing" textLength="234" x="834" y="1553.6362">: K&#7871; to&#225;n (role 2), Admin (role 1)</text><text fill="#000000" font-family="Verdana" font-size="14" font-weight="bold" lengthAdjust="spacing" textLength="98" x="750" y="1570.6509">Lo&#7841;i b&#225;o c&#225;o</text><text fill="#000000" font-family="Verdana" font-size="14" lengthAdjust="spacing" textLength="6" x="848" y="1570.6509">:</text><text fill="#000000" font-family="Verdana" font-size="14" lengthAdjust="spacing" textLength="140" x="760" y="1587.6655">1. Thu chi t&#7893;ng h&#7907;p</text><text fill="#000000" font-family="Verdana" font-size="14" lengthAdjust="spacing" textLength="172" x="760" y="1604.6802">2. Danh s&#225;ch nh&#224; t&#224;i tr&#7907;</text><text fill="#000000" font-family="Verdana" font-size="14" lengthAdjust="spacing" textLength="173" x="760" y="1621.6948">3. Danh s&#225;ch th&#7911; h&#432;&#7903;ng</text><text fill="#000000" font-family="Verdana" font-size="14" lengthAdjust="spacing" textLength="158" x="760" y="1638.7095">4. B&#225;o c&#225;o qu&#7929; chi ti&#7871;t</text><text fill="#000000" font-family="Verdana" font-size="14" lengthAdjust="spacing" textLength="134" x="760" y="1655.7241">5. B&#225;o c&#225;o &#273;&#7873; xu&#7845;t</text><text fill="#000000" font-family="Verdana" font-size="14" font-weight="bold" lengthAdjust="spacing" textLength="71" x="750" y="1672.7388">Template</text><text fill="#000000" font-family="Verdana" font-size="14" lengthAdjust="spacing" textLength="178" x="821" y="1672.7388">: S&#7917; d&#7909;ng docxtemplater</text><text fill="#000000" font-family="Verdana" font-size="14" font-weight="bold" lengthAdjust="spacing" textLength="55" x="750" y="1689.7534">Format</text><text fill="#000000" font-family="Verdana" font-size="14" lengthAdjust="spacing" textLength="184" x="805" y="1689.7534">: .docx (c&#243; th&#7875; ch&#7881;nh s&#7917;a)</text><!--SRC=[hLLDRzj64BtpLqpLYqrKjYMd5m4jOCbnPIXE6uH9VH1WqDIMN4XSAjJIiMurSWYA881zwA67eXRS841Q8oaIe8Y48WSQ_X_y9tsxD2LAibmVQXWYkJCxCsy-tdmcFUOpwdPiBenUcukk7Te-xTjEsms3IBHgGIS8wVCj_PVJwB4d4HCEss6zdksoZGvt1JbCI1OQXkIomyWq7swMrYgq-oWP_cvHDJxwbchgnuf_tAPQFNvvlswQXc4x4YuAZMJuYMGG3qI1x1urB0EU97TurnQI2bOO_oayQaNzPFHSQfLg63pjmT-KtiPtsrI72aal6Pq8LslYq6ZPqjwtUumAjSi1zPBHRzHAHc-fmw4TQRNDwenFvYCpaj5TuNB1j4vsPXWDYufVPq5Kw75y6f0CRU5IeHeF0dBmKr3e-86oaKLhNBseouYhGlUIuQi- -Kn4r0cIuO3JVdPzSbiXKD2AUPTrXFvCQAGlj85AKvHMoF8YSZnECXdzZ6WWFUisHNc5Dcrai1SF78-45v-IZ4-X5KBU5EjJOcNoDNcNxv0cuJR5dHKQOw8dKJBws1HVviykJfBH4Hr6m2AD5fkAUpPJDHX_AUR0DiNZ-5pLv5K5gRy6Gs6HfVraz0jryEeW0KLweEAZ9Hb_xCE6qbXMnrOo-eE46v_sAxHMMiL_UQryHqakZj5x8fEjbrPBPIsRytVV0pv1XLsDSn9wORwgtoIZSqxz-0rm9CFNqLLk5jLM17W9kUj9NBrhqQhTvQiXwmQXxE5vWEAo8ZliCj53w-bEk7AqYuBfUls5Hz1cOahQK2tYgxv4sJ0wHw8f9fD6Is60IIqlauTY_EtGHildsMbfUUneireXAupwTA3nkzmELA5Ue5Ei-gEca6608hMLaJEyg6X-vKfDJ51Yk3QhkdzrOBbccp6NRnzSce9ZnUUuTjKKqejk4s6jllr_HWXpjuuG7NoTrF7YDtYWOvyx7bgsbl-chrIdNk6ZOlQHDwN0fgmXlVY3qaJHz5Gk16FDAbuF8MEt2kqeWfGP0NuVXAscA22YFGIo9v7CFI_ehhG2vp37SMDo73Fd983ivE8aFYCVrlCXJ5XrBf2BOwxQDa_MTA2vDbDH8zn8Hk_pL5BC9J7tXU3LrrJ2rS53x0fgNRvJFAQ6jGrpK-SEadR2zVcju6xnJfgr5Ay4rGKt0CwJZ1MYHz77uDCVCYjDiMGXv0fLxQ1c1tkWnnhge4XghRHMqY-bydf95sHvZe1pv3Hn0oyyzQ1z-V6WdzE4QiCQzutERE7YE8M2UuTHkbsDlA_nYajfKztNRJI6eKkrotmIO6oEPQvsIr7J-4zgsC2PDcJ3Jobf2bqvrChNFFwMsl4_wcXRP7pbQfPbliqxXj5XBXEjb4KDqzo9F-XWJHCaEKE-wUh37AfnRA4um3YE4dUHDNNjFvdOD1-ah8eD1IFgpZNi-iKihvhclPdbXvi6qOBb3ScDsnloczOtnFFxEtN24Qo4VF4kDysiLHKup4EweX6QQhLi1aFeRGMXRqkbfRkGbfpulOxacQxUkC3B1ggKrihu5m00]--></g></svg>