<?xml version="1.0" encoding="us-ascii" standalone="no"?><svg xmlns="http://www.w3.org/2000/svg" xmlns:xlink="http://www.w3.org/1999/xlink" contentStyleType="text/css" height="2080px" preserveAspectRatio="none" style="width:658px;height:2080px;background:#FFFFFF;" version="1.1" viewBox="0 0 658 2080" width="658px" zoomAndPan="magnify"><defs/><g><text fill="#000000" font-family="Verdana" font-size="22" font-weight="bold" lengthAdjust="spacing" textLength="395" x="130.25" y="37.1182">AD12: XEM L&#7882;CH S&#7916; PH&#202; DUY&#7878;T</text><rect fill="#FFFFFF" height="21.876" style="stroke:#FFFFFF;stroke-width:1.0;" width="639.5" x="6" y="55.0166"/><rect fill="#E3F2FD" height="1911.9377" style="stroke:#E3F2FD;stroke-width:1.0;" width="227.75" x="23" y="55.0166"/><ellipse cx="125" cy="91.8926" fill="#FFFFFF" rx="10" ry="10" style="stroke:#000000;stroke-width:1.0;"/><rect fill="#FFFFFF" height="33.3687" rx="12.5" ry="12.5" style="stroke:#000000;stroke-width:1.0;" width="138" x="56" y="121.8926"/><text fill="#000000" font-family="Verdana" font-size="11" lengthAdjust="spacing" textLength="118" x="66" y="142.9517">V&#224;o xem chi ti&#7871;t &#273;&#417;n</text><rect fill="#FFFFFF" height="33.3687" rx="12.5" ry="12.5" style="stroke:#000000;stroke-width:1.0;" width="98" x="76" y="546.2104"/><text fill="#000000" font-family="Verdana" font-size="11" lengthAdjust="spacing" textLength="78" x="86" y="567.2695">Xem Timeline</text><polygon fill="#FFFFFF" points="81.5,1395.0305,168.5,1395.0305,180.5,1407.0305,168.5,1419.0305,81.5,1419.0305,69.5,1407.0305,81.5,1395.0305" style="stroke:#000000;stroke-width:1.0;"/><text fill="#000000" font-family="Verdana" font-size="11" lengthAdjust="spacing" textLength="16" x="129" y="1430.0896">C&#243;</text><text fill="#000000" font-family="Verdana" font-size="11" lengthAdjust="spacing" textLength="87" x="81.5" y="1411.4053">Xem giao d&#7883;ch?</text><polygon fill="#FFFFFF" points="125,1608.0581,137,1620.0581,125,1632.0581,113,1620.0581,125,1608.0581" style="stroke:#000000;stroke-width:1.0;"/><rect fill="#FFFFFF" height="33.3687" rx="12.5" ry="12.5" style="stroke:#000000;stroke-width:1.0;" width="84" x="83" y="1847.5857"/><text fill="#000000" font-family="Verdana" font-size="11" lengthAdjust="spacing" textLength="64" x="93" y="1868.6448">T&#7843;i file PDF</text><ellipse cx="125" cy="1955.9543" fill="none" rx="11" ry="11" style="stroke:#000000;stroke-width:1.0;"/><ellipse cx="125" cy="1955.9543" fill="#FFFFFF" rx="6" ry="6" style="stroke:#000000;stroke-width:1.0;"/><line style="stroke:#000000;stroke-width:1.0;" x1="23" x2="23" y1="55.0166" y2="1966.9543"/><rect fill="#F5F5F5" height="1911.9377" style="stroke:#F5F5F5;stroke-width:1.0;" width="422.5" x="209" y="55.0166"/><rect fill="#FFFFFF" height="33.3687" rx="12.5" ry="12.5" style="stroke:#000000;stroke-width:1.0;" width="137" x="353.5" y="175.2612"/><text fill="#000000" font-family="Verdana" font-size="11" lengthAdjust="spacing" textLength="117" x="363.5" y="196.3203">Ki&#7875;m tra quy&#7873;n xem</text><polygon fill="#FFFFFF" points="387,228.6299,457,228.6299,469,240.6299,457,252.6299,387,252.6299,375,240.6299,387,228.6299" style="stroke:#000000;stroke-width:1.0;"/><text fill="#000000" font-family="Verdana" font-size="11" lengthAdjust="spacing" textLength="70" x="387" y="245.0046">Ng&#432;&#7901;i d&#249;ng?</text><text fill="#000000" font-family="Verdana" font-size="11" lengthAdjust="spacing" textLength="53" x="322" y="238.3203">Sinh vi&#234;n</text><text fill="#000000" font-family="Verdana" font-size="11" lengthAdjust="spacing" textLength="102" x="469" y="238.3203">C&#225;n b&#7897;/KT/Admin</text><rect fill="#FFFFFF" height="46.7373" rx="12.5" ry="12.5" style="stroke:#000000;stroke-width:1.0;" width="131" x="287.75" y="262.6299"/><text fill="#000000" font-family="Verdana" font-size="11" lengthAdjust="spacing" textLength="104" x="297.75" y="283.689">Ch&#7881; cho ph&#233;p xem</text><text fill="#000000" font-family="Verdana" font-size="11" lengthAdjust="spacing" textLength="111" x="297.75" y="297.0576">&#273;&#417;n c&#7911;a ch&#237;nh m&#236;nh</text><rect fill="#FFFFFF" height="46.7373" rx="12.5" ry="12.5" style="stroke:#000000;stroke-width:1.0;" width="104" x="438.75" y="262.6299"/><text fill="#000000" font-family="Verdana" font-size="11" lengthAdjust="spacing" textLength="84" x="448.75" y="283.689">Cho ph&#233;p xem</text><text fill="#000000" font-family="Verdana" font-size="11" lengthAdjust="spacing" textLength="57" x="448.75" y="297.0576">t&#7845;t c&#7843; &#273;&#417;n</text><polygon fill="#FFFFFF" points="422,315.3672,434,327.3672,422,339.3672,410,327.3672,422,315.3672" style="stroke:#000000;stroke-width:1.0;"/><rect fill="#FFFFFF" height="33.3687" rx="12.5" ry="12.5" style="stroke:#000000;stroke-width:1.0;" width="119" x="362.5" y="359.3672"/><text fill="#000000" font-family="Verdana" font-size="11" lengthAdjust="spacing" textLength="99" x="372.5" y="380.4263">L&#7845;y th&#244;ng tin &#273;&#417;n</text><rect fill="#FFFFFF" height="46.7373" rx="12.5" ry="12.5" style="stroke:#000000;stroke-width:1.0;" width="141" x="351.5" y="412.7358"/><text fill="#000000" font-family="Verdana" font-size="11" lengthAdjust="spacing" textLength="121" x="361.5" y="433.7949">L&#7845;y l&#7883;ch s&#7917; ph&#234; duy&#7879;t</text><text fill="#000000" font-family="Verdana" font-size="11" lengthAdjust="spacing" textLength="31" x="361.5" y="447.1636">3 c&#7845;p</text><rect fill="#FFFFFF" height="46.7373" rx="12.5" ry="12.5" style="stroke:#000000;stroke-width:1.0;" width="115" x="364.5" y="479.4731"/><text fill="#000000" font-family="Verdana" font-size="11" lengthAdjust="spacing" textLength="95" x="374.5" y="500.5322">Hi&#7875;n th&#7883; Timeline</text><text fill="#000000" font-family="Verdana" font-size="11" lengthAdjust="spacing" textLength="67" x="374.5" y="513.9009">g&#7891;m 3 b&#432;&#7899;c</text><rect fill="#FFFFFF" height="33.3687" rx="12.5" ry="12.5" style="stroke:#000000;stroke-width:1.0;" width="164" x="340" y="599.5791"/><text fill="#000000" font-family="Verdana" font-size="11" lengthAdjust="spacing" textLength="144" x="350" y="620.6382">B&#432;&#7899;c 1 - Ph&#234; duy&#7879;t c&#7845;p 1</text><polygon fill="#FFFFFF" points="245,652.9478,344,652.9478,356,664.9478,344,676.9478,245,676.9478,233,664.9478,245,652.9478" style="stroke:#000000;stroke-width:1.0;"/><text fill="#000000" font-family="Verdana" font-size="11" lengthAdjust="spacing" textLength="62" x="298.5" y="688.0068">Ch&#432;a x&#7917; l&#253;</text><text fill="#000000" font-family="Verdana" font-size="11" lengthAdjust="spacing" textLength="99" x="245" y="669.3225">Tr&#7841;ng th&#225;i c&#7845;p 1?</text><rect fill="#FFFFFF" height="60.106" rx="12.5" ry="12.5" style="stroke:#000000;stroke-width:1.0;" width="152" x="218.5" y="710.3164"/><text fill="#000000" font-family="Verdana" font-size="11" lengthAdjust="spacing" textLength="43" x="228.5" y="731.3755">Hi&#7875;n th&#7883;</text><text fill="#000000" font-family="Verdana" font-size="11" lengthAdjust="spacing" textLength="101" x="228.5" y="744.7441">&#9203; &#272;ang ch&#7901; x&#7917; l&#253;</text><text fill="#000000" font-family="Verdana" font-size="11" lengthAdjust="spacing" textLength="132" x="228.5" y="758.1128">Ng&#432;&#7901;i duy&#7879;t = Ch&#432;a c&#243;</text><polygon fill="#FFFFFF" points="414.5,652.9478,478.5,652.9478,490.5,664.9478,478.5,676.9478,414.5,676.9478,402.5,664.9478,414.5,652.9478" style="stroke:#000000;stroke-width:1.0;"/><text fill="#000000" font-family="Verdana" font-size="11" lengthAdjust="spacing" textLength="52" x="450.5" y="688.0068">&#272;&#227; duy&#7879;t</text><text fill="#000000" font-family="Verdana" font-size="11" lengthAdjust="spacing" textLength="64" x="414.5" y="669.3225">Tr&#7841;ng th&#225;i?</text><text fill="#000000" font-family="Verdana" font-size="11" lengthAdjust="spacing" textLength="41" x="490.5" y="662.6382">T&#7915; ch&#7889;i</text><rect fill="#FFFFFF" height="86.8433" rx="12.5" ry="12.5" style="stroke:#000000;stroke-width:1.0;" width="112" x="390.5" y="710.3164"/><text fill="#000000" font-family="Verdana" font-size="11" lengthAdjust="spacing" textLength="43" x="400.5" y="731.3755">Hi&#7875;n th&#7883;</text><text fill="#000000" font-family="Verdana" font-size="11" lengthAdjust="spacing" textLength="92" x="400.5" y="744.7441">&#9989; &#272;&#227; ph&#234; duy&#7879;t</text><text fill="#000000" font-family="Verdana" font-size="11" lengthAdjust="spacing" textLength="77" x="400.5" y="758.1128">- Ng&#432;&#7901;i duy&#7879;t</text><text fill="#000000" font-family="Verdana" font-size="11" lengthAdjust="spacing" textLength="74" x="400.5" y="771.4814">- Ng&#224;y duy&#7879;t</text><text fill="#000000" font-family="Verdana" font-size="11" lengthAdjust="spacing" textLength="52" x="400.5" y="784.8501">- Ghi ch&#250;</text><rect fill="#FFFFFF" height="86.8433" rx="12.5" ry="12.5" style="stroke:#000000;stroke-width:1.0;" width="103" x="522.5" y="692.2899"/><text fill="#000000" font-family="Verdana" font-size="11" lengthAdjust="spacing" textLength="43" x="532.5" y="713.349">Hi&#7875;n th&#7883;</text><text fill="#000000" font-family="Verdana" font-size="11" lengthAdjust="spacing" textLength="73" x="532.5" y="726.7177">&#10060; &#272;&#227; t&#7915; ch&#7889;i</text><text fill="#000000" font-family="Verdana" font-size="11" lengthAdjust="spacing" textLength="83" x="532.5" y="740.0863">- Ng&#432;&#7901;i t&#7915; ch&#7889;i</text><text fill="#000000" font-family="Verdana" font-size="11" lengthAdjust="spacing" textLength="80" x="532.5" y="753.455">- Ng&#224;y t&#7915; ch&#7889;i</text><text fill="#000000" font-family="Verdana" font-size="11" lengthAdjust="spacing" textLength="40" x="532.5" y="766.8236">- L&#253; do</text><ellipse cx="574" cy="825.1332" fill="none" rx="11" ry="11" style="stroke:#000000;stroke-width:1.0;"/><ellipse cx="574" cy="825.1332" fill="#FFFFFF" rx="6" ry="6" style="stroke:#000000;stroke-width:1.0;"/><rect fill="#FFFFFF" height="33.3687" rx="12.5" ry="12.5" style="stroke:#000000;stroke-width:1.0;" width="164" x="340" y="876.1332"/><text fill="#000000" font-family="Verdana" font-size="11" lengthAdjust="spacing" textLength="144" x="350" y="897.1923">B&#432;&#7899;c 2 - Ph&#234; duy&#7879;t c&#7845;p 2</text><polygon fill="#FFFFFF" points="245.25,929.5018,344.25,929.5018,356.25,941.5018,344.25,953.5018,245.25,953.5018,233.25,941.5018,245.25,929.5018" style="stroke:#000000;stroke-width:1.0;"/><text fill="#000000" font-family="Verdana" font-size="11" lengthAdjust="spacing" textLength="62" x="298.75" y="964.5609">Ch&#432;a x&#7917; l&#253;</text><text fill="#000000" font-family="Verdana" font-size="11" lengthAdjust="spacing" textLength="99" x="245.25" y="945.8766">Tr&#7841;ng th&#225;i c&#7845;p 2?</text><rect fill="#FFFFFF" height="46.7373" rx="12.5" ry="12.5" style="stroke:#000000;stroke-width:1.0;" width="121" x="234.25" y="986.8705"/><text fill="#000000" font-family="Verdana" font-size="11" lengthAdjust="spacing" textLength="43" x="244.25" y="1007.9296">Hi&#7875;n th&#7883;</text><text fill="#000000" font-family="Verdana" font-size="11" lengthAdjust="spacing" textLength="101" x="244.25" y="1021.2982">&#9203; &#272;ang ch&#7901; x&#7917; l&#253;</text><polygon fill="#FFFFFF" points="400.75,929.5018,464.75,929.5018,476.75,941.5018,464.75,953.5018,400.75,953.5018,388.75,941.5018,400.75,929.5018" style="stroke:#000000;stroke-width:1.0;"/><text fill="#000000" font-family="Verdana" font-size="11" lengthAdjust="spacing" textLength="52" x="436.75" y="964.5609">&#272;&#227; duy&#7879;t</text><text fill="#000000" font-family="Verdana" font-size="11" lengthAdjust="spacing" textLength="64" x="400.75" y="945.8766">Tr&#7841;ng th&#225;i?</text><text fill="#000000" font-family="Verdana" font-size="11" lengthAdjust="spacing" textLength="41" x="476.75" y="939.1923">T&#7915; ch&#7889;i</text><rect fill="#FFFFFF" height="86.8433" rx="12.5" ry="12.5" style="stroke:#000000;stroke-width:1.0;" width="112" x="376.75" y="986.8705"/><text fill="#000000" font-family="Verdana" font-size="11" lengthAdjust="spacing" textLength="43" x="386.75" y="1007.9296">Hi&#7875;n th&#7883;</text><text fill="#000000" font-family="Verdana" font-size="11" lengthAdjust="spacing" textLength="92" x="386.75" y="1021.2982">&#9989; &#272;&#227; ph&#234; duy&#7879;t</text><text fill="#000000" font-family="Verdana" font-size="11" lengthAdjust="spacing" textLength="77" x="386.75" y="1034.6669">- Ng&#432;&#7901;i duy&#7879;t</text><text fill="#000000" font-family="Verdana" font-size="11" lengthAdjust="spacing" textLength="74" x="386.75" y="1048.0355">- Ng&#224;y duy&#7879;t</text><text fill="#000000" font-family="Verdana" font-size="11" lengthAdjust="spacing" textLength="52" x="386.75" y="1061.4042">- Ghi ch&#250;</text><rect fill="#FFFFFF" height="60.106" rx="12.5" ry="12.5" style="stroke:#000000;stroke-width:1.0;" width="102" x="508.75" y="968.844"/><text fill="#000000" font-family="Verdana" font-size="11" lengthAdjust="spacing" textLength="43" x="518.75" y="989.9031">Hi&#7875;n th&#7883;</text><text fill="#000000" font-family="Verdana" font-size="11" lengthAdjust="spacing" textLength="73" x="518.75" y="1003.2717">&#10060; &#272;&#227; t&#7915; ch&#7889;i</text><text fill="#000000" font-family="Verdana" font-size="11" lengthAdjust="spacing" textLength="82" x="518.75" y="1016.6404">- L&#253; do t&#7915; ch&#7889;i</text><ellipse cx="559.75" cy="1074.95" fill="none" rx="11" ry="11" style="stroke:#000000;stroke-width:1.0;"/><ellipse cx="559.75" cy="1074.95" fill="#FFFFFF" rx="6" ry="6" style="stroke:#000000;stroke-width:1.0;"/><rect fill="#FFFFFF" height="46.7373" rx="12.5" ry="12.5" style="stroke:#000000;stroke-width:1.0;" width="164" x="340" y="1125.95"/><text fill="#000000" font-family="Verdana" font-size="11" lengthAdjust="spacing" textLength="144" x="350" y="1147.009">B&#432;&#7899;c 3 - Ph&#234; duy&#7879;t c&#7845;p 3</text><text fill="#000000" font-family="Verdana" font-size="11" lengthAdjust="spacing" textLength="72" x="350" y="1160.3777">v&#224; Gi&#7843;i ng&#226;n</text><polygon fill="#FFFFFF" points="236,1192.6873,335,1192.6873,347,1204.6873,335,1216.6873,236,1216.6873,224,1204.6873,236,1192.6873" style="stroke:#000000;stroke-width:1.0;"/><text fill="#000000" font-family="Verdana" font-size="11" lengthAdjust="spacing" textLength="62" x="289.5" y="1227.7463">Ch&#432;a x&#7917; l&#253;</text><text fill="#000000" font-family="Verdana" font-size="11" lengthAdjust="spacing" textLength="99" x="236" y="1209.062">Tr&#7841;ng th&#225;i c&#7845;p 3?</text><rect fill="#FFFFFF" height="46.7373" rx="12.5" ry="12.5" style="stroke:#000000;stroke-width:1.0;" width="138" x="216.5" y="1250.0559"/><text fill="#000000" font-family="Verdana" font-size="11" lengthAdjust="spacing" textLength="43" x="226.5" y="1271.115">Hi&#7875;n th&#7883;</text><text fill="#000000" font-family="Verdana" font-size="11" lengthAdjust="spacing" textLength="118" x="226.5" y="1284.4836">&#9203; Ch&#7901; K&#7871; to&#225;n x&#7917; l&#253;</text><polygon fill="#FFFFFF" points="401.5,1192.6873,465.5,1192.6873,477.5,1204.6873,465.5,1216.6873,401.5,1216.6873,389.5,1204.6873,401.5,1192.6873" style="stroke:#000000;stroke-width:1.0;"/><text fill="#000000" font-family="Verdana" font-size="11" lengthAdjust="spacing" textLength="72" x="437.5" y="1227.7463">&#272;&#227; gi&#7843;i ng&#226;n</text><text fill="#000000" font-family="Verdana" font-size="11" lengthAdjust="spacing" textLength="64" x="401.5" y="1209.062">Tr&#7841;ng th&#225;i?</text><text fill="#000000" font-family="Verdana" font-size="11" lengthAdjust="spacing" textLength="41" x="477.5" y="1202.3777">T&#7915; ch&#7889;i</text><rect fill="#FFFFFF" height="100.2119" rx="12.5" ry="12.5" style="stroke:#000000;stroke-width:1.0;" width="118" x="374.5" y="1250.0559"/><text fill="#000000" font-family="Verdana" font-size="11" lengthAdjust="spacing" textLength="43" x="384.5" y="1271.115">Hi&#7875;n th&#7883;</text><text fill="#000000" font-family="Verdana" font-size="11" lengthAdjust="spacing" textLength="98" x="384.5" y="1284.4836">&#9989;&#128176; &#272;&#227; gi&#7843;i ng&#226;n</text><text fill="#000000" font-family="Verdana" font-size="11" lengthAdjust="spacing" textLength="77" x="384.5" y="1297.8523">- Ng&#432;&#7901;i duy&#7879;t</text><text fill="#000000" font-family="Verdana" font-size="11" lengthAdjust="spacing" textLength="49" x="384.5" y="1311.2209">- S&#7889; ti&#7873;n</text><text fill="#000000" font-family="Verdana" font-size="11" lengthAdjust="spacing" textLength="79" x="384.5" y="1324.5896">- Ph&#432;&#417;ng th&#7913;c</text><text fill="#000000" font-family="Verdana" font-size="11" lengthAdjust="spacing" textLength="94" x="384.5" y="1337.9583">- Ng&#224;y gi&#7843;i ng&#226;n</text><rect fill="#FFFFFF" height="60.106" rx="12.5" ry="12.5" style="stroke:#000000;stroke-width:1.0;" width="102" x="525.5" y="1237.9246"/><text fill="#000000" font-family="Verdana" font-size="11" lengthAdjust="spacing" textLength="43" x="535.5" y="1258.9836">Hi&#7875;n th&#7883;</text><text fill="#000000" font-family="Verdana" font-size="11" lengthAdjust="spacing" textLength="73" x="535.5" y="1272.3523">&#10060; &#272;&#227; t&#7915; ch&#7889;i</text><text fill="#000000" font-family="Verdana" font-size="11" lengthAdjust="spacing" textLength="82" x="535.5" y="1285.7209">- L&#253; do t&#7915; ch&#7889;i</text><ellipse cx="576.5" cy="1344.0305" fill="none" rx="11" ry="11" style="stroke:#000000;stroke-width:1.0;"/><ellipse cx="576.5" cy="1344.0305" fill="#FFFFFF" rx="6" ry="6" style="stroke:#000000;stroke-width:1.0;"/><rect fill="#FFFFFF" height="46.7373" rx="12.5" ry="12.5" style="stroke:#000000;stroke-width:1.0;" width="149" x="347.5" y="1443.7148"/><text fill="#000000" font-family="Verdana" font-size="11" lengthAdjust="spacing" textLength="129" x="357.5" y="1464.7739">L&#7845;y th&#244;ng tin giao d&#7883;ch</text><text fill="#000000" font-family="Verdana" font-size="11" lengthAdjust="spacing" textLength="102" x="357.5" y="1478.1426">li&#234;n quan &#273;&#7871;n &#273;&#417;n</text><rect fill="#FFFFFF" height="73.4746" rx="12.5" ry="12.5" style="stroke:#000000;stroke-width:1.0;" width="113" x="365.5" y="1514.5835"/><text fill="#000000" font-family="Verdana" font-size="11" lengthAdjust="spacing" textLength="43" x="375.5" y="1535.6426">Hi&#7875;n th&#7883;</text><text fill="#000000" font-family="Verdana" font-size="11" lengthAdjust="spacing" textLength="80" x="375.5" y="1549.0112">- M&#227; giao d&#7883;ch</text><text fill="#000000" font-family="Verdana" font-size="11" lengthAdjust="spacing" textLength="49" x="375.5" y="1562.3799">- S&#7889; ti&#7873;n</text><text fill="#000000" font-family="Verdana" font-size="11" lengthAdjust="spacing" textLength="93" x="375.5" y="1575.7485">- Ng&#224;y giao d&#7883;ch</text><rect fill="#FFFFFF" height="33.3687" rx="12.5" ry="12.5" style="stroke:#000000;stroke-width:1.0;" width="88" x="378" y="1700.7424"/><text fill="#000000" font-family="Verdana" font-size="11" lengthAdjust="spacing" textLength="68" x="388" y="1721.8015">T&#7841;o file PDF</text><rect fill="#FFFFFF" height="73.4746" rx="12.5" ry="12.5" style="stroke:#000000;stroke-width:1.0;" width="141" x="351.5" y="1754.1111"/><text fill="#000000" font-family="Verdana" font-size="11" lengthAdjust="spacing" textLength="51" x="361.5" y="1775.1702">Bao g&#7891;m</text><text fill="#000000" font-family="Verdana" font-size="11" lengthAdjust="spacing" textLength="118" x="361.5" y="1788.5388">- Timeline ph&#234; duy&#7879;t</text><text fill="#000000" font-family="Verdana" font-size="11" lengthAdjust="spacing" textLength="121" x="361.5" y="1801.9075">- Ch&#7919; k&#253; ng&#432;&#7901;i duy&#7879;t</text><text fill="#000000" font-family="Verdana" font-size="11" lengthAdjust="spacing" textLength="57" x="361.5" y="1815.2761">- Con d&#7845;u</text><polygon fill="#FFFFFF" points="393,1652.0581,451,1652.0581,463,1664.0581,451,1676.0581,393,1676.0581,381,1664.0581,393,1652.0581" style="stroke:#000000;stroke-width:1.0;"/><text fill="#000000" font-family="Verdana" font-size="11" lengthAdjust="spacing" textLength="16" x="426" y="1687.1172">C&#243;</text><text fill="#000000" font-family="Verdana" font-size="11" lengthAdjust="spacing" textLength="58" x="393" y="1668.4329">Xu&#7845;t PDF?</text><polygon fill="#FFFFFF" points="422,1900.9543,434,1912.9543,422,1924.9543,410,1912.9543,422,1900.9543" style="stroke:#000000;stroke-width:1.0;"/><line style="stroke:#000000;stroke-width:1.0;" x1="209" x2="209" y1="55.0166" y2="1966.9543"/><line style="stroke:#000000;stroke-width:1.0;" x1="646.5" x2="646.5" y1="55.0166" y2="1966.9543"/><line style="stroke:#000000;stroke-width:1.0;" x1="125" x2="125" y1="101.8926" y2="121.8926"/><polygon fill="#000000" points="121,111.8926,125,121.8926,129,111.8926,125,115.8926" style="stroke:#000000;stroke-width:1.0;"/><line style="stroke:#000000;stroke-width:1.0;" x1="69.5" x2="42" y1="1407.0305" y2="1407.0305"/><polygon fill="#000000" points="38,1500.4521,42,1510.4521,46,1500.4521,42,1504.4521" style="stroke:#000000;stroke-width:1.0;"/><line style="stroke:#000000;stroke-width:1.0;" x1="42" x2="42" y1="1407.0305" y2="1620.0581"/><line style="stroke:#000000;stroke-width:1.0;" x1="42" x2="113" y1="1620.0581" y2="1620.0581"/><polygon fill="#000000" points="103,1616.0581,113,1620.0581,103,1624.0581,107,1620.0581" style="stroke:#000000;stroke-width:1.0;"/><line style="stroke:#000000;stroke-width:1.0;" x1="375" x2="353.25" y1="240.6299" y2="240.6299"/><line style="stroke:#000000;stroke-width:1.0;" x1="353.25" x2="353.25" y1="240.6299" y2="262.6299"/><polygon fill="#000000" points="349.25,252.6299,353.25,262.6299,357.25,252.6299,353.25,256.6299" style="stroke:#000000;stroke-width:1.0;"/><line style="stroke:#000000;stroke-width:1.0;" x1="469" x2="490.75" y1="240.6299" y2="240.6299"/><line style="stroke:#000000;stroke-width:1.0;" x1="490.75" x2="490.75" y1="240.6299" y2="262.6299"/><polygon fill="#000000" points="486.75,252.6299,490.75,262.6299,494.75,252.6299,490.75,256.6299" style="stroke:#000000;stroke-width:1.0;"/><line style="stroke:#000000;stroke-width:1.0;" x1="353.25" x2="353.25" y1="309.3672" y2="327.3672"/><line style="stroke:#000000;stroke-width:1.0;" x1="353.25" x2="410" y1="327.3672" y2="327.3672"/><polygon fill="#000000" points="400,323.3672,410,327.3672,400,331.3672,404,327.3672" style="stroke:#000000;stroke-width:1.0;"/><line style="stroke:#000000;stroke-width:1.0;" x1="490.75" x2="490.75" y1="309.3672" y2="327.3672"/><line style="stroke:#000000;stroke-width:1.0;" x1="490.75" x2="434" y1="327.3672" y2="327.3672"/><polygon fill="#000000" points="444,323.3672,434,327.3672,444,331.3672,440,327.3672" style="stroke:#000000;stroke-width:1.0;"/><line style="stroke:#000000;stroke-width:1.0;" x1="422" x2="422" y1="208.6299" y2="228.6299"/><polygon fill="#000000" points="418,218.6299,422,228.6299,426,218.6299,422,222.6299" style="stroke:#000000;stroke-width:1.0;"/><line style="stroke:#000000;stroke-width:1.0;" x1="422" x2="422" y1="339.3672" y2="359.3672"/><polygon fill="#000000" points="418,349.3672,422,359.3672,426,349.3672,422,353.3672" style="stroke:#000000;stroke-width:1.0;"/><line style="stroke:#000000;stroke-width:1.0;" x1="422" x2="422" y1="392.7358" y2="412.7358"/><polygon fill="#000000" points="418,402.7358,422,412.7358,426,402.7358,422,406.7358" style="stroke:#000000;stroke-width:1.0;"/><line style="stroke:#000000;stroke-width:1.0;" x1="422" x2="422" y1="459.4731" y2="479.4731"/><polygon fill="#000000" points="418,469.4731,422,479.4731,426,469.4731,422,473.4731" style="stroke:#000000;stroke-width:1.0;"/><line style="stroke:#000000;stroke-width:1.0;" x1="574" x2="574" y1="779.1332" y2="814.1332"/><polygon fill="#000000" points="570,804.1332,574,814.1332,578,804.1332,574,808.1332" style="stroke:#000000;stroke-width:1.0;"/><line style="stroke:#000000;stroke-width:1.0;" x1="294.5" x2="294.5" y1="676.9478" y2="710.3164"/><polygon fill="#000000" points="290.5,700.3164,294.5,710.3164,298.5,700.3164,294.5,704.3164" style="stroke:#000000;stroke-width:1.0;"/><line style="stroke:#000000;stroke-width:1.0;" x1="294.5" x2="294.5" y1="770.4224" y2="856.1332"/><polygon fill="#000000" points="290.5,846.1332,294.5,856.1332,298.5,846.1332,294.5,850.1332" style="stroke:#000000;stroke-width:1.0;"/><line style="stroke:#000000;stroke-width:1.0;" x1="446.5" x2="446.5" y1="676.9478" y2="710.3164"/><polygon fill="#000000" points="442.5,700.3164,446.5,710.3164,450.5,700.3164,446.5,704.3164" style="stroke:#000000;stroke-width:1.0;"/><line style="stroke:#000000;stroke-width:1.0;" x1="446.5" x2="446.5" y1="797.1597" y2="856.1332"/><polygon fill="#000000" points="442.5,846.1332,446.5,856.1332,450.5,846.1332,446.5,850.1332" style="stroke:#000000;stroke-width:1.0;"/><line style="stroke:#000000;stroke-width:1.0;" x1="356" x2="402.5" y1="664.9478" y2="664.9478"/><polygon fill="#000000" points="392.5,660.9478,402.5,664.9478,392.5,668.9478,396.5,664.9478" style="stroke:#000000;stroke-width:1.0;"/><line style="stroke:#000000;stroke-width:1.0;" x1="422" x2="422" y1="632.9478" y2="637.9478"/><line style="stroke:#000000;stroke-width:1.0;" x1="422" x2="294.5" y1="637.9478" y2="637.9478"/><line style="stroke:#000000;stroke-width:1.0;" x1="294.5" x2="294.5" y1="637.9478" y2="652.9478"/><polygon fill="#000000" points="290.5,642.9478,294.5,652.9478,298.5,642.9478,294.5,646.9478" style="stroke:#000000;stroke-width:1.0;"/><line style="stroke:#000000;stroke-width:1.0;" x1="490.5" x2="574" y1="664.9478" y2="664.9478"/><line style="stroke:#000000;stroke-width:1.0;" x1="574" x2="574" y1="664.9478" y2="692.2899"/><polygon fill="#000000" points="570,682.2899,574,692.2899,578,682.2899,574,686.2899" style="stroke:#000000;stroke-width:1.0;"/><line style="stroke:#000000;stroke-width:1.0;" x1="294.5" x2="446.5" y1="856.1332" y2="856.1332"/><line style="stroke:#000000;stroke-width:1.0;" x1="422" x2="422" y1="856.1332" y2="876.1332"/><polygon fill="#000000" points="418,866.1332,422,876.1332,426,866.1332,422,870.1332" style="stroke:#000000;stroke-width:1.0;"/><line style="stroke:#000000;stroke-width:1.0;" x1="559.75" x2="559.75" y1="1028.95" y2="1063.95"/><polygon fill="#000000" points="555.75,1053.95,559.75,1063.95,563.75,1053.95,559.75,1057.95" style="stroke:#000000;stroke-width:1.0;"/><line style="stroke:#000000;stroke-width:1.0;" x1="294.75" x2="294.75" y1="953.5018" y2="986.8705"/><polygon fill="#000000" points="290.75,976.8705,294.75,986.8705,298.75,976.8705,294.75,980.8705" style="stroke:#000000;stroke-width:1.0;"/><line style="stroke:#000000;stroke-width:1.0;" x1="294.75" x2="294.75" y1="1033.6078" y2="1105.95"/><polygon fill="#000000" points="290.75,1095.95,294.75,1105.95,298.75,1095.95,294.75,1099.95" style="stroke:#000000;stroke-width:1.0;"/><line style="stroke:#000000;stroke-width:1.0;" x1="432.75" x2="432.75" y1="953.5018" y2="986.8705"/><polygon fill="#000000" points="428.75,976.8705,432.75,986.8705,436.75,976.8705,432.75,980.8705" style="stroke:#000000;stroke-width:1.0;"/><line style="stroke:#000000;stroke-width:1.0;" x1="432.75" x2="432.75" y1="1073.7137" y2="1105.95"/><polygon fill="#000000" points="428.75,1095.95,432.75,1105.95,436.75,1095.95,432.75,1099.95" style="stroke:#000000;stroke-width:1.0;"/><line style="stroke:#000000;stroke-width:1.0;" x1="356.25" x2="388.75" y1="941.5018" y2="941.5018"/><polygon fill="#000000" points="378.75,937.5018,388.75,941.5018,378.75,945.5018,382.75,941.5018" style="stroke:#000000;stroke-width:1.0;"/><line style="stroke:#000000;stroke-width:1.0;" x1="422" x2="422" y1="909.5018" y2="914.5018"/><line style="stroke:#000000;stroke-width:1.0;" x1="422" x2="294.75" y1="914.5018" y2="914.5018"/><line style="stroke:#000000;stroke-width:1.0;" x1="294.75" x2="294.75" y1="914.5018" y2="929.5018"/><polygon fill="#000000" points="290.75,919.5018,294.75,929.5018,298.75,919.5018,294.75,923.5018" style="stroke:#000000;stroke-width:1.0;"/><line style="stroke:#000000;stroke-width:1.0;" x1="476.75" x2="559.75" y1="941.5018" y2="941.5018"/><line style="stroke:#000000;stroke-width:1.0;" x1="559.75" x2="559.75" y1="941.5018" y2="968.844"/><polygon fill="#000000" points="555.75,958.844,559.75,968.844,563.75,958.844,559.75,962.844" style="stroke:#000000;stroke-width:1.0;"/><line style="stroke:#000000;stroke-width:1.0;" x1="294.75" x2="432.75" y1="1105.95" y2="1105.95"/><line style="stroke:#000000;stroke-width:1.0;" x1="422" x2="422" y1="1105.95" y2="1125.95"/><polygon fill="#000000" points="418,1115.95,422,1125.95,426,1115.95,422,1119.95" style="stroke:#000000;stroke-width:1.0;"/><line style="stroke:#000000;stroke-width:1.0;" x1="576.5" x2="576.5" y1="1298.0305" y2="1333.0305"/><polygon fill="#000000" points="572.5,1323.0305,576.5,1333.0305,580.5,1323.0305,576.5,1327.0305" style="stroke:#000000;stroke-width:1.0;"/><line style="stroke:#000000;stroke-width:1.0;" x1="285.5" x2="285.5" y1="1216.6873" y2="1250.0559"/><polygon fill="#000000" points="281.5,1240.0559,285.5,1250.0559,289.5,1240.0559,285.5,1244.0559" style="stroke:#000000;stroke-width:1.0;"/><line style="stroke:#000000;stroke-width:1.0;" x1="285.5" x2="285.5" y1="1296.7932" y2="1375.0305"/><polygon fill="#000000" points="281.5,1365.0305,285.5,1375.0305,289.5,1365.0305,285.5,1369.0305" style="stroke:#000000;stroke-width:1.0;"/><line style="stroke:#000000;stroke-width:1.0;" x1="433.5" x2="433.5" y1="1216.6873" y2="1250.0559"/><polygon fill="#000000" points="429.5,1240.0559,433.5,1250.0559,437.5,1240.0559,433.5,1244.0559" style="stroke:#000000;stroke-width:1.0;"/><line style="stroke:#000000;stroke-width:1.0;" x1="433.5" x2="433.5" y1="1350.2678" y2="1375.0305"/><polygon fill="#000000" points="429.5,1365.0305,433.5,1375.0305,437.5,1365.0305,433.5,1369.0305" style="stroke:#000000;stroke-width:1.0;"/><line style="stroke:#000000;stroke-width:1.0;" x1="347" x2="389.5" y1="1204.6873" y2="1204.6873"/><polygon fill="#000000" points="379.5,1200.6873,389.5,1204.6873,379.5,1208.6873,383.5,1204.6873" style="stroke:#000000;stroke-width:1.0;"/><line style="stroke:#000000;stroke-width:1.0;" x1="422" x2="422" y1="1172.6873" y2="1177.6873"/><line style="stroke:#000000;stroke-width:1.0;" x1="422" x2="285.5" y1="1177.6873" y2="1177.6873"/><line style="stroke:#000000;stroke-width:1.0;" x1="285.5" x2="285.5" y1="1177.6873" y2="1192.6873"/><polygon fill="#000000" points="281.5,1182.6873,285.5,1192.6873,289.5,1182.6873,285.5,1186.6873" style="stroke:#000000;stroke-width:1.0;"/><line style="stroke:#000000;stroke-width:1.0;" x1="477.5" x2="576.5" y1="1204.6873" y2="1204.6873"/><line style="stroke:#000000;stroke-width:1.0;" x1="576.5" x2="576.5" y1="1204.6873" y2="1237.9246"/><polygon fill="#000000" points="572.5,1227.9246,576.5,1237.9246,580.5,1227.9246,576.5,1231.9246" style="stroke:#000000;stroke-width:1.0;"/><line style="stroke:#000000;stroke-width:1.0;" x1="285.5" x2="433.5" y1="1375.0305" y2="1375.0305"/><line style="stroke:#000000;stroke-width:1.0;" x1="422" x2="422" y1="1490.4521" y2="1514.5835"/><polygon fill="#000000" points="418,1504.5835,422,1514.5835,426,1504.5835,422,1508.5835" style="stroke:#000000;stroke-width:1.0;"/><line style="stroke:#000000;stroke-width:1.0;" x1="422" x2="422" y1="1734.1111" y2="1754.1111"/><polygon fill="#000000" points="418,1744.1111,422,1754.1111,426,1744.1111,422,1748.1111" style="stroke:#000000;stroke-width:1.0;"/><line style="stroke:#000000;stroke-width:1.0;" x1="422" x2="422" y1="1676.0581" y2="1700.7424"/><polygon fill="#000000" points="418,1690.7424,422,1700.7424,426,1690.7424,422,1694.7424" style="stroke:#000000;stroke-width:1.0;"/><line style="stroke:#000000;stroke-width:1.0;" x1="463" x2="502.5" y1="1664.0581" y2="1664.0581"/><polygon fill="#000000" points="498.5,1780.8484,502.5,1790.8484,506.5,1780.8484,502.5,1784.8484" style="stroke:#000000;stroke-width:1.0;"/><line style="stroke:#000000;stroke-width:1.0;" x1="502.5" x2="502.5" y1="1664.0581" y2="1912.9543"/><line style="stroke:#000000;stroke-width:1.0;" x1="502.5" x2="434" y1="1912.9543" y2="1912.9543"/><polygon fill="#000000" points="444,1908.9543,434,1912.9543,444,1916.9543,440,1912.9543" style="stroke:#000000;stroke-width:1.0;"/><line style="stroke:#000000;stroke-width:1.0;" x1="125" x2="125" y1="155.2612" y2="160.2612"/><line style="stroke:#000000;stroke-width:1.0;" x1="125" x2="422" y1="160.2612" y2="160.2612"/><line style="stroke:#000000;stroke-width:1.0;" x1="422" x2="422" y1="160.2612" y2="175.2612"/><polygon fill="#000000" points="418,165.2612,422,175.2612,426,165.2612,422,169.2612" style="stroke:#000000;stroke-width:1.0;"/><line style="stroke:#000000;stroke-width:1.0;" x1="422" x2="422" y1="526.2104" y2="531.2104"/><line style="stroke:#000000;stroke-width:1.0;" x1="422" x2="125" y1="531.2104" y2="531.2104"/><line style="stroke:#000000;stroke-width:1.0;" x1="125" x2="125" y1="531.2104" y2="546.2104"/><polygon fill="#000000" points="121,536.2104,125,546.2104,129,536.2104,125,540.2104" style="stroke:#000000;stroke-width:1.0;"/><line style="stroke:#000000;stroke-width:1.0;" x1="125" x2="125" y1="579.5791" y2="584.5791"/><line style="stroke:#000000;stroke-width:1.0;" x1="125" x2="422" y1="584.5791" y2="584.5791"/><line style="stroke:#000000;stroke-width:1.0;" x1="422" x2="422" y1="584.5791" y2="599.5791"/><polygon fill="#000000" points="418,589.5791,422,599.5791,426,589.5791,422,593.5791" style="stroke:#000000;stroke-width:1.0;"/><line style="stroke:#000000;stroke-width:1.0;" x1="125" x2="125" y1="1419.0305" y2="1431.3727"/><line style="stroke:#000000;stroke-width:1.0;" x1="125" x2="422" y1="1431.3727" y2="1431.3727"/><line style="stroke:#000000;stroke-width:1.0;" x1="422" x2="422" y1="1431.3727" y2="1443.7148"/><polygon fill="#000000" points="418,1433.7148,422,1443.7148,426,1433.7148,422,1437.7148" style="stroke:#000000;stroke-width:1.0;"/><line style="stroke:#000000;stroke-width:1.0;" x1="422" x2="422" y1="1588.0581" y2="1595.7159"/><line style="stroke:#000000;stroke-width:1.0;" x1="422" x2="125" y1="1595.7159" y2="1595.7159"/><line style="stroke:#000000;stroke-width:1.0;" x1="125" x2="125" y1="1595.7159" y2="1608.0581"/><polygon fill="#000000" points="121,1598.0581,125,1608.0581,129,1598.0581,125,1602.0581" style="stroke:#000000;stroke-width:1.0;"/><line style="stroke:#000000;stroke-width:1.0;" x1="422" x2="422" y1="1375.0305" y2="1380.0305"/><line style="stroke:#000000;stroke-width:1.0;" x1="422" x2="125" y1="1380.0305" y2="1380.0305"/><line style="stroke:#000000;stroke-width:1.0;" x1="125" x2="125" y1="1380.0305" y2="1395.0305"/><polygon fill="#000000" points="121,1385.0305,125,1395.0305,129,1385.0305,125,1389.0305" style="stroke:#000000;stroke-width:1.0;"/><line style="stroke:#000000;stroke-width:1.0;" x1="422" x2="422" y1="1827.5857" y2="1832.5857"/><line style="stroke:#000000;stroke-width:1.0;" x1="422" x2="125" y1="1832.5857" y2="1832.5857"/><line style="stroke:#000000;stroke-width:1.0;" x1="125" x2="125" y1="1832.5857" y2="1847.5857"/><polygon fill="#000000" points="121,1837.5857,125,1847.5857,129,1837.5857,125,1841.5857" style="stroke:#000000;stroke-width:1.0;"/><line style="stroke:#000000;stroke-width:1.0;" x1="125" x2="125" y1="1880.9543" y2="1888.6122"/><line style="stroke:#000000;stroke-width:1.0;" x1="125" x2="422" y1="1888.6122" y2="1888.6122"/><line style="stroke:#000000;stroke-width:1.0;" x1="422" x2="422" y1="1888.6122" y2="1900.9543"/><polygon fill="#000000" points="418,1890.9543,422,1900.9543,426,1890.9543,422,1894.9543" style="stroke:#000000;stroke-width:1.0;"/><line style="stroke:#000000;stroke-width:1.0;" x1="125" x2="125" y1="1632.0581" y2="1637.0581"/><line style="stroke:#000000;stroke-width:1.0;" x1="125" x2="422" y1="1637.0581" y2="1637.0581"/><line style="stroke:#000000;stroke-width:1.0;" x1="422" x2="422" y1="1637.0581" y2="1652.0581"/><polygon fill="#000000" points="418,1642.0581,422,1652.0581,426,1642.0581,422,1646.0581" style="stroke:#000000;stroke-width:1.0;"/><line style="stroke:#000000;stroke-width:1.0;" x1="422" x2="422" y1="1924.9543" y2="1929.9543"/><line style="stroke:#000000;stroke-width:1.0;" x1="422" x2="125" y1="1929.9543" y2="1929.9543"/><line style="stroke:#000000;stroke-width:1.0;" x1="125" x2="125" y1="1929.9543" y2="1944.9543"/><polygon fill="#000000" points="121,1934.9543,125,1944.9543,129,1934.9543,125,1938.9543" style="stroke:#000000;stroke-width:1.0;"/><text fill="#000000" font-family="Verdana" font-size="18" lengthAdjust="spacing" textLength="101" x="60" y="73.1133">Ng&#432;&#7901;i d&#249;ng</text><text fill="#000000" font-family="Verdana" font-size="18" lengthAdjust="spacing" textLength="82" x="379.25" y="73.1133">H&#7879; th&#7889;ng</text><rect fill="none" height="95.0732" id="_legend" rx="7.5" ry="7.5" style="stroke:#000000;stroke-width:1.0;" width="344" x="301.5" y="1971.9543"/><text fill="#000000" font-family="Verdana" font-size="14" font-weight="bold" lengthAdjust="spacing" textLength="56" x="306.5" y="1991.0295">Quy&#7873;n:</text><text fill="#000000" font-family="Verdana" font-size="14" lengthAdjust="spacing" textLength="5" x="362.5" y="1991.0295">&#160;</text><text fill="#000000" font-family="Verdana" font-size="14" lengthAdjust="spacing" textLength="219" x="306.5" y="2008.0442">- Sinh vi&#234;n = Ch&#7881; &#273;&#417;n c&#7911;a m&#236;nh</text><text fill="#000000" font-family="Verdana" font-size="14" lengthAdjust="spacing" textLength="233" x="306.5" y="2025.0588">- C&#225;n b&#7897;/KT/Admin = T&#7845;t c&#7843; &#273;&#417;n</text><text fill="#000000" font-family="Verdana" font-size="14" font-weight="bold" lengthAdjust="spacing" textLength="35" x="306.5" y="2042.0735">API:</text><text fill="#000000" font-family="Verdana" font-size="14" lengthAdjust="spacing" textLength="294" x="346.5" y="2042.0735">GET /api/applications/:id/approval-history</text><text fill="#000000" font-family="Verdana" font-size="14" font-weight="bold" lengthAdjust="spacing" textLength="42" x="306.5" y="2059.0881">Icon:</text><text fill="#000000" font-family="Verdana" font-size="14" lengthAdjust="spacing" textLength="199" x="353.5" y="2059.0881">&#9203; Ch&#7901;, &#9989; Duy&#7879;t, &#10060; T&#7915; ch&#7889;i</text><!--SRC=[tLNDJXDH5DxVfpY63JOIR1itROo1be81JGrLSJdC33CtpDofqmjQmyOODVuaWgwC4a52Z8gH13TsObnSmdjSdy17yDmxp32bBT74k926HU_v-yxtdPvpYhksRqFJCoWZhKNAcaPe-31lc8jE62mngn9uGGX3DVsNyJ1CJfSfRzS2ncVf7Hlo-OorTOlwdi7iwzJYBXJEdIM4K-xPaCkDLVE54inDN88P6JskJC6iZ7QWFYKUG_Ng3HazQEHoXAmCJHHhXLfrvR9pi2kZTGgM-CgS5TBYHiX9wPhO2E2sxOFfKk1KThvps5yxs6Hb5LixfpuhKp9w2DoLqPgAB4rJ6TtpWOS6t5ngo-WkKnamW2x0S7UT2wSnpcOmF4kP2yjKV62d2K2fWiaUOSq0cgvutrJn-AmBWocZTmRQn2SCySKESyl4zbes35S4ckTbz79qkZ4wPlaqITQTXilEDiSqdQsa5PjPT86GqWnQseX8V64ETiiI-w71az4JquMMZ3wfX1_0KkqzvAIeicqtqN5AzSuq6K-WGNtReymcZenU-524UTNxAxDy0k-bEIGx2Jo1vF4u5UHX1EePB34Io9SrsurGTZPLBwxOf8af9RtY7kmQS5kruublcgiiVlp-uzaUxAyQcC74b_NK5qr7m0yBduSudodsocZNclHWI6llhugj9BHlvTVtGVjq4GtOxV72XuzYeztrCea3YqFIIR4W4Xbzr8siqRubrv_69VcHNtV5NeEgUlnrHdm3Ar1rMpnefiELA5RehrXXi6A5lw3OVoP9p77sUI3VnVvy5ycos819N6bR59WZthB10XJ_K82AfduQjoNmG2sbFrN1oS0Q8CNFDyzteSTvi1ou_jVK1iTrhB_NiPE3kBoCtfiPoPmkJlw1L0ENeM99xKE76W5OUliUAI7s58m1-n7nzIppJ1QqU-hOu84or9P7fT9btzlQ25pID6V3UmbDo4kzqhkYsrZILwTUhVr-1msSZm0MADvpZDF8nZ6xlYQwP78dUd-HQW8_mo9Ip_eDGoLW2BAplQJrLHW6A12Zm6auGd7Ob1QGUBQ3to6aZij9BdSbllUbN0u8CfGUTNqSr4dFdd1zkz6jzsoZU-FOaSRaO_MBAl7aH0D6ZIR5_wP7JOFJWBL6IzHI3s6mR7WZBaLqOHjZBfg1HfF-Ai_eDLQDkJYZfpOpsAgvk2No2m00]--></g></svg>