<?xml version="1.0" encoding="us-ascii" standalone="no"?><svg xmlns="http://www.w3.org/2000/svg" xmlns:xlink="http://www.w3.org/1999/xlink" contentStyleType="text/css" height="1569px" preserveAspectRatio="none" style="width:388px;height:1569px;background:#FFFFFF;" version="1.1" viewBox="0 0 388 1569" width="388px" zoomAndPan="magnify"><defs/><g><text fill="#000000" font-family="Verdana" font-size="22" font-weight="bold" lengthAdjust="spacing" textLength="346" x="19.5" y="37.1182">AD07: T&#7840;O KHO&#7842;N T&#192;I TR&#7906;</text><rect fill="#FFFFFF" height="21.876" style="stroke:#FFFFFF;stroke-width:1.0;" width="369" x="6" y="55.0166"/><rect fill="#C8E6C9" height="1418.1475" style="stroke:#C8E6C9;stroke-width:1.0;" width="176" x="23" y="55.0166"/><ellipse cx="103.5" cy="91.8926" fill="#FFFFFF" rx="10" ry="10" style="stroke:#000000;stroke-width:1.0;"/><rect fill="#FFFFFF" height="33.3687" rx="12.5" ry="12.5" style="stroke:#000000;stroke-width:1.0;" width="149" x="29" y="121.8926"/><text fill="#000000" font-family="Verdana" font-size="11" lengthAdjust="spacing" textLength="129" x="39" y="142.9517">V&#224;o trang "T&#7841;o t&#224;i tr&#7907;"</text><rect fill="#FFFFFF" height="46.7373" rx="12.5" ry="12.5" style="stroke:#000000;stroke-width:1.0;" width="133" x="37" y="175.2612"/><text fill="#000000" font-family="Verdana" font-size="11" lengthAdjust="spacing" textLength="113" x="47" y="196.3203">Xem danh s&#225;ch qu&#7929;</text><text fill="#000000" font-family="Verdana" font-size="11" lengthAdjust="spacing" textLength="89" x="47" y="209.689">&#273;ang ho&#7841;t &#273;&#7897;ng</text><rect fill="#FFFFFF" height="33.3687" rx="12.5" ry="12.5" style="stroke:#000000;stroke-width:1.0;" width="149" x="29" y="388.8418"/><text fill="#000000" font-family="Verdana" font-size="11" lengthAdjust="spacing" textLength="129" x="39" y="409.9009">Ch&#7885;n qu&#7929; mu&#7889;n t&#224;i tr&#7907;</text><rect fill="#FFFFFF" height="73.4746" rx="12.5" ry="12.5" style="stroke:#000000;stroke-width:1.0;" width="140" x="33.5" y="442.2104"/><text fill="#000000" font-family="Verdana" font-size="11" lengthAdjust="spacing" textLength="118" x="43.5" y="463.2695">&#272;i&#7873;n th&#244;ng tin t&#224;i tr&#7907;</text><text fill="#000000" font-family="Verdana" font-size="11" lengthAdjust="spacing" textLength="49" x="43.5" y="476.6382">- S&#7889; ti&#7873;n</text><text fill="#000000" font-family="Verdana" font-size="11" lengthAdjust="spacing" textLength="120" x="43.5" y="490.0068">- L&#7901;i nh&#7855;n (t&#249;y ch&#7885;n)</text><text fill="#000000" font-family="Verdana" font-size="11" lengthAdjust="spacing" textLength="101" x="43.5" y="503.3755">- Upload ch&#7913;ng t&#7915;</text><rect fill="#FFFFFF" height="33.3687" rx="12.5" ry="12.5" style="stroke:#000000;stroke-width:1.0;" width="122" x="42.5" y="535.6851"/><text fill="#000000" font-family="Verdana" font-size="11" lengthAdjust="spacing" textLength="102" x="52.5" y="556.7441">Nh&#7845;n "T&#7841;o t&#224;i tr&#7907;"</text><rect fill="#FFFFFF" height="46.7373" rx="12.5" ry="12.5" style="stroke:#000000;stroke-width:1.0;" width="123" x="42" y="1170.8462"/><text fill="#000000" font-family="Verdana" font-size="11" lengthAdjust="spacing" textLength="90" x="52" y="1191.9053">Nh&#7853;n th&#244;ng b&#225;o</text><text fill="#000000" font-family="Verdana" font-size="11" lengthAdjust="spacing" textLength="103" x="52" y="1205.2739">&#273;&#227; t&#7841;o th&#224;nh c&#244;ng</text><rect fill="#FFFFFF" height="46.7373" rx="12.5" ry="12.5" style="stroke:#000000;stroke-width:1.0;" width="123" x="42" y="1237.5835"/><text fill="#000000" font-family="Verdana" font-size="11" lengthAdjust="spacing" textLength="103" x="52" y="1258.6426">Hi&#7875;n th&#7883; m&#227; t&#224;i tr&#7907;</text><text fill="#000000" font-family="Verdana" font-size="11" lengthAdjust="spacing" textLength="73" x="52" y="1272.0112">v&#224; tr&#7841;ng th&#225;i</text><rect fill="#FFFFFF" height="60.106" rx="12.5" ry="12.5" style="stroke:#000000;stroke-width:1.0;" width="137" x="35" y="1304.3208"/><text fill="#000000" font-family="Verdana" font-size="11" lengthAdjust="spacing" textLength="60" x="45" y="1325.3799">Th&#244;ng b&#225;o</text><text fill="#000000" font-family="Verdana" font-size="11" lengthAdjust="spacing" textLength="117" x="45" y="1338.7485">K&#7871; to&#225;n s&#7869; x&#225;c nh&#7853;n</text><text fill="#000000" font-family="Verdana" font-size="11" lengthAdjust="spacing" textLength="74" x="45" y="1352.1172">trong 24-48h</text><rect fill="#FFFFFF" height="46.7373" rx="12.5" ry="12.5" style="stroke:#000000;stroke-width:1.0;" width="107" x="50" y="1384.4268"/><text fill="#000000" font-family="Verdana" font-size="11" lengthAdjust="spacing" textLength="69" x="60" y="1405.4858">Chuy&#7875;n &#273;&#7871;n</text><text fill="#000000" font-family="Verdana" font-size="11" lengthAdjust="spacing" textLength="87" x="60" y="1418.8545">"L&#7883;ch s&#7917; t&#224;i tr&#7907;"</text><ellipse cx="103.5" cy="1462.1641" fill="none" rx="11" ry="11" style="stroke:#000000;stroke-width:1.0;"/><ellipse cx="103.5" cy="1462.1641" fill="#FFFFFF" rx="6" ry="6" style="stroke:#000000;stroke-width:1.0;"/><line style="stroke:#000000;stroke-width:1.0;" x1="23" x2="23" y1="55.0166" y2="1473.1641"/><rect fill="#F5F5F5" height="1418.1475" style="stroke:#F5F5F5;stroke-width:1.0;" width="168" x="193" y="55.0166"/><rect fill="#FFFFFF" height="46.7373" rx="12.5" ry="12.5" style="stroke:#000000;stroke-width:1.0;" width="127" x="203.5" y="241.9985"/><text fill="#000000" font-family="Verdana" font-size="11" lengthAdjust="spacing" textLength="107" x="213.5" y="263.0576">L&#7845;y danh s&#225;ch qu&#7929;</text><text fill="#000000" font-family="Verdana" font-size="11" lengthAdjust="spacing" textLength="55" x="213.5" y="276.4263">c&#244;ng khai</text><rect fill="#FFFFFF" height="60.106" rx="12.5" ry="12.5" style="stroke:#000000;stroke-width:1.0;" width="117" x="208.5" y="308.7358"/><text fill="#000000" font-family="Verdana" font-size="11" lengthAdjust="spacing" textLength="97" x="218.5" y="329.7949">Hi&#7875;n th&#7883; th&#244;ng tin</text><text fill="#000000" font-family="Verdana" font-size="11" lengthAdjust="spacing" textLength="85" x="218.5" y="343.1636">T&#234;n qu&#7929;, M&#244; t&#7843;</text><text fill="#000000" font-family="Verdana" font-size="11" lengthAdjust="spacing" textLength="79" x="218.5" y="356.5322">S&#7889; d&#432; hi&#7879;n t&#7841;i</text><rect fill="#FFFFFF" height="33.3687" rx="12.5" ry="12.5" style="stroke:#000000;stroke-width:1.0;" width="123" x="205.5" y="589.0537"/><text fill="#000000" font-family="Verdana" font-size="11" lengthAdjust="spacing" textLength="103" x="215.5" y="610.1128">Ki&#7875;m tra th&#244;ng tin</text><rect fill="#FFFFFF" height="60.106" rx="12.5" ry="12.5" style="stroke:#000000;stroke-width:1.0;" width="136" x="199" y="691.1067"/><text fill="#000000" font-family="Verdana" font-size="11" lengthAdjust="spacing" textLength="60" x="209" y="712.1658">Hi&#7875;n th&#7883; l&#7895;i</text><text fill="#000000" font-family="Verdana" font-size="11" lengthAdjust="spacing" textLength="116" x="209" y="725.5344">Thi&#7871;u th&#244;ng tin ho&#7863;c</text><text fill="#000000" font-family="Verdana" font-size="11" lengthAdjust="spacing" textLength="95" x="209" y="738.9031">file kh&#244;ng h&#7907;p l&#7879;</text><ellipse cx="267" cy="782.2126" fill="none" rx="11" ry="11" style="stroke:#000000;stroke-width:1.0;"/><ellipse cx="267" cy="782.2126" fill="#FFFFFF" rx="6" ry="6" style="stroke:#000000;stroke-width:1.0;"/><polygon fill="#FFFFFF" points="224.5,642.4224,309.5,642.4224,321.5,654.4224,309.5,666.4224,224.5,666.4224,212.5,654.4224,224.5,642.4224" style="stroke:#000000;stroke-width:1.0;"/><text fill="#000000" font-family="Verdana" font-size="11" lengthAdjust="spacing" textLength="36" x="271" y="677.4814">Kh&#244;ng</text><text fill="#000000" font-family="Verdana" font-size="11" lengthAdjust="spacing" textLength="85" x="224.5" y="658.7971">D&#7919; li&#7879;u h&#7907;p l&#7879;?</text><rect fill="#FFFFFF" height="46.7373" rx="12.5" ry="12.5" style="stroke:#000000;stroke-width:1.0;" width="123" x="205.5" y="886.6343"/><text fill="#000000" font-family="Verdana" font-size="11" lengthAdjust="spacing" textLength="103" x="215.5" y="907.6934">T&#7921; &#273;&#7897;ng t&#7841;o h&#7891; s&#417;</text><text fill="#000000" font-family="Verdana" font-size="11" lengthAdjust="spacing" textLength="59" x="215.5" y="921.062">nh&#224; t&#224;i tr&#7907;</text><polygon fill="#FFFFFF" points="231,835.2126,303,835.2126,315,848.5813,303,861.95,231,861.95,219,848.5813,231,835.2126" style="stroke:#000000;stroke-width:1.0;"/><text fill="#000000" font-family="Verdana" font-size="11" lengthAdjust="spacing" textLength="30" x="271" y="873.009">Ch&#432;a</text><text fill="#000000" font-family="Verdana" font-size="11" lengthAdjust="spacing" textLength="68" x="231" y="846.2717">&#272;&#227; c&#243; h&#7891; s&#417;</text><text fill="#000000" font-family="Verdana" font-size="11" lengthAdjust="spacing" textLength="65" x="231" y="859.6404">nh&#224; t&#224;i tr&#7907;?</text><polygon fill="#FFFFFF" points="267,953.3716,279,965.3716,267,977.3716,255,965.3716,267,953.3716" style="stroke:#000000;stroke-width:1.0;"/><rect fill="#FFFFFF" height="33.3687" rx="12.5" ry="12.5" style="stroke:#000000;stroke-width:1.0;" width="117" x="208.5" y="997.3716"/><text fill="#000000" font-family="Verdana" font-size="11" lengthAdjust="spacing" textLength="97" x="218.5" y="1018.4307">L&#432;u kho&#7843;n t&#224;i tr&#7907;</text><rect fill="#FFFFFF" height="46.7373" rx="12.5" ry="12.5" style="stroke:#000000;stroke-width:1.0;" width="109" x="212.5" y="1050.7402"/><text fill="#000000" font-family="Verdana" font-size="11" lengthAdjust="spacing" textLength="79" x="222.5" y="1071.7993">&#272;&#7863;t tr&#7841;ng th&#225;i</text><text fill="#000000" font-family="Verdana" font-size="11" lengthAdjust="spacing" textLength="89" x="222.5" y="1085.168">"Ch&#7901; x&#225;c nh&#7853;n"</text><rect fill="#FFFFFF" height="33.3687" rx="12.5" ry="12.5" style="stroke:#000000;stroke-width:1.0;" width="114" x="210" y="1117.4775"/><text fill="#000000" font-family="Verdana" font-size="11" lengthAdjust="spacing" textLength="94" x="220" y="1138.5366">L&#432;u file ch&#7913;ng t&#7915;</text><line style="stroke:#000000;stroke-width:1.0;" x1="193" x2="193" y1="55.0166" y2="1473.1641"/><line style="stroke:#000000;stroke-width:1.0;" x1="376" x2="376" y1="55.0166" y2="1473.1641"/><line style="stroke:#000000;stroke-width:1.0;" x1="103.5" x2="103.5" y1="101.8926" y2="121.8926"/><polygon fill="#000000" points="99.5,111.8926,103.5,121.8926,107.5,111.8926,103.5,115.8926" style="stroke:#000000;stroke-width:1.0;"/><line style="stroke:#000000;stroke-width:1.0;" x1="103.5" x2="103.5" y1="155.2612" y2="175.2612"/><polygon fill="#000000" points="99.5,165.2612,103.5,175.2612,107.5,165.2612,103.5,169.2612" style="stroke:#000000;stroke-width:1.0;"/><line style="stroke:#000000;stroke-width:1.0;" x1="103.5" x2="103.5" y1="422.2104" y2="442.2104"/><polygon fill="#000000" points="99.5,432.2104,103.5,442.2104,107.5,432.2104,103.5,436.2104" style="stroke:#000000;stroke-width:1.0;"/><line style="stroke:#000000;stroke-width:1.0;" x1="103.5" x2="103.5" y1="515.6851" y2="535.6851"/><polygon fill="#000000" points="99.5,525.6851,103.5,535.6851,107.5,525.6851,103.5,529.6851" style="stroke:#000000;stroke-width:1.0;"/><line style="stroke:#000000;stroke-width:1.0;" x1="103.5" x2="103.5" y1="1217.5835" y2="1237.5835"/><polygon fill="#000000" points="99.5,1227.5835,103.5,1237.5835,107.5,1227.5835,103.5,1231.5835" style="stroke:#000000;stroke-width:1.0;"/><line style="stroke:#000000;stroke-width:1.0;" x1="103.5" x2="103.5" y1="1284.3208" y2="1304.3208"/><polygon fill="#000000" points="99.5,1294.3208,103.5,1304.3208,107.5,1294.3208,103.5,1298.3208" style="stroke:#000000;stroke-width:1.0;"/><line style="stroke:#000000;stroke-width:1.0;" x1="103.5" x2="103.5" y1="1364.4268" y2="1384.4268"/><polygon fill="#000000" points="99.5,1374.4268,103.5,1384.4268,107.5,1374.4268,103.5,1378.4268" style="stroke:#000000;stroke-width:1.0;"/><line style="stroke:#000000;stroke-width:1.0;" x1="103.5" x2="103.5" y1="1431.1641" y2="1451.1641"/><polygon fill="#000000" points="99.5,1441.1641,103.5,1451.1641,107.5,1441.1641,103.5,1445.1641" style="stroke:#000000;stroke-width:1.0;"/><line style="stroke:#000000;stroke-width:1.0;" x1="267" x2="267" y1="288.7358" y2="308.7358"/><polygon fill="#000000" points="263,298.7358,267,308.7358,271,298.7358,267,302.7358" style="stroke:#000000;stroke-width:1.0;"/><line style="stroke:#000000;stroke-width:1.0;" x1="267" x2="267" y1="751.2126" y2="771.2126"/><polygon fill="#000000" points="263,761.2126,267,771.2126,271,761.2126,267,765.2126" style="stroke:#000000;stroke-width:1.0;"/><line style="stroke:#000000;stroke-width:1.0;" x1="267" x2="267" y1="666.4224" y2="691.1067"/><polygon fill="#000000" points="263,681.1067,267,691.1067,271,681.1067,267,685.1067" style="stroke:#000000;stroke-width:1.0;"/><line style="stroke:#000000;stroke-width:1.0;" x1="321.5" x2="345" y1="654.4224" y2="654.4224"/><polygon fill="#000000" points="341,736.6597,345,746.6597,349,736.6597,345,740.6597" style="stroke:#000000;stroke-width:1.0;"/><line style="stroke:#000000;stroke-width:1.0;" x1="345" x2="345" y1="654.4224" y2="815.2126"/><line style="stroke:#000000;stroke-width:1.0;" x1="345" x2="267" y1="815.2126" y2="815.2126"/><line style="stroke:#000000;stroke-width:1.0;" x1="267" x2="267" y1="815.2126" y2="835.2126"/><polygon fill="#000000" points="263,825.2126,267,835.2126,271,825.2126,267,829.2126" style="stroke:#000000;stroke-width:1.0;"/><line style="stroke:#000000;stroke-width:1.0;" x1="267" x2="267" y1="622.4224" y2="642.4224"/><polygon fill="#000000" points="263,632.4224,267,642.4224,271,632.4224,267,636.4224" style="stroke:#000000;stroke-width:1.0;"/><line style="stroke:#000000;stroke-width:1.0;" x1="267" x2="267" y1="861.95" y2="886.6343"/><polygon fill="#000000" points="263,876.6343,267,886.6343,271,876.6343,267,880.6343" style="stroke:#000000;stroke-width:1.0;"/><line style="stroke:#000000;stroke-width:1.0;" x1="315" x2="338.5" y1="848.5813" y2="848.5813"/><polygon fill="#000000" points="334.5,899.3186,338.5,909.3186,342.5,899.3186,338.5,903.3186" style="stroke:#000000;stroke-width:1.0;"/><line style="stroke:#000000;stroke-width:1.0;" x1="338.5" x2="338.5" y1="848.5813" y2="965.3716"/><line style="stroke:#000000;stroke-width:1.0;" x1="338.5" x2="279" y1="965.3716" y2="965.3716"/><polygon fill="#000000" points="289,961.3716,279,965.3716,289,969.3716,285,965.3716" style="stroke:#000000;stroke-width:1.0;"/><line style="stroke:#000000;stroke-width:1.0;" x1="267" x2="267" y1="933.3716" y2="953.3716"/><polygon fill="#000000" points="263,943.3716,267,953.3716,271,943.3716,267,947.3716" style="stroke:#000000;stroke-width:1.0;"/><line style="stroke:#000000;stroke-width:1.0;" x1="267" x2="267" y1="977.3716" y2="997.3716"/><polygon fill="#000000" points="263,987.3716,267,997.3716,271,987.3716,267,991.3716" style="stroke:#000000;stroke-width:1.0;"/><line style="stroke:#000000;stroke-width:1.0;" x1="267" x2="267" y1="1030.7402" y2="1050.7402"/><polygon fill="#000000" points="263,1040.7402,267,1050.7402,271,1040.7402,267,1044.7402" style="stroke:#000000;stroke-width:1.0;"/><line style="stroke:#000000;stroke-width:1.0;" x1="267" x2="267" y1="1097.4775" y2="1117.4775"/><polygon fill="#000000" points="263,1107.4775,267,1117.4775,271,1107.4775,267,1111.4775" style="stroke:#000000;stroke-width:1.0;"/><line style="stroke:#000000;stroke-width:1.0;" x1="103.5" x2="103.5" y1="221.9985" y2="226.9985"/><line style="stroke:#000000;stroke-width:1.0;" x1="103.5" x2="267" y1="226.9985" y2="226.9985"/><line style="stroke:#000000;stroke-width:1.0;" x1="267" x2="267" y1="226.9985" y2="241.9985"/><polygon fill="#000000" points="263,231.9985,267,241.9985,271,231.9985,267,235.9985" style="stroke:#000000;stroke-width:1.0;"/><line style="stroke:#000000;stroke-width:1.0;" x1="267" x2="267" y1="368.8418" y2="373.8418"/><line style="stroke:#000000;stroke-width:1.0;" x1="267" x2="103.5" y1="373.8418" y2="373.8418"/><line style="stroke:#000000;stroke-width:1.0;" x1="103.5" x2="103.5" y1="373.8418" y2="388.8418"/><polygon fill="#000000" points="99.5,378.8418,103.5,388.8418,107.5,378.8418,103.5,382.8418" style="stroke:#000000;stroke-width:1.0;"/><line style="stroke:#000000;stroke-width:1.0;" x1="103.5" x2="103.5" y1="569.0537" y2="574.0537"/><line style="stroke:#000000;stroke-width:1.0;" x1="103.5" x2="267" y1="574.0537" y2="574.0537"/><line style="stroke:#000000;stroke-width:1.0;" x1="267" x2="267" y1="574.0537" y2="589.0537"/><polygon fill="#000000" points="263,579.0537,267,589.0537,271,579.0537,267,583.0537" style="stroke:#000000;stroke-width:1.0;"/><line style="stroke:#000000;stroke-width:1.0;" x1="267" x2="267" y1="1150.8462" y2="1155.8462"/><line style="stroke:#000000;stroke-width:1.0;" x1="267" x2="103.5" y1="1155.8462" y2="1155.8462"/><line style="stroke:#000000;stroke-width:1.0;" x1="103.5" x2="103.5" y1="1155.8462" y2="1170.8462"/><polygon fill="#000000" points="99.5,1160.8462,103.5,1170.8462,107.5,1160.8462,103.5,1164.8462" style="stroke:#000000;stroke-width:1.0;"/><text fill="#000000" font-family="Verdana" font-size="18" lengthAdjust="spacing" textLength="96" x="54.5" y="73.1133">Nh&#224; t&#224;i tr&#7907;</text><text fill="#000000" font-family="Verdana" font-size="18" lengthAdjust="spacing" textLength="82" x="235" y="73.1133">H&#7879; th&#7889;ng</text><rect fill="none" height="78.0586" id="_legend" rx="7.5" ry="7.5" style="stroke:#000000;stroke-width:1.0;" width="359" x="16" y="1478.1641"/><text fill="#000000" font-family="Verdana" font-size="14" font-weight="bold" lengthAdjust="spacing" textLength="56" x="21" y="1497.2393">Quy&#7873;n:</text><text fill="#000000" font-family="Verdana" font-size="14" lengthAdjust="spacing" textLength="132" x="82" y="1497.2393">Nh&#224; t&#224;i tr&#7907; (role 4)</text><text fill="#000000" font-family="Verdana" font-size="14" font-weight="bold" lengthAdjust="spacing" textLength="35" x="21" y="1514.2539">API:</text><text fill="#000000" font-family="Verdana" font-size="14" lengthAdjust="spacing" textLength="145" x="61" y="1514.2539">POST /api/donations</text><text fill="#000000" font-family="Verdana" font-size="14" font-weight="bold" lengthAdjust="spacing" textLength="76" x="21" y="1531.2686">&#272;&#7863;c &#273;i&#7875;m:</text><text fill="#000000" font-family="Verdana" font-size="14" lengthAdjust="spacing" textLength="268" x="102" y="1531.2686">T&#7921; &#273;&#7897;ng t&#7841;o h&#7891; s&#417; nh&#224; t&#224;i tr&#7907; l&#7847;n &#273;&#7847;u</text><text fill="#000000" font-family="Verdana" font-size="14" font-weight="bold" lengthAdjust="spacing" textLength="120" x="21" y="1548.2832">B&#432;&#7899;c ti&#7871;p theo:</text><text fill="#000000" font-family="Verdana" font-size="14" lengthAdjust="spacing" textLength="124" x="146" y="1548.2832">K&#7871; to&#225;n x&#225;c nh&#7853;n</text><!--SRC=[VLDTJnD157sVNt4jBtGZuIEWs3uOB19CiQ2i7w_BTkbEkfsfkxDeJHyaFl10J20-66D8MXf2r11g937inl2mJV_7_1FlJ0MMehH9qvrxxhbdpZrxIxXEpO6wPr56WYfbTSktQh1csTMApqDMBd2F-p2oe3yfX6KBka55Ou4piKhVEZ0vcQe6hsdDivZpWfQ52rCp4uG8AZm736DkVk9k3amPjPQXkBWie_qIcCcxHs0-bV6-OH3I72dCFhnJkDSikKaBHDAY87mPTvea49OlIEvvqk9uPB4AP92epLEWJ9xaNZerA5lCXI1fsowy2cLyIdgx2kzon0lexShuCwlarR256VLjBifu2uGhurrMQPBSaemE6jTOWDZ92T9KNOlYe4Kgu_TCTstZhou9DD9Clh51msrud9o0a567h28rbFjTSB5hYwd3DitVTDrS0Oa__6M2MgYqfG0eeBU3N9iiDJjL9sEWPmgDmQSb6UzHOAwCZXcCYkIq0RQUaCNYixh7hR8- -AgePFmT1vGGVC3-QVD_hIigLsfgGIbTYAVhC3elusFmb04XO4Ed3Xx-lvz5f8EQYXgV9G1NlKNG9ugd9deNdONf-wgD_hAnjaunNzL1uP8wZvL0y3fnM9ck3qJqTf8EsCbF1Vi8GRyDX5tr_a9GmUrtBQt7bF6FyzpetV6BTYmFzUVFn-MM-jqGLQ78phNTeN2X7gEsedIJDYKPjV8zU8EHquiwOYhGcaJVx-fwRifEINUVExMMe5vy1_3Y0-ruti9iwpWF9xccK9Snsb3KQPM8DozfIH5N0e8dRGQ1Z7wdnHFXSuHDJOzDpxfv5UYmeGUXaT4P8ncCv3Q-N86CZwwcI- -CU4u5ZGIVLbn13EE9wjvaESE0eGl3gC_HdkaiekPM7Yd4olAg2UDMdOwNERC4vIp0edRTnlawf0ftmsA7rug9YWu7uWz397lGxyhuYwtUiEYihYB35MFAaBGNU9F1VSWV]--></g></svg>