<?xml version="1.0" encoding="us-ascii" standalone="no"?><svg xmlns="http://www.w3.org/2000/svg" xmlns:xlink="http://www.w3.org/1999/xlink" contentStyleType="text/css" height="1886px" preserveAspectRatio="none" style="width:913px;height:1886px;background:#FFFFFF;" version="1.1" viewBox="0 0 913 1886" width="913px" zoomAndPan="magnify"><defs/><g><text fill="#000000" font-family="Verdana" font-size="22" font-weight="bold" lengthAdjust="spacing" textLength="369" x="270.75" y="37.1182">SD04: PH&#202; DUY&#7878;T &#272;&#416;N C&#7844;P 2</text><rect fill="#FFFFFF" height="1522.6997" style="stroke:#000000;stroke-width:1.0;" width="10" x="310" y="162.5513"/><rect fill="#FFFFFF" height="105.1973" style="stroke:#000000;stroke-width:1.0;" width="10" x="578" y="192.3506"/><rect fill="#FFFFFF" height="105.1973" style="stroke:#000000;stroke-width:1.0;" width="10" x="578" y="357.1465"/><rect fill="#FFFFFF" height="595.1543" style="stroke:#000000;stroke-width:1.0;" width="10" x="578" y="639.939"/><rect fill="#FFFFFF" height="258.9932" style="stroke:#000000;stroke-width:1.0;" width="10" x="578" y="1381.4585"/><rect fill="#FFFFFF" height="29.7993" style="stroke:#000000;stroke-width:1.0;" width="10" x="822" y="237.9492"/><rect fill="#FFFFFF" height="29.7993" style="stroke:#000000;stroke-width:1.0;" width="10" x="822" y="402.7451"/><rect fill="#FFFFFF" height="29.7993" style="stroke:#000000;stroke-width:1.0;" width="10" x="822" y="758.3369"/><rect fill="#FFFFFF" height="271.7925" style="stroke:#000000;stroke-width:1.0;" width="10" x="822" y="933.5015"/><rect fill="#FFFFFF" height="196.3945" style="stroke:#000000;stroke-width:1.0;" width="10" x="822" y="1414.2578"/><rect fill="#FFFFFF" height="1110.71" style="stroke:#000000;stroke-width:1.0;" width="881.5" x="15" y="567.541"/><rect fill="#FFFFFF" height="485.5557" style="stroke:#000000;stroke-width:1.0;" width="861.5" x="25" y="803.1362"/><rect fill="#FFFFFF" height="392.3584" style="stroke:none;stroke-width:1.0;" width="861.5" x="25" y="896.3335"/><rect fill="#FFFFFF" height="382.5591" style="stroke:none;stroke-width:1.0;" width="881.5" x="15" y="1295.6919"/><line style="stroke:#000000;stroke-width:1.0;" x1="60" x2="60" y1="130.752" y2="1695.251"/><line style="stroke:#000000;stroke-width:1.0;" x1="314.5" x2="314.5" y1="130.752" y2="1695.251"/><line style="stroke:#000000;stroke-width:1.0;" x1="582.5" x2="582.5" y1="130.752" y2="1695.251"/><line style="stroke:#000000;stroke-width:1.0;" x1="826.5" x2="826.5" y1="130.752" y2="1695.251"/><text fill="#000000" font-family="Verdana" font-size="14" lengthAdjust="spacing" textLength="44" x="35" y="127.8125">Admin</text><ellipse cx="60" cy="61.7373" fill="#FFFFFF" rx="8" ry="8" style="stroke:#000000;stroke-width:1.0;"/><path d="M60,69.7373 L60,96.7373 M47,77.7373 L73,77.7373 M60,96.7373 L47,111.7373 M60,96.7373 L73,111.7373 " fill="none" style="stroke:#000000;stroke-width:1.0;"/><text fill="#000000" font-family="Verdana" font-size="14" lengthAdjust="spacing" textLength="44" x="35" y="1708.3262">Admin</text><ellipse cx="60" cy="1720.2656" fill="#FFFFFF" rx="8" ry="8" style="stroke:#000000;stroke-width:1.0;"/><path d="M60,1728.2656 L60,1755.2656 M47,1736.2656 L73,1736.2656 M60,1755.2656 L47,1770.2656 M60,1755.2656 L73,1770.2656 " fill="none" style="stroke:#000000;stroke-width:1.0;"/><rect fill="#FFFFFF" height="31.0146" rx="2.5" ry="2.5" style="stroke:#000000;stroke-width:1.0;" width="95" x="267.5" y="98.7373"/><text fill="#000000" font-family="Verdana" font-size="14" lengthAdjust="spacing" textLength="81" x="274.5" y="119.8125">Tr&#236;nh duy&#7879;t</text><rect fill="#FFFFFF" height="31.0146" rx="2.5" ry="2.5" style="stroke:#000000;stroke-width:1.0;" width="95" x="267.5" y="1694.251"/><text fill="#000000" font-family="Verdana" font-size="14" lengthAdjust="spacing" textLength="81" x="274.5" y="1715.3262">Tr&#236;nh duy&#7879;t</text><rect fill="#FFFFFF" height="31.0146" rx="2.5" ry="2.5" style="stroke:#000000;stroke-width:1.0;" width="107" x="529.5" y="98.7373"/><text fill="#000000" font-family="Verdana" font-size="14" lengthAdjust="spacing" textLength="93" x="536.5" y="119.8125">API H&#7879; th&#7889;ng</text><rect fill="#FFFFFF" height="31.0146" rx="2.5" ry="2.5" style="stroke:#000000;stroke-width:1.0;" width="107" x="529.5" y="1694.251"/><text fill="#000000" font-family="Verdana" font-size="14" lengthAdjust="spacing" textLength="93" x="536.5" y="1715.3262">API H&#7879; th&#7889;ng</text><text fill="#000000" font-family="Verdana" font-size="14" lengthAdjust="spacing" textLength="93" x="777.5" y="127.8125">C&#417; s&#7903; d&#7919; li&#7879;u</text><path d="M809,77.7373 C809,67.7373 827,67.7373 827,67.7373 C827,67.7373 845,67.7373 845,77.7373 L845,103.7373 C845,113.7373 827,113.7373 827,113.7373 C827,113.7373 809,113.7373 809,103.7373 L809,77.7373 " fill="#FFFFFF" style="stroke:#000000;stroke-width:1.5;"/><path d="M809,77.7373 C809,87.7373 827,87.7373 827,87.7373 C827,87.7373 845,87.7373 845,77.7373 " fill="none" style="stroke:#000000;stroke-width:1.5;"/><text fill="#000000" font-family="Verdana" font-size="14" lengthAdjust="spacing" textLength="93" x="777.5" y="1708.3262">C&#417; s&#7903; d&#7919; li&#7879;u</text><path d="M809,1721.2656 C809,1711.2656 827,1711.2656 827,1711.2656 C827,1711.2656 845,1711.2656 845,1721.2656 L845,1747.2656 C845,1757.2656 827,1757.2656 827,1757.2656 C827,1757.2656 809,1757.2656 809,1747.2656 L809,1721.2656 " fill="#FFFFFF" style="stroke:#000000;stroke-width:1.5;"/><path d="M809,1721.2656 C809,1731.2656 827,1731.2656 827,1731.2656 C827,1731.2656 845,1731.2656 845,1721.2656 " fill="none" style="stroke:#000000;stroke-width:1.5;"/><rect fill="#FFFFFF" height="1522.6997" style="stroke:#000000;stroke-width:1.0;" width="10" x="310" y="162.5513"/><rect fill="#FFFFFF" height="105.1973" style="stroke:#000000;stroke-width:1.0;" width="10" x="578" y="192.3506"/><rect fill="#FFFFFF" height="105.1973" style="stroke:#000000;stroke-width:1.0;" width="10" x="578" y="357.1465"/><rect fill="#FFFFFF" height="595.1543" style="stroke:#000000;stroke-width:1.0;" width="10" x="578" y="639.939"/><rect fill="#FFFFFF" height="258.9932" style="stroke:#000000;stroke-width:1.0;" width="10" x="578" y="1381.4585"/><rect fill="#FFFFFF" height="29.7993" style="stroke:#000000;stroke-width:1.0;" width="10" x="822" y="237.9492"/><rect fill="#FFFFFF" height="29.7993" style="stroke:#000000;stroke-width:1.0;" width="10" x="822" y="402.7451"/><rect fill="#FFFFFF" height="29.7993" style="stroke:#000000;stroke-width:1.0;" width="10" x="822" y="758.3369"/><rect fill="#FFFFFF" height="271.7925" style="stroke:#000000;stroke-width:1.0;" width="10" x="822" y="933.5015"/><rect fill="#FFFFFF" height="196.3945" style="stroke:#000000;stroke-width:1.0;" width="10" x="822" y="1414.2578"/><polygon fill="#000000" points="298,158.5513,308,162.5513,298,166.5513,302,162.5513" style="stroke:#000000;stroke-width:1.0;"/><line style="stroke:#000000;stroke-width:1.0;" x1="60" x2="304" y1="162.5513" y2="162.5513"/><text fill="#000000" font-family="Verdana" font-size="13" lengthAdjust="spacing" textLength="159" x="105.5" y="157.8218">V&#224;o trang "Qu&#7843;n l&#253; &#273;&#417;n"</text><polygon fill="#000000" points="566,188.3506,576,192.3506,566,196.3506,570,192.3506" style="stroke:#000000;stroke-width:1.0;"/><line style="stroke:#000000;stroke-width:1.0;" x1="320" x2="572" y1="192.3506" y2="192.3506"/><text fill="#000000" font-family="Verdana" font-size="13" lengthAdjust="spacing" textLength="239" x="329.5" y="187.6211">L&#7845;y danh s&#225;ch &#273;&#417;n ch&#7901; duy&#7879;t c&#7845;p 2</text><polygon fill="#000000" points="810,233.9492,820,237.9492,810,241.9492,814,237.9492" style="stroke:#000000;stroke-width:1.0;"/><line style="stroke:#000000;stroke-width:1.0;" x1="588" x2="816" y1="237.9492" y2="237.9492"/><text fill="#000000" font-family="Verdana" font-size="13" lengthAdjust="spacing" textLength="179" x="615.5" y="217.4204">Truy v&#7845;n &#273;&#417;n c&#243; tr&#7841;ng th&#225;i</text><text fill="#000000" font-family="Verdana" font-size="13" lengthAdjust="spacing" textLength="120" x="645" y="233.2197">"Ch&#7901; duy&#7879;t c&#7845;p 2"</text><polygon fill="#000000" points="599,263.7485,589,267.7485,599,271.7485,595,267.7485" style="stroke:#000000;stroke-width:1.0;"/><line style="stroke:#000000;stroke-width:1.0;stroke-dasharray:2.0,2.0;" x1="593" x2="826" y1="267.7485" y2="267.7485"/><text fill="#000000" font-family="Verdana" font-size="13" lengthAdjust="spacing" textLength="98" x="658.5" y="263.019">Danh s&#225;ch &#273;&#417;n</text><polygon fill="#000000" points="331,293.5479,321,297.5479,331,301.5479,327,297.5479" style="stroke:#000000;stroke-width:1.0;"/><line style="stroke:#000000;stroke-width:1.0;stroke-dasharray:2.0,2.0;" x1="325" x2="582" y1="297.5479" y2="297.5479"/><text fill="#000000" font-family="Verdana" font-size="13" lengthAdjust="spacing" textLength="123" x="390" y="292.8184">Hi&#7875;n th&#7883; danh s&#225;ch</text><polygon fill="#000000" points="298,323.3472,308,327.3472,298,331.3472,302,327.3472" style="stroke:#000000;stroke-width:1.0;"/><line style="stroke:#000000;stroke-width:1.0;" x1="60" x2="304" y1="327.3472" y2="327.3472"/><text fill="#000000" font-family="Verdana" font-size="13" lengthAdjust="spacing" textLength="143" x="113.5" y="322.6177">Click v&#224;o &#273;&#417;n c&#7847;n x&#233;t</text><polygon fill="#000000" points="566,353.1465,576,357.1465,566,361.1465,570,357.1465" style="stroke:#000000;stroke-width:1.0;"/><line style="stroke:#000000;stroke-width:1.0;" x1="320" x2="572" y1="357.1465" y2="357.1465"/><text fill="#000000" font-family="Verdana" font-size="13" lengthAdjust="spacing" textLength="166" x="366" y="352.417">L&#7845;y chi ti&#7871;t &#273;&#417;n + l&#7883;ch s&#7917;</text><polygon fill="#000000" points="810,398.7451,820,402.7451,810,406.7451,814,402.7451" style="stroke:#000000;stroke-width:1.0;"/><line style="stroke:#000000;stroke-width:1.0;" x1="588" x2="816" y1="402.7451" y2="402.7451"/><text fill="#000000" font-family="Verdana" font-size="13" lengthAdjust="spacing" textLength="174" x="618" y="382.2163">Truy v&#7845;n &#273;&#7847;y &#273;&#7911; th&#244;ng tin</text><text fill="#000000" font-family="Verdana" font-size="13" lengthAdjust="spacing" textLength="179" x="615.5" y="398.0156">+ K&#7871;t qu&#7843; ph&#234; duy&#7879;t c&#7845;p 1</text><polygon fill="#000000" points="599,428.5444,589,432.5444,599,436.5444,595,432.5444" style="stroke:#000000;stroke-width:1.0;"/><line style="stroke:#000000;stroke-width:1.0;stroke-dasharray:2.0,2.0;" x1="593" x2="826" y1="432.5444" y2="432.5444"/><text fill="#000000" font-family="Verdana" font-size="13" lengthAdjust="spacing" textLength="156" x="629.5" y="427.8149">Chi ti&#7871;t + L&#7883;ch s&#7917; c&#7845;p 1</text><polygon fill="#000000" points="331,458.3438,321,462.3438,331,466.3438,327,462.3438" style="stroke:#000000;stroke-width:1.0;"/><line style="stroke:#000000;stroke-width:1.0;stroke-dasharray:2.0,2.0;" x1="325" x2="582" y1="462.3438" y2="462.3438"/><text fill="#000000" font-family="Verdana" font-size="13" lengthAdjust="spacing" textLength="102" x="400.5" y="457.6143">Hi&#7875;n th&#7883; chi ti&#7871;t</text><line style="stroke:#000000;stroke-width:1.0;" x1="60" x2="102" y1="539.541" y2="539.541"/><line style="stroke:#000000;stroke-width:1.0;" x1="102" x2="102" y1="539.541" y2="552.541"/><line style="stroke:#000000;stroke-width:1.0;" x1="61" x2="102" y1="552.541" y2="552.541"/><polygon fill="#000000" points="71,548.541,61,552.541,71,556.541,67,552.541" style="stroke:#000000;stroke-width:1.0;"/><text fill="#000000" font-family="Verdana" font-size="13" lengthAdjust="spacing" textLength="148" x="67" y="487.4136">Xem l&#7883;ch s&#7917; ph&#234; duy&#7879;t</text><text fill="#000000" font-family="Verdana" font-size="13" lengthAdjust="spacing" textLength="134" x="74" y="503.2129">- Ng&#432;&#7901;i duy&#7879;t c&#7845;p 1</text><text fill="#000000" font-family="Verdana" font-size="13" lengthAdjust="spacing" textLength="103" x="89.5" y="519.0122">- Ghi ch&#250; c&#7845;p 1</text><text fill="#000000" font-family="Verdana" font-size="13" lengthAdjust="spacing" textLength="59" x="111.5" y="534.8115">- T&#224;i li&#7879;u</text><path d="M15,567.541 L79,567.541 L79,575.3403 L69,585.3403 L15,585.3403 L15,567.541 " fill="#FFFFFF" style="stroke:#000000;stroke-width:1.0;"/><rect fill="none" height="1110.71" style="stroke:#000000;stroke-width:1.0;" width="881.5" x="15" y="567.541"/><text fill="#000000" font-family="Verdana" font-size="13" font-weight="bold" lengthAdjust="spacing" textLength="19" x="30" y="581.6108">alt</text><text fill="#000000" font-family="Verdana" font-size="11" font-weight="bold" lengthAdjust="spacing" textLength="151" x="94" y="580.6001">[Quy&#7871;t &#273;&#7883;nh Ph&#234; duy&#7879;t]</text><polygon fill="#000000" points="298,603.1396,308,607.1396,298,611.1396,302,607.1396" style="stroke:#000000;stroke-width:1.0;"/><line style="stroke:#000000;stroke-width:1.0;" x1="60" x2="304" y1="607.1396" y2="607.1396"/><text fill="#000000" font-family="Verdana" font-size="13" lengthAdjust="spacing" textLength="226" x="72" y="602.4102">Nh&#7853;p ghi ch&#250; v&#224; nh&#7845;n "Ph&#234; duy&#7879;t"</text><polygon fill="#000000" points="566,635.939,576,639.939,566,643.939,570,639.939" style="stroke:#000000;stroke-width:1.0;"/><line style="stroke:#000000;stroke-width:1.0;" x1="320" x2="572" y1="639.939" y2="639.939"/><text fill="#000000" font-family="Verdana" font-size="13" lengthAdjust="spacing" textLength="193" x="352.5" y="635.2095">G&#7917;i y&#234;u c&#7847;u ph&#234; duy&#7879;t c&#7845;p 2</text><path d="M593,620.1396 L593,645.1396 L881,645.1396 L881,630.1396 L871,620.1396 L593,620.1396 " fill="#FFFFFF" style="stroke:#000000;stroke-width:1.0;"/><path d="M871,620.1396 L871,630.1396 L881,630.1396 L871,620.1396 " fill="#FFFFFF" style="stroke:#000000;stroke-width:1.0;"/><text fill="#000000" font-family="Verdana" font-size="13" lengthAdjust="spacing" textLength="267" x="599" y="638.2095">PUT /api/applications/:id/admin-approve</text><line style="stroke:#000000;stroke-width:1.0;" x1="588" x2="630" y1="672.7383" y2="672.7383"/><line style="stroke:#000000;stroke-width:1.0;" x1="630" x2="630" y1="672.7383" y2="685.7383"/><line style="stroke:#000000;stroke-width:1.0;" x1="589" x2="630" y1="685.7383" y2="685.7383"/><polygon fill="#000000" points="599,681.7383,589,685.7383,599,689.7383,595,685.7383" style="stroke:#000000;stroke-width:1.0;"/><text fill="#000000" font-family="Verdana" font-size="13" lengthAdjust="spacing" textLength="103" x="595" y="668.0088">X&#225;c th&#7921;c token</text><line style="stroke:#000000;stroke-width:1.0;" x1="588" x2="630" y1="715.5376" y2="715.5376"/><line style="stroke:#000000;stroke-width:1.0;" x1="630" x2="630" y1="715.5376" y2="728.5376"/><line style="stroke:#000000;stroke-width:1.0;" x1="589" x2="630" y1="728.5376" y2="728.5376"/><polygon fill="#000000" points="599,724.5376,589,728.5376,599,732.5376,595,728.5376" style="stroke:#000000;stroke-width:1.0;"/><text fill="#000000" font-family="Verdana" font-size="13" lengthAdjust="spacing" textLength="197" x="595" y="710.8081">Ki&#7875;m tra quy&#7873;n Admin (role 1)</text><polygon fill="#000000" points="810,754.3369,820,758.3369,810,762.3369,814,758.3369" style="stroke:#000000;stroke-width:1.0;"/><line style="stroke:#000000;stroke-width:1.0;" x1="588" x2="816" y1="758.3369" y2="758.3369"/><text fill="#000000" font-family="Verdana" font-size="13" lengthAdjust="spacing" textLength="198" x="606" y="753.6074">Ki&#7875;m tra c&#7845;p 1 &#273;&#227; duy&#7879;t ch&#432;a</text><polygon fill="#000000" points="599,784.1362,589,788.1362,599,792.1362,595,788.1362" style="stroke:#000000;stroke-width:1.0;"/><line style="stroke:#000000;stroke-width:1.0;stroke-dasharray:2.0,2.0;" x1="593" x2="826" y1="788.1362" y2="788.1362"/><text fill="#000000" font-family="Verdana" font-size="13" lengthAdjust="spacing" textLength="110" x="652.5" y="783.4067">Tr&#7841;ng th&#225;i c&#7845;p 1</text><path d="M25,803.1362 L89,803.1362 L89,810.9355 L79,820.9355 L25,820.9355 L25,803.1362 " fill="#FFFFFF" style="stroke:#000000;stroke-width:1.0;"/><rect fill="none" height="485.5557" style="stroke:#000000;stroke-width:1.0;" width="861.5" x="25" y="803.1362"/><text fill="#000000" font-family="Verdana" font-size="13" font-weight="bold" lengthAdjust="spacing" textLength="19" x="40" y="817.2061">alt</text><text fill="#000000" font-family="Verdana" font-size="11" font-weight="bold" lengthAdjust="spacing" textLength="124" x="104" y="816.1953">[C&#7845;p 1 ch&#432;a duy&#7879;t]</text><polygon fill="#000000" points="331,854.5342,321,858.5342,331,862.5342,327,858.5342" style="stroke:#000000;stroke-width:1.0;"/><line style="stroke:#000000;stroke-width:1.0;stroke-dasharray:2.0,2.0;" x1="325" x2="577" y1="858.5342" y2="858.5342"/><text fill="#000000" font-family="Verdana" font-size="13" lengthAdjust="spacing" textLength="89" x="404.5" y="838.0054">Th&#244;ng b&#225;o l&#7895;i</text><text fill="#000000" font-family="Verdana" font-size="13" lengthAdjust="spacing" textLength="115" x="391.5" y="853.8047">"Ch&#432;a qua c&#7845;p 1"</text><polygon fill="#000000" points="71,884.3335,61,888.3335,71,892.3335,67,888.3335" style="stroke:#000000;stroke-width:1.0;"/><line style="stroke:#000000;stroke-width:1.0;stroke-dasharray:2.0,2.0;" x1="65" x2="309" y1="888.3335" y2="888.3335"/><text fill="#000000" font-family="Verdana" font-size="13" lengthAdjust="spacing" textLength="69" x="150.5" y="883.604">Hi&#7875;n th&#7883; l&#7895;i</text><line style="stroke:#000000;stroke-width:1.0;stroke-dasharray:2.0,2.0;" x1="25" x2="886.5" y1="897.3335" y2="897.3335"/><text fill="#000000" font-family="Verdana" font-size="11" font-weight="bold" lengthAdjust="spacing" textLength="109" x="30" y="908.3926">[C&#7845;p 1 &#273;&#227; duy&#7879;t]</text><polygon fill="#000000" points="810,929.5015,820,933.5015,810,937.5015,814,933.5015" style="stroke:#000000;stroke-width:1.0;"/><line style="stroke:#000000;stroke-width:1.0;" x1="588" x2="816" y1="933.5015" y2="933.5015"/><text fill="#000000" font-family="Verdana" font-size="13" font-weight="bold" lengthAdjust="spacing" textLength="125" x="642.5" y="928.772">B&#7855;t &#273;&#7847;u giao d&#7883;ch</text><polygon fill="#000000" points="810,1006.6987,820,1010.6987,810,1014.6987,814,1010.6987" style="stroke:#000000;stroke-width:1.0;"/><line style="stroke:#000000;stroke-width:1.0;" x1="588" x2="816" y1="1010.6987" y2="1010.6987"/><text fill="#000000" font-family="Verdana" font-size="13" lengthAdjust="spacing" textLength="174" x="618" y="958.5713">C&#7853;p nh&#7853;t ph&#234; duy&#7879;t c&#7845;p 2</text><text fill="#000000" font-family="Verdana" font-size="13" lengthAdjust="spacing" textLength="113" x="648.5" y="974.3706">- K&#7871;t qu&#7843;: Duy&#7879;t</text><text fill="#000000" font-family="Verdana" font-size="13" lengthAdjust="spacing" textLength="92" x="659" y="990.1699">- Ng&#432;&#7901;i duy&#7879;t</text><text fill="#000000" font-family="Verdana" font-size="13" lengthAdjust="spacing" textLength="88" x="661" y="1005.9692">- Ng&#224;y duy&#7879;t</text><polygon fill="#000000" points="599,1036.498,589,1040.498,599,1044.498,595,1040.498" style="stroke:#000000;stroke-width:1.0;"/><line style="stroke:#000000;stroke-width:1.0;stroke-dasharray:2.0,2.0;" x1="593" x2="821" y1="1040.498" y2="1040.498"/><text fill="#000000" font-family="Verdana" font-size="13" lengthAdjust="spacing" textLength="81" x="664.5" y="1035.7686">&#272;&#227; c&#7853;p nh&#7853;t</text><polygon fill="#000000" points="810,1082.0967,820,1086.0967,810,1090.0967,814,1086.0967" style="stroke:#000000;stroke-width:1.0;"/><line style="stroke:#000000;stroke-width:1.0;" x1="588" x2="816" y1="1086.0967" y2="1086.0967"/><text fill="#000000" font-family="Verdana" font-size="13" lengthAdjust="spacing" textLength="119" x="645.5" y="1065.5679">&#272;&#7893;i tr&#7841;ng th&#225;i &#273;&#417;n</text><text fill="#000000" font-family="Verdana" font-size="13" lengthAdjust="spacing" textLength="155" x="627.5" y="1081.3672">th&#224;nh "&#272;&#227; duy&#7879;t c&#7845;p 2"</text><polygon fill="#000000" points="599,1111.896,589,1115.896,599,1119.896,595,1115.896" style="stroke:#000000;stroke-width:1.0;"/><line style="stroke:#000000;stroke-width:1.0;stroke-dasharray:2.0,2.0;" x1="593" x2="821" y1="1115.896" y2="1115.896"/><text fill="#000000" font-family="Verdana" font-size="13" lengthAdjust="spacing" textLength="81" x="664.5" y="1111.1665">&#272;&#227; c&#7853;p nh&#7853;t</text><polygon fill="#000000" points="810,1141.6953,820,1145.6953,810,1149.6953,814,1145.6953" style="stroke:#000000;stroke-width:1.0;"/><line style="stroke:#000000;stroke-width:1.0;" x1="588" x2="816" y1="1145.6953" y2="1145.6953"/><text fill="#000000" font-family="Verdana" font-size="13" lengthAdjust="spacing" textLength="210" x="600" y="1140.9658">Chuy&#7875;n sang "Ch&#7901; duy&#7879;t c&#7845;p 3"</text><polygon fill="#000000" points="599,1171.4946,589,1175.4946,599,1179.4946,595,1175.4946" style="stroke:#000000;stroke-width:1.0;"/><line style="stroke:#000000;stroke-width:1.0;stroke-dasharray:2.0,2.0;" x1="593" x2="821" y1="1175.4946" y2="1175.4946"/><text fill="#000000" font-family="Verdana" font-size="13" lengthAdjust="spacing" textLength="81" x="664.5" y="1170.7651">&#272;&#227; c&#7853;p nh&#7853;t</text><polygon fill="#000000" points="815,1201.2939,825,1205.2939,815,1209.2939,819,1205.2939" style="stroke:#000000;stroke-width:1.0;"/><line style="stroke:#000000;stroke-width:1.0;" x1="588" x2="821" y1="1205.2939" y2="1205.2939"/><text fill="#000000" font-family="Verdana" font-size="13" font-weight="bold" lengthAdjust="spacing" textLength="136" x="639.5" y="1200.5645">X&#225;c nh&#7853;n giao d&#7883;ch</text><polygon fill="#000000" points="331,1231.0933,321,1235.0933,331,1239.0933,327,1235.0933" style="stroke:#000000;stroke-width:1.0;"/><line style="stroke:#000000;stroke-width:1.0;stroke-dasharray:2.0,2.0;" x1="325" x2="582" y1="1235.0933" y2="1235.0933"/><text fill="#000000" font-family="Verdana" font-size="13" lengthAdjust="spacing" textLength="150" x="376.5" y="1230.3638">Th&#244;ng b&#225;o th&#224;nh c&#244;ng</text><polygon fill="#000000" points="71,1276.6919,61,1280.6919,71,1284.6919,67,1280.6919" style="stroke:#000000;stroke-width:1.0;"/><line style="stroke:#000000;stroke-width:1.0;stroke-dasharray:2.0,2.0;" x1="65" x2="309" y1="1280.6919" y2="1280.6919"/><text fill="#000000" font-family="Verdana" font-size="13" lengthAdjust="spacing" textLength="94" x="138" y="1260.1631">"&#272;&#227; ph&#234; duy&#7879;t</text><text fill="#000000" font-family="Verdana" font-size="13" lengthAdjust="spacing" textLength="175" x="97.5" y="1275.9624">&#272;&#417;n chuy&#7875;n sang K&#7871; to&#225;n"</text><line style="stroke:#000000;stroke-width:1.0;stroke-dasharray:2.0,2.0;" x1="15" x2="896.5" y1="1296.6919" y2="1296.6919"/><text fill="#000000" font-family="Verdana" font-size="11" font-weight="bold" lengthAdjust="spacing" textLength="133" x="20" y="1307.751">[Quy&#7871;t &#273;&#7883;nh T&#7915; ch&#7889;i]</text><polygon fill="#000000" points="298,1344.6592,308,1348.6592,298,1352.6592,302,1348.6592" style="stroke:#000000;stroke-width:1.0;"/><line style="stroke:#000000;stroke-width:1.0;" x1="60" x2="304" y1="1348.6592" y2="1348.6592"/><text fill="#000000" font-family="Verdana" font-size="13" lengthAdjust="spacing" textLength="122" x="124" y="1328.1304">Nh&#7853;p l&#253; do t&#7915; ch&#7889;i</text><text fill="#000000" font-family="Verdana" font-size="13" lengthAdjust="spacing" textLength="79" x="145.5" y="1343.9297">(B&#7854;T BU&#7896;C)</text><polygon fill="#000000" points="566,1377.4585,576,1381.4585,566,1385.4585,570,1381.4585" style="stroke:#000000;stroke-width:1.0;"/><line style="stroke:#000000;stroke-width:1.0;" x1="320" x2="572" y1="1381.4585" y2="1381.4585"/><text fill="#000000" font-family="Verdana" font-size="13" lengthAdjust="spacing" textLength="131" x="383.5" y="1376.729">G&#7917;i y&#234;u c&#7847;u t&#7915; ch&#7889;i</text><path d="M593,1361.6592 L593,1386.6592 L874,1386.6592 L874,1371.6592 L864,1361.6592 L593,1361.6592 " fill="#FFFFFF" style="stroke:#000000;stroke-width:1.0;"/><path d="M864,1361.6592 L864,1371.6592 L874,1371.6592 L864,1361.6592 " fill="#FFFFFF" style="stroke:#000000;stroke-width:1.0;"/><text fill="#000000" font-family="Verdana" font-size="13" lengthAdjust="spacing" textLength="260" x="599" y="1379.729">PUT /api/applications/:id/reject-level-2</text><polygon fill="#000000" points="810,1410.2578,820,1414.2578,810,1418.2578,814,1414.2578" style="stroke:#000000;stroke-width:1.0;"/><line style="stroke:#000000;stroke-width:1.0;" x1="588" x2="816" y1="1414.2578" y2="1414.2578"/><text fill="#000000" font-family="Verdana" font-size="13" font-weight="bold" lengthAdjust="spacing" textLength="125" x="642.5" y="1409.5283">B&#7855;t &#273;&#7847;u giao d&#7883;ch</text><polygon fill="#000000" points="810,1471.6558,820,1475.6558,810,1479.6558,814,1475.6558" style="stroke:#000000;stroke-width:1.0;"/><line style="stroke:#000000;stroke-width:1.0;" x1="588" x2="816" y1="1475.6558" y2="1475.6558"/><text fill="#000000" font-family="Verdana" font-size="13" lengthAdjust="spacing" textLength="174" x="618" y="1439.3276">C&#7853;p nh&#7853;t ph&#234; duy&#7879;t c&#7845;p 2</text><text fill="#000000" font-family="Verdana" font-size="13" lengthAdjust="spacing" textLength="124" x="643" y="1455.127">- K&#7871;t qu&#7843;: T&#7915; ch&#7889;i</text><text fill="#000000" font-family="Verdana" font-size="13" lengthAdjust="spacing" textLength="48" x="681" y="1470.9263">- L&#253; do</text><polygon fill="#000000" points="599,1501.4551,589,1505.4551,599,1509.4551,595,1505.4551" style="stroke:#000000;stroke-width:1.0;"/><line style="stroke:#000000;stroke-width:1.0;stroke-dasharray:2.0,2.0;" x1="593" x2="821" y1="1505.4551" y2="1505.4551"/><text fill="#000000" font-family="Verdana" font-size="13" lengthAdjust="spacing" textLength="81" x="664.5" y="1500.7256">&#272;&#227; c&#7853;p nh&#7853;t</text><polygon fill="#000000" points="810,1547.0537,820,1551.0537,810,1555.0537,814,1551.0537" style="stroke:#000000;stroke-width:1.0;"/><line style="stroke:#000000;stroke-width:1.0;" x1="588" x2="816" y1="1551.0537" y2="1551.0537"/><text fill="#000000" font-family="Verdana" font-size="13" lengthAdjust="spacing" textLength="119" x="645.5" y="1530.5249">&#272;&#7893;i tr&#7841;ng th&#225;i &#273;&#417;n</text><text fill="#000000" font-family="Verdana" font-size="13" lengthAdjust="spacing" textLength="145" x="632.5" y="1546.3242">th&#224;nh "T&#7915; ch&#7889;i c&#7845;p 2"</text><polygon fill="#000000" points="599,1576.853,589,1580.853,599,1584.853,595,1580.853" style="stroke:#000000;stroke-width:1.0;"/><line style="stroke:#000000;stroke-width:1.0;stroke-dasharray:2.0,2.0;" x1="593" x2="821" y1="1580.853" y2="1580.853"/><text fill="#000000" font-family="Verdana" font-size="13" lengthAdjust="spacing" textLength="81" x="664.5" y="1576.1235">&#272;&#227; c&#7853;p nh&#7853;t</text><polygon fill="#000000" points="815,1606.6523,825,1610.6523,815,1614.6523,819,1610.6523" style="stroke:#000000;stroke-width:1.0;"/><line style="stroke:#000000;stroke-width:1.0;" x1="588" x2="821" y1="1610.6523" y2="1610.6523"/><text fill="#000000" font-family="Verdana" font-size="13" font-weight="bold" lengthAdjust="spacing" textLength="136" x="639.5" y="1605.9229">X&#225;c nh&#7853;n giao d&#7883;ch</text><polygon fill="#000000" points="331,1636.4517,321,1640.4517,331,1644.4517,327,1640.4517" style="stroke:#000000;stroke-width:1.0;"/><line style="stroke:#000000;stroke-width:1.0;stroke-dasharray:2.0,2.0;" x1="325" x2="582" y1="1640.4517" y2="1640.4517"/><text fill="#000000" font-family="Verdana" font-size="13" lengthAdjust="spacing" textLength="150" x="376.5" y="1635.7222">Th&#244;ng b&#225;o th&#224;nh c&#244;ng</text><polygon fill="#000000" points="71,1666.251,61,1670.251,71,1674.251,67,1670.251" style="stroke:#000000;stroke-width:1.0;"/><line style="stroke:#000000;stroke-width:1.0;stroke-dasharray:2.0,2.0;" x1="65" x2="309" y1="1670.251" y2="1670.251"/><text fill="#000000" font-family="Verdana" font-size="13" lengthAdjust="spacing" textLength="108" x="131" y="1665.5215">"&#272;&#227; t&#7915; ch&#7889;i &#273;&#417;n"</text><rect fill="none" height="95.0732" id="_legend" rx="7.5" ry="7.5" style="stroke:#000000;stroke-width:1.0;" width="398" x="502.5" y="1778.2656"/><text fill="#000000" font-family="Verdana" font-size="14" font-weight="bold" lengthAdjust="spacing" textLength="43" x="507.5" y="1797.3408">M&#244; t&#7843;</text><text fill="#000000" font-family="Verdana" font-size="14" lengthAdjust="spacing" textLength="298" x="550.5" y="1797.3408">: Admin ph&#234; duy&#7879;t ho&#7863;c t&#7915; ch&#7889;i &#273;&#417;n c&#7845;p 2</text><text fill="#000000" font-family="Verdana" font-size="14" font-weight="bold" lengthAdjust="spacing" textLength="29" x="507.5" y="1814.3555">API</text><text fill="#000000" font-family="Verdana" font-size="14" lengthAdjust="spacing" textLength="293" x="536.5" y="1814.3555">: PUT /api/applications/:id/admin-approve</text><text fill="#000000" font-family="Verdana" font-size="14" font-weight="bold" lengthAdjust="spacing" textLength="84" x="507.5" y="1831.3701">Quy&#7873;n h&#7841;n</text><text fill="#000000" font-family="Verdana" font-size="14" lengthAdjust="spacing" textLength="112" x="591.5" y="1831.3701">: Admin (role 1)</text><text fill="#000000" font-family="Verdana" font-size="14" font-weight="bold" lengthAdjust="spacing" textLength="65" x="507.5" y="1848.3848">Ki&#7875;m tra</text><text fill="#000000" font-family="Verdana" font-size="14" lengthAdjust="spacing" textLength="153" x="572.5" y="1848.3848">: C&#7845;p 1 ph&#7843;i &#273;&#227; duy&#7879;t</text><text fill="#000000" font-family="Verdana" font-size="14" font-weight="bold" lengthAdjust="spacing" textLength="114" x="507.5" y="1865.3994">B&#432;&#7899;c ti&#7871;p theo</text><text fill="#000000" font-family="Verdana" font-size="14" lengthAdjust="spacing" textLength="274" x="621.5" y="1865.3994">: K&#7871; to&#225;n ph&#234; duy&#7879;t c&#7845;p 3 v&#224; gi&#7843;i ng&#226;n</text><!--SRC=[hLRVRzjK57xtNt4mBvkhgApZAGz8ZIFMQLlL2XSDAI-kSsLVwboxzdKWZmW997Xf7n18295GqCIWR8X9I8uG3wxoV_W_uTnhnxvEdAtTYDJ6iS-FxtpdE-VwBUwH4O7GjodJuXFAGZkoHt1iEoTk52HiQ0P-4C7RxykFOX6JquGmXpmYSMoxPDUdBWE7C4uYJUEK-mGCuuF-E-zsuM0l-mhwHn_byoyik3fRJFV1pDEV3s37C3JDTZWcq7U78yfqi6EGLnfcuTIXeSquw5QK_Suy62QJVFubbrQzAFWanbmDkzs3-x279i2zV7xEt2BUmNrjQ7Fxs8u9wEPY1d4-_n66-VmP-1Ij4sdMxscQJ0sTzvRHk_1XDWs0HpPpGJzCylI2WP_z0rVdYndJ1NOwjZcfq6ZbXOY1URlmC4z_cS3GHlHnDdEymXCSnFV3iXvmq2Y4dJgSW2ngmIZzNXUiA9d068tOqZtx2q7bwGnXSI-RqG7JpRQG2aIihz-3pX9OVmMIDYIggSok4h67J7tE9B5VA_MeRW9r2uMcJvqJ60iYI_Hv-eJ1fzclV0DTZaU1qppzbvSUM-1ZMeIAdRky7asOOoA-vay4Goy4KPGDs1Oya75FHIyXzBAdAvJTsSYOMQFQGg0Ldihn9WpM9MvcK5vquJ4PgUKtG0zO1_RTnNDiFLqjH3oxXsaSBqlLUrOsfQNmSVfy3eVeLt2DMR2n1qe23V2ptjDzBqylGt2NuR6xm3n9lQwwwz9V_bjjzJsiXS8aUvf8GIHjpTYHdWrwn0qMu8-8kXx7vN9amROTKlmBKMWsfm6Bjxjqk6qBr1sy7GLZKkCe1ICnF4O9ouRyYL_12M5h5Wz4qqPY0w1a4Dfdh6JZLXJWYhjpUosmKABYLHAFv6ONTNNUuhdTh0qL8twhWhFK2QzK9goQIgiGY6QQPJwPej752gFQIAkOZUDi5WYHVLji4k5wcbJWzSg_Qc8jpuQiPGXfJNpSjcPByKqi1L-6qSlJPxmOsmHSQWTYFwFayOHOsg-MN9Mz4ioKqXHglEIjeX93e6m1t8MRXwcubqqdQ_3LJbsTONsEalUb0A_EylatjBd0YqKtOFXZYYEeouXho_pDSvkUY8dzYkMHrdPetFq_yXY6d2rfoJOqT5t5wz4sQRNaoH5tsW8kLyK6qHRyDZSflfd8arabICW4DqCc3dkfQZRKD2djrQLfvVFVvB5-Jb- -CyNhmn0BgEq7x1RA_myBUaVv_3lpzWrs9b_9-fghCY8V4uTtV38cVcUdTQMzSaHRDz8RZQMbKjI1Xv8uxNgwr5vZvfHypP6xURfNoN_30h-Pv5lalb7gYb2MBwzIoqgCwXtM9ou-ArIZ6SQZx0MwfnU6qIrLtUYU5-JftyvwWke8Dmn49volUrGRnc5vr7gYMtNUwimrZFg45O-Nvqo83XUqUToWSCLA_zufthT2v944mgcUxJOvtfNlD2wL0PcR_SG4OGKrsdy0]--></g></svg>