<?xml version="1.0" encoding="us-ascii" standalone="no"?><svg xmlns="http://www.w3.org/2000/svg" xmlns:xlink="http://www.w3.org/1999/xlink" contentStyleType="text/css" height="1550px" preserveAspectRatio="none" style="width:693px;height:1550px;background:#FFFFFF;" version="1.1" viewBox="0 0 693 1550" width="693px" zoomAndPan="magnify"><defs/><g><text fill="#000000" font-family="Verdana" font-size="22" font-weight="bold" lengthAdjust="spacing" textLength="485" x="102.5" y="37.1182">AD08a: X&#193;C NH&#7852;N T&#192;I TR&#7906; (K&#7870; TO&#193;N)</text><rect fill="#FFFFFF" height="21.876" style="stroke:#FFFFFF;stroke-width:1.0;" width="670" x="10" y="55.0166"/><rect fill="#FFCCBC" height="1416.5161" style="stroke:#FFCCBC;stroke-width:1.0;" width="339" x="10" y="55.0166"/><ellipse cx="176.5" cy="91.8926" fill="#FFFFFF" rx="10" ry="10" style="stroke:#000000;stroke-width:1.0;"/><rect fill="#FFFFFF" height="33.3687" rx="12.5" ry="12.5" style="stroke:#000000;stroke-width:1.0;" width="147" x="103" y="121.8926"/><text fill="#000000" font-family="Verdana" font-size="11" lengthAdjust="spacing" textLength="127" x="113" y="142.9517">V&#224;o "X&#225;c nh&#7853;n t&#224;i tr&#7907;"</text><rect fill="#FFFFFF" height="46.7373" rx="12.5" ry="12.5" style="stroke:#000000;stroke-width:1.0;" width="147" x="103" y="175.2612"/><text fill="#000000" font-family="Verdana" font-size="11" lengthAdjust="spacing" textLength="127" x="113" y="196.3203">Xem danh s&#225;ch kho&#7843;n</text><text fill="#000000" font-family="Verdana" font-size="11" lengthAdjust="spacing" textLength="89" x="113" y="209.689">"Ch&#7901; x&#225;c nh&#7853;n"</text><rect fill="#FFFFFF" height="33.3687" rx="12.5" ry="12.5" style="stroke:#000000;stroke-width:1.0;" width="158" x="97.5" y="388.8418"/><text fill="#000000" font-family="Verdana" font-size="11" lengthAdjust="spacing" textLength="138" x="107.5" y="409.9009">Click v&#224;o kho&#7843;n c&#7847;n x&#233;t</text><rect fill="#FFFFFF" height="86.8433" rx="12.5" ry="12.5" style="stroke:#000000;stroke-width:1.0;" width="145" x="104" y="442.2104"/><text fill="#000000" font-family="Verdana" font-size="11" lengthAdjust="spacing" textLength="68" x="114" y="463.2695">Xem chi ti&#7871;t</text><text fill="#000000" font-family="Verdana" font-size="11" lengthAdjust="spacing" textLength="125" x="114" y="476.6382">- Th&#244;ng tin nh&#224; t&#224;i tr&#7907;</text><text fill="#000000" font-family="Verdana" font-size="11" lengthAdjust="spacing" textLength="49" x="114" y="490.0068">- S&#7889; ti&#7873;n</text><text fill="#000000" font-family="Verdana" font-size="11" lengthAdjust="spacing" textLength="118" x="114" y="503.3755">- Ch&#7913;ng t&#7915; &#273;&#237;nh k&#232;m</text><text fill="#000000" font-family="Verdana" font-size="11" lengthAdjust="spacing" textLength="57" x="114" y="516.7441">- L&#7901;i nh&#7855;n</text><rect fill="#FFFFFF" height="33.3687" rx="12.5" ry="12.5" style="stroke:#000000;stroke-width:1.0;" width="118" x="117.5" y="549.0537"/><text fill="#000000" font-family="Verdana" font-size="11" lengthAdjust="spacing" textLength="98" x="127.5" y="570.1128">M&#7903; xem ch&#7913;ng t&#7915;</text><rect fill="#FFFFFF" height="46.7373" rx="12.5" ry="12.5" style="stroke:#000000;stroke-width:1.0;" width="122" x="115.5" y="602.4224"/><text fill="#000000" font-family="Verdana" font-size="11" lengthAdjust="spacing" textLength="74" x="125.5" y="623.4814">&#272;&#7889;i chi&#7871;u v&#7899;i</text><text fill="#000000" font-family="Verdana" font-size="11" lengthAdjust="spacing" textLength="102" x="125.5" y="636.8501">sao k&#234; ng&#226;n h&#224;ng</text><polygon fill="#FFFFFF" points="138,669.1597,215,669.1597,227,682.5283,215,695.897,138,695.897,126,682.5283,138,669.1597" style="stroke:#000000;stroke-width:1.0;"/><text fill="#000000" font-family="Verdana" font-size="11" lengthAdjust="spacing" textLength="73" x="138" y="680.2188">&#272;&#227; nh&#7853;n ti&#7873;n</text><text fill="#000000" font-family="Verdana" font-size="11" lengthAdjust="spacing" textLength="45" x="138" y="693.5874">th&#7921;c t&#7871;?</text><text fill="#000000" font-family="Verdana" font-size="11" lengthAdjust="spacing" textLength="16" x="110" y="680.2188">C&#243;</text><text fill="#000000" font-family="Verdana" font-size="11" lengthAdjust="spacing" textLength="103" x="227" y="680.2188">Ch&#432;a/Kh&#244;ng kh&#7899;p</text><rect fill="#FFFFFF" height="33.3687" rx="12.5" ry="12.5" style="stroke:#000000;stroke-width:1.0;" width="115" x="34" y="715.897"/><text fill="#000000" font-family="Verdana" font-size="11" lengthAdjust="spacing" textLength="95" x="44" y="736.9561">Click "X&#225;c nh&#7853;n"</text><rect fill="#FFFFFF" height="33.3687" rx="12.5" ry="12.5" style="stroke:#000000;stroke-width:1.0;" width="146" x="18.5" y="769.2656"/><text fill="#000000" font-family="Verdana" font-size="11" lengthAdjust="spacing" textLength="126" x="28.5" y="790.3247">Nh&#7853;p ghi ch&#250; (n&#7871;u c&#243;)</text><rect fill="#FFFFFF" height="86.8433" rx="12.5" ry="12.5" style="stroke:#000000;stroke-width:1.0;" width="151" x="16" y="1160.6895"/><text fill="#000000" font-family="Verdana" font-size="11" lengthAdjust="spacing" textLength="116" x="26" y="1181.7485">Th&#244;ng b&#225;o x&#225;c nh&#7853;n</text><text fill="#000000" font-family="Verdana" font-size="11" lengthAdjust="spacing" textLength="63" x="26" y="1195.1172">th&#224;nh c&#244;ng</text><text fill="#000000" font-family="Verdana" font-size="11" lengthAdjust="spacing" textLength="131" x="26" y="1208.4858">- &#272;&#227; c&#7897;ng ti&#7873;n v&#224;o qu&#7929;</text><text fill="#000000" font-family="Verdana" font-size="11" lengthAdjust="spacing" textLength="92" x="26" y="1221.8545">- S&#7889; d&#432; qu&#7929; m&#7899;i</text><text fill="#000000" font-family="Verdana" font-size="11" lengthAdjust="spacing" textLength="80" x="26" y="1235.2231">- M&#227; giao d&#7883;ch</text><rect fill="#FFFFFF" height="33.3687" rx="12.5" ry="12.5" style="stroke:#000000;stroke-width:1.0;" width="103" x="210" y="715.897"/><text fill="#000000" font-family="Verdana" font-size="11" lengthAdjust="spacing" textLength="83" x="220" y="736.9561">Click "T&#7915; ch&#7889;i"</text><rect fill="#FFFFFF" height="46.7373" rx="12.5" ry="12.5" style="stroke:#000000;stroke-width:1.0;" width="123" x="200" y="769.2656"/><text fill="#000000" font-family="Verdana" font-size="11" lengthAdjust="spacing" textLength="103" x="210" y="790.3247">Nh&#7853;p l&#253; do t&#7915; ch&#7889;i</text><text fill="#000000" font-family="Verdana" font-size="11" lengthAdjust="spacing" textLength="71" x="210" y="803.6934">(B&#7854;T BU&#7896;C)</text><rect fill="#FFFFFF" height="33.3687" rx="12.5" ry="12.5" style="stroke:#000000;stroke-width:1.0;" width="129" x="197" y="898.0559"/><text fill="#000000" font-family="Verdana" font-size="11" lengthAdjust="spacing" textLength="109" x="207" y="919.115">Y&#234;u c&#7847;u nh&#7853;p l&#253; do</text><ellipse cx="261.5" cy="977.4246" fill="none" rx="11" ry="11" style="stroke:#000000;stroke-width:1.0;"/><ellipse cx="261.5" cy="977.4246" fill="#FFFFFF" rx="6" ry="6" style="stroke:#000000;stroke-width:1.0;"/><polygon fill="#FFFFFF" points="218.5,849.3716,304.5,849.3716,316.5,861.3716,304.5,873.3716,218.5,873.3716,206.5,861.3716,218.5,849.3716" style="stroke:#000000;stroke-width:1.0;"/><text fill="#000000" font-family="Verdana" font-size="11" lengthAdjust="spacing" textLength="30" x="265.5" y="884.4307">Ch&#432;a</text><text fill="#000000" font-family="Verdana" font-size="11" lengthAdjust="spacing" textLength="86" x="218.5" y="865.7463">&#272;&#227; nh&#7853;p l&#253; do?</text><rect fill="#FFFFFF" height="46.7373" rx="12.5" ry="12.5" style="stroke:#000000;stroke-width:1.0;" width="145" x="189" y="1295.4268"/><text fill="#000000" font-family="Verdana" font-size="11" lengthAdjust="spacing" textLength="58" x="199" y="1316.4858">&#272;&#227; t&#7915; ch&#7889;i</text><text fill="#000000" font-family="Verdana" font-size="11" lengthAdjust="spacing" textLength="125" x="199" y="1329.8545">Qu&#7929; gi&#7919; nguy&#234;n s&#7889; d&#432;</text><polygon fill="#FFFFFF" points="176.5,1352.1641,188.5,1364.1641,176.5,1376.1641,164.5,1364.1641,176.5,1352.1641" style="stroke:#000000;stroke-width:1.0;"/><rect fill="#FFFFFF" height="33.3687" rx="12.5" ry="12.5" style="stroke:#000000;stroke-width:1.0;" width="129" x="112" y="1396.1641"/><text fill="#000000" font-family="Verdana" font-size="11" lengthAdjust="spacing" textLength="109" x="122" y="1417.2231">Quay l&#7841;i danh s&#225;ch</text><ellipse cx="176.5" cy="1460.5327" fill="none" rx="11" ry="11" style="stroke:#000000;stroke-width:1.0;"/><ellipse cx="176.5" cy="1460.5327" fill="#FFFFFF" rx="6" ry="6" style="stroke:#000000;stroke-width:1.0;"/><line style="stroke:#000000;stroke-width:1.0;" x1="10" x2="10" y1="55.0166" y2="1471.5327"/><rect fill="#F5F5F5" height="1416.5161" style="stroke:#F5F5F5;stroke-width:1.0;" width="317" x="349" y="55.0166"/><rect fill="#FFFFFF" height="46.7373" rx="12.5" ry="12.5" style="stroke:#000000;stroke-width:1.0;" width="141" x="441" y="241.9985"/><text fill="#000000" font-family="Verdana" font-size="11" lengthAdjust="spacing" textLength="121" x="451" y="263.0576">L&#7845;y danh s&#225;ch kho&#7843;n</text><text fill="#000000" font-family="Verdana" font-size="11" lengthAdjust="spacing" textLength="108" x="451" y="276.4263">&#273;ang ch&#7901; x&#225;c nh&#7853;n</text><rect fill="#FFFFFF" height="60.106" rx="12.5" ry="12.5" style="stroke:#000000;stroke-width:1.0;" width="128" x="447.5" y="308.7358"/><text fill="#000000" font-family="Verdana" font-size="11" lengthAdjust="spacing" textLength="97" x="457.5" y="329.7949">Hi&#7875;n th&#7883; th&#244;ng tin</text><text fill="#000000" font-family="Verdana" font-size="11" lengthAdjust="spacing" textLength="84" x="457.5" y="343.1636">M&#227;, Nh&#224; t&#224;i tr&#7907;</text><text fill="#000000" font-family="Verdana" font-size="11" lengthAdjust="spacing" textLength="108" x="457.5" y="356.5322">Qu&#7929;, S&#7889; ti&#7873;n, Ng&#224;y</text><rect fill="#FFFFFF" height="33.3687" rx="12.5" ry="12.5" style="stroke:#000000;stroke-width:1.0;" width="143" x="355" y="836.0029"/><text fill="#000000" font-family="Verdana" font-size="11" lengthAdjust="spacing" textLength="123" x="365" y="857.062">L&#432;u k&#7871;t qu&#7843; x&#225;c nh&#7853;n</text><rect fill="#FFFFFF" height="46.7373" rx="12.5" ry="12.5" style="stroke:#000000;stroke-width:1.0;" width="131" x="361" y="904.3716"/><text fill="#000000" font-family="Verdana" font-size="11" lengthAdjust="spacing" textLength="111" x="371" y="925.4307">C&#7853;p nh&#7853;t tr&#7841;ng th&#225;i</text><text fill="#000000" font-family="Verdana" font-size="11" lengthAdjust="spacing" textLength="58" x="371" y="938.7993">"&#272;&#227; nh&#7853;n"</text><rect fill="#FFFFFF" height="33.3687" rx="12.5" ry="12.5" style="stroke:#000000;stroke-width:1.0;" width="125" x="364" y="986.1089"/><text fill="#000000" font-family="Verdana" font-size="11" lengthAdjust="spacing" textLength="105" x="374" y="1007.168">C&#7897;ng ti&#7873;n v&#224;o qu&#7929;</text><rect fill="#FFFFFF" height="33.3687" rx="12.5" ry="12.5" style="stroke:#000000;stroke-width:1.0;" width="123" x="365" y="1039.8462"/><text fill="#000000" font-family="Verdana" font-size="11" lengthAdjust="spacing" textLength="103" x="375" y="1060.9053">T&#7841;o giao d&#7883;ch THU</text><rect fill="#FFFFFF" height="46.7373" rx="12.5" ry="12.5" style="stroke:#000000;stroke-width:1.0;" width="120" x="366.5" y="1093.5835"/><text fill="#000000" font-family="Verdana" font-size="11" lengthAdjust="spacing" textLength="100" x="376.5" y="1114.6426">G&#7917;i email c&#7843;m &#417;n</text><text fill="#000000" font-family="Verdana" font-size="11" lengthAdjust="spacing" textLength="59" x="376.5" y="1128.0112">nh&#224; t&#224;i tr&#7907;</text><rect fill="#FFFFFF" height="33.3687" rx="12.5" ry="12.5" style="stroke:#000000;stroke-width:1.0;" width="129" x="532" y="1039.4775"/><text fill="#000000" font-family="Verdana" font-size="11" lengthAdjust="spacing" textLength="109" x="542" y="1060.5366">L&#432;u k&#7871;t qu&#7843; t&#7915; ch&#7889;i</text><rect fill="#FFFFFF" height="46.7373" rx="12.5" ry="12.5" style="stroke:#000000;stroke-width:1.0;" width="131" x="531" y="1093.2148"/><text fill="#000000" font-family="Verdana" font-size="11" lengthAdjust="spacing" textLength="111" x="541" y="1114.2739">C&#7853;p nh&#7853;t tr&#7841;ng th&#225;i</text><text fill="#000000" font-family="Verdana" font-size="11" lengthAdjust="spacing" textLength="51" x="541" y="1127.6426">"T&#7915; ch&#7889;i"</text><rect fill="#FFFFFF" height="33.3687" rx="12.5" ry="12.5" style="stroke:#000000;stroke-width:1.0;" width="118" x="537.5" y="1160.3208"/><text fill="#000000" font-family="Verdana" font-size="11" lengthAdjust="spacing" textLength="98" x="547.5" y="1181.3799">KH&#212;NG c&#7897;ng ti&#7873;n</text><rect fill="#FFFFFF" height="46.7373" rx="12.5" ry="12.5" style="stroke:#000000;stroke-width:1.0;" width="103" x="545" y="1228.6895"/><text fill="#000000" font-family="Verdana" font-size="11" lengthAdjust="spacing" textLength="80" x="555" y="1249.7485">G&#7917;i th&#244;ng b&#225;o</text><text fill="#000000" font-family="Verdana" font-size="11" lengthAdjust="spacing" textLength="83" x="555" y="1263.1172">cho nh&#224; t&#224;i tr&#7907;</text><line style="stroke:#000000;stroke-width:1.0;" x1="349" x2="349" y1="55.0166" y2="1471.5327"/><line style="stroke:#000000;stroke-width:1.0;" x1="681" x2="681" y1="55.0166" y2="1471.5327"/><line style="stroke:#000000;stroke-width:1.0;" x1="176.5" x2="176.5" y1="101.8926" y2="121.8926"/><polygon fill="#000000" points="172.5,111.8926,176.5,121.8926,180.5,111.8926,176.5,115.8926" style="stroke:#000000;stroke-width:1.0;"/><line style="stroke:#000000;stroke-width:1.0;" x1="176.5" x2="176.5" y1="155.2612" y2="175.2612"/><polygon fill="#000000" points="172.5,165.2612,176.5,175.2612,180.5,165.2612,176.5,169.2612" style="stroke:#000000;stroke-width:1.0;"/><line style="stroke:#000000;stroke-width:1.0;" x1="176.5" x2="176.5" y1="422.2104" y2="442.2104"/><polygon fill="#000000" points="172.5,432.2104,176.5,442.2104,180.5,432.2104,176.5,436.2104" style="stroke:#000000;stroke-width:1.0;"/><line style="stroke:#000000;stroke-width:1.0;" x1="176.5" x2="176.5" y1="529.0537" y2="549.0537"/><polygon fill="#000000" points="172.5,539.0537,176.5,549.0537,180.5,539.0537,176.5,543.0537" style="stroke:#000000;stroke-width:1.0;"/><line style="stroke:#000000;stroke-width:1.0;" x1="176.5" x2="176.5" y1="582.4224" y2="602.4224"/><polygon fill="#000000" points="172.5,592.4224,176.5,602.4224,180.5,592.4224,176.5,596.4224" style="stroke:#000000;stroke-width:1.0;"/><line style="stroke:#000000;stroke-width:1.0;" x1="91.5" x2="91.5" y1="749.2656" y2="769.2656"/><polygon fill="#000000" points="87.5,759.2656,91.5,769.2656,95.5,759.2656,91.5,763.2656" style="stroke:#000000;stroke-width:1.0;"/><line style="stroke:#000000;stroke-width:1.0;" x1="261.5" x2="261.5" y1="749.2656" y2="769.2656"/><polygon fill="#000000" points="257.5,759.2656,261.5,769.2656,265.5,759.2656,261.5,763.2656" style="stroke:#000000;stroke-width:1.0;"/><line style="stroke:#000000;stroke-width:1.0;" x1="261.5" x2="261.5" y1="931.4246" y2="966.4246"/><polygon fill="#000000" points="257.5,956.4246,261.5,966.4246,265.5,956.4246,261.5,960.4246" style="stroke:#000000;stroke-width:1.0;"/><line style="stroke:#000000;stroke-width:1.0;" x1="261.5" x2="261.5" y1="873.3716" y2="898.0559"/><polygon fill="#000000" points="257.5,888.0559,261.5,898.0559,265.5,888.0559,261.5,892.0559" style="stroke:#000000;stroke-width:1.0;"/><line style="stroke:#000000;stroke-width:1.0;" x1="316.5" x2="596.5" y1="861.3716" y2="861.3716"/><polygon fill="#000000" points="592.5,947.7402,596.5,957.7402,600.5,947.7402,596.5,951.7402" style="stroke:#000000;stroke-width:1.0;"/><line style="stroke:#000000;stroke-width:1.0;" x1="596.5" x2="596.5" y1="861.3716" y2="1039.4775"/><polygon fill="#000000" points="592.5,1029.4775,596.5,1039.4775,600.5,1029.4775,596.5,1033.4775" style="stroke:#000000;stroke-width:1.0;"/><line style="stroke:#000000;stroke-width:1.0;" x1="261.5" x2="261.5" y1="816.0029" y2="849.3716"/><polygon fill="#000000" points="257.5,839.3716,261.5,849.3716,265.5,839.3716,261.5,843.3716" style="stroke:#000000;stroke-width:1.0;"/><line style="stroke:#000000;stroke-width:1.0;" x1="126" x2="91.5" y1="682.5283" y2="682.5283"/><line style="stroke:#000000;stroke-width:1.0;" x1="91.5" x2="91.5" y1="682.5283" y2="715.897"/><polygon fill="#000000" points="87.5,705.897,91.5,715.897,95.5,705.897,91.5,709.897" style="stroke:#000000;stroke-width:1.0;"/><line style="stroke:#000000;stroke-width:1.0;" x1="227" x2="261.5" y1="682.5283" y2="682.5283"/><line style="stroke:#000000;stroke-width:1.0;" x1="261.5" x2="261.5" y1="682.5283" y2="715.897"/><polygon fill="#000000" points="257.5,705.897,261.5,715.897,265.5,705.897,261.5,709.897" style="stroke:#000000;stroke-width:1.0;"/><line style="stroke:#000000;stroke-width:1.0;" x1="91.5" x2="91.5" y1="1247.5327" y2="1364.1641"/><line style="stroke:#000000;stroke-width:1.0;" x1="91.5" x2="164.5" y1="1364.1641" y2="1364.1641"/><polygon fill="#000000" points="154.5,1360.1641,164.5,1364.1641,154.5,1368.1641,158.5,1364.1641" style="stroke:#000000;stroke-width:1.0;"/><line style="stroke:#000000;stroke-width:1.0;" x1="261.5" x2="261.5" y1="1342.1641" y2="1364.1641"/><line style="stroke:#000000;stroke-width:1.0;" x1="261.5" x2="188.5" y1="1364.1641" y2="1364.1641"/><polygon fill="#000000" points="198.5,1360.1641,188.5,1364.1641,198.5,1368.1641,194.5,1364.1641" style="stroke:#000000;stroke-width:1.0;"/><line style="stroke:#000000;stroke-width:1.0;" x1="176.5" x2="176.5" y1="649.1597" y2="669.1597"/><polygon fill="#000000" points="172.5,659.1597,176.5,669.1597,180.5,659.1597,176.5,663.1597" style="stroke:#000000;stroke-width:1.0;"/><line style="stroke:#000000;stroke-width:1.0;" x1="176.5" x2="176.5" y1="1376.1641" y2="1396.1641"/><polygon fill="#000000" points="172.5,1386.1641,176.5,1396.1641,180.5,1386.1641,176.5,1390.1641" style="stroke:#000000;stroke-width:1.0;"/><line style="stroke:#000000;stroke-width:1.0;" x1="176.5" x2="176.5" y1="1429.5327" y2="1449.5327"/><polygon fill="#000000" points="172.5,1439.5327,176.5,1449.5327,180.5,1439.5327,176.5,1443.5327" style="stroke:#000000;stroke-width:1.0;"/><line style="stroke:#000000;stroke-width:1.0;" x1="511.5" x2="511.5" y1="288.7358" y2="308.7358"/><polygon fill="#000000" points="507.5,298.7358,511.5,308.7358,515.5,298.7358,511.5,302.7358" style="stroke:#000000;stroke-width:1.0;"/><line style="stroke:#000000;stroke-width:1.0;" x1="426.5" x2="426.5" y1="869.3716" y2="904.3716"/><polygon fill="#000000" points="422.5,894.3716,426.5,904.3716,430.5,894.3716,426.5,898.3716" style="stroke:#000000;stroke-width:1.0;"/><line style="stroke:#000000;stroke-width:1.0;" x1="426.5" x2="426.5" y1="951.1089" y2="986.1089"/><polygon fill="#000000" points="422.5,976.1089,426.5,986.1089,430.5,976.1089,426.5,980.1089" style="stroke:#000000;stroke-width:1.0;"/><line style="stroke:#000000;stroke-width:1.0;" x1="426.5" x2="426.5" y1="1019.4775" y2="1039.8462"/><polygon fill="#000000" points="422.5,1029.8462,426.5,1039.8462,430.5,1029.8462,426.5,1033.8462" style="stroke:#000000;stroke-width:1.0;"/><line style="stroke:#000000;stroke-width:1.0;" x1="426.5" x2="426.5" y1="1073.2148" y2="1093.5835"/><polygon fill="#000000" points="422.5,1083.5835,426.5,1093.5835,430.5,1083.5835,426.5,1087.5835" style="stroke:#000000;stroke-width:1.0;"/><line style="stroke:#000000;stroke-width:1.0;" x1="596.5" x2="596.5" y1="1072.8462" y2="1093.2148"/><polygon fill="#000000" points="592.5,1083.2148,596.5,1093.2148,600.5,1083.2148,596.5,1087.2148" style="stroke:#000000;stroke-width:1.0;"/><line style="stroke:#000000;stroke-width:1.0;" x1="596.5" x2="596.5" y1="1139.9521" y2="1160.3208"/><polygon fill="#000000" points="592.5,1150.3208,596.5,1160.3208,600.5,1150.3208,596.5,1154.3208" style="stroke:#000000;stroke-width:1.0;"/><line style="stroke:#000000;stroke-width:1.0;" x1="596.5" x2="596.5" y1="1193.6895" y2="1228.6895"/><polygon fill="#000000" points="592.5,1218.6895,596.5,1228.6895,600.5,1218.6895,596.5,1222.6895" style="stroke:#000000;stroke-width:1.0;"/><line style="stroke:#000000;stroke-width:1.0;" x1="176.5" x2="176.5" y1="221.9985" y2="226.9985"/><line style="stroke:#000000;stroke-width:1.0;" x1="176.5" x2="511.5" y1="226.9985" y2="226.9985"/><line style="stroke:#000000;stroke-width:1.0;" x1="511.5" x2="511.5" y1="226.9985" y2="241.9985"/><polygon fill="#000000" points="507.5,231.9985,511.5,241.9985,515.5,231.9985,511.5,235.9985" style="stroke:#000000;stroke-width:1.0;"/><line style="stroke:#000000;stroke-width:1.0;" x1="511.5" x2="511.5" y1="368.8418" y2="373.8418"/><line style="stroke:#000000;stroke-width:1.0;" x1="511.5" x2="176.5" y1="373.8418" y2="373.8418"/><line style="stroke:#000000;stroke-width:1.0;" x1="176.5" x2="176.5" y1="373.8418" y2="388.8418"/><polygon fill="#000000" points="172.5,378.8418,176.5,388.8418,180.5,378.8418,176.5,382.8418" style="stroke:#000000;stroke-width:1.0;"/><line style="stroke:#000000;stroke-width:1.0;" x1="91.5" x2="91.5" y1="802.6343" y2="820.1343"/><line style="stroke:#000000;stroke-width:1.0;" x1="91.5" x2="426.5" y1="820.1343" y2="820.1343"/><line style="stroke:#000000;stroke-width:1.0;" x1="426.5" x2="426.5" y1="820.1343" y2="836.0029"/><polygon fill="#000000" points="422.5,826.0029,426.5,836.0029,430.5,826.0029,426.5,830.0029" style="stroke:#000000;stroke-width:1.0;"/><line style="stroke:#000000;stroke-width:1.0;" x1="426.5" x2="426.5" y1="1140.3208" y2="1145.3208"/><line style="stroke:#000000;stroke-width:1.0;" x1="426.5" x2="91.5" y1="1145.3208" y2="1145.3208"/><line style="stroke:#000000;stroke-width:1.0;" x1="91.5" x2="91.5" y1="1145.3208" y2="1160.6895"/><polygon fill="#000000" points="87.5,1150.6895,91.5,1160.6895,95.5,1150.6895,91.5,1154.6895" style="stroke:#000000;stroke-width:1.0;"/><line style="stroke:#000000;stroke-width:1.0;" x1="596.5" x2="596.5" y1="1275.4268" y2="1280.4268"/><line style="stroke:#000000;stroke-width:1.0;" x1="596.5" x2="261.5" y1="1280.4268" y2="1280.4268"/><line style="stroke:#000000;stroke-width:1.0;" x1="261.5" x2="261.5" y1="1280.4268" y2="1295.4268"/><polygon fill="#000000" points="257.5,1285.4268,261.5,1295.4268,265.5,1285.4268,261.5,1289.4268" style="stroke:#000000;stroke-width:1.0;"/><text fill="#000000" font-family="Verdana" font-size="18" lengthAdjust="spacing" textLength="69" x="145" y="73.1133">K&#7871; to&#225;n</text><text fill="#000000" font-family="Verdana" font-size="18" lengthAdjust="spacing" textLength="82" x="466.5" y="73.1133">H&#7879; th&#7889;ng</text><rect fill="none" height="61.0439" id="_legend" rx="7.5" ry="7.5" style="stroke:#000000;stroke-width:1.0;" width="374" x="306" y="1476.5327"/><text fill="#000000" font-family="Verdana" font-size="14" font-weight="bold" lengthAdjust="spacing" textLength="56" x="311" y="1495.6079">Quy&#7873;n:</text><text fill="#000000" font-family="Verdana" font-size="14" lengthAdjust="spacing" textLength="112" x="372" y="1495.6079">K&#7871; to&#225;n (role 2)</text><text fill="#000000" font-family="Verdana" font-size="14" font-weight="bold" lengthAdjust="spacing" textLength="35" x="311" y="1512.6226">API:</text><text fill="#000000" font-family="Verdana" font-size="14" lengthAdjust="spacing" textLength="216" x="351" y="1512.6226">PUT /api/donations/:id/confirm</text><text fill="#000000" font-family="Verdana" font-size="14" font-weight="bold" lengthAdjust="spacing" textLength="95" x="311" y="1529.6372">Quan tr&#7885;ng:</text><text fill="#000000" font-family="Verdana" font-size="14" lengthAdjust="spacing" textLength="264" x="411" y="1529.6372">C&#7897;ng ti&#7873;n t&#7921; &#273;&#7897;ng, t&#7841;o giao d&#7883;ch THU</text><!--SRC=[bLHFRzCm5B_xKppAfQisTI0XeVQ0M11qsYWCCXX7ByaIgubJ6cTGr0CJ1mu8YKaSG0YnKY7OO3045nB13fxsFVnDU7OBJHcJeAsgnE_vlT-VPvyGWHTvq0ufuoHfCTwc7Hh1AdLQVYTEkMl5OTo1anVDfv117S7McUXUZBcupkvvSEfK8PhSOL58kNUJkIA0qsTc2H5CX1vKAkSlp9wbDLYH6nOq6ohxq0HRtfy7-vhANqDvGMK_mBuYDvfJbGeXFUniMNDM3zVtGSIoptia4RGZIEs6t8gXj2Bx3l10PRiSXDnY83eg7vJgfBRYHU1I7a22AG6qWbXb0qvALg3obt1tl0-JTQCp-jjhgFmX24pPv7wFr1PLzgRxjp87cvJxuFnP2_iscCeVS5FZ4VxBhvWdKDxBSZ0DpK1k5N2IfLJbtwRXElR399LlSCpnvLQtVWpvcXKofmNhclm82pWgUyiHnROOqNO2fgjb-uBCWFqR0cASx3vJR8nlMffjdQlozt2mANUHTak-Yp2qY4IP8Vb9axoiybTmrxGQRy7rWoTOa6a0s3s5TPM_O2IXY5Nk0FVbQmw8WVj8Zwr1-U297Fnspw00eeNxx631RF_S50heSIXRyiiK0HYHBvgEvk5wKp-tmGzqQvb1cPls3cxJSVmTOp3kNJpSIw6bnOBRAUevQQTkQcgR1Q65o_gQRo3x3AEb0eNIA3r_RlGsT8nHjxNB9cZZxXXyXeguE1yuK7PZsKGkgNoNWHTH5cf31n4SzZa6_l1iJEVeREZwGxDN9NOfyC2GqBe7A0d6yNK6373d6B0cmmo7UxWtN8B8cAa3ECf53WQJ5oOU6XKSxj7gmX152rL-qIuQP-l1qYEpoIQC2-LtSEFXt0t362pFgUoZ3NFBAdzc_V9nScf-xHmFYkwlEsBjMt8dDMSZdKokct0YuZO-UDnbQ_yz8WMW_p0YHrWlDEJJvgL9yGj38COcug8JnFyv14QVIItDFOEUgVmJ7iEqAtSu92DxwsGe0gajfRGB8Q9dXIklJenK9FHyp8CEymD1AfMbjAjXroeL6BU7SYV6Q_xq52QSlpglWrUNRQZIDgkwCQU2nJofrfXRTMA-nZgHAKIveVMO-th3vFb16f_nAZ9hq_fIE7fyDFmXEF8J]--></g></svg>