<?xml version="1.0" encoding="us-ascii" standalone="no"?><svg xmlns="http://www.w3.org/2000/svg" xmlns:xlink="http://www.w3.org/1999/xlink" contentStyleType="text/css" height="2313px" preserveAspectRatio="none" style="width:854px;height:2313px;background:#FFFFFF;" version="1.1" viewBox="0 0 854 2313" width="854px" zoomAndPan="magnify"><defs/><g><text fill="#000000" font-family="Verdana" font-size="22" font-weight="bold" lengthAdjust="spacing" textLength="674" x="85.5" y="37.1182">USE CASE DIAGRAM &#8212; TVU Fund Management System</text><!--cluster H? th?ng TVU Fund Management--><g id="cluster_H&#7879; th&#7889;ng TVU Fund Management"><rect fill="#F5F5F5" height="1983" rx="2.5" ry="2.5" style="stroke:#AAAAAA;stroke-width:1.0;" width="540" x="308" y="153.2373"/><text fill="#000000" font-family="Verdana" font-size="14" font-weight="bold" lengthAdjust="spacing" textLength="256" x="450" y="169.3125">H&#7879; th&#7889;ng TVU Fund Management</text></g><!--cluster PKG_AUTH--><g id="cluster_PKG_AUTH"><rect fill="#F5F5F5" height="281" rx="2.5" ry="2.5" style="stroke:#AAAAAA;stroke-width:1.0;" width="202" x="621.5" y="197.2373"/><text fill="#000000" font-family="Verdana" font-size="14" font-weight="bold" lengthAdjust="spacing" textLength="134" x="655.5" y="213.3125">X&#225;c th&#7921;c &amp; H&#7891; s&#417;</text></g><!--cluster PKG_SV--><g id="cluster_PKG_SV"><rect fill="#F5F5F5" height="162" rx="2.5" ry="2.5" style="stroke:#AAAAAA;stroke-width:1.0;" width="462" x="360.5" y="502.2373"/><text fill="#000000" font-family="Verdana" font-size="14" font-weight="bold" lengthAdjust="spacing" textLength="123" x="530" y="518.3125">H&#7895; tr&#7907; sinh vi&#234;n</text></g><!--cluster PKG_PHE--><g id="cluster_PKG_PHE"><rect fill="#F5F5F5" height="310" rx="2.5" ry="2.5" style="stroke:#AAAAAA;stroke-width:1.0;" width="265" x="332" y="1006.2373"/><text fill="#000000" font-family="Verdana" font-size="14" font-weight="bold" lengthAdjust="spacing" textLength="172" x="378.5" y="1022.3125">Ph&#234; duy&#7879;t &amp; Gi&#7843;i ng&#226;n</text></g><!--cluster PKG_TT--><g id="cluster_PKG_TT"><rect fill="#F5F5F5" height="224" rx="2.5" ry="2.5" style="stroke:#AAAAAA;stroke-width:1.0;" width="465" x="359" y="1340.2373"/><text fill="#000000" font-family="Verdana" font-size="14" font-weight="bold" lengthAdjust="spacing" textLength="51" x="566" y="1356.3125">T&#224;i tr&#7907;</text></g><!--cluster PKG_QUY--><g id="cluster_PKG_QUY"><rect fill="#F5F5F5" height="294" rx="2.5" ry="2.5" style="stroke:#AAAAAA;stroke-width:1.0;" width="231" x="349" y="688.2373"/><text fill="#000000" font-family="Verdana" font-size="14" font-weight="bold" lengthAdjust="spacing" textLength="93" x="418" y="704.3125">Qu&#7843;n l&#253; qu&#7929;</text></g><!--cluster PKG_TC--><g id="cluster_PKG_TC"><rect fill="#F5F5F5" height="284" rx="2.5" ry="2.5" style="stroke:#AAAAAA;stroke-width:1.0;" width="203" x="621" y="1828.2373"/><text fill="#000000" font-family="Verdana" font-size="14" font-weight="bold" lengthAdjust="spacing" textLength="154" x="645.5" y="1844.3125">T&#224;i ch&#237;nh &amp; B&#225;o c&#225;o</text></g><!--cluster PKG_AD--><g id="cluster_PKG_AD"><rect fill="#F5F5F5" height="524" rx="2.5" ry="2.5" style="stroke:#AAAAAA;stroke-width:1.0;" width="243" x="343" y="1588.2373"/><text fill="#000000" font-family="Verdana" font-size="14" font-weight="bold" lengthAdjust="spacing" textLength="138" x="395.5" y="1604.3125">Qu&#7843;n tr&#7883; h&#7879; th&#7889;ng</text></g><g id="elem_UC01"><ellipse cx="722.4107" cy="253.1194" fill="#FFF9E6" rx="84.9107" ry="19.3821" style="stroke:#000000;stroke-width:1.0;"/><text fill="#000000" font-family="Verdana" font-size="14" lengthAdjust="spacing" textLength="128" x="658.4107" y="256.6873">&#272;&#259;ng k&#253; t&#224;i kho&#7843;n</text></g><g id="elem_UC02"><ellipse cx="722.5541" cy="446.1481" fill="#FFF9E6" rx="65.0541" ry="15.4108" style="stroke:#000000;stroke-width:1.0;"/><text fill="#000000" font-family="Verdana" font-size="14" lengthAdjust="spacing" textLength="77" x="681.0541" y="450.4357">&#272;&#259;ng nh&#7853;p</text></g><g id="elem_UC03"><ellipse cx="722.5446" cy="384.3462" fill="#FFF9E6" rx="71.0446" ry="16.6089" style="stroke:#000000;stroke-width:1.0;"/><text fill="#000000" font-family="Verdana" font-size="14" lengthAdjust="spacing" textLength="94" x="673.4035" y="388.4477">&#272;&#7893;i m&#7853;t kh&#7849;u</text></g><g id="elem_UC04"><ellipse cx="722.5625" cy="320.1498" fill="#FFF9E6" rx="72.5625" ry="16.9125" style="stroke:#000000;stroke-width:1.0;"/><text fill="#000000" font-family="Verdana" font-size="14" lengthAdjust="spacing" textLength="98" x="672.2528" y="324.0564">Qu&#7843;n l&#253; h&#7891; s&#417;</text></g><g id="elem_UC05"><ellipse cx="464.4212" cy="558.2215" fill="#FFF9E6" rx="87.9212" ry="19.9842" style="stroke:#000000;stroke-width:1.0;"/><text fill="#000000" font-family="Verdana" font-size="14" lengthAdjust="spacing" textLength="135" x="396.9212" y="561.7894">N&#7897;p &#273;&#417;n xin h&#7895; tr&#7907;</text></g><g id="elem_UC06"><ellipse cx="722.5578" cy="558.4489" fill="#FFF9E6" rx="84.0578" ry="19.2116" style="stroke:#000000;stroke-width:1.0;"/><text fill="#000000" font-family="Verdana" font-size="14" lengthAdjust="spacing" textLength="126" x="659.5578" y="562.0167">AI h&#7895; tr&#7907; vi&#7871;t &#273;&#417;n</text></g><g id="elem_UC07"><ellipse cx="464.4107" cy="628.1194" fill="#FFF9E6" rx="84.9107" ry="19.3821" style="stroke:#000000;stroke-width:1.0;"/><text fill="#000000" font-family="Verdana" font-size="14" lengthAdjust="spacing" textLength="128" x="400.4107" y="631.6873">Xem &#273;&#417;n &amp; l&#7883;ch s&#7917;</text></g><g id="elem_UC09"><ellipse cx="464.2839" cy="1063.0941" fill="#FFF9E6" rx="92.2839" ry="20.8568" style="stroke:#000000;stroke-width:1.0;"/><text fill="#000000" font-family="Verdana" font-size="14" lengthAdjust="spacing" textLength="145" x="391.7839" y="1066.662">Ph&#234; duy&#7879;t &#273;&#417;n c&#7845;p 1</text></g><g id="elem_UC10"><ellipse cx="464.2839" cy="1279.0941" fill="#FFF9E6" rx="92.2839" ry="20.8568" style="stroke:#000000;stroke-width:1.0;"/><text fill="#000000" font-family="Verdana" font-size="14" lengthAdjust="spacing" textLength="145" x="391.7839" y="1282.662">Ph&#234; duy&#7879;t &#273;&#417;n c&#7845;p 2</text></g><g id="elem_UC11"><ellipse cx="464.2889" cy="1140.3951" fill="#FFF9E6" rx="116.2889" ry="25.6578" style="stroke:#000000;stroke-width:1.0;"/><text fill="#000000" font-family="Verdana" font-size="14" lengthAdjust="spacing" textLength="198" x="365.2889" y="1143.9629">Ph&#234; duy&#7879;t c&#7845;p 3 &amp; Gi&#7843;i ng&#226;n</text></g><g id="elem_UC12"><ellipse cx="464.4474" cy="1212.1268" fill="#FFF9E6" rx="67.4474" ry="15.8895" style="stroke:#000000;stroke-width:1.0;"/><text fill="#000000" font-family="Verdana" font-size="14" lengthAdjust="spacing" textLength="84" x="419.4474" y="1216.4144">T&#7915; ch&#7889;i &#273;&#417;n</text></g><g id="elem_UC13"><ellipse cx="464.658" cy="1397.0689" fill="#FFF9E6" rx="89.658" ry="20.3316" style="stroke:#000000;stroke-width:1.0;"/><text fill="#000000" font-family="Verdana" font-size="14" lengthAdjust="spacing" textLength="139" x="395.158" y="1400.6368">Quy&#234;n g&#243;p / T&#224;i tr&#7907;</text></g><g id="elem_UC14"><ellipse cx="464.6017" cy="1466.3576" fill="#FFF9E6" rx="78.6017" ry="18.1203" style="stroke:#000000;stroke-width:1.0;"/><text fill="#000000" font-family="Verdana" font-size="14" lengthAdjust="spacing" textLength="113" x="408.1017" y="1469.9255">X&#225;c nh&#7853;n t&#224;i tr&#7907;</text></g><g id="elem_UC15"><ellipse cx="464.3393" cy="1531.3052" fill="#FFF9E6" rx="73.3393" ry="17.0679" style="stroke:#000000;stroke-width:1.0;"/><text fill="#000000" font-family="Verdana" font-size="14" lengthAdjust="spacing" textLength="100" x="413.4315" y="1535.112">T&#7915; ch&#7889;i t&#224;i tr&#7907;</text></g><g id="elem_UC16"><ellipse cx="722.3384" cy="1466.205" fill="#FFF9E6" rx="85.3384" ry="19.4677" style="stroke:#000000;stroke-width:1.0;"/><text fill="#000000" font-family="Verdana" font-size="14" lengthAdjust="spacing" textLength="129" x="657.8384" y="1469.7729">Xem l&#7883;ch s&#7917; t&#224;i tr&#7907;</text></g><g id="elem_UC17"><ellipse cx="464.5035" cy="950.338" fill="#FFF9E6" rx="68.5035" ry="16.1007" style="stroke:#000000;stroke-width:1.0;"/><text fill="#000000" font-family="Verdana" font-size="14" lengthAdjust="spacing" textLength="87" x="418.0035" y="954.6256">T&#7841;o qu&#7929; m&#7899;i</text></g><g id="elem_UC18"><ellipse cx="464.658" cy="745.0689" fill="#FFF9E6" rx="89.658" ry="20.3316" style="stroke:#000000;stroke-width:1.0;"/><text fill="#000000" font-family="Verdana" font-size="14" lengthAdjust="spacing" textLength="139" x="395.158" y="748.6368">Xem danh s&#225;ch qu&#7929;</text></g><g id="elem_UC19"><ellipse cx="464.4195" cy="812.4212" fill="#FFF9E6" rx="71.4195" ry="16.6839" style="stroke:#000000;stroke-width:1.0;"/><text fill="#000000" font-family="Verdana" font-size="14" lengthAdjust="spacing" textLength="95" x="414.9897" y="816.4745">C&#7853;p nh&#7853;t qu&#7929;</text></g><g id="elem_UC20"><ellipse cx="464.393" cy="881.0159" fill="#FFF9E6" rx="99.393" ry="22.2786" style="stroke:#000000;stroke-width:1.0;"/><text fill="#000000" font-family="Verdana" font-size="14" lengthAdjust="spacing" textLength="161" x="383.893" y="884.5838">Theo d&#245;i s&#7913;c kh&#7887;e qu&#7929;</text></g><g id="elem_UC21"><ellipse cx="722.5625" cy="1881.1498" fill="#FFF9E6" rx="72.5625" ry="16.9125" style="stroke:#000000;stroke-width:1.0;"/><text fill="#000000" font-family="Verdana" font-size="14" lengthAdjust="spacing" textLength="98" x="672.2528" y="1885.0564">Xem giao d&#7883;ch</text></g><g id="elem_UC22"><ellipse cx="722.3384" cy="2076.205" fill="#FFF9E6" rx="85.3384" ry="19.4677" style="stroke:#000000;stroke-width:1.0;"/><text fill="#000000" font-family="Verdana" font-size="14" lengthAdjust="spacing" textLength="129" x="657.8384" y="2079.7729">&#272;&#7889;i so&#225;t ch&#7913;ng t&#7915;</text></g><g id="elem_UC23"><ellipse cx="722.6728" cy="1945.2719" fill="#FFF9E6" rx="70.6728" ry="16.5346" style="stroke:#000000;stroke-width:1.0;"/><text fill="#000000" font-family="Verdana" font-size="14" lengthAdjust="spacing" textLength="93" x="673.8179" y="1949.421">Xu&#7845;t b&#225;o c&#225;o</text></g><g id="elem_UC24"><ellipse cx="722.4495" cy="2009.2272" fill="#FFF9E6" rx="72.9495" ry="16.9899" style="stroke:#000000;stroke-width:1.0;"/><text fill="#000000" font-family="Verdana" font-size="14" lengthAdjust="spacing" textLength="99" x="671.8418" y="2013.0841">Xem th&#7889;ng k&#234;</text></g><g id="elem_UC25"><ellipse cx="464.658" cy="1645.0689" fill="#FFF9E6" rx="89.658" ry="20.3316" style="stroke:#000000;stroke-width:1.0;"/><text fill="#000000" font-family="Verdana" font-size="14" lengthAdjust="spacing" textLength="139" x="395.158" y="1648.6368">Qu&#7843;n l&#253; ng&#432;&#7901;i d&#249;ng</text></g><g id="elem_UC26"><ellipse cx="464.5256" cy="1936.0424" fill="#FFF9E6" rx="74.5256" ry="17.3051" style="stroke:#000000;stroke-width:1.0;"/><text fill="#000000" font-family="Verdana" font-size="14" lengthAdjust="spacing" textLength="103" x="412.7046" y="1939.697">Qu&#7843;n l&#253; vai tr&#242;</text></g><g id="elem_UC27"><ellipse cx="464.5493" cy="2006.2472" fill="#FFF9E6" rx="98.0493" ry="22.0099" style="stroke:#000000;stroke-width:1.0;"/><text fill="#000000" font-family="Verdana" font-size="14" lengthAdjust="spacing" textLength="158" x="385.5493" y="2009.815">Xem nh&#7853;t k&#253; h&#7879; th&#7889;ng</text></g><g id="elem_UC28"><ellipse cx="464.6812" cy="2077.2735" fill="#FFF9E6" rx="80.6812" ry="18.5362" style="stroke:#000000;stroke-width:1.0;"/><text fill="#000000" font-family="Verdana" font-size="14" lengthAdjust="spacing" textLength="118" x="405.6812" y="2080.8414">C&#224;i &#273;&#7863;t h&#7879; th&#7889;ng</text></g><g id="elem_UC29"><ellipse cx="464.4967" cy="1795.3366" fill="#FFF9E6" rx="98.4967" ry="22.0993" style="stroke:#000000;stroke-width:1.0;"/><text fill="#000000" font-family="Verdana" font-size="14" lengthAdjust="spacing" textLength="159" x="384.9967" y="1798.9045">Xem l&#7883;ch s&#7917; ho&#7841;t &#273;&#7897;ng</text></g><g id="elem_UC30"><ellipse cx="464.5306" cy="1868.2434" fill="#FFF9E6" rx="90.5306" ry="20.5061" style="stroke:#000000;stroke-width:1.0;"/><text fill="#000000" font-family="Verdana" font-size="14" lengthAdjust="spacing" textLength="141" x="394.0306" y="1871.8113">Ma tr&#7853;n ph&#226;n quy&#7873;n</text></g><g id="elem_UC31"><ellipse cx="464.2661" cy="1719.1905" fill="#FFF9E6" rx="105.2661" ry="23.4532" style="stroke:#000000;stroke-width:1.0;"/><text fill="#000000" font-family="Verdana" font-size="14" lengthAdjust="spacing" textLength="174" x="377.2661" y="1722.7584">Qu&#7843;n l&#253; sinh vi&#234;n n&#7893;i b&#7853;t</text></g><!--entity SV--><g id="elem_SV"><ellipse cx="260" cy="74.7373" fill="#D6E8FF" rx="16" ry="16" style="stroke:#000000;stroke-width:1.0;"/><path d="M260,94.7373 C264,94.7373 267,94.7373 271,90.7373 C279,90.7373 287,98.7373 287,106.7373 L287,110.7373 C287,114.7373 283,118.7373 279,118.7373 L241,118.7373 C237,118.7373 233,114.7373 233,110.7373 L233,106.7373 C233,98.7373 241,90.7373 249,90.7373 C253,94.7373 256,94.7373 260,94.7373 " fill="#D6E8FF" style="stroke:#000000;stroke-width:1.0;"/><text fill="#000000" font-family="Verdana" font-size="14" lengthAdjust="spacing" textLength="64" x="228" y="133.8125">Sinh vi&#234;n</text></g><!--entity NTT--><g id="elem_NTT"><ellipse cx="464.5" cy="74.7373" fill="#D6E8FF" rx="16" ry="16" style="stroke:#000000;stroke-width:1.0;"/><path d="M464.5,94.7373 C468.5,94.7373 471.5,94.7373 475.5,90.7373 C483.5,90.7373 491.5,98.7373 491.5,106.7373 L491.5,110.7373 C491.5,114.7373 487.5,118.7373 483.5,118.7373 L445.5,118.7373 C441.5,118.7373 437.5,114.7373 437.5,110.7373 L437.5,106.7373 C437.5,98.7373 445.5,90.7373 453.5,90.7373 C457.5,94.7373 460.5,94.7373 464.5,94.7373 " fill="#D6E8FF" style="stroke:#000000;stroke-width:1.0;"/><text fill="#000000" font-family="Verdana" font-size="14" lengthAdjust="spacing" textLength="75" x="427" y="133.8125">Nh&#224; t&#224;i tr&#7907;</text></g><!--entity CBQ--><g id="elem_CBQ"><ellipse cx="51.5" cy="822.7373" fill="#D6E8FF" rx="16" ry="16" style="stroke:#000000;stroke-width:1.0;"/><path d="M51.5,842.7373 C55.5,842.7373 58.5,842.7373 62.5,838.7373 C70.5,838.7373 78.5,846.7373 78.5,854.7373 L78.5,858.7373 C78.5,862.7373 74.5,866.7373 70.5,866.7373 L32.5,866.7373 C28.5,866.7373 24.5,862.7373 24.5,858.7373 L24.5,854.7373 C24.5,846.7373 32.5,838.7373 40.5,838.7373 C44.5,842.7373 47.5,842.7373 51.5,842.7373 " fill="#D6E8FF" style="stroke:#000000;stroke-width:1.0;"/><text fill="#000000" font-family="Verdana" font-size="14" lengthAdjust="spacing" textLength="81" x="11" y="881.8125">C&#225;n b&#7897; qu&#7929;</text></g><!--entity KT--><g id="elem_KT"><ellipse cx="160" cy="2245.7373" fill="#D6E8FF" rx="16" ry="16" style="stroke:#000000;stroke-width:1.0;"/><path d="M160,2265.7373 C164,2265.7373 167,2265.7373 171,2261.7373 C179,2261.7373 187,2269.7373 187,2277.7373 L187,2281.7373 C187,2285.7373 183,2289.7373 179,2289.7373 L141,2289.7373 C137,2289.7373 133,2285.7373 133,2281.7373 L133,2277.7373 C133,2269.7373 141,2261.7373 149,2261.7373 C153,2265.7373 156,2265.7373 160,2265.7373 " fill="#D6E8FF" style="stroke:#000000;stroke-width:1.0;"/><text fill="#000000" font-family="Verdana" font-size="14" lengthAdjust="spacing" textLength="55" x="132.5" y="2304.8125">K&#7871; to&#225;n</text></g><!--entity AD--><g id="elem_AD"><ellipse cx="260" cy="1772.7373" fill="#D6E8FF" rx="16" ry="16" style="stroke:#000000;stroke-width:1.0;"/><path d="M260,1792.7373 C264,1792.7373 267,1792.7373 271,1788.7373 C279,1788.7373 287,1796.7373 287,1804.7373 L287,1808.7373 C287,1812.7373 283,1816.7373 279,1816.7373 L241,1816.7373 C237,1816.7373 233,1812.7373 233,1808.7373 L233,1804.7373 C233,1796.7373 241,1788.7373 249,1788.7373 C253,1792.7373 256,1792.7373 260,1792.7373 " fill="#D6E8FF" style="stroke:#000000;stroke-width:1.0;"/><text fill="#000000" font-family="Verdana" font-size="14" lengthAdjust="spacing" textLength="44" x="238" y="1831.8125">Admin</text></g><!--link SV to NTT--><!--link UC05 to UC06--><g id="link_UC05_UC06"><path d="M552.57,558.2373 C580.3,558.2373 604.86,558.2373 632.31,558.2373 " fill="none" id="UC05-to-UC06" style="stroke:#555555;stroke-width:1.0;stroke-dasharray:7.0,7.0;"/><polygon fill="#555555" points="638.31,558.2373,629.31,554.2373,633.31,558.2373,629.31,562.2373,638.31,558.2373" style="stroke:#555555;stroke-width:1.0;"/><text fill="#000000" font-family="Verdana" font-size="13" lengthAdjust="spacing" textLength="61" x="533.44" y="572.3071">&#171;extend&#187;</text></g><!--link UC09 to UC02--><g id="link_UC09_UC02"><path d="M557.45,1063.2373 C566.84,1063.2373 573,1063.2373 573,1063.2373 C573,1063.2373 573,457.3073 573,457.3073 C573,457.3073 626.87,457.3073 670.83,457.3073 " fill="none" id="UC09-to-UC02" style="stroke:#555555;stroke-width:1.0;stroke-dasharray:7.0,7.0;"/><polygon fill="#555555" points="676.83,457.3073,667.83,453.3073,671.83,457.3073,667.83,461.3073,676.83,457.3073" style="stroke:#555555;stroke-width:1.0;"/><text fill="#000000" font-family="Verdana" font-size="13" lengthAdjust="spacing" textLength="62" x="574" y="730.1971">&#171;include&#187;</text></g><!--link UC11 to UC21--><g id="link_UC11_UC21"><path d="M576,1148.0073 C576,1226.6973 576,1876.4873 576,1876.4873 C576,1876.4873 608.95,1876.4873 646.68,1876.4873 " fill="none" id="UC11-to-UC21" style="stroke:#555555;stroke-width:1.0;stroke-dasharray:7.0,7.0;"/><polygon fill="#555555" points="652.68,1876.4873,643.68,1872.4873,647.68,1876.4873,643.68,1880.4873,652.68,1876.4873" style="stroke:#555555;stroke-width:1.0;"/><text fill="#000000" font-family="Verdana" font-size="13" lengthAdjust="spacing" textLength="62" x="513" y="1564.6571">&#171;include&#187;</text></g><!--link UC14 to UC16--><g id="link_UC14_UC16"><path d="M538.78,1472.2373 C570.78,1472.2373 602.31,1472.2373 635.07,1472.2373 " fill="none" id="UC14-to-UC16" style="stroke:#555555;stroke-width:1.0;stroke-dasharray:7.0,7.0;"/><polygon fill="#555555" points="641.07,1472.2373,632.07,1468.2373,636.07,1472.2373,632.07,1476.2373,641.07,1472.2373" style="stroke:#555555;stroke-width:1.0;"/><text fill="#000000" font-family="Verdana" font-size="13" lengthAdjust="spacing" textLength="62" x="526.92" y="1486.3071">&#171;include&#187;</text></g><!--link CBQ to KT--><!--link KT to AD--><!--link SV to UC01--><g id="link_SV_UC01"><path d="M277,136.9873 C277,185.0973 277,259.7373 277,259.7373 C277,259.7373 508.08,259.7373 636.34,259.7373 " fill="none" id="SV-to-UC01" style="stroke:#555555;stroke-width:1.0;"/><polygon fill="#555555" points="642.34,259.7373,633.34,255.7373,637.34,259.7373,633.34,263.7373,642.34,259.7373" style="stroke:#555555;stroke-width:1.0;"/></g><!--link SV to UC02--><g id="link_SV_UC02"><path d="M268,136.8473 C268,226.9673 268,439.5973 268,439.5973 C268,439.5973 534.57,439.5973 657.55,439.5973 " fill="none" id="SV-to-UC02" style="stroke:#555555;stroke-width:1.0;"/><polygon fill="#555555" points="663.55,439.5973,654.55,435.5973,658.55,439.5973,654.55,443.5973,663.55,439.5973" style="stroke:#555555;stroke-width:1.0;"/></g><!--link SV to UC03--><g id="link_SV_UC03"><path d="M271,136.9773 C271,214.5673 271,378.7373 271,378.7373 C271,378.7373 523.62,378.7373 649.39,378.7373 " fill="none" id="SV-to-UC03" style="stroke:#555555;stroke-width:1.0;"/><polygon fill="#555555" points="655.39,378.7373,646.39,374.7373,650.39,378.7373,646.39,382.7373,655.39,378.7373" style="stroke:#555555;stroke-width:1.0;"/></g><!--link SV to UC04--><g id="link_SV_UC04"><path d="M274,136.8073 C274,202.2573 274,325.9073 274,325.9073 C274,325.9073 522.26,325.9073 647.89,325.9073 " fill="none" id="SV-to-UC04" style="stroke:#555555;stroke-width:1.0;"/><polygon fill="#555555" points="653.89,325.9073,644.89,321.9073,648.89,325.9073,644.89,329.9073,653.89,325.9073" style="stroke:#555555;stroke-width:1.0;"/></g><!--link SV to UC05--><g id="link_SV_UC05"><path d="M265,136.9373 C265,248.7673 265,558.2373 265,558.2373 C265,558.2373 316.97,558.2373 370.42,558.2373 " fill="none" id="SV-to-UC05" style="stroke:#555555;stroke-width:1.0;"/><polygon fill="#555555" points="376.42,558.2373,367.42,554.2373,371.42,558.2373,367.42,562.2373,376.42,558.2373" style="stroke:#555555;stroke-width:1.0;"/></g><!--link SV to UC07--><g id="link_SV_UC07"><path d="M259,136.8473 C259,258.4873 259,618.4873 259,618.4873 C259,618.4873 325.69,618.4873 384.6,618.4873 " fill="none" id="SV-to-UC07" style="stroke:#555555;stroke-width:1.0;"/><polygon fill="#555555" points="390.6,618.4873,381.6,614.4873,385.6,618.4873,381.6,622.4873,390.6,618.4873" style="stroke:#555555;stroke-width:1.0;"/></g><!--link NTT to UC01--><g id="link_NTT_UC01"><path d="M487,136.9073 C487,181.1973 487,246.7373 487,246.7373 C487,246.7373 567.89,246.7373 636.11,246.7373 " fill="none" id="NTT-to-UC01" style="stroke:#555555;stroke-width:1.0;"/><polygon fill="#555555" points="642.11,246.7373,633.11,242.7373,637.11,246.7373,633.11,250.7373,642.11,246.7373" style="stroke:#555555;stroke-width:1.0;"/></g><!--link NTT to UC02--><g id="link_NTT_UC02"><path d="M442,136.9973 C442,226.3273 442,435.1673 442,435.1673 C442,435.1673 591.33,435.1673 670.81,435.1673 " fill="none" id="NTT-to-UC02" style="stroke:#555555;stroke-width:1.0;"/><polygon fill="#555555" points="676.81,435.1673,667.81,431.1673,671.81,435.1673,667.81,439.1673,676.81,435.1673" style="stroke:#555555;stroke-width:1.0;"/></g><!--link NTT to UC03--><g id="link_NTT_UC03"><path d="M457,136.7773 C457,213.0973 457,373.2373 457,373.2373 C457,373.2373 585.93,373.2373 663.41,373.2373 " fill="none" id="NTT-to-UC03" style="stroke:#555555;stroke-width:1.0;"/><polygon fill="#555555" points="669.41,373.2373,660.41,369.2373,664.41,373.2373,660.41,377.2373,669.41,373.2373" style="stroke:#555555;stroke-width:1.0;"/></g><!--link NTT to UC04--><g id="link_NTT_UC04"><path d="M472,136.8473 C472,199.5373 472,314.5673 472,314.5673 C472,314.5673 573.88,314.5673 648.05,314.5673 " fill="none" id="NTT-to-UC04" style="stroke:#555555;stroke-width:1.0;"/><polygon fill="#555555" points="654.05,314.5673,645.05,310.5673,649.05,314.5673,645.05,318.5673,654.05,314.5673" style="stroke:#555555;stroke-width:1.0;"/></g><!--link NTT to UC13--><g id="link_NTT_UC13"><path d="M426.91,110.4073 C384.1,110.4073 320,110.4073 320,110.4073 C320,110.4073 320,1397.2373 320,1397.2373 C320,1397.2373 339.24,1397.2373 368.63,1397.2373 " fill="none" id="NTT-to-UC13" style="stroke:#555555;stroke-width:1.0;"/><polygon fill="#555555" points="374.63,1397.2373,365.63,1393.2373,369.63,1397.2373,365.63,1401.2373,374.63,1397.2373" style="stroke:#555555;stroke-width:1.0;"/></g><!--link NTT to UC16--><g id="link_NTT_UC16"><path d="M502.09,97.2373 C544.9,97.2373 609,97.2373 609,97.2373 C609,97.2373 609,1460.2373 609,1460.2373 C609,1460.2373 616.87,1460.2373 634.92,1460.2373 " fill="none" id="NTT-to-UC16" style="stroke:#555555;stroke-width:1.0;"/><polygon fill="#555555" points="640.92,1460.2373,631.92,1456.2373,635.92,1460.2373,631.92,1464.2373,640.92,1460.2373" style="stroke:#555555;stroke-width:1.0;"/></g><!--link CBQ to UC02--><g id="link_CBQ_UC02"><path d="M52,805.6673 C52,704.4473 52,444.0273 52,444.0273 C52,444.0273 483.86,444.0273 651.91,444.0273 " fill="none" id="CBQ-to-UC02" style="stroke:#555555;stroke-width:1.0;"/><polygon fill="#555555" points="657.91,444.0273,648.91,440.0273,652.91,444.0273,648.91,448.0273,657.91,444.0273" style="stroke:#555555;stroke-width:1.0;"/></g><!--link CBQ to UC03--><g id="link_CBQ_UC03"><path d="M32,805.5373 C32,693.7073 32,384.2373 32,384.2373 C32,384.2373 468.78,384.2373 645.21,384.2373 " fill="none" id="CBQ-to-UC03" style="stroke:#555555;stroke-width:1.0;"/><polygon fill="#555555" points="651.21,384.2373,642.21,380.2373,646.21,384.2373,642.21,388.2373,651.21,384.2373" style="stroke:#555555;stroke-width:1.0;"/></g><!--link CBQ to UC07--><g id="link_CBQ_UC07"><path d="M72,805.6873 C72,743.0973 72,628.2373 72,628.2373 C72,628.2373 257.9,628.2373 373.33,628.2373 " fill="none" id="CBQ-to-UC07" style="stroke:#555555;stroke-width:1.0;"/><polygon fill="#555555" points="379.33,628.2373,370.33,624.2373,374.33,628.2373,370.33,632.2373,379.33,628.2373" style="stroke:#555555;stroke-width:1.0;"/></g><!--link CBQ to UC09--><g id="link_CBQ_UC09"><path d="M69,884.9673 C69,947.8473 69,1063.2373 69,1063.2373 C69,1063.2373 248.87,1063.2373 365.77,1063.2373 " fill="none" id="CBQ-to-UC09" style="stroke:#555555;stroke-width:1.0;"/><polygon fill="#555555" points="371.77,1063.2373,362.77,1059.2373,366.77,1063.2373,362.77,1067.2373,371.77,1063.2373" style="stroke:#555555;stroke-width:1.0;"/></g><!--link CBQ to UC12--><g id="link_CBQ_UC12"><path d="M58,885.0273 C58,978.4973 58,1204.2373 58,1204.2373 C58,1204.2373 287.25,1204.2373 399.83,1204.2373 " fill="none" id="CBQ-to-UC12" style="stroke:#555555;stroke-width:1.0;"/><polygon fill="#555555" points="405.83,1204.2373,396.83,1200.2373,400.83,1204.2373,396.83,1208.2373,405.83,1204.2373" style="stroke:#555555;stroke-width:1.0;"/></g><!--link CBQ to UC16--><g id="link_CBQ_UC16"><path d="M92.24,843.7373 C237.73,843.7373 723,843.7373 723,843.7373 C723,843.7373 723,1334.7673 723,1440.5773 " fill="none" id="CBQ-to-UC16" style="stroke:#555555;stroke-width:1.0;"/><polygon fill="#555555" points="723,1446.5773,727,1437.5773,723,1441.5773,719,1437.5773,723,1446.5773" style="stroke:#555555;stroke-width:1.0;"/></g><!--link CBQ to UC17--><g id="link_CBQ_UC17"><path d="M81,884.9173 C81,912.7073 81,944.9073 81,944.9073 C81,944.9073 284.58,944.9073 393.88,944.9073 " fill="none" id="CBQ-to-UC17" style="stroke:#555555;stroke-width:1.0;"/><polygon fill="#555555" points="399.88,944.9073,390.88,940.9073,394.88,944.9073,390.88,948.9073,399.88,944.9073" style="stroke:#555555;stroke-width:1.0;"/></g><!--link CBQ to UC18--><g id="link_CBQ_UC18"><path d="M92.27,811.4873 C181.06,811.4873 384,811.4873 384,811.4873 C384,811.4873 384,778.6573 384,760.4473 " fill="none" id="CBQ-to-UC18" style="stroke:#555555;stroke-width:1.0;"/><polygon fill="#555555" points="384,754.4473,380,763.4473,384,759.4473,388,763.4473,384,754.4473" style="stroke:#555555;stroke-width:1.0;"/></g><!--link CBQ to UC19--><g id="link_CBQ_UC19"><path d="M92.23,817.2373 C163.05,817.2373 303.58,817.2373 390.18,817.2373 " fill="none" id="CBQ-to-UC19" style="stroke:#555555;stroke-width:1.0;"/><polygon fill="#555555" points="396.18,817.2373,387.18,813.2373,391.18,817.2373,387.18,821.2373,396.18,817.2373" style="stroke:#555555;stroke-width:1.0;"/></g><!--link CBQ to UC20--><g id="link_CBQ_UC20"><path d="M92.23,867.4073 C160.3,867.4073 292.32,867.4073 379.84,867.4073 " fill="none" id="CBQ-to-UC20" style="stroke:#555555;stroke-width:1.0;"/><polygon fill="#555555" points="385.84,867.4073,376.84,863.4073,380.84,867.4073,376.84,871.4073,385.84,867.4073" style="stroke:#555555;stroke-width:1.0;"/></g><!--link CBQ to UC23--><g id="link_CBQ_UC23"><path d="M23,884.8273 C23,1083.0073 23,1957.7373 23,1957.7373 C23,1957.7373 514.41,1957.7373 670.33,1957.7373 " fill="none" id="CBQ-to-UC23" style="stroke:#555555;stroke-width:1.0;"/><polygon fill="#555555" points="676.33,1957.7373,667.33,1953.7373,671.33,1957.7373,667.33,1961.7373,676.33,1957.7373" style="stroke:#555555;stroke-width:1.0;"/></g><!--link CBQ to UC25--><g id="link_CBQ_UC25"><path d="M46,884.8373 C46,1045.2873 46,1638.4073 46,1638.4073 C46,1638.4073 251.81,1638.4073 374.06,1638.4073 " fill="none" id="CBQ-to-UC25" style="stroke:#555555;stroke-width:1.0;"/><polygon fill="#555555" points="380.06,1638.4073,371.06,1634.4073,375.06,1638.4073,371.06,1642.4073,380.06,1638.4073" style="stroke:#555555;stroke-width:1.0;"/></g><!--link CBQ to UC31--><g id="link_CBQ_UC31"><path d="M35,884.7773 C35,1055.2973 35,1719.2373 35,1719.2373 C35,1719.2373 225.71,1719.2373 352.88,1719.2373 " fill="none" id="CBQ-to-UC31" style="stroke:#555555;stroke-width:1.0;"/><polygon fill="#555555" points="358.88,1719.2373,349.88,1715.2373,353.88,1719.2373,349.88,1723.2373,358.88,1719.2373" style="stroke:#555555;stroke-width:1.0;"/></g><!--link KT to UC02--><g id="link_KT_UC02"><path d="M148,2228.5373 C148,1962.4073 148,448.4473 148,448.4473 C148,448.4473 501.91,448.4473 651.99,448.4473 " fill="none" id="KT-to-UC02" style="stroke:#555555;stroke-width:1.0;"/><polygon fill="#555555" points="657.99,448.4473,648.99,444.4473,652.99,448.4473,648.99,452.4473,657.99,448.4473" style="stroke:#555555;stroke-width:1.0;"/></g><!--link KT to UC03--><g id="link_KT_UC03"><path d="M143,2228.5673 C143,1957.5673 143,389.7373 143,389.7373 C143,389.7373 496.92,389.7373 649.46,389.7373 " fill="none" id="KT-to-UC03" style="stroke:#555555;stroke-width:1.0;"/><polygon fill="#555555" points="655.46,389.7373,646.46,385.7373,650.46,389.7373,646.46,393.7373,655.46,389.7373" style="stroke:#555555;stroke-width:1.0;"/></g><!--link KT to UC11--><g id="link_KT_UC11"><path d="M188.21,2248.4873 C242.01,2248.4873 354,2248.4873 354,2248.4873 C354,2248.4873 354,1255.9373 354,1154.5173 " fill="none" id="KT-to-UC11" style="stroke:#555555;stroke-width:1.0;"/><polygon fill="#555555" points="354,1148.5173,350,1157.5173,354,1153.5173,358,1157.5173,354,1148.5173" style="stroke:#555555;stroke-width:1.0;"/></g><!--link KT to UC12--><g id="link_KT_UC12"><path d="M153,2228.4473 C153,2036.1473 153,1212.2373 153,1212.2373 C153,1212.2373 299.29,1212.2373 390.91,1212.2373 " fill="none" id="KT-to-UC12" style="stroke:#555555;stroke-width:1.0;"/><polygon fill="#555555" points="396.91,1212.2373,387.91,1208.2373,391.91,1212.2373,387.91,1216.2373,396.91,1212.2373" style="stroke:#555555;stroke-width:1.0;"/></g><!--link KT to UC14--><g id="link_KT_UC14"><path d="M158,2228.7173 C158,2066.4973 158,1460.2373 158,1460.2373 C158,1460.2373 293.6,1460.2373 384.3,1460.2373 " fill="none" id="KT-to-UC14" style="stroke:#555555;stroke-width:1.0;"/><polygon fill="#555555" points="390.3,1460.2373,381.3,1456.2373,385.3,1460.2373,381.3,1464.2373,390.3,1460.2373" style="stroke:#555555;stroke-width:1.0;"/></g><!--link KT to UC15--><g id="link_KT_UC15"><path d="M163,2228.5673 C163,2074.6673 163,1525.5673 163,1525.5673 C163,1525.5673 299.91,1525.5673 388.95,1525.5673 " fill="none" id="KT-to-UC15" style="stroke:#555555;stroke-width:1.0;"/><polygon fill="#555555" points="394.95,1525.5673,385.95,1521.5673,389.95,1525.5673,385.95,1529.5673,394.95,1525.5673" style="stroke:#555555;stroke-width:1.0;"/></g><!--link KT to UC16--><g id="link_KT_UC16"><path d="M183,2228.6573 C183,2163.9073 183,2042.4873 183,2042.4873 C183,2042.4873 646,2042.4873 646,2042.4873 C646,2042.4873 646,1554.5973 646,1481.2873 " fill="none" id="KT-to-UC16" style="stroke:#555555;stroke-width:1.0;"/><polygon fill="#555555" points="646,1475.2873,642,1484.2873,646,1480.2873,650,1484.2873,646,1475.2873" style="stroke:#555555;stroke-width:1.0;"/></g><!--link KT to UC21--><g id="link_KT_UC21"><path d="M173,2228.6573 C173,2132.6173 173,1895.0673 173,1895.0673 C173,1895.0673 545.62,1895.0673 674.29,1895.0673 " fill="none" id="KT-to-UC21" style="stroke:#555555;stroke-width:1.0;"/><polygon fill="#555555" points="680.29,1895.0673,671.29,1891.0673,675.29,1895.0673,671.29,1899.0673,680.29,1895.0673" style="stroke:#555555;stroke-width:1.0;"/></g><!--link KT to UC22--><g id="link_KT_UC22"><path d="M188.31,2287.9873 C302.47,2287.9873 723,2287.9873 723,2287.9873 C723,2287.9873 723,2154.1973 723,2101.7773 " fill="none" id="KT-to-UC22" style="stroke:#555555;stroke-width:1.0;"/><polygon fill="#555555" points="723,2095.7773,719,2104.7773,723,2100.7773,727,2104.7773,723,2095.7773" style="stroke:#555555;stroke-width:1.0;"/></g><!--link KT to UC23--><g id="link_KT_UC23"><path d="M178,2228.5373 C178,2145.2173 178,1959.7373 178,1959.7373 C178,1959.7373 564.14,1959.7373 682.85,1959.7373 " fill="none" id="KT-to-UC23" style="stroke:#555555;stroke-width:1.0;"/><polygon fill="#555555" points="688.85,1959.7373,679.85,1955.7373,683.85,1959.7373,679.85,1963.7373,688.85,1959.7373" style="stroke:#555555;stroke-width:1.0;"/></g><!--link KT to UC24--><g id="link_KT_UC24"><path d="M188.23,2268.2373 C280.3,2268.2373 566,2268.2373 566,2268.2373 C566,2268.2373 566,2014.9073 566,2014.9073 C566,2014.9073 605.48,2014.9073 647.4,2014.9073 " fill="none" id="KT-to-UC24" style="stroke:#555555;stroke-width:1.0;"/><polygon fill="#555555" points="653.4,2014.9073,644.4,2010.9073,648.4,2014.9073,644.4,2018.9073,653.4,2014.9073" style="stroke:#555555;stroke-width:1.0;"/></g><!--link AD to UC02--><g id="link_AD_UC02"><path d="M238,1755.4273 C238,1532.8873 238,452.8773 238,452.8773 C238,452.8773 528.46,452.8773 657.58,452.8773 " fill="none" id="AD-to-UC02" style="stroke:#555555;stroke-width:1.0;"/><polygon fill="#555555" points="663.58,452.8773,654.58,448.8773,658.58,452.8773,654.58,456.8773,663.58,452.8773" style="stroke:#555555;stroke-width:1.0;"/></g><!--link AD to UC03--><g id="link_AD_UC03"><path d="M235,1755.5973 C235,1527.7573 235,395.2373 235,395.2373 C235,395.2373 537.05,395.2373 663.4,395.2373 " fill="none" id="AD-to-UC03" style="stroke:#555555;stroke-width:1.0;"/><polygon fill="#555555" points="669.4,395.2373,660.4,391.2373,664.4,395.2373,660.4,399.2373,669.4,395.2373" style="stroke:#555555;stroke-width:1.0;"/></g><!--link AD to UC07--><g id="link_AD_UC07"><path d="M241,1755.7373 C241,1552.9173 241,637.9873 241,637.9873 C241,637.9873 319.6,637.9873 384.7,637.9873 " fill="none" id="AD-to-UC07" style="stroke:#555555;stroke-width:1.0;"/><polygon fill="#555555" points="390.7,637.9873,381.7,633.9873,385.7,637.9873,381.7,641.9873,390.7,637.9873" style="stroke:#555555;stroke-width:1.0;"/></g><!--link AD to UC10--><g id="link_AD_UC10"><path d="M262,1755.6073 C262,1634.7773 262,1279.2373 262,1279.2373 C262,1279.2373 312.52,1279.2373 365.84,1279.2373 " fill="none" id="AD-to-UC10" style="stroke:#555555;stroke-width:1.0;"/><polygon fill="#555555" points="371.84,1279.2373,362.84,1275.2373,366.84,1279.2373,362.84,1283.2373,371.84,1279.2373" style="stroke:#555555;stroke-width:1.0;"/></g><!--link AD to UC12--><g id="link_AD_UC12"><path d="M256,1755.7173 C256,1625.8073 256,1220.2373 256,1220.2373 C256,1220.2373 338.2,1220.2373 399.87,1220.2373 " fill="none" id="AD-to-UC12" style="stroke:#555555;stroke-width:1.0;"/><polygon fill="#555555" points="405.87,1220.2373,396.87,1216.2373,400.87,1220.2373,396.87,1224.2373,405.87,1220.2373" style="stroke:#555555;stroke-width:1.0;"/></g><!--link AD to UC14--><g id="link_AD_UC14"><path d="M280,1755.6273 C280,1669.3773 280,1472.2373 280,1472.2373 C280,1472.2373 332.99,1472.2373 384.25,1472.2373 " fill="none" id="AD-to-UC14" style="stroke:#555555;stroke-width:1.0;"/><polygon fill="#555555" points="390.25,1472.2373,381.25,1468.2373,385.25,1472.2373,381.25,1476.2373,390.25,1472.2373" style="stroke:#555555;stroke-width:1.0;"/></g><!--link AD to UC15--><g id="link_AD_UC15"><path d="M283,1755.7173 C283,1683.3573 283,1536.9073 283,1536.9073 C283,1536.9073 337.87,1536.9073 389.11,1536.9073 " fill="none" id="AD-to-UC15" style="stroke:#555555;stroke-width:1.0;"/><polygon fill="#555555" points="395.11,1536.9073,386.11,1532.9073,390.11,1536.9073,386.11,1540.9073,395.11,1536.9073" style="stroke:#555555;stroke-width:1.0;"/></g><!--link AD to UC16--><g id="link_AD_UC16"><path d="M288.09,1767.4073 C376.31,1767.4073 642,1767.4073 642,1767.4073 C642,1767.4073 642,1523.9173 642,1479.0973 " fill="none" id="AD-to-UC16" style="stroke:#555555;stroke-width:1.0;"/><polygon fill="#555555" points="642,1473.0973,638,1482.0973,642,1478.0973,646,1482.0973,642,1473.0973" style="stroke:#555555;stroke-width:1.0;"/></g><!--link AD to UC17--><g id="link_AD_UC17"><path d="M253,1755.5873 C253,1589.1473 253,955.5673 253,955.5673 C253,955.5673 331.7,955.5673 393.89,955.5673 " fill="none" id="AD-to-UC17" style="stroke:#555555;stroke-width:1.0;"/><polygon fill="#555555" points="399.89,955.5673,390.89,951.5673,394.89,955.5673,390.89,959.5673,399.89,955.5673" style="stroke:#555555;stroke-width:1.0;"/></g><!--link AD to UC18--><g id="link_AD_UC18"><path d="M244,1755.6773 C244,1564.4673 244,745.2373 244,745.2373 C244,745.2373 307.77,745.2373 368.81,745.2373 " fill="none" id="AD-to-UC18" style="stroke:#555555;stroke-width:1.0;"/><polygon fill="#555555" points="374.81,745.2373,365.81,741.2373,369.81,745.2373,365.81,749.2373,374.81,745.2373" style="stroke:#555555;stroke-width:1.0;"/></g><!--link AD to UC19--><g id="link_AD_UC19"><path d="M247,1755.6173 C247,1573.1973 247,822.9873 247,822.9873 C247,822.9873 339.75,822.9873 404.18,822.9873 " fill="none" id="AD-to-UC19" style="stroke:#555555;stroke-width:1.0;"/><polygon fill="#555555" points="410.18,822.9873,401.18,818.9873,405.18,822.9873,401.18,826.9873,410.18,822.9873" style="stroke:#555555;stroke-width:1.0;"/></g><!--link AD to UC20--><g id="link_AD_UC20"><path d="M250,1755.6473 C250,1581.7573 250,894.2373 250,894.2373 C250,894.2373 316.42,894.2373 377.1,894.2373 " fill="none" id="AD-to-UC20" style="stroke:#555555;stroke-width:1.0;"/><polygon fill="#555555" points="383.1,894.2373,374.1,890.2373,378.1,894.2373,374.1,898.2373,383.1,894.2373" style="stroke:#555555;stroke-width:1.0;"/></g><!--link AD to UC21--><g id="link_AD_UC21"><path d="M270,1834.8373 C270,1861.5273 270,1891.9073 270,1891.9073 C270,1891.9073 538.12,1891.9073 659.65,1891.9073 " fill="none" id="AD-to-UC21" style="stroke:#555555;stroke-width:1.0;"/><polygon fill="#555555" points="665.65,1891.9073,656.65,1887.9073,660.65,1891.9073,656.65,1895.9073,665.65,1891.9073" style="stroke:#555555;stroke-width:1.0;"/></g><!--link AD to UC23--><g id="link_AD_UC23"><path d="M251,1834.9073 C251,1882.4373 251,1955.7373 251,1955.7373 C251,1955.7373 537.84,1955.7373 661.95,1955.7373 " fill="none" id="AD-to-UC23" style="stroke:#555555;stroke-width:1.0;"/><polygon fill="#555555" points="667.95,1955.7373,658.95,1951.7373,662.95,1955.7373,658.95,1959.7373,667.95,1955.7373" style="stroke:#555555;stroke-width:1.0;"/></g><!--link AD to UC24--><g id="link_AD_UC24"><path d="M288.15,1823.0673 C364.18,1823.0673 568,1823.0673 568,1823.0673 C568,1823.0673 568,2003.5673 568,2003.5673 C568,2003.5673 606.25,2003.5673 647.38,2003.5673 " fill="none" id="AD-to-UC24" style="stroke:#555555;stroke-width:1.0;"/><polygon fill="#555555" points="653.38,2003.5673,644.38,1999.5673,648.38,2003.5673,644.38,2007.5673,653.38,2003.5673" style="stroke:#555555;stroke-width:1.0;"/></g><!--link AD to UC25--><g id="link_AD_UC25"><path d="M286,1755.3573 C286,1712.9973 286,1652.0673 286,1652.0673 C286,1652.0673 327.82,1652.0673 373.95,1652.0673 " fill="none" id="AD-to-UC25" style="stroke:#555555;stroke-width:1.0;"/><polygon fill="#555555" points="379.95,1652.0673,370.95,1648.0673,374.95,1652.0673,370.95,1656.0673,379.95,1652.0673" style="stroke:#555555;stroke-width:1.0;"/></g><!--link AD to UC26--><g id="link_AD_UC26"><path d="M260,1834.8873 C260,1876.5973 260,1936.2373 260,1936.2373 C260,1936.2373 325.38,1936.2373 383.8,1936.2373 " fill="none" id="AD-to-UC26" style="stroke:#555555;stroke-width:1.0;"/><polygon fill="#555555" points="389.8,1936.2373,380.8,1932.2373,384.8,1936.2373,380.8,1940.2373,389.8,1936.2373" style="stroke:#555555;stroke-width:1.0;"/></g><!--link AD to UC27--><g id="link_AD_UC27"><path d="M288.01,1828.9073 C320.89,1828.9073 371,1828.9073 371,1828.9073 C371,1828.9073 371,1961.1073 371,1993.4973 " fill="none" id="AD-to-UC27" style="stroke:#555555;stroke-width:1.0;"/><polygon fill="#555555" points="371,1999.4973,375,1990.4973,371,1994.4973,367,1990.4973,371,1999.4973" style="stroke:#555555;stroke-width:1.0;"/></g><!--link AD to UC28--><g id="link_AD_UC28"><path d="M242,1834.7473 C242,1912.3573 242,2077.2373 242,2077.2373 C242,2077.2373 314.18,2077.2373 377.86,2077.2373 " fill="none" id="AD-to-UC28" style="stroke:#555555;stroke-width:1.0;"/><polygon fill="#555555" points="383.86,2077.2373,374.86,2073.2373,378.86,2077.2373,374.86,2081.2373,383.86,2077.2373" style="stroke:#555555;stroke-width:1.0;"/></g><!--link AD to UC29--><g id="link_AD_UC29"><path d="M288.01,1795.2373 C308.35,1795.2373 331.21,1795.2373 359.71,1795.2373 " fill="none" id="AD-to-UC29" style="stroke:#555555;stroke-width:1.0;"/><polygon fill="#555555" points="365.71,1795.2373,356.71,1791.2373,360.71,1795.2373,356.71,1799.2373,365.71,1795.2373" style="stroke:#555555;stroke-width:1.0;"/></g><!--link AD to UC30--><g id="link_AD_UC30"><path d="M279,1835.1573 C279,1852.1973 279,1868.2373 279,1868.2373 C279,1868.2373 320.84,1868.2373 367.92,1868.2373 " fill="none" id="AD-to-UC30" style="stroke:#555555;stroke-width:1.0;"/><polygon fill="#555555" points="373.92,1868.2373,364.92,1864.2373,368.92,1868.2373,364.92,1872.2373,373.92,1868.2373" style="stroke:#555555;stroke-width:1.0;"/></g><!--link AD to UC31--><g id="link_AD_UC31"><path d="M288.15,1761.5673 C318.64,1761.5673 363,1761.5673 363,1761.5673 C363,1761.5673 363,1743.7573 363,1731.8473 " fill="none" id="AD-to-UC31" style="stroke:#555555;stroke-width:1.0;"/><polygon fill="#555555" points="363,1725.8473,359,1734.8473,363,1730.8473,367,1734.8473,363,1725.8473" style="stroke:#555555;stroke-width:1.0;"/></g><!--SRC=[pLTRQznM47xVNp7TWfirEBMq5zib6DPhnrwCDxPNDYcb55bILs9tZpRIsIIc16BwK6WU6jE6jeH2d927f0HweRHPqVP1nlz3-IMTeykUsKlfG-koiZ5pDD-SkNnpHiTlSTlgMj3hw0xB-Ms7zNHFxyAHRhHRdjjdPitjk1wyVJr-2ABlMuRkMsjJW2iR5GBK3Uvw4x3roiRoo7unhCcFEnReTopVxLf4sKDplMKbQiyokCvQdIc0oMZAucSAqFLCoqj1rVYXiNYUUoTLbkE7A3iEi_XnpmBNuxPB5CmrBT_gGN6HlFHqrXOlIukv77SuXZy_Vz3SW5eL_wpNgvlxrHruS_yhq0uFu3e63Ziwmm2x5kFGFFQvrPsVp-KwriSSk0kUqx8vc8weWUEoNEuTUFFeuN_xYtjMQzgD_IPe- -597QwqRTs1e_3C1UvT_105Zmt9GU5I8eYR0V9DXzbmsmbViZm0w3uq3pDLmmwV00-VE1XJ53pB2sr3qtBDGrZum7PCqs8VckuTjX2_pGtZXVnM57m6t8w2KzQQLlKyV9BBGTOeaByPdXan_aS3vW2jlmJ_uYnskBkz-L7rGDj22umFhfm_FFyKDss7loUXjMqt6ZnZ1O4zg2qg8oXcHuDNlG9aJu9HCqmKF7AWYn2EsqI35_q2GHKJr5vVR0yTz6UdSHKag8IWUoEfOF1V9_K2dvGspGHBb-RHY89lUt1-Ud76uAx3nEQfNPPAEG5MwqI7sqM3FtbYbm4h2V2crKttcuDE53mmRF2Zu5KXYtLf8jPTEtm9PlyOsU9ej8bxFtE0jSAdCkBThOqiv15uuic81izxe8nNUEKV3DGn0sLnYa42BOu5bYQjf4HhKV0z6ABJdAmeuq-2LoUorqOxMoIhQLckU_rZv0rQuSyzU1SaDAkcahP7tBbncp5oL4WVAQN9GCU1AR8iUIJyZQ0JO6KY5zAbj_fHy7gOqTx1-rbAMZJ0yHAhiUc3nqvXiafBCWHJn-xrCJqxiHa9TJd1rSJnIjBd8oW2JNj1ioqNpF0NHoJrmX07BlZ2oenYgBeudIF33bzXB7Em9kQZWNyaORKiEn5ooz7HHrmwme2goFEEnVVTy8p7JBp02S6HbinzEXTkOYsVysGO2sSqSRKelMNphHs-786K_euTmU43SPY7ir5Ek7NPU4CcMKjy2Rvpi6olMMlioAZb2VnjNVH9-DCahoeP4IbRxMIW3KCPII5jWvge_lbfDFYLJyDA_FBqpXMZ-KoSV9nrcLLYa3R5ZYwA8ivEpyQpZTs0H_z4dk4ON5oSo5HELc3n43yIEQKy5fMC0354uUhLrNX8mdjmxPfrbrlCN5rDb2kPKesL3ZCwVTDAjOgIQbLbchQKQfNAcFRU9LyOThUYmTEH6uElz_-doq8jn15-X6oIALDRsylKs_XjmXiKWl8fUzjQfgkQNITv7Ikgwpaq7Bz787nRW_6tYBsCfFub7SrwOmiEw-7dZPaBJbpG5bQJwv2KLI8NYLmYSfd8IxDOzSPMU1y_n_VhU76EWgSp5o7UX6NjoKAbYo9TbCX2eHhypCyW0RNmf05hKV0Dx1r4mMyp5s4yLRAQaqMHBfReOeKi56g31905jS7x3rdG3V0EGnRKANwmvGA_KJF8BSxlFq2xWGpFN73Rv2HjauCqbF4V0YaJ3Dw_fLmcSaNAAh5LYQrAziThtGmoLbtVgSyUMNYR7P8bvIAHbwIC__j9cU2HE2cNYLmXCjrdcSWhKbR9_aYqb4ayAl6b4bygyQKINohnfH9VHU8BZ_XV]--></g></svg>