<?xml version="1.0" encoding="us-ascii" standalone="no"?><svg xmlns="http://www.w3.org/2000/svg" xmlns:xlink="http://www.w3.org/1999/xlink" contentStyleType="text/css" height="1594px" preserveAspectRatio="none" style="width:720px;height:1594px;background:#FFFFFF;" version="1.1" viewBox="0 0 720 1594" width="720px" zoomAndPan="magnify"><defs/><g><text fill="#000000" font-family="Verdana" font-size="22" font-weight="bold" lengthAdjust="spacing" textLength="479" x="119" y="37.1182">AD06: PH&#202; DUY&#7878;T C&#7844;P 3 &amp; GI&#7842;I NG&#194;N</text><rect fill="#FFFFFF" height="21.876" style="stroke:#FFFFFF;stroke-width:1.0;" width="697" x="10" y="55.0166"/><rect fill="#FFCCBC" height="1460.7258" style="stroke:#FFCCBC;stroke-width:1.0;" width="349.5" x="10" y="55.0166"/><ellipse cx="188" cy="91.8926" fill="#FFFFFF" rx="10" ry="10" style="stroke:#000000;stroke-width:1.0;"/><rect fill="#FFFFFF" height="33.3687" rx="12.5" ry="12.5" style="stroke:#000000;stroke-width:1.0;" width="144" x="116" y="121.8926"/><text fill="#000000" font-family="Verdana" font-size="11" lengthAdjust="spacing" textLength="124" x="126" y="142.9517">V&#224;o trang "Gi&#7843;i ng&#226;n"</text><rect fill="#FFFFFF" height="46.7373" rx="12.5" ry="12.5" style="stroke:#000000;stroke-width:1.0;" width="133" x="121.5" y="175.2612"/><text fill="#000000" font-family="Verdana" font-size="11" lengthAdjust="spacing" textLength="113" x="131.5" y="196.3203">Xem danh s&#225;ch &#273;&#417;n</text><text fill="#000000" font-family="Verdana" font-size="11" lengthAdjust="spacing" textLength="104" x="131.5" y="209.689">"Ch&#7901; duy&#7879;t c&#7845;p 3"</text><rect fill="#FFFFFF" height="33.3687" rx="12.5" ry="12.5" style="stroke:#000000;stroke-width:1.0;" width="144" x="116" y="375.4731"/><text fill="#000000" font-family="Verdana" font-size="11" lengthAdjust="spacing" textLength="124" x="126" y="396.5322">Click v&#224;o &#273;&#417;n c&#7847;n x&#233;t</text><rect fill="#FFFFFF" height="73.4746" rx="12.5" ry="12.5" style="stroke:#000000;stroke-width:1.0;" width="131" x="122.5" y="428.8418"/><text fill="#000000" font-family="Verdana" font-size="11" lengthAdjust="spacing" textLength="111" x="132.5" y="449.9009">Xem chi ti&#7871;t &#273;&#7847;y &#273;&#7911;</text><text fill="#000000" font-family="Verdana" font-size="11" lengthAdjust="spacing" textLength="87" x="132.5" y="463.2695">- Th&#244;ng tin &#273;&#417;n</text><text fill="#000000" font-family="Verdana" font-size="11" lengthAdjust="spacing" textLength="98" x="132.5" y="476.6382">- L&#7883;ch s&#7917; c&#7845;p 1, 2</text><text fill="#000000" font-family="Verdana" font-size="11" lengthAdjust="spacing" textLength="67" x="132.5" y="490.0068">- S&#7889; d&#432; qu&#7929;</text><rect fill="#FFFFFF" height="33.3687" rx="12.5" ry="12.5" style="stroke:#000000;stroke-width:1.0;" width="123" x="126.5" y="522.3164"/><text fill="#000000" font-family="Verdana" font-size="11" lengthAdjust="spacing" textLength="103" x="136.5" y="543.3755">X&#233;t duy&#7879;t l&#7847;n cu&#7889;i</text><polygon fill="#FFFFFF" points="154,575.6851,222,575.6851,234,587.6851,222,599.6851,154,599.6851,142,587.6851,154,575.6851" style="stroke:#000000;stroke-width:1.0;"/><text fill="#000000" font-family="Verdana" font-size="11" lengthAdjust="spacing" textLength="68" x="154" y="592.0598">Quy&#7871;t &#273;&#7883;nh?</text><text fill="#000000" font-family="Verdana" font-size="11" lengthAdjust="spacing" textLength="127" x="15" y="585.3755">Ph&#234; duy&#7879;t &amp; Gi&#7843;i ng&#226;n</text><text fill="#000000" font-family="Verdana" font-size="11" lengthAdjust="spacing" textLength="41" x="234" y="585.3755">T&#7915; ch&#7889;i</text><rect fill="#FFFFFF" height="73.4746" rx="12.5" ry="12.5" style="stroke:#000000;stroke-width:1.0;" width="159" x="16.5" y="880.844"/><text fill="#000000" font-family="Verdana" font-size="11" lengthAdjust="spacing" textLength="139" x="26.5" y="901.9031">Nh&#7853;p th&#244;ng tin gi&#7843;i ng&#226;n</text><text fill="#000000" font-family="Verdana" font-size="11" lengthAdjust="spacing" textLength="79" x="26.5" y="915.2717">- Ph&#432;&#417;ng th&#7913;c</text><text fill="#000000" font-family="Verdana" font-size="11" lengthAdjust="spacing" textLength="137" x="26.5" y="928.6404">- S&#7889; t&#224;i kho&#7843;n (n&#7871;u CK)</text><text fill="#000000" font-family="Verdana" font-size="11" lengthAdjust="spacing" textLength="52" x="26.5" y="942.009">- Ghi ch&#250;</text><rect fill="#FFFFFF" height="73.4746" rx="12.5" ry="12.5" style="stroke:#000000;stroke-width:1.0;" width="136" x="28" y="1312.8992"/><text fill="#000000" font-family="Verdana" font-size="11" lengthAdjust="spacing" textLength="116" x="38" y="1333.9583">Th&#244;ng b&#225;o gi&#7843;i ng&#226;n</text><text fill="#000000" font-family="Verdana" font-size="11" lengthAdjust="spacing" textLength="63" x="38" y="1347.3269">th&#224;nh c&#244;ng</text><text fill="#000000" font-family="Verdana" font-size="11" lengthAdjust="spacing" textLength="92" x="38" y="1360.6956">- S&#7889; d&#432; qu&#7929; m&#7899;i</text><text fill="#000000" font-family="Verdana" font-size="11" lengthAdjust="spacing" textLength="80" x="38" y="1374.0642">- M&#227; giao d&#7883;ch</text><rect fill="#FFFFFF" height="46.7373" rx="12.5" ry="12.5" style="stroke:#000000;stroke-width:1.0;" width="123" x="218.5" y="619.6851"/><text fill="#000000" font-family="Verdana" font-size="11" lengthAdjust="spacing" textLength="103" x="228.5" y="640.7441">Nh&#7853;p l&#253; do t&#7915; ch&#7889;i</text><text fill="#000000" font-family="Verdana" font-size="11" lengthAdjust="spacing" textLength="71" x="228.5" y="654.1128">(B&#7854;T BU&#7896;C)</text><rect fill="#FFFFFF" height="33.3687" rx="12.5" ry="12.5" style="stroke:#000000;stroke-width:1.0;" width="129" x="215.5" y="748.4753"/><text fill="#000000" font-family="Verdana" font-size="11" lengthAdjust="spacing" textLength="109" x="225.5" y="769.5344">Y&#234;u c&#7847;u nh&#7853;p l&#253; do</text><ellipse cx="280" cy="827.844" fill="none" rx="11" ry="11" style="stroke:#000000;stroke-width:1.0;"/><ellipse cx="280" cy="827.844" fill="#FFFFFF" rx="6" ry="6" style="stroke:#000000;stroke-width:1.0;"/><polygon fill="#FFFFFF" points="237,699.791,323,699.791,335,711.791,323,723.791,237,723.791,225,711.791,237,699.791" style="stroke:#000000;stroke-width:1.0;"/><text fill="#000000" font-family="Verdana" font-size="11" lengthAdjust="spacing" textLength="30" x="284" y="734.8501">Ch&#432;a</text><text fill="#000000" font-family="Verdana" font-size="11" lengthAdjust="spacing" textLength="86" x="237" y="716.1658">&#272;&#227; nh&#7853;p l&#253; do?</text><rect fill="#FFFFFF" height="33.3687" rx="12.5" ry="12.5" style="stroke:#000000;stroke-width:1.0;" width="103" x="228.5" y="1112.6873"/><text fill="#000000" font-family="Verdana" font-size="11" lengthAdjust="spacing" textLength="83" x="238.5" y="1133.7463">&#272;&#227; t&#7915; ch&#7889;i &#273;&#417;n</text><polygon fill="#FFFFFF" points="188,1396.3738,200,1408.3738,188,1420.3738,176,1408.3738,188,1396.3738" style="stroke:#000000;stroke-width:1.0;"/><rect fill="#FFFFFF" height="33.3687" rx="12.5" ry="12.5" style="stroke:#000000;stroke-width:1.0;" width="129" x="123.5" y="1440.3738"/><text fill="#000000" font-family="Verdana" font-size="11" lengthAdjust="spacing" textLength="109" x="133.5" y="1461.4329">Quay l&#7841;i danh s&#225;ch</text><ellipse cx="188" cy="1504.7424" fill="none" rx="11" ry="11" style="stroke:#000000;stroke-width:1.0;"/><ellipse cx="188" cy="1504.7424" fill="#FFFFFF" rx="6" ry="6" style="stroke:#000000;stroke-width:1.0;"/><line style="stroke:#000000;stroke-width:1.0;" x1="10" x2="10" y1="55.0166" y2="1515.7424"/><rect fill="#F5F5F5" height="1460.7258" style="stroke:#F5F5F5;stroke-width:1.0;" width="333.5" x="359.5" y="55.0166"/><rect fill="#FFFFFF" height="46.7373" rx="12.5" ry="12.5" style="stroke:#000000;stroke-width:1.0;" width="130" x="466.5" y="241.9985"/><text fill="#000000" font-family="Verdana" font-size="11" lengthAdjust="spacing" textLength="107" x="476.5" y="263.0576">L&#7845;y danh s&#225;ch &#273;&#417;n</text><text fill="#000000" font-family="Verdana" font-size="11" lengthAdjust="spacing" textLength="110" x="476.5" y="276.4263">&#273;&#227; qua 2 c&#7845;p duy&#7879;t</text><rect fill="#FFFFFF" height="46.7373" rx="12.5" ry="12.5" style="stroke:#000000;stroke-width:1.0;" width="122" x="470.5" y="308.7358"/><text fill="#000000" font-family="Verdana" font-size="11" lengthAdjust="spacing" textLength="72" x="480.5" y="329.7949">Hi&#7875;n th&#7883; k&#232;m</text><text fill="#000000" font-family="Verdana" font-size="11" lengthAdjust="spacing" textLength="102" x="480.5" y="343.1636">s&#7889; d&#432; qu&#7929; hi&#7879;n t&#7841;i</text><rect fill="#FFFFFF" height="33.3687" rx="12.5" ry="12.5" style="stroke:#000000;stroke-width:1.0;" width="129" x="375" y="619.6851"/><text fill="#000000" font-family="Verdana" font-size="11" lengthAdjust="spacing" textLength="109" x="385" y="640.7441">Ki&#7875;m tra s&#7889; d&#432; qu&#7929;</text><rect fill="#FFFFFF" height="46.7373" rx="12.5" ry="12.5" style="stroke:#000000;stroke-width:1.0;" width="135" x="372" y="735.1067"/><text fill="#000000" font-family="Verdana" font-size="11" lengthAdjust="spacing" textLength="77" x="382" y="756.1658">Th&#244;ng b&#225;o l&#7895;i</text><text fill="#000000" font-family="Verdana" font-size="11" lengthAdjust="spacing" textLength="115" x="382" y="769.5344">Qu&#7929; kh&#244;ng &#273;&#7911; s&#7889; d&#432;</text><ellipse cx="439.5" cy="827.844" fill="none" rx="11" ry="11" style="stroke:#000000;stroke-width:1.0;"/><ellipse cx="439.5" cy="827.844" fill="#FFFFFF" rx="6" ry="6" style="stroke:#000000;stroke-width:1.0;"/><polygon fill="#FFFFFF" points="398.5,686.4224,480.5,686.4224,492.5,698.4224,480.5,710.4224,398.5,710.4224,386.5,698.4224,398.5,686.4224" style="stroke:#000000;stroke-width:1.0;"/><text fill="#000000" font-family="Verdana" font-size="11" lengthAdjust="spacing" textLength="36" x="443.5" y="721.4814">Kh&#244;ng</text><text fill="#000000" font-family="Verdana" font-size="11" lengthAdjust="spacing" textLength="82" x="398.5" y="702.7971">Qu&#7929; &#273;&#7911; s&#7889; d&#432;?</text><rect fill="#FFFFFF" height="33.3687" rx="12.5" ry="12.5" style="stroke:#000000;stroke-width:1.0;" width="148" x="365.5" y="989.3186"/><text fill="#000000" font-family="Verdana" font-size="11" lengthAdjust="spacing" textLength="128" x="375.5" y="1010.3777">L&#432;u k&#7871;t qu&#7843; ph&#234; duy&#7879;t</text><rect fill="#FFFFFF" height="46.7373" rx="12.5" ry="12.5" style="stroke:#000000;stroke-width:1.0;" width="131" x="374" y="1057.6873"/><text fill="#000000" font-family="Verdana" font-size="11" lengthAdjust="spacing" textLength="111" x="384" y="1078.7463">C&#7853;p nh&#7853;t tr&#7841;ng th&#225;i</text><text fill="#000000" font-family="Verdana" font-size="11" lengthAdjust="spacing" textLength="82" x="384" y="1092.115">"&#272;&#227; gi&#7843;i ng&#226;n"</text><rect fill="#FFFFFF" height="33.3687" rx="12.5" ry="12.5" style="stroke:#000000;stroke-width:1.0;" width="104" x="387.5" y="1139.4246"/><text fill="#000000" font-family="Verdana" font-size="11" lengthAdjust="spacing" textLength="84" x="397.5" y="1160.4836">Tr&#7915; ti&#7873;n t&#7915; qu&#7929;</text><rect fill="#FFFFFF" height="33.3687" rx="12.5" ry="12.5" style="stroke:#000000;stroke-width:1.0;" width="122" x="378.5" y="1192.7932"/><text fill="#000000" font-family="Verdana" font-size="11" lengthAdjust="spacing" textLength="102" x="388.5" y="1213.8523">T&#7841;o giao d&#7883;ch CHI</text><rect fill="#FFFFFF" height="46.7373" rx="12.5" ry="12.5" style="stroke:#000000;stroke-width:1.0;" width="100" x="389.5" y="1246.1619"/><text fill="#000000" font-family="Verdana" font-size="11" lengthAdjust="spacing" textLength="80" x="399.5" y="1267.2209">G&#7917;i th&#244;ng b&#225;o</text><text fill="#000000" font-family="Verdana" font-size="11" lengthAdjust="spacing" textLength="75" x="399.5" y="1280.5896">cho sinh vi&#234;n</text><rect fill="#FFFFFF" height="33.3687" rx="12.5" ry="12.5" style="stroke:#000000;stroke-width:1.0;" width="129" x="559" y="880.844"/><text fill="#000000" font-family="Verdana" font-size="11" lengthAdjust="spacing" textLength="109" x="569" y="901.9031">L&#432;u k&#7871;t qu&#7843; t&#7915; ch&#7889;i</text><rect fill="#FFFFFF" height="46.7373" rx="12.5" ry="12.5" style="stroke:#000000;stroke-width:1.0;" width="131" x="558" y="949.2126"/><text fill="#000000" font-family="Verdana" font-size="11" lengthAdjust="spacing" textLength="111" x="568" y="970.2717">C&#7853;p nh&#7853;t tr&#7841;ng th&#225;i</text><text fill="#000000" font-family="Verdana" font-size="11" lengthAdjust="spacing" textLength="86" x="568" y="983.6404">"T&#7915; ch&#7889;i c&#7845;p 3"</text><rect fill="#FFFFFF" height="46.7373" rx="12.5" ry="12.5" style="stroke:#000000;stroke-width:1.0;" width="100" x="573.5" y="1030.95"/><text fill="#000000" font-family="Verdana" font-size="11" lengthAdjust="spacing" textLength="80" x="583.5" y="1052.009">G&#7917;i th&#244;ng b&#225;o</text><text fill="#000000" font-family="Verdana" font-size="11" lengthAdjust="spacing" textLength="75" x="583.5" y="1065.3777">cho sinh vi&#234;n</text><line style="stroke:#000000;stroke-width:1.0;" x1="359.5" x2="359.5" y1="55.0166" y2="1515.7424"/><line style="stroke:#000000;stroke-width:1.0;" x1="708" x2="708" y1="55.0166" y2="1515.7424"/><line style="stroke:#000000;stroke-width:1.0;" x1="188" x2="188" y1="101.8926" y2="121.8926"/><polygon fill="#000000" points="184,111.8926,188,121.8926,192,111.8926,188,115.8926" style="stroke:#000000;stroke-width:1.0;"/><line style="stroke:#000000;stroke-width:1.0;" x1="188" x2="188" y1="155.2612" y2="175.2612"/><polygon fill="#000000" points="184,165.2612,188,175.2612,192,165.2612,188,169.2612" style="stroke:#000000;stroke-width:1.0;"/><line style="stroke:#000000;stroke-width:1.0;" x1="188" x2="188" y1="408.8418" y2="428.8418"/><polygon fill="#000000" points="184,418.8418,188,428.8418,192,418.8418,188,422.8418" style="stroke:#000000;stroke-width:1.0;"/><line style="stroke:#000000;stroke-width:1.0;" x1="188" x2="188" y1="502.3164" y2="522.3164"/><polygon fill="#000000" points="184,512.3164,188,522.3164,192,512.3164,188,516.3164" style="stroke:#000000;stroke-width:1.0;"/><line style="stroke:#000000;stroke-width:1.0;" x1="280" x2="280" y1="781.844" y2="816.844"/><polygon fill="#000000" points="276,806.844,280,816.844,284,806.844,280,810.844" style="stroke:#000000;stroke-width:1.0;"/><line style="stroke:#000000;stroke-width:1.0;" x1="280" x2="280" y1="723.791" y2="748.4753"/><polygon fill="#000000" points="276,738.4753,280,748.4753,284,738.4753,280,742.4753" style="stroke:#000000;stroke-width:1.0;"/><line style="stroke:#000000;stroke-width:1.0;" x1="335" x2="623.5" y1="711.791" y2="711.791"/><polygon fill="#000000" points="619.5,798.1597,623.5,808.1597,627.5,798.1597,623.5,802.1597" style="stroke:#000000;stroke-width:1.0;"/><line style="stroke:#000000;stroke-width:1.0;" x1="623.5" x2="623.5" y1="711.791" y2="880.844"/><polygon fill="#000000" points="619.5,870.844,623.5,880.844,627.5,870.844,623.5,874.844" style="stroke:#000000;stroke-width:1.0;"/><line style="stroke:#000000;stroke-width:1.0;" x1="280" x2="280" y1="666.4224" y2="699.791"/><polygon fill="#000000" points="276,689.791,280,699.791,284,689.791,280,693.791" style="stroke:#000000;stroke-width:1.0;"/><line style="stroke:#000000;stroke-width:1.0;" x1="234" x2="280" y1="587.6851" y2="587.6851"/><line style="stroke:#000000;stroke-width:1.0;" x1="280" x2="280" y1="587.6851" y2="619.6851"/><polygon fill="#000000" points="276,609.6851,280,619.6851,284,609.6851,280,613.6851" style="stroke:#000000;stroke-width:1.0;"/><line style="stroke:#000000;stroke-width:1.0;" x1="96" x2="96" y1="1386.3738" y2="1408.3738"/><line style="stroke:#000000;stroke-width:1.0;" x1="96" x2="176" y1="1408.3738" y2="1408.3738"/><polygon fill="#000000" points="166,1404.3738,176,1408.3738,166,1412.3738,170,1408.3738" style="stroke:#000000;stroke-width:1.0;"/><line style="stroke:#000000;stroke-width:1.0;" x1="280" x2="280" y1="1146.0559" y2="1408.3738"/><line style="stroke:#000000;stroke-width:1.0;" x1="280" x2="200" y1="1408.3738" y2="1408.3738"/><polygon fill="#000000" points="210,1404.3738,200,1408.3738,210,1412.3738,206,1408.3738" style="stroke:#000000;stroke-width:1.0;"/><line style="stroke:#000000;stroke-width:1.0;" x1="188" x2="188" y1="555.6851" y2="575.6851"/><polygon fill="#000000" points="184,565.6851,188,575.6851,192,565.6851,188,569.6851" style="stroke:#000000;stroke-width:1.0;"/><line style="stroke:#000000;stroke-width:1.0;" x1="188" x2="188" y1="1420.3738" y2="1440.3738"/><polygon fill="#000000" points="184,1430.3738,188,1440.3738,192,1430.3738,188,1434.3738" style="stroke:#000000;stroke-width:1.0;"/><line style="stroke:#000000;stroke-width:1.0;" x1="188" x2="188" y1="1473.7424" y2="1493.7424"/><polygon fill="#000000" points="184,1483.7424,188,1493.7424,192,1483.7424,188,1487.7424" style="stroke:#000000;stroke-width:1.0;"/><line style="stroke:#000000;stroke-width:1.0;" x1="531.5" x2="531.5" y1="288.7358" y2="308.7358"/><polygon fill="#000000" points="527.5,298.7358,531.5,308.7358,535.5,298.7358,531.5,302.7358" style="stroke:#000000;stroke-width:1.0;"/><line style="stroke:#000000;stroke-width:1.0;" x1="439.5" x2="439.5" y1="781.844" y2="816.844"/><polygon fill="#000000" points="435.5,806.844,439.5,816.844,443.5,806.844,439.5,810.844" style="stroke:#000000;stroke-width:1.0;"/><line style="stroke:#000000;stroke-width:1.0;" x1="439.5" x2="439.5" y1="710.4224" y2="735.1067"/><polygon fill="#000000" points="435.5,725.1067,439.5,735.1067,443.5,725.1067,439.5,729.1067" style="stroke:#000000;stroke-width:1.0;"/><line style="stroke:#000000;stroke-width:1.0;" x1="492.5" x2="517" y1="698.4224" y2="698.4224"/><polygon fill="#000000" points="513,782.7253,517,792.7253,521,782.7253,517,786.7253" style="stroke:#000000;stroke-width:1.0;"/><line style="stroke:#000000;stroke-width:1.0;" x1="517" x2="517" y1="698.4224" y2="865.844"/><line style="stroke:#000000;stroke-width:1.0;" x1="517" x2="96" y1="865.844" y2="865.844"/><line style="stroke:#000000;stroke-width:1.0;" x1="96" x2="96" y1="865.844" y2="880.844"/><polygon fill="#000000" points="92,870.844,96,880.844,100,870.844,96,874.844" style="stroke:#000000;stroke-width:1.0;"/><line style="stroke:#000000;stroke-width:1.0;" x1="439.5" x2="439.5" y1="653.0537" y2="686.4224"/><polygon fill="#000000" points="435.5,676.4224,439.5,686.4224,443.5,676.4224,439.5,680.4224" style="stroke:#000000;stroke-width:1.0;"/><line style="stroke:#000000;stroke-width:1.0;" x1="439.5" x2="439.5" y1="1022.6873" y2="1057.6873"/><polygon fill="#000000" points="435.5,1047.6873,439.5,1057.6873,443.5,1047.6873,439.5,1051.6873" style="stroke:#000000;stroke-width:1.0;"/><line style="stroke:#000000;stroke-width:1.0;" x1="439.5" x2="439.5" y1="1104.4246" y2="1139.4246"/><polygon fill="#000000" points="435.5,1129.4246,439.5,1139.4246,443.5,1129.4246,439.5,1133.4246" style="stroke:#000000;stroke-width:1.0;"/><line style="stroke:#000000;stroke-width:1.0;" x1="439.5" x2="439.5" y1="1172.7932" y2="1192.7932"/><polygon fill="#000000" points="435.5,1182.7932,439.5,1192.7932,443.5,1182.7932,439.5,1186.7932" style="stroke:#000000;stroke-width:1.0;"/><line style="stroke:#000000;stroke-width:1.0;" x1="439.5" x2="439.5" y1="1226.1619" y2="1246.1619"/><polygon fill="#000000" points="435.5,1236.1619,439.5,1246.1619,443.5,1236.1619,439.5,1240.1619" style="stroke:#000000;stroke-width:1.0;"/><line style="stroke:#000000;stroke-width:1.0;" x1="623.5" x2="623.5" y1="914.2126" y2="949.2126"/><polygon fill="#000000" points="619.5,939.2126,623.5,949.2126,627.5,939.2126,623.5,943.2126" style="stroke:#000000;stroke-width:1.0;"/><line style="stroke:#000000;stroke-width:1.0;" x1="623.5" x2="623.5" y1="995.95" y2="1030.95"/><polygon fill="#000000" points="619.5,1020.95,623.5,1030.95,627.5,1020.95,623.5,1024.95" style="stroke:#000000;stroke-width:1.0;"/><line style="stroke:#000000;stroke-width:1.0;" x1="188" x2="188" y1="221.9985" y2="226.9985"/><line style="stroke:#000000;stroke-width:1.0;" x1="188" x2="531.5" y1="226.9985" y2="226.9985"/><line style="stroke:#000000;stroke-width:1.0;" x1="531.5" x2="531.5" y1="226.9985" y2="241.9985"/><polygon fill="#000000" points="527.5,231.9985,531.5,241.9985,535.5,231.9985,531.5,235.9985" style="stroke:#000000;stroke-width:1.0;"/><line style="stroke:#000000;stroke-width:1.0;" x1="531.5" x2="531.5" y1="355.4731" y2="360.4731"/><line style="stroke:#000000;stroke-width:1.0;" x1="531.5" x2="188" y1="360.4731" y2="360.4731"/><line style="stroke:#000000;stroke-width:1.0;" x1="188" x2="188" y1="360.4731" y2="375.4731"/><polygon fill="#000000" points="184,365.4731,188,375.4731,192,365.4731,188,369.4731" style="stroke:#000000;stroke-width:1.0;"/><line style="stroke:#000000;stroke-width:1.0;" x1="96" x2="96" y1="954.3186" y2="971.8186"/><line style="stroke:#000000;stroke-width:1.0;" x1="96" x2="439.5" y1="971.8186" y2="971.8186"/><line style="stroke:#000000;stroke-width:1.0;" x1="439.5" x2="439.5" y1="971.8186" y2="989.3186"/><polygon fill="#000000" points="435.5,979.3186,439.5,989.3186,443.5,979.3186,439.5,983.3186" style="stroke:#000000;stroke-width:1.0;"/><line style="stroke:#000000;stroke-width:1.0;" x1="439.5" x2="439.5" y1="1292.8992" y2="1297.8992"/><line style="stroke:#000000;stroke-width:1.0;" x1="439.5" x2="96" y1="1297.8992" y2="1297.8992"/><line style="stroke:#000000;stroke-width:1.0;" x1="96" x2="96" y1="1297.8992" y2="1312.8992"/><polygon fill="#000000" points="92,1302.8992,96,1312.8992,100,1302.8992,96,1306.8992" style="stroke:#000000;stroke-width:1.0;"/><line style="stroke:#000000;stroke-width:1.0;" x1="623.5" x2="623.5" y1="1077.6873" y2="1095.1873"/><line style="stroke:#000000;stroke-width:1.0;" x1="623.5" x2="280" y1="1095.1873" y2="1095.1873"/><line style="stroke:#000000;stroke-width:1.0;" x1="280" x2="280" y1="1095.1873" y2="1112.6873"/><polygon fill="#000000" points="276,1102.6873,280,1112.6873,284,1102.6873,280,1106.6873" style="stroke:#000000;stroke-width:1.0;"/><line style="stroke:#000000;stroke-width:1.0;" x1="142" x2="130" y1="587.6851" y2="587.6851"/><line style="stroke:#000000;stroke-width:1.0;" x1="130" x2="130" y1="587.6851" y2="605.6851"/><line style="stroke:#000000;stroke-width:1.0;" x1="130" x2="439.5" y1="605.6851" y2="605.6851"/><line style="stroke:#000000;stroke-width:1.0;" x1="439.5" x2="439.5" y1="605.6851" y2="619.6851"/><polygon fill="#000000" points="435.5,609.6851,439.5,619.6851,443.5,609.6851,439.5,613.6851" style="stroke:#000000;stroke-width:1.0;"/><text fill="#000000" font-family="Verdana" font-size="18" lengthAdjust="spacing" textLength="69" x="150.25" y="73.1133">K&#7871; to&#225;n</text><text fill="#000000" font-family="Verdana" font-size="18" lengthAdjust="spacing" textLength="82" x="485.25" y="73.1133">H&#7879; th&#7889;ng</text><rect fill="none" height="61.0439" id="_legend" rx="7.5" ry="7.5" style="stroke:#000000;stroke-width:1.0;" width="389" x="318" y="1520.7424"/><text fill="#000000" font-family="Verdana" font-size="14" font-weight="bold" lengthAdjust="spacing" textLength="56" x="323" y="1539.8176">Quy&#7873;n:</text><text fill="#000000" font-family="Verdana" font-size="14" lengthAdjust="spacing" textLength="223" x="384" y="1539.8176">K&#7871; to&#225;n (role 2), Admin (role 1)</text><text fill="#000000" font-family="Verdana" font-size="14" font-weight="bold" lengthAdjust="spacing" textLength="35" x="323" y="1556.8323">API:</text><text fill="#000000" font-family="Verdana" font-size="14" lengthAdjust="spacing" textLength="236" x="363" y="1556.8323">PUT /api/applications/:id/disburse</text><text fill="#000000" font-family="Verdana" font-size="14" font-weight="bold" lengthAdjust="spacing" textLength="95" x="323" y="1573.8469">Quan tr&#7885;ng:</text><text fill="#000000" font-family="Verdana" font-size="14" lengthAdjust="spacing" textLength="279" x="423" y="1573.8469">Tr&#7915; ti&#7873;n qu&#7929; t&#7921; &#273;&#7897;ng, t&#7841;o giao d&#7883;ch CHI</text><!--SRC=[hLNVJzDG57w_VyKH4xCj47uOVUWU39Gm24X662gFfItjpRhRsTwYCtjH4qaa9lAanfWmq20O32Q-sCRmS0d_H_yJpxqTfPEWFhWVsTRpdNE-xpkdTzUuQxTiQ7i6PIHiKjOs0gC5QuRPT08_OfRkUtu0rsVKeu0mJ4utAE_C-8mlqoSsZ8yNek4Zsl8CPj-d5dTXujOO8PnopuPAPN9wxBO6zLdn4gPNLjFaHGFqDFvOXvjm0sfpQRmx1uiryMonKY6aYurrVKhlpgVn2N1Vz5YNXDm8ED7kYHqVU60m1uPgD8ttA317xBAXAj4Us2sm3EP2A7gc2wVRPpr6XdGtJJw05NNIP9E3cSQVsd0JuRBDBVdipc84ECAscTCbsW92EfSA0JdT5dlmC39Web-bNnCxpz8qUSvKZIreYiyj4c8riCwECI5DVe2BW4q4f76FLgzGgEaUDPkm8HLcBR7DFeF7ue3trPak1OwgJpWYCDYH7ya-6O66AxwZ9voolkuHM40oo1wP7FK9Zm_310QM1xZ9qjWXTyXJJKqCRKkgT1rAInZgzqosc7kdZ4fj1gMwAmxpF9nZOHvb0e2lApm6qEQbPIqvIWX_uwCoixxIEoKn1-NDvvLYsGUhzUMlYPwF0f8tL5tEyfjPRB1CLG52xhVnYyqikfuJlZmPRB3efl5H6rldDZi5jOWOWRfxTepEEqhcWQckAQkvsA78maSyycPOE09zlgm0DPoewOgu-ZU_5iwE8sYgCQ1DyHwq2-RBR4rN39aaoj5NN3N5HVIa6KEdht5xdS4xHXeNfCaNkLF9KxcU-3qVWjR04Zxc63vOsIxfitCgKiETekTcIDFnekdw45AyQJQeE6JLFzjPd5UHbCp1iZjOnfI82nClxgLMchodAd1NIShfgPws5zfGQaWbfhIFbWlZyyHFiFnCPnR5O6agZRysO6ebJTxgvSBwASjOCJDVFXrdRVHtRrKSHkfMZGR1VrYnVvrnWUW_ZBWWkd3E_OznAISAPB8pfaeoLKHRYeoEF3Xwj71kLedIJZpRGHm4r74vgLJaOOBBfbKgSD45Ie6FVnGJvM6Oj5hq_FTu6HCcwtCIN5zfmAZHflXkuq5fSEgpS5IZrgX5mxKe26rLt63IcEGLSsJIm7fdwuColgd3u1rpXjM9V6d7fQwCDVa5]--></g></svg>