<?xml version="1.0" encoding="us-ascii" standalone="no"?><svg xmlns="http://www.w3.org/2000/svg" xmlns:xlink="http://www.w3.org/1999/xlink" contentStyleType="text/css" height="1437px" preserveAspectRatio="none" style="width:808px;height:1437px;background:#FFFFFF;" version="1.1" viewBox="0 0 808 1437" width="808px" zoomAndPan="magnify"><defs/><g><text fill="#000000" font-family="Verdana" font-size="22" font-weight="bold" lengthAdjust="spacing" textLength="371" x="217.25" y="37.1182">SD01: &#272;&#258;NG NH&#7852;P H&#7878; TH&#7888;NG</text><rect fill="#FFFFFF" height="1022.5894" style="stroke:#000000;stroke-width:1.0;" width="10" x="305" y="162.5513"/><rect fill="#FFFFFF" height="614.8916" style="stroke:#000000;stroke-width:1.0;" width="10" x="522" y="195.3506"/><rect fill="#FFFFFF" height="29.7993" style="stroke:#000000;stroke-width:1.0;" width="10" x="742" y="228.1499"/><rect fill="#FFFFFF" height="905.1914" style="stroke:#000000;stroke-width:1.0;" width="687" x="15" y="272.9492"/><rect fill="#FFFFFF" height="811.9941" style="stroke:none;stroke-width:1.0;" width="687" x="15" y="366.1465"/><rect fill="#FFFFFF" height="739.8262" style="stroke:#000000;stroke-width:1.0;" width="667" x="25" y="431.3145"/><rect fill="#FFFFFF" height="646.6289" style="stroke:none;stroke-width:1.0;" width="667" x="25" y="524.5117"/><rect fill="#FFFFFF" height="617.2603" style="stroke:#000000;stroke-width:1.0;" width="647" x="35" y="546.8804"/><rect fill="#FFFFFF" height="524.063" style="stroke:none;stroke-width:1.0;" width="647" x="35" y="640.0776"/><rect fill="#FFFFFF" height="246.2998" style="stroke:#000000;stroke-width:1.0;" width="332.5" x="45" y="910.8408"/><rect fill="#FFFFFF" height="60.9673" style="stroke:none;stroke-width:1.0;" width="332.5" x="45" y="974.2388"/><rect fill="#FFFFFF" height="60.9673" style="stroke:none;stroke-width:1.0;" width="332.5" x="45" y="1035.2061"/><rect fill="#FFFFFF" height="60.9673" style="stroke:none;stroke-width:1.0;" width="332.5" x="45" y="1096.1733"/><line style="stroke:#000000;stroke-width:1.0;" x1="99" x2="99" y1="130.752" y2="1195.1406"/><line style="stroke:#000000;stroke-width:1.0;" x1="309.5" x2="309.5" y1="130.752" y2="1195.1406"/><line style="stroke:#000000;stroke-width:1.0;" x1="526.5" x2="526.5" y1="130.752" y2="1195.1406"/><line style="stroke:#000000;stroke-width:1.0;" x1="746.5" x2="746.5" y1="130.752" y2="1195.1406"/><text fill="#000000" font-family="Verdana" font-size="14" lengthAdjust="spacing" textLength="82" x="55" y="127.8125">Ng&#432;&#7901;i d&#249;ng</text><ellipse cx="99" cy="61.7373" fill="#FFFFFF" rx="8" ry="8" style="stroke:#000000;stroke-width:1.0;"/><path d="M99,69.7373 L99,96.7373 M86,77.7373 L112,77.7373 M99,96.7373 L86,111.7373 M99,96.7373 L112,111.7373 " fill="none" style="stroke:#000000;stroke-width:1.0;"/><text fill="#000000" font-family="Verdana" font-size="14" lengthAdjust="spacing" textLength="82" x="55" y="1208.2158">Ng&#432;&#7901;i d&#249;ng</text><ellipse cx="99" cy="1220.1553" fill="#FFFFFF" rx="8" ry="8" style="stroke:#000000;stroke-width:1.0;"/><path d="M99,1228.1553 L99,1255.1553 M86,1236.1553 L112,1236.1553 M99,1255.1553 L86,1270.1553 M99,1255.1553 L112,1270.1553 " fill="none" style="stroke:#000000;stroke-width:1.0;"/><rect fill="#FFFFFF" height="31.0146" rx="2.5" ry="2.5" style="stroke:#000000;stroke-width:1.0;" width="95" x="262.5" y="98.7373"/><text fill="#000000" font-family="Verdana" font-size="14" lengthAdjust="spacing" textLength="81" x="269.5" y="119.8125">Tr&#236;nh duy&#7879;t</text><rect fill="#FFFFFF" height="31.0146" rx="2.5" ry="2.5" style="stroke:#000000;stroke-width:1.0;" width="95" x="262.5" y="1194.1406"/><text fill="#000000" font-family="Verdana" font-size="14" lengthAdjust="spacing" textLength="81" x="269.5" y="1215.2158">Tr&#236;nh duy&#7879;t</text><rect fill="#FFFFFF" height="31.0146" rx="2.5" ry="2.5" style="stroke:#000000;stroke-width:1.0;" width="107" x="473.5" y="98.7373"/><text fill="#000000" font-family="Verdana" font-size="14" lengthAdjust="spacing" textLength="93" x="480.5" y="119.8125">API H&#7879; th&#7889;ng</text><rect fill="#FFFFFF" height="31.0146" rx="2.5" ry="2.5" style="stroke:#000000;stroke-width:1.0;" width="107" x="473.5" y="1194.1406"/><text fill="#000000" font-family="Verdana" font-size="14" lengthAdjust="spacing" textLength="93" x="480.5" y="1215.2158">API H&#7879; th&#7889;ng</text><text fill="#000000" font-family="Verdana" font-size="14" lengthAdjust="spacing" textLength="93" x="697.5" y="127.8125">C&#417; s&#7903; d&#7919; li&#7879;u</text><path d="M729,77.7373 C729,67.7373 747,67.7373 747,67.7373 C747,67.7373 765,67.7373 765,77.7373 L765,103.7373 C765,113.7373 747,113.7373 747,113.7373 C747,113.7373 729,113.7373 729,103.7373 L729,77.7373 " fill="#FFFFFF" style="stroke:#000000;stroke-width:1.5;"/><path d="M729,77.7373 C729,87.7373 747,87.7373 747,87.7373 C747,87.7373 765,87.7373 765,77.7373 " fill="none" style="stroke:#000000;stroke-width:1.5;"/><text fill="#000000" font-family="Verdana" font-size="14" lengthAdjust="spacing" textLength="93" x="697.5" y="1208.2158">C&#417; s&#7903; d&#7919; li&#7879;u</text><path d="M729,1221.1553 C729,1211.1553 747,1211.1553 747,1211.1553 C747,1211.1553 765,1211.1553 765,1221.1553 L765,1247.1553 C765,1257.1553 747,1257.1553 747,1257.1553 C747,1257.1553 729,1257.1553 729,1247.1553 L729,1221.1553 " fill="#FFFFFF" style="stroke:#000000;stroke-width:1.5;"/><path d="M729,1221.1553 C729,1231.1553 747,1231.1553 747,1231.1553 C747,1231.1553 765,1231.1553 765,1221.1553 " fill="none" style="stroke:#000000;stroke-width:1.5;"/><rect fill="#FFFFFF" height="1022.5894" style="stroke:#000000;stroke-width:1.0;" width="10" x="305" y="162.5513"/><rect fill="#FFFFFF" height="614.8916" style="stroke:#000000;stroke-width:1.0;" width="10" x="522" y="195.3506"/><rect fill="#FFFFFF" height="29.7993" style="stroke:#000000;stroke-width:1.0;" width="10" x="742" y="228.1499"/><polygon fill="#000000" points="293,158.5513,303,162.5513,293,166.5513,297,162.5513" style="stroke:#000000;stroke-width:1.0;"/><line style="stroke:#000000;stroke-width:1.0;" x1="99" x2="299" y1="162.5513" y2="162.5513"/><text fill="#000000" font-family="Verdana" font-size="13" lengthAdjust="spacing" textLength="158" x="123" y="157.8218">Nh&#7853;p email v&#224; m&#7853;t kh&#7849;u</text><polygon fill="#000000" points="510,191.3506,520,195.3506,510,199.3506,514,195.3506" style="stroke:#000000;stroke-width:1.0;"/><line style="stroke:#000000;stroke-width:1.0;" x1="315" x2="516" y1="195.3506" y2="195.3506"/><text fill="#000000" font-family="Verdana" font-size="13" lengthAdjust="spacing" textLength="153" x="342" y="190.6211">G&#7917;i y&#234;u c&#7847;u &#273;&#259;ng nh&#7853;p</text><path d="M537,175.5513 L537,200.5513 L696,200.5513 L696,185.5513 L686,175.5513 L537,175.5513 " fill="#FFFFFF" style="stroke:#000000;stroke-width:1.0;"/><path d="M686,175.5513 L686,185.5513 L696,185.5513 L686,175.5513 " fill="#FFFFFF" style="stroke:#000000;stroke-width:1.0;"/><text fill="#000000" font-family="Verdana" font-size="13" lengthAdjust="spacing" textLength="138" x="543" y="193.6211">POST /api/auth/login</text><polygon fill="#000000" points="730,224.1499,740,228.1499,730,232.1499,734,228.1499" style="stroke:#000000;stroke-width:1.0;"/><line style="stroke:#000000;stroke-width:1.0;" x1="532" x2="736" y1="228.1499" y2="228.1499"/><text fill="#000000" font-family="Verdana" font-size="13" lengthAdjust="spacing" textLength="174" x="550" y="223.4204">T&#236;m ng&#432;&#7901;i d&#249;ng theo email</text><polygon fill="#000000" points="543,253.9492,533,257.9492,543,261.9492,539,257.9492" style="stroke:#000000;stroke-width:1.0;"/><line style="stroke:#000000;stroke-width:1.0;stroke-dasharray:2.0,2.0;" x1="537" x2="746" y1="257.9492" y2="257.9492"/><text fill="#000000" font-family="Verdana" font-size="13" lengthAdjust="spacing" textLength="186" x="546.5" y="253.2197">Tr&#7843; v&#7873; th&#244;ng tin ng&#432;&#7901;i d&#249;ng</text><path d="M15,272.9492 L79,272.9492 L79,280.7485 L69,290.7485 L15,290.7485 L15,272.9492 " fill="#FFFFFF" style="stroke:#000000;stroke-width:1.0;"/><rect fill="none" height="905.1914" style="stroke:#000000;stroke-width:1.0;" width="687" x="15" y="272.9492"/><text fill="#000000" font-family="Verdana" font-size="13" font-weight="bold" lengthAdjust="spacing" textLength="19" x="30" y="287.019">alt</text><text fill="#000000" font-family="Verdana" font-size="11" font-weight="bold" lengthAdjust="spacing" textLength="175" x="94" y="286.0083">[Ng&#432;&#7901;i d&#249;ng kh&#244;ng t&#7891;n t&#7841;i]</text><polygon fill="#000000" points="326,324.3472,316,328.3472,326,332.3472,322,328.3472" style="stroke:#000000;stroke-width:1.0;"/><line style="stroke:#000000;stroke-width:1.0;stroke-dasharray:2.0,2.0;" x1="320" x2="521" y1="328.3472" y2="328.3472"/><text fill="#000000" font-family="Verdana" font-size="13" lengthAdjust="spacing" textLength="89" x="374" y="307.8184">Th&#244;ng b&#225;o l&#7895;i</text><text fill="#000000" font-family="Verdana" font-size="13" lengthAdjust="spacing" textLength="136" x="350.5" y="323.6177">"Email kh&#244;ng t&#7891;n t&#7841;i"</text><polygon fill="#000000" points="110,354.1465,100,358.1465,110,362.1465,106,358.1465" style="stroke:#000000;stroke-width:1.0;"/><line style="stroke:#000000;stroke-width:1.0;stroke-dasharray:2.0,2.0;" x1="104" x2="304" y1="358.1465" y2="358.1465"/><text fill="#000000" font-family="Verdana" font-size="13" lengthAdjust="spacing" textLength="141" x="131.5" y="353.417">Hi&#7875;n th&#7883; th&#244;ng b&#225;o l&#7895;i</text><line style="stroke:#000000;stroke-width:1.0;stroke-dasharray:2.0,2.0;" x1="15" x2="702" y1="367.1465" y2="367.1465"/><text fill="#000000" font-family="Verdana" font-size="11" font-weight="bold" lengthAdjust="spacing" textLength="131" x="20" y="378.2056">[Ng&#432;&#7901;i d&#249;ng t&#7891;n t&#7841;i]</text><line style="stroke:#000000;stroke-width:1.0;" x1="532" x2="574" y1="403.3145" y2="403.3145"/><line style="stroke:#000000;stroke-width:1.0;" x1="574" x2="574" y1="403.3145" y2="416.3145"/><line style="stroke:#000000;stroke-width:1.0;" x1="533" x2="574" y1="416.3145" y2="416.3145"/><polygon fill="#000000" points="543,412.3145,533,416.3145,543,420.3145,539,416.3145" style="stroke:#000000;stroke-width:1.0;"/><text fill="#000000" font-family="Verdana" font-size="13" lengthAdjust="spacing" textLength="119" x="539" y="398.585">So s&#225;nh m&#7853;t kh&#7849;u</text><path d="M25,431.3145 L89,431.3145 L89,439.1138 L79,449.1138 L25,449.1138 L25,431.3145 " fill="#FFFFFF" style="stroke:#000000;stroke-width:1.0;"/><rect fill="none" height="739.8262" style="stroke:#000000;stroke-width:1.0;" width="667" x="25" y="431.3145"/><text fill="#000000" font-family="Verdana" font-size="13" font-weight="bold" lengthAdjust="spacing" textLength="19" x="40" y="445.3843">alt</text><text fill="#000000" font-family="Verdana" font-size="11" font-weight="bold" lengthAdjust="spacing" textLength="151" x="104" y="444.3735">[M&#7853;t kh&#7849;u kh&#244;ng &#273;&#250;ng]</text><polygon fill="#000000" points="326,482.7124,316,486.7124,326,490.7124,322,486.7124" style="stroke:#000000;stroke-width:1.0;"/><line style="stroke:#000000;stroke-width:1.0;stroke-dasharray:2.0,2.0;" x1="320" x2="521" y1="486.7124" y2="486.7124"/><text fill="#000000" font-family="Verdana" font-size="13" lengthAdjust="spacing" textLength="89" x="374" y="466.1836">Th&#244;ng b&#225;o l&#7895;i</text><text fill="#000000" font-family="Verdana" font-size="13" lengthAdjust="spacing" textLength="183" x="327" y="481.9829">"M&#7853;t kh&#7849;u kh&#244;ng ch&#237;nh x&#225;c"</text><polygon fill="#000000" points="110,512.5117,100,516.5117,110,520.5117,106,516.5117" style="stroke:#000000;stroke-width:1.0;"/><line style="stroke:#000000;stroke-width:1.0;stroke-dasharray:2.0,2.0;" x1="104" x2="304" y1="516.5117" y2="516.5117"/><text fill="#000000" font-family="Verdana" font-size="13" lengthAdjust="spacing" textLength="141" x="131.5" y="511.7822">Hi&#7875;n th&#7883; th&#244;ng b&#225;o l&#7895;i</text><line style="stroke:#000000;stroke-width:1.0;stroke-dasharray:2.0,2.0;" x1="25" x2="692" y1="525.5117" y2="525.5117"/><text fill="#000000" font-family="Verdana" font-size="11" font-weight="bold" lengthAdjust="spacing" textLength="107" x="30" y="536.5708">[M&#7853;t kh&#7849;u &#273;&#250;ng]</text><path d="M35,546.8804 L99,546.8804 L99,554.6797 L89,564.6797 L35,564.6797 L35,546.8804 " fill="#FFFFFF" style="stroke:#000000;stroke-width:1.0;"/><rect fill="none" height="617.2603" style="stroke:#000000;stroke-width:1.0;" width="647" x="35" y="546.8804"/><text fill="#000000" font-family="Verdana" font-size="13" font-weight="bold" lengthAdjust="spacing" textLength="19" x="50" y="560.9502">alt</text><text fill="#000000" font-family="Verdana" font-size="11" font-weight="bold" lengthAdjust="spacing" textLength="128" x="114" y="559.9395">[T&#224;i kho&#7843;n b&#7883; kh&#243;a]</text><polygon fill="#000000" points="326,598.2783,316,602.2783,326,606.2783,322,602.2783" style="stroke:#000000;stroke-width:1.0;"/><line style="stroke:#000000;stroke-width:1.0;stroke-dasharray:2.0,2.0;" x1="320" x2="521" y1="602.2783" y2="602.2783"/><text fill="#000000" font-family="Verdana" font-size="13" lengthAdjust="spacing" textLength="89" x="374" y="581.7495">Th&#244;ng b&#225;o l&#7895;i</text><text fill="#000000" font-family="Verdana" font-size="13" lengthAdjust="spacing" textLength="147" x="345" y="597.5488">"T&#224;i kho&#7843;n &#273;&#227; b&#7883; kh&#243;a"</text><polygon fill="#000000" points="110,628.0776,100,632.0776,110,636.0776,106,632.0776" style="stroke:#000000;stroke-width:1.0;"/><line style="stroke:#000000;stroke-width:1.0;stroke-dasharray:2.0,2.0;" x1="104" x2="304" y1="632.0776" y2="632.0776"/><text fill="#000000" font-family="Verdana" font-size="13" lengthAdjust="spacing" textLength="141" x="131.5" y="627.3481">Hi&#7875;n th&#7883; th&#244;ng b&#225;o l&#7895;i</text><line style="stroke:#000000;stroke-width:1.0;stroke-dasharray:2.0,2.0;" x1="35" x2="682" y1="641.0776" y2="641.0776"/><text fill="#000000" font-family="Verdana" font-size="11" font-weight="bold" lengthAdjust="spacing" textLength="145" x="40" y="652.1367">[T&#224;i kho&#7843;n ho&#7841;t &#273;&#7897;ng]</text><line style="stroke:#000000;stroke-width:1.0;" x1="532" x2="574" y1="693.0449" y2="693.0449"/><line style="stroke:#000000;stroke-width:1.0;" x1="574" x2="574" y1="693.0449" y2="706.0449"/><line style="stroke:#000000;stroke-width:1.0;" x1="533" x2="574" y1="706.0449" y2="706.0449"/><polygon fill="#000000" points="543,702.0449,533,706.0449,543,710.0449,539,706.0449" style="stroke:#000000;stroke-width:1.0;"/><text fill="#000000" font-family="Verdana" font-size="13" lengthAdjust="spacing" textLength="131" x="539" y="672.5161">T&#7841;o token x&#225;c th&#7921;c</text><text fill="#000000" font-family="Verdana" font-size="13" lengthAdjust="spacing" textLength="125" x="542" y="688.3154">(Th&#7901;i h&#7841;n 15 ph&#250;t)</text><line style="stroke:#000000;stroke-width:1.0;" x1="532" x2="574" y1="751.6436" y2="751.6436"/><line style="stroke:#000000;stroke-width:1.0;" x1="574" x2="574" y1="751.6436" y2="764.6436"/><line style="stroke:#000000;stroke-width:1.0;" x1="533" x2="574" y1="764.6436" y2="764.6436"/><polygon fill="#000000" points="543,760.6436,533,764.6436,543,768.6436,539,764.6436" style="stroke:#000000;stroke-width:1.0;"/><text fill="#000000" font-family="Verdana" font-size="13" lengthAdjust="spacing" textLength="121" x="539" y="731.1147">T&#7841;o token l&#224;m m&#7899;i</text><text fill="#000000" font-family="Verdana" font-size="13" lengthAdjust="spacing" textLength="119" x="540" y="746.9141">(Th&#7901;i h&#7841;n 7 ng&#224;y)</text><polygon fill="#000000" points="326,806.2422,316,810.2422,326,814.2422,322,810.2422" style="stroke:#000000;stroke-width:1.0;"/><line style="stroke:#000000;stroke-width:1.0;stroke-dasharray:2.0,2.0;" x1="320" x2="526" y1="810.2422" y2="810.2422"/><text fill="#000000" font-family="Verdana" font-size="13" lengthAdjust="spacing" textLength="106" x="368" y="789.7134">Tr&#7843; v&#7873; token v&#224;</text><text fill="#000000" font-family="Verdana" font-size="13" lengthAdjust="spacing" textLength="138" x="352" y="805.5127">th&#244;ng tin ng&#432;&#7901;i d&#249;ng</text><line style="stroke:#000000;stroke-width:1.0;" x1="315" x2="357" y1="840.0415" y2="840.0415"/><line style="stroke:#000000;stroke-width:1.0;" x1="357" x2="357" y1="840.0415" y2="853.0415"/><line style="stroke:#000000;stroke-width:1.0;" x1="316" x2="357" y1="853.0415" y2="853.0415"/><polygon fill="#000000" points="326,849.0415,316,853.0415,326,857.0415,322,853.0415" style="stroke:#000000;stroke-width:1.0;"/><text fill="#000000" font-family="Verdana" font-size="13" lengthAdjust="spacing" textLength="145" x="322" y="835.312">L&#432;u token v&#224;o b&#7897; nh&#7899;</text><line style="stroke:#000000;stroke-width:1.0;" x1="315" x2="357" y1="882.8408" y2="882.8408"/><line style="stroke:#000000;stroke-width:1.0;" x1="357" x2="357" y1="882.8408" y2="895.8408"/><line style="stroke:#000000;stroke-width:1.0;" x1="316" x2="357" y1="895.8408" y2="895.8408"/><polygon fill="#000000" points="326,891.8408,316,895.8408,326,899.8408,322,895.8408" style="stroke:#000000;stroke-width:1.0;"/><text fill="#000000" font-family="Verdana" font-size="13" lengthAdjust="spacing" textLength="183" x="322" y="878.1113">X&#225;c &#273;&#7883;nh vai tr&#242; ng&#432;&#7901;i d&#249;ng</text><path d="M45,910.8408 L109,910.8408 L109,918.6401 L99,928.6401 L45,928.6401 L45,910.8408 " fill="#FFFFFF" style="stroke:#000000;stroke-width:1.0;"/><rect fill="none" height="246.2998" style="stroke:#000000;stroke-width:1.0;" width="332.5" x="45" y="910.8408"/><text fill="#000000" font-family="Verdana" font-size="13" font-weight="bold" lengthAdjust="spacing" textLength="19" x="60" y="924.9106">alt</text><text fill="#000000" font-family="Verdana" font-size="11" font-weight="bold" lengthAdjust="spacing" textLength="124" x="124" y="923.8999">[Admin (Vai tr&#242; 1)]</text><polygon fill="#000000" points="110,962.2388,100,966.2388,110,970.2388,106,966.2388" style="stroke:#000000;stroke-width:1.0;"/><line style="stroke:#000000;stroke-width:1.0;stroke-dasharray:2.0,2.0;" x1="104" x2="304" y1="966.2388" y2="966.2388"/><text fill="#000000" font-family="Verdana" font-size="13" lengthAdjust="spacing" textLength="78" x="163" y="945.71">Chuy&#7875;n &#273;&#7871;n</text><text fill="#000000" font-family="Verdana" font-size="13" lengthAdjust="spacing" textLength="138" x="133" y="961.5093">Trang qu&#7843;n tr&#7883; Admin</text><line style="stroke:#000000;stroke-width:1.0;stroke-dasharray:2.0,2.0;" x1="45" x2="377.5" y1="975.2388" y2="975.2388"/><text fill="#000000" font-family="Verdana" font-size="11" font-weight="bold" lengthAdjust="spacing" textLength="132" x="50" y="986.2979">[K&#7871; to&#225;n (Vai tr&#242; 2)]</text><polygon fill="#000000" points="110,1023.2061,100,1027.2061,110,1031.2061,106,1027.2061" style="stroke:#000000;stroke-width:1.0;"/><line style="stroke:#000000;stroke-width:1.0;stroke-dasharray:2.0,2.0;" x1="104" x2="304" y1="1027.2061" y2="1027.2061"/><text fill="#000000" font-family="Verdana" font-size="13" lengthAdjust="spacing" textLength="78" x="163" y="1006.6772">Chuy&#7875;n &#273;&#7871;n</text><text fill="#000000" font-family="Verdana" font-size="13" lengthAdjust="spacing" textLength="153" x="125.5" y="1022.4766">Trang qu&#7843;n l&#253; t&#224;i ch&#237;nh</text><line style="stroke:#000000;stroke-width:1.0;stroke-dasharray:2.0,2.0;" x1="45" x2="377.5" y1="1036.2061" y2="1036.2061"/><text fill="#000000" font-family="Verdana" font-size="11" font-weight="bold" lengthAdjust="spacing" textLength="127" x="50" y="1047.2651">[C&#225;n b&#7897; (Vai tr&#242; 3)]</text><polygon fill="#000000" points="110,1084.1733,100,1088.1733,110,1092.1733,106,1088.1733" style="stroke:#000000;stroke-width:1.0;"/><line style="stroke:#000000;stroke-width:1.0;stroke-dasharray:2.0,2.0;" x1="104" x2="304" y1="1088.1733" y2="1088.1733"/><text fill="#000000" font-family="Verdana" font-size="13" lengthAdjust="spacing" textLength="78" x="163" y="1067.6445">Chuy&#7875;n &#273;&#7871;n</text><text fill="#000000" font-family="Verdana" font-size="13" lengthAdjust="spacing" textLength="120" x="142" y="1083.4438">Trang qu&#7843;n l&#253; &#273;&#417;n</text><line style="stroke:#000000;stroke-width:1.0;stroke-dasharray:2.0,2.0;" x1="45" x2="377.5" y1="1097.1733" y2="1097.1733"/><text fill="#000000" font-family="Verdana" font-size="11" font-weight="bold" lengthAdjust="spacing" textLength="220" x="50" y="1108.2324">[Sinh vi&#234;n/Nh&#224; t&#224;i tr&#7907; (Vai tr&#242; 4)]</text><polygon fill="#000000" points="110,1145.1406,100,1149.1406,110,1153.1406,106,1149.1406" style="stroke:#000000;stroke-width:1.0;"/><line style="stroke:#000000;stroke-width:1.0;stroke-dasharray:2.0,2.0;" x1="104" x2="304" y1="1149.1406" y2="1149.1406"/><text fill="#000000" font-family="Verdana" font-size="13" lengthAdjust="spacing" textLength="78" x="163" y="1128.6118">Chuy&#7875;n &#273;&#7871;n</text><text fill="#000000" font-family="Verdana" font-size="13" lengthAdjust="spacing" textLength="182" x="111" y="1144.4111">Trang d&#224;nh cho ng&#432;&#7901;i d&#249;ng</text><rect fill="none" height="146.1172" id="_legend" rx="7.5" ry="7.5" style="stroke:#000000;stroke-width:1.0;" width="426" x="369.5" y="1278.1553"/><text fill="#000000" font-family="Verdana" font-size="14" font-weight="bold" lengthAdjust="spacing" textLength="43" x="374.5" y="1297.2305">M&#244; t&#7843;</text><text fill="#000000" font-family="Verdana" font-size="14" lengthAdjust="spacing" textLength="331" x="417.5" y="1297.2305">: X&#225;c th&#7921;c ng&#432;&#7901;i d&#249;ng v&#224; ph&#226;n quy&#7873;n truy c&#7853;p</text><text fill="#000000" font-family="Verdana" font-size="14" font-weight="bold" lengthAdjust="spacing" textLength="29" x="374.5" y="1314.2451">API</text><text fill="#000000" font-family="Verdana" font-size="14" lengthAdjust="spacing" textLength="157" x="403.5" y="1314.2451">: POST /api/auth/login</text><text fill="#000000" font-family="Verdana" font-size="14" font-weight="bold" lengthAdjust="spacing" textLength="52" x="374.5" y="1331.2598">Vai tr&#242;</text><text fill="#000000" font-family="Verdana" font-size="14" lengthAdjust="spacing" textLength="6" x="426.5" y="1331.2598">:</text><text fill="#000000" font-family="Verdana" font-size="14" lengthAdjust="spacing" textLength="193" x="384.5" y="1348.2744">- 1 = Admin (Qu&#7843;n tr&#7883; vi&#234;n)</text><text fill="#000000" font-family="Verdana" font-size="14" lengthAdjust="spacing" textLength="97" x="384.5" y="1365.2891">- 2 = K&#7871; to&#225;n</text><text fill="#000000" font-family="Verdana" font-size="14" lengthAdjust="spacing" textLength="125" x="384.5" y="1382.3037">- 3 = C&#225;n b&#7897; Qu&#7929;</text><text fill="#000000" font-family="Verdana" font-size="14" lengthAdjust="spacing" textLength="187" x="384.5" y="1399.3184">- 4 = Sinh vi&#234;n/Nh&#224; t&#224;i tr&#7907;</text><text fill="#000000" font-family="Verdana" font-size="14" font-weight="bold" lengthAdjust="spacing" textLength="48" x="374.5" y="1416.333">Token</text><text fill="#000000" font-family="Verdana" font-size="14" lengthAdjust="spacing" textLength="368" x="422.5" y="1416.333">: Access Token (15 ph&#250;t) + Refresh Token (7 ng&#224;y)</text><!--SRC=[hLPDRzj64BtlhvWg5uU5uJWVA20W1VpHs45hrOsPeWTVrkIMN9XQAkJIhO-fWUIGIumSYY088iM7ee6Dfaqk4L7ai8B_1_z9PrOIHSfouZObO8fSphutysPcnv_fKBG5T28k5KjtfUhmXBTXXtkxGH9dob-9epY1IxViLR58nRrCA4ziY3JbWLYAPA304qgBX34jTIJ0SRPMhomsOV1uy4jh3LhhHVzu4zQB_06uU7_SMdCSnhYdaQ3H2avV5_bp2Rvvfu86y1JkfeY5R5fwiiELXeQRc6CLWf_j5_b3ROsMa_YdCtPBcxU9vo7eiCWFHt2uo7ok-GvF1JHMJdkG5laBy8ly3uWaMcVMR7MPCMA6-I_7u4reXKN_f0EYpMK4UwOBRNpNi8lBlsSKWjpZMfJEiD43OI1j4zQA_4J2ldcLWLVqVyjWS3WuK04eYpi181zLZ0-934BTXCrljrnOu1svm3CTBaHnW6bY51uYhoutmJN7RL0rxJ1e4GzTdG1ZLAlBC3_snqsA_X7i5Vbzj3PlQPDKKpZC5zNjZ4SQwbd2-8TxY_o9mdk_9ndWPVshokSExNPCBuQeo7-LswhnbTNoB4B3GfG28inTYx6EAJfGDgEFnavF09c8CAjJxitqQwJ0LWofwM4nrJ99LlP6mMvKlemT7HoQFae3e-j2aSx2yK9pWkG_cvxNAD7-TT2qoGPUevZoaK9nJLVYvnYphc27mD2FDxoqkN0iDI0aEggWDMfm_ocOCg0Q3_tqDD8L-TDAODCfTT4g1Xtl2cM5jKn_UjjgpWrjLQ0yFGMBDw0Jchw-V26Wo7JRM2FvCpcDymNsY-dkrs4-ecYbxImw7YNRwlmEh89Lkf5EYND9AqTFoVlDwUjimXXJpfxIsPC_- -ZM7qX8KluHbkiUbw0JyzU7_AozKEqj-MsCRExxyTx5kcApQsKbf3F-W6giwBzNsyfDE6fqBxC5eHCg8GjSmxAbypLkm62nkIkaLp-TD39_WwQo7FRkMU8LehJIJdYl_J-yWyFJtenGjoGbHPfNQg4LubIoxf4uHnKNhd-22xxf8eCNnX_Ak50-ctwcN_gh3f5oEaOYm6_36SSSPyEyfKFwo756vJRis-cnHcCN6_UbGc7Gr_jK1ja-pLESe8w3JK40CoUcuupL81DqS1uMuUQuCh-h5fLLyx8rkOecasAoIzTmQP9ct9Y_i-lNSVtyP22_Iyr7v4kUX_ynWNs7kV8iWi_XZlWn4Mau_bGUBoZLK33s3m00]--></g></svg>