<?xml version="1.0" encoding="us-ascii" standalone="no"?><svg xmlns="http://www.w3.org/2000/svg" xmlns:xlink="http://www.w3.org/1999/xlink" contentStyleType="text/css" height="1124px" preserveAspectRatio="none" style="width:1280px;height:1124px;background:#FFFFFF;" version="1.1" viewBox="0 0 1280 1124" width="1280px" zoomAndPan="magnify"><defs/><g><text fill="#000000" font-family="Verdana" font-size="22" font-weight="bold" lengthAdjust="spacing" textLength="471" x="403.25" y="37.1182">AD08b: KI&#7874;M SO&#193;T T&#192;I TR&#7906; (ADMIN)</text><rect fill="#FFFFFF" height="21.876" style="stroke:#FFFFFF;stroke-width:1.0;" width="1257.5" x="10" y="55.0166"/><rect fill="#FFCDD2" height="990.2297" style="stroke:#FFCDD2;stroke-width:1.0;" width="645" x="10" y="55.0166"/><ellipse cx="321.5" cy="91.8926" fill="#FFFFFF" rx="10" ry="10" style="stroke:#000000;stroke-width:1.0;"/><rect fill="#FFFFFF" height="33.3687" rx="12.5" ry="12.5" style="stroke:#000000;stroke-width:1.0;" width="138" x="252.5" y="121.8926"/><text fill="#000000" font-family="Verdana" font-size="11" lengthAdjust="spacing" textLength="118" x="262.5" y="142.9517">V&#224;o "Qu&#7843;n l&#253; t&#224;i tr&#7907;"</text><rect fill="#FFFFFF" height="33.3687" rx="12.5" ry="12.5" style="stroke:#000000;stroke-width:1.0;" width="88" x="277.5" y="295.4731"/><text fill="#000000" font-family="Verdana" font-size="11" lengthAdjust="spacing" textLength="68" x="287.5" y="316.5322">Ch&#7885;n b&#7897; l&#7885;c</text><rect fill="#FFFFFF" height="33.3687" rx="12.5" ry="12.5" style="stroke:#000000;stroke-width:1.0;" width="112" x="265.5" y="468.9478"/><text fill="#000000" font-family="Verdana" font-size="11" lengthAdjust="spacing" textLength="92" x="275.5" y="490.0068">Ch&#7885;n ch&#7913;c n&#259;ng</text><polygon fill="#FFFFFF" points="57.5,522.3164,124.5,522.3164,136.5,534.3164,124.5,546.3164,57.5,546.3164,45.5,534.3164,57.5,522.3164" style="stroke:#000000;stroke-width:1.0;"/><text fill="#000000" font-family="Verdana" font-size="11" lengthAdjust="spacing" textLength="68" x="95" y="557.3755">Xem chi ti&#7871;t</text><text fill="#000000" font-family="Verdana" font-size="11" lengthAdjust="spacing" textLength="67" x="57.5" y="538.6912">Ch&#7913;c n&#259;ng?</text><rect fill="#FFFFFF" height="33.3687" rx="12.5" ry="12.5" style="stroke:#000000;stroke-width:1.0;" width="150" x="16" y="578.8755"/><text fill="#000000" font-family="Verdana" font-size="11" lengthAdjust="spacing" textLength="130" x="26" y="599.9346">Click v&#224;o kho&#7843;n t&#224;i tr&#7907;</text><rect fill="#FFFFFF" height="33.3687" rx="12.5" ry="12.5" style="stroke:#000000;stroke-width:1.0;" width="120" x="31" y="770.7717"/><text fill="#000000" font-family="Verdana" font-size="11" lengthAdjust="spacing" textLength="100" x="41" y="791.8308">Xem v&#224; ph&#226;n t&#237;ch</text><rect fill="#FFFFFF" height="46.7373" rx="12.5" ry="12.5" style="stroke:#000000;stroke-width:1.0;" width="109" x="36.5" y="887.8247"/><text fill="#000000" font-family="Verdana" font-size="11" lengthAdjust="spacing" textLength="89" x="46.5" y="908.8838">Li&#234;n h&#7879; K&#7871; to&#225;n</text><text fill="#000000" font-family="Verdana" font-size="11" lengthAdjust="spacing" textLength="87" x="46.5" y="922.2524">&#273;&#7875; x&#225;c minh l&#7841;i</text><polygon fill="#FFFFFF" points="40,839.1404,142,839.1404,154,851.1404,142,863.1404,40,863.1404,28,851.1404,40,839.1404" style="stroke:#000000;stroke-width:1.0;"/><text fill="#000000" font-family="Verdana" font-size="11" lengthAdjust="spacing" textLength="16" x="95" y="874.1995">C&#243;</text><text fill="#000000" font-family="Verdana" font-size="11" lengthAdjust="spacing" textLength="102" x="40" y="855.5151">Ph&#225;t hi&#7879;n v&#7845;n &#273;&#7873;?</text><polygon fill="#FFFFFF" points="91,959.2463,103,971.2463,91,983.2463,79,971.2463,91,959.2463" style="stroke:#000000;stroke-width:1.0;"/><polygon fill="#FFFFFF" points="211,522.3164,278,522.3164,290,534.3164,278,546.3164,211,546.3164,199,534.3164,211,522.3164" style="stroke:#000000;stroke-width:1.0;"/><text fill="#000000" font-family="Verdana" font-size="11" lengthAdjust="spacing" textLength="80" x="248.5" y="557.3755">Xem th&#7889;ng k&#234;</text><text fill="#000000" font-family="Verdana" font-size="11" lengthAdjust="spacing" textLength="67" x="211" y="538.6912">Ch&#7913;c n&#259;ng?</text><rect fill="#FFFFFF" height="33.3687" rx="12.5" ry="12.5" style="stroke:#000000;stroke-width:1.0;" width="115" x="187" y="578.8755"/><text fill="#000000" font-family="Verdana" font-size="11" lengthAdjust="spacing" textLength="95" x="197" y="599.9346">Click "Th&#7889;ng k&#234;"</text><rect fill="#FFFFFF" height="46.7373" rx="12.5" ry="12.5" style="stroke:#000000;stroke-width:1.0;" width="129" x="180" y="892.615"/><text fill="#000000" font-family="Verdana" font-size="11" lengthAdjust="spacing" textLength="109" x="190" y="913.6741">Ph&#226;n t&#237;ch xu h&#432;&#7899;ng</text><text fill="#000000" font-family="Verdana" font-size="11" lengthAdjust="spacing" textLength="108" x="190" y="927.0427">v&#224; &#273;&#432;a ra &#273;&#225;nh gi&#225;</text><polygon fill="#FFFFFF" points="380.5,522.3164,447.5,522.3164,459.5,534.3164,447.5,546.3164,380.5,546.3164,368.5,534.3164,380.5,522.3164" style="stroke:#000000;stroke-width:1.0;"/><text fill="#000000" font-family="Verdana" font-size="11" lengthAdjust="spacing" textLength="75" x="418" y="557.3755">Xu&#7845;t b&#225;o c&#225;o</text><text fill="#000000" font-family="Verdana" font-size="11" lengthAdjust="spacing" textLength="67" x="380.5" y="538.6912">Ch&#7913;c n&#259;ng?</text><text fill="#000000" font-family="Verdana" font-size="11" lengthAdjust="spacing" textLength="108" x="459.5" y="532.0068">Xem giao d&#7883;ch THU</text><rect fill="#FFFFFF" height="33.3687" rx="12.5" ry="12.5" style="stroke:#000000;stroke-width:1.0;" width="137" x="345.5" y="578.8755"/><text fill="#000000" font-family="Verdana" font-size="11" lengthAdjust="spacing" textLength="117" x="355.5" y="599.9346">Click "Xu&#7845;t b&#225;o c&#225;o"</text><rect fill="#FFFFFF" height="33.3687" rx="12.5" ry="12.5" style="stroke:#000000;stroke-width:1.0;" width="107" x="360.5" y="825.7717"/><text fill="#000000" font-family="Verdana" font-size="11" lengthAdjust="spacing" textLength="87" x="370.5" y="846.8308">T&#7843;i file b&#225;o c&#225;o</text><rect fill="#FFFFFF" height="33.3687" rx="12.5" ry="12.5" style="stroke:#000000;stroke-width:1.0;" width="142" x="509" y="632.2441"/><text fill="#000000" font-family="Verdana" font-size="11" lengthAdjust="spacing" textLength="122" x="519" y="653.3032">Click "Giao d&#7883;ch THU"</text><rect fill="#FFFFFF" height="46.7373" rx="12.5" ry="12.5" style="stroke:#000000;stroke-width:1.0;" width="116" x="522" y="864.0874"/><text fill="#000000" font-family="Verdana" font-size="11" lengthAdjust="spacing" textLength="96" x="532" y="885.1465">Xem v&#224; ki&#7875;m tra</text><text fill="#000000" font-family="Verdana" font-size="11" lengthAdjust="spacing" textLength="91" x="532" y="898.5151">l&#7883;ch s&#7917; giao d&#7883;ch</text><ellipse cx="321.5" cy="1034.2463" fill="none" rx="11" ry="11" style="stroke:#000000;stroke-width:1.0;"/><ellipse cx="321.5" cy="1034.2463" fill="#FFFFFF" rx="6" ry="6" style="stroke:#000000;stroke-width:1.0;"/><line style="stroke:#000000;stroke-width:1.0;" x1="10" x2="10" y1="55.0166" y2="1045.2463"/><rect fill="#F5F5F5" height="990.2297" style="stroke:#F5F5F5;stroke-width:1.0;" width="598.5" x="655" y="55.0166"/><rect fill="#FFFFFF" height="100.2119" rx="12.5" ry="12.5" style="stroke:#000000;stroke-width:1.0;" width="125" x="911.5" y="175.2612"/><text fill="#000000" font-family="Verdana" font-size="11" lengthAdjust="spacing" textLength="81" x="921.5" y="196.3203">Hi&#7875;n th&#7883; b&#7897; l&#7885;c</text><text fill="#000000" font-family="Verdana" font-size="11" lengthAdjust="spacing" textLength="67" x="921.5" y="209.689">- Tr&#7841;ng th&#225;i</text><text fill="#000000" font-family="Verdana" font-size="11" lengthAdjust="spacing" textLength="32" x="921.5" y="223.0576">- Qu&#7929;</text><text fill="#000000" font-family="Verdana" font-size="11" lengthAdjust="spacing" textLength="69" x="921.5" y="236.4263">- Nh&#224; t&#224;i tr&#7907;</text><text fill="#000000" font-family="Verdana" font-size="11" lengthAdjust="spacing" textLength="105" x="921.5" y="249.7949">- Kho&#7843;ng th&#7901;i gian</text><text fill="#000000" font-family="Verdana" font-size="11" lengthAdjust="spacing" textLength="94" x="921.5" y="263.1636">- Kho&#7843;ng s&#7889; ti&#7873;n</text><rect fill="#FFFFFF" height="46.7373" rx="12.5" ry="12.5" style="stroke:#000000;stroke-width:1.0;" width="140" x="904" y="348.8418"/><text fill="#000000" font-family="Verdana" font-size="11" lengthAdjust="spacing" textLength="120" x="914" y="369.9009">L&#7845;y danh s&#225;ch t&#224;i tr&#7907;</text><text fill="#000000" font-family="Verdana" font-size="11" lengthAdjust="spacing" textLength="101" x="914" y="383.2695">theo &#273;i&#7873;u ki&#7879;n l&#7885;c</text><rect fill="#FFFFFF" height="33.3687" rx="12.5" ry="12.5" style="stroke:#000000;stroke-width:1.0;" width="159" x="894.5" y="415.5791"/><text fill="#000000" font-family="Verdana" font-size="11" lengthAdjust="spacing" textLength="139" x="904.5" y="436.6382">Hi&#7875;n th&#7883; th&#244;ng tin chi ti&#7871;t</text><rect fill="#FFFFFF" height="100.2119" rx="12.5" ry="12.5" style="stroke:#000000;stroke-width:1.0;" width="145" x="661" y="635.5598"/><text fill="#000000" font-family="Verdana" font-size="11" lengthAdjust="spacing" textLength="86" x="671" y="656.6189">Hi&#7875;n th&#7883; &#273;&#7847;y &#273;&#7911;</text><text fill="#000000" font-family="Verdana" font-size="11" lengthAdjust="spacing" textLength="125" x="671" y="669.9875">- Th&#244;ng tin nh&#224; t&#224;i tr&#7907;</text><text fill="#000000" font-family="Verdana" font-size="11" lengthAdjust="spacing" textLength="100" x="671" y="683.3562">- Th&#244;ng tin t&#224;i tr&#7907;</text><text fill="#000000" font-family="Verdana" font-size="11" lengthAdjust="spacing" textLength="118" x="671" y="696.7249">- Ch&#7913;ng t&#7915; &#273;&#237;nh k&#232;m</text><text fill="#000000" font-family="Verdana" font-size="11" lengthAdjust="spacing" textLength="97" x="671" y="710.0935">- Ng&#432;&#7901;i x&#225;c nh&#7853;n</text><text fill="#000000" font-family="Verdana" font-size="11" lengthAdjust="spacing" textLength="93" x="671" y="723.4622">- Th&#7901;i gian x&#7917; l&#253;</text><rect fill="#FFFFFF" height="100.2119" rx="12.5" ry="12.5" style="stroke:#000000;stroke-width:1.0;" width="162" x="816" y="635.5598"/><text fill="#000000" font-family="Verdana" font-size="11" lengthAdjust="spacing" textLength="107" x="826" y="656.6189">T&#237;nh to&#225;n th&#7889;ng k&#234;</text><text fill="#000000" font-family="Verdana" font-size="11" lengthAdjust="spacing" textLength="93" x="826" y="669.9875">- T&#7893;ng s&#7889; kho&#7843;n</text><text fill="#000000" font-family="Verdana" font-size="11" lengthAdjust="spacing" textLength="112" x="826" y="683.3562">- T&#7893;ng ti&#7873;n &#273;&#227; nh&#7853;n</text><text fill="#000000" font-family="Verdana" font-size="11" lengthAdjust="spacing" textLength="142" x="826" y="696.7249">- T&#7893;ng ti&#7873;n ch&#7901; x&#225;c nh&#7853;n</text><text fill="#000000" font-family="Verdana" font-size="11" lengthAdjust="spacing" textLength="62" x="826" y="710.0935">- Theo qu&#7929;</text><text fill="#000000" font-family="Verdana" font-size="11" lengthAdjust="spacing" textLength="73" x="826" y="723.4622">- Theo th&#225;ng</text><rect fill="#FFFFFF" height="86.8433" rx="12.5" ry="12.5" style="stroke:#000000;stroke-width:1.0;" width="113" x="840.5" y="770.7717"/><text fill="#000000" font-family="Verdana" font-size="11" lengthAdjust="spacing" textLength="67" x="850.5" y="791.8308">T&#7841;o bi&#7875;u &#273;&#7891;</text><text fill="#000000" font-family="Verdana" font-size="11" lengthAdjust="spacing" textLength="73" x="850.5" y="805.1995">- Bi&#7875;u &#273;&#7891; c&#7897;t</text><text fill="#000000" font-family="Verdana" font-size="11" lengthAdjust="spacing" textLength="79" x="850.5" y="818.5681">- Bi&#7875;u &#273;&#7891; tr&#242;n</text><text fill="#000000" font-family="Verdana" font-size="11" lengthAdjust="spacing" textLength="93" x="850.5" y="831.9368">- Top nh&#224; t&#224;i tr&#7907;</text><text fill="#000000" font-family="Verdana" font-size="11" lengthAdjust="spacing" textLength="63" x="850.5" y="845.3054">- Xu h&#432;&#7899;ng</text><rect fill="#FFFFFF" height="46.7373" rx="12.5" ry="12.5" style="stroke:#000000;stroke-width:1.0;" width="111" x="1011" y="635.5598"/><text fill="#000000" font-family="Verdana" font-size="11" lengthAdjust="spacing" textLength="91" x="1021" y="656.6189">T&#7841;o file b&#225;o c&#225;o</text><text fill="#000000" font-family="Verdana" font-size="11" lengthAdjust="spacing" textLength="87" x="1021" y="669.9875">Excel ho&#7863;c PDF</text><rect fill="#FFFFFF" height="73.4746" rx="12.5" ry="12.5" style="stroke:#000000;stroke-width:1.0;" width="136" x="998.5" y="717.2971"/><text fill="#000000" font-family="Verdana" font-size="11" lengthAdjust="spacing" textLength="51" x="1008.5" y="738.3562">Bao g&#7891;m</text><text fill="#000000" font-family="Verdana" font-size="11" lengthAdjust="spacing" textLength="107" x="1008.5" y="751.7249">- Danh s&#225;ch &#273;&#227; l&#7885;c</text><text fill="#000000" font-family="Verdana" font-size="11" lengthAdjust="spacing" textLength="116" x="1008.5" y="765.0935">- Th&#7889;ng k&#234; t&#7893;ng h&#7907;p</text><text fill="#000000" font-family="Verdana" font-size="11" lengthAdjust="spacing" textLength="52" x="1008.5" y="778.4622">- Bi&#7875;u &#273;&#7891;</text><rect fill="#FFFFFF" height="46.7373" rx="12.5" ry="12.5" style="stroke:#000000;stroke-width:1.0;" width="98" x="1148" y="700.6128"/><text fill="#000000" font-family="Verdana" font-size="11" lengthAdjust="spacing" textLength="60" x="1158" y="721.6719">L&#7845;y l&#7883;ch s&#7917;</text><text fill="#000000" font-family="Verdana" font-size="11" lengthAdjust="spacing" textLength="78" x="1158" y="735.0405">giao d&#7883;ch THU</text><rect fill="#FFFFFF" height="46.7373" rx="12.5" ry="12.5" style="stroke:#000000;stroke-width:1.0;" width="105" x="1144.5" y="782.3501"/><text fill="#000000" font-family="Verdana" font-size="11" lengthAdjust="spacing" textLength="85" x="1154.5" y="803.4092">Hi&#7875;n th&#7883; chi ti&#7871;t</text><text fill="#000000" font-family="Verdana" font-size="11" lengthAdjust="spacing" textLength="80" x="1154.5" y="816.7778">t&#7915;ng giao d&#7883;ch</text><line style="stroke:#000000;stroke-width:1.0;" x1="655" x2="655" y1="55.0166" y2="1045.2463"/><line style="stroke:#000000;stroke-width:1.0;" x1="1268.5" x2="1268.5" y1="55.0166" y2="1045.2463"/><line style="stroke:#000000;stroke-width:1.0;" x1="321.5" x2="321.5" y1="101.8926" y2="121.8926"/><polygon fill="#000000" points="317.5,111.8926,321.5,121.8926,325.5,111.8926,321.5,115.8926" style="stroke:#000000;stroke-width:1.0;"/><line style="stroke:#000000;stroke-width:1.0;" x1="91" x2="91" y1="863.1404" y2="887.8247"/><polygon fill="#000000" points="87,877.8247,91,887.8247,95,877.8247,91,881.8247" style="stroke:#000000;stroke-width:1.0;"/><line style="stroke:#000000;stroke-width:1.0;" x1="154" x2="166" y1="851.1404" y2="851.1404"/><polygon fill="#000000" points="162,901.1934,166,911.1934,170,901.1934,166,905.1934" style="stroke:#000000;stroke-width:1.0;"/><line style="stroke:#000000;stroke-width:1.0;" x1="166" x2="166" y1="851.1404" y2="971.2463"/><line style="stroke:#000000;stroke-width:1.0;" x1="166" x2="103" y1="971.2463" y2="971.2463"/><polygon fill="#000000" points="113,967.2463,103,971.2463,113,975.2463,109,971.2463" style="stroke:#000000;stroke-width:1.0;"/><line style="stroke:#000000;stroke-width:1.0;" x1="91" x2="91" y1="934.562" y2="959.2463"/><polygon fill="#000000" points="87,949.2463,91,959.2463,95,949.2463,91,953.2463" style="stroke:#000000;stroke-width:1.0;"/><line style="stroke:#000000;stroke-width:1.0;" x1="91" x2="91" y1="804.1404" y2="839.1404"/><polygon fill="#000000" points="87,829.1404,91,839.1404,95,829.1404,91,833.1404" style="stroke:#000000;stroke-width:1.0;"/><line style="stroke:#000000;stroke-width:1.0;" x1="91" x2="91" y1="546.3164" y2="578.8755"/><polygon fill="#000000" points="87,568.8755,91,578.8755,95,568.8755,91,572.8755" style="stroke:#000000;stroke-width:1.0;"/><line style="stroke:#000000;stroke-width:1.0;" x1="91" x2="91" y1="983.2463" y2="1003.2463"/><polygon fill="#000000" points="87,993.2463,91,1003.2463,95,993.2463,91,997.2463" style="stroke:#000000;stroke-width:1.0;"/><line style="stroke:#000000;stroke-width:1.0;" x1="244.5" x2="244.5" y1="546.3164" y2="578.8755"/><polygon fill="#000000" points="240.5,568.8755,244.5,578.8755,248.5,568.8755,244.5,572.8755" style="stroke:#000000;stroke-width:1.0;"/><line style="stroke:#000000;stroke-width:1.0;" x1="244.5" x2="244.5" y1="939.3523" y2="1003.2463"/><polygon fill="#000000" points="240.5,993.2463,244.5,1003.2463,248.5,993.2463,244.5,997.2463" style="stroke:#000000;stroke-width:1.0;"/><line style="stroke:#000000;stroke-width:1.0;" x1="414" x2="414" y1="546.3164" y2="578.8755"/><polygon fill="#000000" points="410,568.8755,414,578.8755,418,568.8755,414,572.8755" style="stroke:#000000;stroke-width:1.0;"/><line style="stroke:#000000;stroke-width:1.0;" x1="414" x2="414" y1="859.1404" y2="1003.2463"/><polygon fill="#000000" points="410,993.2463,414,1003.2463,418,993.2463,414,997.2463" style="stroke:#000000;stroke-width:1.0;"/><line style="stroke:#000000;stroke-width:1.0;" x1="136.5" x2="199" y1="534.3164" y2="534.3164"/><polygon fill="#000000" points="189,530.3164,199,534.3164,189,538.3164,193,534.3164" style="stroke:#000000;stroke-width:1.0;"/><line style="stroke:#000000;stroke-width:1.0;" x1="290" x2="368.5" y1="534.3164" y2="534.3164"/><polygon fill="#000000" points="358.5,530.3164,368.5,534.3164,358.5,538.3164,362.5,534.3164" style="stroke:#000000;stroke-width:1.0;"/><line style="stroke:#000000;stroke-width:1.0;" x1="321.5" x2="321.5" y1="502.3164" y2="507.3164"/><line style="stroke:#000000;stroke-width:1.0;" x1="321.5" x2="91" y1="507.3164" y2="507.3164"/><line style="stroke:#000000;stroke-width:1.0;" x1="91" x2="91" y1="507.3164" y2="522.3164"/><polygon fill="#000000" points="87,512.3164,91,522.3164,95,512.3164,91,516.3164" style="stroke:#000000;stroke-width:1.0;"/><line style="stroke:#000000;stroke-width:1.0;" x1="459.5" x2="580" y1="534.3164" y2="534.3164"/><line style="stroke:#000000;stroke-width:1.0;" x1="580" x2="580" y1="534.3164" y2="632.2441"/><polygon fill="#000000" points="576,622.2441,580,632.2441,584,622.2441,580,626.2441" style="stroke:#000000;stroke-width:1.0;"/><line style="stroke:#000000;stroke-width:1.0;" x1="580" x2="580" y1="910.8247" y2="1003.2463"/><polygon fill="#000000" points="576,993.2463,580,1003.2463,584,993.2463,580,997.2463" style="stroke:#000000;stroke-width:1.0;"/><line style="stroke:#000000;stroke-width:1.0;" x1="91" x2="580" y1="1003.2463" y2="1003.2463"/><line style="stroke:#000000;stroke-width:1.0;" x1="321.5" x2="321.5" y1="1003.2463" y2="1023.2463"/><polygon fill="#000000" points="317.5,1013.2463,321.5,1023.2463,325.5,1013.2463,321.5,1017.2463" style="stroke:#000000;stroke-width:1.0;"/><line style="stroke:#000000;stroke-width:1.0;" x1="974" x2="974" y1="395.5791" y2="415.5791"/><polygon fill="#000000" points="970,405.5791,974,415.5791,978,405.5791,974,409.5791" style="stroke:#000000;stroke-width:1.0;"/><line style="stroke:#000000;stroke-width:1.0;" x1="897" x2="897" y1="735.7717" y2="770.7717"/><polygon fill="#000000" points="893,760.7717,897,770.7717,901,760.7717,897,764.7717" style="stroke:#000000;stroke-width:1.0;"/><line style="stroke:#000000;stroke-width:1.0;" x1="1066.5" x2="1066.5" y1="682.2971" y2="717.2971"/><polygon fill="#000000" points="1062.5,707.2971,1066.5,717.2971,1070.5,707.2971,1066.5,711.2971" style="stroke:#000000;stroke-width:1.0;"/><line style="stroke:#000000;stroke-width:1.0;" x1="1197" x2="1197" y1="747.3501" y2="782.3501"/><polygon fill="#000000" points="1193,772.3501,1197,782.3501,1201,772.3501,1197,776.3501" style="stroke:#000000;stroke-width:1.0;"/><line style="stroke:#000000;stroke-width:1.0;" x1="321.5" x2="321.5" y1="155.2612" y2="160.2612"/><line style="stroke:#000000;stroke-width:1.0;" x1="321.5" x2="974" y1="160.2612" y2="160.2612"/><line style="stroke:#000000;stroke-width:1.0;" x1="974" x2="974" y1="160.2612" y2="175.2612"/><polygon fill="#000000" points="970,165.2612,974,175.2612,978,165.2612,974,169.2612" style="stroke:#000000;stroke-width:1.0;"/><line style="stroke:#000000;stroke-width:1.0;" x1="974" x2="974" y1="275.4731" y2="280.4731"/><line style="stroke:#000000;stroke-width:1.0;" x1="974" x2="321.5" y1="280.4731" y2="280.4731"/><line style="stroke:#000000;stroke-width:1.0;" x1="321.5" x2="321.5" y1="280.4731" y2="295.4731"/><polygon fill="#000000" points="317.5,285.4731,321.5,295.4731,325.5,285.4731,321.5,289.4731" style="stroke:#000000;stroke-width:1.0;"/><line style="stroke:#000000;stroke-width:1.0;" x1="321.5" x2="321.5" y1="328.8418" y2="333.8418"/><line style="stroke:#000000;stroke-width:1.0;" x1="321.5" x2="974" y1="333.8418" y2="333.8418"/><line style="stroke:#000000;stroke-width:1.0;" x1="974" x2="974" y1="333.8418" y2="348.8418"/><polygon fill="#000000" points="970,338.8418,974,348.8418,978,338.8418,974,342.8418" style="stroke:#000000;stroke-width:1.0;"/><line style="stroke:#000000;stroke-width:1.0;" x1="974" x2="974" y1="448.9478" y2="453.9478"/><line style="stroke:#000000;stroke-width:1.0;" x1="974" x2="321.5" y1="453.9478" y2="453.9478"/><line style="stroke:#000000;stroke-width:1.0;" x1="321.5" x2="321.5" y1="453.9478" y2="468.9478"/><polygon fill="#000000" points="317.5,458.9478,321.5,468.9478,325.5,458.9478,321.5,462.9478" style="stroke:#000000;stroke-width:1.0;"/><line style="stroke:#000000;stroke-width:1.0;" x1="91" x2="91" y1="612.2441" y2="618.0598"/><line style="stroke:#000000;stroke-width:1.0;" x1="91" x2="733.5" y1="618.0598" y2="618.0598"/><line style="stroke:#000000;stroke-width:1.0;" x1="733.5" x2="733.5" y1="618.0598" y2="635.5598"/><polygon fill="#000000" points="729.5,625.5598,733.5,635.5598,737.5,625.5598,733.5,629.5598" style="stroke:#000000;stroke-width:1.0;"/><line style="stroke:#000000;stroke-width:1.0;" x1="733.5" x2="733.5" y1="735.7717" y2="753.2717"/><line style="stroke:#000000;stroke-width:1.0;" x1="733.5" x2="91" y1="753.2717" y2="753.2717"/><line style="stroke:#000000;stroke-width:1.0;" x1="91" x2="91" y1="753.2717" y2="770.7717"/><polygon fill="#000000" points="87,760.7717,91,770.7717,95,760.7717,91,764.7717" style="stroke:#000000;stroke-width:1.0;"/><line style="stroke:#000000;stroke-width:1.0;" x1="244.5" x2="244.5" y1="612.2441" y2="618.0598"/><line style="stroke:#000000;stroke-width:1.0;" x1="244.5" x2="897" y1="618.0598" y2="618.0598"/><line style="stroke:#000000;stroke-width:1.0;" x1="897" x2="897" y1="618.0598" y2="635.5598"/><polygon fill="#000000" points="893,625.5598,897,635.5598,901,625.5598,897,629.5598" style="stroke:#000000;stroke-width:1.0;"/><line style="stroke:#000000;stroke-width:1.0;" x1="897" x2="897" y1="857.615" y2="875.115"/><line style="stroke:#000000;stroke-width:1.0;" x1="897" x2="244.5" y1="875.115" y2="875.115"/><line style="stroke:#000000;stroke-width:1.0;" x1="244.5" x2="244.5" y1="875.115" y2="892.615"/><polygon fill="#000000" points="240.5,882.615,244.5,892.615,248.5,882.615,244.5,886.615" style="stroke:#000000;stroke-width:1.0;"/><line style="stroke:#000000;stroke-width:1.0;" x1="414" x2="414" y1="612.2441" y2="618.0598"/><line style="stroke:#000000;stroke-width:1.0;" x1="414" x2="1066.5" y1="618.0598" y2="618.0598"/><line style="stroke:#000000;stroke-width:1.0;" x1="1066.5" x2="1066.5" y1="618.0598" y2="635.5598"/><polygon fill="#000000" points="1062.5,625.5598,1066.5,635.5598,1070.5,625.5598,1066.5,629.5598" style="stroke:#000000;stroke-width:1.0;"/><line style="stroke:#000000;stroke-width:1.0;" x1="1066.5" x2="1066.5" y1="790.7717" y2="808.2717"/><line style="stroke:#000000;stroke-width:1.0;" x1="1066.5" x2="414" y1="808.2717" y2="808.2717"/><line style="stroke:#000000;stroke-width:1.0;" x1="414" x2="414" y1="808.2717" y2="825.7717"/><polygon fill="#000000" points="410,815.7717,414,825.7717,418,815.7717,414,819.7717" style="stroke:#000000;stroke-width:1.0;"/><line style="stroke:#000000;stroke-width:1.0;" x1="580" x2="580" y1="665.6128" y2="683.1128"/><line style="stroke:#000000;stroke-width:1.0;" x1="580" x2="1197" y1="683.1128" y2="683.1128"/><line style="stroke:#000000;stroke-width:1.0;" x1="1197" x2="1197" y1="683.1128" y2="700.6128"/><polygon fill="#000000" points="1193,690.6128,1197,700.6128,1201,690.6128,1197,694.6128" style="stroke:#000000;stroke-width:1.0;"/><line style="stroke:#000000;stroke-width:1.0;" x1="1197" x2="1197" y1="829.0874" y2="846.5874"/><line style="stroke:#000000;stroke-width:1.0;" x1="1197" x2="580" y1="846.5874" y2="846.5874"/><line style="stroke:#000000;stroke-width:1.0;" x1="580" x2="580" y1="846.5874" y2="864.0874"/><polygon fill="#000000" points="576,854.0874,580,864.0874,584,854.0874,580,858.0874" style="stroke:#000000;stroke-width:1.0;"/><text fill="#000000" font-family="Verdana" font-size="18" lengthAdjust="spacing" textLength="57" x="304" y="73.1133">Admin</text><text fill="#000000" font-family="Verdana" font-size="18" lengthAdjust="spacing" textLength="82" x="913.25" y="73.1133">H&#7879; th&#7889;ng</text><rect fill="none" height="61.0439" id="_legend" rx="7.5" ry="7.5" style="stroke:#000000;stroke-width:1.0;" width="385" x="882.5" y="1050.2463"/><text fill="#000000" font-family="Verdana" font-size="14" font-weight="bold" lengthAdjust="spacing" textLength="56" x="887.5" y="1069.3215">Quy&#7873;n:</text><text fill="#000000" font-family="Verdana" font-size="14" lengthAdjust="spacing" textLength="101" x="948.5" y="1069.3215">Admin (role 1)</text><text fill="#000000" font-family="Verdana" font-size="14" font-weight="bold" lengthAdjust="spacing" textLength="35" x="887.5" y="1086.3362">API:</text><text fill="#000000" font-family="Verdana" font-size="14" lengthAdjust="spacing" textLength="205" x="927.5" y="1086.3362">GET /api/donations/statistics</text><text fill="#000000" font-family="Verdana" font-size="14" font-weight="bold" lengthAdjust="spacing" textLength="74" x="887.5" y="1103.3508">M&#7909;c &#273;&#237;ch:</text><text fill="#000000" font-family="Verdana" font-size="14" lengthAdjust="spacing" textLength="296" x="966.5" y="1103.3508">Gi&#225;m s&#225;t, th&#7889;ng k&#234;, ph&#225;t hi&#7879;n b&#7845;t th&#432;&#7901;ng</text><!--SRC=[ZLLBRzD04BxxLmpbqaP5VKYLK7909MbfrGSj1EZLSLnx5MSTx4rfKGwK7ZYW7Yh40Q5AJQEAbo8XG4B4GXosud_iFs5cdIQRz4KQrVBCximttpSpkI5yj-f2BR0Pj-8AupKxigjGifsA5uLrNiw7GHZ1pNdzCKxOZc1RJEpCXrmyPCzTc9eolF4pLWrixZvXPU73zCoaPGac0XSocTd2vErI5fOMLV9o1HxUbxj5ACeNYr1ye99Z69qjh2okZcKobjN0hFb2ORenMwuoth1YOKV2oZwMHo6ChDTLfyKXaBz1o2C68b99QoIdRytGNsD19Qz0-2evu5x3oYumbUnnRNWD9PMyWq0b-uvr2ugHwZIvXoxPPFYEePDV-5prvP4H72rBVaXPFHtba877R6wQOqm60XFjyjnv_DaytjhdHl8hu2whpiaEb6tkGooRZcy2GSr2E3sWF7MeuECLFuitM2PMz8FGCWwEpmXPvu-u0fc3ZqyEyDCzxk4njWcZUSDqPmmZkXn6Dzog4N3C0iZc0-PKO8kqgQHq68XpU0A_bzIAjmTGdnwepeSTUYGVq8a2zSlWGveCkOSy6ZovLF85uyasibcH7wlQkUhz_QfLt4P-CR3gj7atNazSs5P9cvgiNy40SGYTkC2oeURBOmBGTlpkOQ9l3NjAW9zgj8MQSbtNRe_AlFnE_66WPIO_S_29cYMa5KGecroxwCPU2XEp-gXrfyaeYSlBR9EIkK7iNgbMbsoi_hCXrqYnRnwvLgIYva_3CkEbdAdaxTa0TFKtxUbCa0Ij0QO7lDHzXnUeWSt-L8zaxvKcbJgKG24N8PIeV-gQg3Vws5t300uEd3Xl5f7yriqHrYxih8qw-DGaxzDa5pV0MbzusEvVG1UrnUd1twysH3RLtaJwF2QRkUibm-rs8g0aiJO7_vcQ3Vl-GpZDqIR3_TkxXVQvRSSDWCJwwS1QOLxpUTSEmKDsqXafzFUFrYvTcMT3qcq06Y-I4IsjsZcQBoSEORNO4AmUDMdRuWo6KCQbW02A2uzC6kuDkgvd8TseGNe36xMDng7ukNExgB_bq4Lh1EiqBbs_5cWzx-7yHJPQZUI3KT91nb-ui6PPWUlXEqJCyuMLoQpNTsWyifaCwF0m6eL8sTGO-cRN5ib-Rwu84tQDJPH3RWiMydW2Vom5YmLpOZosef8JHoz0nzVdiGchfAiODoTvd9POVrsLT9y9tT27sD08AeLc_GC0]--></g></svg>