<?xml version="1.0" encoding="us-ascii" standalone="no"?><svg xmlns="http://www.w3.org/2000/svg" xmlns:xlink="http://www.w3.org/1999/xlink" contentStyleType="text/css" height="998px" preserveAspectRatio="none" style="width:750px;height:998px;background:#FFFFFF;" version="1.1" viewBox="0 0 750 998" width="750px" zoomAndPan="magnify"><defs/><g><text fill="#000000" font-family="Verdana" font-size="22" font-weight="bold" lengthAdjust="spacing" textLength="347" x="200.375" y="37.1182">AD01: &#272;&#258;NG K&#221; T&#192;I KHO&#7842;N</text><rect fill="#FFFFFF" height="21.876" style="stroke:#FFFFFF;stroke-width:1.0;" width="727.75" x="10" y="55.0166"/><rect fill="#E3F2FD" height="864.7214" style="stroke:#E3F2FD;stroke-width:1.0;" width="404" x="10" y="55.0166"/><ellipse cx="209.75" cy="91.8926" fill="#FFFFFF" rx="10" ry="10" style="stroke:#000000;stroke-width:1.0;"/><rect fill="#FFFFFF" height="33.3687" rx="12.5" ry="12.5" style="stroke:#000000;stroke-width:1.0;" width="154" x="132.75" y="121.8926"/><text fill="#000000" font-family="Verdana" font-size="11" lengthAdjust="spacing" textLength="134" x="142.75" y="142.9517">Truy c&#7853;p trang &#273;&#259;ng k&#253;</text><rect fill="#FFFFFF" height="46.7373" rx="12.5" ry="12.5" style="stroke:#000000;stroke-width:1.0;" width="148" x="135.75" y="175.2612"/><text fill="#000000" font-family="Verdana" font-size="11" lengthAdjust="spacing" textLength="111" x="145.75" y="196.3203">Ch&#7885;n lo&#7841;i t&#224;i kho&#7843;n</text><text fill="#000000" font-family="Verdana" font-size="11" lengthAdjust="spacing" textLength="128" x="145.75" y="209.689">(Sinh vi&#234;n/Nh&#224; t&#224;i tr&#7907;)</text><rect fill="#FFFFFF" height="46.7373" rx="12.5" ry="12.5" style="stroke:#000000;stroke-width:1.0;" width="156" x="131.75" y="241.9985"/><text fill="#000000" font-family="Verdana" font-size="11" lengthAdjust="spacing" textLength="107" x="141.75" y="263.0576">&#272;i&#7873;n form &#273;&#259;ng k&#253;</text><text fill="#000000" font-family="Verdana" font-size="11" lengthAdjust="spacing" textLength="136" x="141.75" y="276.4263">Email, M&#7853;t kh&#7849;u, H&#7885; t&#234;n</text><rect fill="#FFFFFF" height="33.3687" rx="12.5" ry="12.5" style="stroke:#000000;stroke-width:1.0;" width="174" x="16" y="406.1045"/><text fill="#000000" font-family="Verdana" font-size="11" lengthAdjust="spacing" textLength="154" x="26" y="427.1636">L&#7895;i: Email &#273;&#227; &#273;&#432;&#7907;c s&#7917; d&#7909;ng</text><ellipse cx="103" cy="470.4731" fill="none" rx="11" ry="11" style="stroke:#000000;stroke-width:1.0;"/><ellipse cx="103" cy="470.4731" fill="#FFFFFF" rx="6" ry="6" style="stroke:#000000;stroke-width:1.0;"/><rect fill="#FFFFFF" height="33.3687" rx="12.5" ry="12.5" style="stroke:#000000;stroke-width:1.0;" width="135" x="249" y="779.0007"/><text fill="#000000" font-family="Verdana" font-size="11" lengthAdjust="spacing" textLength="115" x="259" y="800.0598">&#272;&#259;ng k&#253; th&#224;nh c&#244;ng</text><rect fill="#FFFFFF" height="33.3687" rx="12.5" ry="12.5" style="stroke:#000000;stroke-width:1.0;" width="187" x="223" y="832.3694"/><text fill="#000000" font-family="Verdana" font-size="11" lengthAdjust="spacing" textLength="167" x="233" y="853.4285">Chuy&#7875;n &#273;&#7871;n trang &#273;&#259;ng nh&#7853;p</text><ellipse cx="316.5" cy="896.738" fill="none" rx="11" ry="11" style="stroke:#000000;stroke-width:1.0;"/><ellipse cx="316.5" cy="896.738" fill="#FFFFFF" rx="6" ry="6" style="stroke:#000000;stroke-width:1.0;"/><line style="stroke:#000000;stroke-width:1.0;" x1="10" x2="10" y1="55.0166" y2="919.738"/><rect fill="#F5F5F5" height="864.7214" style="stroke:#F5F5F5;stroke-width:1.0;" width="309.75" x="414" y="55.0166"/><rect fill="#FFFFFF" height="33.3687" rx="12.5" ry="12.5" style="stroke:#000000;stroke-width:1.0;" width="108" x="440.5" y="308.7358"/><text fill="#000000" font-family="Verdana" font-size="11" lengthAdjust="spacing" textLength="88" x="450.5" y="329.7949">Validate d&#7919; li&#7879;u</text><polygon fill="#FFFFFF" points="447,362.1045,542,362.1045,554,374.1045,542,386.1045,447,386.1045,435,374.1045,447,362.1045" style="stroke:#000000;stroke-width:1.0;"/><text fill="#000000" font-family="Verdana" font-size="11" lengthAdjust="spacing" textLength="95" x="447" y="378.4792">Email &#273;&#227; t&#7891;n t&#7841;i?</text><text fill="#000000" font-family="Verdana" font-size="11" lengthAdjust="spacing" textLength="16" x="419" y="371.7949">C&#243;</text><text fill="#000000" font-family="Verdana" font-size="11" lengthAdjust="spacing" textLength="30" x="554" y="371.7949">Ch&#432;a</text><rect fill="#FFFFFF" height="33.3687" rx="12.5" ry="12.5" style="stroke:#000000;stroke-width:1.0;" width="156" x="523.25" y="406.1045"/><text fill="#000000" font-family="Verdana" font-size="11" lengthAdjust="spacing" textLength="136" x="533.25" y="427.1636">Hash m&#7853;t kh&#7849;u (bcrypt)</text><rect fill="#FFFFFF" height="33.3687" rx="12.5" ry="12.5" style="stroke:#000000;stroke-width:1.0;" width="146" x="528.25" y="459.4731"/><text fill="#000000" font-family="Verdana" font-size="11" lengthAdjust="spacing" textLength="126" x="538.25" y="480.5322">BEGIN TRANSACTION</text><rect fill="#FFFFFF" height="46.7373" rx="12.5" ry="12.5" style="stroke:#000000;stroke-width:1.0;" width="151" x="525.75" y="512.8418"/><text fill="#000000" font-family="Verdana" font-size="11" lengthAdjust="spacing" textLength="131" x="535.75" y="533.9009">INSERT v&#224;o nguoidung</text><text fill="#000000" font-family="Verdana" font-size="11" lengthAdjust="spacing" textLength="103" x="535.75" y="547.2695">role_id = 4 (User)</text><rect fill="#FFFFFF" height="33.3687" rx="12.5" ry="12.5" style="stroke:#000000;stroke-width:1.0;" width="193" x="504.75" y="628.2634"/><text fill="#000000" font-family="Verdana" font-size="11" lengthAdjust="spacing" textLength="173" x="514.75" y="649.3225">T&#7921; &#273;&#7897;ng INSERT v&#224;o nhataitro</text><polygon fill="#FFFFFF" points="537.25,579.5791,665.25,579.5791,677.25,591.5791,665.25,603.5791,537.25,603.5791,525.25,591.5791,537.25,579.5791" style="stroke:#000000;stroke-width:1.0;"/><text fill="#000000" font-family="Verdana" font-size="11" lengthAdjust="spacing" textLength="16" x="605.25" y="614.6382">C&#243;</text><text fill="#000000" font-family="Verdana" font-size="11" lengthAdjust="spacing" textLength="128" x="537.25" y="595.9539">Lo&#7841;i = NHA_TAI_TRO?</text><polygon fill="#FFFFFF" points="601.25,681.6321,613.25,693.6321,601.25,705.6321,589.25,693.6321,601.25,681.6321" style="stroke:#000000;stroke-width:1.0;"/><rect fill="#FFFFFF" height="33.3687" rx="12.5" ry="12.5" style="stroke:#000000;stroke-width:1.0;" width="68" x="567.25" y="725.6321"/><text fill="#000000" font-family="Verdana" font-size="11" lengthAdjust="spacing" textLength="48" x="577.25" y="746.6912">COMMIT</text><line style="stroke:#000000;stroke-width:1.0;" x1="414" x2="414" y1="55.0166" y2="919.738"/><line style="stroke:#000000;stroke-width:1.0;" x1="738.75" x2="738.75" y1="55.0166" y2="919.738"/><line style="stroke:#000000;stroke-width:1.0;" x1="209.75" x2="209.75" y1="101.8926" y2="121.8926"/><polygon fill="#000000" points="205.75,111.8926,209.75,121.8926,213.75,111.8926,209.75,115.8926" style="stroke:#000000;stroke-width:1.0;"/><line style="stroke:#000000;stroke-width:1.0;" x1="209.75" x2="209.75" y1="155.2612" y2="175.2612"/><polygon fill="#000000" points="205.75,165.2612,209.75,175.2612,213.75,165.2612,209.75,169.2612" style="stroke:#000000;stroke-width:1.0;"/><line style="stroke:#000000;stroke-width:1.0;" x1="209.75" x2="209.75" y1="221.9985" y2="241.9985"/><polygon fill="#000000" points="205.75,231.9985,209.75,241.9985,213.75,231.9985,209.75,235.9985" style="stroke:#000000;stroke-width:1.0;"/><line style="stroke:#000000;stroke-width:1.0;" x1="103" x2="103" y1="439.4731" y2="459.4731"/><polygon fill="#000000" points="99,449.4731,103,459.4731,107,449.4731,103,453.4731" style="stroke:#000000;stroke-width:1.0;"/><line style="stroke:#000000;stroke-width:1.0;" x1="316.5" x2="316.5" y1="812.3694" y2="832.3694"/><polygon fill="#000000" points="312.5,822.3694,316.5,832.3694,320.5,822.3694,316.5,826.3694" style="stroke:#000000;stroke-width:1.0;"/><line style="stroke:#000000;stroke-width:1.0;" x1="316.5" x2="316.5" y1="865.738" y2="885.738"/><polygon fill="#000000" points="312.5,875.738,316.5,885.738,320.5,875.738,316.5,879.738" style="stroke:#000000;stroke-width:1.0;"/><line style="stroke:#000000;stroke-width:1.0;" x1="601.25" x2="601.25" y1="439.4731" y2="459.4731"/><polygon fill="#000000" points="597.25,449.4731,601.25,459.4731,605.25,449.4731,601.25,453.4731" style="stroke:#000000;stroke-width:1.0;"/><line style="stroke:#000000;stroke-width:1.0;" x1="601.25" x2="601.25" y1="492.8418" y2="512.8418"/><polygon fill="#000000" points="597.25,502.8418,601.25,512.8418,605.25,502.8418,601.25,506.8418" style="stroke:#000000;stroke-width:1.0;"/><line style="stroke:#000000;stroke-width:1.0;" x1="601.25" x2="601.25" y1="603.5791" y2="628.2634"/><polygon fill="#000000" points="597.25,618.2634,601.25,628.2634,605.25,618.2634,601.25,622.2634" style="stroke:#000000;stroke-width:1.0;"/><line style="stroke:#000000;stroke-width:1.0;" x1="677.25" x2="707.75" y1="591.5791" y2="591.5791"/><polygon fill="#000000" points="703.75,634.9478,707.75,644.9478,711.75,634.9478,707.75,638.9478" style="stroke:#000000;stroke-width:1.0;"/><line style="stroke:#000000;stroke-width:1.0;" x1="707.75" x2="707.75" y1="591.5791" y2="693.6321"/><line style="stroke:#000000;stroke-width:1.0;" x1="707.75" x2="613.25" y1="693.6321" y2="693.6321"/><polygon fill="#000000" points="623.25,689.6321,613.25,693.6321,623.25,697.6321,619.25,693.6321" style="stroke:#000000;stroke-width:1.0;"/><line style="stroke:#000000;stroke-width:1.0;" x1="601.25" x2="601.25" y1="661.6321" y2="681.6321"/><polygon fill="#000000" points="597.25,671.6321,601.25,681.6321,605.25,671.6321,601.25,675.6321" style="stroke:#000000;stroke-width:1.0;"/><line style="stroke:#000000;stroke-width:1.0;" x1="601.25" x2="601.25" y1="559.5791" y2="579.5791"/><polygon fill="#000000" points="597.25,569.5791,601.25,579.5791,605.25,569.5791,601.25,573.5791" style="stroke:#000000;stroke-width:1.0;"/><line style="stroke:#000000;stroke-width:1.0;" x1="601.25" x2="601.25" y1="705.6321" y2="725.6321"/><polygon fill="#000000" points="597.25,715.6321,601.25,725.6321,605.25,715.6321,601.25,719.6321" style="stroke:#000000;stroke-width:1.0;"/><line style="stroke:#000000;stroke-width:1.0;" x1="554" x2="601.25" y1="374.1045" y2="374.1045"/><line style="stroke:#000000;stroke-width:1.0;" x1="601.25" x2="601.25" y1="374.1045" y2="406.1045"/><polygon fill="#000000" points="597.25,396.1045,601.25,406.1045,605.25,396.1045,601.25,400.1045" style="stroke:#000000;stroke-width:1.0;"/><line style="stroke:#000000;stroke-width:1.0;" x1="494.5" x2="494.5" y1="342.1045" y2="362.1045"/><polygon fill="#000000" points="490.5,352.1045,494.5,362.1045,498.5,352.1045,494.5,356.1045" style="stroke:#000000;stroke-width:1.0;"/><line style="stroke:#000000;stroke-width:1.0;" x1="209.75" x2="209.75" y1="288.7358" y2="293.7358"/><line style="stroke:#000000;stroke-width:1.0;" x1="209.75" x2="494.5" y1="293.7358" y2="293.7358"/><line style="stroke:#000000;stroke-width:1.0;" x1="494.5" x2="494.5" y1="293.7358" y2="308.7358"/><polygon fill="#000000" points="490.5,298.7358,494.5,308.7358,498.5,298.7358,494.5,302.7358" style="stroke:#000000;stroke-width:1.0;"/><line style="stroke:#000000;stroke-width:1.0;" x1="601.25" x2="601.25" y1="759.0007" y2="764.0007"/><line style="stroke:#000000;stroke-width:1.0;" x1="601.25" x2="316.5" y1="764.0007" y2="764.0007"/><line style="stroke:#000000;stroke-width:1.0;" x1="316.5" x2="316.5" y1="764.0007" y2="779.0007"/><polygon fill="#000000" points="312.5,769.0007,316.5,779.0007,320.5,769.0007,316.5,773.0007" style="stroke:#000000;stroke-width:1.0;"/><line style="stroke:#000000;stroke-width:1.0;" x1="435" x2="103" y1="374.1045" y2="374.1045"/><line style="stroke:#000000;stroke-width:1.0;" x1="103" x2="103" y1="374.1045" y2="406.1045"/><polygon fill="#000000" points="99,396.1045,103,406.1045,107,396.1045,103,400.1045" style="stroke:#000000;stroke-width:1.0;"/><text fill="#000000" font-family="Verdana" font-size="18" lengthAdjust="spacing" textLength="101" x="161.5" y="73.1133">Ng&#432;&#7901;i d&#249;ng</text><text fill="#000000" font-family="Verdana" font-size="18" lengthAdjust="spacing" textLength="82" x="527.875" y="73.1133">H&#7879; th&#7889;ng</text><rect fill="none" height="61.0439" id="_legend" rx="7.5" ry="7.5" style="stroke:#000000;stroke-width:1.0;" width="303" x="434.75" y="924.738"/><text fill="#000000" font-family="Verdana" font-size="14" font-weight="bold" lengthAdjust="spacing" textLength="46" x="439.75" y="943.8132">B&#7843;ng:</text><text fill="#000000" font-family="Verdana" font-size="14" lengthAdjust="spacing" textLength="149" x="490.75" y="943.8132">nguoidung, nhataitro</text><text fill="#000000" font-family="Verdana" font-size="14" font-weight="bold" lengthAdjust="spacing" textLength="35" x="439.75" y="960.8279">API:</text><text fill="#000000" font-family="Verdana" font-size="14" lengthAdjust="spacing" textLength="167" x="479.75" y="960.8279">POST /api/auth/register</text><text fill="#000000" font-family="Verdana" font-size="14" font-weight="bold" lengthAdjust="spacing" textLength="76" x="439.75" y="977.8425">&#272;&#7863;c &#273;i&#7875;m:</text><text fill="#000000" font-family="Verdana" font-size="14" lengthAdjust="spacing" textLength="212" x="520.75" y="977.8425">T&#7921; &#273;&#7897;ng t&#7841;o h&#7891; s&#417; nh&#224; t&#224;i tr&#7907;</text><!--SRC=[XL9DQzj05BplhtWb5riOdAJDHIOKnx5ZaqGEiTeUmyRQI8lbbLcjKbnyQ9j3JeM474eF0QUcXmP2KreejIWzoEH_x3_fMxiGkxHK4lhOztPcD6yUg81r6VH2oWM9ErpqgAHTEAJjZY-ZH7YLA8maBDMcnrm7RIj-p5M_5WdLuYyOhApCLUFdl1jImPvnJmMmkhPCYE8gP61PvStb5HicPvFNpXPiPvVWPYyRi5rlwl5xnx886InL7zPMQvi3nx-xrUab1o_xBlm1YHMLYjYkJFhGrkER7YX9XG-Jyya9FZhPZnAnAu5EtmW88ps-ug2o8OTEW1yZGN8jBW8uvjcrA3f1DfnLbTJfA8yx9sTSfwy474MoEuT9gbtAmmBi8gD2B3t-c1IWZYou_rgKZE3QcZa7k7WA2WMS6xdsKnfoZoe6dau_GOZefmcsyoF8JJ6H91k1qkc5m3lAVPp7tKn0hf9zoHE0Vpe1OE_ez2stOGveScwQHcs8TNfZE3y8luIjiOfwX8KnGzpWxfREaFyg6N7hD0wWE_Ula3jiotvFvGsMlL7TQZZWxfUTLhdYDfhETBNXjAhxBXndmmY4dqJSIuIF1Hc5x81xi0wF8FSaPd8AWfVnO6SsedLmwkK3jzmuSFURVpg0sAvEF-E_wVGTpcE1AA2ASYKZWyc4nuzcs7QbkRlRS4l_CH0J-7l2I9aDCHdjxElCCGnHqjVfYJ2yuvzYCMSYCDcxTtRAJ4Bcunj8xWUAMDQ6IPnlMzQz7uLxnTXGtckOwbwpvKAHzdYH9YeeIkRpM3693PCpFVxMHbBCpKdNz2uuOG8J0Gxk0kAxAuHUoBDHDLD4VW40]--></g></svg>