<?xml version="1.0" encoding="us-ascii" standalone="no"?><svg xmlns="http://www.w3.org/2000/svg" xmlns:xlink="http://www.w3.org/1999/xlink" contentStyleType="text/css" height="1369px" preserveAspectRatio="none" style="width:840px;height:1369px;background:#FFFFFF;" version="1.1" viewBox="0 0 840 1369" width="840px" zoomAndPan="magnify"><defs/><g><text fill="#000000" font-family="Verdana" font-size="22" font-weight="bold" lengthAdjust="spacing" textLength="684" x="76.5" y="37.1182">SD11: MIDDLEWARE AUDIT TRAIL - T&#7920; &#272;&#7896;NG GHI LOG</text><line style="stroke:#000000;stroke-width:1.0;" x1="29" x2="29" y1="130.752" y2="1093.126"/><line style="stroke:#000000;stroke-width:1.0;" x1="229.5" x2="229.5" y1="130.752" y2="1093.126"/><line style="stroke:#000000;stroke-width:1.0;" x1="390" x2="390" y1="130.752" y2="1093.126"/><line style="stroke:#000000;stroke-width:1.0;" x1="630" x2="630" y1="130.752" y2="1093.126"/><line style="stroke:#000000;stroke-width:1.0;" x1="708" x2="708" y1="130.752" y2="1093.126"/><line style="stroke:#000000;stroke-width:1.0;" x1="798" x2="798" y1="130.752" y2="1093.126"/><text fill="#000000" font-family="Verdana" font-size="14" lengthAdjust="spacing" textLength="32" x="10" y="127.8125">User</text><ellipse cx="29" cy="61.7373" fill="#FFFFFF" rx="8" ry="8" style="stroke:#000000;stroke-width:1.0;"/><path d="M29,69.7373 L29,96.7373 M16,77.7373 L42,77.7373 M29,96.7373 L16,111.7373 M29,96.7373 L42,111.7373 " fill="none" style="stroke:#000000;stroke-width:1.0;"/><text fill="#000000" font-family="Verdana" font-size="14" lengthAdjust="spacing" textLength="32" x="10" y="1106.2012">User</text><ellipse cx="29" cy="1118.1406" fill="#FFFFFF" rx="8" ry="8" style="stroke:#000000;stroke-width:1.0;"/><path d="M29,1126.1406 L29,1153.1406 M16,1134.1406 L42,1134.1406 M29,1153.1406 L16,1168.1406 M29,1153.1406 L42,1168.1406 " fill="none" style="stroke:#000000;stroke-width:1.0;"/><rect fill="#FFFFFF" height="31.0146" rx="2.5" ry="2.5" style="stroke:#000000;stroke-width:1.0;" width="37" x="211.5" y="98.7373"/><text fill="#000000" font-family="Verdana" font-size="14" lengthAdjust="spacing" textLength="23" x="218.5" y="119.8125">API</text><rect fill="#FFFFFF" height="31.0146" rx="2.5" ry="2.5" style="stroke:#000000;stroke-width:1.0;" width="37" x="211.5" y="1092.126"/><text fill="#000000" font-family="Verdana" font-size="14" lengthAdjust="spacing" textLength="23" x="218.5" y="1113.2012">API</text><rect fill="#FFFFFF" height="48.0293" rx="2.5" ry="2.5" style="stroke:#000000;stroke-width:1.0;" width="90" x="345" y="81.7227"/><text fill="#000000" font-family="Verdana" font-size="14" lengthAdjust="spacing" textLength="37" x="371.5" y="102.7979">Audit</text><text fill="#000000" font-family="Verdana" font-size="14" lengthAdjust="spacing" textLength="76" x="352" y="119.8125">Middleware</text><rect fill="#FFFFFF" height="48.0293" rx="2.5" ry="2.5" style="stroke:#000000;stroke-width:1.0;" width="90" x="345" y="1092.126"/><text fill="#000000" font-family="Verdana" font-size="14" lengthAdjust="spacing" textLength="37" x="371.5" y="1113.2012">Audit</text><text fill="#000000" font-family="Verdana" font-size="14" lengthAdjust="spacing" textLength="76" x="352" y="1130.2158">Middleware</text><text fill="#000000" font-family="Verdana" font-size="14" lengthAdjust="spacing" textLength="21" x="616.5" y="127.8125">DB</text><path d="M612,77.7373 C612,67.7373 630,67.7373 630,67.7373 C630,67.7373 648,67.7373 648,77.7373 L648,103.7373 C648,113.7373 630,113.7373 630,113.7373 C630,113.7373 612,113.7373 612,103.7373 L612,77.7373 " fill="#FFFFFF" style="stroke:#000000;stroke-width:1.5;"/><path d="M612,77.7373 C612,87.7373 630,87.7373 630,87.7373 C630,87.7373 648,87.7373 648,77.7373 " fill="none" style="stroke:#000000;stroke-width:1.5;"/><text fill="#000000" font-family="Verdana" font-size="14" lengthAdjust="spacing" textLength="21" x="616.5" y="1106.2012">DB</text><path d="M612,1119.1406 C612,1109.1406 630,1109.1406 630,1109.1406 C630,1109.1406 648,1109.1406 648,1119.1406 L648,1145.1406 C648,1155.1406 630,1155.1406 630,1155.1406 C630,1155.1406 612,1155.1406 612,1145.1406 L612,1119.1406 " fill="#FFFFFF" style="stroke:#000000;stroke-width:1.5;"/><path d="M612,1119.1406 C612,1129.1406 630,1129.1406 630,1129.1406 C630,1129.1406 648,1129.1406 648,1119.1406 " fill="none" style="stroke:#000000;stroke-width:1.5;"/><rect fill="#FFFFFF" height="31.0146" rx="2.5" ry="2.5" style="stroke:#000000;stroke-width:1.0;" width="80" x="668" y="98.7373"/><text fill="#000000" font-family="Verdana" font-size="14" lengthAdjust="spacing" textLength="66" x="675" y="119.8125">JSON Diff</text><rect fill="#FFFFFF" height="31.0146" rx="2.5" ry="2.5" style="stroke:#000000;stroke-width:1.0;" width="80" x="668" y="1092.126"/><text fill="#000000" font-family="Verdana" font-size="14" lengthAdjust="spacing" textLength="66" x="675" y="1113.2012">JSON Diff</text><text fill="#000000" font-family="Verdana" font-size="14" lengthAdjust="spacing" textLength="54" x="768" y="127.8125">Nh&#7853;t k&#253;</text><path d="M780,77.7373 C780,67.7373 798,67.7373 798,67.7373 C798,67.7373 816,67.7373 816,77.7373 L816,103.7373 C816,113.7373 798,113.7373 798,113.7373 C798,113.7373 780,113.7373 780,103.7373 L780,77.7373 " fill="#FFFFFF" style="stroke:#000000;stroke-width:1.5;"/><path d="M780,77.7373 C780,87.7373 798,87.7373 798,87.7373 C798,87.7373 816,87.7373 816,77.7373 " fill="none" style="stroke:#000000;stroke-width:1.5;"/><text fill="#000000" font-family="Verdana" font-size="14" lengthAdjust="spacing" textLength="54" x="768" y="1106.2012">Nh&#7853;t k&#253;</text><path d="M780,1119.1406 C780,1109.1406 798,1109.1406 798,1109.1406 C798,1109.1406 816,1109.1406 816,1119.1406 L816,1145.1406 C816,1155.1406 798,1155.1406 798,1155.1406 C798,1155.1406 780,1155.1406 780,1145.1406 L780,1119.1406 " fill="#FFFFFF" style="stroke:#000000;stroke-width:1.5;"/><path d="M780,1119.1406 C780,1129.1406 798,1129.1406 798,1129.1406 C798,1129.1406 816,1129.1406 816,1119.1406 " fill="none" style="stroke:#000000;stroke-width:1.5;"/><rect fill="#FFFFFF" height="3" style="stroke:#FFFFFF;stroke-width:1.0;" width="828" x="5" y="161.6516"/><line style="stroke:#000000;stroke-width:0.5;" x1="5" x2="833" y1="161.6516" y2="161.6516"/><line style="stroke:#000000;stroke-width:0.5;" x1="5" x2="833" y1="164.6516" y2="164.6516"/><rect fill="#FFFFFF" height="23.7993" style="stroke:#000000;stroke-width:1.0;" width="152" x="343" y="150.752"/><text fill="#000000" font-family="Verdana" font-size="13" font-weight="bold" lengthAdjust="spacing" textLength="134" x="349" y="167.8218">C&#7852;P NH&#7852;T D&#7918; LI&#7878;U</text><polygon fill="#000000" points="218,218.1499,228,222.1499,218,226.1499,222,222.1499" style="stroke:#000000;stroke-width:1.0;"/><line style="stroke:#000000;stroke-width:1.0;" x1="29" x2="224" y1="222.1499" y2="222.1499"/><text fill="#000000" font-family="Verdana" font-size="13" lengthAdjust="spacing" textLength="127" x="66" y="201.6211">PUT /api/users/123</text><text fill="#000000" font-family="Verdana" font-size="13" lengthAdjust="spacing" textLength="177" x="41" y="217.4204">{"hoten": "Nguy&#7877;n V&#259;n B"}</text><polygon fill="#000000" points="378,247.9492,388,251.9492,378,255.9492,382,251.9492" style="stroke:#000000;stroke-width:1.0;"/><line style="stroke:#000000;stroke-width:1.0;" x1="230" x2="384" y1="251.9492" y2="251.9492"/><text fill="#000000" font-family="Verdana" font-size="13" font-weight="bold" lengthAdjust="spacing" textLength="69" x="242" y="247.2197">[BEFORE]</text><text fill="#000000" font-family="Verdana" font-size="13" lengthAdjust="spacing" textLength="62" x="316" y="247.2197">Snapshot</text><polygon fill="#000000" points="618,277.7485,628,281.7485,618,285.7485,622,281.7485" style="stroke:#000000;stroke-width:1.0;"/><line style="stroke:#000000;stroke-width:1.0;" x1="390" x2="624" y1="281.7485" y2="281.7485"/><text fill="#000000" font-family="Verdana" font-size="13" lengthAdjust="spacing" textLength="95" x="462.5" y="277.019">L&#7845;y d&#7919; li&#7879;u C&#360;</text><polygon fill="#000000" points="401,307.5479,391,311.5479,401,315.5479,397,311.5479" style="stroke:#000000;stroke-width:1.0;"/><line style="stroke:#000000;stroke-width:1.0;stroke-dasharray:2.0,2.0;" x1="395" x2="629" y1="311.5479" y2="311.5479"/><text fill="#000000" font-family="Verdana" font-size="13" lengthAdjust="spacing" textLength="210" x="405" y="306.8184">Old: {"hoten": "Nguy&#7877;n V&#259;n A"}</text><polygon fill="#000000" points="618,337.3472,628,341.3472,618,345.3472,622,341.3472" style="stroke:#000000;stroke-width:1.0;"/><line style="stroke:#000000;stroke-width:1.0;" x1="230" x2="624" y1="341.3472" y2="341.3472"/><text fill="#000000" font-family="Verdana" font-size="13" lengthAdjust="spacing" textLength="101" x="379.5" y="336.6177">UPDATE d&#7919; li&#7879;u</text><polygon fill="#000000" points="241,367.1465,231,371.1465,241,375.1465,237,371.1465" style="stroke:#000000;stroke-width:1.0;"/><line style="stroke:#000000;stroke-width:1.0;stroke-dasharray:2.0,2.0;" x1="235" x2="629" y1="371.1465" y2="371.1465"/><text fill="#000000" font-family="Verdana" font-size="13" lengthAdjust="spacing" textLength="101" x="379.5" y="366.417">&#10003; C&#7853;p nh&#7853;t OK</text><polygon fill="#000000" points="378,396.9458,388,400.9458,378,404.9458,382,400.9458" style="stroke:#000000;stroke-width:1.0;"/><line style="stroke:#000000;stroke-width:1.0;" x1="230" x2="384" y1="400.9458" y2="400.9458"/><text fill="#000000" font-family="Verdana" font-size="13" font-weight="bold" lengthAdjust="spacing" textLength="57" x="248" y="396.2163">[AFTER]</text><text fill="#000000" font-family="Verdana" font-size="13" lengthAdjust="spacing" textLength="62" x="310" y="396.2163">Snapshot</text><polygon fill="#000000" points="618,426.7451,628,430.7451,618,434.7451,622,430.7451" style="stroke:#000000;stroke-width:1.0;"/><line style="stroke:#000000;stroke-width:1.0;" x1="390" x2="624" y1="430.7451" y2="430.7451"/><text fill="#000000" font-family="Verdana" font-size="13" lengthAdjust="spacing" textLength="103" x="458.5" y="426.0156">L&#7845;y d&#7919; li&#7879;u M&#7898;I</text><polygon fill="#000000" points="401,456.5444,391,460.5444,401,464.5444,397,460.5444" style="stroke:#000000;stroke-width:1.0;"/><line style="stroke:#000000;stroke-width:1.0;stroke-dasharray:2.0,2.0;" x1="395" x2="629" y1="460.5444" y2="460.5444"/><text fill="#000000" font-family="Verdana" font-size="13" lengthAdjust="spacing" textLength="216" x="402" y="455.8149">New: {"hoten": "Nguy&#7877;n V&#259;n B"}</text><polygon fill="#000000" points="696,486.3438,706,490.3438,696,494.3438,700,490.3438" style="stroke:#000000;stroke-width:1.0;"/><line style="stroke:#000000;stroke-width:1.0;" x1="390" x2="702" y1="490.3438" y2="490.3438"/><text fill="#000000" font-family="Verdana" font-size="13" lengthAdjust="spacing" textLength="132" x="483" y="485.6143">So s&#225;nh Old vs New</text><path d="M588,503.3438 L588,686.3438 L827,686.3438 L827,513.3438 L817,503.3438 L588,503.3438 " fill="#FFFFFF" style="stroke:#000000;stroke-width:1.0;"/><path d="M817,503.3438 L817,513.3438 L827,513.3438 L817,503.3438 " fill="#FFFFFF" style="stroke:#000000;stroke-width:1.0;"/><text fill="#000000" font-family="Verdana" font-size="13" font-weight="bold" lengthAdjust="spacing" textLength="75" x="594" y="521.4136">JSON DIFF</text><text fill="#000000" font-family="Verdana" font-size="13" lengthAdjust="spacing" textLength="208" x="594" y="537.2129">&#9473;&#9473;&#9473;&#9473;&#9473;&#9473;&#9473;&#9473;&#9473;&#9473;&#9473;&#9473;&#9473;&#9473;&#9473;&#9473;</text><text fill="#000000" font-family="Verdana" font-size="13" lengthAdjust="spacing" textLength="8" x="594" y="553.0122">{</text><text fill="#000000" font-family="Verdana" font-size="13" lengthAdjust="spacing" textLength="85" x="604" y="568.8115">"changed": {</text><text fill="#000000" font-family="Verdana" font-size="13" lengthAdjust="spacing" textLength="67" x="614" y="584.6108">"hoten": {</text><text fill="#000000" font-family="Verdana" font-size="13" lengthAdjust="spacing" textLength="148" x="624" y="600.4102">"old": "Nguy&#7877;n V&#259;n A",</text><text fill="#000000" font-family="Verdana" font-size="13" lengthAdjust="spacing" textLength="150" x="624" y="616.2095">"new": "Nguy&#7877;n V&#259;n B"</text><text fill="#000000" font-family="Verdana" font-size="13" lengthAdjust="spacing" textLength="8" x="614" y="632.0088">}</text><text fill="#000000" font-family="Verdana" font-size="13" lengthAdjust="spacing" textLength="13" x="604" y="647.8081">},</text><text fill="#000000" font-family="Verdana" font-size="13" lengthAdjust="spacing" textLength="208" x="604" y="663.6074">"unchanged": ["email", "phone"]</text><text fill="#000000" font-family="Verdana" font-size="13" lengthAdjust="spacing" textLength="8" x="594" y="679.4067">}</text><polygon fill="#000000" points="401,709.9355,391,713.9355,401,717.9355,397,713.9355" style="stroke:#000000;stroke-width:1.0;"/><line style="stroke:#000000;stroke-width:1.0;stroke-dasharray:2.0,2.0;" x1="395" x2="707" y1="713.9355" y2="713.9355"/><text fill="#000000" font-family="Verdana" font-size="13" lengthAdjust="spacing" textLength="78" x="510" y="709.2061">K&#7871;t qu&#7843; Diff</text><polygon fill="#000000" points="786,818.7314,796,822.7314,786,826.7314,790,822.7314" style="stroke:#000000;stroke-width:1.0;"/><line style="stroke:#000000;stroke-width:1.0;" x1="390" x2="792" y1="822.7314" y2="822.7314"/><text fill="#000000" font-family="Verdana" font-size="13" font-weight="bold" lengthAdjust="spacing" textLength="54" x="567" y="739.0054">Ghi log:</text><text fill="#000000" font-family="Verdana" font-size="13" lengthAdjust="spacing" textLength="60" x="564" y="754.8047">- User ID</text><text fill="#000000" font-family="Verdana" font-size="13" lengthAdjust="spacing" textLength="117" x="535.5" y="770.604">- Action: UPDATE</text><text fill="#000000" font-family="Verdana" font-size="13" lengthAdjust="spacing" textLength="103" x="542.5" y="786.4033">- Old/New Data</text><text fill="#000000" font-family="Verdana" font-size="13" lengthAdjust="spacing" textLength="34" x="577" y="802.2026">- Diff</text><text fill="#000000" font-family="Verdana" font-size="13" lengthAdjust="spacing" textLength="83" x="552.5" y="818.002">- Timestamp</text><polygon fill="#000000" points="401,848.5308,391,852.5308,401,856.5308,397,852.5308" style="stroke:#000000;stroke-width:1.0;"/><line style="stroke:#000000;stroke-width:1.0;stroke-dasharray:2.0,2.0;" x1="395" x2="797" y1="852.5308" y2="852.5308"/><text fill="#000000" font-family="Verdana" font-size="13" lengthAdjust="spacing" textLength="95" x="546.5" y="847.8013">&#10003; Log ID: 789</text><polygon fill="#000000" points="241,878.3301,231,882.3301,241,886.3301,237,882.3301" style="stroke:#000000;stroke-width:1.0;"/><line style="stroke:#000000;stroke-width:1.0;stroke-dasharray:2.0,2.0;" x1="235" x2="389" y1="882.3301" y2="882.3301"/><text fill="#000000" font-family="Verdana" font-size="13" lengthAdjust="spacing" textLength="76" x="272" y="877.6006">&#10003; Ho&#224;n t&#7845;t</text><polygon fill="#000000" points="40,908.1294,30,912.1294,40,916.1294,36,912.1294" style="stroke:#000000;stroke-width:1.0;"/><line style="stroke:#000000;stroke-width:1.0;stroke-dasharray:2.0,2.0;" x1="34" x2="229" y1="912.1294" y2="912.1294"/><text fill="#000000" font-family="Verdana" font-size="13" lengthAdjust="spacing" textLength="47" x="106" y="907.3999">200 OK</text><rect fill="#FFFFFF" height="3" style="stroke:#FFFFFF;stroke-width:1.0;" width="828" x="5" y="941.0291"/><line style="stroke:#000000;stroke-width:0.5;" x1="5" x2="833" y1="941.0291" y2="941.0291"/><line style="stroke:#000000;stroke-width:0.5;" x1="5" x2="833" y1="944.0291" y2="944.0291"/><rect fill="#FFFFFF" height="23.7993" style="stroke:#000000;stroke-width:1.0;" width="112" x="363" y="930.1294"/><text fill="#000000" font-family="Verdana" font-size="13" font-weight="bold" lengthAdjust="spacing" textLength="94" x="369" y="947.1992">XEM L&#7882;CH S&#7916;</text><polygon fill="#000000" points="218,981.728,228,985.728,218,989.728,222,985.728" style="stroke:#000000;stroke-width:1.0;"/><line style="stroke:#000000;stroke-width:1.0;" x1="29" x2="224" y1="985.728" y2="985.728"/><text fill="#000000" font-family="Verdana" font-size="13" lengthAdjust="spacing" textLength="118" x="70.5" y="980.9985">GET /api/logs/123</text><polygon fill="#000000" points="786,1011.5273,796,1015.5273,786,1019.5273,790,1015.5273" style="stroke:#000000;stroke-width:1.0;"/><line style="stroke:#000000;stroke-width:1.0;" x1="230" x2="792" y1="1015.5273" y2="1015.5273"/><text fill="#000000" font-family="Verdana" font-size="13" lengthAdjust="spacing" textLength="107" x="460.5" y="1010.7979">Truy v&#7845;n l&#7883;ch s&#7917;</text><polygon fill="#000000" points="241,1041.3267,231,1045.3267,241,1049.3267,237,1045.3267" style="stroke:#000000;stroke-width:1.0;"/><line style="stroke:#000000;stroke-width:1.0;stroke-dasharray:2.0,2.0;" x1="235" x2="797" y1="1045.3267" y2="1045.3267"/><text fill="#000000" font-family="Verdana" font-size="13" lengthAdjust="spacing" textLength="128" x="450" y="1040.5972">Danh s&#225;ch thay &#273;&#7893;i</text><polygon fill="#000000" points="40,1071.126,30,1075.126,40,1079.126,36,1075.126" style="stroke:#000000;stroke-width:1.0;"/><line style="stroke:#000000;stroke-width:1.0;stroke-dasharray:2.0,2.0;" x1="34" x2="229" y1="1075.126" y2="1075.126"/><text fill="#000000" font-family="Verdana" font-size="13" lengthAdjust="spacing" textLength="105" x="77" y="1070.3965">Hi&#7875;n th&#7883; timeline</text><rect fill="none" height="180.1465" id="_legend" rx="7.5" ry="7.5" style="stroke:#000000;stroke-width:1.0;" width="181" x="646" y="1176.1406"/><text fill="#000000" font-family="Verdana" font-size="14" font-weight="bold" lengthAdjust="spacing" textLength="56" x="651" y="1195.2158">L&#7907;i &#237;ch:</text><text fill="#000000" font-family="Verdana" font-size="14" lengthAdjust="spacing" textLength="131" x="651" y="1212.2305">&#9989; T&#7921; &#273;&#7897;ng ghi log</text><text fill="#000000" font-family="Verdana" font-size="14" lengthAdjust="spacing" textLength="140" x="651" y="1229.2451">&#9989; Truy v&#7871;t thay &#273;&#7893;i</text><text fill="#000000" font-family="Verdana" font-size="14" lengthAdjust="spacing" textLength="128" x="651" y="1246.2598">&#9989; Rollback d&#7919; li&#7879;u</text><text fill="#000000" font-family="Verdana" font-size="14" lengthAdjust="spacing" textLength="137" x="651" y="1263.2744">&#9989; Audit compliance</text><text fill="#000000" font-family="Verdana" font-size="14" lengthAdjust="spacing" textLength="5" x="651" y="1280.2891">&#160;</text><text fill="#000000" font-family="Verdana" font-size="14" font-weight="bold" lengthAdjust="spacing" textLength="91" x="651" y="1297.3037">C&#244;ng ngh&#7879;:</text><text fill="#000000" font-family="Verdana" font-size="14" lengthAdjust="spacing" textLength="171" x="651" y="1314.3184">&#8226; Middleware interceptor</text><text fill="#000000" font-family="Verdana" font-size="14" lengthAdjust="spacing" textLength="130" x="651" y="1331.333">&#8226; JSON Diff engine</text><text fill="#000000" font-family="Verdana" font-size="14" lengthAdjust="spacing" textLength="166" x="651" y="1348.3477">&#8226; MySQL JSON columns</text><!--SRC=[bLHBYzn64BxthwWeD-5blSuXiM03cj4y5CzZFQE93LuVsb9RQhQd9OzQkmncmSOuXkHYOmUSu8CV17BmvW4vZGWvpEQ7j7z9gYNlpdYp2NWGerP_tLLVLNrLdwY4JHbaWd99yZqkCpgZKxX5mxrubXOoQgOYdS6dxUgtTY9dTmecGzPdUKvZvWeUImYPL6n6YE9ACB3jiRUrvK3VzxnUwvexQe4xyVm0Wf7hzs030bt-1iUFTVbyq85EruVUi6FRXD1GeKzhahEP1JG7io3eLl6GPrGgiDmTlqBmVGOe8gvsPPz7aM07TCRgOsQNH5JHMpHdO7cDQjjhV7Zvg_5m01w_VRj6SR5sPv3enP62lUMV5TfBOqAsjw6f5sztOD35Lm2UBd-1dg_BRoQmlKs88GuRNngQ3knC0jYa6TyiS3VVtBhqsQwyQoMfOj9oq7vSp7NvKCBNnmyaDAn3Gl1QTTkmTp2TDngjzd3KkcdRC9Oqo_4kgK1pociuqDEBd-OGwV9N45oNZmfe_lqpyHgmiJ8p5943_-dNNVDhB4vsF3TehPiyDMTYUlVYgSd0KGQoJi_moZcqtNRG6dqCwxukV_JFy1wmW__XNUVhr2gMpe5n2ldobKnCoB2V6mk4IBmFwJxMfQglRTT5zzjjLDwxP_S_wY5t2O0L9bJ6B49IvXCtJZZMdxYHYkYyL5yumIKxE2-a2Zx4_qDpqYhaojCDYqqf5zO5iB8abSowIGu9an6O-0WniQqdxufU_ANWJg4NR-guLxb28PiYTH8E0fUslIitgeu3tpDBDrGybITAC3kOpatC9NZO6-RR63JlW4zPhkWq8sXptRjHYTdoFGS-_-BogVDr5NNJvKi92gMWQW4XQ5WuSEdYnKfMs6pNMtrKI_bjimjZNRxzTuzrMkzx34EfMkn4Z5MKmQoOmpwwa21q-LsOGAxBenLROy6ZA1YK3O8geNCuVgBBx_aPIbsKALP89MW558OjkCIi2nQR4inud2XK5Z9zms5v52QEqTQBXsRW_LvP_4764DSPhu7tpB18wruDD4g5CEFuWnuqG9t4C9rcWbESn0HTDfT_e6KP8x57bTDxhs4r2u6RyHoo3CTh1PqEF60oDY5Kv-VZgxqQ2bDHJ6LkX5N7Hlu1]--></g></svg>