<?xml version="1.0" encoding="us-ascii" standalone="no"?><svg xmlns="http://www.w3.org/2000/svg" xmlns:xlink="http://www.w3.org/1999/xlink" contentStyleType="text/css" height="1360px" preserveAspectRatio="none" style="width:723px;height:1360px;background:#FFFFFF;" version="1.1" viewBox="0 0 723 1360" width="723px" zoomAndPan="magnify"><defs/><g><text fill="#000000" font-family="Verdana" font-size="22" font-weight="bold" lengthAdjust="spacing" textLength="304" x="208" y="37.1182">AD04: PH&#202; DUY&#7878;T C&#7844;P 1</text><rect fill="#FFFFFF" height="21.876" style="stroke:#FFFFFF;stroke-width:1.0;" width="700" x="10" y="55.0166"/><rect fill="#E1BEE7" height="1226.1982" style="stroke:#E1BEE7;stroke-width:1.0;" width="342.5" x="10" y="55.0166"/><ellipse cx="184.25" cy="91.8926" fill="#FFFFFF" rx="10" ry="10" style="stroke:#000000;stroke-width:1.0;"/><rect fill="#FFFFFF" height="33.3687" rx="12.5" ry="12.5" style="stroke:#000000;stroke-width:1.0;" width="125" x="121.75" y="121.8926"/><text fill="#000000" font-family="Verdana" font-size="11" lengthAdjust="spacing" textLength="105" x="131.75" y="142.9517">V&#224;o "Qu&#7843;n l&#253; &#273;&#417;n"</text><rect fill="#FFFFFF" height="46.7373" rx="12.5" ry="12.5" style="stroke:#000000;stroke-width:1.0;" width="133" x="117.75" y="175.2612"/><text fill="#000000" font-family="Verdana" font-size="11" lengthAdjust="spacing" textLength="113" x="127.75" y="196.3203">Xem danh s&#225;ch &#273;&#417;n</text><text fill="#000000" font-family="Verdana" font-size="11" lengthAdjust="spacing" textLength="104" x="127.75" y="209.689">"Ch&#7901; duy&#7879;t c&#7845;p 1"</text><rect fill="#FFFFFF" height="33.3687" rx="12.5" ry="12.5" style="stroke:#000000;stroke-width:1.0;" width="144" x="112.25" y="388.8418"/><text fill="#000000" font-family="Verdana" font-size="11" lengthAdjust="spacing" textLength="124" x="122.25" y="409.9009">Click v&#224;o &#273;&#417;n c&#7847;n x&#233;t</text><rect fill="#FFFFFF" height="73.4746" rx="12.5" ry="12.5" style="stroke:#000000;stroke-width:1.0;" width="127" x="120.75" y="442.2104"/><text fill="#000000" font-family="Verdana" font-size="11" lengthAdjust="spacing" textLength="68" x="130.75" y="463.2695">Xem chi ti&#7871;t</text><text fill="#000000" font-family="Verdana" font-size="11" lengthAdjust="spacing" textLength="99" x="130.75" y="476.6382">- L&#253; do xin h&#7895; tr&#7907;</text><text fill="#000000" font-family="Verdana" font-size="11" lengthAdjust="spacing" textLength="107" x="130.75" y="490.0068">- T&#224;i li&#7879;u &#273;&#237;nh k&#232;m</text><text fill="#000000" font-family="Verdana" font-size="11" lengthAdjust="spacing" textLength="95" x="130.75" y="503.3755">- S&#7889; ti&#7873;n &#273;&#7873; ngh&#7883;</text><rect fill="#FFFFFF" height="33.3687" rx="12.5" ry="12.5" style="stroke:#000000;stroke-width:1.0;" width="93" x="137.75" y="535.6851"/><text fill="#000000" font-family="Verdana" font-size="11" lengthAdjust="spacing" textLength="73" x="147.75" y="556.7441">Xem x&#233;t &#273;&#417;n</text><polygon fill="#FFFFFF" points="150.25,589.0537,218.25,589.0537,230.25,601.0537,218.25,613.0537,150.25,613.0537,138.25,601.0537,150.25,589.0537" style="stroke:#000000;stroke-width:1.0;"/><text fill="#000000" font-family="Verdana" font-size="11" lengthAdjust="spacing" textLength="68" x="150.25" y="605.4285">Quy&#7871;t &#273;&#7883;nh?</text><text fill="#000000" font-family="Verdana" font-size="11" lengthAdjust="spacing" textLength="57" x="81.25" y="598.7441">Ph&#234; duy&#7879;t</text><text fill="#000000" font-family="Verdana" font-size="11" lengthAdjust="spacing" textLength="41" x="230.25" y="598.7441">T&#7915; ch&#7889;i</text><rect fill="#FFFFFF" height="33.3687" rx="12.5" ry="12.5" style="stroke:#000000;stroke-width:1.0;" width="146" x="22.5" y="633.0537"/><text fill="#000000" font-family="Verdana" font-size="11" lengthAdjust="spacing" textLength="126" x="32.5" y="654.1128">Nh&#7853;p ghi ch&#250; (n&#7871;u c&#243;)</text><rect fill="#FFFFFF" height="46.7373" rx="12.5" ry="12.5" style="stroke:#000000;stroke-width:1.0;" width="159" x="16" y="930.3716"/><text fill="#000000" font-family="Verdana" font-size="11" lengthAdjust="spacing" textLength="139" x="26" y="951.4307">Th&#244;ng b&#225;o &#273;&#227; ph&#234; duy&#7879;t</text><text fill="#000000" font-family="Verdana" font-size="11" lengthAdjust="spacing" textLength="134" x="26" y="964.7993">&#272;&#417;n chuy&#7875;n sang c&#7845;p 2</text><rect fill="#FFFFFF" height="46.7373" rx="12.5" ry="12.5" style="stroke:#000000;stroke-width:1.0;" width="123" x="211.5" y="633.0537"/><text fill="#000000" font-family="Verdana" font-size="11" lengthAdjust="spacing" textLength="103" x="221.5" y="654.1128">Nh&#7853;p l&#253; do t&#7915; ch&#7889;i</text><text fill="#000000" font-family="Verdana" font-size="11" lengthAdjust="spacing" textLength="71" x="221.5" y="667.4814">(B&#7854;T BU&#7896;C)</text><rect fill="#FFFFFF" height="33.3687" rx="12.5" ry="12.5" style="stroke:#000000;stroke-width:1.0;" width="129" x="208.5" y="761.844"/><text fill="#000000" font-family="Verdana" font-size="11" lengthAdjust="spacing" textLength="109" x="218.5" y="782.9031">Y&#234;u c&#7847;u nh&#7853;p l&#253; do</text><ellipse cx="273" cy="841.2126" fill="none" rx="11" ry="11" style="stroke:#000000;stroke-width:1.0;"/><ellipse cx="273" cy="841.2126" fill="#FFFFFF" rx="6" ry="6" style="stroke:#000000;stroke-width:1.0;"/><polygon fill="#FFFFFF" points="230,713.1597,316,713.1597,328,725.1597,316,737.1597,230,737.1597,218,725.1597,230,713.1597" style="stroke:#000000;stroke-width:1.0;"/><text fill="#000000" font-family="Verdana" font-size="11" lengthAdjust="spacing" textLength="30" x="277" y="748.2188">Ch&#432;a</text><text fill="#000000" font-family="Verdana" font-size="11" lengthAdjust="spacing" textLength="86" x="230" y="729.5344">&#272;&#227; nh&#7853;p l&#253; do?</text><rect fill="#FFFFFF" height="33.3687" rx="12.5" ry="12.5" style="stroke:#000000;stroke-width:1.0;" width="103" x="221.5" y="1118.4775"/><text fill="#000000" font-family="Verdana" font-size="11" lengthAdjust="spacing" textLength="83" x="231.5" y="1139.5366">&#272;&#227; t&#7915; ch&#7889;i &#273;&#417;n</text><polygon fill="#FFFFFF" points="184.25,1161.8462,196.25,1173.8462,184.25,1185.8462,172.25,1173.8462,184.25,1161.8462" style="stroke:#000000;stroke-width:1.0;"/><rect fill="#FFFFFF" height="33.3687" rx="12.5" ry="12.5" style="stroke:#000000;stroke-width:1.0;" width="129" x="119.75" y="1205.8462"/><text fill="#000000" font-family="Verdana" font-size="11" lengthAdjust="spacing" textLength="109" x="129.75" y="1226.9053">Quay l&#7841;i danh s&#225;ch</text><ellipse cx="184.25" cy="1270.2148" fill="none" rx="11" ry="11" style="stroke:#000000;stroke-width:1.0;"/><ellipse cx="184.25" cy="1270.2148" fill="#FFFFFF" rx="6" ry="6" style="stroke:#000000;stroke-width:1.0;"/><line style="stroke:#000000;stroke-width:1.0;" x1="10" x2="10" y1="55.0166" y2="1281.2148"/><rect fill="#F5F5F5" height="1226.1982" style="stroke:#F5F5F5;stroke-width:1.0;" width="343.5" x="352.5" y="55.0166"/><rect fill="#FFFFFF" height="46.7373" rx="12.5" ry="12.5" style="stroke:#000000;stroke-width:1.0;" width="143" x="453.75" y="241.9985"/><text fill="#000000" font-family="Verdana" font-size="11" lengthAdjust="spacing" textLength="107" x="463.75" y="263.0576">L&#7845;y danh s&#225;ch &#273;&#417;n</text><text fill="#000000" font-family="Verdana" font-size="11" lengthAdjust="spacing" textLength="123" x="463.75" y="276.4263">&#273;ang ch&#7901; duy&#7879;t c&#7845;p 1</text><rect fill="#FFFFFF" height="60.106" rx="12.5" ry="12.5" style="stroke:#000000;stroke-width:1.0;" width="153" x="448.75" y="308.7358"/><text fill="#000000" font-family="Verdana" font-size="11" lengthAdjust="spacing" textLength="97" x="458.75" y="329.7949">Hi&#7875;n th&#7883; th&#244;ng tin</text><text fill="#000000" font-family="Verdana" font-size="11" lengthAdjust="spacing" textLength="102" x="458.75" y="343.1636">M&#227; &#273;&#417;n, Sinh vi&#234;n</text><text fill="#000000" font-family="Verdana" font-size="11" lengthAdjust="spacing" textLength="133" x="458.75" y="356.5322">Qu&#7929;, S&#7889; ti&#7873;n, Ng&#224;y n&#7897;p</text><rect fill="#FFFFFF" height="33.3687" rx="12.5" ry="12.5" style="stroke:#000000;stroke-width:1.0;" width="148" x="362.5" y="699.791"/><text fill="#000000" font-family="Verdana" font-size="11" lengthAdjust="spacing" textLength="128" x="372.5" y="720.8501">L&#432;u k&#7871;t qu&#7843; ph&#234; duy&#7879;t</text><rect fill="#FFFFFF" height="46.7373" rx="12.5" ry="12.5" style="stroke:#000000;stroke-width:1.0;" width="156" x="358.5" y="768.1597"/><text fill="#000000" font-family="Verdana" font-size="11" lengthAdjust="spacing" textLength="136" x="368.5" y="789.2188">C&#7853;p nh&#7853;t tr&#7841;ng th&#225;i &#273;&#417;n</text><text fill="#000000" font-family="Verdana" font-size="11" lengthAdjust="spacing" textLength="133" x="368.5" y="802.5874">th&#224;nh "&#272;&#227; duy&#7879;t c&#7845;p 1"</text><rect fill="#FFFFFF" height="46.7373" rx="12.5" ry="12.5" style="stroke:#000000;stroke-width:1.0;" width="124" x="374.5" y="849.897"/><text fill="#000000" font-family="Verdana" font-size="11" lengthAdjust="spacing" textLength="100" x="384.5" y="870.9561">Chuy&#7875;n &#273;&#417;n sang</text><text fill="#000000" font-family="Verdana" font-size="11" lengthAdjust="spacing" textLength="104" x="384.5" y="884.3247">"Ch&#7901; duy&#7879;t c&#7845;p 2"</text><rect fill="#FFFFFF" height="33.3687" rx="12.5" ry="12.5" style="stroke:#000000;stroke-width:1.0;" width="129" x="549.5" y="916.6343"/><text fill="#000000" font-family="Verdana" font-size="11" lengthAdjust="spacing" textLength="109" x="559.5" y="937.6934">L&#432;u k&#7871;t qu&#7843; t&#7915; ch&#7889;i</text><rect fill="#FFFFFF" height="46.7373" rx="12.5" ry="12.5" style="stroke:#000000;stroke-width:1.0;" width="156" x="536" y="985.0029"/><text fill="#000000" font-family="Verdana" font-size="11" lengthAdjust="spacing" textLength="136" x="546" y="1006.062">C&#7853;p nh&#7853;t tr&#7841;ng th&#225;i &#273;&#417;n</text><text fill="#000000" font-family="Verdana" font-size="11" lengthAdjust="spacing" textLength="122" x="546" y="1019.4307">th&#224;nh "T&#7915; ch&#7889;i c&#7845;p 1"</text><rect fill="#FFFFFF" height="46.7373" rx="12.5" ry="12.5" style="stroke:#000000;stroke-width:1.0;" width="100" x="564" y="1051.7402"/><text fill="#000000" font-family="Verdana" font-size="11" lengthAdjust="spacing" textLength="80" x="574" y="1072.7993">G&#7917;i th&#244;ng b&#225;o</text><text fill="#000000" font-family="Verdana" font-size="11" lengthAdjust="spacing" textLength="75" x="574" y="1086.168">cho sinh vi&#234;n</text><line style="stroke:#000000;stroke-width:1.0;" x1="352.5" x2="352.5" y1="55.0166" y2="1281.2148"/><line style="stroke:#000000;stroke-width:1.0;" x1="711" x2="711" y1="55.0166" y2="1281.2148"/><line style="stroke:#000000;stroke-width:1.0;" x1="184.25" x2="184.25" y1="101.8926" y2="121.8926"/><polygon fill="#000000" points="180.25,111.8926,184.25,121.8926,188.25,111.8926,184.25,115.8926" style="stroke:#000000;stroke-width:1.0;"/><line style="stroke:#000000;stroke-width:1.0;" x1="184.25" x2="184.25" y1="155.2612" y2="175.2612"/><polygon fill="#000000" points="180.25,165.2612,184.25,175.2612,188.25,165.2612,184.25,169.2612" style="stroke:#000000;stroke-width:1.0;"/><line style="stroke:#000000;stroke-width:1.0;" x1="184.25" x2="184.25" y1="422.2104" y2="442.2104"/><polygon fill="#000000" points="180.25,432.2104,184.25,442.2104,188.25,432.2104,184.25,436.2104" style="stroke:#000000;stroke-width:1.0;"/><line style="stroke:#000000;stroke-width:1.0;" x1="184.25" x2="184.25" y1="515.6851" y2="535.6851"/><polygon fill="#000000" points="180.25,525.6851,184.25,535.6851,188.25,525.6851,184.25,529.6851" style="stroke:#000000;stroke-width:1.0;"/><line style="stroke:#000000;stroke-width:1.0;" x1="273" x2="273" y1="795.2126" y2="830.2126"/><polygon fill="#000000" points="269,820.2126,273,830.2126,277,820.2126,273,824.2126" style="stroke:#000000;stroke-width:1.0;"/><line style="stroke:#000000;stroke-width:1.0;" x1="273" x2="273" y1="737.1597" y2="761.844"/><polygon fill="#000000" points="269,751.844,273,761.844,277,751.844,273,755.844" style="stroke:#000000;stroke-width:1.0;"/><line style="stroke:#000000;stroke-width:1.0;" x1="328" x2="614" y1="725.1597" y2="725.1597"/><polygon fill="#000000" points="610,811.5283,614,821.5283,618,811.5283,614,815.5283" style="stroke:#000000;stroke-width:1.0;"/><line style="stroke:#000000;stroke-width:1.0;" x1="614" x2="614" y1="725.1597" y2="916.6343"/><polygon fill="#000000" points="610,906.6343,614,916.6343,618,906.6343,614,910.6343" style="stroke:#000000;stroke-width:1.0;"/><line style="stroke:#000000;stroke-width:1.0;" x1="273" x2="273" y1="679.791" y2="713.1597"/><polygon fill="#000000" points="269,703.1597,273,713.1597,277,703.1597,273,707.1597" style="stroke:#000000;stroke-width:1.0;"/><line style="stroke:#000000;stroke-width:1.0;" x1="138.25" x2="95.5" y1="601.0537" y2="601.0537"/><line style="stroke:#000000;stroke-width:1.0;" x1="95.5" x2="95.5" y1="601.0537" y2="633.0537"/><polygon fill="#000000" points="91.5,623.0537,95.5,633.0537,99.5,623.0537,95.5,627.0537" style="stroke:#000000;stroke-width:1.0;"/><line style="stroke:#000000;stroke-width:1.0;" x1="230.25" x2="273" y1="601.0537" y2="601.0537"/><line style="stroke:#000000;stroke-width:1.0;" x1="273" x2="273" y1="601.0537" y2="633.0537"/><polygon fill="#000000" points="269,623.0537,273,633.0537,277,623.0537,273,627.0537" style="stroke:#000000;stroke-width:1.0;"/><line style="stroke:#000000;stroke-width:1.0;" x1="95.5" x2="95.5" y1="977.1089" y2="1173.8462"/><line style="stroke:#000000;stroke-width:1.0;" x1="95.5" x2="172.25" y1="1173.8462" y2="1173.8462"/><polygon fill="#000000" points="162.25,1169.8462,172.25,1173.8462,162.25,1177.8462,166.25,1173.8462" style="stroke:#000000;stroke-width:1.0;"/><line style="stroke:#000000;stroke-width:1.0;" x1="273" x2="273" y1="1151.8462" y2="1173.8462"/><line style="stroke:#000000;stroke-width:1.0;" x1="273" x2="196.25" y1="1173.8462" y2="1173.8462"/><polygon fill="#000000" points="206.25,1169.8462,196.25,1173.8462,206.25,1177.8462,202.25,1173.8462" style="stroke:#000000;stroke-width:1.0;"/><line style="stroke:#000000;stroke-width:1.0;" x1="184.25" x2="184.25" y1="569.0537" y2="589.0537"/><polygon fill="#000000" points="180.25,579.0537,184.25,589.0537,188.25,579.0537,184.25,583.0537" style="stroke:#000000;stroke-width:1.0;"/><line style="stroke:#000000;stroke-width:1.0;" x1="184.25" x2="184.25" y1="1185.8462" y2="1205.8462"/><polygon fill="#000000" points="180.25,1195.8462,184.25,1205.8462,188.25,1195.8462,184.25,1199.8462" style="stroke:#000000;stroke-width:1.0;"/><line style="stroke:#000000;stroke-width:1.0;" x1="184.25" x2="184.25" y1="1239.2148" y2="1259.2148"/><polygon fill="#000000" points="180.25,1249.2148,184.25,1259.2148,188.25,1249.2148,184.25,1253.2148" style="stroke:#000000;stroke-width:1.0;"/><line style="stroke:#000000;stroke-width:1.0;" x1="525.25" x2="525.25" y1="288.7358" y2="308.7358"/><polygon fill="#000000" points="521.25,298.7358,525.25,308.7358,529.25,298.7358,525.25,302.7358" style="stroke:#000000;stroke-width:1.0;"/><line style="stroke:#000000;stroke-width:1.0;" x1="436.5" x2="436.5" y1="733.1597" y2="768.1597"/><polygon fill="#000000" points="432.5,758.1597,436.5,768.1597,440.5,758.1597,436.5,762.1597" style="stroke:#000000;stroke-width:1.0;"/><line style="stroke:#000000;stroke-width:1.0;" x1="436.5" x2="436.5" y1="814.897" y2="849.897"/><polygon fill="#000000" points="432.5,839.897,436.5,849.897,440.5,839.897,436.5,843.897" style="stroke:#000000;stroke-width:1.0;"/><line style="stroke:#000000;stroke-width:1.0;" x1="614" x2="614" y1="950.0029" y2="985.0029"/><polygon fill="#000000" points="610,975.0029,614,985.0029,618,975.0029,614,979.0029" style="stroke:#000000;stroke-width:1.0;"/><line style="stroke:#000000;stroke-width:1.0;" x1="614" x2="614" y1="1031.7402" y2="1051.7402"/><polygon fill="#000000" points="610,1041.7402,614,1051.7402,618,1041.7402,614,1045.7402" style="stroke:#000000;stroke-width:1.0;"/><line style="stroke:#000000;stroke-width:1.0;" x1="184.25" x2="184.25" y1="221.9985" y2="226.9985"/><line style="stroke:#000000;stroke-width:1.0;" x1="184.25" x2="525.25" y1="226.9985" y2="226.9985"/><line style="stroke:#000000;stroke-width:1.0;" x1="525.25" x2="525.25" y1="226.9985" y2="241.9985"/><polygon fill="#000000" points="521.25,231.9985,525.25,241.9985,529.25,231.9985,525.25,235.9985" style="stroke:#000000;stroke-width:1.0;"/><line style="stroke:#000000;stroke-width:1.0;" x1="525.25" x2="525.25" y1="368.8418" y2="373.8418"/><line style="stroke:#000000;stroke-width:1.0;" x1="525.25" x2="184.25" y1="373.8418" y2="373.8418"/><line style="stroke:#000000;stroke-width:1.0;" x1="184.25" x2="184.25" y1="373.8418" y2="388.8418"/><polygon fill="#000000" points="180.25,378.8418,184.25,388.8418,188.25,378.8418,184.25,382.8418" style="stroke:#000000;stroke-width:1.0;"/><line style="stroke:#000000;stroke-width:1.0;" x1="95.5" x2="95.5" y1="666.4224" y2="683.9224"/><line style="stroke:#000000;stroke-width:1.0;" x1="95.5" x2="436.5" y1="683.9224" y2="683.9224"/><line style="stroke:#000000;stroke-width:1.0;" x1="436.5" x2="436.5" y1="683.9224" y2="699.791"/><polygon fill="#000000" points="432.5,689.791,436.5,699.791,440.5,689.791,436.5,693.791" style="stroke:#000000;stroke-width:1.0;"/><line style="stroke:#000000;stroke-width:1.0;" x1="436.5" x2="436.5" y1="896.6343" y2="912.8716"/><line style="stroke:#000000;stroke-width:1.0;" x1="436.5" x2="95.5" y1="912.8716" y2="912.8716"/><line style="stroke:#000000;stroke-width:1.0;" x1="95.5" x2="95.5" y1="912.8716" y2="930.3716"/><polygon fill="#000000" points="91.5,920.3716,95.5,930.3716,99.5,920.3716,95.5,924.3716" style="stroke:#000000;stroke-width:1.0;"/><line style="stroke:#000000;stroke-width:1.0;" x1="614" x2="614" y1="1098.4775" y2="1103.4775"/><line style="stroke:#000000;stroke-width:1.0;" x1="614" x2="273" y1="1103.4775" y2="1103.4775"/><line style="stroke:#000000;stroke-width:1.0;" x1="273" x2="273" y1="1103.4775" y2="1118.4775"/><polygon fill="#000000" points="269,1108.4775,273,1118.4775,277,1108.4775,273,1112.4775" style="stroke:#000000;stroke-width:1.0;"/><text fill="#000000" font-family="Verdana" font-size="18" lengthAdjust="spacing" textLength="105" x="128.75" y="73.1133">C&#225;n b&#7897; Qu&#7929;</text><text fill="#000000" font-family="Verdana" font-size="18" lengthAdjust="spacing" textLength="82" x="483.25" y="73.1133">H&#7879; th&#7889;ng</text><rect fill="none" height="61.0439" id="_legend" rx="7.5" ry="7.5" style="stroke:#000000;stroke-width:1.0;" width="336" x="374" y="1286.2148"/><text fill="#000000" font-family="Verdana" font-size="14" font-weight="bold" lengthAdjust="spacing" textLength="56" x="379" y="1305.29">Quy&#7873;n:</text><text fill="#000000" font-family="Verdana" font-size="14" lengthAdjust="spacing" textLength="251" x="440" y="1305.29">C&#225;n b&#7897; Qu&#7929; (role 3), Admin (role 1)</text><text fill="#000000" font-family="Verdana" font-size="14" font-weight="bold" lengthAdjust="spacing" textLength="35" x="379" y="1322.3047">API:</text><text fill="#000000" font-family="Verdana" font-size="14" lengthAdjust="spacing" textLength="286" x="419" y="1322.3047">PUT /api/applications/:id/approve-level-1</text><text fill="#000000" font-family="Verdana" font-size="14" font-weight="bold" lengthAdjust="spacing" textLength="120" x="379" y="1339.3193">B&#432;&#7899;c ti&#7871;p theo:</text><text fill="#000000" font-family="Verdana" font-size="14" lengthAdjust="spacing" textLength="175" x="504" y="1339.3193">C&#225;n b&#7897; kh&#225;c duy&#7879;t c&#7845;p 2</text><!--SRC=[bLHDRzD04BtlhnZIInArQbEea9m3QjAM8fKgLLEWHzTnxLMSjOdNeK6ve4fKefVc10WX9Ie8A2gg11Ti8GuRvN_iFs7MJehJ3qIJE8dduytCUxE-nMspOOBdw9GHlqwPfpVr1kpeHjrgkW6hbLt7RSBKIlnAHUW6fotAsoikuvlqkGc5GihhFwCDHsVcOrhZDimlp172ANTCoESNb-RkQ51P5QzWQMjRHY-hK9RXXmeKydb2EbFBXTBoyjrEMVGPxCZeBMm4ClhP8JxNcvneZqJFXGpQmcC6ZlW5W-wmpp95eZqn6r3JcGs-w1jsOYUPiYsZzr0BsZ8wu638yAC71Gp7IYiBwjrPHGzm3EiogqEqDGnfNm82CkZgp0BZAZWilafbjCzYc4Fy5ZymbYEb3yLn0Z0DcnGXMrISC1AFX1QiYL4oUe7kTKlqsi1mOg_uBnwqiaEDEhGK3qbhsCKd1dlY2n-nODXKmOQ_EPc1DUIevi8UPO3DlGRUbD4nsgkYHy71uWS1ueXJRAukFZVGaseBFVW3p59pZT1LeQGozabt8Rk1R62jEFQGsVToI83985knnScOgXm1qDPj6PvwO65xXYr2o3BC2y0GttD5zEFd6b4mTsru5a0zhlDKYGzU2brbQ-KOdAaQN4qPzfK6jkZJqIw0kklXd9d14SfoUISKYAsi-sn4hO-Qe_dABPhFd3TzdLO8M4rsOKVqbLnYicyC61p54exB-l6I9VWnlEdu9cIhCleQxrwNffbq4ctvNoywioKPVgj2QKj6RyfZOfLEyTGidNakLTaUdkaA6R6tnKaGxrGm6LoCtJvtFVnZiXhTlR5cgKPlAbcAWKd5xileb8wFdA8PZORjWdz-tFv7ffYRL7lZ1K_c9Df6eBV1mGPfwj5G934Rn34jZ8CcjMnEydbr7l3iQFayN2W5sQQB3y7RkMbOh3NmH2RtXHncBLOUg8pALXLcTO_YvU51rpbrcJ-hqPeoDDsMEUEOBTEPAM1AQNWcetT6SjOz9QKxMRIEL1eNrrRDb7HC_W00]--></g></svg>